<?xml version="1.0" standalone="no"?>
<!DOCTYPE svg PUBLIC "-//W3C//DTD SVG 1.1//EN" "http://www.w3.org/Graphics/SVG/1.1/DTD/svg11.dtd" >
<svg xmlns="http://www.w3.org/2000/svg" xmlns:xlink="http://www.w3.org/1999/xlink" version="1.1">
<metadata>
Created by FontForge 20170731 at Tue Jul 23 14:00:51 2019
 By Aleksey,,,
Copyright 2019 The Sofia Sans Project Authors (nikoltchev@lettersoup.de)
</metadata>
<defs>
<font id="SofiaSans-Medium" horiz-adv-x="0" >
  <font-face 
    font-family="Sofia Sans Medium"
    font-weight="500"
    font-stretch="normal"
    units-per-em="1000"
    panose-1="2 11 6 3 6 0 0 2 0 4"
    ascent="800"
    descent="-200"
    x-height="489"
    cap-height="655"
    bbox="-775 -245 1295 903"
    underline-thickness="50"
    underline-position="-150"
    unicode-range="U+000D-FB02"
  />
<missing-glyph horiz-adv-x="590" 
d="M98 11v659q0 10 10 10h373q11 0 11 -10v-659q0 -11 -11 -11h-373q-10 0 -10 11zM419 73v534h-249v-534h249z" />
    <glyph glyph-name="f_f" unicode="ff" horiz-adv-x="741" 
d="M106 11v397h-77q-4 0 -7 3t-3 8v60q0 10 10 10h77v49q0 75 43.5 116t121.5 41q24 0 49.5 -4.5t43.5 -11.5q18 -6 18 -16v-59q0 -9 -8 -9q-6 0 -15 4q-17 6 -38.5 10.5t-38.5 4.5q-81 0 -81 -79v-46h140q10 0 10 -10v-60q0 -5 -3 -8t-7 -3h-140v-397q0 -5 -3 -8t-8 -3h-74
q-10 0 -10 11zM475 11v397h-77q-4 0 -7 3t-3 8v60q0 10 10 10h77v49q0 75 43.5 116t121.5 41q24 0 49.5 -4.5t43.5 -11.5q18 -6 18 -16v-59q0 -9 -8 -9q-6 0 -15 4q-17 6 -38.5 10.5t-38.5 4.5q-81 0 -81 -79v-46h140q10 0 10 -10v-60q0 -5 -3 -8t-7 -3h-140v-397
q0 -5 -3 -8t-8 -3h-74q-10 0 -10 11z" />
    <glyph glyph-name="f_i" unicode="fi" horiz-adv-x="572" 
d="M106 11v397h-77q-4 0 -7 3t-3 8v60q0 10 10 10h77v44q0 83 44.5 122.5t138.5 39.5q50 0 112 -11q9 -1 9 -12v-58q0 -12 -12 -10q-61 14 -105 14q-92 0 -92 -73v-56h289q10 0 10 -10v-468q0 -11 -10 -11h-74q-5 0 -8 3t-3 8v397h-204v-397q0 -5 -3 -8t-8 -3h-74
q-10 0 -10 11z" />
    <glyph glyph-name="f_l" unicode="fl" horiz-adv-x="572" 
d="M106 11v397h-77q-4 0 -7 3t-3 8v60q0 10 10 10h77v44q0 85 45.5 123.5t137.5 38.5q40 0 80 -6.5t49 -7.5l72 2q10 0 10 -11v-661q0 -11 -10 -11h-74q-11 0 -11 11v594q-76 13 -113 13q-91 0 -91 -73v-56h96q10 0 10 -10v-60q0 -5 -3 -8t-7 -3h-96v-397q0 -5 -3 -8t-8 -3
h-74q-10 0 -10 11z" />
    <glyph glyph-name=".notdef" horiz-adv-x="590" 
d="M98 11v659q0 10 10 10h373q11 0 11 -10v-659q0 -11 -11 -11h-373q-10 0 -10 11zM419 73v534h-249v-534h249z" />
    <glyph glyph-name=".null" 
 />
    <glyph glyph-name="nonmarkingreturn" unicode="&#xd;" horiz-adv-x="9" 
 />
    <glyph glyph-name="space" unicode=" " horiz-adv-x="208" 
 />
    <glyph glyph-name="exclam" unicode="!" horiz-adv-x="239" 
d="M74 215l-7 429q0 11 10 11h85q10 0 10 -11l-7 -429q0 -11 -10 -11h-71q-10 0 -10 11zM74 3.5q-15 15.5 -15 43.5v12q0 28 15 44t46 16t46 -16t15 -44v-12q0 -28 -15 -43.5t-46 -15.5t-46 15.5z" />
    <glyph glyph-name="quotedbl" unicode="&#x22;" horiz-adv-x="341" 
d="M51 423q-3 3 -3 7v242q0 5 3 8t8 3h73q11 0 11 -11v-242q0 -10 -11 -10h-73q-5 0 -8 3zM198 430v242q0 11 10 11h74q10 0 10 -11v-242q0 -10 -10 -10h-74q-10 0 -10 10z" />
    <glyph glyph-name="numbersign" unicode="#" horiz-adv-x="604" 
d="M123 3q-3 3 -3 8v112h-80q-5 0 -8 3t-3 7v56q0 4 3 7t8 3h80v215h-80q-5 0 -8 3t-3 7v56q0 4 3 7t8 3h80v112q0 5 3 8t8 3h70q10 0 10 -11v-112h182v112q0 11 10 11h70q5 0 8 -3t3 -8v-112h80q5 0 8 -3t3 -7v-56q0 -4 -3 -7t-8 -3h-80v-215h80q5 0 8 -3t3 -7v-56
q0 -4 -3 -7t-8 -3h-80v-112q0 -5 -3 -8t-8 -3h-70q-10 0 -10 11v112h-182v-112q0 -11 -10 -11h-70q-5 0 -8 3zM393 199v215h-182v-215h182z" />
    <glyph glyph-name="dollar" unicode="$" horiz-adv-x="630" 
d="M503 273.5q28 -35.5 28 -101.5q0 -78 -45 -124t-127 -57v-70q0 -10 -10 -10h-64q-10 0 -10 10v69q-86 8 -132 55.5t-46 134.5q0 14 11 14h72q6 0 8 -3.5t2 -11.5q0 -109 123 -109q65 0 94 22t29 75q0 36 -16 57.5t-58 41.5l-134 63q-61 28 -91 68.5t-30 100.5
q0 77 44 118t124 48v68q0 10 10 10h64q10 0 10 -10v-69q80 -10 122.5 -57.5t41.5 -130.5q0 -10 -9 -10h-73q-10 0 -10 10q0 109 -120 109q-53 0 -81.5 -21t-28.5 -63q0 -35 19 -57.5t62 -41.5l131 -62q62 -30 90 -65.5z" />
    <glyph glyph-name="percent" unicode="%" horiz-adv-x="943" 
d="M100 356.5q-43 41.5 -43 119.5v30q0 77 43.5 119t127.5 42t126.5 -41.5t42.5 -119.5v-30q0 -78 -43 -119.5t-126 -41.5q-85 0 -128 41.5zM236 3.5q-2 3.5 1 9.5l198 329l178 307q6 8 13 8h73q6 0 8 -3.5t-1 -9.5l-187 -310l-189 -327q-5 -7 -13 -7h-73q-6 0 -8 3.5z
M295 407q21 21 21 68v32q0 48 -21 68.5t-67 20.5q-47 0 -68 -21t-21 -68v-32q0 -47 21 -68t68 -21q46 0 67 21zM588.5 29.5q-42.5 41.5 -42.5 119.5v30q0 78 43 119.5t126 41.5q85 0 128 -41.5t43 -119.5v-30q0 -77 -43.5 -119t-127.5 -42t-126.5 41.5zM783 80q21 21 21 68
v32q0 47 -21 68t-68 21q-46 0 -67 -21t-21 -68v-32q0 -48 21 -68.5t67 -20.5q47 0 68 21z" />
    <glyph glyph-name="ampersand" unicode="&#x26;" horiz-adv-x="674" 
d="M658 6q0 -6 -9 -6h-98q-7 0 -14 5l-62 60q-80 -77 -219 -77q-103 0 -155 48t-52 128q0 61 29.5 108t88.5 92q-77 81 -77 159q0 144 163 144q71 0 110.5 -35.5t39.5 -100.5q0 -43 -27 -83.5t-84 -86.5l169 -161q21 60 21 156q0 5 3 8t8 3h69q5 0 8 -3t3 -8
q0 -134 -46 -220l127 -122q4 -4 4 -8zM180 523q0 -25 13.5 -50t42.5 -57q40 33 59 59.5t19 53.5q0 30 -16 45t-50 15q-68 0 -68 -66zM415 123l-191 185q-49 -41 -67 -71t-18 -70q0 -44 33 -71t93 -27q98 0 150 54z" />
    <glyph glyph-name="quotesingle" unicode="'" horiz-adv-x="191" 
d="M51 423q-3 3 -3 7v242q0 5 3 8t8 3h73q11 0 11 -11v-242q0 -10 -11 -10h-73q-5 0 -8 3z" />
    <glyph glyph-name="parenleft" unicode="(" horiz-adv-x="272" 
d="M92.5 -59.5q-20.5 42.5 -20.5 113.5v447q0 47 10 79.5t29.5 59t56.5 62.5q3 3 8 3t8 -3l45 -45q4 -3 4 -7t-4 -8q-37 -37 -50.5 -65t-13.5 -78v-443q0 -34 6.5 -55.5t18 -37t39.5 -49.5q7 -9 0 -15l-45 -45q-3 -3 -8 -3q-3 0 -8 3q-55 44 -75.5 86.5z" />
    <glyph glyph-name="parenright" unicode=")" horiz-adv-x="272" 
d="M43 -101q-3 3 -3 7t4 8q38 40 51 66.5t13 75.5v443q0 50 -13.5 78t-50.5 65q-4 4 -4 8t3 7l46 45q3 3 8 3t8 -3q54 -48 75 -89.5t21 -111.5v-447q0 -71 -20.5 -113.5t-75.5 -86.5q-10 -7 -16 0z" />
    <glyph glyph-name="asterisk" unicode="*" horiz-adv-x="413" 
d="M97 447q-4 3 -4 7.5t3 7.5l66 73l-98 21q-6 1 -7 4.5t1 8.5l17 52q5 11 15 6l89 -40l-9 100v2q0 9 9 9h54q5 0 8 -3t2 -8l-9 -101l89 41q2 1 5 1q9 0 10 -7l18 -52q1 -2 1 -5q0 -6 -8 -8l-99 -22l66 -72q3 -4 3 -7q0 -4 -5 -9l-45 -32q-4 -2 -6 -2q-5 0 -8 5l-49 85
l-50 -86q-7 -10 -14 -3z" />
    <glyph glyph-name="plus" unicode="+" horiz-adv-x="600" 
d="M259 121v140h-158q-10 0 -10 11v57q0 11 10 11h158v140q0 10 10 10h62q10 0 10 -10v-140h158q10 0 10 -11v-57q0 -11 -10 -11h-158v-140q0 -10 -10 -10h-62q-10 0 -10 10z" />
    <glyph glyph-name="comma" unicode="," horiz-adv-x="242" 
d="M30 -118l50 224q2 9 11 9h87q6 0 8.5 -4t-0.5 -10l-75 -225q-3 -7 -10 -7h-62q-12 0 -9 13z" />
    <glyph glyph-name="hyphen" unicode="-" horiz-adv-x="489" 
d="M70 232q-3 3 -3 8v51q0 11 10 11h334q11 0 11 -11v-51q0 -5 -3 -8t-8 -3h-334q-4 0 -7 3z" />
    <glyph glyph-name="period" unicode="." horiz-adv-x="242" 
d="M74 4.5q-15 16.5 -15 44.5v12q0 60 62 60t62 -60v-12q0 -28 -15 -44.5t-47 -16.5t-47 16.5z" />
    <glyph glyph-name="slash" unicode="/" horiz-adv-x="378" 
d="M13 3q-3 3 -1 9l263 635q3 8 13 8h69q6 0 8.5 -3t0.5 -9l-263 -635q-3 -8 -12 -8h-69q-6 0 -9 3z" />
    <glyph glyph-name="zero" unicode="0" horiz-adv-x="584" 
d="M124 48.5q-60 60.5 -60 169.5v219q0 109 60 169.5t168 60.5t168 -60.5t60 -169.5v-219q0 -109 -60 -169.5t-168 -60.5t-168 60.5zM389.5 109q35.5 37 35.5 103v231q0 66 -35.5 103t-97.5 37q-63 0 -98 -37t-35 -103v-231q0 -66 35 -103t98 -37q62 0 97.5 37z" />
    <glyph glyph-name="one" unicode="1" horiz-adv-x="462" 
d="M39 11v63q0 11 10 11h155v464l-148 -46l-5 -1q-6 0 -6 8v66q0 5 1.5 7t5.5 3l212 71q10 2 15 2h10q10 0 10 -10v-564h138q10 0 10 -11v-63q0 -11 -10 -11h-388q-10 0 -10 11z" />
    <glyph glyph-name="two" unicode="2" horiz-adv-x="543" 
d="M69 3q-3 3 -3 8v72q0 57 26 101t63.5 74.5t97.5 68.5q47 30 74 51.5t45 47.5t18 57v20q0 81 -115 81q-110 0 -110 -94q0 -10 -10 -10h-73q-10 0 -10 12q0 86 53.5 130.5t158.5 44.5q201 0 201 -167q0 -60 -24 -102.5t-58.5 -70.5t-90.5 -63q-49 -30 -77.5 -52.5
t-48 -53.5t-19.5 -73h304q11 0 11 -11v-63q0 -11 -11 -11h-394q-5 0 -8 3z" />
    <glyph glyph-name="three" unicode="3" horiz-adv-x="552" 
d="M111 34.5q-53 46.5 -53 126.5q0 15 10 15h72q11 0 11 -11q0 -94 114 -94q64 0 99 27t35 76v24q0 97 -130 97h-85q-10 0 -10 10v60q0 11 10 11h84q57 0 86.5 25.5t29.5 74.5v25q0 83 -117 83q-59 0 -87 -22.5t-28 -70.5q0 -11 -11 -11h-72q-10 0 -10 11q0 176 215 176
q105 0 155 -41t50 -127q0 -61 -26 -101.5t-71 -54.5v-2q57 -19 84.5 -58.5t27.5 -101.5q0 -94 -59 -143.5t-170 -49.5q-101 0 -154 46.5z" />
    <glyph glyph-name="four" unicode="4" horiz-adv-x="551" 
d="M350 11v115h-330q-10 0 -10 10v9q0 10 3 15l265 487q5 8 13 8h76q6 0 8.5 -3t-0.5 -9l-236 -432h212l3 214q0 10 10 10h68q11 0 11 -10v-214h73q11 0 11 -11v-64q0 -10 -11 -10h-73v-115q0 -11 -11 -11h-72q-10 0 -10 11z" />
    <glyph glyph-name="five" unicode="5" horiz-adv-x="528" 
d="M97.5 33.5q-51.5 45.5 -49.5 131.5q0 10 10 10h71q11 0 11 -10q0 -46 28.5 -70t85.5 -24q68 0 99 28t31 89v29q0 62 -32 91.5t-100 29.5q-35 0 -80 -10t-86 -27l-8 -2q-5 0 -8.5 4t-2.5 10l31 331q1 11 10 11h322q5 0 8 -3t3 -8v-63q0 -5 -3 -8t-8 -3h-250l-12 -167
q60 14 111 14q96 0 148.5 -53.5t52.5 -156.5q0 -108 -59.5 -163.5t-173.5 -55.5q-98 0 -149.5 45.5z" />
    <glyph glyph-name="six" unicode="6" horiz-adv-x="573" 
d="M518 225q0 -114 -58.5 -175.5t-167.5 -61.5q-110 0 -169 56t-59 163v243q0 103 61 160t173 57q93 0 147 -37t54 -104q0 -11 -11 -11h-71q-11 0 -11 11q0 27 -28.5 43t-77.5 16q-70 0 -105 -32t-35 -99v-98q85 62 182 62q176 0 176 -193zM423 233q0 52 -27 78t-80 26
q-38 0 -78.5 -15t-77.5 -42v-74q0 -63 34.5 -99.5t96.5 -36.5q63 0 97.5 36t34.5 101v26z" />
    <glyph glyph-name="seven" unicode="7" horiz-adv-x="535" 
d="M141 4q-2 4 0 9l254 557h-249v-78q0 -11 -10 -11h-73q-5 0 -8 3t-3 8v152q0 5 3 8t8 3h448q11 0 11 -11v-5q0 -7 -3 -15l-278 -615q-4 -9 -14 -9h-78q-6 0 -8 4z" />
    <glyph glyph-name="eight" unicode="8" horiz-adv-x="580" 
d="M113 35q-61 47 -61 141q0 63 30.5 108t83.5 65q-44 20 -64.5 54.5t-20.5 92.5q0 80 54.5 125.5t154.5 45.5t154.5 -45.5t54.5 -125.5q0 -58 -20.5 -92.5t-64.5 -54.5q53 -20 83.5 -65t30.5 -108q0 -94 -61 -141t-177 -47t-177 47zM375 409.5q30 25.5 30 71.5v15
q0 43 -30 67.5t-85 24.5t-85 -24.5t-30 -67.5v-15q0 -46 30 -71.5t85 -25.5t85 25.5zM397 95.5q36 27.5 36 78.5v17q0 57 -38 89t-105 32t-104.5 -31.5t-37.5 -89.5v-17q0 -52 35.5 -79t106.5 -27t107 27.5z" />
    <glyph glyph-name="nine" unicode="9" horiz-adv-x="585" 
d="M460.5 608q59.5 -59 59.5 -167v-227q0 -112 -59 -169t-176 -57q-100 0 -154 41.5t-54 120.5q0 10 10 10h72q11 0 11 -10q0 -32 31 -56t85 -24q139 0 139 138v88q-42 -32 -83 -47t-88 -15q-93 0 -141.5 52t-48.5 151q0 112 58 171t168 59q111 0 170.5 -59zM425 373v76
q0 64 -36.5 100t-100.5 36q-63 0 -95.5 -34.5t-32.5 -99.5v-36q0 -47 30 -74t83 -27q78 0 152 59z" />
    <glyph glyph-name="colon" unicode=":" horiz-adv-x="240" 
d="M74 364q-15 16 -15 44v12q0 28 15 44t46 16t46.5 -16t15.5 -44v-12q0 -28 -15.5 -44t-46.5 -16t-46 16zM74 4q-15 16 -15 44v12q0 28 15 44t46 16t46.5 -16t15.5 -44v-12q0 -28 -15.5 -44t-46.5 -16t-46 16z" />
    <glyph glyph-name="semicolon" unicode=";" horiz-adv-x="246" 
d="M79 364q-15 16 -15 44v12q0 28 15 44t46 16q62 0 62 -60v-12q0 -60 -62 -60q-31 0 -46 16zM16 -127.5q-3 3.5 -2 9.5l50 224q2 9 10 9h86q5 0 8.5 -4.5t1.5 -9.5l-75 -225q-3 -7 -10 -7h-60q-6 0 -9 3.5z" />
    <glyph glyph-name="less" unicode="&#x3c;" horiz-adv-x="600" 
d="M98 254q-9 3 -9 12v62q0 8 9 12l400 154q2 1 5 1q8 0 8 -9v-70q0 -9 -9 -12l-317 -107l317 -108q9 -3 9 -12v-70q0 -5 -3.5 -7.5t-9.5 -0.5z" />
    <glyph glyph-name="equal" unicode="=" horiz-adv-x="600" 
d="M94 351q-3 3 -3 8v56q0 5 3 8t8 3h396q5 0 8 -3t3 -8v-56q0 -5 -3 -8t-8 -3h-396q-5 0 -8 3zM94 179q-3 3 -3 7v57q0 4 3 7t8 3h396q5 0 8 -3t3 -7v-57q0 -4 -3 -7t-8 -3h-396q-5 0 -8 3z" />
    <glyph glyph-name="greater" unicode="&#x3e;" horiz-adv-x="600" 
d="M97 98q-8 0 -8 9v70q0 9 9 12l317 108l-317 107q-9 3 -9 12v70q0 6 3.5 8.5t9.5 -0.5l400 -154q9 -4 9 -12v-62q0 -9 -9 -12l-400 -155q-2 -1 -5 -1z" />
    <glyph glyph-name="question" unicode="?" horiz-adv-x="475" 
d="M170.5 207.5q-3.5 3.5 -3.5 7.5v39q0 35 21.5 63.5t63.5 65.5q44 39 66 68t22 67q0 69 -97 69q-57 0 -81 -26t-23 -78q0 -5 -3 -8.5t-7 -3.5h-73q-11 0 -11 16q0 91 50 135.5t151 44.5q95 0 142.5 -36.5t47.5 -104.5q0 -41 -16.5 -75t-39 -58.5t-57.5 -57.5
q-33 -30 -47.5 -47.5t-15.5 -35.5l-1 -37q0 -4 -3 -7.5t-7 -3.5h-71q-4 0 -7.5 3.5zM171 3.5q-15 15.5 -15 43.5v12q0 28 15 44t46 16t46 -16t15 -44v-12q0 -28 -15 -43.5t-46 -15.5t-46 15.5z" />
    <glyph glyph-name="at" unicode="@" horiz-adv-x="998" 
d="M937 319v-47q0 -116 -60.5 -185.5t-168.5 -69.5q-49 0 -82.5 19t-48.5 53q-92 -73 -171 -73q-124 0 -124 128q0 20 3 44l15 112q12 88 61.5 137t135.5 49q31 0 55 -3t60 -9q44 -8 70 -10q10 -1 9 -12l-35 -258q-2 -12 -2 -33q0 -32 13 -47.5t44 -15.5q60 0 96.5 46
t36.5 128v47q0 294 -354 294q-163 0 -249.5 -84.5t-86.5 -243.5v-94q0 -147 82.5 -220t254.5 -73h136q11 0 11 -11v-61q0 -11 -11 -11h-138q-217 0 -322.5 94t-105.5 281v96q0 189 107.5 299t321.5 110q447 0 447 -376zM596 396q-50 10 -98 10q-45 0 -72.5 -26t-36.5 -87
l-14 -99q-2 -12 -2 -31q0 -34 15 -50t48 -16q30 0 60.5 16.5t67.5 47.5l2 18z" />
    <glyph glyph-name="A" unicode="A" horiz-adv-x="568" 
d="M569 8q0 -8 -10 -8h-81q-10 0 -13 8l-46 140h-275l-45 -139q-3 -9 -12 -9h-78q-12 0 -9 12l220 635q3 8 12 8h101q10 0 13 -8l222 -635zM393 230l-71 217l-41 123h-1q-18 -58 -28 -86q-4 -15 -11 -35l-71 -219h223z" />
    <glyph glyph-name="B" unicode="B" horiz-adv-x="578" 
d="M82 11v633q0 11 10 11h184q230 0 230 -163q0 -55 -26 -89t-84 -55v-2q138 -25 138 -164q0 -94 -62 -138t-195 -44h-185q-10 0 -10 11zM273 376q71 0 104.5 24.5t33.5 76.5t-33.5 74.5t-113.5 22.5h-87v-198h96zM277 82q87 0 124.5 24.5t37.5 81.5q0 59 -38 86t-121 27
h-103v-219h100z" />
    <glyph glyph-name="C" unicode="C" horiz-adv-x="636" 
d="M134 49q-64 61 -64 178v201q0 116 64.5 177.5t187.5 61.5q73 0 129.5 -23t88.5 -66.5t32 -102.5q0 -21 -2 -32q-2 -14 -11 -14h-75q-10 0 -10 11q3 69 -36 106t-115 37q-77 0 -117.5 -39.5t-40.5 -115.5v-201q0 -76 40.5 -115.5t117.5 -39.5q72 0 112 33t40 92
q0 12 -1 18q0 11 10 11h74q6 0 8.5 -3.5t3.5 -10.5t1 -21q0 -61 -31 -107t-87.5 -71t-131.5 -25q-123 0 -187 61z" />
    <glyph glyph-name="D" unicode="D" horiz-adv-x="643" 
d="M82 11v633q0 11 10 11h183q154 0 230.5 -71.5t76.5 -216.5v-53q0 -158 -76 -236t-231 -78h-183q-10 0 -10 11zM268 81q112 0 165 56t53 173v62q0 103 -53 152.5t-165 49.5h-91v-493h91z" />
    <glyph glyph-name="E" unicode="E" horiz-adv-x="535" 
d="M82 11v633q0 11 10 11h364q10 0 10 -11v-64q0 -11 -10 -11h-279v-195h255q4 0 7 -3t3 -8v-61q0 -5 -3 -8t-7 -3h-255v-205h279q10 0 10 -11v-64q0 -11 -10 -11h-364q-10 0 -10 11z" />
    <glyph glyph-name="F" unicode="F" horiz-adv-x="508" 
d="M82 11v633q0 11 10 11h364q10 0 10 -11v-64q0 -11 -10 -11h-279v-205h241q4 0 7 -3t3 -8v-62q0 -10 -10 -10h-241v-270q0 -11 -10 -11h-75q-10 0 -10 11z" />
    <glyph glyph-name="G" unicode="G" horiz-adv-x="655" 
d="M132.5 51q-62.5 63 -62.5 176v201q0 113 67.5 176t187.5 63q74 0 130 -23t86.5 -65t30.5 -98q0 -20 -2 -30q-2 -11 -11 -11h-75q-4 0 -7 3t-2 8q3 64 -34.5 98t-113.5 34q-162 0 -162 -155v-201q0 -155 156 -155q80 0 121.5 38t41.5 111v37h-150q-5 0 -8 3t-3 7v58
q0 5 3.5 8t7.5 3h229q4 0 7 -3t3 -8v-193q0 -70 8 -121v-2q0 -10 -10 -10h-61q-9 0 -11 9q-6 30 -7 62h-1q-28 -41 -75.5 -62t-109.5 -21q-111 0 -173.5 63z" />
    <glyph glyph-name="H" unicode="H" horiz-adv-x="663" 
d="M82 11v633q0 11 10 11h75q10 0 10 -11v-266h309v266q0 11 10 11h75q5 0 8 -3t3 -8v-633q0 -5 -3 -8t-8 -3h-75q-10 0 -10 11v284h-309v-284q0 -11 -10 -11h-75q-10 0 -10 11z" />
    <glyph glyph-name="I" unicode="I" horiz-adv-x="259" 
d="M82 11v633q0 11 10 11h75q10 0 10 -11v-633q0 -11 -10 -11h-75q-10 0 -10 11z" />
    <glyph glyph-name="J" unicode="J" horiz-adv-x="269" 
d="M24 -145q-10 0 -11 7l-20 66v3q0 9 18 13q40 10 60.5 45.5t20.5 95.5v559q0 11 10 11h75q10 0 10 -11v-554q0 -199 -150 -233z" />
    <glyph glyph-name="K" unicode="K" horiz-adv-x="601" 
d="M82 11v633q0 11 10 11h75q10 0 10 -11v-186q0 -81 -1 -121h1q31 37 90 104l185 209q4 5 12 5h96q6 0 8.5 -3.5t-2.5 -9.5l-230 -253l249 -376q2 -6 2 -7q0 -6 -8 -6h-95q-7 0 -12 7l-202 308l-93 -101v-203q0 -11 -10 -11h-75q-10 0 -10 11z" />
    <glyph glyph-name="L" unicode="L" horiz-adv-x="479" 
d="M82 11v633q0 11 10 11h75q10 0 10 -11v-558h272q11 0 11 -11v-64q0 -11 -11 -11h-357q-10 0 -10 11z" />
    <glyph glyph-name="M" unicode="M" horiz-adv-x="774" 
d="M67 11l14 633q0 11 10 11h113q8 0 12 -8l172 -385l170 385q4 8 12 8h113q10 0 10 -11l14 -633q0 -11 -10 -11h-73q-10 0 -10 11l-10 378q-1 62 4 150h-3q-28 -71 -65 -149l-140 -302q-4 -8 -12 -8h-3q-8 0 -11 8l-143 306q-21 43 -61 145h-3q3 -54 3 -111v-36l-10 -381
q0 -11 -10 -11h-73q-10 0 -10 11z" />
    <glyph glyph-name="N" unicode="N" horiz-adv-x="664" 
d="M82 11v633q0 11 10 11h124q9 0 12 -7l180 -365q54 -109 81 -174h2q-2 108 -2 178v357q0 11 10 11h73q5 0 8 -3t3 -8v-633q0 -5 -3 -8t-8 -3h-121q-9 0 -13 7l-176 355q-47 96 -86 184h-2v-25q2 -114 2 -167v-343q0 -5 -3 -8t-8 -3h-73q-10 0 -10 11z" />
    <glyph glyph-name="O" unicode="O" horiz-adv-x="645" 
d="M133.5 49.5q-63.5 61.5 -63.5 176.5v203q0 115 63.5 176.5t188.5 61.5q126 0 189.5 -61.5t63.5 -176.5v-203q0 -115 -63.5 -176.5t-189.5 -61.5q-125 0 -188.5 61.5zM439.5 112q40.5 40 40.5 117v197q0 77 -40.5 117t-117.5 40t-117 -40t-40 -117v-197q0 -77 40 -117
t117 -40t117.5 40z" />
    <glyph glyph-name="P" unicode="P" horiz-adv-x="549" 
d="M82 11v633q0 11 10 11h173q123 0 184.5 -52.5t61.5 -154.5q0 -101 -62.5 -153.5t-183.5 -52.5h-88v-231q0 -11 -10 -11h-75q-10 0 -10 11zM263 323q79 0 115.5 29.5t36.5 92.5q0 67 -37 98t-117 31h-84v-251h86z" />
    <glyph glyph-name="Q" unicode="Q" horiz-adv-x="645" 
d="M511.5 605.5q63.5 -61.5 63.5 -176.5v-203q0 -95 -43.5 -153.5t-129.5 -76.5q2 -51 16.5 -73t44.5 -22q10 0 32 6h2q9 0 9 -10v-58q0 -10 -11 -14q-21 -7 -50 -7q-60 0 -93.5 42t-37.5 128q-122 2 -183 63t-61 175v203q0 115 63.5 176.5t188.5 61.5q126 0 189.5 -61.5z
M480 426q0 77 -40.5 117t-117.5 40t-117 -40t-40 -117v-197q0 -77 40 -117t117 -40t117.5 40t40.5 117v197z" />
    <glyph glyph-name="R" unicode="R" horiz-adv-x="607" 
d="M82 11v633q0 11 10 11h198q121 0 179.5 -46t58.5 -138q0 -71 -33.5 -118.5t-96.5 -65.5v-2l165 -272q2 -3 2 -7q0 -6 -9 -6h-87q-9 0 -13 7l-159 267h-120v-263q0 -11 -10 -11h-75q-10 0 -10 11zM282 350q80 0 115.5 27t35.5 88q0 59 -33.5 84t-111.5 25h-111v-224h105z
" />
    <glyph glyph-name="S" unicode="S" horiz-adv-x="569" 
d="M101 38q-58 50 -52 139q1 17 13 17h72q12 0 12 -15q0 -56 34 -82t105 -26q137 0 137 96q0 36 -19 57t-68 41l-146 61q-69 28 -99 67.5t-30 98.5q0 86 55 130t162 44q105 0 166.5 -43t61.5 -121q0 -13 -1 -19q-2 -18 -11 -18h-73q-6 0 -8.5 4t-1.5 14q4 48 -32.5 74.5
t-102.5 26.5q-119 0 -120 -85q0 -34 19.5 -55.5t70.5 -43.5l145 -61q69 -29 98 -67t29 -100q0 -184 -239 -184q-119 0 -177 50z" />
    <glyph glyph-name="T" unicode="T" horiz-adv-x="538" 
d="M221 11v558h-178q-10 0 -10 11v64q0 11 10 11h452q10 0 10 -11v-64q0 -11 -10 -11h-178v-558q0 -11 -11 -11h-74q-11 0 -11 11z" />
    <glyph glyph-name="U" unicode="U" horiz-adv-x="646" 
d="M141 50q-64 62 -64 178v416q0 11 10 11h75q10 0 10 -11v-418q0 -74 39 -114t112 -40t112 40t39 114v418q0 11 11 11h74q5 0 8 -3t3 -8v-418q0 -112 -65.5 -175t-181.5 -63q-118 0 -182 62z" />
    <glyph glyph-name="V" unicode="V" horiz-adv-x="591" 
d="M228 8l-213 635l-1 4q0 8 9 8h81q4 0 8 -2t5 -6l132 -417q12 -36 20 -63t13 -45l10 -32h2q10 35 34 107l10 31l137 418q3 9 13 9h79q12 0 9 -12l-217 -635q-3 -8 -13 -8h-106q-9 0 -12 8z" />
    <glyph glyph-name="W" unicode="W" horiz-adv-x="855" 
d="M201 9l-181 634l-1 4q0 8 10 8h76q10 0 11 -9l110 -396q6 -20 13 -48.5t11 -45.5l13 -54h2q13 46 41 138l82 268l-36 125q-1 1 -1 4q0 7 10 7h77q9 0 11 -9l110 -402q15 -55 34 -131h1q24 104 36 147l106 397q2 9 11 9h78q13 0 10 -12l-175 -634q-1 -9 -12 -9h-102
q-10 0 -12 9l-65 226q-16 57 -37 134h-1l-40 -132l-68 -229q-3 -8 -12 -8h-98q-10 0 -12 9z" />
    <glyph glyph-name="X" unicode="X" horiz-adv-x="559" 
d="M5 3.5q-2 3.5 2 9.5l213 325l-200 304q-2 6 -2 7q0 6 9 6h91q7 0 11 -6l107 -165l46 -76h1q20 35 49 80l103 161q5 6 12 6h87q14 0 6 -13l-198 -306l210 -323q2 -3 2 -7q0 -6 -8 -6h-91q-7 0 -13 6l-112 175q-14 22 -16 25l-35 58h-1l-50 -81l-113 -176q-5 -7 -12 -7h-90
q-6 0 -8 3.5z" />
    <glyph glyph-name="Y" unicode="Y" horiz-adv-x="544" 
d="M224 11v214l-214 417q-1 2 -1 6q0 7 8 7h87q9 0 12 -7l104 -215l52 -111h1l53 113l103 213q3 7 13 7h84q5 0 7.5 -3.5t-0.5 -9.5l-213 -417v-214q0 -5 -3 -8t-8 -3h-75q-10 0 -10 11z" />
    <glyph glyph-name="Z" unicode="Z" horiz-adv-x="548" 
d="M19 10v2q0 6 4 14l289 445q45 71 64 98v1q-38 -1 -114 -1h-200q-5 0 -8 3t-3 8v64q0 5 3 8t8 3h454q5 0 8 -3t3 -7v-2q0 -7 -5 -14l-285 -435l-16 -25l-55 -83v-1q43 1 129 1h198q10 0 10 -11v-64q0 -11 -10 -11h-464q-10 0 -10 10z" />
    <glyph glyph-name="bracketleft" unicode="[" horiz-adv-x="273" 
d="M75 -146q-3 3 -3 8v831q0 10 10 10h190q10 0 10 -10v-55q0 -11 -10 -11h-107v-699h107q10 0 10 -11v-55q0 -5 -3 -8t-7 -3h-190q-4 0 -7 3z" />
    <glyph glyph-name="backslash" unicode="\" horiz-adv-x="378" 
d="M275 8l-263 635l-1 4q0 4 3 6t8 2h69q9 0 12 -8l263 -635l1 -4q0 -8 -10 -8h-69q-10 0 -13 8z" />
    <glyph glyph-name="bracketright" unicode="]" horiz-adv-x="273" 
d="M-6 -146q-3 3 -3 8v55q0 11 10 11h108v699h-108q-10 0 -10 11v55q0 10 10 10h190q10 0 10 -10v-831q0 -5 -3 -8t-7 -3h-190q-4 0 -7 3z" />
    <glyph glyph-name="asciicircum" unicode="^" horiz-adv-x="511" 
d="M45.5 353.5q-2.5 3.5 0.5 9.5l165 313q4 7 13 7h64q9 0 13 -7l165 -313q2 -4 2 -6q0 -3 -2.5 -5t-6.5 -2h-70q-9 0 -12 7l-121 241l-120 -241q-4 -7 -13 -7h-70q-5 0 -7.5 3.5z" />
    <glyph glyph-name="underscore" unicode="_" horiz-adv-x="541" 
d="M2 -124v52q0 5 3 8t7 3h517q4 0 7 -3t3 -8v-52q0 -10 -10 -10h-517q-10 0 -10 10z" />
    <glyph glyph-name="grave" unicode="`" horiz-adv-x="224" 
d="M117 563l-85 123l-2 5q0 6 7 6h76q5 0 8 -1.5t5 -5.5l67 -123q1 -2 1 -5q0 -6 -7 -6h-58q-9 0 -12 7z" />
    <glyph glyph-name="a" unicode="a" horiz-adv-x="497" 
d="M432 10q0 -10 -10 -10h-65q-6 0 -8.5 3.5t-4.5 10.5q-5 25 -8 63q-46 -47 -86 -68t-85 -21q-59 0 -89.5 35.5t-30.5 102.5q0 52 20 84.5t65.5 50.5t122.5 25l78 7v40q0 48 -19.5 68t-66.5 20q-86 0 -85 -60q0 -5 -3 -8t-7 -3h-73q-7 0 -9.5 6.5t-2.5 22.5q0 56 49.5 89
t133.5 33q91 0 134.5 -41t43.5 -126v-212q0 -68 6 -110v-2zM152 84q13 -16 41 -16q30 0 61 18.5t77 64.5v75l-77 -7q-66 -6 -90.5 -24.5t-24.5 -61.5q0 -33 13 -49z" />
    <glyph glyph-name="b" unicode="b" horiz-adv-x="537" 
d="M476 318v-127q0 -203 -206 -203q-34 0 -66.5 4.5t-38.5 5.5q-50 7 -93 11v663q0 11 10 11h74q5 0 8 -3t3 -8v-240q41 36 80 52.5t81 16.5q148 0 148 -183zM381 308q0 57 -19 83.5t-59 26.5q-30 0 -61 -15.5t-75 -53.5v-269q47 -10 91 -10q63 0 93 32t30 98v108z" />
    <glyph glyph-name="c" unicode="c" horiz-adv-x="520" 
d="M112 38.5q-53 50.5 -53 145.5v121q0 95 54.5 145.5t155.5 50.5q90 0 142 -40.5t52 -105.5q0 -24 -11 -24h-73q-10 0 -10 15q0 34 -26.5 53t-73.5 19q-58 0 -86.5 -29.5t-28.5 -92.5v-103q0 -122 114 -122q46 0 73 20t27 51q0 16 10 16h73q5 0 8 -3t3 -7q1 -74 -50.5 -117
t-144.5 -43q-102 0 -155 50.5z" />
    <glyph glyph-name="d" unicode="d" horiz-adv-x="544" 
d="M479 10q0 -10 -11 -10h-66q-11 0 -12 11q-7 56 -7 64q-47 -45 -88.5 -66t-89.5 -21q-71 0 -107.5 46.5t-36.5 136.5v129q0 96 47 148.5t133 52.5q35 0 73.5 -8.5t62.5 -21.5v201q0 11 10 11h74q5 0 8 -3t3 -8v-557q0 -69 6 -101zM234 71q33 0 65 17.5t78 61.5v242
q-28 13 -59 20t-57 7q-105 0 -105 -129v-118q0 -101 78 -101z" />
    <glyph glyph-name="e" unicode="e" horiz-adv-x="522" 
d="M111 33.5q-52 45.5 -52 135.5v136q0 96 51.5 146t151.5 50t151.5 -48.5t51.5 -142.5v-78q0 -10 -10 -10h-302v-32q0 -64 27 -92.5t87 -28.5q45 0 69.5 15t24.5 43q0 5 3 8t8 3h74q8 0 10 -9q4 -66 -47.5 -103.5t-145.5 -37.5q-100 0 -152 45.5zM371 297v5q0 60 -26.5 89
t-80.5 29q-111 0 -111 -119v-4h218z" />
    <glyph glyph-name="f" unicode="f" horiz-adv-x="371" 
d="M106 11v397h-77q-4 0 -7 3t-3 8v60q0 10 10 10h77v49q0 75 43.5 116t121.5 41q24 0 49.5 -4.5t43.5 -11.5q18 -6 18 -16v-59q0 -9 -8 -9q-6 0 -15 4q-17 6 -38.5 10.5t-38.5 4.5q-81 0 -81 -79v-46h140q10 0 10 -10v-60q0 -5 -3 -8t-7 -3h-140v-397q0 -5 -3 -8t-8 -3h-74
q-10 0 -10 11z" />
    <glyph glyph-name="g" unicode="g" horiz-adv-x="518" 
d="M457 48q30 -34 30 -100q0 -77 -55 -111t-177 -34q-117 0 -170 30.5t-53 95.5q0 73 62 111q-25 25 -25 68q0 28 12 49t40 44q-45 42 -45 129t46.5 129t143.5 42q30 0 50 -4q8 64 17 110q3 12 12 12h68q12 0 9 -11q-17 -53 -30 -139q58 -42 58 -140q0 -87 -45.5 -129
t-141.5 -42q-48 0 -86 11q-23 -14 -23 -40q0 -16 11 -23.5t35 -9.5l165 -10q62 -4 92 -38zM190.5 401q-20.5 -21 -20.5 -72t20.5 -71t72.5 -20t73 20.5t21 70.5q0 51 -21 72t-73 21t-72.5 -21zM339.5 -112.5q28.5 6.5 41 21.5t12.5 42t-13 40t-43 14l-169 10
q-38 -20 -38 -67q0 -37 28.5 -52t100.5 -15q52 0 80.5 6.5z" />
    <glyph glyph-name="h" unicode="h" horiz-adv-x="557" 
d="M448 459q37 -42 37 -124v-324q0 -11 -10 -11h-74q-11 0 -11 11v315q0 92 -77 92q-35 0 -70.5 -19.5t-75.5 -59.5v-328q0 -5 -3 -8t-8 -3h-74q-10 0 -10 11v661q0 11 10 11h74q5 0 8 -3t3 -8v-252q43 42 83.5 61.5t88.5 19.5q72 0 109 -42z" />
    <glyph glyph-name="i" unicode="i" horiz-adv-x="238" 
d="M72 11v468q0 10 10 10h74q5 0 8 -3t3 -7v-468q0 -5 -3 -8t-8 -3h-74q-10 0 -10 11zM74.5 583.5q-14.5 15.5 -14.5 42.5v11q0 27 14.5 42.5t44.5 15.5t44.5 -15.5t14.5 -42.5v-11q0 -27 -14.5 -42.5t-44.5 -15.5t-44.5 15.5z" />
    <glyph glyph-name="j" unicode="j" horiz-adv-x="239" 
d="M40 -192q-3 0 -8 5l-44 54q-3 4 -3 7q0 5 6 8q81 57 81 186v411q0 10 10 10h74q5 0 8 -3t3 -7v-416q0 -92 -29 -154t-92 -99q-4 -2 -6 -2zM75.5 583.5q-14.5 15.5 -14.5 42.5v11q0 27 14.5 42.5t44.5 15.5t44.5 -15.5t14.5 -42.5v-11q0 -27 -14.5 -42.5t-44.5 -15.5
t-44.5 15.5z" />
    <glyph glyph-name="k" unicode="k" horiz-adv-x="499" 
d="M72 11v661q0 11 10 11h74q5 0 8 -3t3 -8v-254q0 -46 -2 -138h1q36 43 73 82l111 122q5 5 13 5h98q7 0 8.5 -3.5t-3.5 -8.5l-166 -174l181 -290l2 -6q0 -7 -9 -7h-88q-6 0 -13 7l-140 227l-66 -68v-155q0 -5 -3 -8t-8 -3h-74q-10 0 -10 11z" />
    <glyph glyph-name="l" unicode="l" horiz-adv-x="238" 
d="M72 11v661q0 11 10 11h74q5 0 8 -3t3 -8v-661q0 -5 -3 -8t-8 -3h-74q-10 0 -10 11z" />
    <glyph glyph-name="m" unicode="m" horiz-adv-x="843" 
d="M72 11v355q0 66 -7 111v2q0 10 11 10h67q6 0 8 -1.5t3 -5.5q8 -52 9 -66q44 44 83.5 64.5t86.5 20.5q100 0 126 -91q47 48 88 69.5t88 21.5q68 0 102.5 -41.5t34.5 -123.5v-325q0 -11 -11 -11h-74q-10 0 -10 11v315q0 92 -69 92q-31 0 -63.5 -19t-75.5 -60v-328
q0 -11 -10 -11h-74q-11 0 -11 11v315q0 92 -69 92q-31 0 -63 -18.5t-75 -60.5v-328q0 -5 -3 -8t-8 -3h-74q-10 0 -10 11z" />
    <glyph glyph-name="n" unicode="n" horiz-adv-x="557" 
d="M447.5 459q37.5 -42 37.5 -124v-324q0 -11 -10 -11h-74q-11 0 -11 11v315q0 47 -19 69.5t-59 22.5q-34 0 -67 -18t-78 -61v-328q0 -5 -3 -8t-8 -3h-74q-10 0 -10 11v355q0 52 -7 110v3q0 10 10 10h68q5 0 8 -2t4 -8q4 -16 8 -63q45 44 86 64.5t89 20.5q72 0 109.5 -42z
" />
    <glyph glyph-name="o" unicode="o" horiz-adv-x="538" 
d="M112.5 38q-53.5 50 -53.5 150v113q0 200 210 200q103 0 157 -50t54 -150v-113q0 -100 -53.5 -150t-157.5 -50q-103 0 -156.5 50zM357 102q28 31 28 95v96q0 64 -28 94.5t-88 30.5t-87.5 -30.5t-27.5 -94.5v-96q0 -64 27.5 -95t87.5 -31t88 31z" />
    <glyph glyph-name="p" unicode="p" horiz-adv-x="538" 
d="M477 318v-129q0 -98 -46 -149.5t-132 -51.5q-34 0 -70.5 8t-61.5 21v-191q0 -5 -3 -8t-8 -3h-74q-10 0 -10 11v548q0 51 -7 103v2q0 10 10 10h68q11 0 12 -10q6 -31 7 -52q44 39 82.5 56.5t83.5 17.5q149 0 149 -183zM382 308q0 57 -19.5 83.5t-59.5 26.5
q-30 0 -60.5 -16t-75.5 -55v-252q25 -12 54 -18.5t55 -6.5q54 0 80 32t26 98v108z" />
    <glyph glyph-name="q" unicode="q" horiz-adv-x="542" 
d="M323.5 497.5q28.5 -3.5 54.5 -8.5q56 -10 93 -12v-651q0 -5 -3 -8t-8 -3h-74q-10 0 -10 11v232q-43 -37 -83 -53.5t-85 -16.5q-75 0 -111 45t-36 138v127q0 203 206 203q28 0 56.5 -3.5zM297.5 86.5q31.5 15.5 78.5 54.5v268q-55 10 -101 10q-62 0 -90.5 -31t-28.5 -98
v-109q0 -58 18.5 -84t59.5 -26q32 0 63.5 15.5z" />
    <glyph glyph-name="r" unicode="r" horiz-adv-x="359" 
d="M345 450q0 -27 -3 -53q-2 -12 -14 -9q-13 4 -35 4q-32 0 -65.5 -19t-60.5 -52v-310q0 -5 -3 -8t-8 -3h-74q-10 0 -10 11v358q0 59 -7 109v2q0 4 3 6.5t7 2.5h68q11 0 12 -9q6 -33 8 -70q32 40 72 65.5t73 25.5q18 0 27 -3q8 -3 9 -11q1 -12 1 -37z" />
    <glyph glyph-name="s" unicode="s" horiz-adv-x="466" 
d="M96.5 26.5q-45.5 38.5 -45.5 117.5q0 12 10 12h74q9 0 9 -9q0 -42 21.5 -61t68.5 -19q94 0 94 60q0 21 -13.5 36.5t-43.5 28.5l-114 47q-54 23 -77 52t-23 76q0 134 171 134q88 0 135.5 -36t47.5 -101q0 -10 -11 -10h-73q-10 0 -10 16q0 25 -22.5 39t-62.5 14
q-41 0 -60.5 -13.5t-19.5 -42.5q0 -21 10.5 -31.5t45.5 -25.5l114 -48q54 -22 77.5 -52t23.5 -78q0 -70 -48.5 -107t-140.5 -37t-137.5 38.5z" />
    <glyph glyph-name="t" unicode="t" horiz-adv-x="388" 
d="M138 26.5q-33 38.5 -33 122.5v259h-76q-4 0 -7.5 3.5t-3.5 7.5v60q0 4 3 7t8 3h78l12 120q2 11 12 11h58q10 0 10 -11l1 -120h145q11 0 11 -10v-60q0 -5 -3 -8t-8 -3h-145v-255q0 -46 16 -64.5t54 -18.5t74 16q2 1 6 1q7 0 7 -9v-61q0 -9 -9 -12q-41 -17 -98 -17
q-79 0 -112 38.5z" />
    <glyph glyph-name="u" unicode="u" horiz-adv-x="543" 
d="M478 9q0 -9 -11 -9h-63q-12 0 -13 10q-6 42 -7 66q-93 -88 -180 -88q-64 0 -98 42.5t-34 123.5v325q0 10 10 10h74q5 0 8 -3t3 -7v-316q0 -47 16.5 -69.5t51.5 -22.5q32 0 65 18.5t77 61.5v328q0 10 10 10h74q5 0 8 -3t3 -7v-356q0 -69 6 -112v-2z" />
    <glyph glyph-name="v" unicode="v" horiz-adv-x="501" 
d="M186 8l-162 470l-1 4q0 7 10 7h79q9 0 12 -8l84 -271q24 -73 41 -137h3q15 56 41 137l84 271q3 8 13 8h78q12 0 9 -11l-163 -470q-3 -8 -13 -8h-102q-8 0 -13 8z" />
    <glyph glyph-name="w" unicode="w" horiz-adv-x="724" 
d="M171 9l-146 469l-1 4q0 7 10 7h79q8 0 11 -9l75 -266l34 -129h3q21 68 28 88q3 12 11 36l50 158l-29 100l-1 4q0 8 10 8h70q10 0 12 -8l70 -262q6 -20 16 -62l15 -62h2l6 22q18 70 28 105l75 268q3 9 12 9h79q11 0 8 -11l-146 -469q-3 -9 -12 -9h-97q-8 0 -11 9l-30 96
q-24 90 -36 146h-3q-16 -67 -40 -143l-32 -99q-3 -9 -12 -9h-96q-9 0 -12 9z" />
    <glyph glyph-name="x" unicode="x" horiz-adv-x="485" 
d="M10 4q-2 4 2 9l171 239l-160 225q-2 2 -2 6q0 6 9 6h88q8 0 12 -6l66 -96q33 -50 46 -72h1l52 77l62 91q5 6 13 6h83q7 0 9 -3.5t-2 -8.5l-160 -223l174 -241q2 -2 2 -6q0 -7 -9 -7h-88q-8 0 -12 6l-63 90l-63 93h-1l-40 -62l-20 -31l-62 -90q-4 -6 -13 -6h-87q-6 0 -8 4
z" />
    <glyph glyph-name="y" unicode="y" horiz-adv-x="502" 
d="M137 -181.5q-2 3.5 0 9.5l70 177l-184 472q-1 2 -1 5q0 7 8 7h81q8 0 11 -8l85 -231q20 -53 34 -101q4 -10 10 -30h2l20 60t16 47l9 24l84 231q3 8 13 8h77q5 0 7.5 -3.5t0.5 -8.5l-251 -654q-3 -8 -11 -8h-74q-5 0 -7 3.5z" />
    <glyph glyph-name="z" unicode="z" horiz-adv-x="467" 
d="M23 10v2q0 7 4 14l211 299l17 24l41 58v2q-37 -1 -111 -1h-128q-4 0 -7 3t-3 8v60q0 10 10 10h376q4 0 7 -2.5t3 -6.5v-3q0 -7 -5 -15l-204 -289q-42 -60 -65 -91v-1h102h149q11 0 11 -11v-59q0 -11 -11 -11h-386q-11 0 -11 10z" />
    <glyph glyph-name="braceleft" unicode="{" horiz-adv-x="273" 
d="M163 -133.5q-35 15.5 -49.5 54t-14.5 114.5v129q0 42 -13.5 58t-47.5 16h-17q-5 0 -8 3t-3 8v56q0 11 11 11h17q33 0 47 16.5t14 57.5v130q0 77 15 115.5t50 53.5t103 15q5 0 8 -3t3 -8v-55q0 -11 -11 -11q-33 0 -48.5 -7.5t-21.5 -25t-6 -53.5v-150q0 -50 -14 -76.5
t-46 -37.5q31 -9 45.5 -36.5t14.5 -77.5v-149q0 -36 6.5 -54t22 -25t47.5 -7q11 0 11 -11v-55q0 -5 -3 -8t-8 -3q-69 0 -104 15.5z" />
    <glyph glyph-name="bar" unicode="|" horiz-adv-x="258" 
d="M82 -174v993q0 11 10 11h74q10 0 10 -11v-993q0 -11 -10 -11h-74q-10 0 -10 11z" />
    <glyph glyph-name="braceright" unicode="}" horiz-adv-x="273" 
d="M-1 -146q-3 3 -3 8v55q0 11 10 11q32 0 48 7t22 24.5t6 54.5v149q0 50 14.5 77.5t45.5 36.5q-32 11 -46 37.5t-14 76.5v150q0 36 -6 53.5t-21.5 25t-48.5 7.5q-10 0 -10 11v55q0 5 3 8t7 3q68 0 103.5 -15t50.5 -54t15 -115v-130q0 -42 13.5 -58t47.5 -16h17q10 0 10 -11
v-56q0 -5 -3 -8t-7 -3h-17q-34 0 -47.5 -16t-13.5 -58v-129q0 -76 -14.5 -114.5t-50 -54t-104.5 -15.5q-4 0 -7 3z" />
    <glyph glyph-name="asciitilde" unicode="~" horiz-adv-x="600" 
d="M341.5 250.5q-19.5 3.5 -44.5 10.5q-26 7 -44 10.5t-44 3.5q-32 0 -67.5 -10t-39.5 -11l-4 -1q-7 0 -7 9v57q0 4 1 6.5t4 3.5q54 27 115 27q28 0 46.5 -3.5t47.5 -11.5q24 -7 42.5 -10.5t43.5 -3.5q32 0 67.5 10t39.5 11l4 1q7 0 7 -9v-57q0 -9 -7 -12q-58 -24 -113 -24
q-28 0 -47.5 3.5z" />
    <glyph glyph-name="uni00A0" unicode="&#xa0;" horiz-adv-x="208" 
 />
    <glyph glyph-name="exclamdown" unicode="&#xa1;" horiz-adv-x="239" 
d="M181 442v-12q0 -28 -15 -44t-46 -16t-46 16t-15 44v12q0 59 61 59t61 -59zM155 285q10 0 10 -11l7 -429q0 -11 -10 -11h-85q-10 0 -10 11l7 429q0 11 10 11h71z" />
    <glyph glyph-name="cent" unicode="&#xa2;" horiz-adv-x="630" 
d="M235.5 438.5q-28.5 -29.5 -28.5 -92.5v-103q0 -122 114 -122q46 0 73 20t27 51q0 16 10 16h73q11 0 11 -10q1 -64 -37.5 -105.5t-110.5 -51.5v-69q0 -10 -10 -10h-64q-10 0 -10 10v68q-84 9 -127.5 58.5t-43.5 135.5v121q0 85 44 134.5t127 59.5v68q0 10 10 10h64
q10 0 10 -10v-69q70 -10 109.5 -48t39.5 -95q0 -24 -11 -24h-73q-10 0 -10 15q0 34 -26.5 53t-73.5 19q-58 0 -86.5 -29.5z" />
    <glyph glyph-name="sterling" unicode="&#xa3;" horiz-adv-x="630" 
d="M554 74v-63q0 -11 -10 -11h-418q-10 0 -10 11v49q0 7 5 13q43 47 43 102v124h-71q-11 0 -11 11v56q0 10 11 10h71v93q0 198 186 198q85 0 130.5 -40.5t45.5 -133.5q0 -14 -10 -14h-70q-5 0 -8 3t-2 8q0 43 -18 68.5t-66 25.5q-52 0 -73 -28.5t-21 -94.5v-85h151
q10 0 10 -10v-56q0 -11 -10 -11h-151v-107q0 -39 -10 -63.5t-29 -43.5h325q10 0 10 -11z" />
    <glyph glyph-name="currency" unicode="&#xa4;" horiz-adv-x="631" 
d="M131 104q-3 0 -8 5l-46 47q-3 3 -3 6q0 4 4 8l62 53q-21 44 -21 91t21 91l-62 53q-7 8 -1 14l46 47q7 9 14 2l59 -54q50 33 120 33q69 0 119 -33l59 54q3 3 6 3t8 -5l46 -47q3 -3 3 -6q0 -4 -4 -8l-62 -53q21 -44 21 -91t-21 -91l62 -53q8 -7 1 -14l-46 -47q-6 -8 -14 -2
l-59 54q-50 -33 -119 -33q-70 0 -120 33l-59 -54q-3 -3 -6 -3zM425 314q0 108 -109 108q-110 0 -110 -108t110 -108q109 0 109 108z" />
    <glyph glyph-name="yen" unicode="&#xa5;" horiz-adv-x="632" 
d="M566.5 651.5q2.5 -3.5 -0.5 -9.5l-167 -344h70q11 0 11 -10v-52q0 -11 -11 -11h-105v-57h105q11 0 11 -10v-52q0 -11 -11 -11h-105v-84q0 -11 -11 -11h-74q-11 0 -11 11v84h-106q-5 0 -8 3t-3 8v52q0 4 3 7t8 3h106v57h-106q-5 0 -8 3t-3 8v52q0 4 3 7t8 3h71l-167 344
q-2 4 -2 6q0 3 2.5 5t6.5 2h85q10 0 13 -7l104 -233l41 -95h2l41 96l104 232q3 7 13 7h83q5 0 7.5 -3.5z" />
    <glyph glyph-name="brokenbar" unicode="&#xa6;" horiz-adv-x="258" 
d="M82 342v417q0 10 10 10h74q10 0 10 -10v-417q0 -11 -10 -11h-74q-10 0 -10 11zM82 -114v417q0 5 3 8t7 3h74q4 0 7 -3t3 -8v-417q0 -10 -10 -10h-74q-10 0 -10 10z" />
    <glyph glyph-name="section" unicode="&#xa7;" horiz-adv-x="485" 
d="M431.5 182.5q-24.5 -33.5 -70.5 -51.5q29 -22 43 -48.5t14 -63.5q0 -68 -46.5 -102.5t-138.5 -34.5q-91 0 -138 37.5t-47 100.5q0 10 11 10h72q5 0 8 -3t3 -8q0 -58 92 -58q89 0 89 61q0 24 -12 37t-43 31l-141 80q-98 54 -98 146q0 45 24.5 78.5t71.5 51.5
q-29 23 -43 50t-14 62q0 137 184 137q92 0 138.5 -37.5t46.5 -100.5q0 -10 -10 -10h-73q-10 0 -10 11q0 58 -92 58q-89 0 -89 -59q0 -24 12 -38t42 -31l142 -81q43 -25 70 -59.5t27 -86.5q0 -45 -24.5 -78.5zM343 206.5q18 19.5 18 52.5q0 31 -19.5 53.5t-65.5 46.5l-76 41
q-40 -11 -58 -30t-18 -52q0 -31 19.5 -53t65.5 -47l76 -42q40 11 58 30.5z" />
    <glyph glyph-name="dieresis" unicode="&#xa8;" horiz-adv-x="345" 
d="M43.5 582.5q-13.5 14.5 -13.5 39.5v11q0 25 13.5 39t41.5 14t42 -14t14 -39v-11q0 -25 -14 -39.5t-42 -14.5t-41.5 14.5zM218.5 582.5q-13.5 14.5 -13.5 39.5v11q0 53 55 53t55 -53v-11q0 -25 -13.5 -39.5t-41.5 -14.5t-41.5 14.5z" />
    <glyph glyph-name="copyright" unicode="&#xa9;" horiz-adv-x="713" 
d="M142 53q-71 65 -71 182v134q0 117 71 182t214 65q144 0 215 -65t71 -182v-134q0 -117 -71 -182t-215 -65q-143 0 -214 65zM513.5 100.5q53.5 44.5 53.5 130.5v142q0 86 -53.5 130.5t-157.5 44.5q-103 0 -156.5 -44.5t-53.5 -130.5v-142q0 -86 53.5 -130.5t156.5 -44.5
q104 0 157.5 44.5zM256 163q-36 35 -36 100v78q0 64 36.5 99.5t102.5 35.5q65 0 100 -30.5t35 -86.5q0 -12 -9 -12h-58q-9 0 -9 12q0 46 -58 46q-63 0 -63 -69v-68q0 -69 61 -69q59 0 59 45q0 7 2 9.5t8 2.5h57q10 0 10 -11q0 -53 -35.5 -85t-101.5 -32q-65 0 -101 35z" />
    <glyph glyph-name="ordfeminine" unicode="&#xaa;" horiz-adv-x="396" 
d="M77.5 343.5q-23.5 24.5 -23.5 71.5q0 55 35 80t116 33l52 5v16q0 29 -12.5 40.5t-44.5 11.5q-58 0 -56 -33q0 -5 -3 -8t-8 -3h-50q-12 0 -12 14q-5 42 32 69t100 27q130 0 130 -118v-136q0 -43 5 -75q0 -12 -11 -12h-49q-10 0 -12 13l-5 36q-30 -29 -58.5 -42.5
t-59.5 -13.5q-42 0 -65.5 24.5zM206 395q25 13 51 37v48l-50 -5q-44 -4 -61.5 -16t-17.5 -38q0 -39 35 -39q18 0 43 13zM59 207v49q0 5 3 8t8 3h262q4 0 7.5 -3.5t3.5 -7.5v-49q0 -4 -3.5 -7t-7.5 -3h-262q-11 0 -11 10z" />
    <glyph glyph-name="guillemotleft" unicode="&#xab;" horiz-adv-x="503" 
d="M161 99l-92 157q-2 4 -2 7q0 4 2 8l92 156q5 8 13 8h74q5 0 7.5 -4t-0.5 -9l-86 -159l86 -159l2 -5q0 -3 -2.5 -5t-6.5 -2h-74q-8 0 -13 7zM337 99l-93 157q-2 4 -2 7q0 4 2 8l93 156q5 8 12 8h74q6 0 8.5 -4t-0.5 -9l-87 -159l87 -159l2 -5q0 -7 -10 -7h-74q-7 0 -12 7z
" />
    <glyph glyph-name="logicalnot" unicode="&#xac;" horiz-adv-x="600" 
d="M427 120v141h-326q-5 0 -8 3t-3 8v56q0 5 3 8t8 3h398q5 0 8 -3t3 -8v-208q0 -4 -3 -7t-8 -3h-62q-10 0 -10 10z" />
    <glyph glyph-name="uni00AD" unicode="&#xad;" horiz-adv-x="489" 
d="M70 232q-3 3 -3 8v51q0 11 10 11h334q11 0 11 -11v-51q0 -5 -3 -8t-8 -3h-334q-4 0 -7 3z" />
    <glyph glyph-name="registered" unicode="&#xae;" horiz-adv-x="594" 
d="M133 354q-54 50 -54 136v31q0 87 53.5 135t164.5 48t166 -49t55 -135v-32q0 -86 -55 -135t-166 -49q-110 0 -164 50zM420.5 388q42.5 33 42.5 95v42q0 62 -42.5 95t-123.5 33t-122.5 -32t-41.5 -94v-42q0 -63 42 -96.5t122 -33.5q81 0 123.5 33zM215 406v202q0 9 11 9h70
q53 0 76.5 -17.5t23.5 -52.5q0 -26 -11.5 -41t-38.5 -25l51 -73q2 -4 2 -6q0 -6 -7 -6h-35q-7 0 -11 7l-47 71h-35v-68q0 -10 -10 -10h-29q-10 0 -10 10zM301 513q46 0 46 28v7q0 16 -11 23t-37 7h-35v-65h37z" />
    <glyph glyph-name="macron" unicode="&#xaf;" horiz-adv-x="280" 
d="M30 581v56q0 10 11 10h199q10 0 10 -10v-56q0 -11 -10 -11h-199q-11 0 -11 11z" />
    <glyph glyph-name="degree" unicode="&#xb0;" horiz-adv-x="391" 
d="M86.5 431.5q-39.5 36.5 -39.5 104.5v18q0 67 39.5 103.5t109.5 36.5t109 -36.5t39 -103.5v-18q0 -68 -39 -104.5t-109 -36.5t-109.5 36.5zM253 478q20 19 20 58v17q0 77 -77 77q-78 0 -78 -77v-17q0 -77 78 -77q37 0 57 19z" />
    <glyph glyph-name="plusminus" unicode="&#xb1;" horiz-adv-x="600" 
d="M259 186v138h-158q-10 0 -10 11v57q0 5 3 8t7 3h158v137q0 11 10 11h62q10 0 10 -11v-137h158q4 0 7 -3t3 -8v-57q0 -11 -10 -11h-158v-138q0 -10 -10 -10h-62q-10 0 -10 10zM90 64v57q0 10 11 10h396q11 0 11 -10v-57q0 -10 -11 -10h-396q-11 0 -11 10z" />
    <glyph glyph-name="uni00B2" unicode="&#xb2;" horiz-adv-x="411" 
d="M57 361v51q0 38 18 66t42.5 47t65.5 43q43 25 63 43t20 41v13q0 20 -15.5 30t-48.5 10t-48.5 -12t-15.5 -41q0 -10 -10 -10h-57q-10 0 -10 13q0 61 37.5 90.5t108.5 29.5q139 0 139 -112q0 -39 -16.5 -67t-40 -45.5t-61.5 -39.5q-43 -25 -63.5 -43t-23.5 -45h201
q10 0 10 -11v-51q0 -11 -10 -11h-274q-11 0 -11 11z" />
    <glyph glyph-name="uni00B3" unicode="&#xb3;" horiz-adv-x="411" 
d="M89 373.5q-36 30.5 -36 93.5q2 10 11 10h57q5 0 8 -3t3 -7q0 -30 15 -41.5t49 -11.5q38 0 58 13.5t20 39.5v14q0 48 -74 48h-56q-4 0 -7.5 3.5t-3.5 7.5v48q0 4 3 7t8 3h54q34 0 50 12.5t16 38.5v14q0 41 -67 41q-36 0 -50.5 -12t-14.5 -39q0 -11 -10 -11h-57
q-10 0 -10 13q0 61 36 90.5t110 29.5q73 0 108 -28t35 -84q0 -65 -46 -94v-1q55 -28 55 -98q0 -62 -40 -94.5t-116 -32.5q-72 0 -108 30.5z" />
    <glyph glyph-name="acute" unicode="&#xb4;" horiz-adv-x="224" 
d="M30.5 559q-1.5 3 0.5 8l67 123q3 7 12 7h76q6 0 7.5 -3.5t-1.5 -7.5l-85 -123q-5 -7 -12 -7h-58q-5 0 -6.5 3z" />
    <glyph glyph-name="uni00B5" unicode="&#xb5;" horiz-adv-x="555" 
d="M72 -174v653q0 10 10 10h74q5 0 8 -3t3 -7v-306q0 -51 18.5 -76t53.5 -25t73.5 22t64.5 58v327q0 10 10 10h74q5 0 8 -3t3 -7v-357q0 -33 7.5 -43t30.5 -10q7 0 14.5 1t15.5 1h2q9 0 9 -10v-58q0 -9 -10 -10q-23 -5 -48 -5q-105 0 -106 85v1q-31 -38 -74.5 -61.5
t-80.5 -23.5q-42 0 -70 23v-186q0 -11 -10 -11h-70q-10 0 -10 11z" />
    <glyph glyph-name="paragraph" unicode="&#xb6;" horiz-adv-x="617" 
d="M220 -174v484h-58q-70 0 -104 40t-34 103v87q0 63 34 103t104 40h368q11 0 11 -11v-846q0 -11 -11 -11h-72q-11 0 -11 11v772h-134v-772q0 -11 -10 -11h-73q-10 0 -10 11z" />
    <glyph glyph-name="periodcentered" unicode="&#xb7;" horiz-adv-x="252" 
d="M79 208.5q-15 16.5 -15 44.5v12q0 60 62 60t62 -60v-12q0 -28 -15 -44.5t-47 -16.5t-47 16.5z" />
    <glyph glyph-name="cedilla" unicode="&#xb8;" horiz-adv-x="211" 
d="M38 -193q-5 1 -6.5 2.5t-1.5 6.5v39q0 8 5 8q8 0 16 -1t16 -1q40 0 40 23v13q0 14 -8 19.5t-25 5.5h-23q-5 0 -6 1t-1 6q0 14 2 20l23 76q1 4 3 5t7 1h52q8 0 5 -11l-19 -59h9q26 0 40.5 -17.5t14.5 -46.5v-16q0 -40 -24.5 -59t-74.5 -19q-24 0 -44 4z" />
    <glyph glyph-name="uni00B9" unicode="&#xb9;" horiz-adv-x="411" 
d="M65 361v51q0 11 10 11h96v257l-90 -27l-5 -1q-7 0 -7 8v51q0 12 10 15l137 43q10 2 14 2h10q10 0 10 -10v-338h85q11 0 11 -11v-51q0 -11 -11 -11h-260q-10 0 -10 11z" />
    <glyph glyph-name="ordmasculine" unicode="&#xba;" horiz-adv-x="402" 
d="M92.5 359q-38.5 40 -38.5 110v48q0 70 38.5 110t107.5 40q70 0 109.5 -40t39.5 -110v-48q0 -70 -39.5 -110t-109.5 -40q-69 0 -107.5 40zM254 408q19 20 19 56v58q0 36 -19 56t-54 20q-34 0 -52.5 -20t-18.5 -56v-58q0 -36 18.5 -56t52.5 -20q35 0 54 20zM60 207v49
q0 5 3 8t8 3h260q4 0 7 -3.5t3 -7.5v-49q0 -4 -3 -7t-7 -3h-260q-11 0 -11 10z" />
    <glyph glyph-name="guillemotright" unicode="&#xbb;" horiz-adv-x="503" 
d="M71.5 95.5q-2.5 3.5 0.5 8.5l87 159l-87 159l-2 5q0 8 9 8h74q8 0 13 -8l92 -156q5 -8 0 -15l-92 -157q-5 -7 -13 -7h-74q-5 0 -7.5 3.5zM246.5 95.5q-2.5 3.5 1.5 8.5l86 159l-87 159l-2 5q0 8 10 8h74q7 0 12 -8l93 -156q5 -8 0 -15l-93 -157q-5 -7 -12 -7h-74
q-6 0 -8.5 3.5z" />
    <glyph glyph-name="onequarter" unicode="&#xbc;" horiz-adv-x="919" 
d="M65 248v51q0 11 10 11h96v257l-90 -27l-5 -1q-7 0 -7 8v51q0 12 10 15l137 43q10 2 14 2h10q10 0 10 -10v-338h85q11 0 11 -11v-51q0 -11 -11 -11h-260q-10 0 -10 11zM274 -27.5q-2 3.5 0 8.5l186 370l159 328q4 7 12 7h66q5 0 7.5 -3.5t-0.5 -8.5l-176 -350l-169 -348
q-3 -7 -12 -7h-66q-5 0 -7 3.5zM756 11v65h-207q-11 0 -11 10v7q0 8 4 16l164 299q3 6 6 8t8 2h61q7 0 9.5 -3.5t-1.5 -9.5l-140 -257h108l2 127q0 10 10 10h55q10 0 10 -10v-127h40q11 0 11 -10v-52q0 -10 -11 -10h-40v-65q0 -11 -10 -11h-57q-11 0 -11 11z" />
    <glyph glyph-name="onehalf" unicode="&#xbd;" horiz-adv-x="967" 
d="M65 248v51q0 11 10 11h96v257l-90 -27l-5 -1q-7 0 -7 8v51q0 12 10 15l137 43q10 2 14 2h10q10 0 10 -10v-338h85q11 0 11 -11v-51q0 -11 -11 -11h-260q-10 0 -10 11zM274 -27.5q-2 3.5 0 8.5l186 370l159 328q4 7 12 7h66q5 0 7.5 -3.5t-0.5 -8.5l-176 -350l-169 -348
q-3 -7 -12 -7h-66q-5 0 -7 3.5zM613 11v51q0 38 18 66t42.5 47t65.5 43q43 25 63 43t20 41v13q0 20 -15.5 30t-48.5 10t-48.5 -12t-15.5 -41q0 -10 -10 -10h-57q-10 0 -10 13q0 61 37.5 90.5t108.5 29.5q139 0 139 -112q0 -39 -16.5 -67t-40 -45.5t-61.5 -39.5
q-43 -25 -63.5 -43t-23.5 -45h201q10 0 10 -11v-51q0 -11 -10 -11h-274q-11 0 -11 11z" />
    <glyph glyph-name="threequarters" unicode="&#xbe;" horiz-adv-x="908" 
d="M89 260.5q-36 30.5 -36 93.5q2 10 11 10h57q5 0 8 -3t3 -7q0 -30 15 -41.5t49 -11.5q38 0 58 13.5t20 39.5v14q0 48 -74 48h-56q-4 0 -7.5 3.5t-3.5 7.5v48q0 4 3 7t8 3h54q34 0 50 12.5t16 38.5v14q0 41 -67 41q-36 0 -50.5 -12t-14.5 -39q0 -11 -10 -11h-57
q-10 0 -10 13q0 61 36 90.5t110 29.5q73 0 108 -28t35 -84q0 -65 -46 -94v-1q55 -28 55 -98q0 -62 -40 -94.5t-116 -32.5q-72 0 -108 30.5zM263 -27.5q-2 3.5 0 8.5l186 370l159 328q4 7 12 7h66q5 0 7.5 -3.5t-0.5 -8.5l-176 -350l-169 -348q-3 -7 -12 -7h-66q-5 0 -7 3.5z
M745 11v65h-207q-11 0 -11 10v7q0 8 4 16l164 299q3 6 6 8t8 2h61q7 0 9.5 -3.5t-1.5 -9.5l-140 -257h108l2 127q0 10 10 10h55q10 0 10 -10v-127h40q11 0 11 -10v-52q0 -10 -11 -10h-40v-65q0 -11 -10 -11h-57q-11 0 -11 11z" />
    <glyph glyph-name="questiondown" unicode="&#xbf;" horiz-adv-x="471" 
d="M311.5 485.5q15.5 -15.5 15.5 -43.5v-12q0 -28 -15.5 -44t-46.5 -16t-46 16t-15 44v12q0 59 61 59q31 0 46.5 -15.5zM312 281.5q3 -3.5 3 -7.5v-39q0 -35 -21.5 -63.5t-63.5 -65.5q-44 -39 -66 -68t-22 -67q0 -69 98 -69q56 0 80 26t24 78q0 12 9 12h74q10 0 10 -13
q1 -93 -49 -138t-151 -45q-95 0 -143 36.5t-48 104.5q0 41 16.5 75t38.5 58.5t58 57.5q34 31 48.5 48t14.5 35l1 37q0 5 3.5 8t7.5 3h71q4 0 7 -3.5z" />
    <glyph glyph-name="Agrave" unicode="&#xc0;" horiz-adv-x="568" 
d="M569 8q0 -8 -10 -8h-81q-10 0 -13 8l-46 140h-275l-45 -139q-3 -9 -12 -9h-78q-12 0 -9 12l220 635q3 8 12 8h101q10 0 13 -8l222 -635zM393 230l-71 217l-41 123h-1q-18 -58 -28 -86q-4 -15 -11 -35l-71 -219h223zM262 716l-74 103q-2 4 -2 6q0 7 7 7h79q8 0 11 -8
l57 -104l2 -5q0 -5 -8 -5h-60q-7 0 -12 6z" />
    <glyph glyph-name="Aacute" unicode="&#xc1;" horiz-adv-x="568" 
d="M569 8q0 -8 -10 -8h-81q-10 0 -13 8l-46 140h-275l-45 -139q-3 -9 -12 -9h-78q-12 0 -9 12l220 635q3 8 12 8h101q10 0 13 -8l222 -635zM393 230l-71 217l-41 123h-1q-18 -58 -28 -86q-4 -15 -11 -35l-71 -219h223zM226 720l57 104q3 8 11 8h78q6 0 7.5 -4t-2.5 -9
l-74 -103q-4 -6 -11 -6h-61q-10 0 -5 10z" />
    <glyph glyph-name="Acircumflex" unicode="&#xc2;" horiz-adv-x="568" 
d="M569 8q0 -8 -10 -8h-81q-10 0 -13 8l-46 140h-275l-45 -139q-3 -9 -12 -9h-78q-12 0 -9 12l220 635q3 8 12 8h101q10 0 13 -8l222 -635zM393 230l-71 217l-41 123h-1q-18 -58 -28 -86q-4 -15 -11 -35l-71 -219h223zM148 716q-6 0 -6 7v54q0 8 7 11l127 57q4 2 7 2
q2 0 8 -2l127 -57q7 -3 7 -11v-54q0 -10 -12 -6l-130 47l-130 -47q-2 -1 -5 -1z" />
    <glyph glyph-name="Atilde" unicode="&#xc3;" horiz-adv-x="568" 
d="M569 8q0 -8 -10 -8h-81q-10 0 -13 8l-46 140h-275l-45 -139q-3 -9 -12 -9h-78q-12 0 -9 12l220 635q3 8 12 8h101q10 0 13 -8l222 -635zM393 230l-71 217l-41 123h-1q-18 -58 -28 -86q-4 -15 -11 -35l-71 -219h223zM282 732q-34 12 -55 12q-35 0 -71 -19l-6 -2q-7 0 -7 9
v50q0 10 6 13q4 2 17 9.5t29.5 12t34.5 4.5q19 0 32.5 -3.5t33.5 -11.5q26 -11 46 -11q19 0 38.5 6t32.5 14l6 2q7 0 7 -9v-50q0 -8 -6 -14q-39 -25 -81 -25q-25 0 -57 13z" />
    <glyph glyph-name="Adieresis" unicode="&#xc4;" horiz-adv-x="568" 
d="M569 8q0 -8 -10 -8h-81q-10 0 -13 8l-46 140h-275l-45 -139q-3 -9 -12 -9h-78q-12 0 -9 12l220 635q3 8 12 8h101q10 0 13 -8l222 -635zM393 230l-71 217l-41 123h-1q-18 -58 -28 -86q-4 -15 -11 -35l-71 -219h223zM154.5 724.5q-13.5 14.5 -13.5 39.5v11q0 25 13.5 39.5
t41.5 14.5t42 -14.5t14 -39.5v-11q0 -25 -14 -39.5t-42 -14.5t-41.5 14.5zM328.5 724.5q-13.5 14.5 -13.5 39.5v11q0 25 13.5 39.5t41.5 14.5t42 -14.5t14 -39.5v-11q0 -25 -14 -39.5t-42 -14.5t-41.5 14.5z" />
    <glyph glyph-name="Aring" unicode="&#xc5;" horiz-adv-x="568" 
d="M569 8q0 -8 -10 -8h-81q-10 0 -13 8l-45 140h-276l-45 -139q-3 -9 -12 -9h-78q-12 0 -9 12l211 609q-41 25 -41 79q0 47 30.5 73t83.5 26t83.5 -25.5t30.5 -73.5q0 -57 -43 -80l213 -608zM284 654q49 0 49 46t-49 46t-49 -46t49 -46zM393 230l-71 217l-41 123h-1
q-18 -58 -28 -86q-4 -15 -11 -35l-71 -219h223z" />
    <glyph glyph-name="AE" unicode="&#xc6;" horiz-adv-x="838" 
d="M0.5 3.5q-2.5 3.5 0.5 9.5l321 634q4 8 13 8h424q10 0 10 -11v-64q0 -11 -10 -11h-279v-195h255q4 0 7 -3t3 -8v-61q0 -5 -3 -8t-7 -3h-255v-205h279q10 0 10 -11v-64q0 -11 -10 -11h-364q-10 0 -10 11v137h-214l-69 -140q-4 -8 -13 -8h-80q-6 0 -8.5 3.5zM385 230v258
q0 56 1 97h-2l-43 -95l-130 -260h174z" />
    <glyph glyph-name="Ccedilla" unicode="&#xc7;" horiz-adv-x="636" 
d="M566.5 222.5q2.5 -3.5 3.5 -10.5t1 -21q0 -86 -59 -140t-159 -62l-9 -28h9q26 0 40.5 -17.5t14.5 -46.5v-16q0 -40 -24.5 -59t-74.5 -19q-24 0 -44 4q-5 1 -6.5 2.5t-1.5 6.5v39q0 8 5 8q8 0 16 -1t16 -1q40 0 40 23v13q0 14 -8 19.5t-25 5.5h-23q-4 0 -5.5 1t-1.5 6
q0 14 2 20l12 40q-106 9 -160.5 70t-54.5 168v201q0 116 64.5 177.5t187.5 61.5q73 0 129.5 -23t88.5 -66.5t32 -102.5q0 -21 -2 -32q-2 -14 -11 -14h-75q-10 0 -10 11q3 69 -36 106t-115 37q-77 0 -117.5 -39.5t-40.5 -115.5v-201q0 -76 40.5 -115.5t117.5 -39.5
q72 0 112 33t40 92q0 12 -1 18q0 11 10 11h74q6 0 8.5 -3.5z" />
    <glyph glyph-name="Egrave" unicode="&#xc8;" horiz-adv-x="535" 
d="M82 11v633q0 11 10 11h364q10 0 10 -11v-64q0 -11 -10 -11h-279v-195h255q4 0 7 -3t3 -8v-61q0 -5 -3 -8t-7 -3h-255v-205h279q10 0 10 -11v-64q0 -11 -10 -11h-364q-10 0 -10 11zM258 716l-74 103q-2 4 -2 6q0 7 7 7h79q8 0 11 -8l57 -104l2 -5q0 -5 -8 -5h-60
q-7 0 -12 6z" />
    <glyph glyph-name="Eacute" unicode="&#xc9;" horiz-adv-x="535" 
d="M82 11v633q0 11 10 11h364q10 0 10 -11v-64q0 -11 -10 -11h-279v-195h255q4 0 7 -3t3 -8v-61q0 -5 -3 -8t-7 -3h-255v-205h279q10 0 10 -11v-64q0 -11 -10 -11h-364q-10 0 -10 11zM222 720l57 104q3 8 11 8h78q6 0 7.5 -4t-2.5 -9l-74 -103q-4 -6 -11 -6h-61q-10 0 -5 10
z" />
    <glyph glyph-name="Ecircumflex" unicode="&#xca;" horiz-adv-x="535" 
d="M82 11v633q0 11 10 11h364q10 0 10 -11v-64q0 -11 -10 -11h-279v-195h255q4 0 7 -3t3 -8v-61q0 -5 -3 -8t-7 -3h-255v-205h279q10 0 10 -11v-64q0 -11 -10 -11h-364q-10 0 -10 11zM144 716q-6 0 -6 7v54q0 8 7 11l127 57q4 2 7 2q2 0 8 -2l127 -57q7 -3 7 -11v-54
q0 -10 -12 -6l-130 47l-130 -47q-2 -1 -5 -1z" />
    <glyph glyph-name="Edieresis" unicode="&#xcb;" horiz-adv-x="535" 
d="M82 11v633q0 11 10 11h364q10 0 10 -11v-64q0 -11 -10 -11h-279v-195h255q4 0 7 -3t3 -8v-61q0 -5 -3 -8t-7 -3h-255v-205h279q10 0 10 -11v-64q0 -11 -10 -11h-364q-10 0 -10 11zM150.5 724.5q-13.5 14.5 -13.5 39.5v11q0 25 13.5 39.5t41.5 14.5t42 -14.5t14 -39.5v-11
q0 -25 -14 -39.5t-42 -14.5t-41.5 14.5zM324.5 724.5q-13.5 14.5 -13.5 39.5v11q0 25 13.5 39.5t41.5 14.5t42 -14.5t14 -39.5v-11q0 -25 -14 -39.5t-42 -14.5t-41.5 14.5z" />
    <glyph glyph-name="Igrave" unicode="&#xcc;" horiz-adv-x="259" 
d="M82 11v633q0 11 10 11h75q10 0 10 -11v-633q0 -11 -10 -11h-75q-10 0 -10 11zM109 716l-74 103q-2 4 -2 6q0 7 7 7h79q8 0 11 -8l57 -104l2 -5q0 -5 -8 -5h-60q-7 0 -12 6z" />
    <glyph glyph-name="Iacute" unicode="&#xcd;" horiz-adv-x="259" 
d="M82 11v633q0 11 10 11h75q10 0 10 -11v-633q0 -11 -10 -11h-75q-10 0 -10 11zM73 720l57 104q3 8 11 8h78q6 0 7.5 -4t-2.5 -9l-74 -103q-4 -6 -11 -6h-61q-10 0 -5 10z" />
    <glyph glyph-name="Icircumflex" unicode="&#xce;" horiz-adv-x="259" 
d="M82 11v633q0 11 10 11h75q10 0 10 -11v-633q0 -11 -10 -11h-75q-10 0 -10 11zM-5 716q-6 0 -6 7v54q0 8 7 11l127 57q4 2 7 2q2 0 8 -2l127 -57q7 -3 7 -11v-54q0 -10 -12 -6l-130 47l-130 -47q-2 -1 -5 -1z" />
    <glyph glyph-name="Idieresis" unicode="&#xcf;" horiz-adv-x="259" 
d="M82 11v633q0 11 10 11h75q10 0 10 -11v-633q0 -11 -10 -11h-75q-10 0 -10 11zM1.5 724.5q-13.5 14.5 -13.5 39.5v11q0 25 13.5 39.5t41.5 14.5t42 -14.5t14 -39.5v-11q0 -25 -14 -39.5t-42 -14.5t-41.5 14.5zM175.5 724.5q-13.5 14.5 -13.5 39.5v11q0 25 13.5 39.5
t41.5 14.5t42 -14.5t14 -39.5v-11q0 -25 -14 -39.5t-42 -14.5t-41.5 14.5z" />
    <glyph glyph-name="Eth" unicode="&#xd0;" horiz-adv-x="643" 
d="M505.5 583.5q76.5 -71.5 76.5 -216.5v-53q0 -158 -76 -236t-231 -78h-183q-10 0 -10 11v283h-68q-10 0 -10 11v55q0 11 10 11h68v273q0 11 10 11h183q154 0 230.5 -71.5zM486 372q0 103 -53 152.5t-165 49.5h-91v-203h138q11 0 11 -11v-55q0 -11 -11 -11h-138v-213h91
q112 0 165 56t53 173v62z" />
    <glyph glyph-name="Ntilde" unicode="&#xd1;" horiz-adv-x="664" 
d="M82 11v633q0 11 10 11h124q9 0 12 -7l180 -365q54 -109 81 -174h2q-2 108 -2 178v357q0 11 10 11h73q5 0 8 -3t3 -8v-633q0 -5 -3 -8t-8 -3h-121q-9 0 -13 7l-176 355q-47 96 -86 184h-2v-25q2 -114 2 -167v-343q0 -5 -3 -8t-8 -3h-73q-10 0 -10 11zM331 732
q-34 12 -55 12q-35 0 -71 -19l-6 -2q-7 0 -7 9v50q0 10 6 13q4 2 17 9.5t29.5 12t34.5 4.5q19 0 32.5 -3.5t33.5 -11.5q26 -11 46 -11q19 0 38.5 6t32.5 14l6 2q7 0 7 -9v-50q0 -8 -6 -14q-39 -25 -81 -25q-25 0 -57 13z" />
    <glyph glyph-name="Ograve" unicode="&#xd2;" horiz-adv-x="645" 
d="M133.5 49.5q-63.5 61.5 -63.5 176.5v203q0 115 63.5 176.5t188.5 61.5q126 0 189.5 -61.5t63.5 -176.5v-203q0 -115 -63.5 -176.5t-189.5 -61.5q-125 0 -188.5 61.5zM439.5 112q40.5 40 40.5 117v197q0 77 -40.5 117t-117.5 40t-117 -40t-40 -117v-197q0 -77 40 -117
t117 -40t117.5 40zM301 716l-74 103q-2 4 -2 6q0 7 7 7h79q8 0 11 -8l57 -104l2 -5q0 -5 -8 -5h-60q-7 0 -12 6z" />
    <glyph glyph-name="Oacute" unicode="&#xd3;" horiz-adv-x="645" 
d="M133.5 49.5q-63.5 61.5 -63.5 176.5v203q0 115 63.5 176.5t188.5 61.5q126 0 189.5 -61.5t63.5 -176.5v-203q0 -115 -63.5 -176.5t-189.5 -61.5q-125 0 -188.5 61.5zM439.5 112q40.5 40 40.5 117v197q0 77 -40.5 117t-117.5 40t-117 -40t-40 -117v-197q0 -77 40 -117
t117 -40t117.5 40zM265 720l57 104q3 8 11 8h78q6 0 7.5 -4t-2.5 -9l-74 -103q-4 -6 -11 -6h-61q-10 0 -5 10z" />
    <glyph glyph-name="Ocircumflex" unicode="&#xd4;" horiz-adv-x="645" 
d="M133.5 49.5q-63.5 61.5 -63.5 176.5v203q0 115 63.5 176.5t188.5 61.5q126 0 189.5 -61.5t63.5 -176.5v-203q0 -115 -63.5 -176.5t-189.5 -61.5q-125 0 -188.5 61.5zM439.5 112q40.5 40 40.5 117v197q0 77 -40.5 117t-117.5 40t-117 -40t-40 -117v-197q0 -77 40 -117
t117 -40t117.5 40zM187 716q-6 0 -6 7v54q0 8 7 11l127 57q4 2 7 2q2 0 8 -2l127 -57q7 -3 7 -11v-54q0 -10 -12 -6l-130 47l-130 -47q-2 -1 -5 -1z" />
    <glyph glyph-name="Otilde" unicode="&#xd5;" horiz-adv-x="645" 
d="M133.5 49.5q-63.5 61.5 -63.5 176.5v203q0 115 63.5 176.5t188.5 61.5q126 0 189.5 -61.5t63.5 -176.5v-203q0 -115 -63.5 -176.5t-189.5 -61.5q-125 0 -188.5 61.5zM439.5 112q40.5 40 40.5 117v197q0 77 -40.5 117t-117.5 40t-117 -40t-40 -117v-197q0 -77 40 -117
t117 -40t117.5 40zM321 732q-34 12 -55 12q-35 0 -71 -19l-6 -2q-7 0 -7 9v50q0 10 6 13q4 2 17 9.5t29.5 12t34.5 4.5q19 0 32.5 -3.5t33.5 -11.5q26 -11 46 -11q19 0 38.5 6t32.5 14l6 2q7 0 7 -9v-50q0 -8 -6 -14q-39 -25 -81 -25q-25 0 -57 13z" />
    <glyph glyph-name="Odieresis" unicode="&#xd6;" horiz-adv-x="645" 
d="M133.5 49.5q-63.5 61.5 -63.5 176.5v203q0 115 63.5 176.5t188.5 61.5q126 0 189.5 -61.5t63.5 -176.5v-203q0 -115 -63.5 -176.5t-189.5 -61.5q-125 0 -188.5 61.5zM439.5 112q40.5 40 40.5 117v197q0 77 -40.5 117t-117.5 40t-117 -40t-40 -117v-197q0 -77 40 -117
t117 -40t117.5 40zM193.5 724.5q-13.5 14.5 -13.5 39.5v11q0 25 13.5 39.5t41.5 14.5t42 -14.5t14 -39.5v-11q0 -25 -14 -39.5t-42 -14.5t-41.5 14.5zM367.5 724.5q-13.5 14.5 -13.5 39.5v11q0 25 13.5 39.5t41.5 14.5t42 -14.5t14 -39.5v-11q0 -25 -14 -39.5t-42 -14.5
t-41.5 14.5z" />
    <glyph glyph-name="multiply" unicode="&#xd7;" horiz-adv-x="600" 
d="M132 172q-7 8 0 15l113 114l-113 113q-3 3 -3 7t3 7l40 41q8 7 15 0l114 -113l113 113q3 3 7 3t7 -3l41 -41q3 -3 3 -7t-3 -7l-113 -113l113 -114q3 -3 3 -7q0 -3 -3 -8l-41 -40q-3 -3 -7 -3t-7 3l-113 113l-114 -113q-3 -3 -7 -3q-3 0 -8 3z" />
    <glyph glyph-name="Oslash" unicode="&#xd8;" horiz-adv-x="645" 
d="M597 692l-67 -107q45 -58 45 -156v-203q0 -115 -63.5 -176.5t-189.5 -61.5q-88 0 -147 31l-39 -63q-4 -6 -13 -6h-69q-6 0 -8 3.5t2 9.5l67 106q-45 59 -45 157v203q0 115 63.5 176.5t188.5 61.5q88 0 148 -31l39 62q4 7 13 7h69q13 0 6 -13zM165 229q0 -40 10 -67
l249 394q-39 27 -102 27q-77 0 -117 -40t-40 -117v-197zM480 426q0 38 -10 67l-248 -395q38 -26 100 -26q77 0 117.5 40t40.5 117v197z" />
    <glyph glyph-name="Ugrave" unicode="&#xd9;" horiz-adv-x="646" 
d="M141 50q-64 62 -64 178v416q0 11 10 11h75q10 0 10 -11v-418q0 -74 39 -114t112 -40t112 40t39 114v418q0 11 11 11h74q5 0 8 -3t3 -8v-418q0 -112 -65.5 -175t-181.5 -63q-118 0 -182 62zM302 716l-74 103q-2 4 -2 6q0 7 7 7h79q8 0 11 -8l57 -104l2 -5q0 -5 -8 -5h-60
q-7 0 -12 6z" />
    <glyph glyph-name="Uacute" unicode="&#xda;" horiz-adv-x="646" 
d="M141 50q-64 62 -64 178v416q0 11 10 11h75q10 0 10 -11v-418q0 -74 39 -114t112 -40t112 40t39 114v418q0 11 11 11h74q5 0 8 -3t3 -8v-418q0 -112 -65.5 -175t-181.5 -63q-118 0 -182 62zM266 720l57 104q3 8 11 8h78q6 0 7.5 -4t-2.5 -9l-74 -103q-4 -6 -11 -6h-61
q-10 0 -5 10z" />
    <glyph glyph-name="Ucircumflex" unicode="&#xdb;" horiz-adv-x="646" 
d="M141 50q-64 62 -64 178v416q0 11 10 11h75q10 0 10 -11v-418q0 -74 39 -114t112 -40t112 40t39 114v418q0 11 11 11h74q5 0 8 -3t3 -8v-418q0 -112 -65.5 -175t-181.5 -63q-118 0 -182 62zM188 716q-6 0 -6 7v54q0 8 7 11l127 57q4 2 7 2q2 0 8 -2l127 -57q7 -3 7 -11
v-54q0 -10 -12 -6l-130 47l-130 -47q-2 -1 -5 -1z" />
    <glyph glyph-name="Udieresis" unicode="&#xdc;" horiz-adv-x="646" 
d="M141 50q-64 62 -64 178v416q0 11 10 11h75q10 0 10 -11v-418q0 -74 39 -114t112 -40t112 40t39 114v418q0 11 11 11h74q5 0 8 -3t3 -8v-418q0 -112 -65.5 -175t-181.5 -63q-118 0 -182 62zM194.5 724.5q-13.5 14.5 -13.5 39.5v11q0 25 13.5 39.5t41.5 14.5t42 -14.5
t14 -39.5v-11q0 -25 -14 -39.5t-42 -14.5t-41.5 14.5zM368.5 724.5q-13.5 14.5 -13.5 39.5v11q0 25 13.5 39.5t41.5 14.5t42 -14.5t14 -39.5v-11q0 -25 -14 -39.5t-42 -14.5t-41.5 14.5z" />
    <glyph glyph-name="Yacute" unicode="&#xdd;" horiz-adv-x="544" 
d="M224 11v214l-214 417q-1 2 -1 6q0 7 8 7h87q9 0 12 -7l104 -215l52 -111h1l53 113l103 213q3 7 13 7h84q5 0 7.5 -3.5t-0.5 -9.5l-213 -417v-214q0 -5 -3 -8t-8 -3h-75q-10 0 -10 11zM215 720l57 104q3 8 11 8h78q6 0 7.5 -4t-2.5 -9l-74 -103q-4 -6 -11 -6h-61
q-10 0 -5 10z" />
    <glyph glyph-name="Thorn" unicode="&#xde;" horiz-adv-x="549" 
d="M82 11v633q0 11 10 11h75q10 0 10 -11v-97h88q122 0 184 -52.5t62 -154.5q0 -101 -62.5 -154t-183.5 -53h-88v-122q0 -11 -10 -11h-75q-10 0 -10 11zM263 214q79 0 115.5 30t36.5 93q0 67 -37 97.5t-117 30.5h-84v-251h86z" />
    <glyph glyph-name="germandbls" unicode="&#xdf;" horiz-adv-x="545" 
d="M239 17q-35 29 -35 91q0 12 11 12h67q9 0 9 -10q0 -43 59 -43q70 0 70 62q0 35 -20.5 59t-61.5 53q-44 31 -65.5 56.5t-21.5 66.5q0 27 11.5 47t34.5 46q23 27 34.5 45.5t11.5 45.5q0 34 -21 51t-62 17q-48 0 -70.5 -26t-22.5 -82v-497q0 -5 -3 -8t-8 -3h-74
q-10 0 -10 11v488q0 101 45.5 148.5t141.5 47.5q86 0 132 -36.5t46 -105.5q0 -42 -15.5 -69.5t-42.5 -55.5q-18 -19 -25.5 -30t-7.5 -24q0 -19 14.5 -34.5t45.5 -39.5q34 -25 55.5 -46.5t37.5 -53t16 -73.5q0 -68 -41.5 -103.5t-123.5 -35.5q-76 0 -111 29z" />
    <glyph glyph-name="agrave" unicode="&#xe0;" horiz-adv-x="497" 
d="M432 10q0 -10 -10 -10h-65q-6 0 -8.5 3.5t-4.5 10.5q-5 25 -8 63q-46 -47 -86 -68t-85 -21q-59 0 -89.5 35.5t-30.5 102.5q0 52 20 84.5t65.5 50.5t122.5 25l78 7v40q0 48 -19.5 68t-66.5 20q-86 0 -85 -60q0 -5 -3 -8t-7 -3h-73q-7 0 -9.5 6.5t-2.5 22.5q0 56 49.5 89
t133.5 33q91 0 134.5 -41t43.5 -126v-212q0 -68 6 -110v-2zM152 84q13 -16 41 -16q30 0 61 18.5t77 64.5v75l-77 -7q-66 -6 -90.5 -24.5t-24.5 -61.5q0 -33 13 -49zM229 563l-85 123l-2 5q0 6 7 6h76q5 0 8 -1.5t5 -5.5l67 -123q1 -2 1 -5q0 -6 -7 -6h-58q-9 0 -12 7z" />
    <glyph glyph-name="aacute" unicode="&#xe1;" horiz-adv-x="497" 
d="M432 10q0 -10 -10 -10h-65q-6 0 -8.5 3.5t-4.5 10.5q-5 25 -8 63q-46 -47 -86 -68t-85 -21q-59 0 -89.5 35.5t-30.5 102.5q0 52 20 84.5t65.5 50.5t122.5 25l78 7v40q0 48 -19.5 68t-66.5 20q-86 0 -85 -60q0 -5 -3 -8t-7 -3h-73q-7 0 -9.5 6.5t-2.5 22.5q0 56 49.5 89
t133.5 33q91 0 134.5 -41t43.5 -126v-212q0 -68 6 -110v-2zM152 84q13 -16 41 -16q30 0 61 18.5t77 64.5v75l-77 -7q-66 -6 -90.5 -24.5t-24.5 -61.5q0 -33 13 -49zM183.5 559q-1.5 3 0.5 8l67 123q3 7 12 7h76q6 0 7.5 -3.5t-1.5 -7.5l-85 -123q-5 -7 -12 -7h-58
q-5 0 -6.5 3z" />
    <glyph glyph-name="acircumflex" unicode="&#xe2;" horiz-adv-x="497" 
d="M432 10q0 -10 -10 -10h-65q-6 0 -8.5 3.5t-4.5 10.5q-5 25 -8 63q-46 -47 -86 -68t-85 -21q-59 0 -89.5 35.5t-30.5 102.5q0 52 20 84.5t65.5 50.5t122.5 25l78 7v40q0 48 -19.5 68t-66.5 20q-86 0 -85 -60q0 -5 -3 -8t-7 -3h-73q-7 0 -9.5 6.5t-2.5 22.5q0 56 49.5 89
t133.5 33q91 0 134.5 -41t43.5 -126v-212q0 -68 6 -110v-2zM152 84q13 -16 41 -16q30 0 61 18.5t77 64.5v75l-77 -7q-66 -6 -90.5 -24.5t-24.5 -61.5q0 -33 13 -49zM118 549q-5 0 -5 7v55q0 9 7 13l117 67q2 2 7 2t8 -2l117 -67q7 -4 7 -13v-55q0 -12 -12 -5l-120 60
l-119 -60q-6 -2 -7 -2z" />
    <glyph glyph-name="atilde" unicode="&#xe3;" horiz-adv-x="497" 
d="M432 10q0 -10 -10 -10h-65q-6 0 -8.5 3.5t-4.5 10.5q-5 25 -8 63q-46 -47 -86 -68t-85 -21q-59 0 -89.5 35.5t-30.5 102.5q0 52 20 84.5t65.5 50.5t122.5 25l78 7v40q0 48 -19.5 68t-66.5 20q-86 0 -85 -60q0 -5 -3 -8t-7 -3h-73q-7 0 -9.5 6.5t-2.5 22.5q0 56 49.5 89
t133.5 33q91 0 134.5 -41t43.5 -126v-212q0 -68 6 -110v-2zM152 84q13 -16 41 -16q30 0 61 18.5t77 64.5v75l-77 -7q-66 -6 -90.5 -24.5t-24.5 -61.5q0 -33 13 -49zM241 580q-12 5 -24.5 8.5t-24.5 3.5q-25 0 -66 -19l-6 -2q-7 0 -7 8v51q0 9 6 13q34 26 75 26q18 0 31 -3.5
t31 -11.5q24 -11 41 -11q25 0 66 19l6 2q7 0 7 -8v-50q0 -9 -6 -14q-34 -26 -75 -26q-22 0 -54 14z" />
    <glyph glyph-name="adieresis" unicode="&#xe4;" horiz-adv-x="497" 
d="M432 10q0 -10 -10 -10h-65q-6 0 -8.5 3.5t-4.5 10.5q-5 25 -8 63q-46 -47 -86 -68t-85 -21q-59 0 -89.5 35.5t-30.5 102.5q0 52 20 84.5t65.5 50.5t122.5 25l78 7v40q0 48 -19.5 68t-66.5 20q-86 0 -85 -60q0 -5 -3 -8t-7 -3h-73q-7 0 -9.5 6.5t-2.5 22.5q0 56 49.5 89
t133.5 33q91 0 134.5 -41t43.5 -126v-212q0 -68 6 -110v-2zM152 84q13 -16 41 -16q30 0 61 18.5t77 64.5v75l-77 -7q-66 -6 -90.5 -24.5t-24.5 -61.5q0 -33 13 -49zM115.5 582.5q-13.5 14.5 -13.5 39.5v11q0 25 13.5 39t41.5 14t42 -14t14 -39v-11q0 -25 -14 -39.5
t-42 -14.5t-41.5 14.5zM290.5 582.5q-13.5 14.5 -13.5 39.5v11q0 53 55 53t55 -53v-11q0 -25 -13.5 -39.5t-41.5 -14.5t-41.5 14.5z" />
    <glyph glyph-name="aring" unicode="&#xe5;" horiz-adv-x="497" 
d="M432 10q0 -10 -10 -10h-65q-6 0 -8.5 3.5t-4.5 10.5q-5 25 -8 63q-46 -47 -86 -68t-85 -21q-59 0 -89.5 35.5t-30.5 102.5q0 52 20 84.5t65.5 50.5t122.5 25l78 7v40q0 48 -19.5 68t-66.5 20q-86 0 -85 -60q0 -5 -3 -8t-7 -3h-73q-7 0 -9.5 6.5t-2.5 22.5q0 56 49.5 89
t133.5 33q91 0 134.5 -41t43.5 -126v-212q0 -68 6 -110v-2zM152 84q13 -16 41 -16q30 0 61 18.5t77 64.5v75l-77 -7q-66 -6 -90.5 -24.5t-24.5 -61.5q0 -33 13 -49zM161.5 578q-30.5 26 -30.5 73t30.5 73t83.5 26t83.5 -25.5t30.5 -73.5q0 -47 -30.5 -73t-83.5 -26t-83.5 26
zM294 651q0 45 -49 45t-49 -45t49 -45t49 45z" />
    <glyph glyph-name="ae" unicode="&#xe6;" horiz-adv-x="781" 
d="M75.5 23.5q-30.5 35.5 -30.5 102.5q0 53 20.5 86t66 51.5t121.5 25.5l78 7v37q0 48 -19.5 68t-66.5 20q-86 0 -85 -60q0 -5 -3 -8t-7 -3h-73q-7 0 -9.5 6.5t-2.5 23.5q0 55 47.5 88t126.5 33q105 0 145 -66q24 31 64.5 48.5t90.5 17.5q88 0 137 -50t49 -141v-74
q0 -4 -3 -7t-8 -3h-292v-36q0 -65 24 -93t80 -28q44 0 69 14t25 39q0 16 12 16h73q10 0 10 -22q0 -59 -52 -93.5t-143 -34.5q-135 0 -172 97q-49 -50 -93.5 -73.5t-91.5 -23.5q-57 0 -87.5 35.5zM630 297v2q0 62 -24 91.5t-76 29.5q-108 0 -108 -122v-1h208zM252.5 86.5
q30.5 18.5 80.5 65.5q-2 15 -2 49v25l-77 -7q-66 -6 -90.5 -24.5t-24.5 -61.5q0 -33 13 -49t41 -16q29 0 59.5 18.5z" />
    <glyph glyph-name="ccedilla" unicode="&#xe7;" horiz-adv-x="520" 
d="M182.5 388.5q-28.5 -29.5 -28.5 -92.5v-103q0 -122 114 -122q46 0 73 20t27 51q0 16 10 16h73q5 0 8 -3t3 -7q1 -69 -43 -111t-125 -48l-9 -28h9q26 0 40.5 -17.5t14.5 -46.5v-16q0 -40 -24.5 -59t-74.5 -19q-24 0 -44 4q-5 1 -6.5 2.5t-1.5 6.5v39q0 8 5 8q8 0 16 -1
t16 -1q40 0 40 23v13q0 14 -8 19.5t-25 5.5h-23q-4 0 -5.5 1t-1.5 6q0 14 2 20l12 41q-82 10 -124.5 59.5t-42.5 134.5v121q0 95 54.5 145.5t155.5 50.5q90 0 142 -40.5t52 -105.5q0 -24 -11 -24h-73q-10 0 -10 15q0 34 -26.5 53t-73.5 19q-58 0 -86.5 -29.5z" />
    <glyph glyph-name="egrave" unicode="&#xe8;" horiz-adv-x="522" 
d="M111 33.5q-52 45.5 -52 135.5v136q0 96 51.5 146t151.5 50t151.5 -48.5t51.5 -142.5v-78q0 -10 -10 -10h-302v-32q0 -64 27 -92.5t87 -28.5q45 0 69.5 15t24.5 43q0 5 3 8t8 3h74q8 0 10 -9q4 -66 -47.5 -103.5t-145.5 -37.5q-100 0 -152 45.5zM371 297v5q0 60 -26.5 89
t-80.5 29q-111 0 -111 -119v-4h218zM244 574l-85 123l-2 5q0 6 7 6h76q5 0 8 -1.5t5 -5.5l67 -123q1 -2 1 -5q0 -6 -7 -6h-58q-9 0 -12 7z" />
    <glyph glyph-name="eacute" unicode="&#xe9;" horiz-adv-x="522" 
d="M111 33.5q-52 45.5 -52 135.5v136q0 96 51.5 146t151.5 50t151.5 -48.5t51.5 -142.5v-78q0 -10 -10 -10h-302v-32q0 -64 27 -92.5t87 -28.5q45 0 69.5 15t24.5 43q0 5 3 8t8 3h74q8 0 10 -9q4 -66 -47.5 -103.5t-145.5 -37.5q-100 0 -152 45.5zM371 297v5q0 60 -26.5 89
t-80.5 29q-111 0 -111 -119v-4h218zM198.5 570q-1.5 3 0.5 8l67 123q3 7 12 7h76q6 0 7.5 -3.5t-1.5 -7.5l-85 -123q-5 -7 -12 -7h-58q-5 0 -6.5 3z" />
    <glyph glyph-name="ecircumflex" unicode="&#xea;" horiz-adv-x="522" 
d="M111 33.5q-52 45.5 -52 135.5v136q0 96 51.5 146t151.5 50t151.5 -48.5t51.5 -142.5v-78q0 -10 -10 -10h-302v-32q0 -64 27 -92.5t87 -28.5q45 0 69.5 15t24.5 43q0 5 3 8t8 3h74q8 0 10 -9q4 -66 -47.5 -103.5t-145.5 -37.5q-100 0 -152 45.5zM371 297v5q0 60 -26.5 89
t-80.5 29q-111 0 -111 -119v-4h218zM133 560q-5 0 -5 7v55q0 9 7 13l117 67q2 2 7 2t8 -2l117 -67q7 -4 7 -13v-55q0 -12 -12 -5l-120 60l-119 -60q-6 -2 -7 -2z" />
    <glyph glyph-name="edieresis" unicode="&#xeb;" horiz-adv-x="522" 
d="M111 33.5q-52 45.5 -52 135.5v136q0 96 51.5 146t151.5 50t151.5 -48.5t51.5 -142.5v-78q0 -10 -10 -10h-302v-32q0 -64 27 -92.5t87 -28.5q45 0 69.5 15t24.5 43q0 5 3 8t8 3h74q8 0 10 -9q4 -66 -47.5 -103.5t-145.5 -37.5q-100 0 -152 45.5zM371 297v5q0 60 -26.5 89
t-80.5 29q-111 0 -111 -119v-4h218zM129.5 593.5q-13.5 14.5 -13.5 39.5v11q0 25 13.5 39t41.5 14t42 -14t14 -39v-11q0 -25 -14 -39.5t-42 -14.5t-41.5 14.5zM304.5 593.5q-13.5 14.5 -13.5 39.5v11q0 53 55 53t55 -53v-11q0 -25 -13.5 -39.5t-41.5 -14.5t-41.5 14.5z" />
    <glyph glyph-name="igrave" unicode="&#xec;" horiz-adv-x="238" 
d="M72 11v468q0 10 10 10h74q5 0 8 -3t3 -7v-468q0 -5 -3 -8t-8 -3h-74q-10 0 -10 11zM103 563l-85 123l-2 5q0 6 7 6h76q5 0 8 -1.5t5 -5.5l67 -123q1 -2 1 -5q0 -6 -7 -6h-58q-9 0 -12 7z" />
    <glyph glyph-name="iacute" unicode="&#xed;" horiz-adv-x="238" 
d="M72 11v468q0 10 10 10h74q5 0 8 -3t3 -7v-468q0 -5 -3 -8t-8 -3h-74q-10 0 -10 11zM58.5 559q-1.5 3 0.5 8l67 123q3 7 12 7h76q6 0 7.5 -3.5t-1.5 -7.5l-85 -123q-5 -7 -12 -7h-58q-5 0 -6.5 3z" />
    <glyph glyph-name="icircumflex" unicode="&#xee;" horiz-adv-x="238" 
d="M72 11v468q0 10 10 10h74q5 0 8 -3t3 -7v-468q0 -5 -3 -8t-8 -3h-74q-10 0 -10 11zM-7 549q-5 0 -5 7v55q0 9 7 13l117 67q2 2 7 2t8 -2l117 -67q7 -4 7 -13v-55q0 -12 -12 -5l-120 60l-119 -60q-6 -2 -7 -2z" />
    <glyph glyph-name="idieresis" unicode="&#xef;" horiz-adv-x="238" 
d="M72 11v468q0 10 10 10h74q5 0 8 -3t3 -7v-468q0 -5 -3 -8t-8 -3h-74q-10 0 -10 11zM-10.5 582.5q-13.5 14.5 -13.5 39.5v11q0 25 13.5 39t41.5 14t42 -14t14 -39v-11q0 -25 -14 -39.5t-42 -14.5t-41.5 14.5zM164.5 582.5q-13.5 14.5 -13.5 39.5v11q0 53 55 53t55 -53v-11
q0 -25 -13.5 -39.5t-41.5 -14.5t-41.5 14.5z" />
    <glyph glyph-name="eth" unicode="&#xf0;" horiz-adv-x="533" 
d="M450 489.5q24 -63.5 24 -134.5v-159q0 -100 -54 -154t-155 -54q-206 0 -206 190v99q0 92 41.5 140t115.5 48q102 0 164 -72q-13 100 -83 167l-104 -49q-2 -1 -5 -1q-4 0 -8 8l-18 38l-1 3q0 6 7 9l70 33q-31 15 -66 24q-12 3 -14.5 7t1.5 11l31 44q4 7 12 7q5 0 9 -1
q66 -13 119 -49l104 48q2 1 5 1q4 0 8 -8l17 -38l1 -3q0 -5 -7 -9l-76 -35q44 -47 68 -110.5zM352 102.5q29 33.5 29 97.5v103q-27 38 -65.5 58.5t-77.5 20.5q-84 0 -84 -117v-81q0 -61 27 -88t85 -27q57 0 86 33.5z" />
    <glyph glyph-name="ntilde" unicode="&#xf1;" horiz-adv-x="557" 
d="M447.5 459q37.5 -42 37.5 -124v-324q0 -11 -10 -11h-74q-11 0 -11 11v315q0 47 -19 69.5t-59 22.5q-34 0 -67 -18t-78 -61v-328q0 -5 -3 -8t-8 -3h-74q-10 0 -10 11v355q0 52 -7 110v3q0 10 10 10h68q5 0 8 -2t4 -8q4 -16 8 -63q45 44 86 64.5t89 20.5q72 0 109.5 -42z
M278 580q-12 5 -24.5 8.5t-24.5 3.5q-25 0 -66 -19l-6 -2q-7 0 -7 8v51q0 9 6 13q34 26 75 26q18 0 31 -3.5t31 -11.5q24 -11 41 -11q25 0 66 19l6 2q7 0 7 -8v-50q0 -9 -6 -14q-34 -26 -75 -26q-22 0 -54 14z" />
    <glyph glyph-name="ograve" unicode="&#xf2;" horiz-adv-x="538" 
d="M112.5 38q-53.5 50 -53.5 150v113q0 200 210 200q103 0 157 -50t54 -150v-113q0 -100 -53.5 -150t-157.5 -50q-103 0 -156.5 50zM357 102q28 31 28 95v96q0 64 -28 94.5t-88 30.5t-87.5 -30.5t-27.5 -94.5v-96q0 -64 27.5 -95t87.5 -31t88 31zM253 563l-85 123l-2 5
q0 6 7 6h76q5 0 8 -1.5t5 -5.5l67 -123q1 -2 1 -5q0 -6 -7 -6h-58q-9 0 -12 7z" />
    <glyph glyph-name="oacute" unicode="&#xf3;" horiz-adv-x="538" 
d="M112.5 38q-53.5 50 -53.5 150v113q0 200 210 200q103 0 157 -50t54 -150v-113q0 -100 -53.5 -150t-157.5 -50q-103 0 -156.5 50zM357 102q28 31 28 95v96q0 64 -28 94.5t-88 30.5t-87.5 -30.5t-27.5 -94.5v-96q0 -64 27.5 -95t87.5 -31t88 31zM207.5 559q-1.5 3 0.5 8
l67 123q3 7 12 7h76q6 0 7.5 -3.5t-1.5 -7.5l-85 -123q-5 -7 -12 -7h-58q-5 0 -6.5 3z" />
    <glyph glyph-name="ocircumflex" unicode="&#xf4;" horiz-adv-x="538" 
d="M112.5 38q-53.5 50 -53.5 150v113q0 200 210 200q103 0 157 -50t54 -150v-113q0 -100 -53.5 -150t-157.5 -50q-103 0 -156.5 50zM357 102q28 31 28 95v96q0 64 -28 94.5t-88 30.5t-87.5 -30.5t-27.5 -94.5v-96q0 -64 27.5 -95t87.5 -31t88 31zM143 549q-5 0 -5 7v55
q0 9 7 13l117 67q2 2 7 2t8 -2l117 -67q7 -4 7 -13v-55q0 -12 -12 -5l-120 60l-119 -60q-6 -2 -7 -2z" />
    <glyph glyph-name="otilde" unicode="&#xf5;" horiz-adv-x="538" 
d="M112.5 38q-53.5 50 -53.5 150v113q0 200 210 200q103 0 157 -50t54 -150v-113q0 -100 -53.5 -150t-157.5 -50q-103 0 -156.5 50zM357 102q28 31 28 95v96q0 64 -28 94.5t-88 30.5t-87.5 -30.5t-27.5 -94.5v-96q0 -64 27.5 -95t87.5 -31t88 31zM266 580q-12 5 -24.5 8.5
t-24.5 3.5q-25 0 -66 -19l-6 -2q-7 0 -7 8v51q0 9 6 13q34 26 75 26q18 0 31 -3.5t31 -11.5q24 -11 41 -11q25 0 66 19l6 2q7 0 7 -8v-50q0 -9 -6 -14q-34 -26 -75 -26q-22 0 -54 14z" />
    <glyph glyph-name="odieresis" unicode="&#xf6;" horiz-adv-x="538" 
d="M112.5 38q-53.5 50 -53.5 150v113q0 200 210 200q103 0 157 -50t54 -150v-113q0 -100 -53.5 -150t-157.5 -50q-103 0 -156.5 50zM357 102q28 31 28 95v96q0 64 -28 94.5t-88 30.5t-87.5 -30.5t-27.5 -94.5v-96q0 -64 27.5 -95t87.5 -31t88 31zM139.5 582.5
q-13.5 14.5 -13.5 39.5v11q0 25 13.5 39t41.5 14t42 -14t14 -39v-11q0 -25 -14 -39.5t-42 -14.5t-41.5 14.5zM314.5 582.5q-13.5 14.5 -13.5 39.5v11q0 53 55 53t55 -53v-11q0 -25 -13.5 -39.5t-41.5 -14.5t-41.5 14.5z" />
    <glyph glyph-name="divide" unicode="&#xf7;" horiz-adv-x="600" 
d="M260 398.5q-14 12.5 -14 33.5v17q0 22 13.5 34.5t40.5 12.5t41 -12.5t14 -34.5v-17q0 -22 -14 -34t-41 -12q-26 0 -40 12.5zM91 272v57q0 5 3 8t7 3h398q4 0 7 -3t3 -8v-57q0 -11 -10 -11h-398q-10 0 -10 11zM260 116q-14 12 -14 34v17q0 22 13.5 34.5t40.5 12.5
t41 -12.5t14 -34.5v-17q0 -22 -14 -34t-41 -12q-26 0 -40 12z" />
    <glyph glyph-name="oslash" unicode="&#xf8;" horiz-adv-x="538" 
d="M531 535.5q2 -3.5 -2 -8.5l-79 -105q30 -46 30 -121v-113q0 -100 -53.5 -150t-157.5 -50q-76 0 -124 27l-45 -60q-5 -6 -13 -6h-72q-6 0 -8 4t2 9l79 105q-29 47 -29 121v113q0 200 210 200q75 0 125 -27l44 59q5 6 13 6h72q6 0 8 -3.5zM154 197q0 -26 4 -43l185 246
q-27 18 -74 18q-60 0 -87.5 -30.5t-27.5 -94.5v-96zM385 293q0 26 -4 42l-185 -246q27 -18 73 -18q60 0 88 31t28 95v96z" />
    <glyph glyph-name="ugrave" unicode="&#xf9;" horiz-adv-x="543" 
d="M478 9q0 -9 -11 -9h-63q-12 0 -13 10q-6 42 -7 66q-93 -88 -180 -88q-64 0 -98 42.5t-34 123.5v325q0 10 10 10h74q5 0 8 -3t3 -7v-316q0 -47 16.5 -69.5t51.5 -22.5q32 0 65 18.5t77 61.5v328q0 10 10 10h74q5 0 8 -3t3 -7v-356q0 -69 6 -112v-2zM255 563l-85 123l-2 5
q0 6 7 6h76q5 0 8 -1.5t5 -5.5l67 -123q1 -2 1 -5q0 -6 -7 -6h-58q-9 0 -12 7z" />
    <glyph glyph-name="uacute" unicode="&#xfa;" horiz-adv-x="543" 
d="M478 9q0 -9 -11 -9h-63q-12 0 -13 10q-6 42 -7 66q-93 -88 -180 -88q-64 0 -98 42.5t-34 123.5v325q0 10 10 10h74q5 0 8 -3t3 -7v-316q0 -47 16.5 -69.5t51.5 -22.5q32 0 65 18.5t77 61.5v328q0 10 10 10h74q5 0 8 -3t3 -7v-356q0 -69 6 -112v-2zM210.5 559
q-1.5 3 0.5 8l67 123q3 7 12 7h76q6 0 7.5 -3.5t-1.5 -7.5l-85 -123q-5 -7 -12 -7h-58q-5 0 -6.5 3z" />
    <glyph glyph-name="ucircumflex" unicode="&#xfb;" horiz-adv-x="543" 
d="M478 9q0 -9 -11 -9h-63q-12 0 -13 10q-6 42 -7 66q-93 -88 -180 -88q-64 0 -98 42.5t-34 123.5v325q0 10 10 10h74q5 0 8 -3t3 -7v-316q0 -47 16.5 -69.5t51.5 -22.5q32 0 65 18.5t77 61.5v328q0 10 10 10h74q5 0 8 -3t3 -7v-356q0 -69 6 -112v-2zM145 549q-5 0 -5 7v55
q0 9 7 13l117 67q2 2 7 2t8 -2l117 -67q7 -4 7 -13v-55q0 -12 -12 -5l-120 60l-119 -60q-6 -2 -7 -2z" />
    <glyph glyph-name="udieresis" unicode="&#xfc;" horiz-adv-x="543" 
d="M478 9q0 -9 -11 -9h-63q-12 0 -13 10q-6 42 -7 66q-93 -88 -180 -88q-64 0 -98 42.5t-34 123.5v325q0 10 10 10h74q5 0 8 -3t3 -7v-316q0 -47 16.5 -69.5t51.5 -22.5q32 0 65 18.5t77 61.5v328q0 10 10 10h74q5 0 8 -3t3 -7v-356q0 -69 6 -112v-2zM141.5 582.5
q-13.5 14.5 -13.5 39.5v11q0 25 13.5 39t41.5 14t42 -14t14 -39v-11q0 -25 -14 -39.5t-42 -14.5t-41.5 14.5zM316.5 582.5q-13.5 14.5 -13.5 39.5v11q0 53 55 53t55 -53v-11q0 -25 -13.5 -39.5t-41.5 -14.5t-41.5 14.5z" />
    <glyph glyph-name="yacute" unicode="&#xfd;" horiz-adv-x="502" 
d="M137 -181.5q-2 3.5 0 9.5l70 177l-184 472q-1 2 -1 5q0 7 8 7h81q8 0 11 -8l85 -231q20 -53 34 -101q4 -10 10 -30h2l20 60t16 47l9 24l84 231q3 8 13 8h77q5 0 7.5 -3.5t0.5 -8.5l-251 -654q-3 -8 -11 -8h-74q-5 0 -7 3.5zM187.5 559q-1.5 3 0.5 8l67 123q3 7 12 7h76
q6 0 7.5 -3.5t-1.5 -7.5l-85 -123q-5 -7 -12 -7h-58q-5 0 -6.5 3z" />
    <glyph glyph-name="thorn" unicode="&#xfe;" horiz-adv-x="538" 
d="M72 -174v846q0 11 10 11h74q5 0 8 -3t3 -8v-241q42 37 80 53.5t81 16.5q149 0 149 -183v-129q0 -98 -46 -149.5t-132 -51.5q-33 0 -69 8t-63 21v-191q0 -5 -3 -8t-8 -3h-74q-10 0 -10 11zM356 102q26 32 26 98v108q0 57 -19.5 83.5t-59.5 26.5q-30 0 -60.5 -16t-75.5 -55
v-251q26 -12 55 -19t54 -7q54 0 80 32z" />
    <glyph glyph-name="ydieresis" unicode="&#xff;" horiz-adv-x="502" 
d="M137 -181.5q-2 3.5 0 9.5l70 177l-184 472q-1 2 -1 5q0 7 8 7h81q8 0 11 -8l85 -231q20 -53 34 -101q4 -10 10 -30h2l20 60t16 47l9 24l84 231q3 8 13 8h77q5 0 7.5 -3.5t0.5 -8.5l-251 -654q-3 -8 -11 -8h-74q-5 0 -7 3.5zM119.5 582.5q-13.5 14.5 -13.5 39.5v11
q0 25 13.5 39t41.5 14t42 -14t14 -39v-11q0 -25 -14 -39.5t-42 -14.5t-41.5 14.5zM294.5 582.5q-13.5 14.5 -13.5 39.5v11q0 53 55 53t55 -53v-11q0 -25 -13.5 -39.5t-41.5 -14.5t-41.5 14.5z" />
    <glyph glyph-name="Amacron" unicode="&#x100;" horiz-adv-x="568" 
d="M569 8q0 -8 -10 -8h-81q-10 0 -13 8l-46 140h-275l-45 -139q-3 -9 -12 -9h-78q-12 0 -9 12l220 635q3 8 12 8h101q10 0 13 -8l222 -635zM393 230l-71 217l-41 123h-1q-18 -58 -28 -86q-4 -15 -11 -35l-71 -219h223zM162 727v57q0 10 11 10h219q10 0 10 -10v-57
q0 -10 -10 -10h-219q-11 0 -11 10z" />
    <glyph glyph-name="amacron" unicode="&#x101;" horiz-adv-x="497" 
d="M432 10q0 -10 -10 -10h-65q-6 0 -8.5 3.5t-4.5 10.5q-5 25 -8 63q-46 -47 -86 -68t-85 -21q-59 0 -89.5 35.5t-30.5 102.5q0 52 20 84.5t65.5 50.5t122.5 25l78 7v40q0 48 -19.5 68t-66.5 20q-86 0 -85 -60q0 -5 -3 -8t-7 -3h-73q-7 0 -9.5 6.5t-2.5 22.5q0 56 49.5 89
t133.5 33q91 0 134.5 -41t43.5 -126v-212q0 -68 6 -110v-2zM152 84q13 -16 41 -16q30 0 61 18.5t77 64.5v75l-77 -7q-66 -6 -90.5 -24.5t-24.5 -61.5q0 -33 13 -49zM134 581v56q0 10 11 10h199q10 0 10 -10v-56q0 -11 -10 -11h-199q-11 0 -11 11z" />
    <glyph glyph-name="Abreve" unicode="&#x102;" horiz-adv-x="568" 
d="M569 8q0 -8 -10 -8h-81q-10 0 -13 8l-46 140h-275l-45 -139q-3 -9 -12 -9h-78q-12 0 -9 12l220 635q3 8 12 8h101q10 0 13 -8l222 -635zM393 230l-71 217l-41 123h-1q-18 -58 -28 -86q-4 -15 -11 -35l-71 -219h223zM206 729q-37 14 -55 28q-6 5 -6 12v58q0 15 12 7
q73 -44 127 -44q33 0 64 12.5t63 31.5q2 2 6 2q5 0 5 -9v-58q0 -7 -5 -12q-18 -14 -55.5 -28t-77.5 -14q-41 0 -78 14z" />
    <glyph glyph-name="abreve" unicode="&#x103;" horiz-adv-x="497" 
d="M432 10q0 -10 -10 -10h-65q-6 0 -8.5 3.5t-4.5 10.5q-5 25 -8 63q-46 -47 -86 -68t-85 -21q-59 0 -89.5 35.5t-30.5 102.5q0 52 20 84.5t65.5 50.5t122.5 25l78 7v40q0 48 -19.5 68t-66.5 20q-86 0 -85 -60q0 -5 -3 -8t-7 -3h-73q-7 0 -9.5 6.5t-2.5 22.5q0 56 49.5 89
t133.5 33q91 0 134.5 -41t43.5 -126v-212q0 -68 6 -110v-2zM152 84q13 -16 41 -16q30 0 61 18.5t77 64.5v75l-77 -7q-66 -6 -90.5 -24.5t-24.5 -61.5q0 -33 13 -49zM170.5 572q-30.5 16 -47.5 34q-4 4 -4 12v58q0 6 3 8t9 -2q19 -19 48.5 -34.5t65.5 -15.5t65.5 15.5
t48.5 34.5q4 3 7 3q5 0 5 -9v-58q0 -8 -4 -13q-23 -20 -50.5 -34.5t-71.5 -14.5t-74.5 16z" />
    <glyph glyph-name="Aogonek" unicode="&#x104;" horiz-adv-x="568" 
d="M564 -126q6 0 6 -7v-50q0 -9 -8 -10q-20 -4 -44 -4q-50 0 -75.5 22t-25.5 60v11q0 30 17 57t48 47h-4q-10 0 -13 8l-46 140h-275l-45 -139q-3 -9 -12 -9h-78q-12 0 -9 12l220 635q3 8 12 8h101q10 0 13 -8l222 -635l1 -4q0 -8 -10 -8h-8q-26 -13 -41 -35.5t-15 -47.5v-9
q0 -19 9.5 -27t30.5 -8q17 0 26 1h3zM393 230l-71 217l-41 123h-1q-18 -58 -28 -86q-4 -15 -11 -35l-71 -219h223z" />
    <glyph glyph-name="aogonek" unicode="&#x105;" horiz-adv-x="497" 
d="M438 -126q6 0 6 -7v-50q0 -9 -8 -10q-20 -4 -44 -4q-50 0 -75.5 22t-25.5 60v11q0 30 17 57t48 47q-6 1 -8 4t-4 10q-5 25 -8 63q-46 -47 -86 -68t-85 -21q-59 0 -89.5 35.5t-30.5 102.5q0 52 20 84.5t65.5 50.5t122.5 25l78 7v40q0 48 -19.5 68t-66.5 20q-86 0 -85 -60
q0 -5 -3 -8t-7 -3h-73q-7 0 -9.5 6.5t-2.5 22.5q0 56 49.5 89t133.5 33q91 0 134.5 -41t43.5 -126v-212q0 -68 6 -110v-3q0 -6 -6 -8q-27 -14 -42 -36.5t-15 -47.5v-9q0 -19 9.5 -27t30.5 -8q17 0 26 1h3zM152 84q13 -16 41 -16q30 0 61 18.5t77 64.5v75l-77 -7
q-66 -6 -90.5 -24.5t-24.5 -61.5q0 -33 13 -49z" />
    <glyph glyph-name="Cacute" unicode="&#x106;" horiz-adv-x="636" 
d="M134 49q-64 61 -64 178v201q0 116 64.5 177.5t187.5 61.5q73 0 129.5 -23t88.5 -66.5t32 -102.5q0 -21 -2 -32q-2 -14 -11 -14h-75q-10 0 -10 11q3 69 -36 106t-115 37q-77 0 -117.5 -39.5t-40.5 -115.5v-201q0 -76 40.5 -115.5t117.5 -39.5q72 0 112 33t40 92
q0 12 -1 18q0 11 10 11h74q6 0 8.5 -3.5t3.5 -10.5t1 -21q0 -61 -31 -107t-87.5 -71t-131.5 -25q-123 0 -187 61zM261 720l57 104q3 8 11 8h78q6 0 7.5 -4t-2.5 -9l-74 -103q-4 -6 -11 -6h-61q-10 0 -5 10z" />
    <glyph glyph-name="cacute" unicode="&#x107;" horiz-adv-x="520" 
d="M112 38.5q-53 50.5 -53 145.5v121q0 95 54.5 145.5t155.5 50.5q90 0 142 -40.5t52 -105.5q0 -24 -11 -24h-73q-10 0 -10 15q0 34 -26.5 53t-73.5 19q-58 0 -86.5 -29.5t-28.5 -92.5v-103q0 -122 114 -122q46 0 73 20t27 51q0 16 10 16h73q5 0 8 -3t3 -7q1 -74 -50.5 -117
t-144.5 -43q-102 0 -155 50.5zM199.5 559q-1.5 3 0.5 8l67 123q3 7 12 7h76q6 0 7.5 -3.5t-1.5 -7.5l-85 -123q-5 -7 -12 -7h-58q-5 0 -6.5 3z" />
    <glyph glyph-name="Cdotaccent" unicode="&#x10a;" horiz-adv-x="636" 
d="M134 49q-64 61 -64 178v201q0 116 64.5 177.5t187.5 61.5q73 0 129.5 -23t88.5 -66.5t32 -102.5q0 -21 -2 -32q-2 -14 -11 -14h-75q-10 0 -10 11q3 69 -36 106t-115 37q-77 0 -117.5 -39.5t-40.5 -115.5v-201q0 -76 40.5 -115.5t117.5 -39.5q72 0 112 33t40 92
q0 12 -1 18q0 11 10 11h74q6 0 8.5 -3.5t3.5 -10.5t1 -21q0 -61 -31 -107t-87.5 -71t-131.5 -25q-123 0 -187 61zM273.5 739.5q-14.5 15.5 -14.5 42.5v11q0 27 14.5 42.5t44.5 15.5t44.5 -15.5t14.5 -42.5v-11q0 -27 -14.5 -42.5t-44.5 -15.5t-44.5 15.5z" />
    <glyph glyph-name="cdotaccent" unicode="&#x10b;" horiz-adv-x="520" 
d="M112 38.5q-53 50.5 -53 145.5v121q0 95 54.5 145.5t155.5 50.5q90 0 142 -40.5t52 -105.5q0 -24 -11 -24h-73q-10 0 -10 15q0 34 -26.5 53t-73.5 19q-58 0 -86.5 -29.5t-28.5 -92.5v-103q0 -122 114 -122q46 0 73 20t27 51q0 16 10 16h73q5 0 8 -3t3 -7q1 -74 -50.5 -117
t-144.5 -43q-102 0 -155 50.5zM215.5 583.5q-14.5 15.5 -14.5 42.5v11q0 27 14.5 42.5t44.5 15.5t44.5 -15.5t14.5 -42.5v-11q0 -27 -14.5 -42.5t-44.5 -15.5t-44.5 15.5z" />
    <glyph glyph-name="Ccaron" unicode="&#x10c;" horiz-adv-x="636" 
d="M134 49q-64 61 -64 178v201q0 116 64.5 177.5t187.5 61.5q73 0 129.5 -23t88.5 -66.5t32 -102.5q0 -21 -2 -32q-2 -14 -11 -14h-75q-10 0 -10 11q3 69 -36 106t-115 37q-77 0 -117.5 -39.5t-40.5 -115.5v-201q0 -76 40.5 -115.5t117.5 -39.5q72 0 112 33t40 92
q0 12 -1 18q0 11 10 11h74q6 0 8.5 -3.5t3.5 -10.5t1 -21q0 -61 -31 -107t-87.5 -71t-131.5 -25q-123 0 -187 61zM184 774q-7 3 -7 10v54q0 12 11 7l130 -48l130 48q2 1 6 1q6 0 6 -8v-54q0 -7 -7 -10l-127 -57q-8 -3 -15 0z" />
    <glyph glyph-name="ccaron" unicode="&#x10d;" horiz-adv-x="520" 
d="M112 38.5q-53 50.5 -53 145.5v121q0 95 54.5 145.5t155.5 50.5q90 0 142 -40.5t52 -105.5q0 -24 -11 -24h-73q-10 0 -10 15q0 34 -26.5 53t-73.5 19q-58 0 -86.5 -29.5t-28.5 -92.5v-103q0 -122 114 -122q46 0 73 20t27 51q0 16 10 16h73q5 0 8 -3t3 -7q1 -74 -50.5 -117
t-144.5 -43q-102 0 -155 50.5zM136 618q-7 4 -7 14v54q0 11 12 5l119 -60l120 60q6 2 7 2q5 0 5 -7v-54q0 -10 -7 -14l-117 -67q-8 -5 -15 0z" />
    <glyph glyph-name="Dcaron" unicode="&#x10e;" horiz-adv-x="643" 
d="M82 11v633q0 11 10 11h183q154 0 230.5 -71.5t76.5 -216.5v-53q0 -158 -76 -236t-231 -78h-183q-10 0 -10 11zM268 81q112 0 165 56t53 173v62q0 103 -53 152.5t-165 49.5h-91v-493h91zM160 774q-7 3 -7 10v54q0 12 11 7l130 -48l130 48q2 1 6 1q6 0 6 -8v-54
q0 -7 -7 -10l-127 -57q-8 -3 -15 0z" />
    <glyph glyph-name="dcaron" unicode="&#x10f;" horiz-adv-x="544" 
d="M479 10q0 -10 -11 -10h-66q-11 0 -12 11q-7 56 -7 64q-47 -45 -88.5 -66t-89.5 -21q-71 0 -107.5 46.5t-36.5 136.5v129q0 96 47 148.5t133 52.5q35 0 73.5 -8.5t62.5 -21.5v201q0 11 10 11h74q5 0 8 -3t3 -8v-557q0 -69 6 -101zM234 71q33 0 65 17.5t78 61.5v242
q-28 13 -59 20t-57 7q-105 0 -105 -129v-118q0 -101 78 -101zM530 538l14 57q-15 5 -22 14t-7 24v24q0 17 12.5 27.5t34.5 10.5q25 0 37.5 -10t12.5 -27v-26q0 -25 -8 -46l-18 -50q-3 -8 -12 -8h-35q-11 0 -9 10z" />
    <glyph glyph-name="Dcroat" unicode="&#x110;" horiz-adv-x="643" 
d="M505.5 583.5q76.5 -71.5 76.5 -216.5v-53q0 -158 -76 -236t-231 -78h-183q-10 0 -10 11v283h-68q-10 0 -10 11v55q0 11 10 11h68v273q0 11 10 11h183q154 0 230.5 -71.5zM486 372q0 103 -53 152.5t-165 49.5h-91v-203h138q11 0 11 -11v-55q0 -11 -11 -11h-138v-213h91
q112 0 165 56t53 173v62z" />
    <glyph glyph-name="dcroat" unicode="&#x111;" horiz-adv-x="544" 
d="M550 615v-52q0 -5 -3 -8t-8 -3h-67v-437q0 -69 6 -101l1 -4q0 -10 -11 -10h-66q-11 0 -12 11q-7 56 -7 64q-47 -45 -88.5 -66t-89.5 -21q-71 0 -107.5 46.5t-36.5 136.5v129q0 96 47 148.5t133 52.5q35 0 73.5 -8.5t62.5 -21.5v81h-101q-4 0 -7.5 3.5t-3.5 7.5v52
q0 5 3 8t8 3h101v46q0 11 10 11h74q5 0 8 -3t3 -8v-46h67q11 0 11 -11zM234 71q33 0 65 17.5t78 61.5v242q-28 13 -59 20t-57 7q-105 0 -105 -129v-118q0 -101 78 -101z" />
    <glyph glyph-name="Emacron" unicode="&#x112;" horiz-adv-x="535" 
d="M82 11v633q0 11 10 11h364q10 0 10 -11v-64q0 -11 -10 -11h-279v-195h255q4 0 7 -3t3 -8v-61q0 -5 -3 -8t-7 -3h-255v-205h279q10 0 10 -11v-64q0 -11 -10 -11h-364q-10 0 -10 11zM159 727v57q0 10 11 10h219q10 0 10 -10v-57q0 -10 -10 -10h-219q-11 0 -11 10z" />
    <glyph glyph-name="emacron" unicode="&#x113;" horiz-adv-x="522" 
d="M111 33.5q-52 45.5 -52 135.5v136q0 96 51.5 146t151.5 50t151.5 -48.5t51.5 -142.5v-78q0 -10 -10 -10h-302v-32q0 -64 27 -92.5t87 -28.5q45 0 69.5 15t24.5 43q0 5 3 8t8 3h74q8 0 10 -9q4 -66 -47.5 -103.5t-145.5 -37.5q-100 0 -152 45.5zM371 297v5q0 60 -26.5 89
t-80.5 29q-111 0 -111 -119v-4h218zM149 592v56q0 10 11 10h199q10 0 10 -10v-56q0 -11 -10 -11h-199q-11 0 -11 11z" />
    <glyph glyph-name="Edotaccent" unicode="&#x116;" horiz-adv-x="535" 
d="M82 11v633q0 11 10 11h364q10 0 10 -11v-64q0 -11 -10 -11h-279v-195h255q4 0 7 -3t3 -8v-61q0 -5 -3 -8t-7 -3h-255v-205h279q10 0 10 -11v-64q0 -11 -10 -11h-364q-10 0 -10 11zM234.5 739.5q-14.5 15.5 -14.5 42.5v11q0 27 14.5 42.5t44.5 15.5t44.5 -15.5t14.5 -42.5
v-11q0 -27 -14.5 -42.5t-44.5 -15.5t-44.5 15.5z" />
    <glyph glyph-name="edotaccent" unicode="&#x117;" horiz-adv-x="522" 
d="M111 33.5q-52 45.5 -52 135.5v136q0 96 51.5 146t151.5 50t151.5 -48.5t51.5 -142.5v-78q0 -10 -10 -10h-302v-32q0 -64 27 -92.5t87 -28.5q45 0 69.5 15t24.5 43q0 5 3 8t8 3h74q8 0 10 -9q4 -66 -47.5 -103.5t-145.5 -37.5q-100 0 -152 45.5zM371 297v5q0 60 -26.5 89
t-80.5 29q-111 0 -111 -119v-4h218zM215.5 594.5q-14.5 15.5 -14.5 42.5v11q0 27 14.5 42.5t44.5 15.5t44.5 -15.5t14.5 -42.5v-11q0 -27 -14.5 -42.5t-44.5 -15.5t-44.5 15.5z" />
    <glyph glyph-name="Eogonek" unicode="&#x118;" horiz-adv-x="535" 
d="M177 569v-195h255q4 0 7 -3t3 -8v-61q0 -5 -3 -8t-7 -3h-255v-205h279q10 0 10 -11v-64q0 -11 -10 -11h-22q-26 -13 -41 -35.5t-15 -47.5v-9q0 -19 9.5 -27t30.5 -8q17 0 26 1h3q6 0 6 -7v-50q0 -9 -8 -10q-20 -4 -44 -4q-50 0 -75.5 22t-25.5 60v11q0 30 17 57t48 47
h-273q-10 0 -10 11v633q0 11 10 11h364q10 0 10 -11v-64q0 -11 -10 -11h-279z" />
    <glyph glyph-name="eogonek" unicode="&#x119;" horiz-adv-x="522" 
d="M413.5 452.5q51.5 -48.5 51.5 -142.5v-78q0 -10 -10 -10h-302v-32q0 -64 27 -92.5t87 -28.5q45 0 69.5 15t24.5 43q0 5 3 8t8 3h74q8 0 10 -9q2 -45 -22 -77.5t-72 -49.5q-27 -13 -42.5 -36t-15.5 -48v-9q0 -19 9.5 -27t30.5 -8q17 0 26 1h3q6 0 6 -7v-50q0 -9 -8 -10
q-20 -4 -44 -4q-50 0 -75.5 22t-25.5 60v11q0 52 47 91h-10q-100 0 -152 45.5t-52 135.5v136q0 96 51.5 146t151.5 50t151.5 -48.5zM371 302q0 60 -26.5 89t-80.5 29q-111 0 -111 -119v-4h218v5z" />
    <glyph glyph-name="Ecaron" unicode="&#x11a;" horiz-adv-x="535" 
d="M82 11v633q0 11 10 11h364q10 0 10 -11v-64q0 -11 -10 -11h-279v-195h255q4 0 7 -3t3 -8v-61q0 -5 -3 -8t-7 -3h-255v-205h279q10 0 10 -11v-64q0 -11 -10 -11h-364q-10 0 -10 11zM145 774q-7 3 -7 10v54q0 12 11 7l130 -48l130 48q2 1 6 1q6 0 6 -8v-54q0 -7 -7 -10
l-127 -57q-8 -3 -15 0z" />
    <glyph glyph-name="ecaron" unicode="&#x11b;" horiz-adv-x="522" 
d="M111 33.5q-52 45.5 -52 135.5v136q0 96 51.5 146t151.5 50t151.5 -48.5t51.5 -142.5v-78q0 -10 -10 -10h-302v-32q0 -64 27 -92.5t87 -28.5q45 0 69.5 15t24.5 43q0 5 3 8t8 3h74q8 0 10 -9q4 -66 -47.5 -103.5t-145.5 -37.5q-100 0 -152 45.5zM371 297v5q0 60 -26.5 89
t-80.5 29q-111 0 -111 -119v-4h218zM135 629q-7 4 -7 14v54q0 11 12 5l119 -60l120 60q6 2 7 2q5 0 5 -7v-54q0 -10 -7 -14l-117 -67q-8 -5 -15 0z" />
    <glyph glyph-name="Gbreve" unicode="&#x11e;" horiz-adv-x="655" 
d="M132.5 51q-62.5 63 -62.5 176v201q0 113 67.5 176t187.5 63q74 0 130 -23t86.5 -65t30.5 -98q0 -20 -2 -30q-2 -11 -11 -11h-75q-4 0 -7 3t-2 8q3 64 -34.5 98t-113.5 34q-162 0 -162 -155v-201q0 -155 156 -155q80 0 121.5 38t41.5 111v37h-150q-5 0 -8 3t-3 7v58
q0 5 3.5 8t7.5 3h229q4 0 7 -3t3 -8v-193q0 -70 8 -121v-2q0 -10 -10 -10h-61q-9 0 -11 9q-6 30 -7 62h-1q-28 -41 -75.5 -62t-109.5 -21q-111 0 -173.5 63zM235 729q-37 14 -55 28q-6 5 -6 12v58q0 15 12 7q73 -44 127 -44q33 0 64 12.5t63 31.5q2 2 6 2q5 0 5 -9v-58
q0 -7 -5 -12q-18 -14 -55.5 -28t-77.5 -14q-41 0 -78 14z" />
    <glyph glyph-name="gbreve" unicode="&#x11f;" horiz-adv-x="518" 
d="M457 48q30 -34 30 -100q0 -77 -55 -111t-177 -34q-117 0 -170 30.5t-53 95.5q0 73 62 111q-25 25 -25 68q0 28 12 49t40 44q-45 42 -45 129t46.5 129t143.5 42q93 0 138.5 -42.5t45.5 -129.5t-45.5 -129t-141.5 -42q-48 0 -86 11q-23 -14 -23 -40q0 -16 11 -23.5t35 -9.5
l165 -10q62 -4 92 -38zM190.5 401q-20.5 -21 -20.5 -72t20.5 -71t72.5 -20t73 20.5t21 70.5q0 51 -21 72t-73 21t-72.5 -21zM339.5 -112.5q28.5 6.5 41 21.5t12.5 42t-13 40t-43 14l-169 10q-38 -20 -38 -67q0 -37 28.5 -52t100.5 -15q52 0 80.5 6.5zM192.5 572
q-30.5 16 -47.5 34q-4 4 -4 12v58q0 6 3 8t9 -2q19 -19 48.5 -34.5t65.5 -15.5t65.5 15.5t48.5 34.5q4 3 7 3q5 0 5 -9v-58q0 -8 -4 -13q-23 -20 -50.5 -34.5t-71.5 -14.5t-74.5 16z" />
    <glyph glyph-name="Gdotaccent" unicode="&#x120;" horiz-adv-x="655" 
d="M132.5 51q-62.5 63 -62.5 176v201q0 113 67.5 176t187.5 63q74 0 130 -23t86.5 -65t30.5 -98q0 -20 -2 -30q-2 -11 -11 -11h-75q-4 0 -7 3t-2 8q3 64 -34.5 98t-113.5 34q-162 0 -162 -155v-201q0 -155 156 -155q80 0 121.5 38t41.5 111v37h-150q-5 0 -8 3t-3 7v58
q0 5 3.5 8t7.5 3h229q4 0 7 -3t3 -8v-193q0 -70 8 -121v-2q0 -10 -10 -10h-61q-9 0 -11 9q-6 30 -7 62h-1q-28 -41 -75.5 -62t-109.5 -21q-111 0 -173.5 63zM268.5 739.5q-14.5 15.5 -14.5 42.5v11q0 27 14.5 42.5t44.5 15.5t44.5 -15.5t14.5 -42.5v-11q0 -27 -14.5 -42.5
t-44.5 -15.5t-44.5 15.5z" />
    <glyph glyph-name="gdotaccent" unicode="&#x121;" horiz-adv-x="518" 
d="M457 48q30 -34 30 -100q0 -77 -55 -111t-177 -34q-117 0 -170 30.5t-53 95.5q0 73 62 111q-25 25 -25 68q0 28 12 49t40 44q-45 42 -45 129t46.5 129t143.5 42q93 0 138.5 -42.5t45.5 -129.5t-45.5 -129t-141.5 -42q-48 0 -86 11q-23 -14 -23 -40q0 -16 11 -23.5t35 -9.5
l165 -10q62 -4 92 -38zM190.5 401q-20.5 -21 -20.5 -72t20.5 -71t72.5 -20t73 20.5t21 70.5q0 51 -21 72t-73 21t-72.5 -21zM339.5 -112.5q28.5 6.5 41 21.5t12.5 42t-13 40t-43 14l-169 10q-38 -20 -38 -67q0 -37 28.5 -52t100.5 -15q52 0 80.5 6.5zM222.5 583.5
q-14.5 15.5 -14.5 42.5v11q0 27 14.5 42.5t44.5 15.5t44.5 -15.5t14.5 -42.5v-11q0 -27 -14.5 -42.5t-44.5 -15.5t-44.5 15.5z" />
    <glyph glyph-name="uni0122" unicode="&#x122;" horiz-adv-x="655" 
d="M132.5 51q-62.5 63 -62.5 176v201q0 113 67.5 176t187.5 63q74 0 130 -23t86.5 -65t30.5 -98q0 -20 -2 -30q-2 -11 -11 -11h-75q-4 0 -7 3t-2 8q3 64 -34.5 98t-113.5 34q-162 0 -162 -155v-201q0 -155 156 -155q80 0 121.5 38t41.5 111v37h-150q-5 0 -8 3t-3 7v58
q0 5 3.5 8t7.5 3h229q4 0 7 -3t3 -8v-193q0 -70 8 -121v-2q0 -10 -10 -10h-61q-9 0 -11 9q-6 30 -7 62h-1q-28 -41 -75.5 -62t-109.5 -21q-111 0 -173.5 63zM285.5 -233.5q-1.5 2.5 -0.5 7.5l15 67q-29 10 -29 43v17q0 20 12.5 32t34.5 12q53 0 53 -44v-18q0 -26 -9 -51
l-20 -62q-2 -6 -11 -6h-40q-4 0 -5.5 2.5z" />
    <glyph glyph-name="uni0123" unicode="&#x123;" horiz-adv-x="518" 
d="M457 48q30 -34 30 -100q0 -77 -55 -111t-177 -34q-117 0 -170 30.5t-53 95.5q0 73 62 111q-25 25 -25 68q0 28 12 49t40 44q-45 42 -45 129t46.5 129t143.5 42q93 0 138.5 -42.5t45.5 -129.5t-45.5 -129t-141.5 -42q-48 0 -86 11q-23 -14 -23 -40q0 -16 11 -23.5t35 -9.5
l165 -10q62 -4 92 -38zM190.5 401q-20.5 -21 -20.5 -72t20.5 -71t72.5 -20t73 20.5t21 70.5q0 51 -21 72t-73 21t-72.5 -21zM339.5 -112.5q28.5 6.5 41 21.5t12.5 42t-13 40t-43 14l-169 10q-38 -20 -38 -67q0 -37 28.5 -52t100.5 -15q52 0 80.5 6.5zM217 606v18q0 24 8 51
l21 61q2 7 10 7h40q5 0 6.5 -2t0.5 -8l-16 -67q30 -10 30 -43v-17q0 -20 -13 -32t-35 -12q-52 0 -52 44z" />
    <glyph glyph-name="Hbar" unicode="&#x126;" horiz-adv-x="663" 
d="M637 577v-54q0 -5 -3 -8t-7 -3h-45v-501q0 -5 -3 -8t-8 -3h-75q-10 0 -10 11v284h-309v-284q0 -11 -10 -11h-75q-10 0 -10 11v501h-46q-4 0 -7 3t-3 8v54q0 11 10 11h46v56q0 11 10 11h75q10 0 10 -11v-56h309v56q0 11 10 11h75q5 0 8 -3t3 -8v-56h45q10 0 10 -11z
M486 512h-309v-134h309v134z" />
    <glyph glyph-name="hbar" unicode="&#x127;" horiz-adv-x="558" 
d="M449 459q37 -42 37 -124v-324q0 -11 -10 -11h-74q-11 0 -11 11v315q0 92 -77 92q-35 0 -70.5 -19.5t-75.5 -59.5v-328q0 -5 -3 -8t-8 -3h-74q-10 0 -10 11v541h-68q-4 0 -7.5 3.5t-3.5 7.5v52q0 5 3 8t8 3h68v46q0 11 10 11h74q5 0 8 -3t3 -8v-46h100q11 0 11 -11v-52
q0 -5 -3 -8t-8 -3h-100v-132q43 42 83.5 61.5t88.5 19.5q72 0 109 -42z" />
    <glyph glyph-name="Imacron" unicode="&#x12a;" horiz-adv-x="259" 
d="M82 11v633q0 11 10 11h75q10 0 10 -11v-633q0 -11 -10 -11h-75q-10 0 -10 11zM9 727v57q0 10 11 10h219q10 0 10 -10v-57q0 -10 -10 -10h-219q-11 0 -11 10z" />
    <glyph glyph-name="imacron" unicode="&#x12b;" horiz-adv-x="238" 
d="M72 11v468q0 10 10 10h74q5 0 8 -3t3 -7v-468q0 -5 -3 -8t-8 -3h-74q-10 0 -10 11zM9 581v56q0 10 11 10h199q10 0 10 -10v-56q0 -11 -10 -11h-199q-11 0 -11 11z" />
    <glyph glyph-name="Iogonek" unicode="&#x12e;" horiz-adv-x="259" 
d="M181 -126q6 0 6 -7v-50q0 -9 -8 -10q-20 -4 -44 -4q-50 0 -75.5 22t-25.5 60v11q0 30 17 57t48 47h-7q-10 0 -10 11v633q0 11 10 11h75q10 0 10 -11v-633q0 -9 -9 -11q-26 -13 -41 -35.5t-15 -47.5v-9q0 -19 9.5 -27t30.5 -8q17 0 26 1h3z" />
    <glyph glyph-name="iogonek" unicode="&#x12f;" horiz-adv-x="238" 
d="M163.5 679.5q14.5 -15.5 14.5 -42.5v-11q0 -27 -14.5 -42.5t-44.5 -15.5t-44.5 15.5t-14.5 42.5v11q0 27 14.5 42.5t44.5 15.5t44.5 -15.5zM165 -126q6 0 6 -7v-50q0 -9 -8 -10q-20 -4 -44 -4q-50 0 -75.5 22t-25.5 60v11q0 30 17 57t48 47h-1q-10 0 -10 11v468
q0 10 10 10h74q5 0 8 -3t3 -7v-468q0 -5 -3 -8t-8 -3h-4q-26 -13 -41 -35.5t-15 -47.5v-9q0 -19 9.5 -27t30.5 -8q17 0 26 1h3z" />
    <glyph glyph-name="Idotaccent" unicode="&#x130;" horiz-adv-x="259" 
d="M82 11v633q0 11 10 11h75q10 0 10 -11v-633q0 -11 -10 -11h-75q-10 0 -10 11zM85.5 739.5q-14.5 15.5 -14.5 42.5v11q0 27 14.5 42.5t44.5 15.5t44.5 -15.5t14.5 -42.5v-11q0 -27 -14.5 -42.5t-44.5 -15.5t-44.5 15.5z" />
    <glyph glyph-name="dotlessi" unicode="&#x131;" horiz-adv-x="238" 
d="M72 11v468q0 10 10 10h74q5 0 8 -3t3 -7v-468q0 -5 -3 -8t-8 -3h-74q-10 0 -10 11z" />
    <glyph glyph-name="IJ" unicode="&#x132;" horiz-adv-x="527" 
d="M82 11v633q0 11 10 11h75q10 0 10 -11v-633q0 -11 -10 -11h-75q-10 0 -10 11zM283 -145q-10 0 -11 7l-20 66v3q0 9 18 13q40 10 60.5 45.5t20.5 95.5v559q0 11 10 11h75q10 0 10 -11v-554q0 -199 -150 -233z" />
    <glyph glyph-name="ij" unicode="&#x133;" horiz-adv-x="477" 
d="M72 11v468q0 10 10 10h74q5 0 8 -3t3 -7v-468q0 -5 -3 -8t-8 -3h-74q-10 0 -10 11zM74.5 583.5q-14.5 15.5 -14.5 42.5v11q0 27 14.5 42.5t44.5 15.5t44.5 -15.5t14.5 -42.5v-11q0 -27 -14.5 -42.5t-44.5 -15.5t-44.5 15.5zM278 -192q-3 0 -8 5l-44 54q-3 4 -3 7q0 5 6 8
q81 57 81 186v411q0 10 10 10h74q5 0 8 -3t3 -7v-416q0 -92 -29 -154t-92 -99q-4 -2 -6 -2zM313.5 583.5q-14.5 15.5 -14.5 42.5v11q0 27 14.5 42.5t44.5 15.5t44.5 -15.5t14.5 -42.5v-11q0 -27 -14.5 -42.5t-44.5 -15.5t-44.5 15.5z" />
    <glyph glyph-name="uni0136" unicode="&#x136;" horiz-adv-x="601" 
d="M82 11v633q0 11 10 11h75q10 0 10 -11v-186q0 -81 -1 -121h1q31 37 90 104l185 209q4 5 12 5h96q6 0 8.5 -3.5t-2.5 -9.5l-230 -253l249 -376q2 -6 2 -7q0 -6 -8 -6h-95q-7 0 -12 7l-202 308l-93 -101v-203q0 -11 -10 -11h-75q-10 0 -10 11zM283.5 -233.5
q-1.5 2.5 -0.5 7.5l15 67q-29 10 -29 43v17q0 20 12.5 32t34.5 12q53 0 53 -44v-18q0 -26 -9 -51l-20 -62q-2 -6 -11 -6h-40q-4 0 -5.5 2.5z" />
    <glyph glyph-name="uni0137" unicode="&#x137;" horiz-adv-x="499" 
d="M72 11v661q0 11 10 11h74q5 0 8 -3t3 -8v-254q0 -46 -2 -138h1q36 43 73 82l111 122q5 5 13 5h98q7 0 8.5 -3.5t-3.5 -8.5l-166 -174l181 -290l2 -6q0 -7 -9 -7h-88q-6 0 -13 7l-140 227l-66 -68v-155q0 -5 -3 -8t-8 -3h-74q-10 0 -10 11zM222.5 -234.5
q-1.5 2.5 -0.5 7.5l15 67q-29 10 -29 43v17q0 20 12.5 32t34.5 12q53 0 53 -44v-18q0 -26 -9 -51l-20 -61q-2 -7 -11 -7h-40q-4 0 -5.5 2.5z" />
    <glyph glyph-name="kgreenlandic" unicode="&#x138;" horiz-adv-x="499" 
d="M72 11v468q0 10 10 10h74q5 0 8 -3t3 -7v-61q0 -46 -2 -138h1q36 43 73 82l111 122q5 5 13 5h98q7 0 8.5 -3.5t-3.5 -8.5l-166 -174l181 -290l2 -6q0 -7 -9 -7h-88q-6 0 -13 7l-140 227l-66 -68v-155q0 -5 -3 -8t-8 -3h-74q-10 0 -10 11z" />
    <glyph glyph-name="Lacute" unicode="&#x139;" horiz-adv-x="479" 
d="M82 11v633q0 11 10 11h75q10 0 10 -11v-558h272q11 0 11 -11v-64q0 -11 -11 -11h-357q-10 0 -10 11zM72 720l57 104q3 8 11 8h78q6 0 7.5 -4t-2.5 -9l-74 -103q-4 -6 -11 -6h-61q-10 0 -5 10z" />
    <glyph glyph-name="lacute" unicode="&#x13a;" horiz-adv-x="238" 
d="M72 11v661q0 11 10 11h74q5 0 8 -3t3 -8v-661q0 -5 -3 -8t-8 -3h-74q-10 0 -10 11zM62 748l57 104q3 8 11 8h78q6 0 7.5 -4t-2.5 -9l-74 -103q-4 -6 -11 -6h-61q-10 0 -5 10z" />
    <glyph glyph-name="uni013B" unicode="&#x13b;" horiz-adv-x="479" 
d="M82 11v633q0 11 10 11h75q10 0 10 -11v-558h272q11 0 11 -11v-64q0 -11 -11 -11h-357q-10 0 -10 11zM241.5 -233.5q-1.5 2.5 -0.5 7.5l15 67q-29 10 -29 43v17q0 20 12.5 32t34.5 12q53 0 53 -44v-18q0 -26 -9 -51l-20 -62q-2 -6 -11 -6h-40q-4 0 -5.5 2.5z" />
    <glyph glyph-name="uni013C" unicode="&#x13c;" horiz-adv-x="238" 
d="M72 11v661q0 11 10 11h74q5 0 8 -3t3 -8v-661q0 -5 -3 -8t-8 -3h-74q-10 0 -10 11zM83.5 -234.5q-1.5 2.5 -0.5 7.5l15 67q-29 10 -29 43v17q0 20 12.5 32t34.5 12q53 0 53 -44v-18q0 -26 -9 -51l-20 -61q-2 -7 -11 -7h-40q-4 0 -5.5 2.5z" />
    <glyph glyph-name="Lcaron" unicode="&#x13d;" horiz-adv-x="479" 
d="M82 11v633q0 11 10 11h75q10 0 10 -11v-558h272q11 0 11 -11v-64q0 -11 -11 -11h-357q-10 0 -10 11zM277 510l14 57q-15 5 -22 14t-7 24v24q0 17 12.5 27.5t34.5 10.5q25 0 37.5 -10t12.5 -27v-26q0 -25 -8 -46l-18 -50q-3 -8 -12 -8h-35q-11 0 -9 10z" />
    <glyph glyph-name="lcaron" unicode="&#x13e;" horiz-adv-x="239" 
d="M72 11v661q0 11 10 11h74q5 0 8 -3t3 -8v-661q0 -5 -3 -8t-8 -3h-74q-10 0 -10 11zM225 538l14 57q-15 5 -22 14t-7 24v24q0 17 12.5 27.5t34.5 10.5q25 0 37.5 -10t12.5 -27v-26q0 -25 -8 -46l-18 -50q-3 -8 -12 -8h-35q-11 0 -9 10z" />
    <glyph glyph-name="Lslash" unicode="&#x141;" horiz-adv-x="479" 
d="M460 75v-64q0 -11 -11 -11h-357q-10 0 -10 11v282l-81 -32q-2 -1 -5 -1q-8 0 -8 9v62q0 8 9 11l85 34v268q0 11 10 11h75q10 0 10 -11v-230l124 49l4 1q8 0 8 -10v-60q0 -9 -8 -12l-128 -51v-245h272q11 0 11 -11z" />
    <glyph glyph-name="lslash" unicode="&#x142;" horiz-adv-x="239" 
d="M238 518q8 0 8 -9v-61q0 -8 -8 -11l-71 -32v-394q0 -11 -10 -11h-74q-11 0 -11 11v352l-66 -31q-2 -1 -5 -1q-8 0 -8 10v60q0 8 8 11l71 32v228q0 11 11 11h74q10 0 10 -11v-185l67 30z" />
    <glyph glyph-name="Nacute" unicode="&#x143;" horiz-adv-x="664" 
d="M82 11v633q0 11 10 11h124q9 0 12 -7l180 -365q54 -109 81 -174h2q-2 108 -2 178v357q0 11 10 11h73q5 0 8 -3t3 -8v-633q0 -5 -3 -8t-8 -3h-121q-9 0 -13 7l-176 355q-47 96 -86 184h-2v-25q2 -114 2 -167v-343q0 -5 -3 -8t-8 -3h-73q-10 0 -10 11zM275 720l57 104
q3 8 11 8h78q6 0 7.5 -4t-2.5 -9l-74 -103q-4 -6 -11 -6h-61q-10 0 -5 10z" />
    <glyph glyph-name="nacute" unicode="&#x144;" horiz-adv-x="557" 
d="M447.5 459q37.5 -42 37.5 -124v-324q0 -11 -10 -11h-74q-11 0 -11 11v315q0 47 -19 69.5t-59 22.5q-34 0 -67 -18t-78 -61v-328q0 -5 -3 -8t-8 -3h-74q-10 0 -10 11v355q0 52 -7 110v3q0 10 10 10h68q5 0 8 -2t4 -8q4 -16 8 -63q45 44 86 64.5t89 20.5q72 0 109.5 -42z
M220.5 559q-1.5 3 0.5 8l67 123q3 7 12 7h76q6 0 7.5 -3.5t-1.5 -7.5l-85 -123q-5 -7 -12 -7h-58q-5 0 -6.5 3z" />
    <glyph glyph-name="uni0145" unicode="&#x145;" horiz-adv-x="664" 
d="M82 11v633q0 11 10 11h124q9 0 12 -7l180 -365q54 -109 81 -174h2q-2 108 -2 178v357q0 11 10 11h73q5 0 8 -3t3 -8v-633q0 -5 -3 -8t-8 -3h-121q-9 0 -13 7l-176 355q-47 96 -86 184h-2v-25q2 -114 2 -167v-343q0 -5 -3 -8t-8 -3h-73q-10 0 -10 11zM296.5 -233.5
q-1.5 2.5 -0.5 7.5l15 67q-29 10 -29 43v17q0 20 12.5 32t34.5 12q53 0 53 -44v-18q0 -26 -9 -51l-20 -62q-2 -6 -11 -6h-40q-4 0 -5.5 2.5z" />
    <glyph glyph-name="uni0146" unicode="&#x146;" horiz-adv-x="557" 
d="M447.5 459q37.5 -42 37.5 -124v-324q0 -11 -10 -11h-74q-11 0 -11 11v315q0 47 -19 69.5t-59 22.5q-34 0 -67 -18t-78 -61v-328q0 -5 -3 -8t-8 -3h-74q-10 0 -10 11v355q0 52 -7 110v3q0 10 10 10h68q5 0 8 -2t4 -8q4 -16 8 -63q45 44 86 64.5t89 20.5q72 0 109.5 -42z
M250.5 -234.5q-1.5 2.5 -0.5 7.5l15 67q-29 10 -29 43v17q0 20 12.5 32t34.5 12q53 0 53 -44v-18q0 -26 -9 -51l-20 -61q-2 -7 -11 -7h-40q-4 0 -5.5 2.5z" />
    <glyph glyph-name="Ncaron" unicode="&#x147;" horiz-adv-x="664" 
d="M82 11v633q0 11 10 11h124q9 0 12 -7l180 -365q54 -109 81 -174h2q-2 108 -2 178v357q0 11 10 11h73q5 0 8 -3t3 -8v-633q0 -5 -3 -8t-8 -3h-121q-9 0 -13 7l-176 355q-47 96 -86 184h-2v-25q2 -114 2 -167v-343q0 -5 -3 -8t-8 -3h-73q-10 0 -10 11zM198 774q-7 3 -7 10
v54q0 12 11 7l130 -48l130 48q2 1 6 1q6 0 6 -8v-54q0 -7 -7 -10l-127 -57q-8 -3 -15 0z" />
    <glyph glyph-name="ncaron" unicode="&#x148;" horiz-adv-x="557" 
d="M447.5 459q37.5 -42 37.5 -124v-324q0 -11 -10 -11h-74q-11 0 -11 11v315q0 47 -19 69.5t-59 22.5q-34 0 -67 -18t-78 -61v-328q0 -5 -3 -8t-8 -3h-74q-10 0 -10 11v355q0 52 -7 110v3q0 10 10 10h68q5 0 8 -2t4 -8q4 -16 8 -63q45 44 86 64.5t89 20.5q72 0 109.5 -42z
M157 618q-7 4 -7 14v54q0 11 12 5l119 -60l120 60q6 2 7 2q5 0 5 -7v-54q0 -10 -7 -14l-117 -67q-8 -5 -15 0z" />
    <glyph glyph-name="Eng" unicode="&#x14a;" horiz-adv-x="664" 
d="M403 -133q-3 3 -3 6q0 5 12 13q27 18 45 47.5t26 66.5h-32q-9 0 -13 7l-176 355q-47 96 -86 184h-2v-25q2 -114 2 -167v-343q0 -5 -3 -8t-8 -3h-73q-10 0 -10 11v633q0 11 10 11h124q9 0 12 -7l180 -365q54 -109 81 -174h2q-2 108 -2 178v357q0 11 10 11h73q5 0 8 -3
t3 -8v-580q0 -179 -110 -247q-14 -8 -19 -8q-3 0 -7 4z" />
    <glyph glyph-name="eng" unicode="&#x14b;" horiz-adv-x="557" 
d="M359 -192q-3 0 -8 5l-45 54q-2 2 -2 7t5 8q81 58 81 186v258q0 47 -19 69.5t-59 22.5q-34 0 -67 -18t-78 -61v-328q0 -5 -3 -8t-8 -3h-74q-10 0 -10 11v355q0 52 -7 110v3q0 10 10 10h68q5 0 8 -2t4 -8q4 -16 8 -63q45 45 86 65t89 20q72 0 109.5 -42t37.5 -124v-272
q0 -93 -29.5 -155t-90.5 -98q-4 -2 -6 -2z" />
    <glyph glyph-name="Omacron" unicode="&#x14c;" horiz-adv-x="645" 
d="M133.5 49.5q-63.5 61.5 -63.5 176.5v203q0 115 63.5 176.5t188.5 61.5q126 0 189.5 -61.5t63.5 -176.5v-203q0 -115 -63.5 -176.5t-189.5 -61.5q-125 0 -188.5 61.5zM439.5 112q40.5 40 40.5 117v197q0 77 -40.5 117t-117.5 40t-117 -40t-40 -117v-197q0 -77 40 -117
t117 -40t117.5 40zM202 727v57q0 10 11 10h219q10 0 10 -10v-57q0 -10 -10 -10h-219q-11 0 -11 10z" />
    <glyph glyph-name="omacron" unicode="&#x14d;" horiz-adv-x="538" 
d="M112.5 38q-53.5 50 -53.5 150v113q0 200 210 200q103 0 157 -50t54 -150v-113q0 -100 -53.5 -150t-157.5 -50q-103 0 -156.5 50zM357 102q28 31 28 95v96q0 64 -28 94.5t-88 30.5t-87.5 -30.5t-27.5 -94.5v-96q0 -64 27.5 -95t87.5 -31t88 31zM158 581v56q0 10 11 10h199
q10 0 10 -10v-56q0 -11 -10 -11h-199q-11 0 -11 11z" />
    <glyph glyph-name="Ohungarumlaut" unicode="&#x150;" horiz-adv-x="645" 
d="M133.5 49.5q-63.5 61.5 -63.5 176.5v203q0 115 63.5 176.5t188.5 61.5q126 0 189.5 -61.5t63.5 -176.5v-203q0 -115 -63.5 -176.5t-189.5 -61.5q-125 0 -188.5 61.5zM439.5 112q40.5 40 40.5 117v197q0 77 -40.5 117t-117.5 40t-117 -40t-40 -117v-197q0 -77 40 -117
t117 -40t117.5 40zM205 721l44 102q3 9 12 9h70q5 0 7 -4t-1 -9l-55 -102q-4 -7 -13 -7h-57q-12 0 -7 11zM353 721l44 102q3 9 12 9h70q5 0 7 -4t-1 -9l-55 -102q-4 -7 -13 -7h-57q-12 0 -7 11z" />
    <glyph glyph-name="ohungarumlaut" unicode="&#x151;" horiz-adv-x="538" 
d="M112.5 38q-53.5 50 -53.5 150v113q0 200 210 200q103 0 157 -50t54 -150v-113q0 -100 -53.5 -150t-157.5 -50q-103 0 -156.5 50zM357 102q28 31 28 95v96q0 64 -28 94.5t-88 30.5t-87.5 -30.5t-27.5 -94.5v-96q0 -64 27.5 -95t87.5 -31t88 31zM150 568l52 123q3 8 12 8
h73q5 0 6.5 -3.5t-1.5 -8.5l-65 -123q-4 -8 -12 -8h-58q-12 0 -7 12zM291 568l52 123q3 8 12 8h72q6 0 7.5 -3.5t-1.5 -8.5l-66 -123q-2 -5 -4.5 -6.5t-6.5 -1.5h-59q-11 0 -6 12z" />
    <glyph glyph-name="OE" unicode="&#x152;" horiz-adv-x="877" 
d="M133.5 49.5q-63.5 61.5 -63.5 176.5v203q0 115 63.5 176.5t188.5 61.5q62 0 104 -12h372q5 0 8 -3t3 -8v-64q0 -5 -3 -8t-8 -3h-279v-195h255q5 0 8 -3t3 -8v-61q0 -4 -3 -7.5t-8 -3.5h-255v-205h279q5 0 8 -3t3 -8v-64q0 -5 -3 -8t-8 -3h-372q-40 -12 -104 -12
q-125 0 -188.5 61.5zM424 81v493q-37 9 -101 9q-77 0 -117.5 -39.5t-40.5 -115.5v-201q0 -76 40.5 -115.5t117.5 -39.5q65 0 101 9z" />
    <glyph glyph-name="oe" unicode="&#x153;" horiz-adv-x="839" 
d="M111 38.5q-52 50.5 -52 146.5v120q0 95 51.5 145.5t149.5 50.5q119 0 163 -77q24 38 67 57.5t99 19.5q93 0 143 -49.5t50 -141.5v-78q0 -10 -10 -10h-302v-32q0 -64 27 -92.5t87 -28.5q44 0 69 15t25 39q0 15 11 15h73q11 0 11 -12q0 -65 -51 -101.5t-141 -36.5
q-58 0 -96 17.5t-65 58.5q-29 -41 -66.5 -58.5t-92.5 -17.5q-98 0 -150 50.5zM688 297v4q0 60 -26.5 89.5t-81.5 29.5q-110 0 -110 -120v-3h218zM376 193v103q0 122 -111 122q-56 0 -83.5 -30t-27.5 -92v-103q0 -62 27.5 -92t83.5 -30q111 0 111 122z" />
    <glyph glyph-name="Racute" unicode="&#x154;" horiz-adv-x="607" 
d="M82 11v633q0 11 10 11h198q121 0 179.5 -46t58.5 -138q0 -71 -33.5 -118.5t-96.5 -65.5v-2l165 -272q2 -3 2 -7q0 -6 -9 -6h-87q-9 0 -13 7l-159 267h-120v-263q0 -11 -10 -11h-75q-10 0 -10 11zM282 350q80 0 115.5 27t35.5 88q0 59 -33.5 84t-111.5 25h-111v-224h105z
M220 720l57 104q3 8 11 8h78q6 0 7.5 -4t-2.5 -9l-74 -103q-4 -6 -11 -6h-61q-10 0 -5 10z" />
    <glyph glyph-name="racute" unicode="&#x155;" horiz-adv-x="359" 
d="M345 450q0 -27 -3 -53q-2 -12 -14 -9q-13 4 -35 4q-32 0 -65.5 -19t-60.5 -52v-310q0 -5 -3 -8t-8 -3h-74q-10 0 -10 11v358q0 59 -7 109v2q0 4 3 6.5t7 2.5h68q11 0 12 -9q6 -33 8 -70q32 40 72 65.5t73 25.5q18 0 27 -3q8 -3 9 -11q1 -12 1 -37zM147.5 559
q-1.5 3 0.5 8l67 123q3 7 12 7h76q6 0 7.5 -3.5t-1.5 -7.5l-85 -123q-5 -7 -12 -7h-58q-5 0 -6.5 3z" />
    <glyph glyph-name="uni0156" unicode="&#x156;" horiz-adv-x="607" 
d="M82 11v633q0 11 10 11h198q121 0 179.5 -46t58.5 -138q0 -71 -33.5 -118.5t-96.5 -65.5v-2l165 -272q2 -3 2 -7q0 -6 -9 -6h-87q-9 0 -13 7l-159 267h-120v-263q0 -11 -10 -11h-75q-10 0 -10 11zM282 350q80 0 115.5 27t35.5 88q0 59 -33.5 84t-111.5 25h-111v-224h105z
M268.5 -233.5q-1.5 2.5 -0.5 7.5l15 67q-29 10 -29 43v17q0 20 12.5 32t34.5 12q53 0 53 -44v-18q0 -26 -9 -51l-20 -62q-2 -6 -11 -6h-40q-4 0 -5.5 2.5z" />
    <glyph glyph-name="uni0157" unicode="&#x157;" horiz-adv-x="359" 
d="M345 450q0 -27 -3 -53q-2 -12 -14 -9q-13 4 -35 4q-32 0 -65.5 -19t-60.5 -52v-310q0 -5 -3 -8t-8 -3h-74q-10 0 -10 11v358q0 59 -7 109v2q0 4 3 6.5t7 2.5h68q11 0 12 -9q6 -33 8 -70q32 40 72 65.5t73 25.5q18 0 27 -3q8 -3 9 -11q1 -12 1 -37zM86.5 -234.5
q-1.5 2.5 -0.5 7.5l15 67q-29 10 -29 43v17q0 20 12.5 32t34.5 12q53 0 53 -44v-18q0 -26 -9 -51l-20 -61q-2 -7 -11 -7h-40q-4 0 -5.5 2.5z" />
    <glyph glyph-name="Rcaron" unicode="&#x158;" horiz-adv-x="607" 
d="M82 11v633q0 11 10 11h198q121 0 179.5 -46t58.5 -138q0 -71 -33.5 -118.5t-96.5 -65.5v-2l165 -272q2 -3 2 -7q0 -6 -9 -6h-87q-9 0 -13 7l-159 267h-120v-263q0 -11 -10 -11h-75q-10 0 -10 11zM282 350q80 0 115.5 27t35.5 88q0 59 -33.5 84t-111.5 25h-111v-224h105z
M143 774q-7 3 -7 10v54q0 12 11 7l130 -48l130 48q2 1 6 1q6 0 6 -8v-54q0 -7 -7 -10l-127 -57q-8 -3 -15 0z" />
    <glyph glyph-name="rcaron" unicode="&#x159;" horiz-adv-x="359" 
d="M345 450q0 -27 -3 -53q-2 -12 -14 -9q-13 4 -35 4q-32 0 -65.5 -19t-60.5 -52v-310q0 -5 -3 -8t-8 -3h-74q-10 0 -10 11v358q0 59 -7 109v2q0 4 3 6.5t7 2.5h68q11 0 12 -9q6 -33 8 -70q32 40 72 65.5t73 25.5q18 0 27 -3q8 -3 9 -11q1 -12 1 -37zM84 618q-7 4 -7 14v54
q0 11 12 5l119 -60l120 60q6 2 7 2q5 0 5 -7v-54q0 -10 -7 -14l-117 -67q-8 -5 -15 0z" />
    <glyph glyph-name="Sacute" unicode="&#x15a;" horiz-adv-x="569" 
d="M101 38q-58 50 -52 139q1 17 13 17h72q12 0 12 -15q0 -56 34 -82t105 -26q137 0 137 96q0 36 -19 57t-68 41l-146 61q-69 28 -99 67.5t-30 98.5q0 86 55 130t162 44q105 0 166.5 -43t61.5 -121q0 -13 -1 -19q-2 -18 -11 -18h-73q-6 0 -8.5 4t-1.5 14q4 48 -32.5 74.5
t-102.5 26.5q-119 0 -120 -85q0 -34 19.5 -55.5t70.5 -43.5l145 -61q69 -29 98 -67t29 -100q0 -184 -239 -184q-119 0 -177 50zM224 720l57 104q3 8 11 8h78q6 0 7.5 -4t-2.5 -9l-74 -103q-4 -6 -11 -6h-61q-10 0 -5 10z" />
    <glyph glyph-name="sacute" unicode="&#x15b;" horiz-adv-x="466" 
d="M96.5 26.5q-45.5 38.5 -45.5 117.5q0 12 10 12h74q9 0 9 -9q0 -42 21.5 -61t68.5 -19q94 0 94 60q0 21 -13.5 36.5t-43.5 28.5l-114 47q-54 23 -77 52t-23 76q0 134 171 134q88 0 135.5 -36t47.5 -101q0 -10 -11 -10h-73q-10 0 -10 16q0 25 -22.5 39t-62.5 14
q-41 0 -60.5 -13.5t-19.5 -42.5q0 -21 10.5 -31.5t45.5 -25.5l114 -48q54 -22 77.5 -52t23.5 -78q0 -70 -48.5 -107t-140.5 -37t-137.5 38.5zM168.5 559q-1.5 3 0.5 8l67 123q3 7 12 7h76q6 0 7.5 -3.5t-1.5 -7.5l-85 -123q-5 -7 -12 -7h-58q-5 0 -6.5 3z" />
    <glyph glyph-name="Scedilla" unicode="&#x15e;" horiz-adv-x="569" 
d="M488 272q29 -38 29 -100q0 -170 -204 -183l-9 -28h9q26 0 40.5 -17.5t14.5 -46.5v-16q0 -40 -24.5 -59t-74.5 -19q-24 0 -44 4q-5 1 -6.5 2.5t-1.5 6.5v39q0 8 5 8q8 0 16 -1t16 -1q40 0 40 23v13q0 14 -8 19.5t-25 5.5h-23q-4 0 -5.5 1t-1.5 6q0 14 2 20l12 40
q-103 7 -152 56.5t-44 131.5q1 17 13 17h72q12 0 12 -15q0 -56 34 -82t105 -26q137 0 137 96q0 36 -19 57t-68 41l-146 61q-69 28 -99 67.5t-30 98.5q0 86 55 130t162 44q105 0 166.5 -43t61.5 -121q0 -13 -1 -19q-2 -18 -11 -18h-73q-6 0 -8.5 4t-1.5 14q4 48 -32.5 74.5
t-102.5 26.5q-119 0 -120 -85q0 -34 19.5 -55.5t70.5 -43.5l145 -61q69 -29 98 -67z" />
    <glyph glyph-name="scedilla" unicode="&#x15f;" horiz-adv-x="466" 
d="M383 32.5q-40 -36.5 -115 -43.5l-9 -28h9q26 0 40.5 -17.5t14.5 -46.5v-16q0 -40 -24.5 -59t-74.5 -19q-24 0 -44 4q-5 1 -6.5 2.5t-1.5 6.5v39q0 8 5 8q8 0 16 -1t16 -1q40 0 40 23v13q0 14 -8 19.5t-25 5.5h-23q-4 0 -5.5 1t-1.5 6q0 14 2 20l12 40q-149 13 -149 155
q0 12 10 12h74q9 0 9 -9q0 -42 21.5 -61t68.5 -19q94 0 94 60q0 21 -13.5 36.5t-43.5 28.5l-114 47q-54 23 -77 52t-23 76q0 134 171 134q88 0 135.5 -36t47.5 -101q0 -10 -11 -10h-73q-10 0 -10 16q0 25 -22.5 39t-62.5 14q-41 0 -60.5 -13.5t-19.5 -42.5q0 -21 10.5 -31.5
t45.5 -25.5l114 -48q54 -22 77.5 -52t23.5 -78q0 -63 -40 -99.5z" />
    <glyph glyph-name="Scaron" unicode="&#x160;" horiz-adv-x="569" 
d="M101 38q-58 50 -52 139q1 17 13 17h72q12 0 12 -15q0 -56 34 -82t105 -26q137 0 137 96q0 36 -19 57t-68 41l-146 61q-69 28 -99 67.5t-30 98.5q0 86 55 130t162 44q105 0 166.5 -43t61.5 -121q0 -13 -1 -19q-2 -18 -11 -18h-73q-6 0 -8.5 4t-1.5 14q4 48 -32.5 74.5
t-102.5 26.5q-119 0 -120 -85q0 -34 19.5 -55.5t70.5 -43.5l145 -61q69 -29 98 -67t29 -100q0 -184 -239 -184q-119 0 -177 50zM147 774q-7 3 -7 10v54q0 12 11 7l130 -48l130 48q2 1 6 1q6 0 6 -8v-54q0 -7 -7 -10l-127 -57q-8 -3 -15 0z" />
    <glyph glyph-name="scaron" unicode="&#x161;" horiz-adv-x="466" 
d="M96.5 26.5q-45.5 38.5 -45.5 117.5q0 12 10 12h74q9 0 9 -9q0 -42 21.5 -61t68.5 -19q94 0 94 60q0 21 -13.5 36.5t-43.5 28.5l-114 47q-54 23 -77 52t-23 76q0 134 171 134q88 0 135.5 -36t47.5 -101q0 -10 -11 -10h-73q-10 0 -10 16q0 25 -22.5 39t-62.5 14
q-41 0 -60.5 -13.5t-19.5 -42.5q0 -21 10.5 -31.5t45.5 -25.5l114 -48q54 -22 77.5 -52t23.5 -78q0 -70 -48.5 -107t-140.5 -37t-137.5 38.5zM105 618q-7 4 -7 14v54q0 11 12 5l119 -60l120 60q6 2 7 2q5 0 5 -7v-54q0 -10 -7 -14l-117 -67q-8 -5 -15 0z" />
    <glyph glyph-name="uni0162" unicode="&#x162;" horiz-adv-x="538" 
d="M505 644v-64q0 -11 -10 -11h-178v-558q0 -11 -11 -11h-12l-13 -39h9q26 0 40.5 -17.5t14.5 -46.5v-16q0 -40 -24.5 -59t-74.5 -19q-24 0 -44 4q-5 1 -6.5 2.5t-1.5 6.5v39q0 8 5 8q8 0 16 -1t16 -1q40 0 40 23v13q0 14 -8 19.5t-25 5.5h-23q-4 0 -5.5 1t-1.5 6q0 14 2 20
l16 52q-5 3 -5 10v558h-178q-10 0 -10 11v64q0 11 10 11h452q10 0 10 -11z" />
    <glyph glyph-name="uni0163" unicode="&#x163;" horiz-adv-x="388" 
d="M350 87q7 0 7 -9v-61q0 -9 -9 -12q-38 -16 -88 -17l-9 -27h9q26 0 40.5 -17.5t14.5 -46.5v-16q0 -40 -24.5 -59t-74.5 -19q-24 0 -44 4q-5 1 -6.5 2.5t-1.5 6.5v39q0 8 5 8q8 0 16 -1t16 -1q40 0 40 23v13q0 14 -8 19.5t-25 5.5h-23q-4 0 -5.5 1t-1.5 6q0 14 2 20l14 45
q-48 12 -68.5 50t-20.5 105v259h-76q-4 0 -7.5 3.5t-3.5 7.5v60q0 4 3 7t8 3h78l12 120q2 11 12 11h58q10 0 10 -11l1 -120h145q11 0 11 -10v-60q0 -5 -3 -8t-8 -3h-145v-255q0 -46 16 -64.5t54 -18.5t74 16q2 1 6 1z" />
    <glyph glyph-name="Tcaron" unicode="&#x164;" horiz-adv-x="538" 
d="M221 11v558h-178q-10 0 -10 11v64q0 11 10 11h452q10 0 10 -11v-64q0 -11 -10 -11h-178v-558q0 -11 -11 -11h-74q-11 0 -11 11zM135 774q-7 3 -7 10v54q0 12 11 7l130 -48l130 48q2 1 6 1q6 0 6 -8v-54q0 -7 -7 -10l-127 -57q-8 -3 -15 0z" />
    <glyph glyph-name="tcaron" unicode="&#x165;" horiz-adv-x="394" 
d="M138 26.5q-33 38.5 -33 122.5v259h-76q-4 0 -7.5 3.5t-3.5 7.5v60q0 4 3 7t8 3h78l12 120q2 11 12 11h58q10 0 10 -11l1 -120h145q11 0 11 -10v-60q0 -5 -3 -8t-8 -3h-145v-255q0 -46 16 -64.5t54 -18.5t74 16q2 1 6 1q7 0 7 -9v-61q0 -9 -9 -12q-41 -17 -98 -17
q-79 0 -112 38.5zM270 538l14 57q-15 5 -22 14t-7 24v24q0 17 12.5 27.5t34.5 10.5q25 0 37.5 -10t12.5 -27v-26q0 -25 -8 -46l-18 -50q-3 -8 -12 -8h-35q-11 0 -9 10z" />
    <glyph glyph-name="Tbar" unicode="&#x166;" horiz-adv-x="538" 
d="M505 644v-64q0 -11 -10 -11h-178v-200h99q10 0 10 -10v-51q0 -11 -10 -11h-99v-286q0 -11 -11 -11h-74q-11 0 -11 11v286h-99q-10 0 -10 11v51q0 10 10 10h99v200h-178q-10 0 -10 11v64q0 11 10 11h452q10 0 10 -11z" />
    <glyph glyph-name="tbar" unicode="&#x167;" horiz-adv-x="388" 
d="M350 87q7 0 7 -9v-61q0 -9 -9 -12q-41 -17 -98 -17q-79 0 -112 38.5t-33 122.5v108h-67q-10 0 -10 10v54q0 10 10 10h67v77h-76q-4 0 -7.5 3.5t-3.5 7.5v60q0 4 3 7t8 3h78l12 120q2 11 12 11h58q10 0 10 -11l1 -120h145q11 0 11 -10v-60q0 -5 -3 -8t-8 -3h-145v-77h131
q4 0 7.5 -3t3.5 -7v-54q0 -4 -3.5 -7t-7.5 -3h-131v-104q0 -46 16 -64.5t54 -18.5t74 16q2 1 6 1z" />
    <glyph glyph-name="Umacron" unicode="&#x16a;" horiz-adv-x="646" 
d="M141 50q-64 62 -64 178v416q0 11 10 11h75q10 0 10 -11v-418q0 -74 39 -114t112 -40t112 40t39 114v418q0 11 11 11h74q5 0 8 -3t3 -8v-418q0 -112 -65.5 -175t-181.5 -63q-118 0 -182 62zM203 727v57q0 10 11 10h219q10 0 10 -10v-57q0 -10 -10 -10h-219q-11 0 -11 10z
" />
    <glyph glyph-name="umacron" unicode="&#x16b;" horiz-adv-x="543" 
d="M478 9q0 -9 -11 -9h-63q-12 0 -13 10q-6 42 -7 66q-93 -88 -180 -88q-64 0 -98 42.5t-34 123.5v325q0 10 10 10h74q5 0 8 -3t3 -7v-316q0 -47 16.5 -69.5t51.5 -22.5q32 0 65 18.5t77 61.5v328q0 10 10 10h74q5 0 8 -3t3 -7v-356q0 -69 6 -112v-2zM161 581v56q0 10 11 10
h199q10 0 10 -10v-56q0 -11 -10 -11h-199q-11 0 -11 11z" />
    <glyph glyph-name="Uring" unicode="&#x16e;" horiz-adv-x="646" 
d="M141 50q-64 62 -64 178v416q0 11 10 11h75q10 0 10 -11v-418q0 -74 39 -114t112 -40t112 40t39 114v418q0 11 11 11h74q5 0 8 -3t3 -8v-418q0 -112 -65.5 -175t-181.5 -63q-118 0 -182 62zM239.5 696q-30.5 26 -30.5 73t30.5 73t83.5 26t83.5 -25.5t30.5 -73.5
q0 -47 -30.5 -73t-83.5 -26t-83.5 26zM372 770q0 21 -12 33t-37 12t-37 -12t-12 -33q0 -46 49 -46t49 46z" />
    <glyph glyph-name="uring" unicode="&#x16f;" horiz-adv-x="543" 
d="M478 9q0 -9 -11 -9h-63q-12 0 -13 10q-6 42 -7 66q-93 -88 -180 -88q-64 0 -98 42.5t-34 123.5v325q0 10 10 10h74q5 0 8 -3t3 -7v-316q0 -47 16.5 -69.5t51.5 -22.5q32 0 65 18.5t77 61.5v328q0 10 10 10h74q5 0 8 -3t3 -7v-356q0 -69 6 -112v-2zM188.5 578
q-30.5 26 -30.5 73t30.5 73t83.5 26t83.5 -25.5t30.5 -73.5q0 -47 -30.5 -73t-83.5 -26t-83.5 26zM321 651q0 45 -49 45t-49 -45t49 -45t49 45z" />
    <glyph glyph-name="Uhungarumlaut" unicode="&#x170;" horiz-adv-x="646" 
d="M141 50q-64 62 -64 178v416q0 11 10 11h75q10 0 10 -11v-418q0 -74 39 -114t112 -40t112 40t39 114v418q0 11 11 11h74q5 0 8 -3t3 -8v-418q0 -112 -65.5 -175t-181.5 -63q-118 0 -182 62zM205 721l44 102q3 9 12 9h70q5 0 7 -4t-1 -9l-55 -102q-4 -7 -13 -7h-57
q-12 0 -7 11zM353 721l44 102q3 9 12 9h70q5 0 7 -4t-1 -9l-55 -102q-4 -7 -13 -7h-57q-12 0 -7 11z" />
    <glyph glyph-name="uhungarumlaut" unicode="&#x171;" horiz-adv-x="543" 
d="M478 9q0 -9 -11 -9h-63q-12 0 -13 10q-6 42 -7 66q-93 -88 -180 -88q-64 0 -98 42.5t-34 123.5v325q0 10 10 10h74q5 0 8 -3t3 -7v-316q0 -47 16.5 -69.5t51.5 -22.5q32 0 65 18.5t77 61.5v328q0 10 10 10h74q5 0 8 -3t3 -7v-356q0 -69 6 -112v-2zM152 568l52 123
q3 8 12 8h73q5 0 6.5 -3.5t-1.5 -8.5l-65 -123q-4 -8 -12 -8h-58q-12 0 -7 12zM293 568l52 123q3 8 12 8h72q6 0 7.5 -3.5t-1.5 -8.5l-66 -123q-2 -5 -4.5 -6.5t-6.5 -1.5h-59q-11 0 -6 12z" />
    <glyph glyph-name="Uogonek" unicode="&#x172;" horiz-adv-x="646" 
d="M567 652q3 -3 3 -8v-418q0 -87 -39.5 -144.5t-112.5 -80.5q-27 -13 -42.5 -36t-15.5 -48v-9q0 -19 9.5 -27t30.5 -8q17 0 26 1h3q6 0 6 -7v-50q0 -9 -8 -10q-20 -4 -44 -4q-50 0 -75.5 22t-25.5 60v11q0 52 48 92h-7q-118 0 -182 62t-64 178v416q0 11 10 11h75
q10 0 10 -11v-418q0 -74 39 -114t112 -40t112 40t39 114v418q0 11 11 11h74q5 0 8 -3z" />
    <glyph glyph-name="uogonek" unicode="&#x173;" horiz-adv-x="543" 
d="M483 -126q6 0 6 -7v-50q0 -9 -8 -10q-20 -4 -44 -4q-50 0 -75.5 22t-25.5 60v11q0 30 17 57t48 47q-9 1 -10 10q-6 42 -7 66q-93 -88 -180 -88q-64 0 -98 42.5t-34 123.5v325q0 10 10 10h74q5 0 8 -3t3 -7v-316q0 -47 16.5 -69.5t51.5 -22.5q32 0 65 18.5t77 61.5v328
q0 10 10 10h74q5 0 8 -3t3 -7v-356q0 -69 6 -112v-2q0 -7 -7 -9q-27 -13 -42 -35.5t-15 -47.5v-9q0 -19 9.5 -27t30.5 -8q17 0 26 1h3z" />
    <glyph glyph-name="Wcircumflex" unicode="&#x174;" horiz-adv-x="855" 
d="M201 9l-181 634l-1 4q0 8 10 8h76q10 0 11 -9l110 -396q6 -20 13 -48.5t11 -45.5l13 -54h2q13 46 41 138l82 268l-36 125q-1 1 -1 4q0 7 10 7h77q9 0 11 -9l110 -402q15 -55 34 -131h1q24 104 36 147l106 397q2 9 11 9h78q13 0 10 -12l-175 -634q-1 -9 -12 -9h-102
q-10 0 -12 9l-65 226q-16 57 -37 134h-1l-40 -132l-68 -229q-3 -8 -12 -8h-98q-10 0 -12 9zM292 716q-6 0 -6 7v54q0 8 7 11l127 57q4 2 7 2q2 0 8 -2l127 -57q7 -3 7 -11v-54q0 -10 -12 -6l-130 47l-130 -47q-2 -1 -5 -1z" />
    <glyph glyph-name="wcircumflex" unicode="&#x175;" horiz-adv-x="724" 
d="M171 9l-146 469l-1 4q0 7 10 7h79q8 0 11 -9l75 -266l34 -129h3q21 68 28 88q3 12 11 36l50 158l-29 100l-1 4q0 8 10 8h70q10 0 12 -8l70 -262q6 -20 16 -62l15 -62h2l6 22q18 70 28 105l75 268q3 9 12 9h79q11 0 8 -11l-146 -469q-3 -9 -12 -9h-97q-8 0 -11 9l-30 96
q-24 90 -36 146h-3q-16 -67 -40 -143l-32 -99q-3 -9 -12 -9h-96q-9 0 -12 9zM235 549q-5 0 -5 7v55q0 9 7 13l117 67q2 2 7 2t8 -2l117 -67q7 -4 7 -13v-55q0 -12 -12 -5l-120 60l-119 -60q-6 -2 -7 -2z" />
    <glyph glyph-name="Ycircumflex" unicode="&#x176;" horiz-adv-x="544" 
d="M224 11v214l-214 417q-1 2 -1 6q0 7 8 7h87q9 0 12 -7l104 -215l52 -111h1l53 113l103 213q3 7 13 7h84q5 0 7.5 -3.5t-0.5 -9.5l-213 -417v-214q0 -5 -3 -8t-8 -3h-75q-10 0 -10 11zM137 716q-6 0 -6 7v54q0 8 7 11l127 57q4 2 7 2q2 0 8 -2l127 -57q7 -3 7 -11v-54
q0 -10 -12 -6l-130 47l-130 -47q-2 -1 -5 -1z" />
    <glyph glyph-name="ycircumflex" unicode="&#x177;" horiz-adv-x="502" 
d="M137 -181.5q-2 3.5 0 9.5l70 177l-184 472q-1 2 -1 5q0 7 8 7h81q8 0 11 -8l85 -231q20 -53 34 -101q4 -10 10 -30h2l20 60t16 47l9 24l84 231q3 8 13 8h77q5 0 7.5 -3.5t0.5 -8.5l-251 -654q-3 -8 -11 -8h-74q-5 0 -7 3.5zM123 549q-5 0 -5 7v55q0 9 7 13l117 67
q2 2 7 2t8 -2l117 -67q7 -4 7 -13v-55q0 -12 -12 -5l-120 60l-119 -60q-6 -2 -7 -2z" />
    <glyph glyph-name="Ydieresis" unicode="&#x178;" horiz-adv-x="544" 
d="M224 11v214l-214 417q-1 2 -1 6q0 7 8 7h87q9 0 12 -7l104 -215l52 -111h1l53 113l103 213q3 7 13 7h84q5 0 7.5 -3.5t-0.5 -9.5l-213 -417v-214q0 -5 -3 -8t-8 -3h-75q-10 0 -10 11zM143.5 724.5q-13.5 14.5 -13.5 39.5v11q0 25 13.5 39.5t41.5 14.5t42 -14.5t14 -39.5
v-11q0 -25 -14 -39.5t-42 -14.5t-41.5 14.5zM317.5 724.5q-13.5 14.5 -13.5 39.5v11q0 25 13.5 39.5t41.5 14.5t42 -14.5t14 -39.5v-11q0 -25 -14 -39.5t-42 -14.5t-41.5 14.5z" />
    <glyph glyph-name="Zacute" unicode="&#x179;" horiz-adv-x="548" 
d="M19 10v2q0 6 4 14l289 445q45 71 64 98v1q-38 -1 -114 -1h-200q-5 0 -8 3t-3 8v64q0 5 3 8t8 3h454q5 0 8 -3t3 -7v-2q0 -7 -5 -14l-285 -435l-16 -25l-55 -83v-1q43 1 129 1h198q10 0 10 -11v-64q0 -11 -10 -11h-464q-10 0 -10 10zM214 720l57 104q3 8 11 8h78
q6 0 7.5 -4t-2.5 -9l-74 -103q-4 -6 -11 -6h-61q-10 0 -5 10z" />
    <glyph glyph-name="zacute" unicode="&#x17a;" horiz-adv-x="467" 
d="M23 10v2q0 7 4 14l211 299l17 24l41 58v2q-37 -1 -111 -1h-128q-4 0 -7 3t-3 8v60q0 10 10 10h376q4 0 7 -2.5t3 -6.5v-3q0 -7 -5 -15l-204 -289q-42 -60 -65 -91v-1h102h149q11 0 11 -11v-59q0 -11 -11 -11h-386q-11 0 -11 10zM183.5 559q-1.5 3 0.5 8l67 123q3 7 12 7
h76q6 0 7.5 -3.5t-1.5 -7.5l-85 -123q-5 -7 -12 -7h-58q-5 0 -6.5 3z" />
    <glyph glyph-name="Zdotaccent" unicode="&#x17b;" horiz-adv-x="548" 
d="M19 10v2q0 6 4 14l289 445q45 71 64 98v1q-38 -1 -114 -1h-200q-5 0 -8 3t-3 8v64q0 5 3 8t8 3h454q5 0 8 -3t3 -7v-2q0 -7 -5 -14l-285 -435l-16 -25l-55 -83v-1q43 1 129 1h198q10 0 10 -11v-64q0 -11 -10 -11h-464q-10 0 -10 10zM226.5 739.5q-14.5 15.5 -14.5 42.5
v11q0 27 14.5 42.5t44.5 15.5t44.5 -15.5t14.5 -42.5v-11q0 -27 -14.5 -42.5t-44.5 -15.5t-44.5 15.5z" />
    <glyph glyph-name="zdotaccent" unicode="&#x17c;" horiz-adv-x="467" 
d="M23 10v2q0 7 4 14l211 299l17 24l41 58v2q-37 -1 -111 -1h-128q-4 0 -7 3t-3 8v60q0 10 10 10h376q4 0 7 -2.5t3 -6.5v-3q0 -7 -5 -15l-204 -289q-42 -60 -65 -91v-1h102h149q11 0 11 -11v-59q0 -11 -11 -11h-386q-11 0 -11 10zM200.5 583.5q-14.5 15.5 -14.5 42.5v11
q0 27 14.5 42.5t44.5 15.5t44.5 -15.5t14.5 -42.5v-11q0 -27 -14.5 -42.5t-44.5 -15.5t-44.5 15.5z" />
    <glyph glyph-name="Zcaron" unicode="&#x17d;" horiz-adv-x="548" 
d="M19 10v2q0 6 4 14l289 445q45 71 64 98v1q-38 -1 -114 -1h-200q-5 0 -8 3t-3 8v64q0 5 3 8t8 3h454q5 0 8 -3t3 -7v-2q0 -7 -5 -14l-285 -435l-16 -25l-55 -83v-1q43 1 129 1h198q10 0 10 -11v-64q0 -11 -10 -11h-464q-10 0 -10 10zM137 774q-7 3 -7 10v54q0 12 11 7
l130 -48l130 48q2 1 6 1q6 0 6 -8v-54q0 -7 -7 -10l-127 -57q-8 -3 -15 0z" />
    <glyph glyph-name="zcaron" unicode="&#x17e;" horiz-adv-x="467" 
d="M23 10v2q0 7 4 14l211 299l17 24l41 58v2q-37 -1 -111 -1h-128q-4 0 -7 3t-3 8v60q0 10 10 10h376q4 0 7 -2.5t3 -6.5v-3q0 -7 -5 -15l-204 -289q-42 -60 -65 -91v-1h102h149q11 0 11 -11v-59q0 -11 -11 -11h-386q-11 0 -11 10zM120 618q-7 4 -7 14v54q0 11 12 5l119 -60
l120 60q6 2 7 2q5 0 5 -7v-54q0 -10 -7 -14l-117 -67q-8 -5 -15 0z" />
    <glyph glyph-name="florin" unicode="&#x192;" horiz-adv-x="630" 
d="M220 -174v522h-82q-10 0 -10 10v60q0 10 10 10h82v83q0 75 43.5 115.5t114.5 40.5q65 0 114 -20q8 -3 8 -11v-62q0 -6 -3.5 -8t-8.5 0q-45 20 -92 20q-38 0 -59.5 -19t-21.5 -59v-80h143q5 0 8 -3t3 -7v-60q0 -4 -3 -7t-8 -3h-143v-522q0 -5 -3 -8t-8 -3h-74
q-10 0 -10 11z" />
    <glyph glyph-name="uni0218" unicode="&#x218;" horiz-adv-x="569" 
d="M101 38q-58 50 -52 139q1 17 13 17h72q12 0 12 -15q0 -56 34 -82t105 -26q137 0 137 96q0 36 -19 57t-68 41l-146 61q-69 28 -99 67.5t-30 98.5q0 86 55 130t162 44q105 0 166.5 -43t61.5 -121q0 -13 -1 -19q-2 -18 -11 -18h-73q-6 0 -8.5 4t-1.5 14q4 48 -32.5 74.5
t-102.5 26.5q-119 0 -120 -85q0 -34 19.5 -55.5t70.5 -43.5l145 -61q69 -29 98 -67t29 -100q0 -184 -239 -184q-119 0 -177 50zM256.5 -233.5q-1.5 2.5 -0.5 7.5l15 67q-29 10 -29 43v17q0 20 12.5 32t34.5 12q53 0 53 -44v-18q0 -26 -9 -51l-20 -62q-2 -6 -11 -6h-40
q-4 0 -5.5 2.5z" />
    <glyph glyph-name="uni0219" unicode="&#x219;" horiz-adv-x="466" 
d="M96.5 26.5q-45.5 38.5 -45.5 117.5q0 12 10 12h74q9 0 9 -9q0 -42 21.5 -61t68.5 -19q94 0 94 60q0 21 -13.5 36.5t-43.5 28.5l-114 47q-54 23 -77 52t-23 76q0 134 171 134q88 0 135.5 -36t47.5 -101q0 -10 -11 -10h-73q-10 0 -10 16q0 25 -22.5 39t-62.5 14
q-41 0 -60.5 -13.5t-19.5 -42.5q0 -21 10.5 -31.5t45.5 -25.5l114 -48q54 -22 77.5 -52t23.5 -78q0 -70 -48.5 -107t-140.5 -37t-137.5 38.5zM211.5 -234.5q-1.5 2.5 -0.5 7.5l15 67q-29 10 -29 43v17q0 20 12.5 32t34.5 12q53 0 53 -44v-18q0 -26 -9 -51l-20 -61
q-2 -7 -11 -7h-40q-4 0 -5.5 2.5z" />
    <glyph glyph-name="uni021A" unicode="&#x21a;" horiz-adv-x="538" 
d="M221 11v558h-178q-10 0 -10 11v64q0 11 10 11h452q10 0 10 -11v-64q0 -11 -10 -11h-178v-558q0 -11 -11 -11h-74q-11 0 -11 11zM233.5 -233.5q-1.5 2.5 -0.5 7.5l15 67q-29 10 -29 43v17q0 20 12.5 32t34.5 12q53 0 53 -44v-18q0 -26 -9 -51l-20 -62q-2 -6 -11 -6h-40
q-4 0 -5.5 2.5z" />
    <glyph glyph-name="uni021B" unicode="&#x21b;" horiz-adv-x="388" 
d="M138 26.5q-33 38.5 -33 122.5v259h-76q-4 0 -7.5 3.5t-3.5 7.5v60q0 4 3 7t8 3h78l12 120q2 11 12 11h58q10 0 10 -11l1 -120h145q11 0 11 -10v-60q0 -5 -3 -8t-8 -3h-145v-255q0 -46 16 -64.5t54 -18.5t74 16q2 1 6 1q7 0 7 -9v-61q0 -9 -9 -12q-41 -17 -98 -17
q-79 0 -112 38.5zM203.5 -234.5q-1.5 2.5 -0.5 7.5l15 67q-29 10 -29 43v17q0 20 12.5 32t34.5 12q53 0 53 -44v-18q0 -26 -9 -51l-20 -61q-2 -7 -11 -7h-40q-4 0 -5.5 2.5z" />
    <glyph glyph-name="uni0237" unicode="&#x237;" horiz-adv-x="239" 
d="M40 -192q-3 0 -8 5l-44 54q-3 4 -3 7q0 5 6 8q81 57 81 186v411q0 10 10 10h74q5 0 8 -3t3 -7v-416q0 -92 -29 -154t-92 -99q-4 -2 -6 -2z" />
    <glyph glyph-name="uni02BC" unicode="&#x2bc;" horiz-adv-x="160" 
d="M44.5 516.5q-1.5 2.5 -0.5 7.5l15 67q-29 10 -29 43v17q0 20 12.5 32t34.5 12q53 0 53 -44v-18q0 -25 -9 -51l-20 -62q-2 -6 -11 -6h-40q-4 0 -5.5 2.5z" />
    <glyph glyph-name="circumflex" unicode="&#x2c6;" horiz-adv-x="323" 
d="M35 549q-5 0 -5 7v55q0 9 7 13l117 67q2 2 7 2t8 -2l117 -67q7 -4 7 -13v-55q0 -12 -12 -5l-120 60l-119 -60q-6 -2 -7 -2z" />
    <glyph glyph-name="caron" unicode="&#x2c7;" horiz-adv-x="323" 
d="M37 618q-7 4 -7 14v54q0 11 12 5l119 -60l120 60q6 2 7 2q5 0 5 -7v-54q0 -10 -7 -14l-117 -67q-8 -5 -15 0z" />
    <glyph glyph-name="breve" unicode="&#x2d8;" horiz-adv-x="312" 
d="M81.5 572q-30.5 16 -47.5 34q-4 4 -4 12v58q0 6 3 8t9 -2q19 -19 48.5 -34.5t65.5 -15.5t65.5 15.5t48.5 34.5q4 3 7 3q5 0 5 -9v-58q0 -8 -4 -13q-23 -20 -50.5 -34.5t-71.5 -14.5t-74.5 16z" />
    <glyph glyph-name="dotaccent" unicode="&#x2d9;" horiz-adv-x="178" 
d="M44.5 583.5q-14.5 15.5 -14.5 42.5v11q0 27 14.5 42.5t44.5 15.5t44.5 -15.5t14.5 -42.5v-11q0 -27 -14.5 -42.5t-44.5 -15.5t-44.5 15.5z" />
    <glyph glyph-name="ring" unicode="&#x2da;" horiz-adv-x="288" 
d="M60.5 578q-30.5 26 -30.5 73t30.5 73t83.5 26t83.5 -25.5t30.5 -73.5q0 -47 -30.5 -73t-83.5 -26t-83.5 26zM193 651q0 45 -49 45t-49 -45t49 -45t49 45z" />
    <glyph glyph-name="ogonek" unicode="&#x2db;" horiz-adv-x="213" 
d="M55.5 -175q-25.5 22 -25.5 60v11q0 42 31.5 76.5t85.5 51.5l19 -12v-11q-27 -13 -42.5 -36t-15.5 -48v-9q0 -19 9.5 -27t30.5 -8q17 0 26 1h3q6 0 6 -7v-50q0 -9 -8 -10q-20 -4 -44 -4q-50 0 -75.5 22z" />
    <glyph glyph-name="tilde" unicode="&#x2dc;" horiz-adv-x="323" 
d="M158 580q-12 5 -24.5 8.5t-24.5 3.5q-25 0 -66 -19l-6 -2q-7 0 -7 8v51q0 9 6 13q34 26 75 26q18 0 31 -3.5t31 -11.5q24 -11 41 -11q25 0 66 19l6 2q7 0 7 -8v-50q0 -9 -6 -14q-34 -26 -75 -26q-22 0 -54 14z" />
    <glyph glyph-name="hungarumlaut" unicode="&#x2dd;" horiz-adv-x="346" 
d="M31 568l52 123q3 8 12 8h73q5 0 6.5 -3.5t-1.5 -8.5l-65 -123q-4 -8 -12 -8h-58q-12 0 -7 12zM172 568l52 123q3 8 12 8h72q6 0 7.5 -3.5t-1.5 -8.5l-66 -123q-2 -5 -4.5 -6.5t-6.5 -1.5h-59q-11 0 -6 12z" />
    <glyph glyph-name="gravecomb" unicode="&#x300;" 
d="M-107 563l-85 123l-2 5q0 6 7 6h76q5 0 8 -1.5t5 -5.5l67 -123q1 -2 1 -5q0 -6 -7 -6h-58q-9 0 -12 7z" />
    <glyph glyph-name="acutecomb" unicode="&#x301;" 
d="M-193.5 559q-1.5 3 0.5 8l67 123q3 7 12 7h76q6 0 7.5 -3.5t-1.5 -7.5l-85 -123q-5 -7 -12 -7h-58q-5 0 -6.5 3z" />
    <glyph glyph-name="uni0302" unicode="&#x302;" 
d="M-288 549q-5 0 -5 7v55q0 9 7 13l117 67q2 2 7 2t8 -2l117 -67q7 -4 7 -13v-55q0 -12 -12 -5l-120 60l-119 -60q-6 -2 -7 -2z" />
    <glyph glyph-name="tildecomb" unicode="&#x303;" 
d="M-165 580q-12 5 -24.5 8.5t-24.5 3.5q-25 0 -66 -19l-6 -2q-7 0 -7 8v51q0 9 6 13q34 26 75 26q18 0 31 -3.5t31 -11.5q24 -11 41 -11q25 0 66 19l6 2q7 0 7 -8v-50q0 -9 -6 -14q-34 -26 -75 -26q-22 0 -54 14z" />
    <glyph glyph-name="uni0304" unicode="&#x304;" 
d="M-250 581v56q0 10 11 10h199q10 0 10 -10v-56q0 -11 -10 -11h-199q-11 0 -11 11z" />
    <glyph glyph-name="uni0306" unicode="&#x306;" 
d="M-230.5 572q-30.5 16 -47.5 34q-4 4 -4 12v58q0 6 3 8t9 -2q19 -19 48.5 -34.5t65.5 -15.5t65.5 15.5t48.5 34.5q4 3 7 3q5 0 5 -9v-58q0 -8 -4 -13q-23 -20 -50.5 -34.5t-71.5 -14.5t-74.5 16z" />
    <glyph glyph-name="uni0307" unicode="&#x307;" 
d="M-133.5 583.5q-14.5 15.5 -14.5 42.5v11q0 27 14.5 42.5t44.5 15.5t44.5 -15.5t14.5 -42.5v-11q0 -27 -14.5 -42.5t-44.5 -15.5t-44.5 15.5z" />
    <glyph glyph-name="uni0308" unicode="&#x308;" 
d="M-301.5 582.5q-13.5 14.5 -13.5 39.5v11q0 25 13.5 39t41.5 14t42 -14t14 -39v-11q0 -25 -14 -39.5t-42 -14.5t-41.5 14.5zM-126.5 582.5q-13.5 14.5 -13.5 39.5v11q0 53 55 53t55 -53v-11q0 -25 -13.5 -39.5t-41.5 -14.5t-41.5 14.5z" />
    <glyph glyph-name="uni030A" unicode="&#x30a;" 
d="M-227.5 578q-30.5 26 -30.5 73t30.5 73t83.5 26t83.5 -25.5t30.5 -73.5q0 -47 -30.5 -73t-83.5 -26t-83.5 26zM-95 651q0 45 -49 45t-49 -45t49 -45t49 45z" />
    <glyph glyph-name="uni030B" unicode="&#x30b;" 
d="M-315 568l52 123q3 8 12 8h73q5 0 6.5 -3.5t-1.5 -8.5l-65 -123q-4 -8 -12 -8h-58q-12 0 -7 12zM-174 568l52 123q3 8 12 8h72q6 0 7.5 -3.5t-1.5 -8.5l-66 -123q-2 -5 -4.5 -6.5t-6.5 -1.5h-59q-11 0 -6 12z" />
    <glyph glyph-name="uni030C" unicode="&#x30c;" 
d="M-286 618q-7 4 -7 14v54q0 11 12 5l119 -60l120 60q6 2 7 2q5 0 5 -7v-54q0 -10 -7 -14l-117 -67q-8 -5 -15 0z" />
    <glyph glyph-name="uni0312" unicode="&#x312;" 
d="M-130 606v18q0 24 8 51l21 61q2 7 10 7h40q5 0 6.5 -2t0.5 -8l-16 -67q30 -10 30 -43v-17q0 -20 -13 -32t-35 -12q-52 0 -52 44z" />
    <glyph glyph-name="uni0313" unicode="&#x313;" 
d="M-116 556l15 68q-29 10 -29 43v17q0 20 12.5 32t34.5 12q53 0 53 -44v-19q0 -24 -9 -50l-20 -62q-2 -6 -11 -6h-40q-8 0 -6 9z" />
    <glyph glyph-name="uni0324" unicode="&#x324;" 
d="M-300.5 -159.5q-13.5 14.5 -13.5 39.5v11q0 25 13.5 39t41.5 14t42 -14t14 -39v-11q0 -25 -14 -39.5t-42 -14.5t-41.5 14.5zM-125.5 -159.5q-13.5 14.5 -13.5 39.5v11q0 53 55 53t55 -53v-11q0 -25 -13.5 -39.5t-41.5 -14.5t-41.5 14.5z" />
    <glyph glyph-name="uni0325" unicode="&#x325;" 
d="M-227.5 -200q-30.5 26 -30.5 73t30.5 73t83.5 26t83.5 -25.5t30.5 -73.5q0 -47 -30.5 -73t-83.5 -26t-83.5 26zM-95 -127q0 45 -49 45t-49 -45t49 -45t49 45z" />
    <glyph glyph-name="uni0326" unicode="&#x326;" 
d="M-115.5 -234.5q-1.5 2.5 -0.5 7.5l15 67q-29 10 -29 43v17q0 20 12.5 32t34.5 12q53 0 53 -44v-18q0 -26 -9 -51l-20 -61q-2 -7 -11 -7h-40q-4 0 -5.5 2.5z" />
    <glyph glyph-name="uni0327" unicode="&#x327;" 
d="M-173 -193q-5 1 -6.5 2.5t-1.5 6.5v39q0 8 5 8q8 0 16 -1t16 -1q40 0 40 23v13q0 14 -8 19.5t-25 5.5h-23q-5 0 -6 1t-1 6q0 14 2 20l23 76q1 4 3 5t7 1h52q8 0 5 -11l-19 -59h9q26 0 40.5 -17.5t14.5 -46.5v-16q0 -40 -24.5 -59t-74.5 -19q-24 0 -44 4z" />
    <glyph glyph-name="uni0328" unicode="&#x328;" 
d="M-157.5 -175q-25.5 22 -25.5 60v11q0 42 31.5 76.5t85.5 51.5l19 -12v-11q-27 -13 -42.5 -36t-15.5 -48v-9q0 -19 9.5 -27t30.5 -8q17 0 26 1h3q6 0 6 -7v-50q0 -9 -8 -10q-20 -4 -44 -4q-50 0 -75.5 22z" />
    <glyph glyph-name="uni0330" unicode="&#x330;" 
d="M-165 -179q-12 5 -24.5 8.5t-24.5 3.5q-25 0 -66 -19l-6 -2q-7 0 -7 8v51q0 9 6 13q34 26 75 26q18 0 31 -3.5t31 -11.5q24 -11 41 -11q25 0 66 19l6 2q7 0 7 -8v-50q0 -9 -6 -14q-34 -26 -75 -26q-22 0 -54 14z" />
    <glyph glyph-name="uni0331" unicode="&#x331;" 
d="M-250 -176v56q0 10 11 10h199q10 0 10 -10v-56q0 -11 -10 -11h-199q-11 0 -11 11z" />
    <glyph glyph-name="uni0335" unicode="&#x335;" 
d="M-382 232q-3 3 -3 8v51q0 11 10 11h334q11 0 11 -11v-51q0 -5 -3 -8t-8 -3h-334q-4 0 -7 3z" />
    <glyph glyph-name="uni0336" unicode="&#x336;" 
d="M-772 232q-3 3 -3 8v51q0 11 10 11h725q10 0 10 -11v-51q0 -5 -3 -8t-7 -3h-725q-4 0 -7 3z" />
    <glyph glyph-name="tonos" unicode="&#x384;" horiz-adv-x="186" 
d="M30 556l32 135q2 9 11 9h75q10 0 7 -12l-51 -134q-4 -8 -12 -8h-54q-10 0 -8 10z" />
    <glyph glyph-name="dieresistonos" unicode="&#x385;" horiz-adv-x="337" 
d="M130 730l25 122q2 9 10 9h75q11 0 8 -11l-43 -122q-4 -9 -12 -9h-54q-11 0 -9 11zM44 584.5q-14 14.5 -14 38.5v12q0 25 13.5 39t41.5 14t42 -14t14 -39v-12q0 -24 -14 -38.5t-42 -14.5q-27 0 -41 14.5zM210 584.5q-14 14.5 -14 38.5v12q0 25 14 39t42 14q55 0 55 -53
v-12q0 -25 -13.5 -39t-41.5 -14t-42 14.5z" />
    <glyph glyph-name="Alphatonos" unicode="&#x386;" horiz-adv-x="575" 
d="M576 8q0 -8 -10 -8h-81q-10 0 -13 8l-46 140h-275l-45 -139q-3 -9 -12 -9h-78q-12 0 -9 12l220 635q3 8 12 8h101q10 0 13 -8l222 -635zM400 230l-71 217l-41 123h-1q-18 -58 -28 -86q-4 -15 -11 -35l-71 -219h223zM39 521l23 126q1 8 10 8h76q9 0 6 -12l-40 -124
q-3 -8 -12 -8h-55q-10 0 -8 10z" />
    <glyph glyph-name="anoteleia" unicode="&#x387;" horiz-adv-x="242" 
d="M74 366.5q-15 16.5 -15 44.5v12q0 60 62 60t62 -60v-12q0 -28 -15 -44.5t-47 -16.5t-47 16.5z" />
    <glyph glyph-name="Epsilontonos" unicode="&#x388;" horiz-adv-x="618" 
d="M165 11v633q0 11 10 11h364q10 0 10 -11v-64q0 -11 -10 -11h-279v-195h255q4 0 7 -3t3 -8v-61q0 -5 -3 -8t-7 -3h-255v-205h279q10 0 10 -11v-64q0 -11 -10 -11h-364q-10 0 -10 11zM0 521l23 126q1 8 10 8h76q9 0 6 -12l-40 -124q-3 -8 -12 -8h-55q-10 0 -8 10z" />
    <glyph glyph-name="Etatonos" unicode="&#x389;" horiz-adv-x="746" 
d="M165 11v633q0 11 10 11h75q10 0 10 -11v-266h309v266q0 11 10 11h75q5 0 8 -3t3 -8v-633q0 -5 -3 -8t-8 -3h-75q-10 0 -10 11v284h-309v-284q0 -11 -10 -11h-75q-10 0 -10 11zM0 521l23 126q1 8 10 8h76q9 0 6 -12l-40 -124q-3 -8 -12 -8h-55q-10 0 -8 10z" />
    <glyph glyph-name="Iotatonos" unicode="&#x38a;" horiz-adv-x="342" 
d="M165 11v633q0 11 10 11h75q10 0 10 -11v-633q0 -11 -10 -11h-75q-10 0 -10 11zM0 521l23 126q1 8 10 8h76q9 0 6 -12l-40 -124q-3 -8 -12 -8h-55q-10 0 -8 10z" />
    <glyph glyph-name="Omicrontonos" unicode="&#x38c;" horiz-adv-x="686" 
d="M175.5 49.5q-63.5 61.5 -63.5 176.5v203q0 115 63.5 176.5t188.5 61.5q126 0 189.5 -61.5t63.5 -176.5v-203q0 -115 -63.5 -176.5t-189.5 -61.5q-125 0 -188.5 61.5zM481.5 112q40.5 40 40.5 117v197q0 77 -40.5 117t-117.5 40t-117 -40t-40 -117v-197q0 -77 40 -117
t117 -40t117.5 40zM0 521l23 126q1 8 10 8h76q9 0 6 -12l-40 -124q-3 -8 -12 -8h-55q-10 0 -8 10z" />
    <glyph glyph-name="Upsilontonos" unicode="&#x38e;" horiz-adv-x="682" 
d="M362 11v214l-214 417q-1 2 -1 6q0 7 8 7h87q9 0 12 -7l104 -215l52 -111h1l53 113l103 213q3 7 13 7h84q5 0 7.5 -3.5t-0.5 -9.5l-213 -417v-214q0 -5 -3 -8t-8 -3h-75q-10 0 -10 11zM0 521l23 126q1 8 10 8h76q9 0 6 -12l-40 -124q-3 -8 -12 -8h-55q-10 0 -8 10z" />
    <glyph glyph-name="Omegatonos" unicode="&#x38f;" horiz-adv-x="687" 
d="M101 11v67q0 5 3 8t7 3h80v2q-44 27 -61.5 62.5t-17.5 95.5v180q0 115 63.5 176.5t188.5 61.5q126 0 189.5 -61.5t63.5 -176.5v-180q0 -60 -17.5 -95.5t-61.5 -62.5v-2h80q4 0 7 -3t3 -8v-67q0 -11 -10 -11h-210q-11 0 -11 11v64q0 11 10 11q53 0 84 37.5t31 101.5v202
q0 77 -40.5 116.5t-117.5 39.5t-117 -39.5t-40 -116.5v-202q0 -64 31 -101.5t83 -37.5q11 0 11 -11v-64q0 -11 -11 -11h-210q-10 0 -10 11zM0 521l23 126q1 8 10 8h76q9 0 6 -12l-40 -124q-3 -8 -12 -8h-55q-10 0 -8 10z" />
    <glyph glyph-name="iotadieresistonos" unicode="&#x390;" horiz-adv-x="330" 
d="M108.5 20.5q-36.5 32.5 -36.5 107.5v351q0 10 10 10h74q5 0 8 -3t3 -7v-352q0 -32 15.5 -45.5t52.5 -13.5q22 0 64 8h2q10 0 10 -10v-58q0 -7 -9 -10q-29 -10 -75 -10q-82 0 -118.5 32.5zM81 730l25 122q2 9 10 9h75q11 0 8 -11l-43 -122q-4 -9 -12 -9h-54q-11 0 -9 11z
M-5 584.5q-14 14.5 -14 38.5v12q0 25 13.5 39t41.5 14t42 -14t14 -39v-12q0 -24 -14 -38.5t-42 -14.5q-27 0 -41 14.5zM161 584.5q-14 14.5 -14 38.5v12q0 25 14 39t42 14q55 0 55 -53v-12q0 -25 -13.5 -39t-41.5 -14t-42 14.5z" />
    <glyph glyph-name="Alpha" unicode="&#x391;" horiz-adv-x="568" 
d="M569 8q0 -8 -10 -8h-81q-10 0 -13 8l-46 140h-275l-45 -139q-3 -9 -12 -9h-78q-12 0 -9 12l220 635q3 8 12 8h101q10 0 13 -8l222 -635zM393 230l-71 217l-41 123h-1q-18 -58 -28 -86q-4 -15 -11 -35l-71 -219h223z" />
    <glyph glyph-name="Beta" unicode="&#x392;" horiz-adv-x="578" 
d="M82 11v633q0 11 10 11h184q230 0 230 -163q0 -55 -26 -89t-84 -55v-2q138 -25 138 -164q0 -94 -62 -138t-195 -44h-185q-10 0 -10 11zM273 376q71 0 104.5 24.5t33.5 76.5t-33.5 74.5t-113.5 22.5h-87v-198h96zM277 82q87 0 124.5 24.5t37.5 81.5q0 59 -38 86t-121 27
h-103v-219h100z" />
    <glyph glyph-name="Gamma" unicode="&#x393;" horiz-adv-x="476" 
d="M82 11v633q0 11 10 11h345q10 0 10 -11v-64q0 -11 -10 -11h-260v-558q0 -11 -10 -11h-75q-10 0 -10 11z" />
    <glyph glyph-name="uni0394" unicode="&#x394;" horiz-adv-x="559" 
d="M14 11v46q0 5 2 13l200 577q3 8 12 8h102q9 0 12 -8l201 -575q2 -8 2 -13v-48q0 -11 -10 -11h-510q-11 0 -11 11zM438 85l-127 384q-20 56 -33 101h-2l-23 -74q-4 -9 -10 -29l-124 -382h319z" />
    <glyph glyph-name="Epsilon" unicode="&#x395;" horiz-adv-x="535" 
d="M82 11v633q0 11 10 11h364q10 0 10 -11v-64q0 -11 -10 -11h-279v-195h255q4 0 7 -3t3 -8v-61q0 -5 -3 -8t-7 -3h-255v-205h279q10 0 10 -11v-64q0 -11 -10 -11h-364q-10 0 -10 11z" />
    <glyph glyph-name="Zeta" unicode="&#x396;" horiz-adv-x="548" 
d="M19 10v2q0 6 4 14l289 445q45 71 64 98v1q-38 -1 -114 -1h-200q-5 0 -8 3t-3 8v64q0 5 3 8t8 3h454q5 0 8 -3t3 -7v-2q0 -7 -5 -14l-285 -435l-16 -25l-55 -83v-1q43 1 129 1h198q10 0 10 -11v-64q0 -11 -10 -11h-464q-10 0 -10 10z" />
    <glyph glyph-name="Eta" unicode="&#x397;" horiz-adv-x="663" 
d="M82 11v633q0 11 10 11h75q10 0 10 -11v-266h309v266q0 11 10 11h75q5 0 8 -3t3 -8v-633q0 -5 -3 -8t-8 -3h-75q-10 0 -10 11v284h-309v-284q0 -11 -10 -11h-75q-10 0 -10 11z" />
    <glyph glyph-name="Theta" unicode="&#x398;" horiz-adv-x="645" 
d="M133.5 49.5q-63.5 61.5 -63.5 176.5v203q0 115 63.5 176.5t188.5 61.5q126 0 189.5 -61.5t63.5 -176.5v-203q0 -115 -63.5 -176.5t-189.5 -61.5q-125 0 -188.5 61.5zM439.5 112q40.5 40 40.5 117v197q0 77 -40.5 117t-117.5 40t-117 -40t-40 -117v-197q0 -77 40 -117
t117 -40t117.5 40zM233 302v61q0 10 10 10h159q10 0 10 -10v-61q0 -10 -10 -10h-159q-10 0 -10 10z" />
    <glyph glyph-name="Iota" unicode="&#x399;" horiz-adv-x="259" 
d="M82 11v633q0 11 10 11h75q10 0 10 -11v-633q0 -11 -10 -11h-75q-10 0 -10 11z" />
    <glyph glyph-name="Kappa" unicode="&#x39a;" horiz-adv-x="585" 
d="M82 11v633q0 11 10 11h75q10 0 10 -11v-633q0 -11 -10 -11h-75q-10 0 -10 11zM464 6l-272 317q-7 8 0 15l263 311q5 6 14 6h88q7 0 9 -3.5t-2 -9.5l-263 -305l281 -324q3 -4 3 -7q0 -6 -10 -6h-98q-8 0 -13 6z" />
    <glyph glyph-name="Lambda" unicode="&#x39b;" horiz-adv-x="562" 
d="M0 12l217 635q3 8 12 8h101q10 0 13 -8l219 -635l1 -4q0 -8 -10 -8h-81q-10 0 -13 8l-141 439l-40 123h-1l-10 -33l-27 -89l-141 -439q-3 -9 -12 -9h-78q-12 0 -9 12z" />
    <glyph glyph-name="Mu" unicode="&#x39c;" horiz-adv-x="774" 
d="M67 11l14 633q0 11 10 11h113q8 0 12 -8l172 -385l170 385q4 8 12 8h113q10 0 10 -11l14 -633q0 -11 -10 -11h-73q-10 0 -10 11l-10 378q-1 62 4 150h-3q-28 -71 -65 -149l-140 -302q-4 -8 -12 -8h-3q-8 0 -11 8l-143 306q-21 43 -61 145h-3q3 -54 3 -111v-36l-10 -381
q0 -11 -10 -11h-73q-10 0 -10 11z" />
    <glyph glyph-name="Nu" unicode="&#x39d;" horiz-adv-x="664" 
d="M82 11v633q0 11 10 11h124q9 0 12 -7l180 -365q54 -109 81 -174h2q-2 108 -2 178v357q0 11 10 11h73q5 0 8 -3t3 -8v-633q0 -5 -3 -8t-8 -3h-121q-9 0 -13 7l-176 355q-47 96 -86 184h-2v-25q2 -114 2 -167v-343q0 -5 -3 -8t-8 -3h-73q-10 0 -10 11z" />
    <glyph glyph-name="Xi" unicode="&#x39e;" horiz-adv-x="567" 
d="M58 575v69q0 11 10 11h431q10 0 10 -11v-69q0 -10 -10 -10h-431q-10 0 -10 10zM136 298v69q0 11 10 11h274q10 0 10 -11v-69q0 -10 -10 -10h-274q-10 0 -10 10zM58 11v69q0 10 10 10h431q10 0 10 -10v-69q0 -11 -10 -11h-431q-10 0 -10 11z" />
    <glyph glyph-name="Omicron" unicode="&#x39f;" horiz-adv-x="645" 
d="M133.5 49.5q-63.5 61.5 -63.5 176.5v203q0 115 63.5 176.5t188.5 61.5q126 0 189.5 -61.5t63.5 -176.5v-203q0 -115 -63.5 -176.5t-189.5 -61.5q-125 0 -188.5 61.5zM439.5 112q40.5 40 40.5 117v197q0 77 -40.5 117t-117.5 40t-117 -40t-40 -117v-197q0 -77 40 -117
t117 -40t117.5 40z" />
    <glyph glyph-name="Pi" unicode="&#x3a0;" horiz-adv-x="662" 
d="M82 11v633q0 11 10 11h478q10 0 10 -11v-633q0 -11 -10 -11h-75q-10 0 -10 11v558h-308v-558q0 -11 -10 -11h-75q-10 0 -10 11z" />
    <glyph glyph-name="Rho" unicode="&#x3a1;" horiz-adv-x="549" 
d="M82 11v633q0 11 10 11h173q123 0 184.5 -52.5t61.5 -154.5q0 -101 -62.5 -153.5t-183.5 -52.5h-88v-231q0 -11 -10 -11h-75q-10 0 -10 11zM263 323q79 0 115.5 29.5t36.5 92.5q0 67 -37 98t-117 31h-84v-251h86z" />
    <glyph glyph-name="Sigma" unicode="&#x3a3;" horiz-adv-x="527" 
d="M39 11v56q0 6 5 13l211 250l-211 245q-5 7 -5 13v56q0 11 10 11h433q5 0 8 -3t3 -8v-64q0 -5 -3 -8t-8 -3h-221l-52 1q-18 1 -52 1v-2q27 -27 77 -85l107 -124q5 -7 5 -13v-34q0 -5 -5 -13l-103 -119l-85 -95v-2q76 2 116 2h213q5 0 8 -3t3 -8v-64q0 -5 -3 -8t-8 -3h-433
q-10 0 -10 11z" />
    <glyph glyph-name="Tau" unicode="&#x3a4;" horiz-adv-x="538" 
d="M221 11v558h-178q-10 0 -10 11v64q0 11 10 11h452q10 0 10 -11v-64q0 -11 -10 -11h-178v-558q0 -11 -11 -11h-74q-11 0 -11 11z" />
    <glyph glyph-name="Upsilon" unicode="&#x3a5;" horiz-adv-x="544" 
d="M224 11v214l-214 417q-1 2 -1 6q0 7 8 7h87q9 0 12 -7l104 -215l52 -111h1l53 113l103 213q3 7 13 7h84q5 0 7.5 -3.5t-0.5 -9.5l-213 -417v-214q0 -5 -3 -8t-8 -3h-75q-10 0 -10 11z" />
    <glyph glyph-name="Phi" unicode="&#x3a6;" horiz-adv-x="812" 
d="M682.5 565q59.5 -53 59.5 -178v-89q0 -125 -59.5 -178t-187.5 -53h-41v-71q0 -10 -10 -10h-75q-10 0 -10 10v71h-42q-131 0 -189 54.5t-58 176.5v89q0 121 58 176t189 55h42v70q0 5 3 8t7 3h75q4 0 7 -3t3 -8v-70h41q128 0 187.5 -53zM200 179q36 -32 117 -32h44v391h-44
q-81 0 -117 -32t-36 -112v-103q0 -80 36 -112zM648 394q0 80 -36.5 112t-116.5 32h-43v-391h43q80 0 116.5 31.5t36.5 112.5v103z" />
    <glyph glyph-name="Chi" unicode="&#x3a7;" horiz-adv-x="559" 
d="M5 3.5q-2 3.5 2 9.5l213 325l-200 304q-2 6 -2 7q0 6 9 6h91q7 0 11 -6l107 -165l46 -76h1q20 35 49 80l103 161q5 6 12 6h87q14 0 6 -13l-198 -306l210 -323q2 -3 2 -7q0 -6 -8 -6h-91q-7 0 -13 6l-112 175q-14 22 -16 25l-35 58h-1l-50 -81l-113 -176q-5 -7 -12 -7h-90
q-6 0 -8 3.5z" />
    <glyph glyph-name="Psi" unicode="&#x3a8;" horiz-adv-x="795" 
d="M723 644v-292q0 -187 -194 -187h-84v-154q0 -11 -11 -11h-72q-11 0 -11 11v154h-85q-194 0 -194 187v292q0 11 10 11h75q10 0 10 -11v-298q0 -48 26.5 -72.5t74.5 -24.5h83v395q0 11 11 11h72q11 0 11 -11v-395h82q48 0 74.5 24.5t26.5 72.5v298q0 11 10 11h75
q10 0 10 -11z" />
    <glyph glyph-name="uni03A9" unicode="&#x3a9;" horiz-adv-x="645" 
d="M59 11v67q0 5 3 8t7 3h80v2q-44 27 -61.5 62.5t-17.5 95.5v180q0 115 63.5 176.5t188.5 61.5q126 0 189.5 -61.5t63.5 -176.5v-180q0 -60 -17.5 -95.5t-61.5 -62.5v-2h80q4 0 7 -3t3 -8v-67q0 -11 -10 -11h-210q-11 0 -11 11v64q0 11 10 11q53 0 84 37.5t31 101.5v202
q0 77 -40.5 116.5t-117.5 39.5t-117 -39.5t-40 -116.5v-202q0 -64 31 -101.5t83 -37.5q11 0 11 -11v-64q0 -11 -11 -11h-210q-10 0 -10 11z" />
    <glyph glyph-name="Iotadieresis" unicode="&#x3aa;" horiz-adv-x="259" 
d="M82 11v633q0 11 10 11h75q10 0 10 -11v-633q0 -11 -10 -11h-75q-10 0 -10 11zM1.5 724.5q-13.5 14.5 -13.5 39.5v11q0 25 13.5 39.5t41.5 14.5t42 -14.5t14 -39.5v-11q0 -25 -14 -39.5t-42 -14.5t-41.5 14.5zM175.5 724.5q-13.5 14.5 -13.5 39.5v11q0 25 13.5 39.5
t41.5 14.5t42 -14.5t14 -39.5v-11q0 -25 -14 -39.5t-42 -14.5t-41.5 14.5z" />
    <glyph glyph-name="Upsilondieresis" unicode="&#x3ab;" horiz-adv-x="544" 
d="M224 11v214l-214 417q-1 2 -1 6q0 7 8 7h87q9 0 12 -7l104 -215l52 -111h1l53 113l103 213q3 7 13 7h84q5 0 7.5 -3.5t-0.5 -9.5l-213 -417v-214q0 -5 -3 -8t-8 -3h-75q-10 0 -10 11zM143.5 724.5q-13.5 14.5 -13.5 39.5v11q0 25 13.5 39.5t41.5 14.5t42 -14.5t14 -39.5
v-11q0 -25 -14 -39.5t-42 -14.5t-41.5 14.5zM317.5 724.5q-13.5 14.5 -13.5 39.5v11q0 25 13.5 39.5t41.5 14.5t42 -14.5t14 -39.5v-11q0 -25 -14 -39.5t-42 -14.5t-41.5 14.5z" />
    <glyph glyph-name="alphatonos" unicode="&#x3ac;" horiz-adv-x="552" 
d="M539 71q9 0 9 -10v-58q0 -9 -10 -10q-23 -5 -49 -5q-52 0 -79.5 21t-29.5 66q-46 -45 -87.5 -66t-89.5 -21q-71 0 -107.5 46.5t-36.5 136.5v128q0 96 47 149t132 53q37 0 76 -14t66 -34v26q0 10 10 10h68q5 0 8 -3t3 -7v-357q0 -33 7.5 -43t30.5 -10q7 0 14.5 1t15.5 1h2
zM231 71q33 0 64.5 18t78.5 62v229q-69 38 -116 38q-53 0 -78.5 -32t-25.5 -97v-117q0 -101 77 -101zM212 556l32 135q2 9 11 9h75q10 0 7 -12l-51 -134q-4 -8 -12 -8h-54q-10 0 -8 10z" />
    <glyph glyph-name="epsilontonos" unicode="&#x3ad;" horiz-adv-x="494" 
d="M104.5 23.5q-51.5 35.5 -51.5 101.5q0 48 22.5 80t71.5 41v3q-38 12 -60.5 44t-22.5 75q0 67 45.5 100t139.5 33q90 0 141.5 -34t51.5 -90q0 -26 -14 -26h-72q-6 0 -8 3.5t-2 11.5q0 27 -24.5 41.5t-72.5 14.5q-45 0 -70 -17t-25 -50q0 -37 28 -54.5t88 -17.5h58
q10 0 10 -10v-50q0 -11 -10 -11h-77q-57 0 -80.5 -20t-23.5 -63q0 -30 27 -46t79 -16q101 0 101 56q0 15 9 15h73q7 0 10 -7t3 -24q0 -56 -52 -87.5t-148 -31.5q-93 0 -144.5 35.5zM199 556l32 135q2 9 11 9h75q10 0 7 -12l-51 -134q-4 -8 -12 -8h-54q-10 0 -8 10z" />
    <glyph glyph-name="etatonos" unicode="&#x3ae;" horiz-adv-x="575" 
d="M465.5 459q37.5 -42 37.5 -124v-509q0 -11 -10 -11h-74q-5 0 -8 3t-3 8v500q0 47 -19 69.5t-59 22.5q-34 0 -67 -18t-77 -60v-329q0 -5 -3 -8t-8 -3h-74q-10 0 -10 11v363q0 29 -7.5 38t-27.5 9q-7 0 -14.5 -1t-15.5 -1q-12 0 -12 10v57q0 8 11 11q25 4 58 4
q46 0 71.5 -22.5t25.5 -62.5v-1q45 45 86.5 65.5t89.5 20.5q72 0 109.5 -42zM240 556l32 135q2 9 11 9h75q10 0 7 -12l-51 -134q-4 -8 -12 -8h-54q-10 0 -8 10z" />
    <glyph glyph-name="iotatonos" unicode="&#x3af;" horiz-adv-x="330" 
d="M108.5 20.5q-36.5 32.5 -36.5 107.5v351q0 10 10 10h74q5 0 8 -3t3 -7v-352q0 -32 15.5 -45.5t52.5 -13.5q22 0 64 8h2q10 0 10 -10v-58q0 -7 -9 -10q-29 -10 -75 -10q-82 0 -118.5 32.5zM74 556l32 135q2 9 11 9h75q10 0 7 -12l-51 -134q-4 -8 -12 -8h-54q-10 0 -8 10z
" />
    <glyph glyph-name="upsilondieresistonos" unicode="&#x3b0;" horiz-adv-x="556" 
d="M139.5 34.5q-48.5 46.5 -48.5 137.5v202q0 29 -7.5 38t-27.5 9q-7 0 -14.5 -1t-15.5 -1q-12 0 -12 10v57q0 8 11 11q25 4 59 4q49 0 75.5 -24.5t26.5 -72.5v-240q0 -45 28 -69t77 -24q48 0 75 26t27 77v64q0 110 -18 240v2q0 9 10 9h74q10 0 11 -9q18 -106 18 -220v-77
q0 -97 -48.5 -146t-148.5 -49q-103 0 -151.5 46.5zM233 730l25 122q2 9 10 9h75q11 0 8 -11l-43 -122q-4 -9 -12 -9h-54q-11 0 -9 11zM147 584.5q-14 14.5 -14 38.5v12q0 25 13.5 39t41.5 14t42 -14t14 -39v-12q0 -24 -14 -38.5t-42 -14.5q-27 0 -41 14.5zM313 584.5
q-14 14.5 -14 38.5v12q0 25 14 39t42 14q55 0 55 -53v-12q0 -25 -13.5 -39t-41.5 -14t-42 14.5z" />
    <glyph glyph-name="alpha" unicode="&#x3b1;" horiz-adv-x="552" 
d="M539 71q9 0 9 -10v-58q0 -9 -10 -10q-23 -5 -49 -5q-52 0 -79.5 21t-29.5 66q-46 -45 -87.5 -66t-89.5 -21q-71 0 -107.5 46.5t-36.5 136.5v128q0 96 47 149t132 53q37 0 76 -14t66 -34v26q0 10 10 10h68q5 0 8 -3t3 -7v-357q0 -33 7.5 -43t30.5 -10q7 0 14.5 1t15.5 1h2
zM231 71q33 0 64.5 18t78.5 62v229q-69 38 -116 38q-53 0 -78.5 -32t-25.5 -97v-117q0 -101 77 -101z" />
    <glyph glyph-name="beta" unicode="&#x3b2;" horiz-adv-x="546" 
d="M489 245v-84q0 -85 -45 -129t-134 -44q-37 0 -74.5 9.5t-69.5 24.5v-196q0 -11 -10 -11h-74q-10 0 -10 11v688q0 181 196 181q180 0 180 -147v-30q0 -48 -17.5 -77t-49.5 -47v-2q108 -25 108 -147zM395 236q0 55 -20 78.5t-62 23.5h-69q-5 0 -8 3t-3 8v52q0 4 2.5 7
t6.5 3h8q45 0 66.5 7.5t29.5 27.5t8 61v18q0 46 -22 67.5t-67 21.5q-49 0 -74 -24t-25 -71v-417q27 -15 60 -23.5t64 -8.5q105 0 105 102v64z" />
    <glyph glyph-name="gamma" unicode="&#x3b3;" horiz-adv-x="510" 
d="M216 -174v131q-9 80 -38.5 189t-64.5 201q-18 47 -33 61.5t-39 14.5q-12 0 -34 -2h-2q-9 0 -9 9v55q0 9 8 11q25 5 50 5q43 0 70 -11.5t47.5 -43.5t36.5 -94l28 -102q19 -68 32 -143h2q20 61 39 113l14 39l84 222q3 8 12 8h81q5 0 7.5 -3.5t0.5 -8.5l-197 -480v-171
q0 -11 -10 -11h-74q-11 0 -11 11z" />
    <glyph glyph-name="delta" unicode="&#x3b4;" horiz-adv-x="539" 
d="M454 360q26 -47 26 -117v-55q0 -100 -53.5 -150t-157.5 -50q-103 0 -156.5 50t-53.5 150v63q0 77 42 124.5t142 79.5l-80 65q-32 25 -44.5 46.5t-12.5 46.5q0 32 28 51t85 19h227q5 0 8 -3t3 -8v-56q0 -4 -3 -7t-8 -3h-216q-23 0 -23 -12q0 -6 5.5 -11.5t14.5 -13
t14 -11.5l121 -97q66 -54 92 -101zM384 250q0 55 -17 86t-68 74q-64 -26 -94.5 -49.5t-40.5 -50t-10 -71.5v-42q0 -64 27.5 -95t87.5 -31t87.5 31t27.5 95v53z" />
    <glyph glyph-name="epsilon" unicode="&#x3b5;" horiz-adv-x="494" 
d="M104.5 23.5q-51.5 35.5 -51.5 101.5q0 48 22.5 80t71.5 41v3q-38 12 -60.5 44t-22.5 75q0 67 45.5 100t139.5 33q90 0 141.5 -34t51.5 -90q0 -26 -14 -26h-72q-6 0 -8 3.5t-2 11.5q0 27 -24.5 41.5t-72.5 14.5q-45 0 -70 -17t-25 -50q0 -37 28 -54.5t88 -17.5h58
q10 0 10 -10v-50q0 -11 -10 -11h-77q-57 0 -80.5 -20t-23.5 -63q0 -30 27 -46t79 -16q101 0 101 56q0 15 9 15h73q7 0 10 -7t3 -24q0 -56 -52 -87.5t-148 -31.5q-93 0 -144.5 35.5z" />
    <glyph glyph-name="zeta" unicode="&#x3b6;" horiz-adv-x="439" 
d="M336 -127q-3 3 -3 7v81q0 23 -11 31t-46 8h-26q-207 0 -207 184q0 75 39.5 155t115.5 157l108 110h-246q-10 0 -10 10v56q0 11 10 11h348q11 0 11 -11v-48q0 -5 -5 -12l-119 -129q-157 -167 -157 -307q0 -51 32 -74t101 -23q68 -1 99.5 -7.5t43 -25t11.5 -59.5v-107
q0 -10 -11 -10h-70q-5 0 -8 3z" />
    <glyph glyph-name="eta" unicode="&#x3b7;" horiz-adv-x="575" 
d="M465.5 459q37.5 -42 37.5 -124v-509q0 -11 -10 -11h-74q-5 0 -8 3t-3 8v500q0 47 -19 69.5t-59 22.5q-34 0 -67 -18t-77 -60v-329q0 -5 -3 -8t-8 -3h-74q-10 0 -10 11v363q0 29 -7.5 38t-27.5 9q-7 0 -14.5 -1t-15.5 -1q-12 0 -12 10v57q0 8 11 11q25 4 58 4
q46 0 71.5 -22.5t25.5 -62.5v-1q45 45 86.5 65.5t89.5 20.5q72 0 109.5 -42z" />
    <glyph glyph-name="theta" unicode="&#x3b8;" horiz-adv-x="567" 
d="M442.5 646.5q53.5 -48.5 53.5 -137.5v-335q0 -89 -53.5 -137.5t-158.5 -48.5q-106 0 -159 48t-53 138v335q0 90 53 138t159 48q105 0 158.5 -48.5zM196.5 586q-30.5 -26 -30.5 -76v-116h235v117q0 50 -30.5 75.5t-86.5 25.5q-57 0 -87.5 -26zM370.5 97q30.5 26 30.5 76
v144h-235v-144q0 -50 31 -76t87 -26t86.5 26z" />
    <glyph glyph-name="iota" unicode="&#x3b9;" horiz-adv-x="330" 
d="M108.5 20.5q-36.5 32.5 -36.5 107.5v351q0 10 10 10h74q5 0 8 -3t3 -7v-352q0 -32 15.5 -45.5t52.5 -13.5q22 0 64 8h2q10 0 10 -10v-58q0 -7 -9 -10q-29 -10 -75 -10q-82 0 -118.5 32.5z" />
    <glyph glyph-name="kappa" unicode="&#x3ba;" horiz-adv-x="490" 
d="M72 11v468q0 10 10 10h74q5 0 8 -3t3 -7v-468q0 -5 -3 -8t-8 -3h-74q-10 0 -10 11zM370 5l-184 237q-3 5 -3 8q0 5 3 8l175 226q4 5 12 5h92q6 0 7.5 -3.5t-2.5 -8.5l-179 -222l196 -242q3 -4 3 -7q0 -6 -10 -6h-98q-7 0 -12 5z" />
    <glyph glyph-name="lambda" unicode="&#x3bb;" horiz-adv-x="519" 
d="M403 0q-25 12 -42.5 41t-34.5 85l-30 93q-26 82 -48 168h-2q-17 -51 -55 -149l-9 -23l-79 -206q-3 -9 -11 -9h-79q-5 0 -7.5 3.5t-0.5 9.5l181 448q3 8 12 8h18l-30 90q-11 33 -26.5 44t-40.5 11q-26 0 -40 -3h-2q-10 0 -10 10v58q0 9 10 11q21 5 57 5q58 0 92.5 -27.5
t56.5 -98.5l138 -442q11 -34 24 -46t34 -12q12 0 32 3h2q9 0 9 -10l1 -58q0 -10 -10 -11q-23 -5 -44 -5q-41 0 -66 12z" />
    <glyph glyph-name="uni03BC" unicode="&#x3bc;" horiz-adv-x="555" 
d="M72 -174v653q0 10 10 10h74q5 0 8 -3t3 -7v-306q0 -51 18.5 -76t53.5 -25t73.5 22t64.5 58v327q0 10 10 10h74q5 0 8 -3t3 -7v-357q0 -33 7.5 -43t30.5 -10q7 0 14.5 1t15.5 1h2q9 0 9 -10v-58q0 -9 -10 -10q-23 -5 -48 -5q-105 0 -106 85v1q-31 -38 -74.5 -61.5
t-80.5 -23.5q-42 0 -70 23v-186q0 -11 -10 -11h-70q-10 0 -10 11z" />
    <glyph glyph-name="nu" unicode="&#x3bd;" horiz-adv-x="511" 
d="M200 8l-176 469l-1 4q0 8 10 8h79q9 0 12 -8l95 -271q26 -75 40 -122h1q17 39 53 115l49 105q17 37 25 64.5t8 61.5v45q0 10 10 10h75q11 0 11 -10v-41q0 -40 -11.5 -80t-35.5 -89l-126 -261q-3 -8 -12 -8h-95q-8 0 -11 8z" />
    <glyph glyph-name="xi" unicode="&#x3be;" horiz-adv-x="452" 
d="M350 -127q-3 3 -3 7v81q0 23 -9.5 31t-36.5 8h-20q-118 0 -172.5 41t-54.5 123v37q0 68 28 105t85 51v2q-81 29 -81 112v9q0 48 25.5 79t86.5 48v2q-33 -5 -85 -5h-56q-10 0 -10 10v58q0 11 10 11h353q10 0 10 -11v-59q0 -10 -8 -10h-20q-78 0 -124 -11.5t-67.5 -38.5
t-21.5 -73v-11q0 -40 27 -58t84 -18h52q4 0 7 -3t3 -8v-53q0 -10 -10 -10h-71q-65 0 -94.5 -23t-29.5 -80v-43q0 -51 34 -71.5t109 -20.5q64 0 94.5 -7t42 -25.5t11.5 -58.5v-110q0 -10 -11 -10h-69q-5 0 -8 3z" />
    <glyph glyph-name="omicron" unicode="&#x3bf;" horiz-adv-x="538" 
d="M112.5 38q-53.5 50 -53.5 150v113q0 200 210 200q103 0 157 -50t54 -150v-113q0 -100 -53.5 -150t-157.5 -50q-103 0 -156.5 50zM357 102q28 31 28 95v96q0 64 -28 94.5t-88 30.5t-87.5 -30.5t-27.5 -94.5v-96q0 -64 27.5 -95t87.5 -31t88 31z" />
    <glyph glyph-name="pi" unicode="&#x3c0;" horiz-adv-x="596" 
d="M418.5 21q-31.5 33 -31.5 110v277h-194v-397q0 -11 -10 -11h-74q-11 0 -11 11v397h-69q-4 0 -7.5 3.5t-3.5 7.5v60q0 4 3 7t8 3h532q5 0 8 -3t3 -7v-60q0 -4 -3 -7.5t-8 -3.5h-79v-283q0 -34 10.5 -46.5t33.5 -12.5q32 0 45 2h2q8 0 8 -9v-55q0 -10 -9 -11q-17 -5 -50 -5
q-72 0 -103.5 33z" />
    <glyph glyph-name="rho" unicode="&#x3c1;" horiz-adv-x="533" 
d="M426 456.5q49 -44.5 49 -136.5v-131q0 -98 -45.5 -149.5t-132.5 -51.5q-33 0 -69 8t-61 21v-191q0 -5 -3 -8t-8 -3h-74q-10 0 -10 11v490q0 185 202 185q103 0 152 -44.5zM380 318q0 101 -106 101q-107 0 -107 -106v-218q25 -12 53.5 -18.5t52.5 -6.5q54 0 80.5 32
t26.5 98v118z" />
    <glyph glyph-name="uni03C2" unicode="&#x3c2;" horiz-adv-x="507" 
d="M343 -120v81q0 23 -11 31t-45 8h-26q-99 0 -150.5 46t-51.5 136v123q0 94 53.5 145t152.5 51q87 0 138.5 -40.5t51.5 -105.5q0 -13 -2.5 -18.5t-8.5 -5.5h-73q-10 0 -10 15q0 33 -26 52.5t-69 19.5q-112 0 -112 -122v-114q0 -52 31 -76.5t99 -24.5q66 0 96.5 -6.5
t42 -25.5t11.5 -60v-109q0 -10 -10 -10h-71q-10 0 -10 10z" />
    <glyph glyph-name="sigma" unicode="&#x3c3;" horiz-adv-x="559" 
d="M110.5 36.5q-51.5 48.5 -51.5 137.5v120q0 96 52.5 145.5t163.5 49.5h269q5 0 8 -3t3 -7v-60q0 -4 -3 -7.5t-8 -3.5l-123 6v-2q27 -24 40.5 -54.5t13.5 -80.5v-103q0 -89 -52 -137.5t-157 -48.5q-104 0 -155.5 48.5zM351 97q29 26 29 76v112q0 101 -64 127h-42
q-59 0 -89.5 -24.5t-30.5 -84.5v-130q0 -50 29 -76t83 -26q56 0 85 26z" />
    <glyph glyph-name="tau" unicode="&#x3c4;" horiz-adv-x="503" 
d="M221.5 23.5q-37.5 35.5 -37.5 119.5v265h-155q-4 0 -7 3t-3 8v60q0 10 10 10h440q10 0 10 -10v-60q0 -5 -3 -8t-7 -3h-190v-270q0 -37 15 -53.5t50 -16.5q23 0 45.5 3.5t27.5 4.5h3q9 0 9 -9l1 -57q0 -9 -9 -11q-48 -11 -80 -11q-82 0 -119.5 35.5z" />
    <glyph glyph-name="upsilon" unicode="&#x3c5;" horiz-adv-x="556" 
d="M139.5 34.5q-48.5 46.5 -48.5 137.5v202q0 29 -7.5 38t-27.5 9q-7 0 -14.5 -1t-15.5 -1q-12 0 -12 10v57q0 8 11 11q25 4 59 4q49 0 75.5 -24.5t26.5 -72.5v-240q0 -45 28 -69t77 -24q48 0 75 26t27 77v64q0 110 -18 240v2q0 9 10 9h74q10 0 11 -9q18 -106 18 -220v-77
q0 -97 -48.5 -146t-148.5 -49q-103 0 -151.5 46.5z" />
    <glyph glyph-name="phi" unicode="&#x3c6;" horiz-adv-x="765" 
d="M335 -174v174h-72q-95 0 -143 47.5t-48 137.5v294q0 10 10 10h74q10 0 10 -10v-304q0 -47 27 -72t73 -25h69v402q0 8 11 10q84 11 151 11q197 0 197 -183v-133q0 -90 -48 -137.5t-146 -47.5h-70v-174q0 -11 -10 -11h-74q-11 0 -11 11zM497 78q48 1 75 26t27 71v151
q0 47 -27 71.5t-75 24.5q-34 0 -67 -3v-341h67z" />
    <glyph glyph-name="chi" unicode="&#x3c7;" horiz-adv-x="507" 
d="M401 -183.5q-25 13.5 -45 45.5t-44 93l-24 59q-20 48 -32 84h-2q-13 -30 -40 -85l-93 -190q-4 -8 -13 -8h-84q-6 0 -8.5 3.5t1.5 9.5l180 333l-101 213q-14 29 -25.5 39t-27.5 10q-13 0 -32 -3h-2q-10 0 -10 10v55q0 10 10 11q23 5 49 5q36 0 59 -13.5t42 -44.5t45 -93
l27 -63l24 -60h2q4 9 27 61l95 194q3 7 13 7h82q7 0 9 -3.5t-1 -8.5l-167 -313l95 -207q22 -47 36.5 -61.5t34.5 -14.5l20 2h3q8 0 8 -9v-55q0 -10 -9 -11q-23 -5 -39 -5q-38 0 -63 13.5z" />
    <glyph glyph-name="psi" unicode="&#x3c8;" horiz-adv-x="774" 
d="M336 -174v174h-74q-95 0 -142.5 48t-47.5 137v294q0 10 10 10h74q10 0 10 -10v-303q0 -46 27 -71.5t73 -25.5h70v550q0 11 11 11h72q10 0 10 -11v-550h79q46 0 72.5 25.5t26.5 71.5v184q0 23 -10 38.5t-42 20.5q-4 0 -7 3t-3 8v61q0 10 11 10q74 0 110 -40t36 -106v-170
q0 -89 -47 -137t-143 -48h-81v-174q0 -11 -10 -11h-74q-11 0 -11 11z" />
    <glyph glyph-name="omega" unicode="&#x3c9;" horiz-adv-x="781" 
d="M69 158v195q0 68 36 108t110 40q11 0 11 -10v-61q0 -11 -10 -11q-32 -5 -42.5 -19.5t-10.5 -37.5v-189q0 -54 21.5 -76t69.5 -22q43 0 67 23t24 72v164q0 10 11 10h69q5 0 8 -3t3 -7v-164q0 -95 91 -95q48 0 69 22t21 76v189q0 23 -10 37.5t-42 19.5q-10 0 -10 11v61
q0 10 11 10q74 0 110 -40t36 -108v-195q0 -170 -166 -170q-51 0 -94.5 22.5t-60.5 59.5h-1q-17 -34 -58.5 -58t-94.5 -24q-168 0 -168 170z" />
    <glyph glyph-name="iotadieresis" unicode="&#x3ca;" horiz-adv-x="330" 
d="M108.5 20.5q-36.5 32.5 -36.5 107.5v351q0 10 10 10h74q5 0 8 -3t3 -7v-352q0 -32 15.5 -45.5t52.5 -13.5q22 0 64 8h2q10 0 10 -10v-58q0 -7 -9 -10q-29 -10 -75 -10q-82 0 -118.5 32.5zM-10.5 582.5q-13.5 14.5 -13.5 39.5v11q0 25 13.5 39t41.5 14t42 -14t14 -39v-11
q0 -25 -14 -39.5t-42 -14.5t-41.5 14.5zM164.5 582.5q-13.5 14.5 -13.5 39.5v11q0 53 55 53t55 -53v-11q0 -25 -13.5 -39.5t-41.5 -14.5t-41.5 14.5z" />
    <glyph glyph-name="upsilondieresis" unicode="&#x3cb;" horiz-adv-x="556" 
d="M139.5 34.5q-48.5 46.5 -48.5 137.5v202q0 29 -7.5 38t-27.5 9q-7 0 -14.5 -1t-15.5 -1q-12 0 -12 10v57q0 8 11 11q25 4 59 4q49 0 75.5 -24.5t26.5 -72.5v-240q0 -45 28 -69t77 -24q48 0 75 26t27 77v64q0 110 -18 240v2q0 9 10 9h74q10 0 11 -9q18 -106 18 -220v-77
q0 -97 -48.5 -146t-148.5 -49q-103 0 -151.5 46.5zM141.5 582.5q-13.5 14.5 -13.5 39.5v11q0 25 13.5 39t41.5 14t42 -14t14 -39v-11q0 -25 -14 -39.5t-42 -14.5t-41.5 14.5zM316.5 582.5q-13.5 14.5 -13.5 39.5v11q0 53 55 53t55 -53v-11q0 -25 -13.5 -39.5t-41.5 -14.5
t-41.5 14.5z" />
    <glyph glyph-name="omicrontonos" unicode="&#x3cc;" horiz-adv-x="538" 
d="M112.5 38q-53.5 50 -53.5 150v113q0 200 210 200q103 0 157 -50t54 -150v-113q0 -100 -53.5 -150t-157.5 -50q-103 0 -156.5 50zM357 102q28 31 28 95v96q0 64 -28 94.5t-88 30.5t-87.5 -30.5t-27.5 -94.5v-96q0 -64 27.5 -95t87.5 -31t88 31zM224 556l32 135q2 9 11 9
h75q10 0 7 -12l-51 -134q-4 -8 -12 -8h-54q-10 0 -8 10z" />
    <glyph glyph-name="upsilontonos" unicode="&#x3cd;" horiz-adv-x="556" 
d="M139.5 34.5q-48.5 46.5 -48.5 137.5v202q0 29 -7.5 38t-27.5 9q-7 0 -14.5 -1t-15.5 -1q-12 0 -12 10v57q0 8 11 11q25 4 59 4q49 0 75.5 -24.5t26.5 -72.5v-240q0 -45 28 -69t77 -24q48 0 75 26t27 77v64q0 110 -18 240v2q0 9 10 9h74q10 0 11 -9q18 -106 18 -220v-77
q0 -97 -48.5 -146t-148.5 -49q-103 0 -151.5 46.5zM226 556l32 135q2 9 11 9h75q10 0 7 -12l-51 -134q-4 -8 -12 -8h-54q-10 0 -8 10z" />
    <glyph glyph-name="omegatonos" unicode="&#x3ce;" horiz-adv-x="781" 
d="M69 158v195q0 68 36 108t110 40q11 0 11 -10v-61q0 -11 -10 -11q-32 -5 -42.5 -19.5t-10.5 -37.5v-189q0 -54 21.5 -76t69.5 -22q43 0 67 23t24 72v164q0 10 11 10h69q5 0 8 -3t3 -7v-164q0 -95 91 -95q48 0 69 22t21 76v189q0 23 -10 37.5t-42 19.5q-10 0 -10 11v61
q0 10 11 10q74 0 110 -40t36 -108v-195q0 -170 -166 -170q-51 0 -94.5 22.5t-60.5 59.5h-1q-17 -34 -58.5 -58t-94.5 -24q-168 0 -168 170zM345 556l32 135q2 9 11 9h75q10 0 7 -12l-51 -134q-4 -8 -12 -8h-54q-10 0 -8 10z" />
    <glyph glyph-name="uni0400" unicode="&#x400;" horiz-adv-x="535" 
d="M82 11v633q0 11 10 11h364q10 0 10 -11v-64q0 -11 -10 -11h-279v-195h255q4 0 7 -3t3 -8v-61q0 -5 -3 -8t-7 -3h-255v-205h279q10 0 10 -11v-64q0 -11 -10 -11h-364q-10 0 -10 11zM258 716l-74 103q-2 4 -2 6q0 7 7 7h79q8 0 11 -8l57 -104l2 -5q0 -5 -8 -5h-60
q-7 0 -12 6z" />
    <glyph glyph-name="uni0401" unicode="&#x401;" horiz-adv-x="535" 
d="M82 11v633q0 11 10 11h364q10 0 10 -11v-64q0 -11 -10 -11h-279v-195h255q4 0 7 -3t3 -8v-61q0 -5 -3 -8t-7 -3h-255v-205h279q10 0 10 -11v-64q0 -11 -10 -11h-364q-10 0 -10 11zM150.5 724.5q-13.5 14.5 -13.5 39.5v11q0 25 13.5 39.5t41.5 14.5t42 -14.5t14 -39.5v-11
q0 -25 -14 -39.5t-42 -14.5t-41.5 14.5zM324.5 724.5q-13.5 14.5 -13.5 39.5v11q0 25 13.5 39.5t41.5 14.5t42 -14.5t14 -39.5v-11q0 -25 -14 -39.5t-42 -14.5t-41.5 14.5z" />
    <glyph glyph-name="uni0402" unicode="&#x402;" horiz-adv-x="741" 
d="M487 -12q-8 0 -9 7l-20 65l-1 5q0 8 17 11q100 17 100 119v56q0 53 -23 78.5t-71 25.5q-40 0 -78.5 -18.5t-84.5 -60.5v-265q0 -11 -11 -11h-74q-11 0 -11 11v558h-178q-10 0 -10 11v64q0 11 10 11h470q10 0 10 -11v-64q0 -11 -10 -11h-196v-209q42 38 90.5 58.5
t99.5 20.5q79 0 121 -45.5t42 -130.5v-66q0 -89 -45.5 -143.5t-125.5 -64.5q-5 -1 -12 -1z" />
    <glyph glyph-name="uni0403" unicode="&#x403;" horiz-adv-x="476" 
d="M82 11v633q0 11 10 11h345q10 0 10 -11v-64q0 -11 -10 -11h-260v-558q0 -11 -10 -11h-75q-10 0 -10 11zM217 720l57 104q3 8 11 8h78q6 0 7.5 -4t-2.5 -9l-74 -103q-4 -6 -11 -6h-61q-10 0 -5 10z" />
    <glyph glyph-name="uni0404" unicode="&#x404;" horiz-adv-x="612" 
d="M129.5 37.5q-59.5 49.5 -59.5 159.5v261q0 109 55.5 159t175.5 50q114 0 177 -39t63 -110q0 -14 -1 -21q-2 -12 -4 -16t-7 -4h-75q-5 0 -7 4.5t-2 15.5q0 44 -33 65t-104 21q-78 0 -110.5 -25t-32.5 -86v-98h256q10 0 10 -10v-63q0 -10 -10 -10h-256v-106q0 -61 34.5 -87
t115.5 -26q72 0 105 21t33 65q0 11 2 15t7 4h75q5 0 7.5 -6t2.5 -21q2 -83 -53.5 -122.5t-172.5 -39.5q-132 0 -191.5 49.5z" />
    <glyph glyph-name="uni0405" unicode="&#x405;" horiz-adv-x="569" 
d="M101 38q-58 50 -52 139q1 17 13 17h72q12 0 12 -15q0 -56 34 -82t105 -26q137 0 137 96q0 36 -19 57t-68 41l-146 61q-69 28 -99 67.5t-30 98.5q0 86 55 130t162 44q105 0 166.5 -43t61.5 -121q0 -13 -1 -19q-2 -18 -11 -18h-73q-6 0 -8.5 4t-1.5 14q4 48 -32.5 74.5
t-102.5 26.5q-119 0 -120 -85q0 -34 19.5 -55.5t70.5 -43.5l145 -61q69 -29 98 -67t29 -100q0 -184 -239 -184q-119 0 -177 50z" />
    <glyph glyph-name="uni0406" unicode="&#x406;" horiz-adv-x="259" 
d="M82 11v633q0 11 10 11h75q10 0 10 -11v-633q0 -11 -10 -11h-75q-10 0 -10 11z" />
    <glyph glyph-name="uni0407" unicode="&#x407;" horiz-adv-x="259" 
d="M82 11v633q0 11 10 11h75q10 0 10 -11v-633q0 -11 -10 -11h-75q-10 0 -10 11zM1.5 724.5q-13.5 14.5 -13.5 39.5v11q0 25 13.5 39.5t41.5 14.5t42 -14.5t14 -39.5v-11q0 -25 -14 -39.5t-42 -14.5t-41.5 14.5zM175.5 724.5q-13.5 14.5 -13.5 39.5v11q0 25 13.5 39.5
t41.5 14.5t42 -14.5t14 -39.5v-11q0 -25 -14 -39.5t-42 -14.5t-41.5 14.5z" />
    <glyph glyph-name="uni0408" unicode="&#x408;" horiz-adv-x="269" 
d="M24 -145q-10 0 -11 7l-20 66v3q0 9 18 13q40 10 60.5 45.5t20.5 95.5v559q0 11 10 11h75q10 0 10 -11v-554q0 -199 -150 -233z" />
    <glyph glyph-name="uni0409" unicode="&#x409;" horiz-adv-x="874" 
d="M0 12l217 635q3 8 12 8h101q10 0 13 -8l79 -232h169q124 0 184.5 -49.5t60.5 -149.5q0 -105 -63 -160.5t-184 -55.5h-117q-10 0 -13 8l-141 439l-40 123h-1l-10 -33l-27 -89l-141 -439q-3 -9 -12 -9h-78q-12 0 -9 12zM585 81q78 0 116.5 33.5t38.5 101.5q0 63 -36 91
t-116 28h-138l88 -254h47z" />
    <glyph glyph-name="uni040A" unicode="&#x40a;" horiz-adv-x="969" 
d="M82 11v633q0 11 10 11h75q10 0 10 -11v-243h309v243q0 11 10 11h75q10 0 10 -11v-243h107q118 0 180.5 -50t62.5 -144q0 -99 -64 -153t-182 -54h-189q-10 0 -10 11v307h-309v-307q0 -11 -10 -11h-75q-10 0 -10 11zM682 81q75 0 114 32t39 93q0 58 -36.5 85t-114.5 27
h-102v-237h100z" />
    <glyph glyph-name="uni040B" unicode="&#x40b;" horiz-adv-x="741" 
d="M221 11v558h-178q-10 0 -10 11v64q0 11 10 11h471q10 0 10 -11v-64q0 -11 -10 -11h-197v-209q87 79 190 79q79 0 121 -45.5t42 -130.5v-252q0 -11 -11 -11h-74q-5 0 -8 3t-3 8v239q0 105 -96 105q-40 0 -78 -18.5t-83 -60.5v-265q0 -11 -11 -11h-74q-11 0 -11 11z" />
    <glyph glyph-name="uni040C" unicode="&#x40c;" horiz-adv-x="587" 
d="M82 11v633q0 11 10 11h75q10 0 10 -11v-270h80l205 275q5 6 13 6h84q7 0 8.5 -4t-2.5 -9l-225 -300l245 -329q2 -2 2 -6q0 -7 -8 -7h-93q-8 0 -13 6l-213 283h-83v-278q0 -11 -10 -11h-75q-10 0 -10 11zM237 720l57 104q3 8 11 8h78q6 0 7.5 -4t-2.5 -9l-74 -103
q-4 -6 -11 -6h-61q-10 0 -5 10z" />
    <glyph glyph-name="uni040D" unicode="&#x40d;" horiz-adv-x="660" 
d="M82 11v633q0 11 10 11h72q5 0 8 -3t3 -8v-298q0 -80 -5 -180q-2 -26 -2 -37h2q50 96 122 217l181 302q5 7 12 7h83q5 0 8 -3t3 -8v-633q0 -5 -3 -8t-8 -3h-72q-5 0 -8 3t-3 8v286q0 133 8 229h-2q-48 -91 -131 -229l-173 -290q-5 -7 -12 -7h-83q-10 0 -10 11zM309 716
l-74 103q-2 4 -2 6q0 7 7 7h79q8 0 11 -8l57 -104l2 -5q0 -5 -8 -5h-60q-7 0 -12 6z" />
    <glyph glyph-name="uni040E" unicode="&#x40e;" horiz-adv-x="555" 
d="M128.5 3.5q-2.5 3.5 0.5 9.5l106 216l-212 413q-1 2 -1 6q0 7 9 7h84q10 0 13 -7l110 -226l11 -22q27 -56 35 -76h2q14 34 46 98l111 226q3 7 13 7h81q6 0 8 -3.5t0 -9.5l-322 -635q-3 -7 -12 -7h-75q-5 0 -7.5 3.5zM206 729q-37 14 -55 28q-6 5 -6 12v58q0 15 12 7
q73 -44 127 -44q33 0 64 12.5t63 31.5q2 2 6 2q5 0 5 -9v-58q0 -7 -5 -12q-18 -14 -55.5 -28t-77.5 -14q-41 0 -78 14z" />
    <glyph glyph-name="uni040F" unicode="&#x40f;" horiz-adv-x="662" 
d="M287 -129q-3 3 -3 8v121h-192q-10 0 -10 11v633q0 11 10 11h75q10 0 10 -11v-558h308v558q0 11 10 11h75q10 0 10 -11v-633q0 -11 -10 -11h-191v-121q0 -5 -3 -8t-8 -3h-74q-4 0 -7 3z" />
    <glyph glyph-name="uni0410" unicode="&#x410;" horiz-adv-x="568" 
d="M569 8q0 -8 -10 -8h-81q-10 0 -13 8l-46 140h-275l-45 -139q-3 -9 -12 -9h-78q-12 0 -9 12l220 635q3 8 12 8h101q10 0 13 -8l222 -635zM393 230l-71 217l-41 123h-1q-18 -58 -28 -86q-4 -15 -11 -35l-71 -219h223z" />
    <glyph glyph-name="uni0411" unicode="&#x411;" horiz-adv-x="570" 
d="M82 11v633q0 11 10 11h354q10 0 10 -11v-64q0 -11 -10 -11h-269v-165h107q243 0 243 -196q0 -101 -63 -154.5t-184 -53.5h-188q-10 0 -10 11zM277 80q78 0 116.5 31.5t38.5 96.5q0 62 -36 89.5t-116 27.5h-103v-245h100z" />
    <glyph glyph-name="uni0412" unicode="&#x412;" horiz-adv-x="578" 
d="M82 11v633q0 11 10 11h184q230 0 230 -163q0 -55 -26 -89t-84 -55v-2q138 -25 138 -164q0 -94 -62 -138t-195 -44h-185q-10 0 -10 11zM273 376q71 0 104.5 24.5t33.5 76.5t-33.5 74.5t-113.5 22.5h-87v-198h96zM277 82q87 0 124.5 24.5t37.5 81.5q0 59 -38 86t-121 27
h-103v-219h100z" />
    <glyph glyph-name="uni0413" unicode="&#x413;" horiz-adv-x="476" 
d="M82 11v633q0 11 10 11h345q10 0 10 -11v-64q0 -11 -10 -11h-260v-558q0 -11 -10 -11h-75q-10 0 -10 11z" />
    <glyph glyph-name="uni0414" unicode="&#x414;" horiz-adv-x="609" 
d="M609 76v-197q0 -5 -3 -8t-7 -3h-74q-5 0 -8 3t-3 8v121h-419v-121q0 -5 -3 -8t-8 -3h-73q-5 0 -8 3t-3 8v197q0 10 11 10h44l185 561q1 4 5 6t8 2h101q9 0 12 -8l187 -561h46q10 0 10 -10zM151 86h302l-98 314q-28 92 -53 170h-1l-18 -58q-32 -104 -36 -116z" />
    <glyph glyph-name="uni0415" unicode="&#x415;" horiz-adv-x="535" 
d="M82 11v633q0 11 10 11h364q10 0 10 -11v-64q0 -11 -10 -11h-279v-195h255q4 0 7 -3t3 -8v-61q0 -5 -3 -8t-7 -3h-255v-205h279q10 0 10 -11v-64q0 -11 -10 -11h-364q-10 0 -10 11z" />
    <glyph glyph-name="uni0416" unicode="&#x416;" horiz-adv-x="865" 
d="M28.5 3.5q-2.5 3.5 0.5 9.5l175 325l-163 304q-2 4 -2 6q0 7 10 7h80q10 0 13 -7l145 -275h98v271q0 11 11 11h73q5 0 8 -3t3 -8v-271h100l146 275q3 7 13 7h77q6 0 8.5 -3.5t-0.5 -9.5l-163 -304l175 -325q1 -2 1 -5q0 -8 -10 -8h-86q-9 0 -13 7l-150 283h-98v-279
q0 -5 -3 -8t-8 -3h-73q-11 0 -11 11v279h-100l-149 -283q-4 -7 -13 -7h-86q-6 0 -8.5 3.5z" />
    <glyph glyph-name="uni0417" unicode="&#x417;" horiz-adv-x="580" 
d="M106 31.5q-55 43.5 -54 131.5q1 12 11 12h73q9 0 9 -10q0 -50 30 -72t97 -22q83 0 121.5 27.5t38.5 88.5q0 54 -36 78.5t-118 24.5h-97q-4 0 -7 3t-3 8v60q0 10 10 10h81q77 0 111.5 26t34.5 84q0 54 -32 78.5t-102 24.5q-65 0 -94 -22t-29 -72q0 -10 -10 -10h-73
q-10 0 -10 14q0 85 55.5 129t166.5 44q224 0 224 -170q0 -59 -30 -100t-84 -58v-1q69 -13 103.5 -51t34.5 -100q0 -97 -64.5 -148t-191.5 -51q-111 0 -166 43.5z" />
    <glyph glyph-name="uni0418" unicode="&#x418;" horiz-adv-x="660" 
d="M82 11v633q0 11 10 11h72q5 0 8 -3t3 -8v-298q0 -80 -5 -180q-2 -26 -2 -37h2q50 96 122 217l181 302q5 7 12 7h83q5 0 8 -3t3 -8v-633q0 -5 -3 -8t-8 -3h-72q-5 0 -8 3t-3 8v286q0 133 8 229h-2q-48 -91 -131 -229l-173 -290q-5 -7 -12 -7h-83q-10 0 -10 11z" />
    <glyph glyph-name="uni0419" unicode="&#x419;" horiz-adv-x="660" 
d="M82 11v633q0 11 10 11h72q5 0 8 -3t3 -8v-298q0 -80 -5 -180q-2 -26 -2 -37h2q50 96 122 217l181 302q5 7 12 7h83q5 0 8 -3t3 -8v-633q0 -5 -3 -8t-8 -3h-72q-5 0 -8 3t-3 8v286q0 133 8 229h-2q-48 -91 -131 -229l-173 -290q-5 -7 -12 -7h-83q-10 0 -10 11zM252 729
q-37 14 -55 28q-6 5 -6 12v58q0 15 12 7q73 -44 127 -44q33 0 64 12.5t63 31.5q2 2 6 2q5 0 5 -9v-58q0 -7 -5 -12q-18 -14 -55.5 -28t-77.5 -14q-41 0 -78 14z" />
    <glyph glyph-name="uni041A" unicode="&#x41a;" horiz-adv-x="587" 
d="M82 11v633q0 11 10 11h75q10 0 10 -11v-270h80l205 275q5 6 13 6h84q7 0 8.5 -4t-2.5 -9l-225 -300l245 -329q2 -2 2 -6q0 -7 -8 -7h-93q-8 0 -13 6l-213 283h-83v-278q0 -11 -10 -11h-75q-10 0 -10 11z" />
    <glyph glyph-name="uni041B" unicode="&#x41b;" horiz-adv-x="562" 
d="M0 12l217 635q3 8 12 8h101q10 0 13 -8l219 -635l1 -4q0 -8 -10 -8h-81q-10 0 -13 8l-141 439l-40 123h-1l-10 -33l-27 -89l-141 -439q-3 -9 -12 -9h-78q-12 0 -9 12z" />
    <glyph glyph-name="uni041C" unicode="&#x41c;" horiz-adv-x="774" 
d="M67 11l14 633q0 11 10 11h113q8 0 12 -8l172 -385l170 385q4 8 12 8h113q10 0 10 -11l14 -633q0 -11 -10 -11h-73q-10 0 -10 11l-10 378q-1 62 4 150h-3q-28 -71 -65 -149l-140 -302q-4 -8 -12 -8h-3q-8 0 -11 8l-143 306q-21 43 -61 145h-3q3 -54 3 -111v-36l-10 -381
q0 -11 -10 -11h-73q-10 0 -10 11z" />
    <glyph glyph-name="uni041D" unicode="&#x41d;" horiz-adv-x="663" 
d="M82 11v633q0 11 10 11h75q10 0 10 -11v-266h309v266q0 11 10 11h75q5 0 8 -3t3 -8v-633q0 -5 -3 -8t-8 -3h-75q-10 0 -10 11v284h-309v-284q0 -11 -10 -11h-75q-10 0 -10 11z" />
    <glyph glyph-name="uni041E" unicode="&#x41e;" horiz-adv-x="645" 
d="M133.5 49.5q-63.5 61.5 -63.5 176.5v203q0 115 63.5 176.5t188.5 61.5q126 0 189.5 -61.5t63.5 -176.5v-203q0 -115 -63.5 -176.5t-189.5 -61.5q-125 0 -188.5 61.5zM439.5 112q40.5 40 40.5 117v197q0 77 -40.5 117t-117.5 40t-117 -40t-40 -117v-197q0 -77 40 -117
t117 -40t117.5 40z" />
    <glyph glyph-name="uni041F" unicode="&#x41f;" horiz-adv-x="662" 
d="M82 11v633q0 11 10 11h478q10 0 10 -11v-633q0 -11 -10 -11h-75q-10 0 -10 11v558h-308v-558q0 -11 -10 -11h-75q-10 0 -10 11z" />
    <glyph glyph-name="uni0420" unicode="&#x420;" horiz-adv-x="549" 
d="M82 11v633q0 11 10 11h173q123 0 184.5 -52.5t61.5 -154.5q0 -101 -62.5 -153.5t-183.5 -52.5h-88v-231q0 -11 -10 -11h-75q-10 0 -10 11zM263 323q79 0 115.5 29.5t36.5 92.5q0 67 -37 98t-117 31h-84v-251h86z" />
    <glyph glyph-name="uni0421" unicode="&#x421;" horiz-adv-x="636" 
d="M134 49q-64 61 -64 178v201q0 116 64.5 177.5t187.5 61.5q73 0 129.5 -23t88.5 -66.5t32 -102.5q0 -21 -2 -32q-2 -14 -11 -14h-75q-10 0 -10 11q3 69 -36 106t-115 37q-77 0 -117.5 -39.5t-40.5 -115.5v-201q0 -76 40.5 -115.5t117.5 -39.5q72 0 112 33t40 92
q0 12 -1 18q0 11 10 11h74q6 0 8.5 -3.5t3.5 -10.5t1 -21q0 -61 -31 -107t-87.5 -71t-131.5 -25q-123 0 -187 61z" />
    <glyph glyph-name="uni0422" unicode="&#x422;" horiz-adv-x="538" 
d="M221 11v558h-178q-10 0 -10 11v64q0 11 10 11h452q10 0 10 -11v-64q0 -11 -10 -11h-178v-558q0 -11 -11 -11h-74q-11 0 -11 11z" />
    <glyph glyph-name="uni0423" unicode="&#x423;" horiz-adv-x="555" 
d="M128.5 3.5q-2.5 3.5 0.5 9.5l106 216l-212 413q-1 2 -1 6q0 7 9 7h84q10 0 13 -7l110 -226l11 -22q27 -56 35 -76h2q14 34 46 98l111 226q3 7 13 7h81q6 0 8 -3.5t0 -9.5l-322 -635q-3 -7 -12 -7h-75q-5 0 -7.5 3.5z" />
    <glyph glyph-name="uni0424" unicode="&#x424;" horiz-adv-x="835" 
d="M687 602q79 -62 79 -189v-172q0 -127 -79 -189t-222 -64v-49q0 -11 -11 -11h-74q-5 0 -8 3t-3 8v49q-142 2 -220.5 64t-78.5 189v172q0 127 78 189t221 64v50q0 5 3 8t8 3h74q11 0 11 -11v-50q143 -2 222 -64zM671 407q0 176 -208 178v-516q208 2 208 178v160zM372 69
v516q-208 -3 -208 -178v-160q0 -175 208 -178z" />
    <glyph glyph-name="uni0425" unicode="&#x425;" horiz-adv-x="559" 
d="M5 3.5q-2 3.5 2 9.5l213 325l-200 304q-2 6 -2 7q0 6 9 6h91q7 0 11 -6l107 -165l46 -76h1q20 35 49 80l103 161q5 6 12 6h87q14 0 6 -13l-198 -306l210 -323q2 -3 2 -7q0 -6 -8 -6h-91q-7 0 -13 6l-112 175q-14 22 -16 25l-35 58h-1l-50 -81l-113 -176q-5 -7 -12 -7h-90
q-6 0 -8 3.5z" />
    <glyph glyph-name="uni0426" unicode="&#x426;" horiz-adv-x="658" 
d="M543 -129q-3 3 -3 8v121h-448q-10 0 -10 11v633q0 11 10 11h75q10 0 10 -11v-558h293v558q0 5 3 8t8 3h74q11 0 11 -11v-558h58q5 0 8 -3t3 -7v-197q0 -5 -3 -8t-8 -3h-74q-4 0 -7 3z" />
    <glyph glyph-name="uni0427" unicode="&#x427;" horiz-adv-x="632" 
d="M548 652q3 -3 3 -8v-633q0 -5 -3 -8t-8 -3h-74q-11 0 -11 11v267q-46 -31 -98 -48.5t-104 -17.5q-91 0 -136 45t-45 142v245q0 11 10 11h75q10 0 10 -11v-230q0 -64 25 -90.5t84 -26.5q93 0 179 67v280q0 11 11 11h74q5 0 8 -3z" />
    <glyph glyph-name="uni0428" unicode="&#x428;" horiz-adv-x="892" 
d="M82 11v633q0 11 10 11h75q10 0 10 -11v-558h222v558q0 5 3 8t8 3h73q10 0 10 -11v-558h222v558q0 11 11 11h74q11 0 11 -11v-633q0 -11 -11 -11h-708q-10 0 -10 11z" />
    <glyph glyph-name="uni0429" unicode="&#x429;" horiz-adv-x="901" 
d="M786 -129q-3 3 -3 8v121h-691q-10 0 -10 11v633q0 11 10 11h75q10 0 10 -11v-558h222v558q0 5 3 8t8 3h73q10 0 10 -11v-558h222v558q0 11 11 11h74q11 0 11 -11v-558h56q5 0 8 -3t3 -7v-197q0 -5 -3 -8t-8 -3h-74q-4 0 -7 3z" />
    <glyph glyph-name="uni042A" unicode="&#x42a;" horiz-adv-x="660" 
d="M177 11v558h-133q-11 0 -11 11v64q0 11 11 11h218q10 0 10 -11v-229h106q123 0 183.5 -49.5t60.5 -149.5q0 -105 -63 -160.5t-184 -55.5h-188q-10 0 -10 11zM371 81q78 0 116.5 33.5t38.5 101.5q0 63 -36 91t-116 28h-102v-254h99z" />
    <glyph glyph-name="uni042B" unicode="&#x42b;" horiz-adv-x="824" 
d="M82 11v633q0 11 10 11h75q10 0 10 -11v-229h106q123 0 183 -49.5t60 -149.5q0 -105 -63 -160.5t-184 -55.5h-187q-10 0 -10 11zM276 81q155 0 155 135q0 63 -36 91t-116 28h-102v-254h99zM647 11v633q0 11 10 11h75q10 0 10 -11v-633q0 -11 -10 -11h-75q-10 0 -10 11z
" />
    <glyph glyph-name="uni042C" unicode="&#x42c;" horiz-adv-x="565" 
d="M82 11v633q0 11 10 11h75q10 0 10 -11v-229h106q123 0 183 -49.5t60 -149.5q0 -105 -63 -160.5t-184 -55.5h-187q-10 0 -10 11zM276 81q155 0 155 135q0 63 -36 91t-116 28h-102v-254h99z" />
    <glyph glyph-name="uni042D" unicode="&#x42d;" horiz-adv-x="608" 
d="M116 27q-55 39 -55 119q0 18 2.5 24.5t7.5 6.5h75q10 0 10 -19q0 -44 32.5 -65t104.5 -21q82 0 116 26.5t34 89.5v103h-256q-10 0 -10 10v63q0 10 10 10h256v96q0 62 -32 87.5t-110 25.5q-71 0 -104 -21t-33 -65q0 -11 -2.5 -15.5t-7.5 -4.5h-75q-5 0 -7 4t-4 16
q-6 81 56 125.5t184 44.5q120 0 175.5 -50t55.5 -159v-261q0 -110 -60 -159.5t-193 -49.5q-115 0 -170 39z" />
    <glyph glyph-name="uni042E" unicode="&#x42e;" horiz-adv-x="875" 
d="M743 605q62 -62 62 -176v-203q0 -114 -62 -176t-178 -62t-178 62t-62 176v70h-148v-285q0 -11 -10 -11h-75q-10 0 -10 11v633q0 11 10 11h75q10 0 10 -11v-266h148v51q0 114 62 176t178 62t178 -62zM710 429q0 75 -37 114.5t-108 39.5t-108 -39.5t-37 -114.5v-203
q0 -75 37 -114.5t108 -39.5t108 39.5t37 114.5v203z" />
    <glyph glyph-name="uni042F" unicode="&#x42f;" horiz-adv-x="609" 
d="M33 3.5q-2 3.5 1 9.5l100 175q43 74 59 99v2q-58 19 -88 63t-30 111q0 192 237 192h205q10 0 10 -11v-633q0 -11 -10 -11h-75q-10 0 -10 11v263h-146l-147 -267q-3 -7 -13 -7h-85q-6 0 -8 3.5zM432 350v224h-117q-76 0 -110 -28.5t-34 -90.5q0 -58 33 -81.5t115 -23.5
h113z" />
    <glyph glyph-name="uni0430" unicode="&#x430;" horiz-adv-x="497" 
d="M432 10q0 -10 -10 -10h-65q-6 0 -8.5 3.5t-4.5 10.5q-5 25 -8 63q-46 -47 -86 -68t-85 -21q-59 0 -89.5 35.5t-30.5 102.5q0 52 20 84.5t65.5 50.5t122.5 25l78 7v40q0 48 -19.5 68t-66.5 20q-86 0 -85 -60q0 -5 -3 -8t-7 -3h-73q-7 0 -9.5 6.5t-2.5 22.5q0 56 49.5 89
t133.5 33q91 0 134.5 -41t43.5 -126v-212q0 -68 6 -110v-2zM152 84q13 -16 41 -16q30 0 61 18.5t77 64.5v75l-77 -7q-66 -6 -90.5 -24.5t-24.5 -61.5q0 -33 13 -49z" />
    <glyph glyph-name="uni0431" unicode="&#x431;" horiz-adv-x="546" 
d="M442.5 422.5q41.5 -42.5 41.5 -126.5v-111q0 -97 -53 -147t-155 -50q-205 0 -205 197v227q0 87 26.5 137t76.5 77q24 13 51 21t65 17q7 2 33 8.5t46.5 14.5t34.5 18l5 2q8 0 9 -9l19 -64l1 -5q0 -4 -5 -9q-17 -13 -40.5 -20t-62.5 -15q-66 -12 -99 -27q-65 -30 -65 -124
v-46q31 36 72.5 56.5t89.5 20.5q73 0 114.5 -42.5zM389 283q0 99 -84 99q-38 0 -74.5 -20.5t-64.5 -56.5v-112q0 -63 26.5 -92.5t85.5 -29.5q58 0 84.5 30.5t26.5 91.5v90z" />
    <glyph glyph-name="uni0432" unicode="&#x432;" horiz-adv-x="541" 
d="M71 184v330q0 89 50 135t149 46q177 0 177 -147q0 -53 -22.5 -93.5t-59.5 -56.5v-1q60 -9 87.5 -48.5t27.5 -107.5v-48q0 -100 -54.5 -152.5t-157.5 -52.5q-197 0 -197 196zM241 403q54 12 83 40.5t29 81.5q0 46 -22 67.5t-67 21.5q-48 0 -73.5 -24t-25.5 -71v-131z
M385 195v51q0 48 -21.5 70t-67.5 22q-54 0 -131 -23v-123q0 -64 25 -92.5t81 -28.5q114 0 114 124z" />
    <glyph glyph-name="uni0433" unicode="&#x433;" horiz-adv-x="479" 
d="M92 17q-44 29 -44 100q0 54 25.5 88t80.5 55l113 43q35 13 48 28t13 40q0 27 -20 39t-65 12q-93 0 -93 -55q0 -15 -9 -15h-73q-10 0 -12 15q-6 60 43.5 97t143.5 37q88 0 134 -32.5t46 -97.5q0 -52 -24.5 -83.5t-80.5 -52.5l-116 -43q-32 -12 -45.5 -28.5t-13.5 -42.5
q0 -32 21.5 -43.5t70.5 -11.5q102 2 102 63q0 15 9 15h73q7 0 9 -4.5t2 -21.5q0 -62 -48.5 -96t-151.5 -34q-94 0 -138 29z" />
    <glyph glyph-name="uni0434" unicode="&#x434;" horiz-adv-x="540" 
d="M127 -164.5q-50 32.5 -50 85.5q0 14 2.5 20.5t9.5 6.5h73q10 0 10 -14q0 -25 24 -38.5t68 -13.5q58 0 84 25t26 80v30q0 45 1 67h-1q-42 -36 -81.5 -53t-83.5 -17q-150 0 -150 183v101q0 103 49.5 153t153.5 50q28 0 56.5 -3.5t55.5 -8.5q58 -10 95 -12v-483
q0 -93 -53 -142t-153 -49q-86 0 -136 32.5zM297.5 113q31.5 16 76.5 54v242q-55 10 -105 10q-61 0 -88 -30.5t-27 -98.5v-83q0 -58 19 -84t61 -26q32 0 63.5 16z" />
    <glyph glyph-name="uni0435" unicode="&#x435;" horiz-adv-x="522" 
d="M111 33.5q-52 45.5 -52 135.5v136q0 96 51.5 146t151.5 50t151.5 -48.5t51.5 -142.5v-78q0 -10 -10 -10h-302v-32q0 -64 27 -92.5t87 -28.5q45 0 69.5 15t24.5 43q0 5 3 8t8 3h74q8 0 10 -9q4 -66 -47.5 -103.5t-145.5 -37.5q-100 0 -152 45.5zM371 297v5q0 60 -26.5 89
t-80.5 29q-111 0 -111 -119v-4h218z" />
    <glyph glyph-name="uni0436" unicode="&#x436;" horiz-adv-x="713" 
d="M698 7q0 -7 -10 -7h-86q-8 0 -12 6l-122 217h-64v-212q0 -5 -3 -8t-8 -3h-73q-11 0 -11 11v212h-66l-121 -217q-4 -6 -13 -6h-85q-6 0 -8 4t1 9l151 257l-134 207q-2 4 -2 6t2 4t6 2h84q9 0 13 -6l110 -185h62v374q0 11 11 11h73q5 0 8 -3t3 -8v-374h62l110 185q4 6 13 6
h84q6 0 7.5 -3.5t-1.5 -8.5l-134 -207l151 -257q2 -4 2 -6z" />
    <glyph glyph-name="uni0437" unicode="&#x437;" horiz-adv-x="477" 
d="M82.5 -162.5q-50.5 34.5 -50.5 92.5q0 12 1 18q1 10 4.5 14t8.5 4h73q9 0 9 -16q0 -32 23.5 -50t67.5 -18q55 0 83 25.5t28 75.5v59q0 44 -28.5 65.5t-89.5 21.5h-79q-5 0 -8 3t-3 8v59q0 10 11 10h71q51 0 81 27.5t30 74.5v23q0 89 -96 89q-40 0 -62 -15.5t-22 -42.5
q0 -15 -10 -15h-73q-14 0 -14 29q0 55 52.5 88.5t139.5 33.5t131.5 -38t44.5 -114v-36q0 -45 -22.5 -80.5t-62.5 -54.5v-1q51 -12 77 -47t26 -86v-51q0 -91 -53 -140.5t-153 -49.5q-85 0 -135.5 34.5z" />
    <glyph glyph-name="uni0438" unicode="&#x438;" horiz-adv-x="543" 
d="M478 9q0 -9 -11 -9h-63q-12 0 -13 10q-6 42 -7 66q-93 -88 -180 -88q-64 0 -98 42.5t-34 123.5v325q0 10 10 10h74q5 0 8 -3t3 -7v-316q0 -47 16.5 -69.5t51.5 -22.5q32 0 65 18.5t77 61.5v328q0 10 10 10h74q5 0 8 -3t3 -7v-356q0 -69 6 -112v-2z" />
    <glyph glyph-name="uni0439" unicode="&#x439;" horiz-adv-x="543" 
d="M478 9q0 -9 -11 -9h-63q-12 0 -13 10q-6 42 -7 66q-93 -88 -180 -88q-64 0 -98 42.5t-34 123.5v325q0 10 10 10h74q5 0 8 -3t3 -7v-316q0 -47 16.5 -69.5t51.5 -22.5q32 0 65 18.5t77 61.5v328q0 10 10 10h74q5 0 8 -3t3 -7v-356q0 -69 6 -112v-2zM197.5 572
q-30.5 16 -47.5 34q-4 4 -4 12v58q0 6 3 8t9 -2q19 -19 48.5 -34.5t65.5 -15.5t65.5 15.5t48.5 34.5q4 3 7 3q5 0 5 -9v-58q0 -8 -4 -13q-23 -20 -50.5 -34.5t-71.5 -14.5t-74.5 16z" />
    <glyph glyph-name="uni043A" unicode="&#x43a;" horiz-adv-x="492" 
d="M490 7q0 -7 -10 -7h-88q-9 0 -13 6l-145 216h-67v-211q0 -5 -3 -8t-8 -3h-74q-10 0 -10 11v661q0 11 10 11h74q5 0 8 -3t3 -8v-373h65l134 184q5 6 14 6h85q6 0 8 -3.5t-2 -8.5l-156 -208l173 -256q2 -4 2 -6z" />
    <glyph glyph-name="uni043B" unicode="&#x43b;" horiz-adv-x="462" 
d="M5.5 3.5q-2.5 3.5 -0.5 9.5l170 462q2 8 6 11t11 3h79q7 0 10.5 -3t6.5 -11l169 -462q1 -2 1 -6q0 -7 -9 -7h-79q-8 0 -11 9l-88 260l-15 45q-14 36 -24 70h-2q-11 -39 -38 -117l-89 -258q-3 -9 -11 -9h-79q-5 0 -7.5 3.5z" />
    <glyph glyph-name="uni043C" unicode="&#x43c;" horiz-adv-x="630" 
d="M63 11l8 468q0 10 11 10h79q7 0 11 -8l143 -280l142 280q5 8 12 8h79q11 0 11 -10l8 -468q0 -11 -11 -11h-69q-11 0 -11 11l-2 225q0 44 6 116h-3q-23 -55 -42 -88l-111 -200q-2 -5 -9 -5q-6 0 -9 5l-112 200q-20 38 -41 88h-3q5 -90 5 -116l-1 -225q0 -11 -11 -11h-70
q-10 0 -10 11z" />
    <glyph glyph-name="uni043D" unicode="&#x43d;" horiz-adv-x="545" 
d="M473 479v-468q0 -11 -10 -11h-74q-5 0 -8 3t-3 8v198h-211v-198q0 -5 -3 -8t-8 -3h-74q-10 0 -10 11v468q0 10 10 10h74q5 0 8 -3t3 -7v-189h211v189q0 4 3 7t8 3h74q10 0 10 -10z" />
    <glyph glyph-name="uni043E" unicode="&#x43e;" horiz-adv-x="538" 
d="M112.5 38q-53.5 50 -53.5 150v113q0 200 210 200q103 0 157 -50t54 -150v-113q0 -100 -53.5 -150t-157.5 -50q-103 0 -156.5 50zM357 102q28 31 28 95v96q0 64 -28 94.5t-88 30.5t-87.5 -30.5t-27.5 -94.5v-96q0 -64 27.5 -95t87.5 -31t88 31z" />
    <glyph glyph-name="uni043F" unicode="&#x43f;" horiz-adv-x="557" 
d="M447.5 459q37.5 -42 37.5 -124v-324q0 -11 -10 -11h-74q-11 0 -11 11v315q0 47 -19 69.5t-59 22.5q-34 0 -67 -18t-78 -61v-328q0 -5 -3 -8t-8 -3h-74q-10 0 -10 11v355q0 52 -7 110v3q0 10 10 10h68q5 0 8 -2t4 -8q4 -16 8 -63q45 44 86 64.5t89 20.5q72 0 109.5 -42z
" />
    <glyph glyph-name="uni0440" unicode="&#x440;" horiz-adv-x="538" 
d="M477 318v-129q0 -98 -46 -149.5t-132 -51.5q-34 0 -70.5 8t-61.5 21v-191q0 -5 -3 -8t-8 -3h-74q-10 0 -10 11v548q0 51 -7 103v2q0 10 10 10h68q11 0 12 -10q6 -31 7 -52q44 39 82.5 56.5t83.5 17.5q149 0 149 -183zM382 308q0 57 -19.5 83.5t-59.5 26.5
q-30 0 -60.5 -16t-75.5 -55v-252q25 -12 54 -18.5t55 -6.5q54 0 80 32t26 98v108z" />
    <glyph glyph-name="uni0441" unicode="&#x441;" horiz-adv-x="520" 
d="M112 38.5q-53 50.5 -53 145.5v121q0 95 54.5 145.5t155.5 50.5q90 0 142 -40.5t52 -105.5q0 -24 -11 -24h-73q-10 0 -10 15q0 34 -26.5 53t-73.5 19q-58 0 -86.5 -29.5t-28.5 -92.5v-103q0 -122 114 -122q46 0 73 20t27 51q0 16 10 16h73q5 0 8 -3t3 -7q1 -74 -50.5 -117
t-144.5 -43q-102 0 -155 50.5z" />
    <glyph glyph-name="uni0442" unicode="&#x442;" horiz-adv-x="843" 
d="M72 11v355q0 66 -7 111v2q0 10 11 10h67q6 0 8 -1.5t3 -5.5q8 -52 9 -66q44 44 83.5 64.5t86.5 20.5q100 0 126 -91q47 48 88 69.5t88 21.5q68 0 102.5 -41.5t34.5 -123.5v-325q0 -11 -11 -11h-74q-10 0 -10 11v315q0 92 -69 92q-31 0 -63.5 -19t-75.5 -60v-328
q0 -11 -10 -11h-74q-11 0 -11 11v315q0 92 -69 92q-31 0 -63 -18.5t-75 -60.5v-328q0 -5 -3 -8t-8 -3h-74q-10 0 -10 11z" />
    <glyph glyph-name="uni0443" unicode="&#x443;" horiz-adv-x="502" 
d="M137 -181.5q-2 3.5 0 9.5l70 177l-184 472q-1 2 -1 5q0 7 8 7h81q8 0 11 -8l85 -231q20 -53 34 -101q4 -10 10 -30h2l20 60t16 47l9 24l84 231q3 8 13 8h77q5 0 7.5 -3.5t0.5 -8.5l-251 -654q-3 -8 -11 -8h-74q-5 0 -7 3.5z" />
    <glyph glyph-name="uni0444" unicode="&#x444;" horiz-adv-x="705" 
d="M646 307v-124q0 -195 -230 -195h-16v-162q0 -11 -11 -11h-74q-10 0 -10 11v162h-16q-230 0 -230 195v124q0 194 230 194h16v172q0 11 10 11h74q11 0 11 -11v-172h16q230 0 230 -194zM306 69v352h-24q-64 0 -96 -30t-32 -93v-107q0 -122 128 -122h24zM551 298q0 63 -32 93
t-96 30h-24v-352h24q128 0 128 122v107z" />
    <glyph glyph-name="uni0445" unicode="&#x445;" horiz-adv-x="485" 
d="M10 4q-2 4 2 9l171 239l-160 225q-2 2 -2 6q0 6 9 6h88q8 0 12 -6l66 -96q33 -50 46 -72h1l52 77l62 91q5 6 13 6h83q7 0 9 -3.5t-2 -8.5l-160 -223l174 -241q2 -2 2 -6q0 -7 -9 -7h-88q-8 0 -12 6l-63 90l-63 93h-1l-40 -62l-20 -31l-62 -90q-4 -6 -13 -6h-87q-6 0 -8 4
z" />
    <glyph glyph-name="uni0446" unicode="&#x446;" horiz-adv-x="552" 
d="M541 70v-180q0 -11 -10 -11h-68q-10 0 -10 11v110h-49q-12 0 -13 10q-6 42 -7 66q-93 -88 -180 -88q-64 0 -98 42.5t-34 123.5v325q0 10 10 10h74q5 0 8 -3t3 -7v-316q0 -47 16.5 -69.5t51.5 -22.5q32 0 65 18.5t77 61.5v328q0 10 10 10h74q5 0 8 -3t3 -7v-356
q0 -28 1 -42h58q10 0 10 -11z" />
    <glyph glyph-name="uni0447" unicode="&#x447;" horiz-adv-x="523" 
d="M357 11v199q-39 -36 -81.5 -55.5t-84.5 -19.5q-65 0 -99.5 41.5t-34.5 120.5v182q0 10 10 10h74q11 0 11 -10v-164q0 -50 16 -74t50 -24q67 0 139 75v187q0 10 10 10h74q11 0 11 -10v-468q0 -11 -11 -11h-74q-10 0 -10 11z" />
    <glyph glyph-name="uni0448" unicode="&#x448;" horiz-adv-x="832" 
d="M106 30q-34 42 -34 124v325q0 10 10 10h74q5 0 8 -3t3 -7v-316q0 -92 65 -92q30 0 61.5 19t74.5 61v328q0 4 3 7t8 3h74q10 0 10 -10v-316q0 -92 66 -92q29 0 61.5 19t74.5 61v328q0 10 11 10h74q10 0 10 -10v-356q0 -65 7 -111v-2q0 -10 -11 -10h-68q-5 0 -7 1.5t-3 6.5
q-7 47 -9 66q-45 -45 -84 -65.5t-83 -20.5q-98 0 -124 91q-47 -48 -87 -69.5t-86 -21.5q-65 0 -99 42z" />
    <glyph glyph-name="uni0449" unicode="&#x449;" horiz-adv-x="841" 
d="M828 78q3 -3 3 -8v-180q0 -5 -3 -8t-8 -3h-68q-10 0 -10 11v110h-54q-5 0 -7 1.5t-3 6.5q-7 47 -9 66q-45 -45 -84 -65.5t-83 -20.5q-98 0 -124 91q-47 -48 -87 -69.5t-86 -21.5q-65 0 -99 42t-34 124v325q0 10 10 10h74q5 0 8 -3t3 -7v-316q0 -92 65 -92q30 0 61.5 19
t74.5 61v328q0 4 3 7t8 3h74q10 0 10 -10v-316q0 -92 66 -92q29 0 61.5 19t74.5 61v328q0 10 11 10h74q10 0 10 -10v-356q0 -28 1 -42h59q5 0 8 -3z" />
    <glyph glyph-name="uni044A" unicode="&#x44a;" horiz-adv-x="584" 
d="M495 326.5q37 -39.5 37 -115.5v-44q0 -87 -52 -133t-151 -46q-97 0 -141 44t-44 141v235h-115q-4 0 -7 3t-3 8v60q0 10 10 10h199q5 0 8 -3t3 -7v-180q33 33 69.5 50t80.5 17q69 0 106 -39.5zM435 207q0 77 -74 77q-69 0 -122 -68v-57q0 -93 96 -93q47 0 73.5 24.5
t26.5 69.5v47z" />
    <glyph glyph-name="uni044B" unicode="&#x44b;" horiz-adv-x="726" 
d="M423 326.5q37 -39.5 37 -115.5v-44q0 -87 -52 -133t-151 -46q-97 0 -141 44t-44 141v306q0 10 10 10h74q5 0 8 -3t3 -7v-180q33 33 69.5 50t80.5 17q69 0 106 -39.5zM363 207q0 77 -75 77q-68 0 -121 -68v-57q0 -93 96 -93q47 0 73.5 24.5t26.5 69.5v47zM559 11v468
q0 10 10 10h74q5 0 8 -3t3 -7v-468q0 -5 -3 -8t-8 -3h-74q-10 0 -10 11z" />
    <glyph glyph-name="uni044C" unicode="&#x44c;" horiz-adv-x="512" 
d="M423 326.5q37 -39.5 37 -115.5v-44q0 -87 -52 -133t-151 -46q-97 0 -141 44t-44 141v306q0 10 10 10h74q5 0 8 -3t3 -7v-180q33 33 69.5 50t80.5 17q69 0 106 -39.5zM363 207q0 77 -75 77q-68 0 -121 -68v-57q0 -93 96 -93q47 0 73.5 24.5t26.5 69.5v47z" />
    <glyph glyph-name="uni044D" unicode="&#x44d;" horiz-adv-x="511" 
d="M102 22.5q-53 34.5 -53 90.5q0 15 2.5 21.5t9.5 6.5h74q9 0 9 -14q0 -27 26 -41.5t75 -14.5q59 0 86 22.5t27 71.5v48h-201q-10 0 -10 10v50q0 10 10 10h201v43q0 47 -27 69.5t-82 22.5q-46 0 -71.5 -14.5t-25.5 -39.5q0 -14 -10 -14h-73q-8 0 -10.5 5.5t-2.5 21.5
q0 57 53 90.5t146 33.5q198 0 198 -176v-151q0 -186 -204 -186q-94 0 -147 34.5z" />
    <glyph glyph-name="uni044E" unicode="&#x44e;" horiz-adv-x="735" 
d="M623.5 451q52.5 -50 52.5 -146v-120q0 -97 -52.5 -147t-151.5 -50t-151 50t-52 147v24h-102v-198q0 -5 -3 -8t-8 -3h-74q-10 0 -10 11v661q0 11 10 11h74q5 0 8 -3t3 -8v-383h102v16q0 96 52 146t151 50t151.5 -50zM581 296q0 122 -109 122q-108 0 -108 -122v-103
q0 -122 108 -122q109 0 109 122v103z" />
    <glyph glyph-name="uni044F" unicode="&#x44f;" horiz-adv-x="510" 
d="M34 3.5q-2 3.5 1 9.5l69 107l16 24q22 34 34 51v1q-98 29 -98 137q0 77 46.5 116.5t135.5 39.5h190q10 0 10 -10v-468q0 -11 -10 -11h-74q-11 0 -11 11v171h-96l-107 -175q-4 -7 -13 -7h-85q-6 0 -8 3.5zM343 258v152h-104q-49 0 -69 -19t-20 -58q0 -41 24.5 -58
t78.5 -17h90z" />
    <glyph glyph-name="uni0450" unicode="&#x450;" horiz-adv-x="522" 
d="M111 33.5q-52 45.5 -52 135.5v136q0 96 51.5 146t151.5 50t151.5 -48.5t51.5 -142.5v-78q0 -10 -10 -10h-302v-32q0 -64 27 -92.5t87 -28.5q45 0 69.5 15t24.5 43q0 5 3 8t8 3h74q8 0 10 -9q4 -66 -47.5 -103.5t-145.5 -37.5q-100 0 -152 45.5zM371 297v5q0 60 -26.5 89
t-80.5 29q-111 0 -111 -119v-4h218zM244 574l-85 123l-2 5q0 6 7 6h76q5 0 8 -1.5t5 -5.5l67 -123q1 -2 1 -5q0 -6 -7 -6h-58q-9 0 -12 7z" />
    <glyph glyph-name="uni0451" unicode="&#x451;" horiz-adv-x="522" 
d="M111 33.5q-52 45.5 -52 135.5v136q0 96 51.5 146t151.5 50t151.5 -48.5t51.5 -142.5v-78q0 -10 -10 -10h-302v-32q0 -64 27 -92.5t87 -28.5q45 0 69.5 15t24.5 43q0 5 3 8t8 3h74q8 0 10 -9q4 -66 -47.5 -103.5t-145.5 -37.5q-100 0 -152 45.5zM371 297v5q0 60 -26.5 89
t-80.5 29q-111 0 -111 -119v-4h218zM129.5 593.5q-13.5 14.5 -13.5 39.5v11q0 25 13.5 39t41.5 14t42 -14t14 -39v-11q0 -25 -14 -39.5t-42 -14.5t-41.5 14.5zM304.5 593.5q-13.5 14.5 -13.5 39.5v11q0 53 55 53t55 -53v-11q0 -25 -13.5 -39.5t-41.5 -14.5t-41.5 14.5z" />
    <glyph glyph-name="uni0452" unicode="&#x452;" horiz-adv-x="559" 
d="M360 -192q-3 0 -8 5l-45 54q-2 2 -2 7t5 8q81 55 81 186v258q0 92 -77 92q-35 0 -70.5 -19.5t-75.5 -59.5v-328q0 -5 -3 -8t-8 -3h-74q-10 0 -10 11v541h-68q-4 0 -7.5 3.5t-3.5 7.5v52q0 5 3 8t8 3h68v46q0 11 10 11h74q5 0 8 -3t3 -8v-46h102q5 0 8 -3t3 -8v-52
q0 -4 -3 -7.5t-8 -3.5h-102v-132q42 42 83 61.5t89 19.5q72 0 109 -42t37 -124v-272q0 -92 -28.5 -154t-91.5 -99q-4 -2 -6 -2z" />
    <glyph glyph-name="uni0453" unicode="&#x453;" horiz-adv-x="479" 
d="M92 17q-44 29 -44 100q0 54 25.5 88t80.5 55l113 43q35 13 48 28t13 40q0 27 -20 39t-65 12q-93 0 -93 -55q0 -15 -9 -15h-73q-10 0 -12 15q-6 60 43.5 97t143.5 37q88 0 134 -32.5t46 -97.5q0 -52 -24.5 -83.5t-80.5 -52.5l-116 -43q-32 -12 -45.5 -28.5t-13.5 -42.5
q0 -32 21.5 -43.5t70.5 -11.5q102 2 102 63q0 15 9 15h73q7 0 9 -4.5t2 -21.5q0 -62 -48.5 -96t-151.5 -34q-94 0 -138 29zM178.5 559q-1.5 3 0.5 8l67 123q3 7 12 7h76q6 0 7.5 -3.5t-1.5 -7.5l-85 -123q-5 -7 -12 -7h-58q-5 0 -6.5 3z" />
    <glyph glyph-name="uni0454" unicode="&#x454;" horiz-adv-x="519" 
d="M59 174v151q0 176 198 176q93 0 145.5 -33.5t52.5 -90.5q0 -16 -2.5 -21.5t-9.5 -5.5h-74q-5 0 -7 3t-2 11q0 25 -25.5 39.5t-71.5 14.5q-55 0 -82 -22.5t-27 -69.5v-43h201q10 0 10 -10v-50q0 -10 -10 -10h-201v-48q0 -49 26.5 -71.5t85.5 -22.5q49 0 75 14.5t26 40.5
q0 15 10 15h73q7 0 10 -7t3 -23q0 -55 -53.5 -89t-146.5 -34q-204 0 -204 186z" />
    <glyph glyph-name="uni0455" unicode="&#x455;" horiz-adv-x="466" 
d="M96.5 26.5q-45.5 38.5 -45.5 117.5q0 12 10 12h74q9 0 9 -9q0 -42 21.5 -61t68.5 -19q94 0 94 60q0 21 -13.5 36.5t-43.5 28.5l-114 47q-54 23 -77 52t-23 76q0 134 171 134q88 0 135.5 -36t47.5 -101q0 -10 -11 -10h-73q-10 0 -10 16q0 25 -22.5 39t-62.5 14
q-41 0 -60.5 -13.5t-19.5 -42.5q0 -21 10.5 -31.5t45.5 -25.5l114 -48q54 -22 77.5 -52t23.5 -78q0 -70 -48.5 -107t-140.5 -37t-137.5 38.5z" />
    <glyph glyph-name="uni0456" unicode="&#x456;" horiz-adv-x="238" 
d="M72 11v468q0 10 10 10h74q5 0 8 -3t3 -7v-468q0 -5 -3 -8t-8 -3h-74q-10 0 -10 11zM74.5 583.5q-14.5 15.5 -14.5 42.5v11q0 27 14.5 42.5t44.5 15.5t44.5 -15.5t14.5 -42.5v-11q0 -27 -14.5 -42.5t-44.5 -15.5t-44.5 15.5z" />
    <glyph glyph-name="uni0457" unicode="&#x457;" horiz-adv-x="238" 
d="M72 11v468q0 10 10 10h74q5 0 8 -3t3 -7v-468q0 -5 -3 -8t-8 -3h-74q-10 0 -10 11zM-10.5 582.5q-13.5 14.5 -13.5 39.5v11q0 25 13.5 39t41.5 14t42 -14t14 -39v-11q0 -25 -14 -39.5t-42 -14.5t-41.5 14.5zM164.5 582.5q-13.5 14.5 -13.5 39.5v11q0 53 55 53t55 -53v-11
q0 -25 -13.5 -39.5t-41.5 -14.5t-41.5 14.5z" />
    <glyph glyph-name="uni0458" unicode="&#x458;" horiz-adv-x="239" 
d="M40 -192q-3 0 -8 5l-44 54q-3 4 -3 7q0 5 6 8q81 57 81 186v411q0 10 10 10h74q5 0 8 -3t3 -7v-416q0 -92 -29 -154t-92 -99q-4 -2 -6 -2zM75.5 583.5q-14.5 15.5 -14.5 42.5v11q0 27 14.5 42.5t44.5 15.5t44.5 -15.5t14.5 -42.5v-11q0 -27 -14.5 -42.5t-44.5 -15.5
t-44.5 15.5z" />
    <glyph glyph-name="uni0459" unicode="&#x459;" horiz-adv-x="742" 
d="M386 15q-38 27 -61 93l-55 161l-11 33l-27 82h-2q-14 -53 -37 -117l-89 -258q-3 -9 -11 -9h-80q-5 0 -7.5 3.5t-0.5 9.5l169 462q3 8 6.5 11t10.5 3h82q7 0 10.5 -3t6.5 -11l75 -208q78 99 183 99q69 0 106 -39.5t37 -115.5v-44q0 -87 -50.5 -133t-142.5 -46
q-74 0 -112 27zM569 90.5q25 24.5 25 69.5v47q0 38 -19 57.5t-55 19.5t-69.5 -21.5t-61.5 -61.5l23 -65q16 -42 34 -56t53 -14q45 0 70 24.5z" />
    <glyph glyph-name="uni045A" unicode="&#x45a;" horiz-adv-x="818" 
d="M730 326.5q37 -39.5 37 -115.5v-44q0 -87 -52 -133t-151 -46q-97 0 -141.5 44t-44.5 141v36h-211v-198q0 -5 -3 -8t-8 -3h-74q-10 0 -10 11v468q0 10 10 10h74q5 0 8 -3t3 -7v-189h211v189q0 4 3 7t8 3h74q10 0 10 -10v-181q66 68 151 68q69 0 106 -39.5zM670 207
q0 77 -75 77q-69 0 -122 -70v-55q0 -46 24.5 -69.5t71.5 -23.5q48 0 74.5 24.5t26.5 69.5v47z" />
    <glyph glyph-name="uni045B" unicode="&#x45b;" horiz-adv-x="558" 
d="M449 459q37 -42 37 -124v-324q0 -11 -10 -11h-74q-11 0 -11 11v315q0 92 -77 92q-35 0 -70.5 -19.5t-75.5 -59.5v-328q0 -5 -3 -8t-8 -3h-74q-10 0 -10 11v541h-68q-4 0 -7.5 3.5t-3.5 7.5v52q0 5 3 8t8 3h68v46q0 11 10 11h74q5 0 8 -3t3 -8v-46h100q11 0 11 -11v-52
q0 -5 -3 -8t-8 -3h-100v-132q43 42 83.5 61.5t88.5 19.5q72 0 109 -42z" />
    <glyph glyph-name="uni045C" unicode="&#x45c;" horiz-adv-x="492" 
d="M490 7q0 -7 -10 -7h-88q-9 0 -13 6l-145 216h-67v-211q0 -5 -3 -8t-8 -3h-74q-10 0 -10 11v661q0 11 10 11h74q5 0 8 -3t3 -8v-373h65l134 184q5 6 14 6h85q6 0 8 -3.5t-2 -8.5l-156 -208l173 -256q2 -4 2 -6zM222.5 559q-1.5 3 0.5 8l67 123q3 7 12 7h76q6 0 7.5 -3.5
t-1.5 -7.5l-85 -123q-5 -7 -12 -7h-58q-5 0 -6.5 3z" />
    <glyph glyph-name="uni045D" unicode="&#x45d;" horiz-adv-x="543" 
d="M478 9q0 -9 -11 -9h-63q-12 0 -13 10q-6 42 -7 66q-93 -88 -180 -88q-64 0 -98 42.5t-34 123.5v325q0 10 10 10h74q5 0 8 -3t3 -7v-316q0 -47 16.5 -69.5t51.5 -22.5q32 0 65 18.5t77 61.5v328q0 10 10 10h74q5 0 8 -3t3 -7v-356q0 -69 6 -112v-2zM255 563l-85 123l-2 5
q0 6 7 6h76q5 0 8 -1.5t5 -5.5l67 -123q1 -2 1 -5q0 -6 -7 -6h-58q-9 0 -12 7z" />
    <glyph glyph-name="uni045E" unicode="&#x45e;" horiz-adv-x="502" 
d="M137 -181.5q-2 3.5 0 9.5l70 177l-184 472q-1 2 -1 5q0 7 8 7h81q8 0 11 -8l85 -231q20 -53 34 -101q4 -10 10 -30h2l20 60t16 47l9 24l84 231q3 8 13 8h77q5 0 7.5 -3.5t0.5 -8.5l-251 -654q-3 -8 -11 -8h-74q-5 0 -7 3.5zM174.5 572q-30.5 16 -47.5 34q-4 4 -4 12v58
q0 6 3 8t9 -2q19 -19 48.5 -34.5t65.5 -15.5t65.5 15.5t48.5 34.5q4 3 7 3q5 0 5 -9v-58q0 -8 -4 -13q-23 -20 -50.5 -34.5t-71.5 -14.5t-74.5 16z" />
    <glyph glyph-name="uni045F" unicode="&#x45f;" horiz-adv-x="543" 
d="M478 9q0 -9 -11 -9h-63q-12 0 -13 10q-6 42 -7 66q-47 -44 -91 -66v-120q0 -11 -11 -11h-66q-11 0 -11 11v98h-1q-64 0 -98 42.5t-34 123.5v325q0 10 10 10h74q5 0 8 -3t3 -7v-316q0 -47 16.5 -69.5t51.5 -22.5q32 0 65 18.5t77 61.5v328q0 10 10 10h74q5 0 8 -3t3 -7
v-356q0 -69 6 -112v-2z" />
    <glyph glyph-name="uni0490" unicode="&#x490;" horiz-adv-x="476" 
d="M444 790q3 -3 3 -8v-202q0 -11 -10 -11h-260v-558q0 -11 -10 -11h-75q-10 0 -10 11v633q0 11 10 11h263v127q0 5 3 8t7 3h72q4 0 7 -3z" />
    <glyph glyph-name="uni0491" unicode="&#x491;" horiz-adv-x="427" 
d="M53.5 -9.5q-15.5 2.5 -35.5 10.5q-9 3 -9 11l1 61q0 5 3.5 7t9.5 0q27 -12 51 -12q17 0 24.5 13t10.5 52l11 175q6 97 41.5 142.5t115.5 45.5q61 0 73 36q3 11 3 24v16q0 8 12 8h63q5 0 6.5 -3t1.5 -10q0 -38 -5.5 -64t-18.5 -42q-17 -21 -41.5 -32t-71.5 -12
q-43 -1 -61 -26.5t-23 -89.5l-12 -156q-6 -85 -32.5 -121t-80.5 -36q-21 0 -36.5 2.5z" />
    <glyph glyph-name="uni04C0" unicode="&#x4c0;" horiz-adv-x="259" 
d="M82 11v633q0 11 10 11h75q10 0 10 -11v-633q0 -11 -10 -11h-75q-10 0 -10 11z" />
    <glyph glyph-name="uni04CF" unicode="&#x4cf;" horiz-adv-x="238" 
d="M72 11v661q0 11 10 11h74q5 0 8 -3t3 -8v-661q0 -5 -3 -8t-8 -3h-74q-10 0 -10 11z" />
    <glyph glyph-name="uni04E2" unicode="&#x4e2;" horiz-adv-x="660" 
d="M82 11v633q0 11 10 11h72q5 0 8 -3t3 -8v-298q0 -80 -5 -180q-2 -26 -2 -37h2q50 96 122 217l181 302q5 7 12 7h83q5 0 8 -3t3 -8v-633q0 -5 -3 -8t-8 -3h-72q-5 0 -8 3t-3 8v286q0 133 8 229h-2q-48 -91 -131 -229l-173 -290q-5 -7 -12 -7h-83q-10 0 -10 11zM209 727v57
q0 10 11 10h219q10 0 10 -10v-57q0 -10 -10 -10h-219q-11 0 -11 10z" />
    <glyph glyph-name="uni04E3" unicode="&#x4e3;" horiz-adv-x="543" 
d="M478 9q0 -9 -11 -9h-63q-12 0 -13 10q-6 42 -7 66q-93 -88 -180 -88q-64 0 -98 42.5t-34 123.5v325q0 10 10 10h74q5 0 8 -3t3 -7v-316q0 -47 16.5 -69.5t51.5 -22.5q32 0 65 18.5t77 61.5v328q0 10 10 10h74q5 0 8 -3t3 -7v-356q0 -69 6 -112v-2zM161 581v56q0 10 11 10
h199q10 0 10 -10v-56q0 -11 -10 -11h-199q-11 0 -11 11z" />
    <glyph glyph-name="uni04EE" unicode="&#x4ee;" horiz-adv-x="555" 
d="M128.5 3.5q-2.5 3.5 0.5 9.5l106 216l-212 413q-1 2 -1 6q0 7 9 7h84q10 0 13 -7l110 -226l11 -22q27 -56 35 -76h2q14 34 46 98l111 226q3 7 13 7h81q6 0 8 -3.5t0 -9.5l-322 -635q-3 -7 -12 -7h-75q-5 0 -7.5 3.5zM163 727v57q0 10 11 10h219q10 0 10 -10v-57
q0 -10 -10 -10h-219q-11 0 -11 10z" />
    <glyph glyph-name="uni04EF" unicode="&#x4ef;" horiz-adv-x="502" 
d="M137 -181.5q-2 3.5 0 9.5l70 177l-184 472q-1 2 -1 5q0 7 8 7h81q8 0 11 -8l85 -231q20 -53 34 -101q4 -10 10 -30h2l20 60t16 47l9 24l84 231q3 8 13 8h77q5 0 7.5 -3.5t0.5 -8.5l-251 -654q-3 -8 -11 -8h-74q-5 0 -7 3.5zM138 581v56q0 10 11 10h199q10 0 10 -10v-56
q0 -11 -10 -11h-199q-11 0 -11 11z" />
    <glyph glyph-name="Wgrave" unicode="&#x1e80;" horiz-adv-x="855" 
d="M201 9l-181 634l-1 4q0 8 10 8h76q10 0 11 -9l110 -396q6 -20 13 -48.5t11 -45.5l13 -54h2q13 46 41 138l82 268l-36 125q-1 1 -1 4q0 7 10 7h77q9 0 11 -9l110 -402q15 -55 34 -131h1q24 104 36 147l106 397q2 9 11 9h78q13 0 10 -12l-175 -634q-1 -9 -12 -9h-102
q-10 0 -12 9l-65 226q-16 57 -37 134h-1l-40 -132l-68 -229q-3 -8 -12 -8h-98q-10 0 -12 9zM407 716l-74 103q-2 4 -2 6q0 7 7 7h79q8 0 11 -8l57 -104l2 -5q0 -5 -8 -5h-60q-7 0 -12 6z" />
    <glyph glyph-name="wgrave" unicode="&#x1e81;" horiz-adv-x="724" 
d="M171 9l-146 469l-1 4q0 7 10 7h79q8 0 11 -9l75 -266l34 -129h3q21 68 28 88q3 12 11 36l50 158l-29 100l-1 4q0 8 10 8h70q10 0 12 -8l70 -262q6 -20 16 -62l15 -62h2l6 22q18 70 28 105l75 268q3 9 12 9h79q11 0 8 -11l-146 -469q-3 -9 -12 -9h-97q-8 0 -11 9l-30 96
q-24 90 -36 146h-3q-16 -67 -40 -143l-32 -99q-3 -9 -12 -9h-96q-9 0 -12 9zM346 563l-85 123l-2 5q0 6 7 6h76q5 0 8 -1.5t5 -5.5l67 -123q1 -2 1 -5q0 -6 -7 -6h-58q-9 0 -12 7z" />
    <glyph glyph-name="Wacute" unicode="&#x1e82;" horiz-adv-x="855" 
d="M201 9l-181 634l-1 4q0 8 10 8h76q10 0 11 -9l110 -396q6 -20 13 -48.5t11 -45.5l13 -54h2q13 46 41 138l82 268l-36 125q-1 1 -1 4q0 7 10 7h77q9 0 11 -9l110 -402q15 -55 34 -131h1q24 104 36 147l106 397q2 9 11 9h78q13 0 10 -12l-175 -634q-1 -9 -12 -9h-102
q-10 0 -12 9l-65 226q-16 57 -37 134h-1l-40 -132l-68 -229q-3 -8 -12 -8h-98q-10 0 -12 9zM370 720l57 104q3 8 11 8h78q6 0 7.5 -4t-2.5 -9l-74 -103q-4 -6 -11 -6h-61q-10 0 -5 10z" />
    <glyph glyph-name="wacute" unicode="&#x1e83;" horiz-adv-x="724" 
d="M171 9l-146 469l-1 4q0 7 10 7h79q8 0 11 -9l75 -266l34 -129h3q21 68 28 88q3 12 11 36l50 158l-29 100l-1 4q0 8 10 8h70q10 0 12 -8l70 -262q6 -20 16 -62l15 -62h2l6 22q18 70 28 105l75 268q3 9 12 9h79q11 0 8 -11l-146 -469q-3 -9 -12 -9h-97q-8 0 -11 9l-30 96
q-24 90 -36 146h-3q-16 -67 -40 -143l-32 -99q-3 -9 -12 -9h-96q-9 0 -12 9zM300.5 559q-1.5 3 0.5 8l67 123q3 7 12 7h76q6 0 7.5 -3.5t-1.5 -7.5l-85 -123q-5 -7 -12 -7h-58q-5 0 -6.5 3z" />
    <glyph glyph-name="Wdieresis" unicode="&#x1e84;" horiz-adv-x="855" 
d="M201 9l-181 634l-1 4q0 8 10 8h76q10 0 11 -9l110 -396q6 -20 13 -48.5t11 -45.5l13 -54h2q13 46 41 138l82 268l-36 125q-1 1 -1 4q0 7 10 7h77q9 0 11 -9l110 -402q15 -55 34 -131h1q24 104 36 147l106 397q2 9 11 9h78q13 0 10 -12l-175 -634q-1 -9 -12 -9h-102
q-10 0 -12 9l-65 226q-16 57 -37 134h-1l-40 -132l-68 -229q-3 -8 -12 -8h-98q-10 0 -12 9zM298.5 724.5q-13.5 14.5 -13.5 39.5v11q0 25 13.5 39.5t41.5 14.5t42 -14.5t14 -39.5v-11q0 -25 -14 -39.5t-42 -14.5t-41.5 14.5zM472.5 724.5q-13.5 14.5 -13.5 39.5v11
q0 25 13.5 39.5t41.5 14.5t42 -14.5t14 -39.5v-11q0 -25 -14 -39.5t-42 -14.5t-41.5 14.5z" />
    <glyph glyph-name="wdieresis" unicode="&#x1e85;" horiz-adv-x="724" 
d="M171 9l-146 469l-1 4q0 7 10 7h79q8 0 11 -9l75 -266l34 -129h3q21 68 28 88q3 12 11 36l50 158l-29 100l-1 4q0 8 10 8h70q10 0 12 -8l70 -262q6 -20 16 -62l15 -62h2l6 22q18 70 28 105l75 268q3 9 12 9h79q11 0 8 -11l-146 -469q-3 -9 -12 -9h-97q-8 0 -11 9l-30 96
q-24 90 -36 146h-3q-16 -67 -40 -143l-32 -99q-3 -9 -12 -9h-96q-9 0 -12 9zM232.5 582.5q-13.5 14.5 -13.5 39.5v11q0 25 13.5 39t41.5 14t42 -14t14 -39v-11q0 -25 -14 -39.5t-42 -14.5t-41.5 14.5zM407.5 582.5q-13.5 14.5 -13.5 39.5v11q0 53 55 53t55 -53v-11
q0 -25 -13.5 -39.5t-41.5 -14.5t-41.5 14.5z" />
    <glyph glyph-name="uni1E9E" unicode="&#x1e9e;" horiz-adv-x="655" 
d="M273.5 23q-44.5 35 -44.5 96q0 18 3 23t11 5h68q10 0 10 -16q0 -60 82 -60q58 0 86 30.5t28 94.5q0 67 -34 96t-114 29h-51q-5 0 -8 3t-3 8v38q0 7 4 14l114 185h-248v-558q0 -11 -10 -11h-75q-10 0 -10 11v633q0 11 10 11h467q11 0 11 -12q0 -4 -4 -12l-146 -235
q193 -13 193 -199q0 -102 -54.5 -155.5t-157.5 -53.5q-83 0 -127.5 35z" />
    <glyph glyph-name="Ygrave" unicode="&#x1ef2;" horiz-adv-x="544" 
d="M224 11v214l-214 417q-1 2 -1 6q0 7 8 7h87q9 0 12 -7l104 -215l52 -111h1l53 113l103 213q3 7 13 7h84q5 0 7.5 -3.5t-0.5 -9.5l-213 -417v-214q0 -5 -3 -8t-8 -3h-75q-10 0 -10 11zM251 716l-74 103q-2 4 -2 6q0 7 7 7h79q8 0 11 -8l57 -104l2 -5q0 -5 -8 -5h-60
q-7 0 -12 6z" />
    <glyph glyph-name="ygrave" unicode="&#x1ef3;" horiz-adv-x="502" 
d="M137 -181.5q-2 3.5 0 9.5l70 177l-184 472q-1 2 -1 5q0 7 8 7h81q8 0 11 -8l85 -231q20 -53 34 -101q4 -10 10 -30h2l20 60t16 47l9 24l84 231q3 8 13 8h77q5 0 7.5 -3.5t0.5 -8.5l-251 -654q-3 -8 -11 -8h-74q-5 0 -7 3.5zM233 563l-85 123l-2 5q0 6 7 6h76q5 0 8 -1.5
t5 -5.5l67 -123q1 -2 1 -5q0 -6 -7 -6h-58q-9 0 -12 7z" />
    <glyph glyph-name="uni2007" unicode="&#x2007;" horiz-adv-x="519" 
 />
    <glyph glyph-name="uni2008" unicode="&#x2008;" horiz-adv-x="211" 
 />
    <glyph glyph-name="uni200B" unicode="&#x200b;" horiz-adv-x="9" 
 />
    <glyph glyph-name="endash" unicode="&#x2013;" horiz-adv-x="739" 
d="M70 232q-3 3 -3 8v51q0 11 10 11h585q10 0 10 -11v-51q0 -5 -3 -8t-7 -3h-585q-4 0 -7 3z" />
    <glyph glyph-name="emdash" unicode="&#x2014;" horiz-adv-x="879" 
d="M70 232q-3 3 -3 8v51q0 11 10 11h725q10 0 10 -11v-51q0 -5 -3 -8t-7 -3h-725q-4 0 -7 3z" />
    <glyph glyph-name="quoteleft" unicode="&#x2018;" horiz-adv-x="242" 
d="M212 642l-51 -224q-1 -4 -3.5 -7t-6.5 -3h-87q-7 0 -9 4.5t0 10.5l75 224q3 8 10 8h62q13 0 10 -13z" />
    <glyph glyph-name="quoteright" unicode="&#x2019;" horiz-adv-x="242" 
d="M30 422l50 224q2 9 11 9h87q6 0 8.5 -4t-0.5 -10l-75 -225q-3 -7 -10 -7h-62q-12 0 -9 13z" />
    <glyph glyph-name="quotesinglbase" unicode="&#x201a;" horiz-adv-x="242" 
d="M30 -118l50 224q2 9 11 9h87q6 0 8.5 -4t-0.5 -10l-75 -225q-3 -7 -10 -7h-62q-12 0 -9 13z" />
    <glyph glyph-name="quotedblleft" unicode="&#x201c;" horiz-adv-x="408" 
d="M212 642l-51 -224q-1 -4 -3.5 -7t-6.5 -3h-87q-7 0 -9 4.5t0 10.5l75 224q3 8 10 8h62q13 0 10 -13zM376.5 651.5q2.5 -3.5 1.5 -9.5l-51 -224q-1 -4 -3.5 -7t-6.5 -3h-87q-7 0 -9 4.5t0 10.5l75 224q3 8 10 8h62q6 0 8.5 -3.5z" />
    <glyph glyph-name="quotedblright" unicode="&#x201d;" horiz-adv-x="408" 
d="M30 422l50 224q2 9 11 9h87q6 0 8.5 -4t-0.5 -10l-75 -225q-3 -7 -10 -7h-62q-12 0 -9 13zM196 422l50 224q2 9 11 9h87q6 0 8.5 -4t-0.5 -10l-75 -225q-3 -7 -10 -7h-62q-12 0 -9 13z" />
    <glyph glyph-name="quotedblbase" unicode="&#x201e;" horiz-adv-x="408" 
d="M30 -118l50 224q2 9 11 9h87q6 0 8.5 -4t-0.5 -10l-75 -225q-3 -7 -10 -7h-62q-12 0 -9 13zM196 -118l50 224q2 9 11 9h87q6 0 8.5 -4t-0.5 -10l-75 -225q-3 -7 -10 -7h-62q-12 0 -9 13z" />
    <glyph glyph-name="dagger" unicode="&#x2020;" horiz-adv-x="493" 
d="M203 3q-3 3 -3 8v390h-169q-11 0 -11 11v65q0 11 11 11h169v156q0 5 3 8t8 3h72q10 0 10 -11v-156h170q10 0 10 -11v-65q0 -11 -10 -11h-170v-390q0 -11 -10 -11h-72q-5 0 -8 3z" />
    <glyph glyph-name="daggerdbl" unicode="&#x2021;" horiz-adv-x="511" 
d="M209 11v145h-170q-10 0 -10 11v65q0 11 10 11h170v169h-170q-10 0 -10 11v65q0 11 10 11h170v145q0 11 11 11h72q10 0 10 -11v-145h170q10 0 10 -11v-65q0 -11 -10 -11h-170v-169h170q10 0 10 -11v-65q0 -11 -10 -11h-170v-145q0 -11 -10 -11h-72q-11 0 -11 11z" />
    <glyph glyph-name="bullet" unicode="&#x2022;" horiz-adv-x="306" 
d="M87.5 186.5q-23.5 19.5 -23.5 54.5v43q0 36 23.5 55t65.5 19q43 0 66.5 -19t23.5 -55v-43q0 -35 -23.5 -54.5t-66.5 -19.5q-42 0 -65.5 19.5z" />
    <glyph glyph-name="ellipsis" unicode="&#x2026;" horiz-adv-x="716" 
d="M74 4.5q-15 16.5 -15 44.5v12q0 60 62 60t62 -60v-12q0 -28 -15 -44.5t-47 -16.5t-47 16.5zM311 4.5q-15 16.5 -15 44.5v12q0 60 62 60t62 -60v-12q0 -28 -15 -44.5t-47 -16.5t-47 16.5zM548 4.5q-15 16.5 -15 44.5v12q0 60 62 60t62 -60v-12q0 -28 -15 -44.5t-47 -16.5
t-47 16.5z" />
    <glyph glyph-name="perthousand" unicode="&#x2030;" horiz-adv-x="1353" 
d="M100 356.5q-43 41.5 -43 119.5v30q0 77 43.5 119t127.5 42t126.5 -41.5t42.5 -119.5v-30q0 -78 -43 -119.5t-126 -41.5q-85 0 -128 41.5zM236 3.5q-2 3.5 1 9.5l198 329l178 307q6 8 13 8h73q6 0 8 -3.5t-1 -9.5l-187 -310l-189 -327q-5 -7 -13 -7h-73q-6 0 -8 3.5z
M295 407q21 21 21 68v32q0 48 -21 68.5t-67 20.5q-47 0 -68 -21t-21 -68v-32q0 -47 21 -68t68 -21q46 0 67 21zM588.5 29.5q-42.5 41.5 -42.5 119.5v30q0 78 43 119.5t126 41.5q85 0 128 -41.5t43 -119.5v-30q0 -77 -43.5 -119t-127.5 -42t-126.5 41.5zM999 29.5
q-43 41.5 -43 119.5v30q0 78 43 119.5t127 41.5t126.5 -41.5t42.5 -119.5v-30q0 -78 -42.5 -119.5t-126.5 -41.5t-127 41.5zM783 80q21 21 21 68v32q0 47 -21 68t-68 21q-46 0 -67 -21t-21 -68v-32q0 -48 21 -68.5t67 -20.5q47 0 68 21zM1193.5 80q20.5 21 20.5 68v32
q0 48 -20.5 68.5t-67.5 20.5q-46 0 -67.5 -21t-21.5 -68v-32q0 -47 21 -68t68 -21t67.5 21z" />
    <glyph glyph-name="guilsinglleft" unicode="&#x2039;" horiz-adv-x="327" 
d="M161 99l-92 157q-2 4 -2 7q0 4 2 8l92 156q5 8 13 8h74q5 0 7.5 -4t-0.5 -9l-86 -159l86 -159l2 -5q0 -3 -2.5 -5t-6.5 -2h-74q-8 0 -13 7z" />
    <glyph glyph-name="guilsinglright" unicode="&#x203a;" horiz-adv-x="327" 
d="M71.5 95.5q-2.5 3.5 0.5 8.5l87 159l-87 159l-2 5q0 8 9 8h74q8 0 13 -8l92 -156q5 -8 0 -15l-92 -157q-5 -7 -13 -7h-74q-5 0 -7.5 3.5z" />
    <glyph glyph-name="fraction" unicode="&#x2044;" horiz-adv-x="135" 
d="M-148 -27.5q-2 3.5 0 8.5l186 370l159 328q4 7 12 7h66q5 0 7.5 -3.5t-0.5 -8.5l-176 -350l-169 -348q-3 -7 -12 -7h-66q-5 0 -7 3.5z" />
    <glyph glyph-name="uni2070" unicode="&#x2070;" horiz-adv-x="411" 
d="M88.5 382.5q-40.5 39.5 -40.5 111.5v130q0 72 40.5 111.5t115.5 39.5q76 0 116.5 -39.5t40.5 -111.5v-130q0 -72 -40.5 -111.5t-116.5 -39.5q-75 0 -115.5 39.5zM281 491v137q0 75 -77 75q-76 0 -76 -75v-137q0 -76 76 -76q77 0 77 76z" />
    <glyph glyph-name="uni2074" unicode="&#x2074;" horiz-adv-x="411" 
d="M248 361v65h-207q-11 0 -11 10v7q0 8 4 16l164 299q3 6 6 8t8 2h61q7 0 9.5 -3.5t-1.5 -9.5l-140 -257h108l2 127q0 10 10 10h55q10 0 10 -10v-127h40q11 0 11 -10v-52q0 -10 -11 -10h-40v-65q0 -11 -10 -11h-57q-11 0 -11 11z" />
    <glyph glyph-name="uni2075" unicode="&#x2075;" horiz-adv-x="411" 
d="M54 463q0 13 10 13h58q10 0 10 -10q0 -53 61 -53q43 0 62 15t19 47v17q0 34 -17.5 49.5t-59.5 15.5q-54 0 -110 -22q-8 -2 -10 -2q-10 0 -9 13l19 212q2 10 11 10h222q11 0 11 -10v-51q0 -5 -3 -8t-8 -3h-162l-6 -81q38 8 64 8q68 0 103 -35.5t35 -101.5
q0 -70 -40.5 -106.5t-118.5 -36.5q-141 0 -141 120z" />
    <glyph glyph-name="uni2076" unicode="&#x2076;" horiz-adv-x="411" 
d="M90 380.5q-40 37.5 -40 106.5v145q0 69 41 106t118 37q67 0 103 -25.5t36 -76.5q0 -11 -10 -11h-57q-10 0 -10 11q0 32 -60 32q-43 0 -62 -16.5t-19 -52.5v-42q52 29 108 29q123 0 123 -126q0 -74 -39.5 -114t-115.5 -40t-116 37.5zM262.5 431.5q19.5 18.5 19.5 51.5v21
q0 25 -15 37.5t-47 12.5q-49 0 -90 -29v-39q0 -35 19 -54t57 -19q37 0 56.5 18.5z" />
    <glyph glyph-name="uni2077" unicode="&#x2077;" horiz-adv-x="411" 
d="M104 355q-2 5 0 10l151 330h-133v-43q0 -4 -3 -7.5t-8 -3.5h-52q-4 0 -7.5 3.5t-3.5 7.5v106q0 4 3 7t8 3h295q10 0 10 -10v-6q0 -5 -2 -11l-172 -380q-4 -11 -17 -11h-61q-6 0 -8 5z" />
    <glyph glyph-name="uni2078" unicode="&#x2078;" horiz-adv-x="411" 
d="M86 375q-41 32 -41 92q0 35 15 62.5t44 44.5q-43 25 -43 85q0 56 37 86t107 30t107 -30t37 -86q0 -60 -42 -85q29 -16 44 -43.5t15 -63.5q0 -61 -40.5 -92.5t-120.5 -31.5q-78 0 -119 32zM271 653v8q0 46 -66 46q-65 0 -65 -46v-8q0 -24 16.5 -36.5t48.5 -12.5
q66 0 66 49zM267 425.5q20 13.5 20 41.5v9q0 31 -20.5 47.5t-61.5 16.5q-40 0 -60.5 -16.5t-20.5 -47.5v-9q0 -28 19.5 -41.5t61.5 -13.5t62 13.5z" />
    <glyph glyph-name="uni2079" unicode="&#x2079;" horiz-adv-x="411" 
d="M58 450q0 10 10 10h57q5 0 8 -3t3 -7q0 -21 15.5 -29t48.5 -8q43 0 62 17.5t19 55.5v36q-22 -15 -46 -21.5t-55 -6.5q-65 0 -98 33.5t-33 98.5q0 72 39.5 110.5t115.5 38.5t116.5 -38t40.5 -109v-137q0 -73 -40.5 -110.5t-119.5 -37.5q-143 0 -143 107zM281 592v40
q0 35 -19.5 54t-58.5 19q-74 0 -74 -67v-25q0 -51 64 -51q47 0 88 30z" />
    <glyph glyph-name="uni2080" unicode="&#x2080;" horiz-adv-x="411" 
d="M88.5 -75.5q-40.5 39.5 -40.5 111.5v130q0 72 40.5 111.5t115.5 39.5q76 0 116.5 -39.5t40.5 -111.5v-130q0 -72 -40.5 -111.5t-116.5 -39.5q-75 0 -115.5 39.5zM281 33v137q0 75 -77 75q-76 0 -76 -75v-137q0 -76 76 -76q77 0 77 76z" />
    <glyph glyph-name="uni2081" unicode="&#x2081;" horiz-adv-x="411" 
d="M65 -97v51q0 11 10 11h96v257l-90 -27l-5 -1q-7 0 -7 8v51q0 12 10 15l137 43q10 2 14 2h10q10 0 10 -10v-338h85q11 0 11 -11v-51q0 -11 -11 -11h-260q-10 0 -10 11z" />
    <glyph glyph-name="uni2082" unicode="&#x2082;" horiz-adv-x="411" 
d="M57 -97v51q0 38 18 66t42.5 47t65.5 43q43 25 63 43t20 41v13q0 20 -15.5 30t-48.5 10t-48.5 -12t-15.5 -41q0 -10 -10 -10h-57q-10 0 -10 13q0 61 37.5 90.5t108.5 29.5q139 0 139 -112q0 -39 -16.5 -67t-40 -45.5t-61.5 -39.5q-43 -25 -63.5 -43t-23.5 -45h201
q10 0 10 -11v-51q0 -11 -10 -11h-274q-11 0 -11 11z" />
    </font>
</defs>
</svg>
