<?xml version="1.0" standalone="no"?>
<!DOCTYPE svg PUBLIC "-//W3C//DTD SVG 1.1//EN" "http://www.w3.org/Graphics/SVG/1.1/DTD/svg11.dtd" >
<svg xmlns="http://www.w3.org/2000/svg" xmlns:xlink="http://www.w3.org/1999/xlink" version="1.1">
<metadata>
Created by FontForge 20170731 at Tue Jul 23 14:00:52 2019
 By Aleksey,,,
Copyright 2019 The Sofia Sans Project Authors (nikoltchev@lettersoup.de)
</metadata>
<defs>
<font id="SofiaSans-Regular" horiz-adv-x="0" >
  <font-face 
    font-family="Sofia Sans"
    font-weight="400"
    font-stretch="normal"
    units-per-em="1000"
    panose-1="2 11 5 3 6 0 0 2 0 4"
    ascent="800"
    descent="-200"
    x-height="488"
    cap-height="655"
    bbox="-770 -239.5 1293 900.5"
    underline-thickness="50"
    underline-position="-150"
    unicode-range="U+000D-FB02"
  />
<missing-glyph horiz-adv-x="596" 
d="M100 10v663q0 10 10 10h376q10 0 10 -10v-663q0 -10 -10 -10h-376q-10 0 -10 10zM431 65v553h-266v-553h266z" />
    <glyph glyph-name="f_f" unicode="ff" horiz-adv-x="729" 
d="M107 10v405h-77q-10 0 -10 10v53q0 10 10 10h77v52q0 73 43 114t120 41q22 0 46 -4.5t42 -11.5q19 -7 19 -17v-53q0 -8 -8 -8q-6 0 -15 4q-16 7 -38 11.5t-40 4.5q-41 0 -62.5 -21t-21.5 -62v-50h145q10 0 10 -10v-53q0 -10 -10 -10h-145v-405q0 -10 -10 -10h-65
q-10 0 -10 10zM469 10v405h-77q-10 0 -10 10v53q0 10 10 10h77v52q0 73 43 114t120 41q22 0 46 -4.5t42 -11.5q19 -7 19 -17v-53q0 -8 -8 -8q-6 0 -15 4q-16 7 -38 11.5t-40 4.5q-41 0 -62.5 -21t-21.5 -62v-50h145q10 0 10 -10v-53q0 -10 -10 -10h-145v-405q0 -10 -10 -10
h-65q-10 0 -10 10z" />
    <glyph glyph-name="f_i" unicode="fi" horiz-adv-x="568" 
d="M107 10v405h-77q-10 0 -10 10v53q0 10 10 10h77v46q0 82 44.5 121.5t138.5 39.5q47 0 109 -11q9 -1 9 -11v-53q0 -11 -11 -9q-65 14 -108 14q-97 0 -97 -76v-61h291q10 0 10 -10v-468q0 -10 -10 -10h-65q-10 0 -10 10v405h-216v-405q0 -10 -10 -10h-65q-10 0 -10 10z" />
    <glyph glyph-name="f_l" unicode="fl" horiz-adv-x="568" 
d="M107 10v405h-77q-10 0 -10 10v53q0 10 10 10h77v46q0 84 45.5 122.5t137.5 38.5q40 0 80 -6.5t49 -7.5l64 2q10 0 10 -10v-663q0 -10 -10 -10h-65q-10 0 -10 10v601q-74 14 -120 14q-96 0 -96 -76v-61h102q10 0 10 -10v-53q0 -10 -10 -10h-102v-405q0 -10 -10 -10h-65
q-10 0 -10 10z" />
    <glyph glyph-name=".notdef" horiz-adv-x="596" 
d="M100 10v663q0 10 10 10h376q10 0 10 -10v-663q0 -10 -10 -10h-376q-10 0 -10 10zM431 65v553h-266v-553h266z" />
    <glyph glyph-name=".null" 
 />
    <glyph glyph-name="nonmarkingreturn" unicode="&#xd;" horiz-adv-x="10" 
 />
    <glyph glyph-name="space" unicode=" " horiz-adv-x="210" 
 />
    <glyph glyph-name="exclam" unicode="!" horiz-adv-x="231" 
d="M75 210l-6 435q0 10 10 10h73q10 0 10 -10l-6 -435q0 -10 -10 -10h-61q-10 0 -10 10zM73.5 3q-13.5 15 -13.5 41v10q0 26 13.5 41t42.5 15t42.5 -15t13.5 -41v-10q0 -26 -13.5 -41t-42.5 -15t-42.5 15z" />
    <glyph glyph-name="quotedbl" unicode="&#x22;" horiz-adv-x="325" 
d="M50 439v234q0 10 10 10h65q10 0 10 -10v-234q0 -10 -10 -10h-65q-10 0 -10 10zM190 439v234q0 10 10 10h65q10 0 10 -10v-234q0 -10 -10 -10h-65q-10 0 -10 10z" />
    <glyph glyph-name="numbersign" unicode="#" horiz-adv-x="600" 
d="M122 10v115h-82q-10 0 -10 10v50q0 10 10 10h82v223h-82q-10 0 -10 10v50q0 10 10 10h82v115q0 10 10 10h65q10 0 10 -10v-115h186v115q0 10 10 10h65q10 0 10 -10v-115h82q10 0 10 -10v-50q0 -10 -10 -10h-82v-223h82q10 0 10 -10v-50q0 -10 -10 -10h-82v-115
q0 -10 -10 -10h-65q-10 0 -10 10v115h-186v-115q0 -10 -10 -10h-65q-10 0 -10 10zM393 195v223h-186v-223h186z" />
    <glyph glyph-name="dollar" unicode="$" horiz-adv-x="630" 
d="M484 46.5q-46 -45.5 -127 -55.5v-70q0 -10 -10 -10h-56q-10 0 -10 10v68q-86 8 -132.5 56t-46.5 137q0 10 10 10h64q9 0 9 -11q0 -58 31 -88.5t99 -30.5q69 0 99.5 23.5t30.5 79.5q0 39 -17 62t-61 43l-132 61q-62 28 -92.5 69t-30.5 100q0 77 44.5 117.5t124.5 47.5v67
q0 10 10 10h56q10 0 10 -10v-69q79 -9 122 -56t43 -130q0 -10 -9 -10h-64q-10 0 -10 10q0 115 -127 115q-56 0 -86 -22.5t-30 -66.5q0 -36 20 -60t65 -45l130 -61q62 -29 90.5 -65t28.5 -104q0 -76 -46 -121.5z" />
    <glyph glyph-name="percent" unicode="%" horiz-adv-x="942" 
d="M102.5 358.5q-42.5 41.5 -42.5 118.5v30q0 77 43 118.5t126 41.5q84 0 126 -41t42 -119v-30q0 -77 -42.5 -118.5t-125.5 -41.5q-84 0 -126.5 41.5zM239 3.5q-2 3.5 1 8.5l197 329l180 309q5 7 12 7h66q6 0 8 -3.5t-1 -8.5l-186 -310l-191 -328q-5 -7 -12 -7h-66
q-6 0 -8 3.5zM300 403q22 22 22 72v34q0 51 -22 72.5t-71 21.5t-71.5 -22t-22.5 -72v-34q0 -50 22 -72t72 -22q49 0 71 22zM587 29q-42 41 -42 119v30q0 77 42.5 118.5t125.5 41.5q84 0 126.5 -41.5t42.5 -118.5v-30q0 -77 -43 -118.5t-126 -41.5q-84 0 -126 41zM784.5 74
q22.5 22 22.5 72v34q0 50 -22 72t-72 22q-49 0 -71 -22t-22 -72v-34q0 -51 22 -72.5t71 -21.5t71.5 22z" />
    <glyph glyph-name="ampersand" unicode="&#x26;" horiz-adv-x="672" 
d="M655 6q0 -6 -8 -6h-91q-8 0 -13 5l-66 64q-81 -81 -223 -81q-101 0 -152.5 49t-51.5 127q0 62 31 109t90 94q-78 81 -78 158q0 72 41 107t118 35q68 0 107 -35.5t39 -99.5q0 -41 -27 -80.5t-84 -86.5l177 -171q22 65 22 160q0 10 10 10h63q10 0 10 -10q0 -131 -45 -218
l128 -123q3 -3 3 -7zM175 526q0 -27 14 -52.5t46 -58.5q42 35 61.5 62.5t19.5 54.5q0 31 -16.5 46.5t-52.5 15.5q-72 0 -72 -68zM422 122l-199 194q-53 -44 -72 -75.5t-19 -74.5q0 -45 34.5 -74t96.5 -29q105 0 159 59z" />
    <glyph glyph-name="quotesingle" unicode="'" horiz-adv-x="185" 
d="M50 439v234q0 10 10 10h65q10 0 10 -10v-234q0 -10 -10 -10h-65q-10 0 -10 10z" />
    <glyph glyph-name="parenleft" unicode="(" horiz-adv-x="270" 
d="M94.5 -55.5q-19.5 41.5 -19.5 109.5v448q0 45 9.5 75.5t28.5 56.5t55 62q3 3 7 3t7 -3l41 -41q7 -7 0 -14q-37 -37 -50 -63.5t-13 -75.5v-448q0 -33 6.5 -54t15.5 -33.5t41 -51.5q6 -8 0 -14l-41 -41q-6 -6 -14 0q-54 43 -73.5 84.5z" />
    <glyph glyph-name="parenright" unicode=")" horiz-adv-x="270" 
d="M47 -99q-6 6 0 14q26 29 38.5 45.5t18.5 38t6 55.5v448q0 49 -13 75.5t-50 63.5q-7 7 0 14l41 41q3 3 7 3t7 -3q53 -47 73 -87t20 -107v-448q0 -68 -19.5 -109.5t-73.5 -84.5q-8 -6 -14 0z" />
    <glyph glyph-name="asterisk" unicode="*" horiz-adv-x="414" 
d="M101 446q-4 3 -4 7t3 7l67 77l-100 22q-10 1 -6 12l16 46q3 11 13 6l92 -39l-9 101v2q0 8 9 8h49q4 0 7 -3t2 -7l-9 -102l93 40q1 1 4 1q8 0 9 -7l16 -46q1 -2 1 -5q0 -5 -7 -7l-101 -23l67 -76q3 -3 3 -6q0 -5 -5 -8l-40 -29q-4 -2 -6 -2q-4 0 -7 5l-52 87l-52 -88
q-6 -9 -13 -3z" />
    <glyph glyph-name="plus" unicode="+" horiz-adv-x="600" 
d="M262 123v142h-160q-10 0 -10 10v51q0 10 10 10h160v142q0 10 10 10h56q10 0 10 -10v-142h160q10 0 10 -10v-51q0 -10 -10 -10h-160v-142q0 -10 -10 -10h-56q-10 0 -10 10z" />
    <glyph glyph-name="comma" unicode="," horiz-adv-x="232" 
d="M31 -115l50 211q2 9 10 9h76q6 0 8 -4t0 -10l-72 -212q-3 -7 -9 -7h-54q-12 0 -9 13z" />
    <glyph glyph-name="hyphen" unicode="-" horiz-adv-x="490" 
d="M70 243v45q0 10 10 10h330q10 0 10 -10v-45q0 -10 -10 -10h-330q-10 0 -10 10z" />
    <glyph glyph-name="period" unicode="." horiz-adv-x="232" 
d="M73.5 3q-13.5 15 -13.5 41v10q0 26 13.5 41t42.5 15t42.5 -15t13.5 -41v-10q0 -26 -13.5 -41t-42.5 -15t-42.5 15z" />
    <glyph glyph-name="slash" unicode="/" horiz-adv-x="372" 
d="M13.5 3q-2.5 3 -0.5 8l263 636q3 8 12 8h62q6 0 8.5 -3t0.5 -8l-263 -636q-3 -8 -12 -8h-62q-6 0 -8.5 3z" />
    <glyph glyph-name="zero" unicode="0" horiz-adv-x="580" 
d="M126 48q-59 60 -59 167v225q0 107 59 167t164 60t164 -60t59 -167v-225q0 -107 -59 -167t-164 -60t-164 60zM391.5 101.5q36.5 38.5 36.5 105.5v241q0 67 -36.5 105.5t-101.5 38.5t-101.5 -38t-36.5 -106v-241q0 -68 36.5 -106t101.5 -38t101.5 38.5z" />
    <glyph glyph-name="one" unicode="1" horiz-adv-x="454" 
d="M40 10v57q0 10 10 10h156v481l-150 -47l-4 -1q-6 0 -6 8v59q0 5 1 7t5 3l209 70q8 2 14 2h6q10 0 10 -10v-572h138q10 0 10 -10v-57q0 -10 -10 -10h-379q-10 0 -10 10z" />
    <glyph glyph-name="two" unicode="2" horiz-adv-x="540" 
d="M70 10v69q0 57 26 101t62.5 74.5t96.5 69.5q48 32 75.5 53t45.5 48t18 60v21q0 43 -30.5 64.5t-89.5 21.5q-58 0 -87 -25.5t-29 -73.5q0 -10 -9 -10h-65q-10 0 -10 10q0 85 52 129.5t157 44.5q196 0 196 -165q0 -60 -24 -103t-58 -70.5t-91 -63.5q-51 -32 -80 -55
t-48.5 -56t-19.5 -77h308q10 0 10 -10v-57q0 -10 -10 -10h-386q-10 0 -10 10z" />
    <glyph glyph-name="three" unicode="3" horiz-adv-x="548" 
d="M112 34.5q-52 46.5 -52 127.5q0 10 10 10h64q10 0 10 -10q0 -48 29.5 -73.5t87.5 -25.5q67 0 104.5 28.5t37.5 79.5v26q0 50 -35 76t-102 26h-87q-10 0 -10 10v54q0 10 10 10h88q59 0 89.5 27t30.5 79v26q0 87 -122 87q-61 0 -90.5 -24t-29.5 -75q0 -10 -10 -10h-64
q-10 0 -10 10q0 174 211 174q102 0 151 -41t49 -126q0 -62 -26 -102.5t-71 -54.5v-2q58 -20 85.5 -59t27.5 -102q0 -93 -58 -142.5t-167 -49.5q-99 0 -151 46.5z" />
    <glyph glyph-name="four" unicode="4" horiz-adv-x="542" 
d="M350 10v119h-330q-10 0 -10 10v6q0 9 3 14l269 488q5 8 13 8h66q6 0 8 -3t-1 -8l-242 -438h225v219q0 10 10 10h61q10 0 10 -10v-219h76q10 0 10 -10v-57q0 -10 -10 -10h-76v-119q0 -10 -10 -10h-62q-10 0 -10 10z" />
    <glyph glyph-name="five" unicode="5" horiz-adv-x="522" 
d="M100 32.5q-50 44.5 -50 129.5q0 10 10 10h63q10 0 10 -10q0 -49 30 -74t88 -25q71 0 103.5 29.5t32.5 93.5v30q0 66 -33.5 97t-104.5 31q-33 0 -77 -10t-84 -28q-6 -2 -8 -2q-5 0 -8 3.5t-2 9.5l30 328q1 10 10 10h314q10 0 10 -10v-57q0 -10 -10 -10h-249l-13 -176
q60 14 109 14q95 0 148 -54t53 -156q0 -106 -58.5 -162t-169.5 -56q-94 0 -144 44.5z" />
    <glyph glyph-name="six" unicode="6" horiz-adv-x="568" 
d="M467 368.5q44 -48.5 44 -143.5q0 -113 -57.5 -175t-163.5 -62t-164.5 55.5t-58.5 159.5v252q0 100 60 156t170 56q90 0 142.5 -36.5t52.5 -100.5q0 -10 -10 -10h-64q-10 0 -10 10q0 29 -29.5 45.5t-80.5 16.5q-146 0 -146 -134v-104q86 63 184 63q87 0 131 -48.5z
M426 234q0 54 -28 81.5t-83 27.5q-40 0 -82 -16t-81 -45v-78q0 -66 36.5 -103.5t100.5 -37.5q65 0 101 37.5t36 105.5v28z" />
    <glyph glyph-name="seven" unicode="7" horiz-adv-x="529" 
d="M143 3.5q-2 3.5 0 8.5l258 566h-262v-82q0 -10 -10 -10h-64q-10 0 -10 10v149q0 10 10 10h439q10 0 10 -10v-5q0 -7 -3 -15l-279 -616q-4 -9 -14 -9h-68q-5 0 -7 3.5z" />
    <glyph glyph-name="eight" unicode="8" horiz-adv-x="576" 
d="M115 35q-60 47 -60 141q0 63 30 108t83 65q-44 21 -64.5 55t-20.5 92q0 80 53.5 125.5t151.5 45.5t151.5 -45.5t53.5 -125.5q0 -58 -20.5 -92t-64.5 -55q53 -20 83 -65t30 -108q0 -94 -60 -141t-173 -47t-173 47zM376.5 408.5q31.5 26.5 31.5 74.5v15q0 45 -31 71t-89 26
t-89 -26t-31 -71v-15q0 -48 31.5 -74.5t88.5 -26.5t88.5 26.5zM398.5 88.5q37.5 28.5 37.5 82.5v17q0 60 -39.5 94t-108.5 34t-108.5 -34t-39.5 -94v-17q0 -54 37.5 -82.5t110.5 -28.5t110.5 28.5z" />
    <glyph glyph-name="nine" unicode="9" horiz-adv-x="580" 
d="M453.5 608.5q59.5 -58.5 59.5 -163.5v-235q0 -110 -58 -166t-173 -56q-98 0 -150.5 41t-52.5 118q0 10 10 10h64q10 0 10 -10q0 -33 32 -58.5t88 -25.5q145 0 145 142v92q-43 -34 -83.5 -48.5t-87.5 -14.5q-93 0 -141.5 52t-48.5 151q0 112 56.5 171t163.5 59
t166.5 -58.5zM428 369v82q0 66 -38 103.5t-104 37.5q-65 0 -99.5 -36.5t-34.5 -104.5v-38q0 -50 31 -77.5t86 -27.5q82 0 159 61z" />
    <glyph glyph-name="colon" unicode=":" horiz-adv-x="232" 
d="M73.5 371q-13.5 15 -13.5 41v10q0 26 13.5 41t42.5 15t42.5 -15t13.5 -41v-10q0 -26 -13.5 -41t-42.5 -15t-42.5 15zM73.5 3q-13.5 15 -13.5 41v10q0 26 13.5 41t42.5 15t42.5 -15t13.5 -41v-10q0 -26 -13.5 -41t-42.5 -15t-42.5 15z" />
    <glyph glyph-name="semicolon" unicode=";" horiz-adv-x="236" 
d="M77.5 371q-13.5 15 -13.5 41v10q0 26 13.5 41t42.5 15t42.5 -15t13.5 -41v-10q0 -26 -13.5 -41t-42.5 -15t-42.5 15zM15.5 -124q-3.5 4 -2.5 9l50 212q1 3 3.5 5.5t5.5 2.5h75q5 0 8 -4.5t2 -9.5l-72 -212q-3 -7 -9 -7h-52q-5 0 -8.5 4z" />
    <glyph glyph-name="less" unicode="&#x3c;" horiz-adv-x="600" 
d="M98 256q-8 3 -8 11v59q0 8 8 11l400 153l4 1q8 0 8 -9v-62q0 -9 -8 -12l-328 -111l328 -112q8 -3 8 -12v-62q0 -5 -3.5 -7.5t-8.5 -0.5z" />
    <glyph glyph-name="equal" unicode="=" horiz-adv-x="600" 
d="M93 361v50q0 10 10 10h394q10 0 10 -10v-50q0 -10 -10 -10h-394q-10 0 -10 10zM93 190v50q0 10 10 10h394q10 0 10 -10v-50q0 -10 -10 -10h-394q-10 0 -10 10z" />
    <glyph glyph-name="greater" unicode="&#x3e;" horiz-adv-x="600" 
d="M98 102q-8 0 -8 9v62q0 9 8 12l328 112l-328 111q-8 3 -8 12v62q0 5 3.5 7.5t8.5 0.5l400 -153q8 -3 8 -11v-59q0 -8 -8 -11l-400 -153z" />
    <glyph glyph-name="question" unicode="?" horiz-adv-x="469" 
d="M172 203q-3 3 -3 7v39q0 35 21 63t62 65q45 41 68 72.5t23 72.5q0 73 -102 73q-59 0 -84.5 -27.5t-25.5 -82.5q0 -11 -9 -11h-66q-10 0 -10 12q0 92 49.5 136.5t148.5 44.5q92 0 138.5 -36t46.5 -103q0 -41 -17 -75.5t-40 -60t-58 -58.5q-31 -29 -46.5 -47.5t-16.5 -36.5
l-1 -40q0 -4 -3 -7t-7 -3h-61q-4 0 -7 3zM170.5 3q-13.5 15 -13.5 41v10q0 26 13.5 41t42.5 15t42.5 -15t13.5 -41v-10q0 -26 -13.5 -41t-42.5 -15t-42.5 15z" />
    <glyph glyph-name="at" unicode="@" horiz-adv-x="1000" 
d="M825.5 600.5q109.5 -94.5 109.5 -282.5v-50q0 -114 -59.5 -183.5t-164.5 -69.5q-49 0 -82 19.5t-48 52.5q-97 -73 -173 -73q-125 0 -125 128q0 21 3 45l15 113q12 88 62 138t136 50q31 0 54.5 -3t58.5 -9q44 -8 70 -10q10 -1 9 -11l-36 -264q-3 -19 -3 -36q0 -33 14 -49
t46 -16q62 0 100 47.5t38 130.5v50q0 149 -88.5 225t-271.5 76q-165 0 -252.5 -85.5t-87.5 -245.5v-100q0 -297 339 -297h136q10 0 10 -10v-56q0 -10 -10 -10h-136q-424 0 -424 373v100q0 122 46 213.5t141 142.5t238 51q226 0 335.5 -94.5zM603 402q-50 11 -104 11
q-47 0 -77 -28t-39 -93l-14 -99q-3 -19 -3 -35q0 -36 16 -52.5t52 -16.5q31 0 62.5 17.5t72.5 50.5l2 16z" />
    <glyph glyph-name="A" unicode="A" horiz-adv-x="560" 
d="M560 7q0 -7 -9 -7h-71q-9 0 -12 8l-48 145h-285l-47 -145q-3 -8 -12 -8h-67q-11 0 -8 11l221 636q3 8 12 8h89q9 0 12 -8l224 -636zM395 227l-77 231l-41 120h-1l-40 -117l-76 -234h235z" />
    <glyph glyph-name="B" unicode="B" horiz-adv-x="573" 
d="M85 10v635q0 10 10 10h178q227 0 227 -164q0 -54 -26 -87.5t-85 -55.5v-2q139 -25 139 -166q0 -92 -62 -136t-192 -44h-179q-10 0 -10 10zM269 374q76 0 111 25.5t35 80.5t-35.5 78.5t-119.5 23.5h-90v-208h99zM273 74q91 0 130.5 26t39.5 86q0 62 -39.5 90.5
t-127.5 28.5h-106v-231h103z" />
    <glyph glyph-name="C" unicode="C" horiz-adv-x="633" 
d="M136 48.5q-63 60.5 -63 174.5v209q0 114 63.5 174.5t184.5 60.5q71 0 126.5 -22.5t87 -65.5t31.5 -101q0 -21 -2 -32q-2 -14 -11 -14h-65q-5 0 -7.5 3t-1.5 7q3 72 -37.5 111t-119.5 39q-80 0 -122 -41t-42 -118v-211q0 -77 42 -118t122 -41q74 0 116 34.5t42 96.5
q0 12 -1 19v2q0 8 9 8h64q6 0 8.5 -3.5t3.5 -10.5t1 -21q0 -60 -30.5 -105.5t-86 -70t-128.5 -24.5q-121 0 -184 60.5z" />
    <glyph glyph-name="D" unicode="D" horiz-adv-x="641" 
d="M85 10v635q0 10 10 10h175q154 0 230 -71.5t76 -216.5v-50q0 -160 -76 -238.5t-230 -78.5h-175q-10 0 -10 10zM264 72q117 0 172 58t55 181v62q0 108 -55 159t-172 51h-94v-511h94z" />
    <glyph glyph-name="E" unicode="E" horiz-adv-x="533" 
d="M85 10v635q0 10 10 10h356q10 0 10 -10v-57q0 -10 -10 -10h-281v-208h257q10 0 10 -10v-54q0 -10 -10 -10h-257v-219h281q10 0 10 -10v-57q0 -10 -10 -10h-356q-10 0 -10 10z" />
    <glyph glyph-name="F" unicode="F" horiz-adv-x="504" 
d="M85 10v635q0 10 10 10h356q10 0 10 -10v-57q0 -10 -10 -10h-281v-218h243q10 0 10 -10v-54q0 -10 -10 -10h-243v-276q0 -10 -10 -10h-65q-10 0 -10 10z" />
    <glyph glyph-name="G" unicode="G" horiz-adv-x="653" 
d="M135 50.5q-62 62.5 -62 172.5v209q0 110 67 172.5t184 62.5q72 0 127 -22.5t85.5 -64.5t30.5 -98q0 -20 -2 -30q-1 -10 -11 -10h-65q-5 0 -7.5 3t-1.5 7q4 68 -35.5 104t-118.5 36q-83 0 -125.5 -40t-42.5 -119v-211q0 -159 161 -159q83 0 126.5 41t43.5 118v38h-156
q-10 0 -10 10v54q0 10 10 10h225q10 0 10 -10v-197q0 -64 7 -116v-2q0 -9 -9 -9h-53q-9 0 -11 8q-6 32 -7 63h-1q-29 -41 -77.5 -62t-110.5 -21q-109 0 -171 62.5z" />
    <glyph glyph-name="H" unicode="H" horiz-adv-x="661" 
d="M85 10v635q0 10 10 10h65q10 0 10 -10v-270h321v270q0 10 10 10h65q10 0 10 -10v-635q0 -10 -10 -10h-65q-10 0 -10 10v291h-321v-291q0 -10 -10 -10h-65q-10 0 -10 10z" />
    <glyph glyph-name="I" unicode="I" horiz-adv-x="255" 
d="M85 10v635q0 10 10 10h65q10 0 10 -10v-635q0 -10 -10 -10h-65q-10 0 -10 10z" />
    <glyph glyph-name="J" unicode="J" horiz-adv-x="265" 
d="M22 -141q-8 0 -10 6l-17 59v3q0 9 18 13q40 10 61 46t21 96v563q0 10 10 10h65q10 0 10 -10v-559q0 -191 -143 -225q-7 -2 -15 -2z" />
    <glyph glyph-name="K" unicode="K" horiz-adv-x="595" 
d="M85 10v635q0 10 10 10h65q10 0 10 -10v-193q0 -81 -1 -121h1l92 102l195 217q4 5 12 5h85q6 0 8 -3.5t-2 -8.5l-235 -254l253 -377q2 -4 2 -6q0 -6 -8 -6h-83q-7 0 -12 7l-211 317l-96 -104v-210q0 -10 -10 -10h-65q-10 0 -10 10z" />
    <glyph glyph-name="L" unicode="L" horiz-adv-x="476" 
d="M85 10v635q0 10 10 10h65q10 0 10 -10v-568h276q10 0 10 -10v-57q0 -10 -10 -10h-351q-10 0 -10 10z" />
    <glyph glyph-name="M" unicode="M" horiz-adv-x="769" 
d="M70 10l14 635q0 10 10 10h106q7 0 11 -8l175 -393l172 393q4 8 11 8h106q10 0 10 -10l14 -635q0 -10 -10 -10h-63q-10 0 -10 10l-10 402q-1 48 3 146h-2q-26 -62 -63 -146l-148 -321q-3 -7 -11 -7h-2q-8 0 -11 7l-150 326q-20 43 -48 113l-11 28h-2q2 -68 2 -104v-38
l-10 -406q0 -10 -10 -10h-63q-10 0 -10 10z" />
    <glyph glyph-name="N" unicode="N" horiz-adv-x="662" 
d="M85 10v635q0 10 10 10h116q9 0 12 -7l188 -382q57 -114 81 -174h2l-1 178v375q0 10 10 10h64q10 0 10 -10v-635q0 -10 -10 -10h-113q-9 0 -12 7l-185 372q-61 123 -87 184h-2l1 -192v-361q0 -10 -10 -10h-64q-10 0 -10 10z" />
    <glyph glyph-name="O" unicode="O" horiz-adv-x="642" 
d="M135 48.5q-62 60.5 -62 174.5v209q0 114 62 174.5t186 60.5t186 -60.5t62 -174.5v-209q0 -114 -62 -174.5t-186 -60.5t-186 60.5zM442.5 104q41.5 41 41.5 120v207q0 79 -41.5 120t-121.5 41t-121.5 -41t-41.5 -120v-207q0 -79 41.5 -120t121.5 -41t121.5 41z" />
    <glyph glyph-name="P" unicode="P" horiz-adv-x="545" 
d="M85 10v635q0 10 10 10h167q120 0 181.5 -51.5t61.5 -152.5q0 -100 -61.5 -152t-181.5 -52h-92v-237q0 -10 -10 -10h-65q-10 0 -10 10zM260 319q83 0 121.5 31.5t38.5 97.5q0 70 -39 102.5t-123 32.5h-88v-264h90z" />
    <glyph glyph-name="Q" unicode="Q" horiz-adv-x="642" 
d="M507 606.5q62 -60.5 62 -174.5v-209q0 -95 -43.5 -153.5t-130.5 -74.5q1 -53 16.5 -76t45.5 -23q6 0 16 2l15 3h2q9 0 9 -9v-55q0 -9 -12 -13q-22 -6 -46 -6q-121 0 -127 170q-120 2 -180.5 62.5t-60.5 172.5v209q0 114 62 174.5t186 60.5t186 -60.5zM484 431
q0 79 -41.5 120t-121.5 41t-121.5 -41t-41.5 -120v-207q0 -79 41.5 -120t121.5 -41t121.5 41t41.5 120v207z" />
    <glyph glyph-name="R" unicode="R" horiz-adv-x="604" 
d="M85 10v635q0 10 10 10h193q118 0 176 -45t58 -135q0 -72 -34.5 -119.5t-97.5 -65.5v-1l167 -277q2 -4 2 -6q0 -6 -9 -6h-77q-8 0 -12 7l-163 272h-128v-269q0 -10 -10 -10h-65q-10 0 -10 10zM279 347q84 0 121 28.5t37 93.5q0 62 -34.5 88t-117.5 26h-115v-236h109z" />
    <glyph glyph-name="S" unicode="S" horiz-adv-x="568" 
d="M103.5 38q-57.5 50 -51.5 136q1 18 12 18h63q12 0 12 -16q0 -60 35.5 -87t110.5 -27q144 0 144 103q0 39 -20 61.5t-71 43.5l-147 61q-68 28 -98 66.5t-30 96.5q0 85 54.5 128.5t159.5 43.5q102 0 163.5 -43t61.5 -120l-1 -17q-2 -19 -11 -19h-64q-5 0 -7.5 4t-1.5 15
q4 51 -34.5 78.5t-108.5 27.5q-126 0 -126 -93q0 -35 20.5 -57.5t73.5 -44.5l145 -61q69 -29 98 -67.5t29 -101.5q0 -86 -58.5 -132.5t-177.5 -46.5q-117 0 -174.5 50z" />
    <glyph glyph-name="T" unicode="T" horiz-adv-x="535" 
d="M225 10v568h-180q-10 0 -10 10v57q0 10 10 10h445q10 0 10 -10v-57q0 -10 -10 -10h-180v-568q0 -10 -10 -10h-65q-10 0 -10 10z" />
    <glyph glyph-name="U" unicode="U" horiz-adv-x="644" 
d="M143.5 49.5q-63.5 61.5 -63.5 175.5v420q0 10 10 10h65q10 0 10 -10v-423q0 -77 40.5 -118t116.5 -41t116.5 41t40.5 118v423q0 10 10 10h65q10 0 10 -10v-422q0 -110 -64.5 -172.5t-177.5 -62.5q-115 0 -178.5 61.5z" />
    <glyph glyph-name="V" unicode="V" horiz-adv-x="584" 
d="M230 8l-214 636l-1 4q0 7 9 7h70q9 0 12 -8l138 -426q25 -78 44 -139h2q13 43 32 97l13 39l144 429q3 8 12 8h69q11 0 8 -11l-219 -636q-3 -8 -12 -8h-95q-9 0 -12 8z" />
    <glyph glyph-name="W" unicode="W" horiz-adv-x="847" 
d="M204 8l-183 636l-1 3q0 8 10 8h66q9 0 11 -8l116 -413l38 -141h1l42 137l84 279l-36 125l-1 3q0 8 10 8h68q9 0 11 -9l113 -415l35 -128h1l36 138l112 416q2 8 11 8h69q5 0 7.5 -3t1.5 -8l-176 -636q-2 -8 -11 -8h-95q-9 0 -11 8l-68 235q-13 44 -37 132h-1l-39 -129
l-71 -238q-3 -8 -11 -8h-91q-9 0 -11 8z" />
    <glyph glyph-name="X" unicode="X" horiz-adv-x="551" 
d="M5.5 3.5q-1.5 3.5 1.5 8.5l214 326l-200 305q-2 4 -2 6q0 6 8 6h80q6 0 11 -6l113 -173l47 -75h1l50 79l109 169q5 6 12 6h76q6 0 7.5 -3.5t-1.5 -8.5l-199 -307l211 -324q2 -4 2 -6q0 -6 -8 -6h-80q-7 0 -12 6l-119 183l-15 24q-26 40 -37 59h-1q-31 -51 -51 -81
l-119 -184q-5 -7 -12 -7h-79q-6 0 -7.5 3.5z" />
    <glyph glyph-name="Y" unicode="Y" horiz-adv-x="535" 
d="M225 10v215l-214 418q-1 2 -1 5q0 7 8 7h76q9 0 12 -7l110 -226l52 -107h1l53 110l109 223q3 7 12 7h74q5 0 7 -3.5t0 -8.5l-214 -418v-215q0 -10 -10 -10h-65q-10 0 -10 10z" />
    <glyph glyph-name="Z" unicode="Z" horiz-adv-x="545" 
d="M23 2.5q-3 2.5 -3 6.5v2q0 5 4 13l298 455q42 66 65 99v1q-38 -1 -115 -1h-209q-10 0 -10 10v57q0 10 10 10h449q4 0 7 -2.5t3 -6.5v-2q0 -5 -4 -13l-294 -445q-52 -81 -72 -109v-1q44 1 132 1h205q10 0 10 -10v-57q0 -10 -10 -10h-459q-4 0 -7 2.5z" />
    <glyph glyph-name="bracketleft" unicode="[" horiz-adv-x="270" 
d="M75 -132v819q0 10 10 10h185q10 0 10 -10v-50q0 -10 -10 -10h-110v-699h110q10 0 10 -10v-50q0 -10 -10 -10h-185q-10 0 -10 10z" />
    <glyph glyph-name="backslash" unicode="\" horiz-adv-x="372" 
d="M276 8l-263 636q-1 1 -1 4q0 7 10 7h62q9 0 12 -8l263 -636q1 -1 1 -4q0 -7 -10 -7h-62q-9 0 -12 8z" />
    <glyph glyph-name="bracketright" unicode="]" horiz-adv-x="270" 
d="M-10 -132v50q0 10 10 10h110v699h-110q-10 0 -10 10v50q0 10 10 10h185q10 0 10 -10v-819q0 -10 -10 -10h-185q-10 0 -10 10z" />
    <glyph glyph-name="asciicircum" unicode="^" horiz-adv-x="506" 
d="M46.5 353.5q-2.5 3.5 0.5 8.5l165 314q4 7 12 7h59q8 0 12 -7l165 -314q1 -2 1 -5q0 -7 -8 -7h-62q-9 0 -12 7l-126 249l-125 -249q-4 -7 -12 -7h-62q-5 0 -7.5 3.5z" />
    <glyph glyph-name="underscore" unicode="_" horiz-adv-x="540" 
d="M0 -118v45q0 10 10 10h520q10 0 10 -10v-45q0 -10 -10 -10h-520q-10 0 -10 10z" />
    <glyph glyph-name="grave" unicode="`" horiz-adv-x="216" 
d="M115 562l-83 122l-2 5q0 6 7 6h70q8 0 12 -7l66 -122q1 -2 1 -5q0 -5 -6 -5h-54q-7 0 -11 6z" />
    <glyph glyph-name="a" unicode="a" horiz-adv-x="494" 
d="M426 9q0 -9 -10 -9h-58q-5 0 -7.5 3.5t-4.5 10.5q-5 21 -8 64q-47 -48 -87 -69t-84 -21q-59 0 -89 35t-30 102q0 53 20.5 85.5t65.5 50t122 24.5l78 7v41q0 50 -20.5 71t-69.5 21q-90 0 -90 -62q0 -10 -9 -10h-66q-6 0 -8.5 6.5t-2.5 22.5q0 53 49 85.5t130 32.5
q87 0 129.5 -41t42.5 -124v-214q0 -63 7 -110v-2zM252.5 82q32.5 19 81.5 68v77l-80 -7q-69 -6 -95 -25t-26 -64q0 -68 56 -68q31 0 63.5 19z" />
    <glyph glyph-name="b" unicode="b" horiz-adv-x="536" 
d="M434 453.5q38 -46.5 38 -139.5v-123q0 -203 -204 -203q-38 0 -96 9q-65 9 -97 11v665q0 10 10 10h65q10 0 10 -10v-243q43 37 81.5 53.5t81.5 16.5q73 0 111 -46.5zM387 309q0 60 -20 88t-62 28q-32 0 -64.5 -17t-80.5 -58v-277q50 -10 96 -10q67 0 99 33.5t32 102.5v110
z" />
    <glyph glyph-name="c" unicode="c" horiz-adv-x="517" 
d="M114 38q-52 50 -52 144v124q0 94 53 144t153 50q87 0 138 -39t51 -103q0 -13 -2.5 -18t-7.5 -5h-66q-9 0 -9 16q0 34 -28 54t-76 20q-61 0 -91 -31t-30 -96v-108q0 -127 120 -127q47 0 75.5 20.5t28.5 52.5q0 16 9 16h66q10 0 10 -9q0 -72 -49.5 -113.5t-140.5 -41.5
q-100 0 -152 50z" />
    <glyph glyph-name="d" unicode="d" horiz-adv-x="543" 
d="M475 10q0 -10 -11 -10h-58q-11 0 -12 11q-5 30 -7 65q-48 -46 -89.5 -67t-88.5 -21q-71 0 -108 47t-37 139v125q0 95 48 148t133 53q35 0 73.5 -8.5t63.5 -22.5v204q0 10 10 10h65q10 0 10 -10v-560q0 -25 2 -55.5t5 -43.5zM231 63q35 0 68 18.5t83 66.5v249
q-29 13 -62 20.5t-60 7.5q-111 0 -111 -136v-120q0 -106 82 -106z" />
    <glyph glyph-name="e" unicode="e" horiz-adv-x="519" 
d="M113 33q-51 45 -51 133v140q0 94 51 144t148 50t147.5 -48.5t50.5 -140.5v-78q0 -10 -10 -10h-302v-32q0 -68 28 -98t91 -30q47 0 72.5 15.5t25.5 45.5q0 5 3 8t8 3h65q8 0 10 -9q4 -64 -47 -101t-142 -37q-97 0 -148 45zM374 296v6q0 63 -27.5 93t-84.5 30
q-115 0 -115 -124v-5h227z" />
    <glyph glyph-name="f" unicode="f" horiz-adv-x="367" 
d="M107 10v405h-77q-10 0 -10 10v53q0 10 10 10h77v52q0 73 43 114t120 41q22 0 46 -4.5t42 -11.5q19 -7 19 -17v-53q0 -8 -8 -8q-6 0 -15 4q-16 7 -38 11.5t-40 4.5q-41 0 -62.5 -21t-21.5 -62v-50h145q10 0 10 -10v-53q0 -10 -10 -10h-145v-405q0 -10 -10 -10h-65
q-10 0 -10 10z" />
    <glyph glyph-name="g" unicode="g" horiz-adv-x="517" 
d="M483 -54q0 -76 -54 -109.5t-174 -33.5q-116 0 -168 31t-52 96q0 74 62 112q-25 23 -25 67q0 28 11.5 48t40.5 43q-45 42 -45 129t45.5 129t141.5 42q31 0 52 -4q8 70 18 110q3 12 12 12h63q11 0 8 -10q-15 -45 -30 -139q58 -42 58 -141q0 -87 -45 -128.5t-139 -41.5
q-50 0 -88 12q-25 -16 -25 -43q0 -18 11.5 -25.5t37.5 -9.5l166 -10q118 -7 118 -136zM186 404q-22 -22 -22 -76q0 -53 22 -74.5t77 -21.5t77 21.5t22 74.5q0 54 -22 76t-77 22t-77 -22zM343 -118q30 7 43 23t13 45t-14 43t-46 15l-175 9q-41 -21 -41 -71q0 -40 30 -55.5
t106 -15.5q54 0 84 7z" />
    <glyph glyph-name="h" unicode="h" horiz-adv-x="556" 
d="M443.5 457.5q37.5 -42.5 37.5 -124.5v-323q0 -10 -10 -10h-65q-10 0 -10 10v319q0 96 -81 96q-37 0 -74.5 -20.5t-80.5 -64.5v-330q0 -10 -10 -10h-65q-10 0 -10 10v663q0 10 10 10h65q10 0 10 -10v-257q44 44 85.5 64t88.5 20q72 0 109.5 -42.5z" />
    <glyph glyph-name="i" unicode="i" horiz-adv-x="235" 
d="M75 10v468q0 10 10 10h65q10 0 10 -10v-468q0 -10 -10 -10h-65q-10 0 -10 10zM76.5 585q-13.5 15 -13.5 40v10q0 25 13.5 40t41.5 15t41.5 -15t13.5 -40v-10q0 -25 -13.5 -40t-41.5 -15t-41.5 15z" />
    <glyph glyph-name="j" unicode="j" horiz-adv-x="236" 
d="M36 -192q-3 0 -8 5l-39 49q-2 2 -2 6q0 5 5 8q83 57 83 188v414q0 10 10 10h65q10 0 10 -10v-419q0 -90 -28.5 -151.5t-89.5 -97.5q-4 -2 -6 -2zM76.5 585q-13.5 15 -13.5 40v10q0 25 13.5 40t41.5 15t41.5 -15t13.5 -40v-10q0 -25 -13.5 -40t-41.5 -15t-41.5 15z" />
    <glyph glyph-name="k" unicode="k" horiz-adv-x="491" 
d="M75 10v663q0 10 10 10h65q10 0 10 -10v-259q0 -92 -1 -138h1q36 41 74 80l118 127q4 5 12 5h88q7 0 8.5 -3.5t-3.5 -8.5l-166 -170l181 -294q2 -4 2 -6q0 -6 -9 -6h-77q-7 0 -12 7l-146 236l-70 -71v-162q0 -10 -10 -10h-65q-10 0 -10 10z" />
    <glyph glyph-name="l" unicode="l" horiz-adv-x="235" 
d="M75 10v663q0 10 10 10h65q10 0 10 -10v-663q0 -10 -10 -10h-65q-10 0 -10 10z" />
    <glyph glyph-name="m" unicode="m" horiz-adv-x="845" 
d="M75 10v356q0 65 -7 110v2q0 10 11 10h60q5 0 7 -1.5t3 -5.5q8 -51 9 -67q46 46 85.5 66t85.5 20q101 0 127 -93q49 50 90 71.5t88 21.5q67 0 101.5 -42t34.5 -124v-324q0 -10 -10 -10h-65q-10 0 -10 10v319q0 96 -72 96q-33 0 -67.5 -20t-80.5 -65v-330q0 -10 -10 -10
h-65q-10 0 -10 10v319q0 96 -72 96q-33 0 -67.5 -20t-80.5 -65v-330q0 -10 -10 -10h-65q-10 0 -10 10z" />
    <glyph glyph-name="n" unicode="n" horiz-adv-x="556" 
d="M443 457.5q38 -42.5 38 -124.5v-323q0 -10 -10 -10h-65q-10 0 -10 10v319q0 49 -20 72.5t-62 23.5q-36 0 -70.5 -19t-83.5 -66v-330q0 -10 -10 -10h-65q-10 0 -10 10v356q0 53 -7 109v3q0 10 10 10h61q5 0 7 -2t4 -8q4 -16 8 -63q46 45 86.5 65t88.5 20q72 0 110 -42.5z
" />
    <glyph glyph-name="o" unicode="o" horiz-adv-x="536" 
d="M62 186v116q0 198 206 198q101 0 153.5 -49.5t52.5 -148.5v-116q0 -198 -206 -198t-206 198zM360 95q29 32 29 99v100q0 67 -29 99t-92 32t-92 -32t-29 -99v-100q0 -67 29 -99t92 -32t92 32z" />
    <glyph glyph-name="p" unicode="p" horiz-adv-x="537" 
d="M473 314v-125q0 -97 -46 -149t-133 -52q-35 0 -72 8t-62 22v-193q0 -10 -10 -10h-65q-10 0 -10 10v550q0 50 -7 101v2q0 10 10 10h61q10 0 11 -10q6 -31 7 -52q45 39 83.5 56.5t82.5 17.5q150 0 150 -186zM388 309q0 59 -20.5 87.5t-62.5 28.5q-32 0 -64 -17t-81 -59
v-259q26 -13 57 -20t59 -7q57 0 84.5 33.5t27.5 102.5v110z" />
    <glyph glyph-name="q" unicode="q" horiz-adv-x="541" 
d="M321.5 496.5q26.5 -3.5 51.5 -8.5q6 -1 34 -6t59 -7v-650q0 -10 -10 -10h-65q-10 0 -10 10v234q-42 -37 -83 -54t-86 -17q-75 0 -111.5 46t-36.5 140v123q0 203 204 203q27 0 53.5 -3.5zM298.5 79.5q33.5 16.5 82.5 58.5v276q-53 11 -105 11q-67 0 -97 -32.5t-30 -103.5
v-110q0 -61 19.5 -88.5t62.5 -27.5q34 0 67.5 16.5z" />
    <glyph glyph-name="r" unicode="r" horiz-adv-x="356" 
d="M341 452q0 -26 -3 -50q-2 -11 -13 -8q-15 4 -36 4q-33 0 -67 -19.5t-62 -53.5v-315q0 -10 -10 -10h-65q-10 0 -10 10v359q0 58 -7 108v2q0 4 3 6.5t7 2.5h61q10 0 11 -9q6 -33 8 -71q32 40 72.5 66t73.5 26q18 0 27 -3q7 -2 9 -10q1 -12 1 -35z" />
    <glyph glyph-name="s" unicode="s" horiz-adv-x="464" 
d="M53 146q0 9 10 9h66q9 0 9 -8q0 -45 22.5 -65t73.5 -20q49 0 74 16t25 48q0 22 -14 38t-44 29l-114 47q-55 23 -78 52t-23 75q0 133 167 133q85 0 132 -36t47 -100q0 -9 -10 -9h-66q-10 0 -10 16q0 26 -24 40.5t-66 14.5q-43 0 -64 -14.5t-21 -44.5q0 -22 11 -33t47 -26
l114 -48q54 -23 77.5 -53t23.5 -76q0 -69 -48 -106t-137 -37q-180 0 -180 158z" />
    <glyph glyph-name="t" unicode="t" horiz-adv-x="385" 
d="M139 26q-32 38 -32 119v270h-77q-10 0 -10 10v53q0 10 10 10h79l11 120q1 10 11 10h50q10 0 10 -10l1 -120h149q10 0 10 -10v-53q0 -10 -10 -10h-149v-268q0 -47 16.5 -66t56.5 -19q39 0 75 16q2 1 5 1q7 0 7 -8v-55q0 -8 -8 -11q-41 -17 -98 -17q-75 0 -107 38z" />
    <glyph glyph-name="u" unicode="u" horiz-adv-x="542" 
d="M474 8q0 -8 -11 -8h-56q-11 0 -12 10q-6 42 -7 67q-94 -89 -181 -89q-64 0 -98 43t-34 124v323q0 10 10 10h65q10 0 10 -10v-319q0 -49 17.5 -72.5t54.5 -23.5q34 0 68 19.5t82 65.5v330q0 10 10 10h65q10 0 10 -10v-356q0 -70 7 -112v-2z" />
    <glyph glyph-name="v" unicode="v" horiz-adv-x="496" 
d="M189 8l-163 469l-1 4q0 7 9 7h69q9 0 12 -8l89 -280q30 -92 43 -138h2q11 39 43 137l89 281q3 8 12 8h69q11 0 8 -11l-164 -469q-3 -8 -12 -8h-93q-9 0 -12 8z" />
    <glyph glyph-name="w" unicode="w" horiz-adv-x="716" 
d="M171 9l-145 468l-1 4q0 7 9 7h70q8 0 11 -9l79 -276l36 -128h2l40 124l54 167l-30 101l-1 4q0 7 9 7h63q9 0 11 -8l74 -272l32 -123h2l35 126l80 278q3 9 11 9h70q11 0 8 -11l-146 -468q-3 -9 -11 -9h-91q-8 0 -11 8l-31 102q-20 69 -38 144h-2q-14 -53 -42 -141
l-34 -105q-3 -8 -11 -8h-91q-8 0 -11 9z" />
    <glyph glyph-name="x" unicode="x" horiz-adv-x="477" 
d="M10 4q-2 4 2 8l173 239l-161 225q-2 2 -2 6q0 2 2 4t6 2h78q8 0 12 -6l70 -101q17 -24 48 -72h1q37 54 54 78l67 95q4 6 12 6h73q6 0 8 -3.5t-2 -8.5l-161 -222l175 -242q2 -2 2 -6q0 -2 -2 -4t-6 -2h-78q-8 0 -12 6l-67 94l-65 94h-1q-30 -47 -51 -76l-12 -18l-66 -94
q-4 -6 -12 -6h-77q-6 0 -8 4z" />
    <glyph glyph-name="y" unicode="y" horiz-adv-x="497" 
d="M138 -181.5q-2 3.5 0 8.5l71 179l-185 470q-1 2 -1 5q0 7 8 7h71q8 0 11 -8l90 -242q11 -28 31 -86l15 -43h1l47 129l90 242q3 8 12 8h67q5 0 7.5 -3.5t0.5 -8.5l-253 -653q-3 -8 -11 -8h-65q-5 0 -7 3.5z" />
    <glyph glyph-name="z" unicode="z" horiz-adv-x="464" 
d="M28 2.5q-3 2.5 -3 6.5v2q0 8 4 13l219 309q38 54 58 81v1h-114h-134q-10 0 -10 10v53q0 10 10 10h371q4 0 7 -2.5t3 -6.5v-2q0 -8 -4 -13l-213 -300q-42 -60 -64 -90v-1h101h159q10 0 10 -10v-53q0 -10 -10 -10h-383q-4 0 -7 2.5z" />
    <glyph glyph-name="braceleft" unicode="{" horiz-adv-x="266" 
d="M160.5 -127.5q-33.5 14.5 -47 52t-13.5 113.5v124q0 46 -14.5 63t-50.5 17h-15q-10 0 -10 10v50q0 10 10 10h15q36 0 50.5 17.5t14.5 62.5v125q0 77 14 114.5t47.5 51.5t99.5 14q10 0 10 -10v-50q0 -10 -10 -10q-33 0 -49 -7.5t-21.5 -26t-5.5 -55.5v-146
q0 -51 -13.5 -77.5t-44.5 -37.5q30 -10 44 -37t14 -78v-145q0 -39 6 -57t22 -25t48 -7q10 0 10 -10v-50q0 -10 -10 -10q-67 0 -100.5 14.5z" />
    <glyph glyph-name="bar" unicode="|" horiz-adv-x="257" 
d="M85 -175v995q0 10 10 10h67q10 0 10 -10v-995q0 -10 -10 -10h-67q-10 0 -10 10z" />
    <glyph glyph-name="braceright" unicode="}" horiz-adv-x="266" 
d="M-5 -132v50q0 10 10 10q32 0 48 7t22 25t6 57v145q0 51 14 78t44 37q-31 11 -44.5 37.5t-13.5 77.5v146q0 37 -5.5 55.5t-21.5 26t-49 7.5q-10 0 -10 10v50q0 10 10 10q66 0 99.5 -14t47.5 -51.5t14 -114.5v-125q0 -45 14.5 -62.5t50.5 -17.5h15q10 0 10 -10v-50
q0 -10 -10 -10h-15q-36 0 -50.5 -17t-14.5 -63v-124q0 -76 -13.5 -113.5t-47 -52t-100.5 -14.5q-10 0 -10 10z" />
    <glyph glyph-name="asciitilde" unicode="~" horiz-adv-x="600" 
d="M341.5 254.5q-19.5 3.5 -44.5 10.5q-26 7 -44 10.5t-44 3.5q-30 0 -65.5 -10t-39.5 -11l-4 -1q-7 0 -7 9v50q0 4 1 6.5t4 3.5q19 9 48.5 17.5t64.5 8.5q28 0 48 -3.5t46 -10.5q24 -7 42.5 -10.5t43.5 -3.5q30 0 65.5 10t39.5 11l4 1q7 0 7 -9v-50q0 -9 -7 -12
q-58 -24 -111 -24q-28 0 -47.5 3.5z" />
    <glyph glyph-name="uni00A0" unicode="&#xa0;" horiz-adv-x="210" 
 />
    <glyph glyph-name="exclamdown" unicode="&#xa1;" horiz-adv-x="231" 
d="M158.5 485q13.5 -15 13.5 -41v-10q0 -26 -13.5 -41t-42.5 -15t-42.5 15t-13.5 41v10q0 26 13.5 41t42.5 15t42.5 -15zM146 288q10 0 10 -10l6 -435q0 -10 -10 -10h-73q-10 0 -10 10l6 435q0 10 10 10h61z" />
    <glyph glyph-name="cent" unicode="&#xa2;" horiz-adv-x="630" 
d="M512 193q0 -63 -38 -103t-109 -49v-69q0 -10 -10 -10h-56q-10 0 -10 10v68q-84 7 -127.5 56.5t-43.5 135.5v124q0 85 44 134.5t127 57.5v68q0 10 10 10h56q10 0 10 -10v-69q69 -8 108.5 -45.5t39.5 -93.5q0 -13 -2.5 -18t-7.5 -5h-66q-9 0 -9 16q0 34 -28 54t-76 20
q-61 0 -91 -31t-30 -96v-108q0 -127 120 -127q47 0 75.5 20.5t28.5 52.5q0 16 9 16h66q10 0 10 -9z" />
    <glyph glyph-name="sterling" unicode="&#xa3;" horiz-adv-x="630" 
d="M552 67v-57q0 -10 -10 -10h-411q-10 0 -10 10v43q0 7 5 12q43 47 43 101v139h-73q-10 0 -10 10v50q0 10 10 10h73v94q0 198 182 198q82 0 126 -40t44 -134q0 -10 -10 -10h-62q-10 0 -10 10q0 45 -18.5 72t-68.5 27q-55 0 -76.5 -30.5t-21.5 -99.5v-87h153q10 0 10 -10
v-50q0 -10 -10 -10h-153v-121q0 -39 -10.5 -64t-29.5 -43h328q10 0 10 -10z" />
    <glyph glyph-name="currency" unicode="&#xa4;" horiz-adv-x="630" 
d="M129 108q-4 0 -8 4l-42 42q-3 3 -3 6q0 4 4 8l62 53q-22 42 -22 93t22 93l-62 53q-7 8 -1 14l42 42q8 8 14 1l58 -53q51 34 122 34t122 -34l58 53q3 3 6 3q4 0 8 -4l42 -42q3 -3 3 -6q0 -4 -4 -8l-62 -53q22 -42 22 -93t-22 -93l62 -53q8 -7 1 -14l-42 -42q-7 -7 -14 -1
l-58 53q-51 -34 -122 -34t-122 34l-58 -53q-3 -3 -6 -3zM430 314q0 114 -115 114t-115 -114t115 -114t115 114z" />
    <glyph glyph-name="yen" unicode="&#xa5;" horiz-adv-x="631" 
d="M561 651.5q2 -3.5 0 -8.5l-169 -348h71q10 0 10 -10v-50q0 -10 -10 -10h-105v-58h105q10 0 10 -10v-50q0 -10 -10 -10h-105v-87q0 -10 -10 -10h-65q-10 0 -10 10v87h-106q-10 0 -10 10v50q0 10 10 10h106v58h-106q-10 0 -10 10v50q0 10 10 10h72l-169 348q-1 2 -1 5
q0 7 8 7h75q9 0 12 -7l110 -243l11 -24l31 -70h1q12 28 42 95l110 242q3 7 12 7h73q5 0 7 -3.5z" />
    <glyph glyph-name="brokenbar" unicode="&#xa6;" horiz-adv-x="257" 
d="M85 402v418q0 10 10 10h67q10 0 10 -10v-418q0 -10 -10 -10h-67q-10 0 -10 10zM85 -175v418q0 10 10 10h67q10 0 10 -10v-418q0 -10 -10 -10h-67q-10 0 -10 10z" />
    <glyph glyph-name="section" unicode="&#xa7;" horiz-adv-x="481" 
d="M426.5 182.5q-24.5 -33.5 -70.5 -52.5q29 -22 42.5 -48t13.5 -63q0 -68 -46 -102.5t-135 -34.5q-88 0 -135 37.5t-47 98.5q0 9 10 9h65q10 0 10 -10q0 -61 98 -61q95 0 95 65q0 25 -12 39t-44 31l-142 78q-99 55 -99 147q0 45 24.5 78.5t69.5 52.5q-55 45 -55 111
q0 68 46 102.5t135 34.5q90 0 136 -37.5t46 -98.5q0 -9 -10 -9h-65q-10 0 -10 10q0 61 -98 61q-95 0 -95 -63q0 -25 12.5 -39.5t43.5 -31.5l142 -80q44 -24 71.5 -59t27.5 -87q0 -45 -24.5 -78.5zM347.5 202.5q18.5 20.5 18.5 55.5q0 33 -20 56t-68 48l-85 44
q-41 -12 -59.5 -32.5t-18.5 -54.5q0 -33 20 -55.5t68 -48.5l84 -44q42 11 60.5 31.5z" />
    <glyph glyph-name="dieresis" unicode="&#xa8;" horiz-adv-x="333" 
d="M42.5 583.5q-12.5 13.5 -12.5 37.5v10q0 24 12.5 37.5t39.5 13.5t39.5 -13.5t12.5 -37.5v-10q0 -24 -12.5 -37.5t-39.5 -13.5t-39.5 13.5zM211.5 583.5q-12.5 13.5 -12.5 37.5v10q0 24 12.5 37.5t39.5 13.5t39.5 -13.5t12.5 -37.5v-10q0 -24 -12.5 -37.5t-39.5 -13.5
t-39.5 13.5z" />
    <glyph glyph-name="copyright" unicode="&#xa9;" horiz-adv-x="716" 
d="M145.5 52q-70.5 64 -70.5 180v140q0 116 70.5 180t212.5 64t212.5 -64t70.5 -180v-140q0 -116 -70.5 -180t-212.5 -64t-212.5 64zM515.5 98.5q53.5 44.5 53.5 130.5v146q0 86 -53.5 130.5t-157.5 44.5t-157.5 -44.5t-53.5 -130.5v-146q0 -86 53.5 -130.5t157.5 -44.5
t157.5 44.5zM258 162.5q-36 35.5 -36 99.5v80q0 64 36.5 99.5t102.5 35.5q65 0 100 -30.5t35 -85.5q0 -11 -9 -11h-56q-9 0 -9 12q0 22 -15.5 34t-44.5 12q-65 0 -65 -71v-70q0 -71 63 -71q61 0 61 46q0 6 2 8.5t8 2.5h55q9 0 9 -10q0 -52 -35.5 -84t-100.5 -32t-101 35.5z
" />
    <glyph glyph-name="ordfeminine" unicode="&#xaa;" horiz-adv-x="394" 
d="M78.5 346.5q-23.5 24.5 -23.5 70.5q0 54 35 79.5t117 33.5l52 5v15q0 30 -13 42t-46 12q-60 0 -60 -34q0 -10 -11 -10h-45q-7 0 -9.5 4.5t-2.5 16.5q0 37 36 61.5t94 24.5q127 0 127 -116v-136q0 -44 5 -74v-2q0 -10 -11 -10h-44q-10 0 -12 13l-5 35q-56 -55 -118 -55
q-42 0 -65.5 24.5zM205 395.5q26 13.5 54 38.5v49l-51 -5q-47 -4 -65.5 -16.5t-18.5 -39.5q0 -40 36 -40q19 0 45 13.5zM60 214v43q0 10 10 10h259q4 0 7 -3t3 -7v-43q0 -4 -3 -7t-7 -3h-259q-10 0 -10 10z" />
    <glyph glyph-name="guillemotleft" unicode="&#xab;" horiz-adv-x="498" 
d="M166 100l-92 156q-2 3 -2 7t2 7l92 156q5 7 12 7h66q5 0 7.5 -3.5t-0.5 -8.5l-86 -158l86 -158l2 -5q0 -3 -2.5 -5t-6.5 -2h-66q-7 0 -12 7zM336 100l-92 156q-2 3 -2 7t2 7l92 156q5 7 12 7h66q5 0 7.5 -3.5t-0.5 -8.5l-86 -158l86 -158l2 -5q0 -3 -2.5 -5t-6.5 -2h-66
q-7 0 -12 7z" />
    <glyph glyph-name="logicalnot" unicode="&#xac;" horiz-adv-x="600" 
d="M432 123v142h-330q-10 0 -10 10v50q0 10 10 10h396q10 0 10 -10v-202q0 -10 -10 -10h-56q-10 0 -10 10z" />
    <glyph glyph-name="uni00AD" unicode="&#xad;" horiz-adv-x="490" 
d="M70 243v45q0 10 10 10h330q10 0 10 -10v-45q0 -10 -10 -10h-330q-10 0 -10 10z" />
    <glyph glyph-name="registered" unicode="&#xae;" horiz-adv-x="598" 
d="M135 355q-53 50 -53 136v30q0 86 53 134t164 48t165.5 -49t54.5 -135v-30q0 -86 -54.5 -135t-165.5 -49t-164 50zM423.5 387.5q43.5 33.5 43.5 95.5v42q0 62 -43.5 95.5t-124.5 33.5t-123 -32.5t-42 -94.5v-42q0 -62 42 -96.5t123 -34.5t124.5 33.5zM217 405v204
q0 9 11 9h71q54 0 77.5 -18t23.5 -53q0 -26 -12 -41t-40 -25l52 -74q3 -3 3 -6q0 -6 -8 -6h-32q-7 0 -12 7l-49 73h-38v-70q0 -10 -10 -10h-27q-10 0 -10 10zM304 513q48 0 48 28v8q0 17 -11.5 24t-38.5 7h-38v-67h40z" />
    <glyph glyph-name="macron" unicode="&#xaf;" horiz-adv-x="275" 
d="M30 580v52q0 10 10 10h195q10 0 10 -10v-52q0 -10 -10 -10h-195q-10 0 -10 10z" />
    <glyph glyph-name="degree" unicode="&#xb0;" horiz-adv-x="391" 
d="M88.5 436q-38.5 36 -38.5 102v18q0 66 38.5 102t107.5 36t107 -36t38 -102v-18q0 -66 -38 -102t-107 -36t-107.5 36zM256 477q21 20 21 61v18q0 81 -81 81q-82 0 -82 -81v-18q0 -81 82 -81q39 0 60 20z" />
    <glyph glyph-name="plusminus" unicode="&#xb1;" horiz-adv-x="600" 
d="M262 183v142h-160q-10 0 -10 10v51q0 10 10 10h160v142q0 10 10 10h56q10 0 10 -10v-142h160q10 0 10 -10v-51q0 -10 -10 -10h-160v-142q0 -10 -10 -10h-56q-10 0 -10 10zM91 70v50q0 10 10 10h396q10 0 10 -10v-50q0 -10 -10 -10h-396q-10 0 -10 10z" />
    <glyph glyph-name="uni00B2" unicode="&#xb2;" horiz-adv-x="400" 
d="M56 361v48q0 38 17.5 66t42 47t64.5 44q43 26 63.5 44.5t20.5 43.5v14q0 21 -16 31.5t-52 10.5q-35 0 -51 -13t-16 -44q0 -9 -10 -9h-51q-10 0 -10 10q0 121 143 121q135 0 135 -110q0 -40 -16.5 -68t-39.5 -45.5t-61 -40.5q-42 -24 -64 -43.5t-25 -49.5h203q10 0 10 -10
v-47q0 -10 -10 -10h-267q-10 0 -10 10z" />
    <glyph glyph-name="uni00B3" unicode="&#xb3;" horiz-adv-x="400" 
d="M52 465q0 10 10 10h51q10 0 10 -10q0 -32 15.5 -44t51.5 -12q40 0 61 14.5t21 41.5v16q0 26 -19 38.5t-60 12.5h-57q-10 0 -10 10v45q0 10 10 10h57q36 0 52.5 13t16.5 41v15q0 22 -16.5 33t-53.5 11t-52.5 -13t-15.5 -43q0 -10 -10 -10h-51q-10 0 -10 10q0 61 35.5 91
t107.5 30q70 0 104 -28t34 -84q0 -64 -45 -93v-1q54 -29 54 -99q0 -61 -39 -93.5t-113 -32.5q-139 0 -139 121z" />
    <glyph glyph-name="acute" unicode="&#xb4;" horiz-adv-x="216" 
d="M30 559q-1 3 1 7l66 122q3 7 12 7h70q5 0 6.5 -3.5t-1.5 -7.5l-83 -122q-4 -6 -11 -6h-54q-5 0 -6 3z" />
    <glyph glyph-name="uni00B5" unicode="&#xb5;" horiz-adv-x="555" 
d="M75 -175v653q0 10 10 10h65q10 0 10 -10v-308q0 -53 20 -79.5t56 -26.5q37 0 78 23.5t68 61.5v329q0 10 10 10h65q10 0 10 -10v-362q0 -34 8.5 -44.5t31.5 -10.5q7 0 15 1.5t17 1.5q11 0 11 -10v-52q0 -9 -9 -10q-26 -4 -44 -4q-106 0 -106 86v1q-32 -39 -78 -63t-84 -24
q-46 0 -74 25v-188q0 -10 -10 -10h-60q-10 0 -10 10z" />
    <glyph glyph-name="paragraph" unicode="&#xb6;" horiz-adv-x="616" 
d="M225 -175v488h-63q-71 0 -104 40t-33 103v84q0 63 33 103t104 40h364q10 0 10 -10v-848q0 -10 -10 -10h-66q-10 0 -10 10v781h-139v-781q0 -10 -10 -10h-66q-10 0 -10 10z" />
    <glyph glyph-name="periodcentered" unicode="&#xb7;" horiz-adv-x="242" 
d="M78.5 212q-13.5 15 -13.5 41v10q0 26 13.5 41t42.5 15t42.5 -15t13.5 -41v-10q0 -26 -13.5 -41t-42.5 -15t-42.5 15z" />
    <glyph glyph-name="cedilla" unicode="&#xb8;" horiz-adv-x="204" 
d="M38 -193q-5 1 -6.5 2.5t-1.5 5.5v37q0 7 5 7q8 0 16 -1t15 -1q41 0 41 24v13q0 15 -8 20.5t-26 5.5h-23q-5 0 -6 1t-1 6q0 14 2 20l23 75q2 6 9 6h48q8 0 5 -11l-18 -58h9q25 0 39 -17.5t14 -46.5v-15q0 -40 -23.5 -58.5t-71.5 -18.5q-22 0 -41 4z" />
    <glyph glyph-name="uni00B9" unicode="&#xb9;" horiz-adv-x="400" 
d="M64 361v47q0 10 10 10h96v268l-90 -27l-5 -1q-7 0 -7 8v45q0 13 10 16l133 42q8 2 13 2h7q10 0 10 -10v-343h85q10 0 10 -10v-47q0 -10 -10 -10h-252q-10 0 -10 10z" />
    <glyph glyph-name="ordmasculine" unicode="&#xba;" horiz-adv-x="402" 
d="M93.5 361.5q-38.5 39.5 -38.5 108.5v49q0 69 38.5 108.5t106.5 39.5q69 0 108 -39.5t39 -108.5v-49q0 -69 -39 -108.5t-108 -39.5q-68 0 -106.5 39.5zM257 406q20 21 20 59v60q0 38 -20 58.5t-57 20.5q-36 0 -55.5 -20.5t-19.5 -58.5v-60q0 -38 19.5 -59t55.5 -21
q37 0 57 21zM61 214v43q0 10 10 10h259q4 0 7 -3t3 -7v-43q0 -4 -3 -7t-7 -3h-259q-10 0 -10 10z" />
    <glyph glyph-name="guillemotright" unicode="&#xbb;" horiz-adv-x="498" 
d="M76.5 96.5q-2.5 3.5 0.5 8.5l86 158l-86 158l-2 5q0 3 2.5 5t6.5 2h66q7 0 12 -7l92 -156q2 -3 2 -7t-2 -7l-92 -156q-5 -7 -12 -7h-66q-5 0 -7.5 3.5zM246.5 96.5q-2.5 3.5 0.5 8.5l86 158l-86 158l-2 5q0 3 2.5 5t6.5 2h66q7 0 12 -7l92 -156q2 -3 2 -7t-2 -7l-92 -156
q-5 -7 -12 -7h-66q-5 0 -7.5 3.5z" />
    <glyph glyph-name="onequarter" unicode="&#xbc;" horiz-adv-x="882" 
d="M64 248v47q0 10 10 10h96v268l-90 -27l-5 -1q-7 0 -7 8v45q0 13 10 16l133 42q8 2 13 2h7q10 0 10 -10v-343h85q10 0 10 -10v-47q0 -10 -10 -10h-252q-10 0 -10 10zM261 -26.5q-2 3.5 0 8.5l185 371l158 325q4 7 12 7h57q5 0 7.5 -3.5t-0.5 -8.5l-174 -348l-169 -348
q-3 -7 -12 -7h-57q-5 0 -7 3.5zM726 10v68h-204q-10 0 -10 10v6q0 8 4 16l163 297q3 6 6 8t8 2h55q7 0 9.5 -3.5t-1.5 -9.5l-143 -259h114v129q0 10 10 10h49q10 0 10 -10v-129h42q10 0 10 -10v-47q0 -10 -10 -10h-42v-68q0 -10 -10 -10h-50q-10 0 -10 10z" />
    <glyph glyph-name="onehalf" unicode="&#xbd;" horiz-adv-x="932" 
d="M64 248v47q0 10 10 10h96v268l-90 -27l-5 -1q-7 0 -7 8v45q0 13 10 16l133 42q8 2 13 2h7q10 0 10 -10v-343h85q10 0 10 -10v-47q0 -10 -10 -10h-252q-10 0 -10 10zM261 -26.5q-2 3.5 0 8.5l185 371l158 325q4 7 12 7h57q5 0 7.5 -3.5t-0.5 -8.5l-174 -348l-169 -348
q-3 -7 -12 -7h-57q-5 0 -7 3.5zM588 10v48q0 38 17.5 66t42 47t64.5 44q43 26 63.5 44.5t20.5 43.5v14q0 21 -16 31.5t-52 10.5q-35 0 -51 -13t-16 -44q0 -9 -10 -9h-51q-10 0 -10 10q0 121 143 121q135 0 135 -110q0 -40 -16.5 -68t-39.5 -45.5t-61 -40.5
q-42 -24 -64 -43.5t-25 -49.5h203q10 0 10 -10v-47q0 -10 -10 -10h-267q-10 0 -10 10z" />
    <glyph glyph-name="threequarters" unicode="&#xbe;" horiz-adv-x="872" 
d="M52 352q0 10 10 10h51q10 0 10 -10q0 -32 15.5 -44t51.5 -12q40 0 61 14.5t21 41.5v16q0 26 -19 38.5t-60 12.5h-57q-10 0 -10 10v45q0 10 10 10h57q36 0 52.5 13t16.5 41v15q0 22 -16.5 33t-53.5 11t-52.5 -13t-15.5 -43q0 -10 -10 -10h-51q-10 0 -10 10q0 61 35.5 91
t107.5 30q70 0 104 -28t34 -84q0 -64 -45 -93v-1q54 -29 54 -99q0 -61 -39 -93.5t-113 -32.5q-139 0 -139 121zM251 -26.5q-2 3.5 0 8.5l185 371l158 325q4 7 12 7h57q5 0 7.5 -3.5t-0.5 -8.5l-174 -348l-169 -348q-3 -7 -12 -7h-57q-5 0 -7 3.5zM716 10v68h-204
q-10 0 -10 10v6q0 8 4 16l163 297q3 6 6 8t8 2h55q7 0 9.5 -3.5t-1.5 -9.5l-143 -259h114v129q0 10 10 10h49q10 0 10 -10v-129h42q10 0 10 -10v-47q0 -10 -10 -10h-42v-68q0 -10 -10 -10h-50q-10 0 -10 10z" />
    <glyph glyph-name="questiondown" unicode="&#xbf;" horiz-adv-x="465" 
d="M305.5 485q13.5 -15 13.5 -41v-10q0 -26 -13.5 -41t-42.5 -15t-42.5 15t-13.5 41v10q0 26 13.5 41t42.5 15t42.5 -15zM304 285q3 -3 3 -7v-39q0 -35 -21 -63t-62 -65q-45 -41 -68 -72.5t-23 -72.5q0 -73 102 -73q59 0 84.5 27.5t25.5 82.5q0 11 9 11h66q10 0 10 -12
q0 -92 -49.5 -136.5t-148.5 -44.5q-92 0 -138.5 36t-46.5 103q0 41 17 75.5t40 60t58 58.5q31 29 46.5 47.5t16.5 36.5l1 40q0 4 3 7t7 3h61q4 0 7 -3z" />
    <glyph glyph-name="Agrave" unicode="&#xc0;" horiz-adv-x="560" 
d="M560 7q0 -7 -9 -7h-71q-9 0 -12 8l-48 145h-285l-47 -145q-3 -8 -12 -8h-67q-11 0 -8 11l221 636q3 8 12 8h89q9 0 12 -8l224 -636zM395 227l-77 231l-41 120h-1l-40 -117l-76 -234h235zM259 716l-72 101q-2 4 -2 6q0 6 7 6h73q6 0 10 -7l56 -102l2 -5q0 -5 -7 -5h-56
q-7 0 -11 6z" />
    <glyph glyph-name="Aacute" unicode="&#xc1;" horiz-adv-x="560" 
d="M560 7q0 -7 -9 -7h-71q-9 0 -12 8l-48 145h-285l-47 -145q-3 -8 -12 -8h-67q-11 0 -8 11l221 636q3 8 12 8h89q9 0 12 -8l224 -636zM395 227l-77 231l-41 120h-1l-40 -117l-76 -234h235zM227 720l56 102q3 7 10 7h73q5 0 6.5 -3.5t-1.5 -8.5l-72 -101q-4 -6 -11 -6h-56
q-10 0 -5 10z" />
    <glyph glyph-name="Acircumflex" unicode="&#xc2;" horiz-adv-x="560" 
d="M560 7q0 -7 -9 -7h-71q-9 0 -12 8l-48 145h-285l-47 -145q-3 -8 -12 -8h-67q-11 0 -8 11l221 636q3 8 12 8h89q9 0 12 -8l224 -636zM395 227l-77 231l-41 120h-1l-40 -117l-76 -234h235zM145 717q-6 0 -6 7v50q0 7 7 10l126 56q7 4 14 0l126 -56q7 -3 7 -10v-50
q0 -11 -11 -6l-129 46l-129 -46q-2 -1 -5 -1z" />
    <glyph glyph-name="Atilde" unicode="&#xc3;" horiz-adv-x="560" 
d="M560 7q0 -7 -9 -7h-71q-9 0 -12 8l-48 145h-285l-47 -145q-3 -8 -12 -8h-67q-11 0 -8 11l221 636q3 8 12 8h89q9 0 12 -8l224 -636zM395 227l-77 231l-41 120h-1l-40 -117l-76 -234h235zM277 732q-13 5 -26.5 8.5t-27.5 3.5q-35 0 -71 -19q-4 -2 -6 -2q-6 0 -6 8v47
q0 10 6 13q4 2 17 9t29 11.5t34 4.5q31 0 65 -14q27 -11 46 -11q35 0 71 19q4 2 6 2q6 0 6 -8v-47q0 -8 -6 -13q-36 -25 -79 -25q-26 0 -58 13z" />
    <glyph glyph-name="Adieresis" unicode="&#xc4;" horiz-adv-x="560" 
d="M560 7q0 -7 -9 -7h-71q-9 0 -12 8l-48 145h-285l-47 -145q-3 -8 -12 -8h-67q-11 0 -8 11l221 636q3 8 12 8h89q9 0 12 -8l224 -636zM395 227l-77 231l-41 120h-1l-40 -117l-76 -234h235zM155.5 724.5q-12.5 13.5 -12.5 37.5v10q0 24 12.5 37.5t39.5 13.5t39.5 -13.5
t12.5 -37.5v-10q0 -24 -12.5 -37.5t-39.5 -13.5t-39.5 13.5zM323.5 724.5q-12.5 13.5 -12.5 37.5v10q0 24 12.5 37.5t39.5 13.5t39.5 -13.5t12.5 -37.5v-10q0 -24 -12.5 -37.5t-39.5 -13.5t-39.5 13.5z" />
    <glyph glyph-name="Aring" unicode="&#xc5;" horiz-adv-x="560" 
d="M560 7q0 -7 -9 -7h-71q-9 0 -12 8l-48 145h-285l-47 -145q-3 -8 -12 -8h-67q-11 0 -8 11l212 611q-44 25 -44 81q0 46 29.5 71t81.5 25q51 0 81 -25t30 -71q0 -58 -47 -82l215 -610zM280 657q51 0 51 46t-51 46t-51 -46t51 -46zM395 227l-77 231l-41 120h-1l-40 -117
l-76 -234h235z" />
    <glyph glyph-name="AE" unicode="&#xc6;" horiz-adv-x="834" 
d="M1.5 3.5q-2.5 3.5 0.5 8.5l330 636q4 7 12 7h408q10 0 10 -10v-57q0 -10 -10 -10h-281v-208h257q10 0 10 -10v-54q0 -10 -10 -10h-257v-219h281q10 0 10 -10v-57q0 -10 -10 -10h-356q-10 0 -10 10v143h-222l-74 -146q-4 -7 -12 -7h-69q-5 0 -7.5 3.5zM386 227v273
q0 52 1 93h-2q-28 -60 -43 -90l-140 -276h184z" />
    <glyph glyph-name="Ccedilla" unicode="&#xc7;" horiz-adv-x="633" 
d="M560.5 219.5q2.5 -3.5 3.5 -10.5t1 -21q0 -84 -59 -137.5t-157 -61.5l-9 -30h9q25 0 39 -17.5t14 -46.5v-15q0 -40 -23.5 -58.5t-71.5 -18.5q-22 0 -41 4q-5 1 -6.5 2.5t-1.5 5.5v37q0 7 5 7q8 0 16 -1t15 -1q41 0 41 24v13q0 15 -8 20.5t-26 5.5h-23q-4 0 -5.5 1t-1.5 6
q0 14 2 20l13 42q-105 8 -159 68t-54 166v209q0 114 63.5 174.5t184.5 60.5q71 0 126.5 -22.5t87 -65.5t31.5 -101q0 -21 -2 -32q-2 -14 -11 -14h-65q-5 0 -7.5 3t-1.5 7q3 72 -37.5 111t-119.5 39q-80 0 -122 -41t-42 -118v-211q0 -77 42 -118t122 -41q74 0 116 34.5
t42 96.5q0 12 -1 19v2q0 8 9 8h64q6 0 8.5 -3.5z" />
    <glyph glyph-name="Egrave" unicode="&#xc8;" horiz-adv-x="533" 
d="M85 10v635q0 10 10 10h356q10 0 10 -10v-57q0 -10 -10 -10h-281v-208h257q10 0 10 -10v-54q0 -10 -10 -10h-257v-219h281q10 0 10 -10v-57q0 -10 -10 -10h-356q-10 0 -10 10zM260 716l-72 101q-2 4 -2 6q0 6 7 6h73q6 0 10 -7l56 -102l2 -5q0 -5 -7 -5h-56q-7 0 -11 6z
" />
    <glyph glyph-name="Eacute" unicode="&#xc9;" horiz-adv-x="533" 
d="M85 10v635q0 10 10 10h356q10 0 10 -10v-57q0 -10 -10 -10h-281v-208h257q10 0 10 -10v-54q0 -10 -10 -10h-257v-219h281q10 0 10 -10v-57q0 -10 -10 -10h-356q-10 0 -10 10zM228 720l56 102q3 7 10 7h73q5 0 6.5 -3.5t-1.5 -8.5l-72 -101q-4 -6 -11 -6h-56q-10 0 -5 10z
" />
    <glyph glyph-name="Ecircumflex" unicode="&#xca;" horiz-adv-x="533" 
d="M85 10v635q0 10 10 10h356q10 0 10 -10v-57q0 -10 -10 -10h-281v-208h257q10 0 10 -10v-54q0 -10 -10 -10h-257v-219h281q10 0 10 -10v-57q0 -10 -10 -10h-356q-10 0 -10 10zM146 717q-6 0 -6 7v50q0 7 7 10l126 56q7 4 14 0l126 -56q7 -3 7 -10v-50q0 -11 -11 -6
l-129 46l-129 -46q-2 -1 -5 -1z" />
    <glyph glyph-name="Edieresis" unicode="&#xcb;" horiz-adv-x="533" 
d="M85 10v635q0 10 10 10h356q10 0 10 -10v-57q0 -10 -10 -10h-281v-208h257q10 0 10 -10v-54q0 -10 -10 -10h-257v-219h281q10 0 10 -10v-57q0 -10 -10 -10h-356q-10 0 -10 10zM156.5 724.5q-12.5 13.5 -12.5 37.5v10q0 24 12.5 37.5t39.5 13.5t39.5 -13.5t12.5 -37.5v-10
q0 -24 -12.5 -37.5t-39.5 -13.5t-39.5 13.5zM324.5 724.5q-12.5 13.5 -12.5 37.5v10q0 24 12.5 37.5t39.5 13.5t39.5 -13.5t12.5 -37.5v-10q0 -24 -12.5 -37.5t-39.5 -13.5t-39.5 13.5z" />
    <glyph glyph-name="Igrave" unicode="&#xcc;" horiz-adv-x="255" 
d="M85 10v635q0 10 10 10h65q10 0 10 -10v-635q0 -10 -10 -10h-65q-10 0 -10 10zM108 716l-72 101q-2 4 -2 6q0 6 7 6h73q6 0 10 -7l56 -102l2 -5q0 -5 -7 -5h-56q-7 0 -11 6z" />
    <glyph glyph-name="Iacute" unicode="&#xcd;" horiz-adv-x="255" 
d="M85 10v635q0 10 10 10h65q10 0 10 -10v-635q0 -10 -10 -10h-65q-10 0 -10 10zM76 720l56 102q3 7 10 7h73q5 0 6.5 -3.5t-1.5 -8.5l-72 -101q-4 -6 -11 -6h-56q-10 0 -5 10z" />
    <glyph glyph-name="Icircumflex" unicode="&#xce;" horiz-adv-x="255" 
d="M85 10v635q0 10 10 10h65q10 0 10 -10v-635q0 -10 -10 -10h-65q-10 0 -10 10zM-6 717q-6 0 -6 7v50q0 7 7 10l126 56q7 4 14 0l126 -56q7 -3 7 -10v-50q0 -11 -11 -6l-129 46l-129 -46q-2 -1 -5 -1z" />
    <glyph glyph-name="Idieresis" unicode="&#xcf;" horiz-adv-x="255" 
d="M85 10v635q0 10 10 10h65q10 0 10 -10v-635q0 -10 -10 -10h-65q-10 0 -10 10zM4.5 724.5q-12.5 13.5 -12.5 37.5v10q0 24 12.5 37.5t39.5 13.5t39.5 -13.5t12.5 -37.5v-10q0 -24 -12.5 -37.5t-39.5 -13.5t-39.5 13.5zM172.5 724.5q-12.5 13.5 -12.5 37.5v10
q0 24 12.5 37.5t39.5 13.5t39.5 -13.5t12.5 -37.5v-10q0 -24 -12.5 -37.5t-39.5 -13.5t-39.5 13.5z" />
    <glyph glyph-name="Eth" unicode="&#xd0;" horiz-adv-x="641" 
d="M500 583.5q76 -71.5 76 -216.5v-50q0 -160 -76 -238.5t-230 -78.5h-175q-10 0 -10 10v288h-70q-10 0 -10 10v50q0 10 10 10h70v277q0 10 10 10h175q154 0 230 -71.5zM491 373q0 108 -55 159t-172 51h-94v-215h147q10 0 10 -10v-50q0 -10 -10 -10h-147v-226h94
q117 0 172 58t55 181v62z" />
    <glyph glyph-name="Ntilde" unicode="&#xd1;" horiz-adv-x="662" 
d="M85 10v635q0 10 10 10h116q9 0 12 -7l188 -382q57 -114 81 -174h2l-1 178v375q0 10 10 10h64q10 0 10 -10v-635q0 -10 -10 -10h-113q-9 0 -12 7l-185 372q-61 123 -87 184h-2l1 -192v-361q0 -10 -10 -10h-64q-10 0 -10 10zM329 732q-13 5 -26.5 8.5t-27.5 3.5
q-35 0 -71 -19q-4 -2 -6 -2q-6 0 -6 8v47q0 10 6 13q4 2 17 9t29 11.5t34 4.5q31 0 65 -14q27 -11 46 -11q35 0 71 19q4 2 6 2q6 0 6 -8v-47q0 -8 -6 -13q-36 -25 -79 -25q-26 0 -58 13z" />
    <glyph glyph-name="Ograve" unicode="&#xd2;" horiz-adv-x="642" 
d="M135 48.5q-62 60.5 -62 174.5v209q0 114 62 174.5t186 60.5t186 -60.5t62 -174.5v-209q0 -114 -62 -174.5t-186 -60.5t-186 60.5zM442.5 104q41.5 41 41.5 120v207q0 79 -41.5 120t-121.5 41t-121.5 -41t-41.5 -120v-207q0 -79 41.5 -120t121.5 -41t121.5 41zM301 716
l-72 101q-2 4 -2 6q0 6 7 6h73q6 0 10 -7l56 -102l2 -5q0 -5 -7 -5h-56q-7 0 -11 6z" />
    <glyph glyph-name="Oacute" unicode="&#xd3;" horiz-adv-x="642" 
d="M135 48.5q-62 60.5 -62 174.5v209q0 114 62 174.5t186 60.5t186 -60.5t62 -174.5v-209q0 -114 -62 -174.5t-186 -60.5t-186 60.5zM442.5 104q41.5 41 41.5 120v207q0 79 -41.5 120t-121.5 41t-121.5 -41t-41.5 -120v-207q0 -79 41.5 -120t121.5 -41t121.5 41zM269 720
l56 102q3 7 10 7h73q5 0 6.5 -3.5t-1.5 -8.5l-72 -101q-4 -6 -11 -6h-56q-10 0 -5 10z" />
    <glyph glyph-name="Ocircumflex" unicode="&#xd4;" horiz-adv-x="642" 
d="M135 48.5q-62 60.5 -62 174.5v209q0 114 62 174.5t186 60.5t186 -60.5t62 -174.5v-209q0 -114 -62 -174.5t-186 -60.5t-186 60.5zM442.5 104q41.5 41 41.5 120v207q0 79 -41.5 120t-121.5 41t-121.5 -41t-41.5 -120v-207q0 -79 41.5 -120t121.5 -41t121.5 41zM187 717
q-6 0 -6 7v50q0 7 7 10l126 56q7 4 14 0l126 -56q7 -3 7 -10v-50q0 -11 -11 -6l-129 46l-129 -46q-2 -1 -5 -1z" />
    <glyph glyph-name="Otilde" unicode="&#xd5;" horiz-adv-x="642" 
d="M135 48.5q-62 60.5 -62 174.5v209q0 114 62 174.5t186 60.5t186 -60.5t62 -174.5v-209q0 -114 -62 -174.5t-186 -60.5t-186 60.5zM442.5 104q41.5 41 41.5 120v207q0 79 -41.5 120t-121.5 41t-121.5 -41t-41.5 -120v-207q0 -79 41.5 -120t121.5 -41t121.5 41zM319 732
q-13 5 -26.5 8.5t-27.5 3.5q-35 0 -71 -19q-4 -2 -6 -2q-6 0 -6 8v47q0 10 6 13q4 2 17 9t29 11.5t34 4.5q31 0 65 -14q27 -11 46 -11q35 0 71 19q4 2 6 2q6 0 6 -8v-47q0 -8 -6 -13q-36 -25 -79 -25q-26 0 -58 13z" />
    <glyph glyph-name="Odieresis" unicode="&#xd6;" horiz-adv-x="642" 
d="M135 48.5q-62 60.5 -62 174.5v209q0 114 62 174.5t186 60.5t186 -60.5t62 -174.5v-209q0 -114 -62 -174.5t-186 -60.5t-186 60.5zM442.5 104q41.5 41 41.5 120v207q0 79 -41.5 120t-121.5 41t-121.5 -41t-41.5 -120v-207q0 -79 41.5 -120t121.5 -41t121.5 41z
M197.5 724.5q-12.5 13.5 -12.5 37.5v10q0 24 12.5 37.5t39.5 13.5t39.5 -13.5t12.5 -37.5v-10q0 -24 -12.5 -37.5t-39.5 -13.5t-39.5 13.5zM365.5 724.5q-12.5 13.5 -12.5 37.5v10q0 24 12.5 37.5t39.5 13.5t39.5 -13.5t12.5 -37.5v-10q0 -24 -12.5 -37.5t-39.5 -13.5
t-39.5 13.5z" />
    <glyph glyph-name="multiply" unicode="&#xd7;" horiz-adv-x="600" 
d="M135 171q-3 3 -3 7t3 7l115 116l-115 115q-3 3 -3 7t3 7l36 36q3 3 7 3t7 -3l116 -115l115 115q3 3 7 3t7 -3l36 -36q3 -3 3 -7t-3 -7l-115 -115l115 -116q3 -3 3 -7t-3 -7l-36 -36q-3 -3 -7 -3t-7 3l-115 115l-116 -115q-3 -3 -7 -3t-7 3z" />
    <glyph glyph-name="Oslash" unicode="&#xd8;" horiz-adv-x="642" 
d="M597.5 701.5q1.5 -3.5 -1.5 -8.5l-69 -109q42 -57 42 -152v-209q0 -114 -62 -174.5t-186 -60.5q-93 0 -152 35l-42 -67q-4 -6 -12 -6h-63q-6 0 -7.5 3.5t1.5 8.5l70 109q-43 56 -43 152v209q0 114 62 174.5t186 60.5q93 0 152 -35l42 67q4 6 12 6h63q6 0 7.5 -3.5z
M158 224q0 -39 11 -70l260 409q-41 29 -108 29q-80 0 -121.5 -41t-41.5 -120v-207zM484 431q0 40 -10 69l-261 -408q41 -29 108 -29q80 0 121.5 41t41.5 120v207z" />
    <glyph glyph-name="Ugrave" unicode="&#xd9;" horiz-adv-x="644" 
d="M143.5 49.5q-63.5 61.5 -63.5 175.5v420q0 10 10 10h65q10 0 10 -10v-423q0 -77 40.5 -118t116.5 -41t116.5 41t40.5 118v423q0 10 10 10h65q10 0 10 -10v-422q0 -110 -64.5 -172.5t-177.5 -62.5q-115 0 -178.5 61.5zM302 716l-72 101q-2 4 -2 6q0 6 7 6h73q6 0 10 -7
l56 -102l2 -5q0 -5 -7 -5h-56q-7 0 -11 6z" />
    <glyph glyph-name="Uacute" unicode="&#xda;" horiz-adv-x="644" 
d="M143.5 49.5q-63.5 61.5 -63.5 175.5v420q0 10 10 10h65q10 0 10 -10v-423q0 -77 40.5 -118t116.5 -41t116.5 41t40.5 118v423q0 10 10 10h65q10 0 10 -10v-422q0 -110 -64.5 -172.5t-177.5 -62.5q-115 0 -178.5 61.5zM270 720l56 102q3 7 10 7h73q5 0 6.5 -3.5t-1.5 -8.5
l-72 -101q-4 -6 -11 -6h-56q-10 0 -5 10z" />
    <glyph glyph-name="Ucircumflex" unicode="&#xdb;" horiz-adv-x="644" 
d="M143.5 49.5q-63.5 61.5 -63.5 175.5v420q0 10 10 10h65q10 0 10 -10v-423q0 -77 40.5 -118t116.5 -41t116.5 41t40.5 118v423q0 10 10 10h65q10 0 10 -10v-422q0 -110 -64.5 -172.5t-177.5 -62.5q-115 0 -178.5 61.5zM188 717q-6 0 -6 7v50q0 7 7 10l126 56q7 4 14 0
l126 -56q7 -3 7 -10v-50q0 -11 -11 -6l-129 46l-129 -46q-2 -1 -5 -1z" />
    <glyph glyph-name="Udieresis" unicode="&#xdc;" horiz-adv-x="644" 
d="M143.5 49.5q-63.5 61.5 -63.5 175.5v420q0 10 10 10h65q10 0 10 -10v-423q0 -77 40.5 -118t116.5 -41t116.5 41t40.5 118v423q0 10 10 10h65q10 0 10 -10v-422q0 -110 -64.5 -172.5t-177.5 -62.5q-115 0 -178.5 61.5zM198.5 724.5q-12.5 13.5 -12.5 37.5v10
q0 24 12.5 37.5t39.5 13.5t39.5 -13.5t12.5 -37.5v-10q0 -24 -12.5 -37.5t-39.5 -13.5t-39.5 13.5zM366.5 724.5q-12.5 13.5 -12.5 37.5v10q0 24 12.5 37.5t39.5 13.5t39.5 -13.5t12.5 -37.5v-10q0 -24 -12.5 -37.5t-39.5 -13.5t-39.5 13.5z" />
    <glyph glyph-name="Yacute" unicode="&#xdd;" horiz-adv-x="535" 
d="M225 10v215l-214 418q-1 2 -1 5q0 7 8 7h76q9 0 12 -7l110 -226l52 -107h1l53 110l109 223q3 7 12 7h74q5 0 7 -3.5t0 -8.5l-214 -418v-215q0 -10 -10 -10h-65q-10 0 -10 10zM216 720l56 102q3 7 10 7h73q5 0 6.5 -3.5t-1.5 -8.5l-72 -101q-4 -6 -11 -6h-56q-10 0 -5 10z
" />
    <glyph glyph-name="Thorn" unicode="&#xde;" horiz-adv-x="545" 
d="M85 10v635q0 10 10 10h65q10 0 10 -10v-101h92q120 0 181.5 -51.5t61.5 -152.5q0 -100 -61.5 -152t-181.5 -52h-92v-126q0 -10 -10 -10h-65q-10 0 -10 10zM260 208q83 0 121.5 31.5t38.5 97.5q0 70 -39 102.5t-123 32.5h-88v-264h90z" />
    <glyph glyph-name="germandbls" unicode="&#xdf;" horiz-adv-x="538" 
d="M234 17q-35 29 -35 91q0 9 11 9h62q9 0 9 -10q0 -45 63 -45q76 0 76 65q0 37 -21 61.5t-63 54.5q-43 29 -65.5 55.5t-22.5 67.5q0 28 12 47.5t36 47.5q24 26 36 46t12 47q0 34 -22 51.5t-64 17.5q-50 0 -74 -26.5t-24 -83.5v-503q0 -10 -10 -10h-65q-10 0 -10 10v492
q0 99 44 146t136 47q85 0 129.5 -35t44.5 -104q0 -43 -16.5 -71t-45.5 -57q-19 -21 -26.5 -32t-7.5 -24q0 -19 14.5 -34.5t46.5 -39.5q34 -25 56.5 -46.5t38.5 -53.5t16 -74q0 -66 -41 -101t-121 -35q-74 0 -109 29z" />
    <glyph glyph-name="agrave" unicode="&#xe0;" horiz-adv-x="494" 
d="M426 9q0 -9 -10 -9h-58q-5 0 -7.5 3.5t-4.5 10.5q-5 21 -8 64q-47 -48 -87 -69t-84 -21q-59 0 -89 35t-30 102q0 53 20.5 85.5t65.5 50t122 24.5l78 7v41q0 50 -20.5 71t-69.5 21q-90 0 -90 -62q0 -10 -9 -10h-66q-6 0 -8.5 6.5t-2.5 22.5q0 53 49 85.5t130 32.5
q87 0 129.5 -41t42.5 -124v-214q0 -63 7 -110v-2zM252.5 82q32.5 19 81.5 68v77l-80 -7q-69 -6 -95 -25t-26 -64q0 -68 56 -68q31 0 63.5 19zM228 562l-83 122l-2 5q0 6 7 6h70q8 0 12 -7l66 -122q1 -2 1 -5q0 -5 -6 -5h-54q-7 0 -11 6z" />
    <glyph glyph-name="aacute" unicode="&#xe1;" horiz-adv-x="494" 
d="M426 9q0 -9 -10 -9h-58q-5 0 -7.5 3.5t-4.5 10.5q-5 21 -8 64q-47 -48 -87 -69t-84 -21q-59 0 -89 35t-30 102q0 53 20.5 85.5t65.5 50t122 24.5l78 7v41q0 50 -20.5 71t-69.5 21q-90 0 -90 -62q0 -10 -9 -10h-66q-6 0 -8.5 6.5t-2.5 22.5q0 53 49 85.5t130 32.5
q87 0 129.5 -41t42.5 -124v-214q0 -63 7 -110v-2zM252.5 82q32.5 19 81.5 68v77l-80 -7q-69 -6 -95 -25t-26 -64q0 -68 56 -68q31 0 63.5 19zM186 559q-1 3 1 7l66 122q3 7 12 7h70q5 0 6.5 -3.5t-1.5 -7.5l-83 -122q-4 -6 -11 -6h-54q-5 0 -6 3z" />
    <glyph glyph-name="acircumflex" unicode="&#xe2;" horiz-adv-x="494" 
d="M426 9q0 -9 -10 -9h-58q-5 0 -7.5 3.5t-4.5 10.5q-5 21 -8 64q-47 -48 -87 -69t-84 -21q-59 0 -89 35t-30 102q0 53 20.5 85.5t65.5 50t122 24.5l78 7v41q0 50 -20.5 71t-69.5 21q-90 0 -90 -62q0 -10 -9 -10h-66q-6 0 -8.5 6.5t-2.5 22.5q0 53 49 85.5t130 32.5
q87 0 129.5 -41t42.5 -124v-214q0 -63 7 -110v-2zM252.5 82q32.5 19 81.5 68v77l-80 -7q-69 -6 -95 -25t-26 -64q0 -68 56 -68q31 0 63.5 19zM113 556v51q0 9 7 13l116 66q3 2 7 2t7 -2l116 -66q7 -4 7 -13v-51q0 -10 -11 -4l-119 59l-119 -59q-11 -6 -11 4z" />
    <glyph glyph-name="atilde" unicode="&#xe3;" horiz-adv-x="494" 
d="M426 9q0 -9 -10 -9h-58q-5 0 -7.5 3.5t-4.5 10.5q-5 21 -8 64q-47 -48 -87 -69t-84 -21q-59 0 -89 35t-30 102q0 53 20.5 85.5t65.5 50t122 24.5l78 7v41q0 50 -20.5 71t-69.5 21q-90 0 -90 -62q0 -10 -9 -10h-66q-6 0 -8.5 6.5t-2.5 22.5q0 53 49 85.5t130 32.5
q87 0 129.5 -41t42.5 -124v-214q0 -63 7 -110v-2zM252.5 82q32.5 19 81.5 68v77l-80 -7q-69 -6 -95 -25t-26 -64q0 -68 56 -68q31 0 63.5 19zM240 580q-12 5 -24.5 8.5t-24.5 3.5q-25 0 -66 -19q-2 -1 -6 -1q-6 0 -6 7v47q0 9 6 13q33 25 74 25q18 0 29.5 -3.5t31.5 -10.5
q26 -11 41 -11q25 0 66 19q2 1 6 1q6 0 6 -7v-47q0 -8 -6 -13q-33 -25 -74 -25q-23 0 -53 13z" />
    <glyph glyph-name="adieresis" unicode="&#xe4;" horiz-adv-x="494" 
d="M426 9q0 -9 -10 -9h-58q-5 0 -7.5 3.5t-4.5 10.5q-5 21 -8 64q-47 -48 -87 -69t-84 -21q-59 0 -89 35t-30 102q0 53 20.5 85.5t65.5 50t122 24.5l78 7v41q0 50 -20.5 71t-69.5 21q-90 0 -90 -62q0 -10 -9 -10h-66q-6 0 -8.5 6.5t-2.5 22.5q0 53 49 85.5t130 32.5
q87 0 129.5 -41t42.5 -124v-214q0 -63 7 -110v-2zM252.5 82q32.5 19 81.5 68v77l-80 -7q-69 -6 -95 -25t-26 -64q0 -68 56 -68q31 0 63.5 19zM118.5 583.5q-12.5 13.5 -12.5 37.5v10q0 24 12.5 37.5t39.5 13.5t39.5 -13.5t12.5 -37.5v-10q0 -24 -12.5 -37.5t-39.5 -13.5
t-39.5 13.5zM287.5 583.5q-12.5 13.5 -12.5 37.5v10q0 24 12.5 37.5t39.5 13.5t39.5 -13.5t12.5 -37.5v-10q0 -24 -12.5 -37.5t-39.5 -13.5t-39.5 13.5z" />
    <glyph glyph-name="aring" unicode="&#xe5;" horiz-adv-x="494" 
d="M426 9q0 -9 -10 -9h-58q-5 0 -7.5 3.5t-4.5 10.5q-5 21 -8 64q-47 -48 -87 -69t-84 -21q-59 0 -89 35t-30 102q0 53 20.5 85.5t65.5 50t122 24.5l78 7v41q0 50 -20.5 71t-69.5 21q-90 0 -90 -62q0 -10 -9 -10h-66q-6 0 -8.5 6.5t-2.5 22.5q0 53 49 85.5t130 32.5
q87 0 129.5 -41t42.5 -124v-214q0 -63 7 -110v-2zM252.5 82q32.5 19 81.5 68v77l-80 -7q-69 -6 -95 -25t-26 -64q0 -68 56 -68q31 0 63.5 19zM162 576q-30 25 -30 71t29.5 71t81.5 25q51 0 81 -25t30 -71t-29.5 -71t-81.5 -25q-51 0 -81 25zM294 647q0 46 -51 46t-51 -46
t51 -46t51 46z" />
    <glyph glyph-name="ae" unicode="&#xe6;" horiz-adv-x="778" 
d="M78 23q-30 35 -30 102q0 79 47.5 116.5t160.5 47.5l78 7v37q0 50 -20.5 71t-69.5 21q-90 0 -90 -62q0 -10 -9 -10h-66q-6 0 -8.5 6.5t-2.5 22.5q0 52 47 85t121 33q104 0 145 -67q24 32 65 49.5t91 17.5q85 0 133 -50t48 -139v-74q0 -10 -10 -10h-293v-36
q0 -69 25.5 -98.5t84.5 -29.5q46 0 72 14.5t26 40.5q0 17 11 17h65q10 0 10 -23q0 -56 -52 -90t-140 -34q-131 0 -167 98q-49 -50 -94.5 -74t-91.5 -24q-56 0 -86 35zM633 296v2q0 65 -25 96t-79 31q-114 0 -114 -128v-1h218zM251.5 83q32.5 20 84.5 69q-2 15 -2 49v26
l-80 -7q-69 -6 -95 -25t-26 -64q0 -68 56 -68q30 0 62.5 20z" />
    <glyph glyph-name="ccedilla" unicode="&#xe7;" horiz-adv-x="517" 
d="M456 143q0 -67 -43 -108t-123 -46l-9 -30h9q25 0 39 -17.5t14 -46.5v-15q0 -40 -23.5 -58.5t-71.5 -18.5q-22 0 -41 4q-5 1 -6.5 2.5t-1.5 5.5v37q0 7 5 7q8 0 16 -1t15 -1q41 0 41 24v13q0 15 -8 20.5t-26 5.5h-23q-4 0 -5.5 1t-1.5 6q0 14 2 20l13 43q-81 10 -123 59
t-42 133v124q0 94 53 144t153 50q87 0 138 -39t51 -103q0 -13 -2.5 -18t-7.5 -5h-66q-9 0 -9 16q0 34 -28 54t-76 20q-61 0 -91 -31t-30 -96v-108q0 -127 120 -127q47 0 75.5 20.5t28.5 52.5q0 16 9 16h66q10 0 10 -9z" />
    <glyph glyph-name="egrave" unicode="&#xe8;" horiz-adv-x="519" 
d="M113 33q-51 45 -51 133v140q0 94 51 144t148 50t147.5 -48.5t50.5 -140.5v-78q0 -10 -10 -10h-302v-32q0 -68 28 -98t91 -30q47 0 72.5 15.5t25.5 45.5q0 5 3 8t8 3h65q8 0 10 -9q4 -64 -47 -101t-142 -37q-97 0 -148 45zM374 296v6q0 63 -27.5 93t-84.5 30
q-115 0 -115 -124v-5h227zM243 574l-83 122l-2 5q0 6 7 6h70q8 0 12 -7l66 -122q1 -2 1 -5q0 -5 -6 -5h-54q-7 0 -11 6z" />
    <glyph glyph-name="eacute" unicode="&#xe9;" horiz-adv-x="519" 
d="M113 33q-51 45 -51 133v140q0 94 51 144t148 50t147.5 -48.5t50.5 -140.5v-78q0 -10 -10 -10h-302v-32q0 -68 28 -98t91 -30q47 0 72.5 15.5t25.5 45.5q0 5 3 8t8 3h65q8 0 10 -9q4 -64 -47 -101t-142 -37q-97 0 -148 45zM374 296v6q0 63 -27.5 93t-84.5 30
q-115 0 -115 -124v-5h227zM201 571q-1 3 1 7l66 122q3 7 12 7h70q5 0 6.5 -3.5t-1.5 -7.5l-83 -122q-4 -6 -11 -6h-54q-5 0 -6 3z" />
    <glyph glyph-name="ecircumflex" unicode="&#xea;" horiz-adv-x="519" 
d="M113 33q-51 45 -51 133v140q0 94 51 144t148 50t147.5 -48.5t50.5 -140.5v-78q0 -10 -10 -10h-302v-32q0 -68 28 -98t91 -30q47 0 72.5 15.5t25.5 45.5q0 5 3 8t8 3h65q8 0 10 -9q4 -64 -47 -101t-142 -37q-97 0 -148 45zM374 296v6q0 63 -27.5 93t-84.5 30
q-115 0 -115 -124v-5h227zM128 568v51q0 9 7 13l116 66q3 2 7 2t7 -2l116 -66q7 -4 7 -13v-51q0 -10 -11 -4l-119 59l-119 -59q-11 -6 -11 4z" />
    <glyph glyph-name="edieresis" unicode="&#xeb;" horiz-adv-x="519" 
d="M113 33q-51 45 -51 133v140q0 94 51 144t148 50t147.5 -48.5t50.5 -140.5v-78q0 -10 -10 -10h-302v-32q0 -68 28 -98t91 -30q47 0 72.5 15.5t25.5 45.5q0 5 3 8t8 3h65q8 0 10 -9q4 -64 -47 -101t-142 -37q-97 0 -148 45zM374 296v6q0 63 -27.5 93t-84.5 30
q-115 0 -115 -124v-5h227zM133.5 595.5q-12.5 13.5 -12.5 37.5v10q0 24 12.5 37.5t39.5 13.5t39.5 -13.5t12.5 -37.5v-10q0 -24 -12.5 -37.5t-39.5 -13.5t-39.5 13.5zM302.5 595.5q-12.5 13.5 -12.5 37.5v10q0 24 12.5 37.5t39.5 13.5t39.5 -13.5t12.5 -37.5v-10
q0 -24 -12.5 -37.5t-39.5 -13.5t-39.5 13.5z" />
    <glyph glyph-name="igrave" unicode="&#xec;" horiz-adv-x="235" 
d="M75 10v468q0 10 10 10h65q10 0 10 -10v-468q0 -10 -10 -10h-65q-10 0 -10 10zM103 562l-83 122l-2 5q0 6 7 6h70q8 0 12 -7l66 -122q1 -2 1 -5q0 -5 -6 -5h-54q-7 0 -11 6z" />
    <glyph glyph-name="iacute" unicode="&#xed;" horiz-adv-x="235" 
d="M75 10v468q0 10 10 10h65q10 0 10 -10v-468q0 -10 -10 -10h-65q-10 0 -10 10zM61 559q-1 3 1 7l66 122q3 7 12 7h70q5 0 6.5 -3.5t-1.5 -7.5l-83 -122q-4 -6 -11 -6h-54q-5 0 -6 3z" />
    <glyph glyph-name="icircumflex" unicode="&#xee;" horiz-adv-x="235" 
d="M75 10v468q0 10 10 10h65q10 0 10 -10v-468q0 -10 -10 -10h-65q-10 0 -10 10zM-12 556v51q0 9 7 13l116 66q3 2 7 2t7 -2l116 -66q7 -4 7 -13v-51q0 -10 -11 -4l-119 59l-119 -59q-11 -6 -11 4z" />
    <glyph glyph-name="idieresis" unicode="&#xef;" horiz-adv-x="235" 
d="M75 10v468q0 10 10 10h65q10 0 10 -10v-468q0 -10 -10 -10h-65q-10 0 -10 10zM-6.5 583.5q-12.5 13.5 -12.5 37.5v10q0 24 12.5 37.5t39.5 13.5t39.5 -13.5t12.5 -37.5v-10q0 -24 -12.5 -37.5t-39.5 -13.5t-39.5 13.5zM162.5 583.5q-12.5 13.5 -12.5 37.5v10
q0 24 12.5 37.5t39.5 13.5t39.5 -13.5t12.5 -37.5v-10q0 -24 -12.5 -37.5t-39.5 -13.5t-39.5 13.5z" />
    <glyph glyph-name="eth" unicode="&#xf0;" horiz-adv-x="532" 
d="M446 488.5q24 -63.5 24 -133.5v-160q0 -100 -52.5 -153.5t-151.5 -53.5q-204 0 -204 187v105q0 90 41.5 138t114.5 48q104 0 168 -76q-15 106 -87 173l-106 -48q-2 -1 -5 -1q-4 0 -8 8l-18 38l-1 3q0 6 7 9l73 33q-34 18 -67 26q-12 3 -14.5 7t1.5 10l27 39q4 7 12 7
q5 0 9 -1q65 -12 118 -49l107 48q2 1 5 1q4 0 8 -8l17 -38l1 -3q0 -5 -7 -9l-80 -36q44 -47 68 -110.5zM357 95q30 35 30 102v107q-28 41 -68.5 63.5t-83.5 22.5q-88 0 -88 -122v-85q0 -66 28.5 -94.5t90.5 -28.5q61 0 91 35z" />
    <glyph glyph-name="ntilde" unicode="&#xf1;" horiz-adv-x="556" 
d="M443 457.5q38 -42.5 38 -124.5v-323q0 -10 -10 -10h-65q-10 0 -10 10v319q0 49 -20 72.5t-62 23.5q-36 0 -70.5 -19t-83.5 -66v-330q0 -10 -10 -10h-65q-10 0 -10 10v356q0 53 -7 109v3q0 10 10 10h61q5 0 7 -2t4 -8q4 -16 8 -63q46 45 86.5 65t88.5 20q72 0 110 -42.5z
M279 580q-12 5 -24.5 8.5t-24.5 3.5q-25 0 -66 -19q-2 -1 -6 -1q-6 0 -6 7v47q0 9 6 13q33 25 74 25q18 0 29.5 -3.5t31.5 -10.5q26 -11 41 -11q25 0 66 19q2 1 6 1q6 0 6 -7v-47q0 -8 -6 -13q-33 -25 -74 -25q-23 0 -53 13z" />
    <glyph glyph-name="ograve" unicode="&#xf2;" horiz-adv-x="536" 
d="M62 186v116q0 198 206 198q101 0 153.5 -49.5t52.5 -148.5v-116q0 -198 -206 -198t-206 198zM360 95q29 32 29 99v100q0 67 -29 99t-92 32t-92 -32t-29 -99v-100q0 -67 29 -99t92 -32t92 32zM253 562l-83 122l-2 5q0 6 7 6h70q8 0 12 -7l66 -122q1 -2 1 -5q0 -5 -6 -5
h-54q-7 0 -11 6z" />
    <glyph glyph-name="oacute" unicode="&#xf3;" horiz-adv-x="536" 
d="M62 186v116q0 198 206 198q101 0 153.5 -49.5t52.5 -148.5v-116q0 -198 -206 -198t-206 198zM360 95q29 32 29 99v100q0 67 -29 99t-92 32t-92 -32t-29 -99v-100q0 -67 29 -99t92 -32t92 32zM211 559q-1 3 1 7l66 122q3 7 12 7h70q5 0 6.5 -3.5t-1.5 -7.5l-83 -122
q-4 -6 -11 -6h-54q-5 0 -6 3z" />
    <glyph glyph-name="ocircumflex" unicode="&#xf4;" horiz-adv-x="536" 
d="M62 186v116q0 198 206 198q101 0 153.5 -49.5t52.5 -148.5v-116q0 -198 -206 -198t-206 198zM360 95q29 32 29 99v100q0 67 -29 99t-92 32t-92 -32t-29 -99v-100q0 -67 29 -99t92 -32t92 32zM138 556v51q0 9 7 13l116 66q3 2 7 2t7 -2l116 -66q7 -4 7 -13v-51
q0 -10 -11 -4l-119 59l-119 -59q-11 -6 -11 4z" />
    <glyph glyph-name="otilde" unicode="&#xf5;" horiz-adv-x="536" 
d="M62 186v116q0 198 206 198q101 0 153.5 -49.5t52.5 -148.5v-116q0 -198 -206 -198t-206 198zM360 95q29 32 29 99v100q0 67 -29 99t-92 32t-92 -32t-29 -99v-100q0 -67 29 -99t92 -32t92 32zM265 580q-12 5 -24.5 8.5t-24.5 3.5q-25 0 -66 -19q-2 -1 -6 -1q-6 0 -6 7v47
q0 9 6 13q33 25 74 25q18 0 29.5 -3.5t31.5 -10.5q26 -11 41 -11q25 0 66 19q2 1 6 1q6 0 6 -7v-47q0 -8 -6 -13q-33 -25 -74 -25q-23 0 -53 13z" />
    <glyph glyph-name="odieresis" unicode="&#xf6;" horiz-adv-x="536" 
d="M62 186v116q0 198 206 198q101 0 153.5 -49.5t52.5 -148.5v-116q0 -198 -206 -198t-206 198zM360 95q29 32 29 99v100q0 67 -29 99t-92 32t-92 -32t-29 -99v-100q0 -67 29 -99t92 -32t92 32zM143.5 583.5q-12.5 13.5 -12.5 37.5v10q0 24 12.5 37.5t39.5 13.5t39.5 -13.5
t12.5 -37.5v-10q0 -24 -12.5 -37.5t-39.5 -13.5t-39.5 13.5zM312.5 583.5q-12.5 13.5 -12.5 37.5v10q0 24 12.5 37.5t39.5 13.5t39.5 -13.5t12.5 -37.5v-10q0 -24 -12.5 -37.5t-39.5 -13.5t-39.5 13.5z" />
    <glyph glyph-name="divide" unicode="&#xf7;" horiz-adv-x="600" 
d="M262 396.5q-13 11.5 -13 31.5v17q0 21 13 32.5t38 11.5q26 0 38.5 -11.5t12.5 -32.5v-17q0 -20 -12.5 -31.5t-38.5 -11.5q-25 0 -38 11.5zM92 275v51q0 10 10 10h396q10 0 10 -10v-51q0 -10 -10 -10h-396q-10 0 -10 10zM262 122.5q-13 11.5 -13 31.5v17q0 21 13 32.5
t38 11.5q26 0 38.5 -11.5t12.5 -32.5v-17q0 -20 -12.5 -31.5t-38.5 -11.5q-25 0 -38 11.5z" />
    <glyph glyph-name="oslash" unicode="&#xf8;" horiz-adv-x="536" 
d="M531 534q2 -4 -2 -8l-82 -107q27 -45 27 -117v-116q0 -198 -206 -198q-79 0 -129 30l-48 -63q-5 -6 -13 -6h-65q-6 0 -8 4t2 8l82 108q-27 45 -27 117v116q0 198 206 198q80 0 129 -31l48 63q4 6 13 6h65q6 0 8 -4zM147 194q0 -28 4 -45l196 255q-28 21 -79 21
q-63 0 -92 -32t-29 -99v-100zM389 294q0 27 -4 44l-196 -255q29 -20 79 -20q63 0 92 32t29 99v100z" />
    <glyph glyph-name="ugrave" unicode="&#xf9;" horiz-adv-x="542" 
d="M474 8q0 -8 -11 -8h-56q-11 0 -12 10q-6 42 -7 67q-94 -89 -181 -89q-64 0 -98 43t-34 124v323q0 10 10 10h65q10 0 10 -10v-319q0 -49 17.5 -72.5t54.5 -23.5q34 0 68 19.5t82 65.5v330q0 10 10 10h65q10 0 10 -10v-356q0 -70 7 -112v-2zM256 562l-83 122l-2 5q0 6 7 6
h70q8 0 12 -7l66 -122q1 -2 1 -5q0 -5 -6 -5h-54q-7 0 -11 6z" />
    <glyph glyph-name="uacute" unicode="&#xfa;" horiz-adv-x="542" 
d="M474 8q0 -8 -11 -8h-56q-11 0 -12 10q-6 42 -7 67q-94 -89 -181 -89q-64 0 -98 43t-34 124v323q0 10 10 10h65q10 0 10 -10v-319q0 -49 17.5 -72.5t54.5 -23.5q34 0 68 19.5t82 65.5v330q0 10 10 10h65q10 0 10 -10v-356q0 -70 7 -112v-2zM214 559q-1 3 1 7l66 122
q3 7 12 7h70q5 0 6.5 -3.5t-1.5 -7.5l-83 -122q-4 -6 -11 -6h-54q-5 0 -6 3z" />
    <glyph glyph-name="ucircumflex" unicode="&#xfb;" horiz-adv-x="542" 
d="M474 8q0 -8 -11 -8h-56q-11 0 -12 10q-6 42 -7 67q-94 -89 -181 -89q-64 0 -98 43t-34 124v323q0 10 10 10h65q10 0 10 -10v-319q0 -49 17.5 -72.5t54.5 -23.5q34 0 68 19.5t82 65.5v330q0 10 10 10h65q10 0 10 -10v-356q0 -70 7 -112v-2zM141 556v51q0 9 7 13l116 66
q3 2 7 2t7 -2l116 -66q7 -4 7 -13v-51q0 -10 -11 -4l-119 59l-119 -59q-11 -6 -11 4z" />
    <glyph glyph-name="udieresis" unicode="&#xfc;" horiz-adv-x="542" 
d="M474 8q0 -8 -11 -8h-56q-11 0 -12 10q-6 42 -7 67q-94 -89 -181 -89q-64 0 -98 43t-34 124v323q0 10 10 10h65q10 0 10 -10v-319q0 -49 17.5 -72.5t54.5 -23.5q34 0 68 19.5t82 65.5v330q0 10 10 10h65q10 0 10 -10v-356q0 -70 7 -112v-2zM146.5 583.5
q-12.5 13.5 -12.5 37.5v10q0 24 12.5 37.5t39.5 13.5t39.5 -13.5t12.5 -37.5v-10q0 -24 -12.5 -37.5t-39.5 -13.5t-39.5 13.5zM315.5 583.5q-12.5 13.5 -12.5 37.5v10q0 24 12.5 37.5t39.5 13.5t39.5 -13.5t12.5 -37.5v-10q0 -24 -12.5 -37.5t-39.5 -13.5t-39.5 13.5z" />
    <glyph glyph-name="yacute" unicode="&#xfd;" horiz-adv-x="497" 
d="M138 -181.5q-2 3.5 0 8.5l71 179l-185 470q-1 2 -1 5q0 7 8 7h71q8 0 11 -8l90 -242q11 -28 31 -86l15 -43h1l47 129l90 242q3 8 12 8h67q5 0 7.5 -3.5t0.5 -8.5l-253 -653q-3 -8 -11 -8h-65q-5 0 -7 3.5zM189 559q-1 3 1 7l66 122q3 7 12 7h70q5 0 6.5 -3.5t-1.5 -7.5
l-83 -122q-4 -6 -11 -6h-54q-5 0 -6 3z" />
    <glyph glyph-name="thorn" unicode="&#xfe;" horiz-adv-x="537" 
d="M75 -175v848q0 10 10 10h65q10 0 10 -10v-244q45 38 82.5 54.5t80.5 16.5q150 0 150 -186v-125q0 -97 -46 -149t-133 -52q-34 0 -71 8t-63 22v-193q0 -10 -10 -10h-65q-10 0 -10 10zM360.5 96.5q27.5 33.5 27.5 102.5v110q0 59 -20.5 87.5t-62.5 28.5q-32 0 -64 -17
t-81 -59v-259q27 -13 58 -20t58 -7q57 0 84.5 33.5z" />
    <glyph glyph-name="ydieresis" unicode="&#xff;" horiz-adv-x="497" 
d="M138 -181.5q-2 3.5 0 8.5l71 179l-185 470q-1 2 -1 5q0 7 8 7h71q8 0 11 -8l90 -242q11 -28 31 -86l15 -43h1l47 129l90 242q3 8 12 8h67q5 0 7.5 -3.5t0.5 -8.5l-253 -653q-3 -8 -11 -8h-65q-5 0 -7 3.5zM121.5 583.5q-12.5 13.5 -12.5 37.5v10q0 24 12.5 37.5
t39.5 13.5t39.5 -13.5t12.5 -37.5v-10q0 -24 -12.5 -37.5t-39.5 -13.5t-39.5 13.5zM290.5 583.5q-12.5 13.5 -12.5 37.5v10q0 24 12.5 37.5t39.5 13.5t39.5 -13.5t12.5 -37.5v-10q0 -24 -12.5 -37.5t-39.5 -13.5t-39.5 13.5z" />
    <glyph glyph-name="Amacron" unicode="&#x100;" horiz-adv-x="560" 
d="M560 7q0 -7 -9 -7h-71q-9 0 -12 8l-48 145h-285l-47 -145q-3 -8 -12 -8h-67q-11 0 -8 11l221 636q3 8 12 8h89q9 0 12 -8l224 -636zM395 227l-77 231l-41 120h-1l-40 -117l-76 -234h235zM161 727v52q0 10 10 10h215q10 0 10 -10v-52q0 -10 -10 -10h-215q-10 0 -10 10z
" />
    <glyph glyph-name="amacron" unicode="&#x101;" horiz-adv-x="494" 
d="M426 9q0 -9 -10 -9h-58q-5 0 -7.5 3.5t-4.5 10.5q-5 21 -8 64q-47 -48 -87 -69t-84 -21q-59 0 -89 35t-30 102q0 53 20.5 85.5t65.5 50t122 24.5l78 7v41q0 50 -20.5 71t-69.5 21q-90 0 -90 -62q0 -10 -9 -10h-66q-6 0 -8.5 6.5t-2.5 22.5q0 53 49 85.5t130 32.5
q87 0 129.5 -41t42.5 -124v-214q0 -63 7 -110v-2zM252.5 82q32.5 19 81.5 68v77l-80 -7q-69 -6 -95 -25t-26 -64q0 -68 56 -68q31 0 63.5 19zM135 580v52q0 10 10 10h195q10 0 10 -10v-52q0 -10 -10 -10h-195q-10 0 -10 10z" />
    <glyph glyph-name="Abreve" unicode="&#x102;" horiz-adv-x="560" 
d="M560 7q0 -7 -9 -7h-71q-9 0 -12 8l-48 145h-285l-47 -145q-3 -8 -12 -8h-67q-11 0 -8 11l221 636q3 8 12 8h89q9 0 12 -8l224 -636zM395 227l-77 231l-41 120h-1l-40 -117l-76 -234h235zM203.5 729.5q-36.5 13.5 -55.5 26.5q-6 5 -6 12v55q0 6 3 8t8 -1q33 -18 63 -30.5
t63 -12.5t63 12.5t63 30.5l5 2q6 0 6 -9v-55q0 -7 -6 -12q-19 -13 -55.5 -26.5t-75.5 -13.5t-75.5 13.5z" />
    <glyph glyph-name="abreve" unicode="&#x103;" horiz-adv-x="494" 
d="M426 9q0 -9 -10 -9h-58q-5 0 -7.5 3.5t-4.5 10.5q-5 21 -8 64q-47 -48 -87 -69t-84 -21q-59 0 -89 35t-30 102q0 53 20.5 85.5t65.5 50t122 24.5l78 7v41q0 50 -20.5 71t-69.5 21q-90 0 -90 -62q0 -10 -9 -10h-66q-6 0 -8.5 6.5t-2.5 22.5q0 53 49 85.5t130 32.5
q87 0 129.5 -41t42.5 -124v-214q0 -63 7 -110v-2zM252.5 82q32.5 19 81.5 68v77l-80 -7q-69 -6 -95 -25t-26 -64q0 -68 56 -68q31 0 63.5 19zM169 571.5q-29 15.5 -46 33.5q-4 4 -4 12v54q0 6 3 8t8 -2q19 -19 48 -34.5t65 -15.5t65 15.5t48 34.5q3 3 6 3q5 0 5 -9v-54
q0 -8 -4 -12q-49 -49 -120 -49q-45 0 -74 15.5z" />
    <glyph glyph-name="Aogonek" unicode="&#x104;" horiz-adv-x="560" 
d="M557 -133q6 0 6 -7v-44q0 -9 -8 -10q-21 -3 -40 -3q-49 0 -74 22t-25 59v12q0 30 16.5 57t46.5 47q-8 0 -11 8l-48 145h-285l-47 -145q-3 -8 -12 -8h-67q-11 0 -8 11l221 636q3 8 12 8h89q9 0 12 -8l224 -636l1 -4q0 -7 -9 -7h-7q-26 -14 -41 -38t-15 -49v-10
q0 -20 9.5 -28.5t31.5 -8.5q17 0 25 1h3zM395 227l-77 231l-41 120h-1l-40 -117l-76 -234h235z" />
    <glyph glyph-name="aogonek" unicode="&#x105;" horiz-adv-x="494" 
d="M433 -133q6 0 6 -7v-44q0 -9 -8 -10q-21 -3 -40 -3q-49 0 -74 22t-25 59v12q0 30 16.5 57t46.5 47q-5 1 -9 14q-5 21 -8 64q-47 -48 -87 -69t-84 -21q-59 0 -89 35t-30 102q0 53 20.5 85.5t65.5 50t122 24.5l78 7v41q0 50 -20.5 71t-69.5 21q-90 0 -90 -62q0 -10 -9 -10
h-66q-6 0 -8.5 6.5t-2.5 22.5q0 53 49 85.5t130 32.5q87 0 129.5 -41t42.5 -124v-214q0 -63 7 -110v-2q0 -4 -4 -8q-27 -14 -42.5 -38t-15.5 -50v-10q0 -20 9.5 -28.5t31.5 -8.5q17 0 25 1h3zM252.5 82q32.5 19 81.5 68v77l-80 -7q-69 -6 -95 -25t-26 -64q0 -68 56 -68
q31 0 63.5 19z" />
    <glyph glyph-name="Cacute" unicode="&#x106;" horiz-adv-x="633" 
d="M136 48.5q-63 60.5 -63 174.5v209q0 114 63.5 174.5t184.5 60.5q71 0 126.5 -22.5t87 -65.5t31.5 -101q0 -21 -2 -32q-2 -14 -11 -14h-65q-5 0 -7.5 3t-1.5 7q3 72 -37.5 111t-119.5 39q-80 0 -122 -41t-42 -118v-211q0 -77 42 -118t122 -41q74 0 116 34.5t42 96.5
q0 12 -1 19v2q0 8 9 8h64q6 0 8.5 -3.5t3.5 -10.5t1 -21q0 -60 -30.5 -105.5t-86 -70t-128.5 -24.5q-121 0 -184 60.5zM265 720l56 102q3 7 10 7h73q5 0 6.5 -3.5t-1.5 -8.5l-72 -101q-4 -6 -11 -6h-56q-10 0 -5 10z" />
    <glyph glyph-name="cacute" unicode="&#x107;" horiz-adv-x="517" 
d="M114 38q-52 50 -52 144v124q0 94 53 144t153 50q87 0 138 -39t51 -103q0 -13 -2.5 -18t-7.5 -5h-66q-9 0 -9 16q0 34 -28 54t-76 20q-61 0 -91 -31t-30 -96v-108q0 -127 120 -127q47 0 75.5 20.5t28.5 52.5q0 16 9 16h66q10 0 10 -9q0 -72 -49.5 -113.5t-140.5 -41.5
q-100 0 -152 50zM202 559q-1 3 1 7l66 122q3 7 12 7h70q5 0 6.5 -3.5t-1.5 -7.5l-83 -122q-4 -6 -11 -6h-54q-5 0 -6 3z" />
    <glyph glyph-name="Cdotaccent" unicode="&#x10a;" horiz-adv-x="633" 
d="M136 48.5q-63 60.5 -63 174.5v209q0 114 63.5 174.5t184.5 60.5q71 0 126.5 -22.5t87 -65.5t31.5 -101q0 -21 -2 -32q-2 -14 -11 -14h-65q-5 0 -7.5 3t-1.5 7q3 72 -37.5 111t-119.5 39q-80 0 -122 -41t-42 -118v-211q0 -77 42 -118t122 -41q74 0 116 34.5t42 96.5
q0 12 -1 19v2q0 8 9 8h64q6 0 8.5 -3.5t3.5 -10.5t1 -21q0 -60 -30.5 -105.5t-86 -70t-128.5 -24.5q-121 0 -184 60.5zM275.5 740q-13.5 15 -13.5 40v10q0 25 13.5 40t41.5 15t41.5 -15t13.5 -40v-10q0 -25 -13.5 -40t-41.5 -15t-41.5 15z" />
    <glyph glyph-name="cdotaccent" unicode="&#x10b;" horiz-adv-x="517" 
d="M114 38q-52 50 -52 144v124q0 94 53 144t153 50q87 0 138 -39t51 -103q0 -13 -2.5 -18t-7.5 -5h-66q-9 0 -9 16q0 34 -28 54t-76 20q-61 0 -91 -31t-30 -96v-108q0 -127 120 -127q47 0 75.5 20.5t28.5 52.5q0 16 9 16h66q10 0 10 -9q0 -72 -49.5 -113.5t-140.5 -41.5
q-100 0 -152 50zM217.5 585q-13.5 15 -13.5 40v10q0 25 13.5 40t41.5 15t41.5 -15t13.5 -40v-10q0 -25 -13.5 -40t-41.5 -15t-41.5 15z" />
    <glyph glyph-name="Ccaron" unicode="&#x10c;" horiz-adv-x="633" 
d="M136 48.5q-63 60.5 -63 174.5v209q0 114 63.5 174.5t184.5 60.5q71 0 126.5 -22.5t87 -65.5t31.5 -101q0 -21 -2 -32q-2 -14 -11 -14h-65q-5 0 -7.5 3t-1.5 7q3 72 -37.5 111t-119.5 39q-80 0 -122 -41t-42 -118v-211q0 -77 42 -118t122 -41q74 0 116 34.5t42 96.5
q0 12 -1 19v2q0 8 9 8h64q6 0 8.5 -3.5t3.5 -10.5t1 -21q0 -60 -30.5 -105.5t-86 -70t-128.5 -24.5q-121 0 -184 60.5zM184 774q-7 3 -7 10v50q0 11 11 6l129 -46l129 46q2 1 5 1q6 0 6 -7v-50q0 -7 -7 -10l-126 -56q-7 -3 -14 0z" />
    <glyph glyph-name="ccaron" unicode="&#x10d;" horiz-adv-x="517" 
d="M114 38q-52 50 -52 144v124q0 94 53 144t153 50q87 0 138 -39t51 -103q0 -13 -2.5 -18t-7.5 -5h-66q-9 0 -9 16q0 34 -28 54t-76 20q-61 0 -91 -31t-30 -96v-108q0 -127 120 -127q47 0 75.5 20.5t28.5 52.5q0 16 9 16h66q10 0 10 -9q0 -72 -49.5 -113.5t-140.5 -41.5
q-100 0 -152 50zM136 618q-7 4 -7 13v51q0 10 11 4l119 -59l119 59q11 6 11 -4v-51q0 -9 -7 -13l-116 -66q-3 -2 -7 -2t-7 2z" />
    <glyph glyph-name="Dcaron" unicode="&#x10e;" horiz-adv-x="641" 
d="M85 10v635q0 10 10 10h175q154 0 230 -71.5t76 -216.5v-50q0 -160 -76 -238.5t-230 -78.5h-175q-10 0 -10 10zM264 72q117 0 172 58t55 181v62q0 108 -55 159t-172 51h-94v-511h94zM160 774q-7 3 -7 10v50q0 11 11 6l129 -46l129 46q2 1 5 1q6 0 6 -7v-50q0 -7 -7 -10
l-126 -56q-7 -3 -14 0z" />
    <glyph glyph-name="dcaron" unicode="&#x10f;" horiz-adv-x="543" 
d="M475 10q0 -10 -11 -10h-58q-11 0 -12 11q-5 30 -7 65q-48 -46 -89.5 -67t-88.5 -21q-71 0 -108 47t-37 139v125q0 95 48 148t133 53q35 0 73.5 -8.5t63.5 -22.5v204q0 10 10 10h65q10 0 10 -10v-560q0 -25 2 -55.5t5 -43.5zM231 63q35 0 68 18.5t83 66.5v249
q-29 13 -62 20.5t-60 7.5q-111 0 -111 -136v-120q0 -106 82 -106zM528.5 531q-2.5 3 -1.5 8l14 57q-16 5 -22.5 13.5t-6.5 24.5v25q0 16 12 26t32 10q49 0 49 -36v-26q0 -26 -8 -47l-18 -50q-3 -8 -12 -8h-31q-5 0 -7.5 3z" />
    <glyph glyph-name="Dcroat" unicode="&#x110;" horiz-adv-x="641" 
d="M500 583.5q76 -71.5 76 -216.5v-50q0 -160 -76 -238.5t-230 -78.5h-175q-10 0 -10 10v288h-70q-10 0 -10 10v50q0 10 10 10h70v277q0 10 10 10h175q154 0 230 -71.5zM491 373q0 108 -55 159t-172 51h-94v-215h147q10 0 10 -10v-50q0 -10 -10 -10h-147v-226h94
q117 0 172 58t55 181v62z" />
    <glyph glyph-name="dcroat" unicode="&#x111;" horiz-adv-x="542" 
d="M548 613v-50q0 -10 -10 -10h-71v-440q0 -25 2 -55.5t5 -43.5l1 -4q0 -10 -11 -10h-58q-11 0 -12 11q-5 30 -7 65q-48 -46 -89.5 -67t-88.5 -21q-71 0 -108 47t-37 139v125q0 95 48 148t133 53q35 0 73.5 -8.5t63.5 -22.5v84h-105q-10 0 -10 10v50q0 10 10 10h105v50
q0 10 10 10h65q10 0 10 -10v-50h71q10 0 10 -10zM231 63q35 0 68 18.5t83 66.5v249q-29 13 -62 20.5t-60 7.5q-111 0 -111 -136v-120q0 -106 82 -106z" />
    <glyph glyph-name="Emacron" unicode="&#x112;" horiz-adv-x="533" 
d="M85 10v635q0 10 10 10h356q10 0 10 -10v-57q0 -10 -10 -10h-281v-208h257q10 0 10 -10v-54q0 -10 -10 -10h-257v-219h281q10 0 10 -10v-57q0 -10 -10 -10h-356q-10 0 -10 10zM162 727v52q0 10 10 10h215q10 0 10 -10v-52q0 -10 -10 -10h-215q-10 0 -10 10z" />
    <glyph glyph-name="emacron" unicode="&#x113;" horiz-adv-x="519" 
d="M113 33q-51 45 -51 133v140q0 94 51 144t148 50t147.5 -48.5t50.5 -140.5v-78q0 -10 -10 -10h-302v-32q0 -68 28 -98t91 -30q47 0 72.5 15.5t25.5 45.5q0 5 3 8t8 3h65q8 0 10 -9q4 -64 -47 -101t-142 -37q-97 0 -148 45zM374 296v6q0 63 -27.5 93t-84.5 30
q-115 0 -115 -124v-5h227zM150 592v52q0 10 10 10h195q10 0 10 -10v-52q0 -10 -10 -10h-195q-10 0 -10 10z" />
    <glyph glyph-name="Edotaccent" unicode="&#x116;" horiz-adv-x="533" 
d="M85 10v635q0 10 10 10h356q10 0 10 -10v-57q0 -10 -10 -10h-281v-208h257q10 0 10 -10v-54q0 -10 -10 -10h-257v-219h281q10 0 10 -10v-57q0 -10 -10 -10h-356q-10 0 -10 10zM238.5 740q-13.5 15 -13.5 40v10q0 25 13.5 40t41.5 15t41.5 -15t13.5 -40v-10
q0 -25 -13.5 -40t-41.5 -15t-41.5 15z" />
    <glyph glyph-name="edotaccent" unicode="&#x117;" horiz-adv-x="519" 
d="M113 33q-51 45 -51 133v140q0 94 51 144t148 50t147.5 -48.5t50.5 -140.5v-78q0 -10 -10 -10h-302v-32q0 -68 28 -98t91 -30q47 0 72.5 15.5t25.5 45.5q0 5 3 8t8 3h65q8 0 10 -9q4 -64 -47 -101t-142 -37q-97 0 -148 45zM374 296v6q0 63 -27.5 93t-84.5 30
q-115 0 -115 -124v-5h227zM216.5 597q-13.5 15 -13.5 40v10q0 25 13.5 40t41.5 15t41.5 -15t13.5 -40v-10q0 -25 -13.5 -40t-41.5 -15t-41.5 15z" />
    <glyph glyph-name="Eogonek" unicode="&#x118;" horiz-adv-x="533" 
d="M170 578v-208h257q10 0 10 -10v-54q0 -10 -10 -10h-257v-219h281q10 0 10 -10v-57q0 -10 -10 -10h-21q-26 -14 -41 -38t-15 -49v-10q0 -20 9.5 -28.5t31.5 -8.5q17 0 25 1h3q6 0 6 -7v-44q0 -9 -8 -10q-21 -3 -40 -3q-49 0 -74 22t-25 59v12q0 30 16.5 57t46.5 47h-270
q-10 0 -10 10v635q0 10 10 10h356q10 0 10 -10v-57q0 -10 -10 -10h-281z" />
    <glyph glyph-name="eogonek" unicode="&#x119;" horiz-adv-x="519" 
d="M408.5 451.5q50.5 -48.5 50.5 -140.5v-78q0 -10 -10 -10h-302v-32q0 -68 28 -98t91 -30q47 0 72.5 15.5t25.5 45.5q0 5 3 8t8 3h65q8 0 10 -9q2 -44 -22 -76t-71 -48q-27 -14 -42.5 -38t-15.5 -50v-10q0 -20 9.5 -28.5t31.5 -8.5q17 0 25 1h3q6 0 6 -7v-44q0 -9 -8 -10
q-21 -3 -40 -3q-49 0 -74 22t-25 59v12q0 51 46 91h-12q-97 0 -148 45t-51 133v140q0 94 51 144t148 50t147.5 -48.5zM374 302q0 63 -27.5 93t-84.5 30q-115 0 -115 -124v-5h227v6z" />
    <glyph glyph-name="Ecaron" unicode="&#x11a;" horiz-adv-x="533" 
d="M85 10v635q0 10 10 10h356q10 0 10 -10v-57q0 -10 -10 -10h-281v-208h257q10 0 10 -10v-54q0 -10 -10 -10h-257v-219h281q10 0 10 -10v-57q0 -10 -10 -10h-356q-10 0 -10 10zM147 774q-7 3 -7 10v50q0 11 11 6l129 -46l129 46q2 1 5 1q6 0 6 -7v-50q0 -7 -7 -10l-126 -56
q-7 -3 -14 0z" />
    <glyph glyph-name="ecaron" unicode="&#x11b;" horiz-adv-x="519" 
d="M113 33q-51 45 -51 133v140q0 94 51 144t148 50t147.5 -48.5t50.5 -140.5v-78q0 -10 -10 -10h-302v-32q0 -68 28 -98t91 -30q47 0 72.5 15.5t25.5 45.5q0 5 3 8t8 3h65q8 0 10 -9q4 -64 -47 -101t-142 -37q-97 0 -148 45zM374 296v6q0 63 -27.5 93t-84.5 30
q-115 0 -115 -124v-5h227zM135 630q-7 4 -7 13v51q0 10 11 4l119 -59l119 59q11 6 11 -4v-51q0 -9 -7 -13l-116 -66q-3 -2 -7 -2t-7 2z" />
    <glyph glyph-name="Gbreve" unicode="&#x11e;" horiz-adv-x="653" 
d="M135 50.5q-62 62.5 -62 172.5v209q0 110 67 172.5t184 62.5q72 0 127 -22.5t85.5 -64.5t30.5 -98q0 -20 -2 -30q-1 -10 -11 -10h-65q-5 0 -7.5 3t-1.5 7q4 68 -35.5 104t-118.5 36q-83 0 -125.5 -40t-42.5 -119v-211q0 -159 161 -159q83 0 126.5 41t43.5 118v38h-156
q-10 0 -10 10v54q0 10 10 10h225q10 0 10 -10v-197q0 -64 7 -116v-2q0 -9 -9 -9h-53q-9 0 -11 8q-6 32 -7 63h-1q-29 -41 -77.5 -62t-110.5 -21q-109 0 -171 62.5zM234.5 729.5q-36.5 13.5 -55.5 26.5q-6 5 -6 12v55q0 6 3 8t8 -1q33 -18 63 -30.5t63 -12.5t63 12.5t63 30.5
l5 2q6 0 6 -9v-55q0 -7 -6 -12q-19 -13 -55.5 -26.5t-75.5 -13.5t-75.5 13.5z" />
    <glyph glyph-name="gbreve" unicode="&#x11f;" horiz-adv-x="517" 
d="M483 -54q0 -76 -54 -109.5t-174 -33.5q-116 0 -168 31t-52 96q0 74 62 112q-25 23 -25 67q0 28 11.5 48t40.5 43q-45 42 -45 129t45.5 129t141.5 42q92 0 136.5 -42.5t44.5 -129.5t-45 -128.5t-139 -41.5q-50 0 -88 12q-25 -16 -25 -43q0 -18 11.5 -25.5t37.5 -9.5
l166 -10q118 -7 118 -136zM186 404q-22 -22 -22 -76q0 -53 22 -74.5t77 -21.5t77 21.5t22 74.5q0 54 -22 76t-77 22t-77 -22zM343 -118q30 7 43 23t13 45t-14 43t-46 15l-175 9q-41 -21 -41 -71q0 -40 30 -55.5t106 -15.5q54 0 84 7zM193 571.5q-29 15.5 -46 33.5
q-4 4 -4 12v54q0 6 3 8t8 -2q19 -19 48 -34.5t65 -15.5t65 15.5t48 34.5q3 3 6 3q5 0 5 -9v-54q0 -8 -4 -12q-49 -49 -120 -49q-45 0 -74 15.5z" />
    <glyph glyph-name="Gdotaccent" unicode="&#x120;" horiz-adv-x="653" 
d="M135 50.5q-62 62.5 -62 172.5v209q0 110 67 172.5t184 62.5q72 0 127 -22.5t85.5 -64.5t30.5 -98q0 -20 -2 -30q-1 -10 -11 -10h-65q-5 0 -7.5 3t-1.5 7q4 68 -35.5 104t-118.5 36q-83 0 -125.5 -40t-42.5 -119v-211q0 -159 161 -159q83 0 126.5 41t43.5 118v38h-156
q-10 0 -10 10v54q0 10 10 10h225q10 0 10 -10v-197q0 -64 7 -116v-2q0 -9 -9 -9h-53q-9 0 -11 8q-6 32 -7 63h-1q-29 -41 -77.5 -62t-110.5 -21q-109 0 -171 62.5zM268.5 740q-13.5 15 -13.5 40v10q0 25 13.5 40t41.5 15t41.5 -15t13.5 -40v-10q0 -25 -13.5 -40t-41.5 -15
t-41.5 15z" />
    <glyph glyph-name="gdotaccent" unicode="&#x121;" horiz-adv-x="517" 
d="M483 -54q0 -76 -54 -109.5t-174 -33.5q-116 0 -168 31t-52 96q0 74 62 112q-25 23 -25 67q0 28 11.5 48t40.5 43q-45 42 -45 129t45.5 129t141.5 42q92 0 136.5 -42.5t44.5 -129.5t-45 -128.5t-139 -41.5q-50 0 -88 12q-25 -16 -25 -43q0 -18 11.5 -25.5t37.5 -9.5
l166 -10q118 -7 118 -136zM186 404q-22 -22 -22 -76q0 -53 22 -74.5t77 -21.5t77 21.5t22 74.5q0 54 -22 76t-77 22t-77 -22zM343 -118q30 7 43 23t13 45t-14 43t-46 15l-175 9q-41 -21 -41 -71q0 -40 30 -55.5t106 -15.5q54 0 84 7zM225.5 585q-13.5 15 -13.5 40v10
q0 25 13.5 40t41.5 15t41.5 -15t13.5 -40v-10q0 -25 -13.5 -40t-41.5 -15t-41.5 15z" />
    <glyph glyph-name="uni0122" unicode="&#x122;" horiz-adv-x="653" 
d="M135 50.5q-62 62.5 -62 172.5v209q0 110 67 172.5t184 62.5q72 0 127 -22.5t85.5 -64.5t30.5 -98q0 -20 -2 -30q-1 -10 -11 -10h-65q-5 0 -7.5 3t-1.5 7q4 68 -35.5 104t-118.5 36q-83 0 -125.5 -40t-42.5 -119v-211q0 -159 161 -159q83 0 126.5 41t43.5 118v38h-156
q-10 0 -10 10v54q0 10 10 10h225q10 0 10 -10v-197q0 -64 7 -116v-2q0 -9 -9 -9h-53q-9 0 -11 8q-6 32 -7 63h-1q-29 -41 -77.5 -62t-110.5 -21q-109 0 -171 62.5zM286 -222l16 67q-15 5 -22 15t-7 26v17q0 19 12 30t32 11q49 0 49 -41v-18q0 -24 -8 -50l-20 -60
q-2 -6 -10 -6h-36q-8 0 -6 9z" />
    <glyph glyph-name="uni0123" unicode="&#x123;" horiz-adv-x="517" 
d="M483 -54q0 -76 -54 -109.5t-174 -33.5q-116 0 -168 31t-52 96q0 74 62 112q-25 23 -25 67q0 28 11.5 48t40.5 43q-45 42 -45 129t45.5 129t141.5 42q92 0 136.5 -42.5t44.5 -129.5t-45 -128.5t-139 -41.5q-50 0 -88 12q-25 -16 -25 -43q0 -18 11.5 -25.5t37.5 -9.5
l166 -10q118 -7 118 -136zM186 404q-22 -22 -22 -76q0 -53 22 -74.5t77 -21.5t77 21.5t22 74.5q0 54 -22 76t-77 22t-77 -22zM343 -118q30 7 43 23t13 45t-14 43t-46 15l-175 9q-41 -21 -41 -71q0 -40 30 -55.5t106 -15.5q54 0 84 7zM220 604v18q0 24 8 50l20 60q2 6 10 6
h36q7 0 6 -9l-16 -67q15 -5 22 -15t7 -26v-17q0 -19 -12 -30t-32 -11q-49 0 -49 41z" />
    <glyph glyph-name="Hbar" unicode="&#x126;" horiz-adv-x="661" 
d="M632 577v-51q0 -10 -10 -10h-46v-506q0 -10 -10 -10h-65q-10 0 -10 10v291h-321v-291q0 -10 -10 -10h-65q-10 0 -10 10v506h-46q-10 0 -10 10v51q0 10 10 10h46v58q0 10 10 10h65q10 0 10 -10v-58h321v58q0 10 10 10h65q10 0 10 -10v-58h46q10 0 10 -10zM491 516h-321
v-141h321v141z" />
    <glyph glyph-name="hbar" unicode="&#x127;" horiz-adv-x="556" 
d="M443.5 457.5q37.5 -42.5 37.5 -124.5v-323q0 -10 -10 -10h-65q-10 0 -10 10v319q0 96 -81 96q-37 0 -74.5 -20.5t-80.5 -64.5v-330q0 -10 -10 -10h-65q-10 0 -10 10v543h-71q-10 0 -10 10v50q0 10 10 10h71v50q0 10 10 10h65q10 0 10 -10v-50h105q10 0 10 -10v-50
q0 -10 -10 -10h-105v-137q44 44 85.5 64t88.5 20q72 0 109.5 -42.5z" />
    <glyph glyph-name="Imacron" unicode="&#x12a;" horiz-adv-x="255" 
d="M85 10v635q0 10 10 10h65q10 0 10 -10v-635q0 -10 -10 -10h-65q-10 0 -10 10zM10 727v52q0 10 10 10h215q10 0 10 -10v-52q0 -10 -10 -10h-215q-10 0 -10 10z" />
    <glyph glyph-name="imacron" unicode="&#x12b;" horiz-adv-x="235" 
d="M75 10v468q0 10 10 10h65q10 0 10 -10v-468q0 -10 -10 -10h-65q-10 0 -10 10zM10 580v52q0 10 10 10h195q10 0 10 -10v-52q0 -10 -10 -10h-195q-10 0 -10 10z" />
    <glyph glyph-name="Iogonek" unicode="&#x12e;" horiz-adv-x="255" 
d="M175 -133q6 0 6 -7v-44q0 -9 -8 -10q-21 -3 -40 -3q-49 0 -74 22t-25 59v12q0 30 16.5 57t46.5 47h-2q-10 0 -10 10v635q0 10 10 10h65q10 0 10 -10v-635q0 -8 -7 -10q-27 -14 -42 -37.5t-15 -49.5v-10q0 -20 9.5 -28.5t31.5 -8.5q17 0 25 1h3z" />
    <glyph glyph-name="iogonek" unicode="&#x12f;" horiz-adv-x="235" 
d="M159.5 675q13.5 -15 13.5 -40v-10q0 -25 -13.5 -40t-41.5 -15t-41.5 15t-13.5 40v10q0 25 13.5 40t41.5 15t41.5 -15zM159 -133q6 0 6 -7v-44q0 -9 -8 -10q-21 -3 -40 -3q-49 0 -74 22t-25 59v12q0 30 17 57t47 47q-7 4 -7 10v468q0 10 10 10h65q10 0 10 -10v-468
q0 -10 -10 -10h-4q-26 -14 -41 -38t-15 -49v-10q0 -20 9.5 -28.5t31.5 -8.5q17 0 25 1h3z" />
    <glyph glyph-name="Idotaccent" unicode="&#x130;" horiz-adv-x="255" 
d="M85 10v635q0 10 10 10h65q10 0 10 -10v-635q0 -10 -10 -10h-65q-10 0 -10 10zM86.5 740q-13.5 15 -13.5 40v10q0 25 13.5 40t41.5 15t41.5 -15t13.5 -40v-10q0 -25 -13.5 -40t-41.5 -15t-41.5 15z" />
    <glyph glyph-name="dotlessi" unicode="&#x131;" horiz-adv-x="235" 
d="M75 10v468q0 10 10 10h65q10 0 10 -10v-468q0 -10 -10 -10h-65q-10 0 -10 10z" />
    <glyph glyph-name="IJ" unicode="&#x132;" horiz-adv-x="520" 
d="M85 10v635q0 10 10 10h65q10 0 10 -10v-635q0 -10 -10 -10h-65q-10 0 -10 10zM277 -141q-8 0 -10 6l-17 59v3q0 9 18 13q40 10 61 46t21 96v563q0 10 10 10h65q10 0 10 -10v-559q0 -191 -143 -225q-7 -2 -15 -2z" />
    <glyph glyph-name="ij" unicode="&#x133;" horiz-adv-x="471" 
d="M75 10v468q0 10 10 10h65q10 0 10 -10v-468q0 -10 -10 -10h-65q-10 0 -10 10zM76.5 585q-13.5 15 -13.5 40v10q0 25 13.5 40t41.5 15t41.5 -15t13.5 -40v-10q0 -25 -13.5 -40t-41.5 -15t-41.5 15zM271 -192q-3 0 -8 5l-39 49q-2 2 -2 6q0 5 5 8q83 57 83 188v414
q0 10 10 10h65q10 0 10 -10v-419q0 -90 -28.5 -151.5t-89.5 -97.5q-4 -2 -6 -2zM311.5 585q-13.5 15 -13.5 40v10q0 25 13.5 40t41.5 15t41.5 -15t13.5 -40v-10q0 -25 -13.5 -40t-41.5 -15t-41.5 15z" />
    <glyph glyph-name="uni0136" unicode="&#x136;" horiz-adv-x="595" 
d="M85 10v635q0 10 10 10h65q10 0 10 -10v-193q0 -81 -1 -121h1l92 102l195 217q4 5 12 5h85q6 0 8 -3.5t-2 -8.5l-235 -254l253 -377q2 -4 2 -6q0 -6 -8 -6h-83q-7 0 -12 7l-211 317l-96 -104v-210q0 -10 -10 -10h-65q-10 0 -10 10zM284 -222l16 67q-15 5 -22 15t-7 26v17
q0 19 12 30t32 11q49 0 49 -41v-18q0 -24 -8 -50l-20 -60q-2 -6 -10 -6h-36q-8 0 -6 9z" />
    <glyph glyph-name="uni0137" unicode="&#x137;" horiz-adv-x="491" 
d="M75 10v663q0 10 10 10h65q10 0 10 -10v-259q0 -92 -1 -138h1q36 41 74 80l118 127q4 5 12 5h88q7 0 8.5 -3.5t-3.5 -8.5l-166 -170l181 -294q2 -4 2 -6q0 -6 -9 -6h-77q-7 0 -12 7l-146 236l-70 -71v-162q0 -10 -10 -10h-65q-10 0 -10 10zM221 -222l16 67q-15 5 -22 15
t-7 26v17q0 19 12 30t32 11q49 0 49 -41v-18q0 -24 -8 -50l-20 -60q-2 -6 -10 -6h-36q-8 0 -6 9z" />
    <glyph glyph-name="kgreenlandic" unicode="&#x138;" horiz-adv-x="491" 
d="M75 10v468q0 10 10 10h65q10 0 10 -10v-64q0 -92 -1 -138h1q36 41 74 80l118 127q4 5 12 5h88q7 0 8.5 -3.5t-3.5 -8.5l-166 -170l181 -294q2 -4 2 -6q0 -6 -9 -6h-77q-7 0 -12 7l-146 236l-70 -71v-162q0 -10 -10 -10h-65q-10 0 -10 10z" />
    <glyph glyph-name="Lacute" unicode="&#x139;" horiz-adv-x="476" 
d="M85 10v635q0 10 10 10h65q10 0 10 -10v-568h276q10 0 10 -10v-57q0 -10 -10 -10h-351q-10 0 -10 10zM75 720l56 102q3 7 10 7h73q5 0 6.5 -3.5t-1.5 -8.5l-72 -101q-4 -6 -11 -6h-56q-10 0 -5 10z" />
    <glyph glyph-name="lacute" unicode="&#x13a;" horiz-adv-x="235" 
d="M75 10v663q0 10 10 10h65q10 0 10 -10v-663q0 -10 -10 -10h-65q-10 0 -10 10zM66 748l56 102q3 7 10 7h73q5 0 6.5 -3.5t-1.5 -8.5l-72 -101q-4 -6 -11 -6h-56q-10 0 -5 10z" />
    <glyph glyph-name="uni013B" unicode="&#x13b;" horiz-adv-x="476" 
d="M85 10v635q0 10 10 10h65q10 0 10 -10v-568h276q10 0 10 -10v-57q0 -10 -10 -10h-351q-10 0 -10 10zM244 -222l16 67q-15 5 -22 15t-7 26v17q0 19 12 30t32 11q49 0 49 -41v-18q0 -24 -8 -50l-20 -60q-2 -6 -10 -6h-36q-8 0 -6 9z" />
    <glyph glyph-name="uni013C" unicode="&#x13c;" horiz-adv-x="235" 
d="M75 10v663q0 10 10 10h65q10 0 10 -10v-663q0 -10 -10 -10h-65q-10 0 -10 10zM84 -222l16 67q-15 5 -22 15t-7 26v17q0 19 12 30t32 11q49 0 49 -41v-18q0 -24 -8 -50l-20 -60q-2 -6 -10 -6h-36q-8 0 -6 9z" />
    <glyph glyph-name="Lcaron" unicode="&#x13d;" horiz-adv-x="476" 
d="M85 10v635q0 10 10 10h65q10 0 10 -10v-568h276q10 0 10 -10v-57q0 -10 -10 -10h-351q-10 0 -10 10zM276.5 503q-2.5 3 -1.5 8l14 57q-16 5 -22.5 13.5t-6.5 24.5v25q0 16 12 26t32 10q49 0 49 -36v-26q0 -26 -8 -47l-18 -50q-3 -8 -12 -8h-31q-5 0 -7.5 3z" />
    <glyph glyph-name="lcaron" unicode="&#x13e;" horiz-adv-x="236" 
d="M75 10v663q0 10 10 10h65q10 0 10 -10v-663q0 -10 -10 -10h-65q-10 0 -10 10zM221.5 531q-2.5 3 -1.5 8l14 57q-16 5 -22.5 13.5t-6.5 24.5v25q0 16 12 26t32 10q49 0 49 -36v-26q0 -26 -8 -47l-18 -50q-3 -8 -12 -8h-31q-5 0 -7.5 3z" />
    <glyph glyph-name="Lslash" unicode="&#x141;" horiz-adv-x="476" 
d="M456 67v-57q0 -10 -10 -10h-351q-10 0 -10 10v290l-86 -36l-4 -1q-8 0 -8 9v56q0 8 8 11l90 37v269q0 10 10 10h65q10 0 10 -10v-234l126 52l4 1q8 0 8 -9v-55q0 -8 -8 -11l-130 -54v-258h276q10 0 10 -10z" />
    <glyph glyph-name="lslash" unicode="&#x142;" horiz-adv-x="235" 
d="M234 520q8 0 8 -9v-57q0 -8 -8 -11l-74 -35v-398q0 -10 -10 -10h-65q-10 0 -10 10v358l-70 -33l-4 -1q-8 0 -8 9v57q0 8 8 11l74 35v227q0 10 10 10h65q10 0 10 -10v-187l70 33z" />
    <glyph glyph-name="Nacute" unicode="&#x143;" horiz-adv-x="662" 
d="M85 10v635q0 10 10 10h116q9 0 12 -7l188 -382q57 -114 81 -174h2l-1 178v375q0 10 10 10h64q10 0 10 -10v-635q0 -10 -10 -10h-113q-9 0 -12 7l-185 372q-61 123 -87 184h-2l1 -192v-361q0 -10 -10 -10h-64q-10 0 -10 10zM279 720l56 102q3 7 10 7h73q5 0 6.5 -3.5
t-1.5 -8.5l-72 -101q-4 -6 -11 -6h-56q-10 0 -5 10z" />
    <glyph glyph-name="nacute" unicode="&#x144;" horiz-adv-x="556" 
d="M443 457.5q38 -42.5 38 -124.5v-323q0 -10 -10 -10h-65q-10 0 -10 10v319q0 49 -20 72.5t-62 23.5q-36 0 -70.5 -19t-83.5 -66v-330q0 -10 -10 -10h-65q-10 0 -10 10v356q0 53 -7 109v3q0 10 10 10h61q5 0 7 -2t4 -8q4 -16 8 -63q46 45 86.5 65t88.5 20q72 0 110 -42.5z
M225 559q-1 3 1 7l66 122q3 7 12 7h70q5 0 6.5 -3.5t-1.5 -7.5l-83 -122q-4 -6 -11 -6h-54q-5 0 -6 3z" />
    <glyph glyph-name="uni0145" unicode="&#x145;" horiz-adv-x="662" 
d="M85 10v635q0 10 10 10h116q9 0 12 -7l188 -382q57 -114 81 -174h2l-1 178v375q0 10 10 10h64q10 0 10 -10v-635q0 -10 -10 -10h-113q-9 0 -12 7l-185 372q-61 123 -87 184h-2l1 -192v-361q0 -10 -10 -10h-64q-10 0 -10 10zM297 -222l16 67q-15 5 -22 15t-7 26v17
q0 19 12 30t32 11q49 0 49 -41v-18q0 -24 -8 -50l-20 -60q-2 -6 -10 -6h-36q-8 0 -6 9z" />
    <glyph glyph-name="uni0146" unicode="&#x146;" horiz-adv-x="556" 
d="M443 457.5q38 -42.5 38 -124.5v-323q0 -10 -10 -10h-65q-10 0 -10 10v319q0 49 -20 72.5t-62 23.5q-36 0 -70.5 -19t-83.5 -66v-330q0 -10 -10 -10h-65q-10 0 -10 10v356q0 53 -7 109v3q0 10 10 10h61q5 0 7 -2t4 -8q4 -16 8 -63q46 45 86.5 65t88.5 20q72 0 110 -42.5z
M252 -222l16 67q-15 5 -22 15t-7 26v17q0 19 12 30t32 11q49 0 49 -41v-18q0 -24 -8 -50l-20 -60q-2 -6 -10 -6h-36q-8 0 -6 9z" />
    <glyph glyph-name="Ncaron" unicode="&#x147;" horiz-adv-x="662" 
d="M85 10v635q0 10 10 10h116q9 0 12 -7l188 -382q57 -114 81 -174h2l-1 178v375q0 10 10 10h64q10 0 10 -10v-635q0 -10 -10 -10h-113q-9 0 -12 7l-185 372q-61 123 -87 184h-2l1 -192v-361q0 -10 -10 -10h-64q-10 0 -10 10zM198 774q-7 3 -7 10v50q0 11 11 6l129 -46
l129 46q2 1 5 1q6 0 6 -7v-50q0 -7 -7 -10l-126 -56q-7 -3 -14 0z" />
    <glyph glyph-name="ncaron" unicode="&#x148;" horiz-adv-x="556" 
d="M443 457.5q38 -42.5 38 -124.5v-323q0 -10 -10 -10h-65q-10 0 -10 10v319q0 49 -20 72.5t-62 23.5q-36 0 -70.5 -19t-83.5 -66v-330q0 -10 -10 -10h-65q-10 0 -10 10v356q0 53 -7 109v3q0 10 10 10h61q5 0 7 -2t4 -8q4 -16 8 -63q46 45 86.5 65t88.5 20q72 0 110 -42.5z
M159 618q-7 4 -7 13v51q0 10 11 4l119 -59l119 59q11 6 11 -4v-51q0 -9 -7 -13l-116 -66q-3 -2 -7 -2t-7 2z" />
    <glyph glyph-name="Eng" unicode="&#x14a;" horiz-adv-x="662" 
d="M405 -138q-2 2 -2 5q0 5 12 13q28 19 47 50.5t26 69.5h-34q-9 0 -12 7l-185 372q-61 123 -87 184h-2l1 -192v-361q0 -10 -10 -10h-64q-10 0 -10 10v635q0 10 10 10h116q9 0 12 -7l188 -382q57 -114 81 -174h2l-1 178v375q0 10 10 10h64q10 0 10 -10v-585
q0 -87 -27 -148.5t-79 -93.5q-15 -9 -20 -9q-3 0 -7 4z" />
    <glyph glyph-name="eng" unicode="&#x14b;" horiz-adv-x="556" 
d="M357 -192q-3 0 -8 5l-39 49q-2 2 -2 6q0 5 5 8q83 58 83 188v265q0 49 -20 72.5t-62 23.5q-36 0 -70.5 -19t-83.5 -66v-330q0 -10 -10 -10h-65q-10 0 -10 10v356q0 53 -7 109v3q0 10 10 10h61q5 0 7 -2t4 -8q4 -16 8 -63q46 45 86.5 65t88.5 20q72 0 110 -42.5t38 -124.5
v-274q0 -91 -29.5 -152.5t-88.5 -96.5q-4 -2 -6 -2z" />
    <glyph glyph-name="Omacron" unicode="&#x14c;" horiz-adv-x="642" 
d="M135 48.5q-62 60.5 -62 174.5v209q0 114 62 174.5t186 60.5t186 -60.5t62 -174.5v-209q0 -114 -62 -174.5t-186 -60.5t-186 60.5zM442.5 104q41.5 41 41.5 120v207q0 79 -41.5 120t-121.5 41t-121.5 -41t-41.5 -120v-207q0 -79 41.5 -120t121.5 -41t121.5 41zM203 727v52
q0 10 10 10h215q10 0 10 -10v-52q0 -10 -10 -10h-215q-10 0 -10 10z" />
    <glyph glyph-name="omacron" unicode="&#x14d;" horiz-adv-x="536" 
d="M62 186v116q0 198 206 198q101 0 153.5 -49.5t52.5 -148.5v-116q0 -198 -206 -198t-206 198zM360 95q29 32 29 99v100q0 67 -29 99t-92 32t-92 -32t-29 -99v-100q0 -67 29 -99t92 -32t92 32zM160 580v52q0 10 10 10h195q10 0 10 -10v-52q0 -10 -10 -10h-195q-10 0 -10 10
z" />
    <glyph glyph-name="Ohungarumlaut" unicode="&#x150;" horiz-adv-x="642" 
d="M135 48.5q-62 60.5 -62 174.5v209q0 114 62 174.5t186 60.5t186 -60.5t62 -174.5v-209q0 -114 -62 -174.5t-186 -60.5t-186 60.5zM442.5 104q41.5 41 41.5 120v207q0 79 -41.5 120t-121.5 41t-121.5 -41t-41.5 -120v-207q0 -79 41.5 -120t121.5 -41t121.5 41zM209 721
l43 100q3 8 11 8h65q5 0 7 -3.5t-1 -8.5l-54 -100q-4 -7 -12 -7h-53q-11 0 -6 11zM351 721l43 100q3 8 11 8h65q5 0 7 -3.5t-1 -8.5l-54 -100q-4 -7 -12 -7h-53q-11 0 -6 11z" />
    <glyph glyph-name="ohungarumlaut" unicode="&#x151;" horiz-adv-x="536" 
d="M62 186v116q0 198 206 198q101 0 153.5 -49.5t52.5 -148.5v-116q0 -198 -206 -198t-206 198zM360 95q29 32 29 99v100q0 67 -29 99t-92 32t-92 -32t-29 -99v-100q0 -67 29 -99t92 -32t92 32zM154 567l51 120q3 8 11 8h67q5 0 6.5 -3.5t-1.5 -8.5l-63 -120q-4 -7 -11 -7
h-54q-11 0 -6 11zM288 567l51 120q3 8 11 8h67q5 0 6.5 -3.5t-1.5 -8.5l-63 -120q-4 -7 -11 -7h-54q-11 0 -6 11z" />
    <glyph glyph-name="OE" unicode="&#x152;" horiz-adv-x="874" 
d="M135.5 49q-62.5 61 -62.5 174v209q0 113 62.5 174t185.5 61q63 0 105 -12h366q10 0 10 -10v-57q0 -10 -10 -10h-281v-208h257q10 0 10 -10v-54q0 -10 -10 -10h-257v-219h281q10 0 10 -10v-57q0 -10 -10 -10h-366q-42 -12 -105 -12q-123 0 -185.5 61zM426 72v511
q-37 9 -105 9q-79 0 -121 -41t-42 -118v-211q0 -77 42 -118t121 -41q68 0 105 9z" />
    <glyph glyph-name="oe" unicode="&#x153;" horiz-adv-x="836" 
d="M112.5 37.5q-50.5 49.5 -50.5 144.5v124q0 95 50.5 144.5t146.5 49.5q120 0 163 -80q24 40 66.5 60t99.5 20q90 0 139 -49t49 -140v-78q0 -10 -10 -10h-302v-32q0 -68 28 -98t91 -30q46 0 72 15.5t26 41.5q0 15 11 15h65q10 0 10 -12q0 -63 -51 -99t-137 -36
q-57 0 -95 18t-65 60q-29 -42 -66.5 -60t-92.5 -18q-97 0 -147.5 49.5zM379 190v108q0 127 -116 127t-116 -127v-108q0 -127 116 -127t116 127zM691 296v4q0 125 -112 125q-115 0 -115 -126v-3h227z" />
    <glyph glyph-name="Racute" unicode="&#x154;" horiz-adv-x="604" 
d="M85 10v635q0 10 10 10h193q118 0 176 -45t58 -135q0 -72 -34.5 -119.5t-97.5 -65.5v-1l167 -277q2 -4 2 -6q0 -6 -9 -6h-77q-8 0 -12 7l-163 272h-128v-269q0 -10 -10 -10h-65q-10 0 -10 10zM279 347q84 0 121 28.5t37 93.5q0 62 -34.5 88t-117.5 26h-115v-236h109z
M225 720l56 102q3 7 10 7h73q5 0 6.5 -3.5t-1.5 -8.5l-72 -101q-4 -6 -11 -6h-56q-10 0 -5 10z" />
    <glyph glyph-name="racute" unicode="&#x155;" horiz-adv-x="356" 
d="M341 452q0 -26 -3 -50q-2 -11 -13 -8q-15 4 -36 4q-33 0 -67 -19.5t-62 -53.5v-315q0 -10 -10 -10h-65q-10 0 -10 10v359q0 58 -7 108v2q0 4 3 6.5t7 2.5h61q10 0 11 -9q6 -33 8 -71q32 40 72.5 66t73.5 26q18 0 27 -3q7 -2 9 -10q1 -12 1 -35zM151 559q-1 3 1 7l66 122
q3 7 12 7h70q5 0 6.5 -3.5t-1.5 -7.5l-83 -122q-4 -6 -11 -6h-54q-5 0 -6 3z" />
    <glyph glyph-name="uni0156" unicode="&#x156;" horiz-adv-x="604" 
d="M85 10v635q0 10 10 10h193q118 0 176 -45t58 -135q0 -72 -34.5 -119.5t-97.5 -65.5v-1l167 -277q2 -4 2 -6q0 -6 -9 -6h-77q-8 0 -12 7l-163 272h-128v-269q0 -10 -10 -10h-65q-10 0 -10 10zM279 347q84 0 121 28.5t37 93.5q0 62 -34.5 88t-117.5 26h-115v-236h109z
M268 -222l16 67q-15 5 -22 15t-7 26v17q0 19 12 30t32 11q49 0 49 -41v-18q0 -24 -8 -50l-20 -60q-2 -6 -10 -6h-36q-8 0 -6 9z" />
    <glyph glyph-name="uni0157" unicode="&#x157;" horiz-adv-x="356" 
d="M341 452q0 -26 -3 -50q-2 -11 -13 -8q-15 4 -36 4q-33 0 -67 -19.5t-62 -53.5v-315q0 -10 -10 -10h-65q-10 0 -10 10v359q0 58 -7 108v2q0 4 3 6.5t7 2.5h61q10 0 11 -9q6 -33 8 -71q32 40 72.5 66t73.5 26q18 0 27 -3q7 -2 9 -10q1 -12 1 -35zM87 -222l16 67
q-15 5 -22 15t-7 26v17q0 19 12 30t32 11q49 0 49 -41v-18q0 -24 -8 -50l-20 -60q-2 -6 -10 -6h-36q-8 0 -6 9z" />
    <glyph glyph-name="Rcaron" unicode="&#x158;" horiz-adv-x="604" 
d="M85 10v635q0 10 10 10h193q118 0 176 -45t58 -135q0 -72 -34.5 -119.5t-97.5 -65.5v-1l167 -277q2 -4 2 -6q0 -6 -9 -6h-77q-8 0 -12 7l-163 272h-128v-269q0 -10 -10 -10h-65q-10 0 -10 10zM279 347q84 0 121 28.5t37 93.5q0 62 -34.5 88t-117.5 26h-115v-236h109z
M144 774q-7 3 -7 10v50q0 11 11 6l129 -46l129 46q2 1 5 1q6 0 6 -7v-50q0 -7 -7 -10l-126 -56q-7 -3 -14 0z" />
    <glyph glyph-name="rcaron" unicode="&#x159;" horiz-adv-x="356" 
d="M341 452q0 -26 -3 -50q-2 -11 -13 -8q-15 4 -36 4q-33 0 -67 -19.5t-62 -53.5v-315q0 -10 -10 -10h-65q-10 0 -10 10v359q0 58 -7 108v2q0 4 3 6.5t7 2.5h61q10 0 11 -9q6 -33 8 -71q32 40 72.5 66t73.5 26q18 0 27 -3q7 -2 9 -10q1 -12 1 -35zM85 618q-7 4 -7 13v51
q0 10 11 4l119 -59l119 59q11 6 11 -4v-51q0 -9 -7 -13l-116 -66q-3 -2 -7 -2t-7 2z" />
    <glyph glyph-name="Sacute" unicode="&#x15a;" horiz-adv-x="568" 
d="M103.5 38q-57.5 50 -51.5 136q1 18 12 18h63q12 0 12 -16q0 -60 35.5 -87t110.5 -27q144 0 144 103q0 39 -20 61.5t-71 43.5l-147 61q-68 28 -98 66.5t-30 96.5q0 85 54.5 128.5t159.5 43.5q102 0 163.5 -43t61.5 -120l-1 -17q-2 -19 -11 -19h-64q-5 0 -7.5 4t-1.5 15
q4 51 -34.5 78.5t-108.5 27.5q-126 0 -126 -93q0 -35 20.5 -57.5t73.5 -44.5l145 -61q69 -29 98 -67.5t29 -101.5q0 -86 -58.5 -132.5t-177.5 -46.5q-117 0 -174.5 50zM229 720l56 102q3 7 10 7h73q5 0 6.5 -3.5t-1.5 -8.5l-72 -101q-4 -6 -11 -6h-56q-10 0 -5 10z" />
    <glyph glyph-name="sacute" unicode="&#x15b;" horiz-adv-x="464" 
d="M53 146q0 9 10 9h66q9 0 9 -8q0 -45 22.5 -65t73.5 -20q49 0 74 16t25 48q0 22 -14 38t-44 29l-114 47q-55 23 -78 52t-23 75q0 133 167 133q85 0 132 -36t47 -100q0 -9 -10 -9h-66q-10 0 -10 16q0 26 -24 40.5t-66 14.5q-43 0 -64 -14.5t-21 -44.5q0 -22 11 -33t47 -26
l114 -48q54 -23 77.5 -53t23.5 -76q0 -69 -48 -106t-137 -37q-180 0 -180 158zM171 559q-1 3 1 7l66 122q3 7 12 7h70q5 0 6.5 -3.5t-1.5 -7.5l-83 -122q-4 -6 -11 -6h-54q-5 0 -6 3z" />
    <glyph glyph-name="Scedilla" unicode="&#x15e;" horiz-adv-x="568" 
d="M463.5 41.5q-50.5 -45.5 -152.5 -52.5l-9 -30h9q25 0 39 -17.5t14 -46.5v-15q0 -40 -23.5 -58.5t-71.5 -18.5q-22 0 -41 4q-5 1 -6.5 2.5t-1.5 5.5v37q0 7 5 7q8 0 16 -1t15 -1q41 0 41 24v13q0 15 -8 20.5t-26 5.5h-23q-4 0 -5.5 1t-1.5 6q0 14 2 20l13 42
q-97 7 -147 51.5t-50 118.5q0 19 3 26t10 7h63q12 0 12 -16q0 -60 35.5 -87t110.5 -27q144 0 144 103q0 39 -20 61.5t-71 43.5l-147 61q-68 28 -98 66.5t-30 96.5q0 85 54.5 128.5t159.5 43.5q102 0 163.5 -43t61.5 -120l-1 -17q-2 -19 -11 -19h-64q-5 0 -7.5 4t-1.5 15
q4 51 -34.5 78.5t-108.5 27.5q-126 0 -126 -93q0 -35 20.5 -57.5t73.5 -44.5l145 -61q69 -29 98 -67.5t29 -101.5q0 -80 -50.5 -125.5z" />
    <glyph glyph-name="scedilla" unicode="&#x15f;" horiz-adv-x="464" 
d="M378.5 32q-39.5 -36 -114.5 -43l-9 -30h9q25 0 39 -17.5t14 -46.5v-15q0 -40 -23.5 -58.5t-71.5 -18.5q-22 0 -41 4q-5 1 -6.5 2.5t-1.5 5.5v37q0 7 5 7q8 0 16 -1t15 -1q41 0 41 24v13q0 15 -8 20.5t-26 5.5h-23q-4 0 -5.5 1t-1.5 6q0 14 2 20l13 42q-148 13 -148 157
q0 9 10 9h66q9 0 9 -8q0 -45 22.5 -65t73.5 -20q49 0 74 16t25 48q0 22 -14 38t-44 29l-114 47q-55 23 -78 52t-23 75q0 133 167 133q85 0 132 -36t47 -100q0 -9 -10 -9h-66q-10 0 -10 16q0 26 -24 40.5t-66 14.5q-43 0 -64 -14.5t-21 -44.5q0 -22 11 -33t47 -26l114 -48
q54 -23 77.5 -53t23.5 -76q0 -63 -39.5 -99z" />
    <glyph glyph-name="Scaron" unicode="&#x160;" horiz-adv-x="568" 
d="M103.5 38q-57.5 50 -51.5 136q1 18 12 18h63q12 0 12 -16q0 -60 35.5 -87t110.5 -27q144 0 144 103q0 39 -20 61.5t-71 43.5l-147 61q-68 28 -98 66.5t-30 96.5q0 85 54.5 128.5t159.5 43.5q102 0 163.5 -43t61.5 -120l-1 -17q-2 -19 -11 -19h-64q-5 0 -7.5 4t-1.5 15
q4 51 -34.5 78.5t-108.5 27.5q-126 0 -126 -93q0 -35 20.5 -57.5t73.5 -44.5l145 -61q69 -29 98 -67.5t29 -101.5q0 -86 -58.5 -132.5t-177.5 -46.5q-117 0 -174.5 50zM148 774q-7 3 -7 10v50q0 11 11 6l129 -46l129 46q2 1 5 1q6 0 6 -7v-50q0 -7 -7 -10l-126 -56
q-7 -3 -14 0z" />
    <glyph glyph-name="scaron" unicode="&#x161;" horiz-adv-x="464" 
d="M53 146q0 9 10 9h66q9 0 9 -8q0 -45 22.5 -65t73.5 -20q49 0 74 16t25 48q0 22 -14 38t-44 29l-114 47q-55 23 -78 52t-23 75q0 133 167 133q85 0 132 -36t47 -100q0 -9 -10 -9h-66q-10 0 -10 16q0 26 -24 40.5t-66 14.5q-43 0 -64 -14.5t-21 -44.5q0 -22 11 -33t47 -26
l114 -48q54 -23 77.5 -53t23.5 -76q0 -69 -48 -106t-137 -37q-180 0 -180 158zM105 618q-7 4 -7 13v51q0 10 11 4l119 -59l119 59q11 6 11 -4v-51q0 -9 -7 -13l-116 -66q-3 -2 -7 -2t-7 2z" />
    <glyph glyph-name="uni0162" unicode="&#x162;" horiz-adv-x="535" 
d="M500 645v-57q0 -10 -10 -10h-180v-568q0 -10 -10 -10h-9l-13 -41h9q25 0 39 -17.5t14 -46.5v-15q0 -40 -23.5 -58.5t-71.5 -18.5q-22 0 -41 4q-5 1 -6.5 2.5t-1.5 5.5v37q0 7 5 7q8 0 16 -1t15 -1q41 0 41 24v13q0 15 -8 20.5t-26 5.5h-23q-4 0 -5.5 1t-1.5 6q0 14 2 20
l17 55q-3 3 -3 8v568h-180q-10 0 -10 10v57q0 10 10 10h445q10 0 10 -10z" />
    <glyph glyph-name="uni0163" unicode="&#x163;" horiz-adv-x="385" 
d="M345 79q7 0 7 -8v-55q0 -8 -8 -11q-38 -16 -89 -17l-9 -29h9q25 0 39 -17.5t14 -46.5v-15q0 -40 -23.5 -58.5t-71.5 -18.5q-22 0 -41 4q-5 1 -6.5 2.5t-1.5 5.5v37q0 7 5 7q8 0 16 -1t15 -1q41 0 41 24v13q0 15 -8 20.5t-26 5.5h-23q-4 0 -5.5 1t-1.5 6q0 14 2 20l14 47
q-45 12 -65.5 49t-20.5 102v270h-77q-10 0 -10 10v53q0 10 10 10h79l11 120q1 10 11 10h50q10 0 10 -10l1 -120h149q10 0 10 -10v-53q0 -10 -10 -10h-149v-268q0 -47 16.5 -66t56.5 -19q39 0 75 16q2 1 5 1z" />
    <glyph glyph-name="Tcaron" unicode="&#x164;" horiz-adv-x="535" 
d="M225 10v568h-180q-10 0 -10 10v57q0 10 10 10h445q10 0 10 -10v-57q0 -10 -10 -10h-180v-568q0 -10 -10 -10h-65q-10 0 -10 10zM135 774q-7 3 -7 10v50q0 11 11 6l129 -46l129 46q2 1 5 1q6 0 6 -7v-50q0 -7 -7 -10l-126 -56q-7 -3 -14 0z" />
    <glyph glyph-name="tcaron" unicode="&#x165;" horiz-adv-x="387" 
d="M139 26q-32 38 -32 119v270h-77q-10 0 -10 10v53q0 10 10 10h79l11 120q1 10 11 10h50q10 0 10 -10l1 -120h149q10 0 10 -10v-53q0 -10 -10 -10h-149v-268q0 -47 16.5 -66t56.5 -19q39 0 75 16q2 1 5 1q7 0 7 -8v-55q0 -8 -8 -11q-41 -17 -98 -17q-75 0 -107 38z
M266.5 531q-2.5 3 -1.5 8l14 57q-16 5 -22.5 13.5t-6.5 24.5v25q0 16 12 26t32 10q49 0 49 -36v-26q0 -26 -8 -47l-18 -50q-3 -8 -12 -8h-31q-5 0 -7.5 3z" />
    <glyph glyph-name="Tbar" unicode="&#x166;" horiz-adv-x="535" 
d="M500 645v-57q0 -10 -10 -10h-180v-210h102q10 0 10 -10v-45q0 -10 -10 -10h-102v-293q0 -10 -10 -10h-65q-10 0 -10 10v293h-102q-10 0 -10 10v45q0 10 10 10h102v210h-180q-10 0 -10 10v57q0 10 10 10h445q10 0 10 -10z" />
    <glyph glyph-name="tbar" unicode="&#x167;" horiz-adv-x="385" 
d="M345 79q7 0 7 -8v-55q0 -8 -8 -11q-41 -17 -98 -17q-75 0 -107 38t-32 119v118h-68q-10 0 -10 10v50q0 10 10 10h68v82h-77q-10 0 -10 10v53q0 10 10 10h79l11 120q1 10 11 10h50q10 0 10 -10l1 -120h149q10 0 10 -10v-53q0 -10 -10 -10h-149v-82h135q4 0 7 -3t3 -7v-50
q0 -4 -3 -7t-7 -3h-135v-116q0 -47 16.5 -66t56.5 -19q39 0 75 16q2 1 5 1z" />
    <glyph glyph-name="Umacron" unicode="&#x16a;" horiz-adv-x="644" 
d="M143.5 49.5q-63.5 61.5 -63.5 175.5v420q0 10 10 10h65q10 0 10 -10v-423q0 -77 40.5 -118t116.5 -41t116.5 41t40.5 118v423q0 10 10 10h65q10 0 10 -10v-422q0 -110 -64.5 -172.5t-177.5 -62.5q-115 0 -178.5 61.5zM204 727v52q0 10 10 10h215q10 0 10 -10v-52
q0 -10 -10 -10h-215q-10 0 -10 10z" />
    <glyph glyph-name="umacron" unicode="&#x16b;" horiz-adv-x="542" 
d="M474 8q0 -8 -11 -8h-56q-11 0 -12 10q-6 42 -7 67q-94 -89 -181 -89q-64 0 -98 43t-34 124v323q0 10 10 10h65q10 0 10 -10v-319q0 -49 17.5 -72.5t54.5 -23.5q34 0 68 19.5t82 65.5v330q0 10 10 10h65q10 0 10 -10v-356q0 -70 7 -112v-2zM163 580v52q0 10 10 10h195
q10 0 10 -10v-52q0 -10 -10 -10h-195q-10 0 -10 10z" />
    <glyph glyph-name="Uring" unicode="&#x16e;" horiz-adv-x="644" 
d="M143.5 49.5q-63.5 61.5 -63.5 175.5v420q0 10 10 10h65q10 0 10 -10v-423q0 -77 40.5 -118t116.5 -41t116.5 41t40.5 118v423q0 10 10 10h65q10 0 10 -10v-422q0 -110 -64.5 -172.5t-177.5 -62.5q-115 0 -178.5 61.5zM241 694q-30 25 -30 71t29.5 71t81.5 25q51 0 81 -25
t30 -71t-29.5 -71t-81.5 -25q-51 0 -81 25zM373 765q0 46 -51 46t-51 -46t51 -46t51 46z" />
    <glyph glyph-name="uring" unicode="&#x16f;" horiz-adv-x="542" 
d="M474 8q0 -8 -11 -8h-56q-11 0 -12 10q-6 42 -7 67q-94 -89 -181 -89q-64 0 -98 43t-34 124v323q0 10 10 10h65q10 0 10 -10v-319q0 -49 17.5 -72.5t54.5 -23.5q34 0 68 19.5t82 65.5v330q0 10 10 10h65q10 0 10 -10v-356q0 -70 7 -112v-2zM190 576q-30 25 -30 71t29.5 71
t81.5 25q51 0 81 -25t30 -71t-29.5 -71t-81.5 -25q-51 0 -81 25zM322 647q0 46 -51 46t-51 -46t51 -46t51 46z" />
    <glyph glyph-name="Uhungarumlaut" unicode="&#x170;" horiz-adv-x="644" 
d="M143.5 49.5q-63.5 61.5 -63.5 175.5v420q0 10 10 10h65q10 0 10 -10v-423q0 -77 40.5 -118t116.5 -41t116.5 41t40.5 118v423q0 10 10 10h65q10 0 10 -10v-422q0 -110 -64.5 -172.5t-177.5 -62.5q-115 0 -178.5 61.5zM210 721l43 100q3 8 11 8h65q5 0 7 -3.5t-1 -8.5
l-54 -100q-4 -7 -12 -7h-53q-11 0 -6 11zM352 721l43 100q3 8 11 8h65q5 0 7 -3.5t-1 -8.5l-54 -100q-4 -7 -12 -7h-53q-11 0 -6 11z" />
    <glyph glyph-name="uhungarumlaut" unicode="&#x171;" horiz-adv-x="542" 
d="M474 8q0 -8 -11 -8h-56q-11 0 -12 10q-6 42 -7 67q-94 -89 -181 -89q-64 0 -98 43t-34 124v323q0 10 10 10h65q10 0 10 -10v-319q0 -49 17.5 -72.5t54.5 -23.5q34 0 68 19.5t82 65.5v330q0 10 10 10h65q10 0 10 -10v-356q0 -70 7 -112v-2zM157 567l51 120q3 8 11 8h67
q5 0 6.5 -3.5t-1.5 -8.5l-63 -120q-4 -7 -11 -7h-54q-11 0 -6 11zM291 567l51 120q3 8 11 8h67q5 0 6.5 -3.5t-1.5 -8.5l-63 -120q-4 -7 -11 -7h-54q-11 0 -6 11z" />
    <glyph glyph-name="Uogonek" unicode="&#x172;" horiz-adv-x="644" 
d="M564 645v-422q0 -85 -40 -143t-112 -80q-27 -14 -42 -37.5t-15 -49.5v-10q0 -20 9.5 -28.5t31.5 -8.5q17 0 25 1h3q6 0 6 -7v-44q0 -9 -8 -10q-21 -3 -40 -3q-49 0 -74 22t-25 59v12q0 25 12 49t35 43h-8q-115 0 -178.5 61.5t-63.5 175.5v420q0 10 10 10h65q10 0 10 -10
v-423q0 -77 40.5 -118t116.5 -41t116.5 41t40.5 118v423q0 10 10 10h65q10 0 10 -10z" />
    <glyph glyph-name="uogonek" unicode="&#x173;" horiz-adv-x="542" 
d="M479 -133q6 0 6 -7v-44q0 -9 -8 -10q-21 -3 -40 -3q-49 0 -74 22t-25 59v12q0 30 17 57.5t47 47.5q-5 1 -7 9q-6 42 -7 67q-94 -89 -181 -89q-64 0 -98 43t-34 124v323q0 10 10 10h65q10 0 10 -10v-319q0 -49 17.5 -72.5t54.5 -23.5q34 0 68 19.5t82 65.5v330q0 10 10 10
h65q10 0 10 -10v-356q0 -70 7 -112v-2q0 -6 -7 -8q-27 -14 -42 -37.5t-15 -49.5v-10q0 -20 9.5 -28.5t31.5 -8.5q17 0 25 1h3z" />
    <glyph glyph-name="Wcircumflex" unicode="&#x174;" horiz-adv-x="847" 
d="M204 8l-183 636l-1 3q0 8 10 8h66q9 0 11 -8l116 -413l38 -141h1l42 137l84 279l-36 125l-1 3q0 8 10 8h68q9 0 11 -9l113 -415l35 -128h1l36 138l112 416q2 8 11 8h69q5 0 7.5 -3t1.5 -8l-176 -636q-2 -8 -11 -8h-95q-9 0 -11 8l-68 235q-13 44 -37 132h-1l-39 -129
l-71 -238q-3 -8 -11 -8h-91q-9 0 -11 8zM290 717q-6 0 -6 7v50q0 7 7 10l126 56q7 4 14 0l126 -56q7 -3 7 -10v-50q0 -11 -11 -6l-129 46l-129 -46q-2 -1 -5 -1z" />
    <glyph glyph-name="wcircumflex" unicode="&#x175;" horiz-adv-x="716" 
d="M171 9l-145 468l-1 4q0 7 9 7h70q8 0 11 -9l79 -276l36 -128h2l40 124l54 167l-30 101l-1 4q0 7 9 7h63q9 0 11 -8l74 -272l32 -123h2l35 126l80 278q3 9 11 9h70q11 0 8 -11l-146 -468q-3 -9 -11 -9h-91q-8 0 -11 8l-31 102q-20 69 -38 144h-2q-14 -53 -42 -141
l-34 -105q-3 -8 -11 -8h-91q-8 0 -11 9zM228 556v51q0 9 7 13l116 66q3 2 7 2t7 -2l116 -66q7 -4 7 -13v-51q0 -10 -11 -4l-119 59l-119 -59q-11 -6 -11 4z" />
    <glyph glyph-name="Ycircumflex" unicode="&#x176;" horiz-adv-x="535" 
d="M225 10v215l-214 418q-1 2 -1 5q0 7 8 7h76q9 0 12 -7l110 -226l52 -107h1l53 110l109 223q3 7 12 7h74q5 0 7 -3.5t0 -8.5l-214 -418v-215q0 -10 -10 -10h-65q-10 0 -10 10zM134 717q-6 0 -6 7v50q0 7 7 10l126 56q7 4 14 0l126 -56q7 -3 7 -10v-50q0 -11 -11 -6
l-129 46l-129 -46q-2 -1 -5 -1z" />
    <glyph glyph-name="ycircumflex" unicode="&#x177;" horiz-adv-x="497" 
d="M138 -181.5q-2 3.5 0 8.5l71 179l-185 470q-1 2 -1 5q0 7 8 7h71q8 0 11 -8l90 -242q11 -28 31 -86l15 -43h1l47 129l90 242q3 8 12 8h67q5 0 7.5 -3.5t0.5 -8.5l-253 -653q-3 -8 -11 -8h-65q-5 0 -7 3.5zM116 556v51q0 9 7 13l116 66q3 2 7 2t7 -2l116 -66q7 -4 7 -13
v-51q0 -10 -11 -4l-119 59l-119 -59q-11 -6 -11 4z" />
    <glyph glyph-name="Ydieresis" unicode="&#x178;" horiz-adv-x="535" 
d="M225 10v215l-214 418q-1 2 -1 5q0 7 8 7h76q9 0 12 -7l110 -226l52 -107h1l53 110l109 223q3 7 12 7h74q5 0 7 -3.5t0 -8.5l-214 -418v-215q0 -10 -10 -10h-65q-10 0 -10 10zM144.5 724.5q-12.5 13.5 -12.5 37.5v10q0 24 12.5 37.5t39.5 13.5t39.5 -13.5t12.5 -37.5v-10
q0 -24 -12.5 -37.5t-39.5 -13.5t-39.5 13.5zM312.5 724.5q-12.5 13.5 -12.5 37.5v10q0 24 12.5 37.5t39.5 13.5t39.5 -13.5t12.5 -37.5v-10q0 -24 -12.5 -37.5t-39.5 -13.5t-39.5 13.5z" />
    <glyph glyph-name="Zacute" unicode="&#x179;" horiz-adv-x="545" 
d="M23 2.5q-3 2.5 -3 6.5v2q0 5 4 13l298 455q42 66 65 99v1q-38 -1 -115 -1h-209q-10 0 -10 10v57q0 10 10 10h449q4 0 7 -2.5t3 -6.5v-2q0 -5 -4 -13l-294 -445q-52 -81 -72 -109v-1q44 1 132 1h205q10 0 10 -10v-57q0 -10 -10 -10h-459q-4 0 -7 2.5zM216 720l56 102
q3 7 10 7h73q5 0 6.5 -3.5t-1.5 -8.5l-72 -101q-4 -6 -11 -6h-56q-10 0 -5 10z" />
    <glyph glyph-name="zacute" unicode="&#x17a;" horiz-adv-x="464" 
d="M28 2.5q-3 2.5 -3 6.5v2q0 8 4 13l219 309q38 54 58 81v1h-114h-134q-10 0 -10 10v53q0 10 10 10h371q4 0 7 -2.5t3 -6.5v-2q0 -8 -4 -13l-213 -300q-42 -60 -64 -90v-1h101h159q10 0 10 -10v-53q0 -10 -10 -10h-383q-4 0 -7 2.5zM187 559q-1 3 1 7l66 122q3 7 12 7h70
q5 0 6.5 -3.5t-1.5 -7.5l-83 -122q-4 -6 -11 -6h-54q-5 0 -6 3z" />
    <glyph glyph-name="Zdotaccent" unicode="&#x17b;" horiz-adv-x="545" 
d="M23 2.5q-3 2.5 -3 6.5v2q0 5 4 13l298 455q42 66 65 99v1q-38 -1 -115 -1h-209q-10 0 -10 10v57q0 10 10 10h449q4 0 7 -2.5t3 -6.5v-2q0 -5 -4 -13l-294 -445q-52 -81 -72 -109v-1q44 1 132 1h205q10 0 10 -10v-57q0 -10 -10 -10h-459q-4 0 -7 2.5zM226.5 740
q-13.5 15 -13.5 40v10q0 25 13.5 40t41.5 15t41.5 -15t13.5 -40v-10q0 -25 -13.5 -40t-41.5 -15t-41.5 15z" />
    <glyph glyph-name="zdotaccent" unicode="&#x17c;" horiz-adv-x="464" 
d="M28 2.5q-3 2.5 -3 6.5v2q0 8 4 13l219 309q38 54 58 81v1h-114h-134q-10 0 -10 10v53q0 10 10 10h371q4 0 7 -2.5t3 -6.5v-2q0 -8 -4 -13l-213 -300q-42 -60 -64 -90v-1h101h159q10 0 10 -10v-53q0 -10 -10 -10h-383q-4 0 -7 2.5zM202.5 585q-13.5 15 -13.5 40v10
q0 25 13.5 40t41.5 15t41.5 -15t13.5 -40v-10q0 -25 -13.5 -40t-41.5 -15t-41.5 15z" />
    <glyph glyph-name="Zcaron" unicode="&#x17d;" horiz-adv-x="545" 
d="M23 2.5q-3 2.5 -3 6.5v2q0 5 4 13l298 455q42 66 65 99v1q-38 -1 -115 -1h-209q-10 0 -10 10v57q0 10 10 10h449q4 0 7 -2.5t3 -6.5v-2q0 -5 -4 -13l-294 -445q-52 -81 -72 -109v-1q44 1 132 1h205q10 0 10 -10v-57q0 -10 -10 -10h-459q-4 0 -7 2.5zM135 774q-7 3 -7 10
v50q0 11 11 6l129 -46l129 46q2 1 5 1q6 0 6 -7v-50q0 -7 -7 -10l-126 -56q-7 -3 -14 0z" />
    <glyph glyph-name="zcaron" unicode="&#x17e;" horiz-adv-x="464" 
d="M28 2.5q-3 2.5 -3 6.5v2q0 8 4 13l219 309q38 54 58 81v1h-114h-134q-10 0 -10 10v53q0 10 10 10h371q4 0 7 -2.5t3 -6.5v-2q0 -8 -4 -13l-213 -300q-42 -60 -64 -90v-1h101h159q10 0 10 -10v-53q0 -10 -10 -10h-383q-4 0 -7 2.5zM121 618q-7 4 -7 13v51q0 10 11 4
l119 -59l119 59q11 6 11 -4v-51q0 -9 -7 -13l-116 -66q-3 -2 -7 -2t-7 2z" />
    <glyph glyph-name="florin" unicode="&#x192;" horiz-adv-x="630" 
d="M225 -175v532h-83q-10 0 -10 10v53q0 10 10 10h83v83q0 73 43 113.5t112 40.5q62 0 111 -20q8 -3 8 -12v-56q0 -5 -3.5 -7t-8.5 0q-48 21 -93 21q-38 0 -61 -20t-23 -62v-81h149q10 0 10 -10v-53q0 -10 -10 -10h-149v-532q0 -10 -10 -10h-65q-10 0 -10 10z" />
    <glyph glyph-name="uni0218" unicode="&#x218;" horiz-adv-x="568" 
d="M103.5 38q-57.5 50 -51.5 136q1 18 12 18h63q12 0 12 -16q0 -60 35.5 -87t110.5 -27q144 0 144 103q0 39 -20 61.5t-71 43.5l-147 61q-68 28 -98 66.5t-30 96.5q0 85 54.5 128.5t159.5 43.5q102 0 163.5 -43t61.5 -120l-1 -17q-2 -19 -11 -19h-64q-5 0 -7.5 4t-1.5 15
q4 51 -34.5 78.5t-108.5 27.5q-126 0 -126 -93q0 -35 20.5 -57.5t73.5 -44.5l145 -61q69 -29 98 -67.5t29 -101.5q0 -86 -58.5 -132.5t-177.5 -46.5q-117 0 -174.5 50zM258 -222l16 67q-15 5 -22 15t-7 26v17q0 19 12 30t32 11q49 0 49 -41v-18q0 -24 -8 -50l-20 -60
q-2 -6 -10 -6h-36q-8 0 -6 9z" />
    <glyph glyph-name="uni0219" unicode="&#x219;" horiz-adv-x="464" 
d="M53 146q0 9 10 9h66q9 0 9 -8q0 -45 22.5 -65t73.5 -20q49 0 74 16t25 48q0 22 -14 38t-44 29l-114 47q-55 23 -78 52t-23 75q0 133 167 133q85 0 132 -36t47 -100q0 -9 -10 -9h-66q-10 0 -10 16q0 26 -24 40.5t-66 14.5q-43 0 -64 -14.5t-21 -44.5q0 -22 11 -33t47 -26
l114 -48q54 -23 77.5 -53t23.5 -76q0 -69 -48 -106t-137 -37q-180 0 -180 158zM211 -222l16 67q-15 5 -22 15t-7 26v17q0 19 12 30t32 11q49 0 49 -41v-18q0 -24 -8 -50l-20 -60q-2 -6 -10 -6h-36q-8 0 -6 9z" />
    <glyph glyph-name="uni021A" unicode="&#x21a;" horiz-adv-x="535" 
d="M225 10v568h-180q-10 0 -10 10v57q0 10 10 10h445q10 0 10 -10v-57q0 -10 -10 -10h-180v-568q0 -10 -10 -10h-65q-10 0 -10 10zM234 -222l16 67q-15 5 -22 15t-7 26v17q0 19 12 30t32 11q49 0 49 -41v-18q0 -24 -8 -50l-20 -60q-2 -6 -10 -6h-36q-8 0 -6 9z" />
    <glyph glyph-name="uni021B" unicode="&#x21b;" horiz-adv-x="385" 
d="M139 26q-32 38 -32 119v270h-77q-10 0 -10 10v53q0 10 10 10h79l11 120q1 10 11 10h50q10 0 10 -10l1 -120h149q10 0 10 -10v-53q0 -10 -10 -10h-149v-268q0 -47 16.5 -66t56.5 -19q39 0 75 16q2 1 5 1q7 0 7 -8v-55q0 -8 -8 -11q-41 -17 -98 -17q-75 0 -107 38z
M202 -222l16 67q-15 5 -22 15t-7 26v17q0 19 12 30t32 11q49 0 49 -41v-18q0 -24 -8 -50l-20 -60q-2 -6 -10 -6h-36q-8 0 -6 9z" />
    <glyph glyph-name="uni0237" unicode="&#x237;" horiz-adv-x="236" 
d="M36 -192q-3 0 -8 5l-39 49q-2 2 -2 6q0 5 5 8q83 57 83 188v414q0 10 10 10h65q10 0 10 -10v-419q0 -90 -28.5 -151.5t-89.5 -97.5q-4 -2 -6 -2z" />
    <glyph glyph-name="uni02BC" unicode="&#x2bc;" horiz-adv-x="153" 
d="M43 529l16 67q-15 5 -22 15t-7 26v17q0 19 12 30t32 11q49 0 49 -41v-18q0 -24 -8 -50l-20 -60q-2 -6 -10 -6h-36q-7 0 -6 9z" />
    <glyph glyph-name="circumflex" unicode="&#x2c6;" horiz-adv-x="320" 
d="M30 556v51q0 9 7 13l116 66q3 2 7 2t7 -2l116 -66q7 -4 7 -13v-51q0 -10 -11 -4l-119 59l-119 -59q-11 -6 -11 4z" />
    <glyph glyph-name="caron" unicode="&#x2c7;" horiz-adv-x="320" 
d="M37 618q-7 4 -7 13v51q0 10 11 4l119 -59l119 59q11 6 11 -4v-51q0 -9 -7 -13l-116 -66q-3 -2 -7 -2t-7 2z" />
    <glyph glyph-name="breve" unicode="&#x2d8;" horiz-adv-x="308" 
d="M80 571.5q-29 15.5 -46 33.5q-4 4 -4 12v54q0 6 3 8t8 -2q19 -19 48 -34.5t65 -15.5t65 15.5t48 34.5q3 3 6 3q5 0 5 -9v-54q0 -8 -4 -12q-49 -49 -120 -49q-45 0 -74 15.5z" />
    <glyph glyph-name="dotaccent" unicode="&#x2d9;" horiz-adv-x="170" 
d="M43.5 585q-13.5 15 -13.5 40v10q0 25 13.5 40t41.5 15t41.5 -15t13.5 -40v-10q0 -25 -13.5 -40t-41.5 -15t-41.5 15z" />
    <glyph glyph-name="ring" unicode="&#x2da;" horiz-adv-x="282" 
d="M60 576q-30 25 -30 71t29.5 71t81.5 25q51 0 81 -25t30 -71t-29.5 -71t-81.5 -25q-51 0 -81 25zM192 647q0 46 -51 46t-51 -46t51 -46t51 46z" />
    <glyph glyph-name="ogonek" unicode="&#x2db;" horiz-adv-x="207" 
d="M55 -175q-25 22 -25 59v12q0 41 30 75.5t80 51.5l20 -11v-11q-27 -14 -42.5 -38t-15.5 -50v-10q0 -20 9.5 -28.5t31.5 -8.5q17 0 25 1h3q6 0 6 -7v-44q0 -9 -8 -10q-21 -3 -40 -3q-49 0 -74 22z" />
    <glyph glyph-name="tilde" unicode="&#x2dc;" horiz-adv-x="320" 
d="M157 580q-12 5 -24.5 8.5t-24.5 3.5q-25 0 -66 -19q-2 -1 -6 -1q-6 0 -6 7v47q0 9 6 13q33 25 74 25q18 0 29.5 -3.5t31.5 -10.5q26 -11 41 -11q25 0 66 19q2 1 6 1q6 0 6 -7v-47q0 -8 -6 -13q-33 -25 -74 -25q-23 0 -53 13z" />
    <glyph glyph-name="hungarumlaut" unicode="&#x2dd;" horiz-adv-x="331" 
d="M31 567l51 120q3 8 11 8h67q5 0 6.5 -3.5t-1.5 -8.5l-63 -120q-4 -7 -11 -7h-54q-11 0 -6 11zM165 567l51 120q3 8 11 8h67q5 0 6.5 -3.5t-1.5 -8.5l-63 -120q-4 -7 -11 -7h-54q-11 0 -6 11z" />
    <glyph glyph-name="gravecomb" unicode="&#x300;" 
d="M-101 562l-83 122l-2 5q0 6 7 6h70q8 0 12 -7l66 -122q1 -2 1 -5q0 -5 -6 -5h-54q-7 0 -11 6z" />
    <glyph glyph-name="acutecomb" unicode="&#x301;" 
d="M-186 559q-1 3 1 7l66 122q3 7 12 7h70q5 0 6.5 -3.5t-1.5 -7.5l-83 -122q-4 -6 -11 -6h-54q-5 0 -6 3z" />
    <glyph glyph-name="uni0302" unicode="&#x302;" 
d="M-290 556v51q0 9 7 13l116 66q3 2 7 2t7 -2l116 -66q7 -4 7 -13v-51q0 -10 -11 -4l-119 59l-119 -59q-11 -6 -11 4z" />
    <glyph glyph-name="tildecomb" unicode="&#x303;" 
d="M-163 580q-12 5 -24.5 8.5t-24.5 3.5q-25 0 -66 -19q-2 -1 -6 -1q-6 0 -6 7v47q0 9 6 13q33 25 74 25q18 0 29.5 -3.5t31.5 -10.5q26 -11 41 -11q25 0 66 19q2 1 6 1q6 0 6 -7v-47q0 -8 -6 -13q-33 -25 -74 -25q-23 0 -53 13z" />
    <glyph glyph-name="uni0304" unicode="&#x304;" 
d="M-245 580v52q0 10 10 10h195q10 0 10 -10v-52q0 -10 -10 -10h-195q-10 0 -10 10z" />
    <glyph glyph-name="uni0306" unicode="&#x306;" 
d="M-228 571.5q-29 15.5 -46 33.5q-4 4 -4 12v54q0 6 3 8t8 -2q19 -19 48 -34.5t65 -15.5t65 15.5t48 34.5q3 3 6 3q5 0 5 -9v-54q0 -8 -4 -12q-49 -49 -120 -49q-45 0 -74 15.5z" />
    <glyph glyph-name="uni0307" unicode="&#x307;" 
d="M-126.5 585q-13.5 15 -13.5 40v10q0 25 13.5 40t41.5 15t41.5 -15t13.5 -40v-10q0 -25 -13.5 -40t-41.5 -15t-41.5 15z" />
    <glyph glyph-name="uni0308" unicode="&#x308;" 
d="M-290.5 583.5q-12.5 13.5 -12.5 37.5v10q0 24 12.5 37.5t39.5 13.5t39.5 -13.5t12.5 -37.5v-10q0 -24 -12.5 -37.5t-39.5 -13.5t-39.5 13.5zM-121.5 583.5q-12.5 13.5 -12.5 37.5v10q0 24 12.5 37.5t39.5 13.5t39.5 -13.5t12.5 -37.5v-10q0 -24 -12.5 -37.5t-39.5 -13.5
t-39.5 13.5z" />
    <glyph glyph-name="uni030A" unicode="&#x30a;" 
d="M-222 576q-30 25 -30 71t29.5 71t81.5 25q51 0 81 -25t30 -71t-29.5 -71t-81.5 -25q-51 0 -81 25zM-90 647q0 46 -51 46t-51 -46t51 -46t51 46z" />
    <glyph glyph-name="uni030B" unicode="&#x30b;" 
d="M-300 567l51 120q3 8 11 8h67q5 0 6.5 -3.5t-1.5 -8.5l-63 -120q-4 -7 -11 -7h-54q-11 0 -6 11zM-166 567l51 120q3 8 11 8h67q5 0 6.5 -3.5t-1.5 -8.5l-63 -120q-4 -7 -11 -7h-54q-11 0 -6 11z" />
    <glyph glyph-name="uni030C" unicode="&#x30c;" 
d="M-283 618q-7 4 -7 13v51q0 10 11 4l119 -59l119 59q11 6 11 -4v-51q0 -9 -7 -13l-116 -66q-3 -2 -7 -2t-7 2z" />
    <glyph glyph-name="uni0312" unicode="&#x312;" 
d="M-123 604v18q0 24 8 50l20 60q2 6 10 6h36q7 0 6 -9l-16 -67q15 -5 22 -15t7 -26v-17q0 -19 -12 -30t-32 -11q-49 0 -49 41z" />
    <glyph glyph-name="uni0313" unicode="&#x313;" 
d="M-110 555l16 67q-15 5 -22 15t-7 26v17q0 19 12 30t32 11q49 0 49 -41v-18q0 -24 -8 -50l-20 -60q-2 -6 -10 -6h-36q-8 0 -6 9z" />
    <glyph glyph-name="uni0324" unicode="&#x324;" 
d="M-288.5 -153.5q-12.5 13.5 -12.5 37.5v10q0 24 12.5 37.5t39.5 13.5t39.5 -13.5t12.5 -37.5v-10q0 -24 -12.5 -37.5t-39.5 -13.5t-39.5 13.5zM-119.5 -153.5q-12.5 13.5 -12.5 37.5v10q0 24 12.5 37.5t39.5 13.5t39.5 -13.5t12.5 -37.5v-10q0 -24 -12.5 -37.5
t-39.5 -13.5t-39.5 13.5z" />
    <glyph glyph-name="uni0325" unicode="&#x325;" 
d="M-222 -196q-30 25 -30 71t29.5 71t81.5 25q51 0 81 -25t30 -71t-29.5 -71t-81.5 -25q-51 0 -81 25zM-90 -125q0 46 -51 46t-51 -46t51 -46t51 46z" />
    <glyph glyph-name="uni0326" unicode="&#x326;" 
d="M-110 -222l16 67q-15 5 -22 15t-7 26v17q0 19 12 30t32 11q49 0 49 -41v-18q0 -24 -8 -50l-20 -60q-2 -6 -10 -6h-36q-8 0 -6 9z" />
    <glyph glyph-name="uni0327" unicode="&#x327;" 
d="M-166 -193q-5 1 -6.5 2.5t-1.5 5.5v37q0 7 5 7q8 0 16 -1t15 -1q41 0 41 24v13q0 15 -8 20.5t-26 5.5h-23q-5 0 -6 1t-1 6q0 14 2 20l23 75q2 6 9 6h48q8 0 5 -11l-18 -58h9q25 0 39 -17.5t14 -46.5v-15q0 -40 -23.5 -58.5t-71.5 -18.5q-22 0 -41 4z" />
    <glyph glyph-name="uni0328" unicode="&#x328;" 
d="M-152 -175q-25 22 -25 59v12q0 41 30 75.5t80 51.5l20 -11v-11q-27 -14 -42.5 -38t-15.5 -50v-10q0 -20 9.5 -28.5t31.5 -8.5q17 0 25 1h3q6 0 6 -7v-44q0 -9 -8 -10q-21 -3 -40 -3q-49 0 -74 22z" />
    <glyph glyph-name="uni0330" unicode="&#x330;" 
d="M-163 -176q-12 5 -24.5 8.5t-24.5 3.5q-25 0 -66 -19q-2 -1 -6 -1q-6 0 -6 7v47q0 9 6 13q33 25 74 25q18 0 29.5 -3.5t31.5 -10.5q26 -11 41 -11q25 0 66 19q2 1 6 1q6 0 6 -7v-47q0 -8 -6 -13q-33 -25 -74 -25q-23 0 -53 13z" />
    <glyph glyph-name="uni0331" unicode="&#x331;" 
d="M-245 -176v52q0 10 10 10h195q10 0 10 -10v-52q0 -10 -10 -10h-195q-10 0 -10 10z" />
    <glyph glyph-name="uni0335" unicode="&#x335;" 
d="M-380 243v45q0 10 10 10h330q10 0 10 -10v-45q0 -10 -10 -10h-330q-10 0 -10 10z" />
    <glyph glyph-name="uni0336" unicode="&#x336;" 
d="M-770 243v45q0 10 10 10h720q10 0 10 -10v-45q0 -10 -10 -10h-720q-10 0 -10 10z" />
    <glyph glyph-name="tonos" unicode="&#x384;" horiz-adv-x="174" 
d="M30 556l30 130q2 9 11 9h65q10 0 7 -11l-47 -130q-3 -8 -11 -8h-48q-9 0 -7 10z" />
    <glyph glyph-name="dieresistonos" unicode="&#x385;" horiz-adv-x="320" 
d="M125 726l22 119q2 9 10 9h66q10 0 7 -11l-38 -119q-3 -9 -11 -9h-48q-10 0 -8 11zM42.5 586.5q-12.5 13.5 -12.5 37.5v10q0 24 12.5 37.5t39.5 13.5t39.5 -13.5t12.5 -37.5v-10q0 -24 -12.5 -37.5t-39.5 -13.5t-39.5 13.5zM198.5 586.5q-12.5 13.5 -12.5 37.5v10
q0 24 12.5 37.5t39.5 13.5t39.5 -13.5t12.5 -37.5v-10q0 -24 -12.5 -37.5t-39.5 -13.5t-39.5 13.5z" />
    <glyph glyph-name="Alphatonos" unicode="&#x386;" horiz-adv-x="560" 
d="M560 7q0 -7 -9 -7h-71q-9 0 -12 8l-48 145h-285l-47 -145q-3 -8 -12 -8h-67q-11 0 -8 11l221 636q3 8 12 8h89q9 0 12 -8l224 -636zM395 227l-77 231l-41 120h-1l-40 -117l-76 -234h235zM44 526l22 121q1 8 10 8h67q9 0 6 -11l-38 -120q-3 -8 -11 -8h-49q-9 0 -7 10z" />
    <glyph glyph-name="anoteleia" unicode="&#x387;" horiz-adv-x="232" 
d="M73.5 371q-13.5 15 -13.5 41v10q0 26 13.5 41t42.5 15t42.5 -15t13.5 -41v-10q0 -26 -13.5 -41t-42.5 -15t-42.5 15z" />
    <glyph glyph-name="Epsilontonos" unicode="&#x388;" horiz-adv-x="602" 
d="M154 10v635q0 10 10 10h356q10 0 10 -10v-57q0 -10 -10 -10h-281v-208h257q10 0 10 -10v-54q0 -10 -10 -10h-257v-219h281q10 0 10 -10v-57q0 -10 -10 -10h-356q-10 0 -10 10zM0 526l22 121q1 8 10 8h67q9 0 6 -11l-38 -120q-3 -8 -11 -8h-49q-9 0 -7 10z" />
    <glyph glyph-name="Etatonos" unicode="&#x389;" horiz-adv-x="730" 
d="M154 10v635q0 10 10 10h65q10 0 10 -10v-270h321v270q0 10 10 10h65q10 0 10 -10v-635q0 -10 -10 -10h-65q-10 0 -10 10v291h-321v-291q0 -10 -10 -10h-65q-10 0 -10 10zM0 526l22 121q1 8 10 8h67q9 0 6 -11l-38 -120q-3 -8 -11 -8h-49q-9 0 -7 10z" />
    <glyph glyph-name="Iotatonos" unicode="&#x38a;" horiz-adv-x="324" 
d="M154 10v635q0 10 10 10h65q10 0 10 -10v-635q0 -10 -10 -10h-65q-10 0 -10 10zM0 526l22 121q1 8 10 8h67q9 0 6 -11l-38 -120q-3 -8 -11 -8h-49q-9 0 -7 10z" />
    <glyph glyph-name="Omicrontonos" unicode="&#x38c;" horiz-adv-x="670" 
d="M163 48.5q-62 60.5 -62 174.5v209q0 114 62 174.5t186 60.5t186 -60.5t62 -174.5v-209q0 -114 -62 -174.5t-186 -60.5t-186 60.5zM470.5 104q41.5 41 41.5 120v207q0 79 -41.5 120t-121.5 41t-121.5 -41t-41.5 -120v-207q0 -79 41.5 -120t121.5 -41t121.5 41zM0 526
l22 121q1 8 10 8h67q9 0 6 -11l-38 -120q-3 -8 -11 -8h-49q-9 0 -7 10z" />
    <glyph glyph-name="Upsilontonos" unicode="&#x38e;" horiz-adv-x="661" 
d="M351 10v215l-214 418q-1 2 -1 5q0 7 8 7h76q9 0 12 -7l110 -226l52 -107h1l53 110l109 223q3 7 12 7h74q5 0 7 -3.5t0 -8.5l-214 -418v-215q0 -10 -10 -10h-65q-10 0 -10 10zM0 526l22 121q1 8 10 8h67q9 0 6 -11l-38 -120q-3 -8 -11 -8h-49q-9 0 -7 10z" />
    <glyph glyph-name="Omegatonos" unicode="&#x38f;" horiz-adv-x="670" 
d="M90 10v60q0 10 10 10h80v2q-45 29 -62 64.5t-17 94.5v191q0 114 62 174.5t186 60.5t186 -60.5t62 -174.5v-191q0 -59 -17 -94.5t-62 -64.5v-2h80q10 0 10 -10v-60q0 -10 -10 -10h-206q-10 0 -10 10v57q0 10 10 10q54 0 87 39t33 105v211q0 79 -41.5 119.5t-121.5 40.5
t-121.5 -40.5t-41.5 -119.5v-211q0 -66 33 -105t87 -39q10 0 10 -10v-57q0 -10 -10 -10h-206q-10 0 -10 10zM0 526l22 121q1 8 10 8h67q9 0 6 -11l-38 -120q-3 -8 -11 -8h-49q-9 0 -7 10z" />
    <glyph glyph-name="iotadieresistonos" unicode="&#x390;" horiz-adv-x="328" 
d="M111 20q-36 32 -36 103v355q0 10 10 10h65q10 0 10 -10v-359q0 -32 16 -45t55 -13q22 0 41.5 3.5t23.5 4.5h2q10 0 10 -10v-52q0 -7 -9 -10q-28 -9 -70 -9q-82 0 -118 32zM83 726l22 119q2 9 10 9h66q10 0 7 -11l-38 -119q-3 -9 -11 -9h-48q-10 0 -8 11zM0.5 586.5
q-12.5 13.5 -12.5 37.5v10q0 24 12.5 37.5t39.5 13.5t39.5 -13.5t12.5 -37.5v-10q0 -24 -12.5 -37.5t-39.5 -13.5t-39.5 13.5zM156.5 586.5q-12.5 13.5 -12.5 37.5v10q0 24 12.5 37.5t39.5 13.5t39.5 -13.5t12.5 -37.5v-10q0 -24 -12.5 -37.5t-39.5 -13.5t-39.5 13.5z" />
    <glyph glyph-name="Alpha" unicode="&#x391;" horiz-adv-x="560" 
d="M560 7q0 -7 -9 -7h-71q-9 0 -12 8l-48 145h-285l-47 -145q-3 -8 -12 -8h-67q-11 0 -8 11l221 636q3 8 12 8h89q9 0 12 -8l224 -636zM395 227l-77 231l-41 120h-1l-40 -117l-76 -234h235z" />
    <glyph glyph-name="Beta" unicode="&#x392;" horiz-adv-x="573" 
d="M85 10v635q0 10 10 10h178q227 0 227 -164q0 -54 -26 -87.5t-85 -55.5v-2q139 -25 139 -166q0 -92 -62 -136t-192 -44h-179q-10 0 -10 10zM269 374q76 0 111 25.5t35 80.5t-35.5 78.5t-119.5 23.5h-90v-208h99zM273 74q91 0 130.5 26t39.5 86q0 62 -39.5 90.5
t-127.5 28.5h-106v-231h103z" />
    <glyph glyph-name="Gamma" unicode="&#x393;" horiz-adv-x="475" 
d="M85 10v635q0 10 10 10h340q10 0 10 -10v-57q0 -10 -10 -10h-265v-568q0 -10 -10 -10h-65q-10 0 -10 10z" />
    <glyph glyph-name="uni0394" unicode="&#x394;" horiz-adv-x="557" 
d="M15 10v39q0 4 2 12l204 586q3 8 12 8h90q8 0 11 -8l206 -584q2 -8 2 -12v-41q0 -10 -10 -10h-507q-10 0 -10 10zM445 76l-136 407l-33 95h-1l-33 -97l-133 -405h336z" />
    <glyph glyph-name="Epsilon" unicode="&#x395;" horiz-adv-x="533" 
d="M85 10v635q0 10 10 10h356q10 0 10 -10v-57q0 -10 -10 -10h-281v-208h257q10 0 10 -10v-54q0 -10 -10 -10h-257v-219h281q10 0 10 -10v-57q0 -10 -10 -10h-356q-10 0 -10 10z" />
    <glyph glyph-name="Zeta" unicode="&#x396;" horiz-adv-x="545" 
d="M23 2.5q-3 2.5 -3 6.5v2q0 5 4 13l298 455q42 66 65 99v1q-38 -1 -115 -1h-209q-10 0 -10 10v57q0 10 10 10h449q4 0 7 -2.5t3 -6.5v-2q0 -5 -4 -13l-294 -445q-52 -81 -72 -109v-1q44 1 132 1h205q10 0 10 -10v-57q0 -10 -10 -10h-459q-4 0 -7 2.5z" />
    <glyph glyph-name="Eta" unicode="&#x397;" horiz-adv-x="661" 
d="M85 10v635q0 10 10 10h65q10 0 10 -10v-270h321v270q0 10 10 10h65q10 0 10 -10v-635q0 -10 -10 -10h-65q-10 0 -10 10v291h-321v-291q0 -10 -10 -10h-65q-10 0 -10 10z" />
    <glyph glyph-name="Theta" unicode="&#x398;" horiz-adv-x="642" 
d="M135 48.5q-62 60.5 -62 174.5v209q0 114 62 174.5t186 60.5t186 -60.5t62 -174.5v-209q0 -114 -62 -174.5t-186 -60.5t-186 60.5zM442.5 104q41.5 41 41.5 120v207q0 79 -41.5 120t-121.5 41t-121.5 -41t-41.5 -120v-207q0 -79 41.5 -120t121.5 -41t121.5 41zM228 306v54
q0 10 10 10h166q10 0 10 -10v-54q0 -10 -10 -10h-166q-10 0 -10 10z" />
    <glyph glyph-name="Iota" unicode="&#x399;" horiz-adv-x="255" 
d="M85 10v635q0 10 10 10h65q10 0 10 -10v-635q0 -10 -10 -10h-65q-10 0 -10 10z" />
    <glyph glyph-name="Kappa" unicode="&#x39a;" horiz-adv-x="576" 
d="M85 10v635q0 10 10 10h65q10 0 10 -10v-635q0 -10 -10 -10h-65q-10 0 -10 10zM467 6l-282 317q-3 3 -3 7t3 7l273 312q5 6 13 6h79q6 0 8 -3.5t-2 -8.5l-273 -307l290 -324q3 -3 3 -6q0 -6 -9 -6h-87q-8 0 -13 6z" />
    <glyph glyph-name="Lambda" unicode="&#x39b;" horiz-adv-x="554" 
d="M1 11l218 636q3 8 12 8h89q9 0 12 -8l221 -636l1 -4q0 -7 -9 -7h-71q-9 0 -12 8l-148 450l-40 120h-1l-38 -118l-147 -452q-3 -8 -12 -8h-67q-11 0 -8 11z" />
    <glyph glyph-name="Mu" unicode="&#x39c;" horiz-adv-x="769" 
d="M70 10l14 635q0 10 10 10h106q7 0 11 -8l175 -393l172 393q4 8 11 8h106q10 0 10 -10l14 -635q0 -10 -10 -10h-63q-10 0 -10 10l-10 402q-1 48 3 146h-2q-26 -62 -63 -146l-148 -321q-3 -7 -11 -7h-2q-8 0 -11 7l-150 326q-20 43 -48 113l-11 28h-2q2 -68 2 -104v-38
l-10 -406q0 -10 -10 -10h-63q-10 0 -10 10z" />
    <glyph glyph-name="Nu" unicode="&#x39d;" horiz-adv-x="662" 
d="M85 10v635q0 10 10 10h116q9 0 12 -7l188 -382q57 -114 81 -174h2l-1 178v375q0 10 10 10h64q10 0 10 -10v-635q0 -10 -10 -10h-113q-9 0 -12 7l-185 372q-61 123 -87 184h-2l1 -192v-361q0 -10 -10 -10h-64q-10 0 -10 10z" />
    <glyph glyph-name="Xi" unicode="&#x39e;" horiz-adv-x="565" 
d="M60 583v62q0 10 10 10h425q10 0 10 -10v-62q0 -10 -10 -10h-425q-10 0 -10 10zM139 302v62q0 10 10 10h266q10 0 10 -10v-62q0 -10 -10 -10h-266q-10 0 -10 10zM60 10v62q0 10 10 10h425q10 0 10 -10v-62q0 -10 -10 -10h-425q-10 0 -10 10z" />
    <glyph glyph-name="Omicron" unicode="&#x39f;" horiz-adv-x="642" 
d="M135 48.5q-62 60.5 -62 174.5v209q0 114 62 174.5t186 60.5t186 -60.5t62 -174.5v-209q0 -114 -62 -174.5t-186 -60.5t-186 60.5zM442.5 104q41.5 41 41.5 120v207q0 79 -41.5 120t-121.5 41t-121.5 -41t-41.5 -120v-207q0 -79 41.5 -120t121.5 -41t121.5 41z" />
    <glyph glyph-name="Pi" unicode="&#x3a0;" horiz-adv-x="660" 
d="M85 10v635q0 10 10 10h470q10 0 10 -10v-635q0 -10 -10 -10h-65q-10 0 -10 10v568h-320v-568q0 -10 -10 -10h-65q-10 0 -10 10z" />
    <glyph glyph-name="Rho" unicode="&#x3a1;" horiz-adv-x="545" 
d="M85 10v635q0 10 10 10h167q120 0 181.5 -51.5t61.5 -152.5q0 -100 -61.5 -152t-181.5 -52h-92v-237q0 -10 -10 -10h-65q-10 0 -10 10zM260 319q83 0 121.5 31.5t38.5 97.5q0 70 -39 102.5t-123 32.5h-88v-264h90z" />
    <glyph glyph-name="Sigma" unicode="&#x3a3;" horiz-adv-x="524" 
d="M40 10v50q0 5 5 12l216 258l-216 253q-5 7 -5 12v50q0 10 10 10h429q10 0 10 -10v-57q0 -10 -10 -10h-230l-51 1q-18 1 -52 1v-2q25 -27 76 -86l115 -134q5 -7 5 -12v-31q0 -5 -5 -12l-110 -128q-43 -51 -86 -98v-2q78 2 118 2h220q10 0 10 -10v-57q0 -10 -10 -10h-429
q-10 0 -10 10z" />
    <glyph glyph-name="Tau" unicode="&#x3a4;" horiz-adv-x="535" 
d="M225 10v568h-180q-10 0 -10 10v57q0 10 10 10h445q10 0 10 -10v-57q0 -10 -10 -10h-180v-568q0 -10 -10 -10h-65q-10 0 -10 10z" />
    <glyph glyph-name="Upsilon" unicode="&#x3a5;" horiz-adv-x="535" 
d="M225 10v215l-214 418q-1 2 -1 5q0 7 8 7h76q9 0 12 -7l110 -226l52 -107h1l53 110l109 223q3 7 12 7h74q5 0 7 -3.5t0 -8.5l-214 -418v-215q0 -10 -10 -10h-65q-10 0 -10 10z" />
    <glyph glyph-name="Phi" unicode="&#x3a6;" horiz-adv-x="808" 
d="M628.5 594.5q53.5 -22.5 80 -73t26.5 -136.5v-87q0 -86 -26.5 -136.5t-80 -73t-139.5 -22.5h-42v-69q0 -10 -10 -10h-65q-10 0 -10 10v69h-43q-132 0 -189 54.5t-57 177.5v87q0 123 57 177.5t189 54.5h43v69q0 10 10 10h65q10 0 10 -10v-69h42q86 0 139.5 -22.5z
M195.5 170.5q37.5 -33.5 123.5 -33.5h45v409h-45q-86 0 -123.5 -33.5t-37.5 -116.5v-109q0 -83 37.5 -116.5zM650 396q0 85 -38 117.5t-123 32.5h-44v-409h44q85 0 123 32.5t38 117.5v109z" />
    <glyph glyph-name="Chi" unicode="&#x3a7;" horiz-adv-x="551" 
d="M5.5 3.5q-1.5 3.5 1.5 8.5l214 326l-200 305q-2 4 -2 6q0 6 8 6h80q6 0 11 -6l113 -173l47 -75h1l50 79l109 169q5 6 12 6h76q6 0 7.5 -3.5t-1.5 -8.5l-199 -307l211 -324q2 -4 2 -6q0 -6 -8 -6h-80q-7 0 -12 6l-119 183l-15 24q-26 40 -37 59h-1q-31 -51 -51 -81
l-119 -184q-5 -7 -12 -7h-79q-6 0 -7.5 3.5z" />
    <glyph glyph-name="Psi" unicode="&#x3a8;" horiz-adv-x="790" 
d="M715 645v-297q0 -88 -48 -135t-141 -47h-89v-156q0 -10 -10 -10h-63q-10 0 -10 10v156h-90q-94 0 -141.5 46.5t-47.5 135.5v297q0 10 10 10h65q10 0 10 -10v-307q0 -48 27.5 -72.5t76.5 -24.5h90v404q0 10 10 10h63q10 0 10 -10v-404h89q49 0 76.5 25t27.5 72v307
q0 10 10 10h65q10 0 10 -10z" />
    <glyph glyph-name="uni03A9" unicode="&#x3a9;" horiz-adv-x="642" 
d="M62 10v60q0 10 10 10h80v2q-45 29 -62 64.5t-17 94.5v191q0 114 62 174.5t186 60.5t186 -60.5t62 -174.5v-191q0 -59 -17 -94.5t-62 -64.5v-2h80q10 0 10 -10v-60q0 -10 -10 -10h-206q-10 0 -10 10v57q0 10 10 10q54 0 87 39t33 105v211q0 79 -41.5 119.5t-121.5 40.5
t-121.5 -40.5t-41.5 -119.5v-211q0 -66 33 -105t87 -39q10 0 10 -10v-57q0 -10 -10 -10h-206q-10 0 -10 10z" />
    <glyph glyph-name="Iotadieresis" unicode="&#x3aa;" horiz-adv-x="255" 
d="M85 10v635q0 10 10 10h65q10 0 10 -10v-635q0 -10 -10 -10h-65q-10 0 -10 10zM4.5 724.5q-12.5 13.5 -12.5 37.5v10q0 24 12.5 37.5t39.5 13.5t39.5 -13.5t12.5 -37.5v-10q0 -24 -12.5 -37.5t-39.5 -13.5t-39.5 13.5zM172.5 724.5q-12.5 13.5 -12.5 37.5v10
q0 24 12.5 37.5t39.5 13.5t39.5 -13.5t12.5 -37.5v-10q0 -24 -12.5 -37.5t-39.5 -13.5t-39.5 13.5z" />
    <glyph glyph-name="Upsilondieresis" unicode="&#x3ab;" horiz-adv-x="535" 
d="M225 10v215l-214 418q-1 2 -1 5q0 7 8 7h76q9 0 12 -7l110 -226l52 -107h1l53 110l109 223q3 7 12 7h74q5 0 7 -3.5t0 -8.5l-214 -418v-215q0 -10 -10 -10h-65q-10 0 -10 10zM144.5 724.5q-12.5 13.5 -12.5 37.5v10q0 24 12.5 37.5t39.5 13.5t39.5 -13.5t12.5 -37.5v-10
q0 -24 -12.5 -37.5t-39.5 -13.5t-39.5 13.5zM312.5 724.5q-12.5 13.5 -12.5 37.5v10q0 24 12.5 37.5t39.5 13.5t39.5 -13.5t12.5 -37.5v-10q0 -24 -12.5 -37.5t-39.5 -13.5t-39.5 13.5z" />
    <glyph glyph-name="alphatonos" unicode="&#x3ac;" horiz-adv-x="553" 
d="M548 54v-52q0 -9 -9 -10q-26 -4 -45 -4q-53 0 -80 21t-28 68q-48 -47 -90 -68t-89 -21q-71 0 -108 47t-37 139v125q0 95 48 148t133 53q36 0 75.5 -14t66.5 -32v24q0 10 10 10h60q10 0 10 -10v-362q0 -34 8.5 -44.5t31.5 -10.5q7 0 15 1.5t17 1.5q11 0 11 -10zM229 63
q35 0 68 18.5t83 66.5v238q-71 39 -122 39q-111 0 -111 -136v-120q0 -106 82 -106zM218 556l30 130q2 9 11 9h65q10 0 7 -11l-47 -130q-3 -8 -11 -8h-48q-9 0 -7 10z" />
    <glyph glyph-name="epsilontonos" unicode="&#x3ad;" horiz-adv-x="491" 
d="M107 23.5q-51 35.5 -51 99.5q0 103 94 122v2q-38 13 -60.5 45t-22.5 75q0 67 44.5 100t136.5 33q86 0 137 -33.5t51 -87.5q0 -26 -13 -26h-66q-9 0 -9 15q0 29 -25.5 44t-76.5 15q-46 0 -72 -17.5t-26 -52.5q0 -39 29.5 -57.5t93.5 -18.5h58q10 0 10 -10v-47
q0 -10 -10 -10h-77q-61 0 -86 -21t-25 -67q0 -32 28 -48.5t83 -16.5q104 0 104 59q0 15 9 15h66q7 0 10 -7t3 -23q0 -53 -52 -85t-144 -32q-90 0 -141 35.5zM201 556l30 130q2 9 11 9h65q10 0 7 -11l-47 -130q-3 -8 -11 -8h-48q-9 0 -7 10z" />
    <glyph glyph-name="etatonos" unicode="&#x3ae;" horiz-adv-x="574" 
d="M461 457.5q38 -42.5 38 -124.5v-508q0 -10 -10 -10h-65q-10 0 -10 10v504q0 49 -20 72.5t-62 23.5q-36 0 -70 -19t-83 -65v-331q0 -10 -10 -10h-65q-10 0 -10 10v369q0 30 -7.5 39t-28.5 9q-7 0 -15 -1t-17 -1q-11 0 -11 10v51q0 9 9 10q25 4 56 4q44 0 69 -21.5
t25 -60.5v-5q47 47 87.5 67t89.5 20q72 0 110 -42.5zM246 556l30 130q2 9 11 9h65q10 0 7 -11l-47 -130q-3 -8 -11 -8h-48q-9 0 -7 10z" />
    <glyph glyph-name="iotatonos" unicode="&#x3af;" horiz-adv-x="328" 
d="M111 20q-36 32 -36 103v355q0 10 10 10h65q10 0 10 -10v-359q0 -32 16 -45t55 -13q22 0 41.5 3.5t23.5 4.5h2q10 0 10 -10v-52q0 -7 -9 -10q-28 -9 -70 -9q-82 0 -118 32zM77 556l30 130q2 9 11 9h65q10 0 7 -11l-47 -130q-3 -8 -11 -8h-48q-9 0 -7 10z" />
    <glyph glyph-name="upsilondieresistonos" unicode="&#x3b0;" horiz-adv-x="555" 
d="M94 170v209q0 30 -7.5 39t-28.5 9q-7 0 -15 -1t-17 -1q-11 0 -11 10v51q0 9 9 10q25 4 57 4q46 0 72.5 -23.5t26.5 -69.5v-247q0 -47 29.5 -72t80.5 -25t79.5 26.5t28.5 80.5v63q0 111 -18 244v2q0 9 9 9h65q10 0 11 -9q18 -108 18 -223v-76q0 -192 -193 -192
q-196 0 -196 182zM235 726l22 119q2 9 10 9h66q10 0 7 -11l-38 -119q-3 -9 -11 -9h-48q-10 0 -8 11zM152.5 586.5q-12.5 13.5 -12.5 37.5v10q0 24 12.5 37.5t39.5 13.5t39.5 -13.5t12.5 -37.5v-10q0 -24 -12.5 -37.5t-39.5 -13.5t-39.5 13.5zM308.5 586.5
q-12.5 13.5 -12.5 37.5v10q0 24 12.5 37.5t39.5 13.5t39.5 -13.5t12.5 -37.5v-10q0 -24 -12.5 -37.5t-39.5 -13.5t-39.5 13.5z" />
    <glyph glyph-name="alpha" unicode="&#x3b1;" horiz-adv-x="553" 
d="M548 54v-52q0 -9 -9 -10q-26 -4 -45 -4q-53 0 -80 21t-28 68q-48 -47 -90 -68t-89 -21q-71 0 -108 47t-37 139v125q0 95 48 148t133 53q36 0 75.5 -14t66.5 -32v24q0 10 10 10h60q10 0 10 -10v-362q0 -34 8.5 -44.5t31.5 -10.5q7 0 15 1.5t17 1.5q11 0 11 -10zM229 63
q35 0 68 18.5t83 66.5v238q-71 39 -122 39q-111 0 -111 -136v-120q0 -106 82 -106z" />
    <glyph glyph-name="beta" unicode="&#x3b2;" horiz-adv-x="544" 
d="M484 246v-91q0 -81 -44.5 -124t-132.5 -43q-37 0 -76 10t-71 25v-198q0 -10 -10 -10h-65q-10 0 -10 10v695q0 87 48 131t144 44q175 0 175 -146v-32q0 -48 -17 -76.5t-49 -45.5v-2q108 -26 108 -147zM399 234q0 58 -20 83t-63 25h-75q-10 0 -10 10v50q0 10 8 10h8
q48 0 71 7.5t31.5 28t8.5 63.5v18q0 48 -23 70.5t-71 22.5q-51 0 -77.5 -25t-26.5 -73v-426q28 -17 63 -26t68 -9q108 0 108 104v67z" />
    <glyph glyph-name="gamma" unicode="&#x3b3;" horiz-adv-x="504" 
d="M219 -175v133q-9 80 -39 190.5t-65 202.5q-19 49 -34 64t-40 15q-17 0 -35 -3h-2q-9 0 -9 9v49q0 9 8 11q28 4 45 4q43 0 70 -12t47 -43.5t37 -92.5l30 -107q23 -86 34 -143h2q19 54 47 125l8 21l90 232q3 8 11 8h71q5 0 7.5 -3.5t0.5 -8.5l-199 -479v-172q0 -10 -10 -10
h-65q-10 0 -10 10z" />
    <glyph glyph-name="delta" unicode="&#x3b4;" horiz-adv-x="536" 
d="M448 362.5q26 -46.5 26 -118.5v-58q0 -198 -206 -198t-206 198v65q0 52 16.5 89t57.5 65.5t112 51.5l-83 65q-32 25 -44.5 46t-12.5 46q0 32 28 50.5t86 18.5h218q10 0 10 -10v-50q0 -10 -10 -10h-223q-24 0 -24 -12q0 -6 6.5 -12.5t16.5 -14.5t14 -11l124 -99
q68 -55 94 -101.5zM389 251q0 39 -7.5 64.5t-26 48t-56.5 53.5q-68 -28 -100 -52t-42 -51.5t-10 -74.5v-45q0 -67 29 -99t92 -32t92 32t29 99v57z" />
    <glyph glyph-name="epsilon" unicode="&#x3b5;" horiz-adv-x="491" 
d="M107 23.5q-51 35.5 -51 99.5q0 103 94 122v2q-38 13 -60.5 45t-22.5 75q0 67 44.5 100t136.5 33q86 0 137 -33.5t51 -87.5q0 -26 -13 -26h-66q-9 0 -9 15q0 29 -25.5 44t-76.5 15q-46 0 -72 -17.5t-26 -52.5q0 -39 29.5 -57.5t93.5 -18.5h58q10 0 10 -10v-47
q0 -10 -10 -10h-77q-61 0 -86 -21t-25 -67q0 -32 28 -48.5t83 -16.5q104 0 104 59q0 15 9 15h66q7 0 10 -7t3 -23q0 -53 -52 -85t-144 -32q-90 0 -141 35.5z" />
    <glyph glyph-name="zeta" unicode="&#x3b6;" horiz-adv-x="433" 
d="M336 -120v81q0 23 -12 31t-48 8h-24q-104 0 -155.5 46.5t-51.5 135.5q0 74 40 156.5t117 160.5l112 114h-254q-10 0 -10 10v50q0 10 10 10h343q10 0 10 -10v-43q0 -5 -5 -12l-123 -134q-155 -168 -155 -313q0 -54 34 -77.5t106 -23.5q66 0 96.5 -6.5t41 -24.5t10.5 -56
v-103q0 -10 -10 -10h-62q-10 0 -10 10z" />
    <glyph glyph-name="eta" unicode="&#x3b7;" horiz-adv-x="574" 
d="M461 457.5q38 -42.5 38 -124.5v-508q0 -10 -10 -10h-65q-10 0 -10 10v504q0 49 -20 72.5t-62 23.5q-36 0 -70 -19t-83 -65v-331q0 -10 -10 -10h-65q-10 0 -10 10v369q0 30 -7.5 39t-28.5 9q-7 0 -15 -1t-17 -1q-11 0 -11 10v51q0 9 9 10q25 4 56 4q44 0 69 -21.5
t25 -60.5v-5q47 47 87.5 67t89.5 20q72 0 110 -42.5z" />
    <glyph glyph-name="theta" unicode="&#x3b8;" horiz-adv-x="566" 
d="M439 647.5q52 -47.5 52 -134.5v-343q0 -87 -52 -134.5t-156 -47.5t-156 47.5t-52 134.5v343q0 87 52 134.5t156 47.5t156 -47.5zM192 593.5q-32 -26.5 -32 -77.5v-124h246v125q0 50 -32 76.5t-91 26.5t-91 -26.5zM373.5 90q32.5 27 32.5 77v155h-246v-155q0 -50 32.5 -77
t90.5 -27t90.5 27z" />
    <glyph glyph-name="iota" unicode="&#x3b9;" horiz-adv-x="328" 
d="M111 20q-36 32 -36 103v355q0 10 10 10h65q10 0 10 -10v-359q0 -32 16 -45t55 -13q22 0 41.5 3.5t23.5 4.5h2q10 0 10 -10v-52q0 -7 -9 -10q-28 -9 -70 -9q-82 0 -118 32z" />
    <glyph glyph-name="kappa" unicode="&#x3ba;" horiz-adv-x="481" 
d="M75 10v468q0 10 10 10h65q10 0 10 -10v-468q0 -10 -10 -10h-65q-10 0 -10 10zM371 5l-191 237q-3 5 -3 8q0 5 3 8l182 225q4 5 12 5h82q6 0 7.5 -3.5t-2.5 -8.5l-185 -221l202 -243q3 -3 3 -6q0 -6 -9 -6h-89q-7 0 -12 5z" />
    <glyph glyph-name="lambda" unicode="&#x3bb;" horiz-adv-x="514" 
d="M406.5 0q-24.5 12 -42 40t-34.5 81l-32 99q-27 82 -53 175h-1q-11 -29 -52 -136q-6 -13 -16 -39l-83 -212q-3 -8 -11 -8h-69q-5 0 -7 3.5t0 8.5l183 448q3 8 11 8h17l-33 96q-12 35 -27.5 46.5t-40.5 11.5q-19 0 -40 -3h-2q-9 0 -9 9v52q0 10 9 11q21 4 54 4
q57 0 90 -27.5t55 -96.5l142 -449q12 -35 25 -47.5t35 -12.5q19 0 32 2h2q9 0 9 -9l1 -52q0 -10 -10 -11q-24 -4 -38 -4q-40 0 -64.5 12z" />
    <glyph glyph-name="uni03BC" unicode="&#x3bc;" horiz-adv-x="555" 
d="M75 -175v653q0 10 10 10h65q10 0 10 -10v-308q0 -53 20 -79.5t56 -26.5q37 0 78 23.5t68 61.5v329q0 10 10 10h65q10 0 10 -10v-362q0 -34 8.5 -44.5t31.5 -10.5q7 0 15 1.5t17 1.5q11 0 11 -10v-52q0 -9 -9 -10q-26 -4 -44 -4q-106 0 -106 86v1q-32 -39 -78 -63t-84 -24
q-46 0 -74 25v-188q0 -10 -10 -10h-60q-10 0 -10 10z" />
    <glyph glyph-name="nu" unicode="&#x3bd;" horiz-adv-x="506" 
d="M203 8l-177 468l-1 4q0 8 9 8h69q9 0 12 -8l100 -280l12 -34q5 -15 13 -36.5t17 -50.5h1q18 40 56 120l53 112q17 36 25 63t8 61v43q0 10 10 10h66q10 0 10 -10v-40q0 -39 -11.5 -77.5t-35.5 -88.5l-129 -265q-3 -7 -12 -7h-84q-8 0 -11 8z" />
    <glyph glyph-name="xi" unicode="&#x3be;" horiz-adv-x="448" 
d="M352 -120v81q0 23 -10 31t-38 8h-18q-119 0 -174 40t-55 122v38q0 68 28 106t86 52v2q-81 29 -81 114v8q0 49 26 81.5t88 49.5v2q-33 -5 -86 -5h-58q-10 0 -10 10v53q0 10 10 10h347q10 0 10 -10v-53q0 -10 -7 -10h-8q-84 0 -133.5 -12.5t-72.5 -40.5t-23 -77v-11
q0 -41 28 -60t87 -19h50q10 0 10 -10v-46q0 -10 -10 -10h-68q-69 0 -99.5 -24t-30.5 -84v-47q0 -53 35.5 -74.5t115.5 -21.5q63 0 92 -7t39.5 -24.5t10.5 -55.5v-106q0 -10 -10 -10h-61q-10 0 -10 10z" />
    <glyph glyph-name="omicron" unicode="&#x3bf;" horiz-adv-x="536" 
d="M62 186v116q0 198 206 198q101 0 153.5 -49.5t52.5 -148.5v-116q0 -198 -206 -198t-206 198zM360 95q29 32 29 99v100q0 67 -29 99t-92 32t-92 -32t-29 -99v-100q0 -67 29 -99t92 -32t92 32z" />
    <glyph glyph-name="pi" unicode="&#x3c0;" horiz-adv-x="591" 
d="M422 20.5q-31 32.5 -31 106.5v288h-206v-405q0 -10 -10 -10h-65q-10 0 -10 10v405h-70q-10 0 -10 10v53q0 10 10 10h526q10 0 10 -10v-53q0 -10 -10 -10h-80v-298q0 -34 11 -46.5t34 -12.5q32 0 45 2h2q8 0 8 -9v-49q0 -9 -9 -10q-17 -4 -43 -4q-71 0 -102 32.5z" />
    <glyph glyph-name="rho" unicode="&#x3c1;" horiz-adv-x="532" 
d="M423 455.5q47 -44.5 47 -136.5v-130q0 -97 -46 -149t-133 -52q-33 0 -69.5 8t-61.5 22v-193q0 -10 -10 -10h-65q-10 0 -10 10v490q0 185 199 185q102 0 149 -44.5zM385 320q0 54 -27.5 80t-83.5 26q-114 0 -114 -112v-224q26 -13 56.5 -20t56.5 -7q57 0 84.5 33.5
t27.5 102.5v121z" />
    <glyph glyph-name="uni03C2" unicode="&#x3c2;" horiz-adv-x="504" 
d="M346 -120v81q0 24 -11.5 31.5t-46.5 7.5h-24q-98 0 -150 45t-52 134v127q0 94 52.5 144t149.5 50q84 0 134.5 -39t50.5 -103q0 -13 -2.5 -18t-7.5 -5h-66q-9 0 -9 16q0 34 -27.5 54t-72.5 20q-117 0 -117 -127v-121q0 -54 33.5 -79t103.5 -25q65 0 94.5 -6.5t39.5 -24.5
t10 -57v-105q0 -10 -10 -10h-62q-10 0 -10 10z" />
    <glyph glyph-name="sigma" unicode="&#x3c3;" horiz-adv-x="555" 
d="M112 35.5q-50 47.5 -50 134.5v125q0 96 51 144.5t162 48.5h265q10 0 10 -10v-53q0 -10 -10 -10l-126 5v-1q28 -25 41.5 -57t13.5 -83v-109q0 -87 -50.5 -134.5t-153.5 -47.5t-153 47.5zM353.5 89.5q30.5 26.5 30.5 77.5v119q0 106 -67 133h-44q-62 0 -94 -25t-32 -87
v-140q0 -51 30.5 -77.5t87.5 -26.5q58 0 88.5 26.5z" />
    <glyph glyph-name="tau" unicode="&#x3c4;" horiz-adv-x="500" 
d="M224 23.5q-37 35.5 -37 115.5v276h-157q-10 0 -10 10v53q0 10 10 10h435q10 0 10 -10v-53q0 -10 -10 -10h-193v-283q0 -38 16 -54.5t51 -16.5q22 0 45 3.5t29 4.5h2q9 0 9 -9l2 -51q0 -10 -9 -11q-42 -10 -74 -10q-82 0 -119 35.5z" />
    <glyph glyph-name="upsilon" unicode="&#x3c5;" horiz-adv-x="555" 
d="M94 170v209q0 30 -7.5 39t-28.5 9q-7 0 -15 -1t-17 -1q-11 0 -11 10v51q0 9 9 10q25 4 57 4q46 0 72.5 -23.5t26.5 -69.5v-247q0 -47 29.5 -72t80.5 -25t79.5 26.5t28.5 80.5v63q0 111 -18 244v2q0 9 9 9h65q10 0 11 -9q18 -108 18 -223v-76q0 -192 -193 -192
q-196 0 -196 182z" />
    <glyph glyph-name="phi" unicode="&#x3c6;" horiz-adv-x="761" 
d="M338 -175v175h-72q-95 0 -143 47t-48 135v296q0 10 10 10h65q10 0 10 -10v-307q0 -49 28.5 -75t77.5 -26h72v409q0 8 11 10q84 11 144 11q94 0 143.5 -45.5t49.5 -136.5v-136q0 -88 -48 -135t-145 -47h-70v-175q0 -10 -10 -10h-65q-10 0 -10 10zM493 70q51 0 79.5 26.5
t28.5 74.5v158q0 49 -29 74.5t-79 25.5q-24 0 -70 -2v-357h70z" />
    <glyph glyph-name="chi" unicode="&#x3c7;" horiz-adv-x="504" 
d="M404 -183q-25 14 -45 46t-45 92l-26 63l-34 85h-2l-42 -85l-99 -196q-4 -7 -12 -7h-74q-6 0 -8 3.5t1 8.5l184 334l-105 218q-14 30 -26 40.5t-28 10.5q-13 0 -33 -3h-2q-9 0 -9 9v49q0 10 9 11q28 4 45 4q35 0 57.5 -13.5t42 -44.5t46.5 -93l29 -67l25 -59h2l28 58
l102 200q3 7 12 7h72q6 0 8 -3.5t-1 -8.5l-170 -312l98 -210q24 -50 38.5 -65.5t35.5 -15.5l20 2h2q9 0 9 -9v-48q0 -10 -9 -11q-26 -4 -34 -4q-37 0 -62 14z" />
    <glyph glyph-name="psi" unicode="&#x3c8;" horiz-adv-x="770" 
d="M339 -175v175h-74q-95 0 -142.5 47.5t-47.5 134.5v296q0 10 10 10h65q10 0 10 -10v-306q0 -48 28.5 -74.5t76.5 -26.5h74v559q0 10 10 10h63q10 0 10 -10v-559h83q48 0 76.5 26.5t28.5 74.5v191q0 24 -10.5 40t-44.5 21q-10 2 -10 11v55q0 10 10 10q71 0 105.5 -40
t34.5 -104v-174q0 -87 -47 -134.5t-143 -47.5h-81v-175q0 -10 -10 -10h-65q-10 0 -10 10z" />
    <glyph glyph-name="omega" unicode="&#x3c9;" horiz-adv-x="779" 
d="M72 155v199q0 65 34 105.5t106 40.5q10 0 10 -10v-55q0 -10 -10 -11q-34 -5 -44.5 -20t-10.5 -39v-195q0 -56 23 -79.5t73 -23.5q45 0 70.5 24.5t25.5 75.5v168q0 10 10 10h61q10 0 10 -10v-168q0 -51 25.5 -75.5t70.5 -24.5q50 0 73 23.5t23 79.5v195q0 24 -10.5 39
t-44.5 20q-10 1 -10 11v55q0 10 10 10q72 0 106 -40.5t34 -105.5v-199q0 -167 -164 -167q-49 0 -92.5 22.5t-60.5 59.5h-1q-16 -34 -58 -58t-93 -24q-166 0 -166 167z" />
    <glyph glyph-name="iotadieresis" unicode="&#x3ca;" horiz-adv-x="328" 
d="M111 20q-36 32 -36 103v355q0 10 10 10h65q10 0 10 -10v-359q0 -32 16 -45t55 -13q22 0 41.5 3.5t23.5 4.5h2q10 0 10 -10v-52q0 -7 -9 -10q-28 -9 -70 -9q-82 0 -118 32zM-6.5 583.5q-12.5 13.5 -12.5 37.5v10q0 24 12.5 37.5t39.5 13.5t39.5 -13.5t12.5 -37.5v-10
q0 -24 -12.5 -37.5t-39.5 -13.5t-39.5 13.5zM162.5 583.5q-12.5 13.5 -12.5 37.5v10q0 24 12.5 37.5t39.5 13.5t39.5 -13.5t12.5 -37.5v-10q0 -24 -12.5 -37.5t-39.5 -13.5t-39.5 13.5z" />
    <glyph glyph-name="upsilondieresis" unicode="&#x3cb;" horiz-adv-x="555" 
d="M94 170v209q0 30 -7.5 39t-28.5 9q-7 0 -15 -1t-17 -1q-11 0 -11 10v51q0 9 9 10q25 4 57 4q46 0 72.5 -23.5t26.5 -69.5v-247q0 -47 29.5 -72t80.5 -25t79.5 26.5t28.5 80.5v63q0 111 -18 244v2q0 9 9 9h65q10 0 11 -9q18 -108 18 -223v-76q0 -192 -193 -192
q-196 0 -196 182zM145.5 583.5q-12.5 13.5 -12.5 37.5v10q0 24 12.5 37.5t39.5 13.5t39.5 -13.5t12.5 -37.5v-10q0 -24 -12.5 -37.5t-39.5 -13.5t-39.5 13.5zM314.5 583.5q-12.5 13.5 -12.5 37.5v10q0 24 12.5 37.5t39.5 13.5t39.5 -13.5t12.5 -37.5v-10q0 -24 -12.5 -37.5
t-39.5 -13.5t-39.5 13.5z" />
    <glyph glyph-name="omicrontonos" unicode="&#x3cc;" horiz-adv-x="536" 
d="M62 186v116q0 198 206 198q101 0 153.5 -49.5t52.5 -148.5v-116q0 -198 -206 -198t-206 198zM360 95q29 32 29 99v100q0 67 -29 99t-92 32t-92 -32t-29 -99v-100q0 -67 29 -99t92 -32t92 32zM227 556l30 130q2 9 11 9h65q10 0 7 -11l-47 -130q-3 -8 -11 -8h-48
q-9 0 -7 10z" />
    <glyph glyph-name="upsilontonos" unicode="&#x3cd;" horiz-adv-x="555" 
d="M94 170v209q0 30 -7.5 39t-28.5 9q-7 0 -15 -1t-17 -1q-11 0 -11 10v51q0 9 9 10q25 4 57 4q46 0 72.5 -23.5t26.5 -69.5v-247q0 -47 29.5 -72t80.5 -25t79.5 26.5t28.5 80.5v63q0 111 -18 244v2q0 9 9 9h65q10 0 11 -9q18 -108 18 -223v-76q0 -192 -193 -192
q-196 0 -196 182zM229 556l30 130q2 9 11 9h65q10 0 7 -11l-47 -130q-3 -8 -11 -8h-48q-9 0 -7 10z" />
    <glyph glyph-name="omegatonos" unicode="&#x3ce;" horiz-adv-x="779" 
d="M72 155v199q0 65 34 105.5t106 40.5q10 0 10 -10v-55q0 -10 -10 -11q-34 -5 -44.5 -20t-10.5 -39v-195q0 -56 23 -79.5t73 -23.5q45 0 70.5 24.5t25.5 75.5v168q0 10 10 10h61q10 0 10 -10v-168q0 -51 25.5 -75.5t70.5 -24.5q50 0 73 23.5t23 79.5v195q0 24 -10.5 39
t-44.5 20q-10 1 -10 11v55q0 10 10 10q72 0 106 -40.5t34 -105.5v-199q0 -167 -164 -167q-49 0 -92.5 22.5t-60.5 59.5h-1q-16 -34 -58 -58t-93 -24q-166 0 -166 167zM349 556l30 130q2 9 11 9h65q10 0 7 -11l-47 -130q-3 -8 -11 -8h-48q-9 0 -7 10z" />
    <glyph glyph-name="uni0400" unicode="&#x400;" horiz-adv-x="533" 
d="M85 10v635q0 10 10 10h356q10 0 10 -10v-57q0 -10 -10 -10h-281v-208h257q10 0 10 -10v-54q0 -10 -10 -10h-257v-219h281q10 0 10 -10v-57q0 -10 -10 -10h-356q-10 0 -10 10zM260 716l-72 101q-2 4 -2 6q0 6 7 6h73q6 0 10 -7l56 -102l2 -5q0 -5 -7 -5h-56q-7 0 -11 6z
" />
    <glyph glyph-name="uni0401" unicode="&#x401;" horiz-adv-x="533" 
d="M85 10v635q0 10 10 10h356q10 0 10 -10v-57q0 -10 -10 -10h-281v-208h257q10 0 10 -10v-54q0 -10 -10 -10h-257v-219h281q10 0 10 -10v-57q0 -10 -10 -10h-356q-10 0 -10 10zM156.5 724.5q-12.5 13.5 -12.5 37.5v10q0 24 12.5 37.5t39.5 13.5t39.5 -13.5t12.5 -37.5v-10
q0 -24 -12.5 -37.5t-39.5 -13.5t-39.5 13.5zM324.5 724.5q-12.5 13.5 -12.5 37.5v10q0 24 12.5 37.5t39.5 13.5t39.5 -13.5t12.5 -37.5v-10q0 -24 -12.5 -37.5t-39.5 -13.5t-39.5 13.5z" />
    <glyph glyph-name="uni0402" unicode="&#x402;" horiz-adv-x="742" 
d="M488 -12q-5 0 -6.5 1t-2.5 5l-17 59q-1 2 -1 6q0 7 17 9q51 8 77.5 39.5t26.5 85.5v61q0 56 -25 83.5t-76 27.5q-42 0 -82 -19.5t-89 -63.5v-272q0 -10 -10 -10h-65q-10 0 -10 10v568h-180q-10 0 -10 10v57q0 10 10 10h465q10 0 10 -10v-57q0 -10 -10 -10h-200v-218
q88 80 192 80q79 0 122 -46t43 -131v-68q0 -88 -44.5 -142t-122.5 -64z" />
    <glyph glyph-name="uni0403" unicode="&#x403;" horiz-adv-x="475" 
d="M85 10v635q0 10 10 10h340q10 0 10 -10v-57q0 -10 -10 -10h-265v-568q0 -10 -10 -10h-65q-10 0 -10 10zM223 720l56 102q3 7 10 7h73q5 0 6.5 -3.5t-1.5 -8.5l-72 -101q-4 -6 -11 -6h-56q-10 0 -5 10z" />
    <glyph glyph-name="uni0404" unicode="&#x404;" horiz-adv-x="608" 
d="M131 35.5q-58 47.5 -58 154.5v275q0 107 53.5 154.5t172.5 47.5q112 0 173.5 -37.5t61.5 -105.5q0 -13 -1 -20q-2 -12 -4 -16.5t-7 -4.5h-65q-5 0 -7 4.5t-2 15.5q0 47 -34 68t-108 21q-81 0 -114.5 -26t-33.5 -89v-106h270q10 0 10 -10v-56q0 -10 -10 -10h-270v-115
q0 -64 35.5 -90.5t120.5 -26.5q76 0 109.5 20.5t33.5 67.5q0 11 2 15.5t7 4.5h65q5 0 7.5 -6.5t2.5 -22.5q0 -80 -52.5 -117t-167.5 -37q-132 0 -190 47.5z" />
    <glyph glyph-name="uni0405" unicode="&#x405;" horiz-adv-x="568" 
d="M103.5 38q-57.5 50 -51.5 136q1 18 12 18h63q12 0 12 -16q0 -60 35.5 -87t110.5 -27q144 0 144 103q0 39 -20 61.5t-71 43.5l-147 61q-68 28 -98 66.5t-30 96.5q0 85 54.5 128.5t159.5 43.5q102 0 163.5 -43t61.5 -120l-1 -17q-2 -19 -11 -19h-64q-5 0 -7.5 4t-1.5 15
q4 51 -34.5 78.5t-108.5 27.5q-126 0 -126 -93q0 -35 20.5 -57.5t73.5 -44.5l145 -61q69 -29 98 -67.5t29 -101.5q0 -86 -58.5 -132.5t-177.5 -46.5q-117 0 -174.5 50z" />
    <glyph glyph-name="uni0406" unicode="&#x406;" horiz-adv-x="255" 
d="M85 10v635q0 10 10 10h65q10 0 10 -10v-635q0 -10 -10 -10h-65q-10 0 -10 10z" />
    <glyph glyph-name="uni0407" unicode="&#x407;" horiz-adv-x="255" 
d="M85 10v635q0 10 10 10h65q10 0 10 -10v-635q0 -10 -10 -10h-65q-10 0 -10 10zM4.5 724.5q-12.5 13.5 -12.5 37.5v10q0 24 12.5 37.5t39.5 13.5t39.5 -13.5t12.5 -37.5v-10q0 -24 -12.5 -37.5t-39.5 -13.5t-39.5 13.5zM172.5 724.5q-12.5 13.5 -12.5 37.5v10
q0 24 12.5 37.5t39.5 13.5t39.5 -13.5t12.5 -37.5v-10q0 -24 -12.5 -37.5t-39.5 -13.5t-39.5 13.5z" />
    <glyph glyph-name="uni0408" unicode="&#x408;" horiz-adv-x="265" 
d="M22 -141q-8 0 -10 6l-17 59v3q0 9 18 13q40 10 61 46t21 96v563q0 10 10 10h65q10 0 10 -10v-559q0 -191 -143 -225q-7 -2 -15 -2z" />
    <glyph glyph-name="uni0409" unicode="&#x409;" horiz-adv-x="867" 
d="M1 11l218 636q3 8 12 8h89q9 0 12 -8l82 -237h172q122 0 181.5 -48.5t59.5 -147.5q0 -104 -62.5 -159t-181.5 -55h-109q-9 0 -12 8l-148 450l-40 120h-1l-38 -118l-147 -452q-3 -8 -12 -8h-67q-11 0 -8 11zM579 72q163 0 163 142q0 66 -37.5 95t-122.5 29h-143l93 -266
h47z" />
    <glyph glyph-name="uni040A" unicode="&#x40a;" horiz-adv-x="967" 
d="M85 10v635q0 10 10 10h65q10 0 10 -10v-249h321v249q0 10 10 10h65q10 0 10 -10v-249h110q118 0 179.5 -49t61.5 -142q0 -98 -64 -151.5t-180 -53.5h-182q-10 0 -10 10v312h-321v-312q0 -10 -10 -10h-65q-10 0 -10 10zM679 72q80 0 121.5 34t41.5 98q0 61 -39 89.5
t-121 28.5h-106v-250h103z" />
    <glyph glyph-name="uni040B" unicode="&#x40b;" horiz-adv-x="742" 
d="M225 10v568h-180q-10 0 -10 10v57q0 10 10 10h465q10 0 10 -10v-57q0 -10 -10 -10h-200v-218q88 80 192 80q79 0 122 -46t43 -131v-253q0 -10 -10 -10h-65q-10 0 -10 10v244q0 111 -103 111q-42 0 -81.5 -19.5t-87.5 -63.5v-272q0 -10 -10 -10h-65q-10 0 -10 10z" />
    <glyph glyph-name="uni040C" unicode="&#x40c;" horiz-adv-x="580" 
d="M85 10v635q0 10 10 10h65q10 0 10 -10v-274h84l213 278q5 6 13 6h73q6 0 8 -3.5t-2 -8.5l-231 -301l250 -330q2 -2 2 -6q0 -2 -2 -4t-6 -2h-81q-8 0 -13 6l-221 289h-87v-285q0 -10 -10 -10h-65q-10 0 -10 10zM239 720l56 102q3 7 10 7h73q5 0 6.5 -3.5t-1.5 -8.5
l-72 -101q-4 -6 -11 -6h-56q-10 0 -5 10z" />
    <glyph glyph-name="uni040D" unicode="&#x40d;" horiz-adv-x="658" 
d="M85 10v635q0 10 10 10h63q10 0 10 -10v-312q0 -92 -5 -192l-1 -26h2l15 27q38 71 110 191l189 315q5 7 12 7h73q10 0 10 -10v-635q0 -10 -10 -10h-63q-10 0 -10 10v300q0 126 7 231h-2l-13 -24q-51 -92 -120 -207l-182 -303q-5 -7 -12 -7h-73q-10 0 -10 10zM309 716
l-72 101q-2 4 -2 6q0 6 7 6h73q6 0 10 -7l56 -102l2 -5q0 -5 -7 -5h-56q-7 0 -11 6z" />
    <glyph glyph-name="uni040E" unicode="&#x40e;" horiz-adv-x="547" 
d="M130 3.5q-2 3.5 0 8.5l108 218l-212 413q-1 2 -1 5q0 7 8 7h74q9 0 12 -7l116 -236q35 -71 46 -95h2q10 24 46 95l117 236q3 7 12 7h71q5 0 7 -3.5t0 -8.5l-322 -636q-3 -7 -12 -7h-65q-5 0 -7 3.5zM205.5 729.5q-36.5 13.5 -55.5 26.5q-6 5 -6 12v55q0 6 3 8t8 -1
q33 -18 63 -30.5t63 -12.5t63 12.5t63 30.5l5 2q6 0 6 -9v-55q0 -7 -6 -12q-19 -13 -55.5 -26.5t-75.5 -13.5t-75.5 13.5z" />
    <glyph glyph-name="uni040F" unicode="&#x40f;" horiz-adv-x="660" 
d="M288 -120v120h-193q-10 0 -10 10v635q0 10 10 10h65q10 0 10 -10v-568h320v568q0 10 10 10h65q10 0 10 -10v-635q0 -10 -10 -10h-192v-120q0 -10 -10 -10h-65q-10 0 -10 10z" />
    <glyph glyph-name="uni0410" unicode="&#x410;" horiz-adv-x="560" 
d="M560 7q0 -7 -9 -7h-71q-9 0 -12 8l-48 145h-285l-47 -145q-3 -8 -12 -8h-67q-11 0 -8 11l221 636q3 8 12 8h89q9 0 12 -8l224 -636zM395 227l-77 231l-41 120h-1l-40 -117l-76 -234h235z" />
    <glyph glyph-name="uni0411" unicode="&#x411;" horiz-adv-x="566" 
d="M85 10v635q0 10 10 10h345q10 0 10 -10v-57q0 -10 -10 -10h-270v-176h110q119 0 180 -49.5t61 -146.5q0 -100 -63 -153t-181 -53h-182q-10 0 -10 10zM273 72q82 0 122.5 33.5t40.5 101.5q0 65 -38 94t-122 29h-106v-258h103z" />
    <glyph glyph-name="uni0412" unicode="&#x412;" horiz-adv-x="573" 
d="M85 10v635q0 10 10 10h178q227 0 227 -164q0 -54 -26 -87.5t-85 -55.5v-2q139 -25 139 -166q0 -92 -62 -136t-192 -44h-179q-10 0 -10 10zM269 374q76 0 111 25.5t35 80.5t-35.5 78.5t-119.5 23.5h-90v-208h99zM273 74q91 0 130.5 26t39.5 86q0 62 -39.5 90.5
t-127.5 28.5h-106v-231h103z" />
    <glyph glyph-name="uni0413" unicode="&#x413;" horiz-adv-x="475" 
d="M85 10v635q0 10 10 10h340q10 0 10 -10v-57q0 -10 -10 -10h-265v-568q0 -10 -10 -10h-65q-10 0 -10 10z" />
    <glyph glyph-name="uni0414" unicode="&#x414;" horiz-adv-x="600" 
d="M600 67v-187q0 -10 -10 -10h-65q-10 0 -10 10v120h-430v-120q0 -10 -10 -10h-65q-10 0 -10 10v187q0 10 10 10h43l189 570q3 8 12 8h89q9 0 12 -8l191 -570h44q10 0 10 -10zM138 77h319l-104 329q-24 76 -56 172h-1l-56 -176z" />
    <glyph glyph-name="uni0415" unicode="&#x415;" horiz-adv-x="533" 
d="M85 10v635q0 10 10 10h356q10 0 10 -10v-57q0 -10 -10 -10h-281v-208h257q10 0 10 -10v-54q0 -10 -10 -10h-257v-219h281q10 0 10 -10v-57q0 -10 -10 -10h-356q-10 0 -10 10z" />
    <glyph glyph-name="uni0416" unicode="&#x416;" horiz-adv-x="857" 
d="M30.5 3.5q-2.5 3.5 0.5 8.5l176 326l-166 305q-1 2 -1 5t2.5 5t6.5 2h69q9 0 12 -7l151 -277h105v274q0 10 10 10h65q10 0 10 -10v-274h108l152 277q3 7 12 7h65q6 0 8.5 -3.5t-0.5 -8.5l-166 -305l176 -326q1 -2 1 -5t-2.5 -5t-6.5 -2h-75q-8 0 -12 7l-155 288h-105
v-285q0 -10 -10 -10h-65q-10 0 -10 10v285h-106l-155 -288q-4 -7 -12 -7h-74q-6 0 -8.5 3.5z" />
    <glyph glyph-name="uni0417" unicode="&#x417;" horiz-adv-x="577" 
d="M108.5 30.5q-53.5 42.5 -53.5 130.5q0 10 10 10h65q9 0 9 -10q0 -52 30.5 -75t100.5 -23q86 0 126.5 29t40.5 93q0 57 -38.5 83t-124.5 26h-96q-10 0 -10 10v54q0 10 10 10h82q80 0 116.5 28t36.5 89q0 56 -33.5 81.5t-106.5 25.5q-68 0 -98 -23.5t-30 -75.5
q0 -10 -9 -10h-65q-10 0 -10 10q0 85 55 129.5t163 44.5q109 0 164 -42.5t55 -126.5q0 -59 -30.5 -100.5t-85.5 -58.5v-1q140 -26 140 -152q0 -96 -63 -147t-188 -51q-109 0 -162.5 42.5z" />
    <glyph glyph-name="uni0418" unicode="&#x418;" horiz-adv-x="658" 
d="M85 10v635q0 10 10 10h63q10 0 10 -10v-312q0 -92 -5 -192l-1 -26h2l15 27q38 71 110 191l189 315q5 7 12 7h73q10 0 10 -10v-635q0 -10 -10 -10h-63q-10 0 -10 10v300q0 126 7 231h-2l-13 -24q-51 -92 -120 -207l-182 -303q-5 -7 -12 -7h-73q-10 0 -10 10z" />
    <glyph glyph-name="uni0419" unicode="&#x419;" horiz-adv-x="658" 
d="M85 10v635q0 10 10 10h63q10 0 10 -10v-312q0 -92 -5 -192l-1 -26h2l15 27q38 71 110 191l189 315q5 7 12 7h73q10 0 10 -10v-635q0 -10 -10 -10h-63q-10 0 -10 10v300q0 126 7 231h-2l-13 -24q-51 -92 -120 -207l-182 -303q-5 -7 -12 -7h-73q-10 0 -10 10zM253.5 729.5
q-36.5 13.5 -55.5 26.5q-6 5 -6 12v55q0 6 3 8t8 -1q33 -18 63 -30.5t63 -12.5t63 12.5t63 30.5l5 2q6 0 6 -9v-55q0 -7 -6 -12q-19 -13 -55.5 -26.5t-75.5 -13.5t-75.5 13.5z" />
    <glyph glyph-name="uni041A" unicode="&#x41a;" horiz-adv-x="580" 
d="M85 10v635q0 10 10 10h65q10 0 10 -10v-274h84l213 278q5 6 13 6h73q6 0 8 -3.5t-2 -8.5l-231 -301l250 -330q2 -2 2 -6q0 -2 -2 -4t-6 -2h-81q-8 0 -13 6l-221 289h-87v-285q0 -10 -10 -10h-65q-10 0 -10 10z" />
    <glyph glyph-name="uni041B" unicode="&#x41b;" horiz-adv-x="554" 
d="M1 11l218 636q3 8 12 8h89q9 0 12 -8l221 -636l1 -4q0 -7 -9 -7h-71q-9 0 -12 8l-148 450l-40 120h-1l-38 -118l-147 -452q-3 -8 -12 -8h-67q-11 0 -8 11z" />
    <glyph glyph-name="uni041C" unicode="&#x41c;" horiz-adv-x="769" 
d="M70 10l14 635q0 10 10 10h106q7 0 11 -8l175 -393l172 393q4 8 11 8h106q10 0 10 -10l14 -635q0 -10 -10 -10h-63q-10 0 -10 10l-10 402q-1 48 3 146h-2q-26 -62 -63 -146l-148 -321q-3 -7 -11 -7h-2q-8 0 -11 7l-150 326q-20 43 -48 113l-11 28h-2q2 -68 2 -104v-38
l-10 -406q0 -10 -10 -10h-63q-10 0 -10 10z" />
    <glyph glyph-name="uni041D" unicode="&#x41d;" horiz-adv-x="661" 
d="M85 10v635q0 10 10 10h65q10 0 10 -10v-270h321v270q0 10 10 10h65q10 0 10 -10v-635q0 -10 -10 -10h-65q-10 0 -10 10v291h-321v-291q0 -10 -10 -10h-65q-10 0 -10 10z" />
    <glyph glyph-name="uni041E" unicode="&#x41e;" horiz-adv-x="642" 
d="M135 48.5q-62 60.5 -62 174.5v209q0 114 62 174.5t186 60.5t186 -60.5t62 -174.5v-209q0 -114 -62 -174.5t-186 -60.5t-186 60.5zM442.5 104q41.5 41 41.5 120v207q0 79 -41.5 120t-121.5 41t-121.5 -41t-41.5 -120v-207q0 -79 41.5 -120t121.5 -41t121.5 41z" />
    <glyph glyph-name="uni041F" unicode="&#x41f;" horiz-adv-x="660" 
d="M85 10v635q0 10 10 10h470q10 0 10 -10v-635q0 -10 -10 -10h-65q-10 0 -10 10v568h-320v-568q0 -10 -10 -10h-65q-10 0 -10 10z" />
    <glyph glyph-name="uni0420" unicode="&#x420;" horiz-adv-x="545" 
d="M85 10v635q0 10 10 10h167q120 0 181.5 -51.5t61.5 -152.5q0 -100 -61.5 -152t-181.5 -52h-92v-237q0 -10 -10 -10h-65q-10 0 -10 10zM260 319q83 0 121.5 31.5t38.5 97.5q0 70 -39 102.5t-123 32.5h-88v-264h90z" />
    <glyph glyph-name="uni0421" unicode="&#x421;" horiz-adv-x="633" 
d="M136 48.5q-63 60.5 -63 174.5v209q0 114 63.5 174.5t184.5 60.5q71 0 126.5 -22.5t87 -65.5t31.5 -101q0 -21 -2 -32q-2 -14 -11 -14h-65q-5 0 -7.5 3t-1.5 7q3 72 -37.5 111t-119.5 39q-80 0 -122 -41t-42 -118v-211q0 -77 42 -118t122 -41q74 0 116 34.5t42 96.5
q0 12 -1 19v2q0 8 9 8h64q6 0 8.5 -3.5t3.5 -10.5t1 -21q0 -60 -30.5 -105.5t-86 -70t-128.5 -24.5q-121 0 -184 60.5z" />
    <glyph glyph-name="uni0422" unicode="&#x422;" horiz-adv-x="535" 
d="M225 10v568h-180q-10 0 -10 10v57q0 10 10 10h445q10 0 10 -10v-57q0 -10 -10 -10h-180v-568q0 -10 -10 -10h-65q-10 0 -10 10z" />
    <glyph glyph-name="uni0423" unicode="&#x423;" horiz-adv-x="547" 
d="M130 3.5q-2 3.5 0 8.5l108 218l-212 413q-1 2 -1 5q0 7 8 7h74q9 0 12 -7l116 -236q35 -71 46 -95h2q10 24 46 95l117 236q3 7 12 7h71q5 0 7 -3.5t0 -8.5l-322 -636q-3 -7 -12 -7h-65q-5 0 -7 3.5z" />
    <glyph glyph-name="uni0424" unicode="&#x424;" horiz-adv-x="832" 
d="M679.5 603.5q79.5 -61.5 79.5 -188.5v-176q0 -128 -79.5 -189.5t-221.5 -61.5v-49q0 -10 -10 -10h-65q-10 0 -10 10v49q-142 1 -221 62.5t-79 188.5v176q0 127 79 188t221 63v50q0 10 10 10h65q10 0 10 -10v-50q142 -1 221.5 -62.5zM375 60v534q-217 -2 -217 -184v-166
q0 -182 217 -184zM674 410q0 182 -218 184v-534q218 2 218 184v166z" />
    <glyph glyph-name="uni0425" unicode="&#x425;" horiz-adv-x="551" 
d="M5.5 3.5q-1.5 3.5 1.5 8.5l214 326l-200 305q-2 4 -2 6q0 6 8 6h80q6 0 11 -6l113 -173l47 -75h1l50 79l109 169q5 6 12 6h76q6 0 7.5 -3.5t-1.5 -8.5l-199 -307l211 -324q2 -4 2 -6q0 -6 -8 -6h-80q-7 0 -12 6l-119 183l-15 24q-26 40 -37 59h-1q-31 -51 -51 -81
l-119 -184q-5 -7 -12 -7h-79q-6 0 -7.5 3.5z" />
    <glyph glyph-name="uni0426" unicode="&#x426;" horiz-adv-x="652" 
d="M542 -120v120h-447q-10 0 -10 10v635q0 10 10 10h65q10 0 10 -10v-568h304v568q0 10 10 10h65q10 0 10 -10v-568h58q10 0 10 -10v-187q0 -10 -10 -10h-65q-10 0 -10 10z" />
    <glyph glyph-name="uni0427" unicode="&#x427;" horiz-adv-x="630" 
d="M545 645v-635q0 -10 -10 -10h-65q-10 0 -10 10v275q-100 -68 -205 -68q-91 0 -135.5 44.5t-44.5 140.5v243q0 10 10 10h65q10 0 10 -10v-230q0 -66 26 -94t87 -28q96 0 187 70v282q0 10 10 10h65q10 0 10 -10z" />
    <glyph glyph-name="uni0428" unicode="&#x428;" horiz-adv-x="889" 
d="M85 10v635q0 10 10 10h65q10 0 10 -10v-568h233v568q0 10 10 10h63q10 0 10 -10v-568h233v568q0 10 10 10h65q10 0 10 -10v-635q0 -10 -10 -10h-699q-10 0 -10 10z" />
    <glyph glyph-name="uni0429" unicode="&#x429;" horiz-adv-x="895" 
d="M785 -120v120h-690q-10 0 -10 10v635q0 10 10 10h65q10 0 10 -10v-568h233v568q0 10 10 10h63q10 0 10 -10v-568h233v568q0 10 10 10h65q10 0 10 -10v-568h56q10 0 10 -10v-187q0 -10 -10 -10h-65q-10 0 -10 10z" />
    <glyph glyph-name="uni042A" unicode="&#x42a;" horiz-adv-x="656" 
d="M180 10v568h-135q-10 0 -10 10v57q0 10 10 10h210q10 0 10 -10v-235h110q122 0 181.5 -48.5t59.5 -147.5q0 -104 -62.5 -159t-181.5 -55h-182q-10 0 -10 10zM368 72q163 0 163 142q0 66 -37.5 95t-122.5 29h-106v-266h103z" />
    <glyph glyph-name="uni042B" unicode="&#x42b;" horiz-adv-x="816" 
d="M85 10v635q0 10 10 10h65q10 0 10 -10v-235h110q122 0 181.5 -48.5t59.5 -147.5q0 -104 -62.5 -159t-181.5 -55h-182q-10 0 -10 10zM273 72q163 0 163 142q0 66 -37.5 95t-122.5 29h-106v-266h103zM646 10v635q0 10 10 10h65q10 0 10 -10v-635q0 -10 -10 -10h-65
q-10 0 -10 10z" />
    <glyph glyph-name="uni042C" unicode="&#x42c;" horiz-adv-x="561" 
d="M85 10v635q0 10 10 10h65q10 0 10 -10v-235h110q122 0 181.5 -48.5t59.5 -147.5q0 -104 -62.5 -159t-181.5 -55h-182q-10 0 -10 10zM273 72q163 0 163 142q0 66 -37.5 95t-122.5 29h-106v-266h103z" />
    <glyph glyph-name="uni042D" unicode="&#x42d;" horiz-adv-x="604" 
d="M115.5 25q-52.5 37 -52.5 117q0 16 2.5 22.5t7.5 6.5h65q5 0 7 -4.5t2 -15.5q0 -47 33.5 -67.5t109.5 -20.5q85 0 120.5 26.5t35.5 90.5v115h-270q-10 0 -10 10v56q0 10 10 10h270v106q0 63 -33.5 89t-114.5 26q-74 0 -108 -21t-34 -68q0 -11 -2 -15.5t-7 -4.5h-65
q-5 0 -7 4.5t-4 16.5l-1 15q0 71 61 109.5t174 38.5q119 0 172.5 -47.5t53.5 -154.5v-275q0 -107 -58 -154.5t-190 -47.5q-115 0 -167.5 37z" />
    <glyph glyph-name="uni042E" unicode="&#x42e;" horiz-adv-x="871" 
d="M737.5 605.5q60.5 -61.5 60.5 -173.5v-209q0 -112 -60.5 -173.5t-174.5 -61.5t-174.5 61.5t-60.5 173.5v78h-158v-291q0 -10 -10 -10h-65q-10 0 -10 10v635q0 10 10 10h65q10 0 10 -10v-270h158v57q0 112 60.5 173.5t174.5 61.5t174.5 -61.5zM713 433q0 77 -38.5 118
t-111.5 41t-111.5 -41t-38.5 -118v-211q0 -77 38.5 -118t111.5 -41t111.5 41t38.5 118v211z" />
    <glyph glyph-name="uni042F" unicode="&#x42f;" horiz-adv-x="608" 
d="M36 3.5q-2 3.5 1 8.5l99 176q34 62 60 103v2q-58 19 -87.5 62.5t-29.5 110.5q0 94 59 141.5t175 47.5h200q10 0 10 -10v-635q0 -10 -10 -10h-65q-10 0 -10 10v269h-158l-149 -272q-3 -7 -12 -7h-75q-6 0 -8 3.5zM438 347v236h-122q-79 0 -115.5 -30t-36.5 -95
q0 -42 15 -66t48.5 -34.5t92.5 -10.5h118z" />
    <glyph glyph-name="uni0430" unicode="&#x430;" horiz-adv-x="494" 
d="M426 9q0 -9 -10 -9h-58q-5 0 -7.5 3.5t-4.5 10.5q-5 21 -8 64q-47 -48 -87 -69t-84 -21q-59 0 -89 35t-30 102q0 53 20.5 85.5t65.5 50t122 24.5l78 7v41q0 50 -20.5 71t-69.5 21q-90 0 -90 -62q0 -10 -9 -10h-66q-6 0 -8.5 6.5t-2.5 22.5q0 53 49 85.5t130 32.5
q87 0 129.5 -41t42.5 -124v-214q0 -63 7 -110v-2zM252.5 82q32.5 19 81.5 68v77l-80 -7q-69 -6 -95 -25t-26 -64q0 -68 56 -68q31 0 63.5 19z" />
    <glyph glyph-name="uni0431" unicode="&#x431;" horiz-adv-x="545" 
d="M438.5 423.5q41.5 -42.5 41.5 -124.5v-117q0 -96 -51.5 -145t-152.5 -49t-151 48t-50 146v232q0 86 26.5 136t75.5 76q25 13 51.5 21t63.5 17q42 10 66 18t44 21l5 2q6 0 8 -8l17 -58l1 -4q0 -4 -5 -9q-16 -12 -38.5 -19t-59.5 -15q-64 -11 -103 -29q-67 -31 -67 -126
v-50q66 79 164 79q73 0 114.5 -42.5zM395 287q0 104 -88 104q-40 0 -79 -22.5t-68 -60.5v-118q0 -66 27.5 -96.5t90.5 -30.5q62 0 89.5 31.5t27.5 95.5v97z" />
    <glyph glyph-name="uni0432" unicode="&#x432;" horiz-adv-x="540" 
d="M75 182v338q0 86 49.5 130.5t145.5 44.5q172 0 172 -146q0 -53 -22 -93.5t-60 -56.5v-1q61 -9 88 -49t27 -109v-50q0 -98 -53 -150t-154 -52q-193 0 -193 194zM241 403q57 12 87 41.5t30 84.5q0 48 -23 70.5t-71 22.5q-51 0 -77.5 -25t-26.5 -73v-138zM360.5 95
q29.5 32 29.5 98v53q0 50 -22.5 73t-70.5 23q-58 0 -137 -24v-128q0 -67 26 -97t84 -30q61 0 90.5 32z" />
    <glyph glyph-name="uni0433" unicode="&#x433;" horiz-adv-x="477" 
d="M94.5 16.5q-43.5 28.5 -43.5 98.5q0 54 25.5 88t81.5 55l113 42q36 13 49 29t13 43q0 29 -21 41.5t-68 12.5q-99 0 -99 -58q0 -15 -9 -15h-66q-9 0 -11 15q-6 58 43 95t141 37q85 0 130 -32t45 -97q0 -52 -24.5 -83.5t-81.5 -52.5l-116 -42q-33 -12 -46.5 -29t-13.5 -46
q0 -32 21 -44.5t69 -12.5q58 0 86.5 16t28.5 49q0 8 2 11.5t6 3.5h66q7 0 9 -4t2 -20q0 -61 -48 -95t-149 -34q-91 0 -134.5 28.5z" />
    <glyph glyph-name="uni0434" unicode="&#x434;" horiz-adv-x="539" 
d="M130 -164q-50 33 -50 84q0 25 12 25h66q9 0 9 -14q0 -26 25.5 -40t71.5 -14q61 0 88 25.5t27 83.5v30q0 46 1 69h-1q-43 -37 -82 -54t-84 -17q-151 0 -151 186v97q0 102 49.5 152.5t150.5 50.5q27 0 54.5 -3.5t53.5 -8.5q63 -11 94 -13v-484q0 -91 -52 -139.5t-149 -48.5
q-83 0 -133 33zM298 106q33 17 81 58v250q-24 5 -55.5 8t-54.5 3q-65 0 -93.5 -32t-28.5 -104v-84q0 -61 20 -88.5t64 -27.5q34 0 67 17z" />
    <glyph glyph-name="uni0435" unicode="&#x435;" horiz-adv-x="519" 
d="M113 33q-51 45 -51 133v140q0 94 51 144t148 50t147.5 -48.5t50.5 -140.5v-78q0 -10 -10 -10h-302v-32q0 -68 28 -98t91 -30q47 0 72.5 15.5t25.5 45.5q0 5 3 8t8 3h65q8 0 10 -9q4 -64 -47 -101t-142 -37q-97 0 -148 45zM374 296v6q0 63 -27.5 93t-84.5 30
q-115 0 -115 -124v-5h227z" />
    <glyph glyph-name="uni0436" unicode="&#x436;" horiz-adv-x="699" 
d="M683 7q0 -7 -9 -7h-76q-8 0 -12 6l-126 221h-68v-217q0 -10 -10 -10h-65q-10 0 -10 10v217h-69l-126 -221q-4 -6 -12 -6h-75q-6 0 -8 3.5t1 8.5l153 259l-136 205q-2 4 -2 6t2 4t6 2h74q9 0 13 -6l114 -187h65v378q0 10 10 10h65q10 0 10 -10v-378h65l114 187q4 6 13 6
h74q6 0 7.5 -3.5t-1.5 -8.5l-136 -205l153 -259z" />
    <glyph glyph-name="uni0437" unicode="&#x437;" horiz-adv-x="474" 
d="M82.5 -162.5q-49.5 34.5 -49.5 89.5q0 20 3.5 27t10.5 7h65q9 0 9 -16q0 -32 25 -50t71 -18q57 0 86.5 26.5t29.5 76.5v63q0 46 -30 68t-92 22h-78q-10 0 -10 10v53q0 10 10 10h71q52 0 83 28.5t31 77.5v22q0 93 -101 93q-43 0 -66 -15.5t-23 -43.5q0 -15 -9 -15h-66
q-13 0 -13 27q0 53 51.5 86.5t136.5 33.5t128 -38t43 -113v-38q0 -44 -22 -79t-62 -54v-1q51 -12 76.5 -47t25.5 -85v-54q0 -90 -52.5 -139t-149.5 -49q-83 0 -132.5 34.5z" />
    <glyph glyph-name="uni0438" unicode="&#x438;" horiz-adv-x="542" 
d="M474 8q0 -8 -11 -8h-56q-11 0 -12 10q-6 42 -7 67q-94 -89 -181 -89q-64 0 -98 43t-34 124v323q0 10 10 10h65q10 0 10 -10v-319q0 -49 17.5 -72.5t54.5 -23.5q34 0 68 19.5t82 65.5v330q0 10 10 10h65q10 0 10 -10v-356q0 -70 7 -112v-2z" />
    <glyph glyph-name="uni0439" unicode="&#x439;" horiz-adv-x="542" 
d="M474 8q0 -8 -11 -8h-56q-11 0 -12 10q-6 42 -7 67q-94 -89 -181 -89q-64 0 -98 43t-34 124v323q0 10 10 10h65q10 0 10 -10v-319q0 -49 17.5 -72.5t54.5 -23.5q34 0 68 19.5t82 65.5v330q0 10 10 10h65q10 0 10 -10v-356q0 -70 7 -112v-2zM197 571.5q-29 15.5 -46 33.5
q-4 4 -4 12v54q0 6 3 8t8 -2q19 -19 48 -34.5t65 -15.5t65 15.5t48 34.5q3 3 6 3q5 0 5 -9v-54q0 -8 -4 -12q-49 -49 -120 -49q-45 0 -74 15.5z" />
    <glyph glyph-name="uni043A" unicode="&#x43a;" horiz-adv-x="484" 
d="M481 7q0 -7 -9 -7h-78q-8 0 -12 6l-150 221h-72v-217q0 -10 -10 -10h-65q-10 0 -10 10v663q0 10 10 10h65q10 0 10 -10v-378h69l139 187q5 6 13 6h75q6 0 8 -4t-2 -8l-158 -206l175 -258z" />
    <glyph glyph-name="uni043B" unicode="&#x43b;" horiz-adv-x="455" 
d="M6 3.5q-2 3.5 0 8.5l170 462q3 8 6.5 11t10.5 3h69q7 0 10.5 -3t6.5 -11l170 -462q1 -2 1 -5q0 -7 -8 -7h-69q-8 0 -11 8l-93 269q-3 10 -7.5 21t-8.5 25q-13 32 -24 68h-2q-10 -32 -40 -116l-94 -267q-3 -8 -11 -8h-69q-5 0 -7 3.5z" />
    <glyph glyph-name="uni043C" unicode="&#x43c;" horiz-adv-x="626" 
d="M66 10l8 468q0 10 10 10h71q7 0 11 -8l147 -288l147 288q4 8 11 8h71q10 0 10 -10l8 -468q0 -10 -10 -10h-62q-10 0 -10 10l-2 240q0 43 6 115h-3q-24 -57 -40 -86l-118 -213q-3 -4 -8 -4t-8 4l-118 213q-16 29 -40 86h-3q6 -72 6 -115l-2 -240q0 -10 -10 -10h-62
q-10 0 -10 10z" />
    <glyph glyph-name="uni043D" unicode="&#x43d;" horiz-adv-x="544" 
d="M469 478v-468q0 -10 -10 -10h-65q-10 0 -10 10v203h-224v-203q0 -10 -10 -10h-65q-10 0 -10 10v468q0 10 10 10h65q10 0 10 -10v-192h224v192q0 10 10 10h65q10 0 10 -10z" />
    <glyph glyph-name="uni043E" unicode="&#x43e;" horiz-adv-x="536" 
d="M62 186v116q0 198 206 198q101 0 153.5 -49.5t52.5 -148.5v-116q0 -198 -206 -198t-206 198zM360 95q29 32 29 99v100q0 67 -29 99t-92 32t-92 -32t-29 -99v-100q0 -67 29 -99t92 -32t92 32z" />
    <glyph glyph-name="uni043F" unicode="&#x43f;" horiz-adv-x="556" 
d="M443 457.5q38 -42.5 38 -124.5v-323q0 -10 -10 -10h-65q-10 0 -10 10v319q0 49 -20 72.5t-62 23.5q-36 0 -70.5 -19t-83.5 -66v-330q0 -10 -10 -10h-65q-10 0 -10 10v356q0 53 -7 109v3q0 10 10 10h61q5 0 7 -2t4 -8q4 -16 8 -63q46 45 86.5 65t88.5 20q72 0 110 -42.5z
" />
    <glyph glyph-name="uni0440" unicode="&#x440;" horiz-adv-x="537" 
d="M473 314v-125q0 -97 -46 -149t-133 -52q-35 0 -72 8t-62 22v-193q0 -10 -10 -10h-65q-10 0 -10 10v550q0 50 -7 101v2q0 10 10 10h61q10 0 11 -10q6 -31 7 -52q45 39 83.5 56.5t82.5 17.5q150 0 150 -186zM388 309q0 59 -20.5 87.5t-62.5 28.5q-32 0 -64 -17t-81 -59
v-259q26 -13 57 -20t59 -7q57 0 84.5 33.5t27.5 102.5v110z" />
    <glyph glyph-name="uni0441" unicode="&#x441;" horiz-adv-x="517" 
d="M114 38q-52 50 -52 144v124q0 94 53 144t153 50q87 0 138 -39t51 -103q0 -13 -2.5 -18t-7.5 -5h-66q-9 0 -9 16q0 34 -28 54t-76 20q-61 0 -91 -31t-30 -96v-108q0 -127 120 -127q47 0 75.5 20.5t28.5 52.5q0 16 9 16h66q10 0 10 -9q0 -72 -49.5 -113.5t-140.5 -41.5
q-100 0 -152 50z" />
    <glyph glyph-name="uni0442" unicode="&#x442;" horiz-adv-x="845" 
d="M75 10v356q0 65 -7 110v2q0 10 11 10h60q5 0 7 -1.5t3 -5.5q8 -51 9 -67q46 46 85.5 66t85.5 20q101 0 127 -93q49 50 90 71.5t88 21.5q67 0 101.5 -42t34.5 -124v-324q0 -10 -10 -10h-65q-10 0 -10 10v319q0 96 -72 96q-33 0 -67.5 -20t-80.5 -65v-330q0 -10 -10 -10
h-65q-10 0 -10 10v319q0 96 -72 96q-33 0 -67.5 -20t-80.5 -65v-330q0 -10 -10 -10h-65q-10 0 -10 10z" />
    <glyph glyph-name="uni0443" unicode="&#x443;" horiz-adv-x="497" 
d="M138 -181.5q-2 3.5 0 8.5l71 179l-185 470q-1 2 -1 5q0 7 8 7h71q8 0 11 -8l90 -242q11 -28 31 -86l15 -43h1l47 129l90 242q3 8 12 8h67q5 0 7.5 -3.5t0.5 -8.5l-253 -653q-3 -8 -11 -8h-65q-5 0 -7 3.5z" />
    <glyph glyph-name="uni0444" unicode="&#x444;" horiz-adv-x="701" 
d="M639 308v-128q0 -192 -228 -192h-18v-163q0 -10 -10 -10h-65q-10 0 -10 10v163h-18q-228 0 -228 192v128q0 192 228 192h18v174q0 10 10 10h65q10 0 10 -10v-174h18q228 0 228 -192zM308 61v366h-26q-135 0 -135 -127v-112q0 -127 135 -127h26zM554 300q0 127 -135 127
h-26v-366h26q135 0 135 127v112z" />
    <glyph glyph-name="uni0445" unicode="&#x445;" horiz-adv-x="477" 
d="M10 4q-2 4 2 8l173 239l-161 225q-2 2 -2 6q0 2 2 4t6 2h78q8 0 12 -6l70 -101q17 -24 48 -72h1q37 54 54 78l67 95q4 6 12 6h73q6 0 8 -3.5t-2 -8.5l-161 -222l175 -242q2 -2 2 -6q0 -2 -2 -4t-6 -2h-78q-8 0 -12 6l-67 94l-65 94h-1q-30 -47 -51 -76l-12 -18l-66 -94
q-4 -6 -12 -6h-77q-6 0 -8 4z" />
    <glyph glyph-name="uni0446" unicode="&#x446;" horiz-adv-x="547" 
d="M537 63v-173q0 -10 -10 -10h-59q-10 0 -10 10v110h-51q-11 0 -12 10q-6 42 -7 67q-94 -89 -181 -89q-64 0 -98 43t-34 124v323q0 10 10 10h65q10 0 10 -10v-319q0 -49 17.5 -72.5t54.5 -23.5q34 0 68 19.5t82 65.5v330q0 10 10 10h65q10 0 10 -10v-356q0 -32 1 -49h59
q10 0 10 -10z" />
    <glyph glyph-name="uni0447" unicode="&#x447;" horiz-adv-x="522" 
d="M362 10v204q-40 -36 -83 -56t-83 -20q-66 0 -101 42t-35 121v177q0 10 10 10h65q10 0 10 -10v-163q0 -104 69 -104q70 0 148 81v186q0 10 10 10h65q10 0 10 -10v-468q0 -10 -10 -10h-65q-10 0 -10 10z" />
    <glyph glyph-name="uni0448" unicode="&#x448;" horiz-adv-x="833" 
d="M109 30.5q-34 42.5 -34 123.5v324q0 10 10 10h65q10 0 10 -10v-319q0 -96 69 -96q30 0 64.5 20t80.5 65v330q0 10 10 10h65q10 0 10 -10v-319q0 -96 69 -96q30 0 64.5 20t80.5 65v330q0 10 10 10h65q10 0 10 -10v-356q0 -65 7 -110v-2q0 -10 -11 -10h-60q-5 0 -7 1.5
t-3 5.5q-8 51 -9 67q-45 -45 -84.5 -65.5t-83.5 -20.5q-98 0 -124 93q-49 -49 -89.5 -71t-85.5 -22q-65 0 -99 42.5z" />
    <glyph glyph-name="uni0449" unicode="&#x449;" horiz-adv-x="839" 
d="M829 63v-173q0 -10 -10 -10h-59q-10 0 -10 10v110h-56q-5 0 -7 1.5t-3 5.5q-8 51 -9 67q-45 -45 -84.5 -65.5t-83.5 -20.5q-98 0 -124 93q-49 -49 -89.5 -71t-85.5 -22q-65 0 -99 42.5t-34 123.5v324q0 10 10 10h65q10 0 10 -10v-319q0 -96 69 -96q30 0 64.5 20t80.5 65
v330q0 10 10 10h65q10 0 10 -10v-319q0 -96 69 -96q30 0 64.5 20t80.5 65v330q0 10 10 10h65q10 0 10 -10v-356q0 -32 1 -49h60q10 0 10 -10z" />
    <glyph glyph-name="uni044A" unicode="&#x44a;" horiz-adv-x="582" 
d="M490.5 324q36.5 -39 36.5 -115v-43q0 -87 -51 -132.5t-148 -45.5q-95 0 -137.5 43.5t-42.5 139.5v244h-118q-10 0 -10 10v53q0 10 10 10h193q10 0 10 -10v-185q33 35 70 52.5t82 17.5q69 0 105.5 -39zM440 206q0 40 -20 61t-58 21q-72 0 -129 -75v-56q0 -98 101 -98
q50 0 78 25.5t28 72.5v49z" />
    <glyph glyph-name="uni044B" unicode="&#x44b;" horiz-adv-x="717" 
d="M417.5 324q36.5 -39 36.5 -115v-43q0 -87 -51 -132.5t-148 -45.5q-95 0 -137.5 43.5t-42.5 139.5v307q0 10 10 10h65q10 0 10 -10v-185q33 35 70 52.5t82 17.5q69 0 105.5 -39zM367 206q0 40 -20 61t-58 21q-72 0 -129 -75v-56q0 -98 101 -98q50 0 78 25.5t28 72.5v49z
M557 10v468q0 10 10 10h65q10 0 10 -10v-468q0 -10 -10 -10h-65q-10 0 -10 10z" />
    <glyph glyph-name="uni044C" unicode="&#x44c;" horiz-adv-x="509" 
d="M417.5 324q36.5 -39 36.5 -115v-43q0 -87 -51 -132.5t-148 -45.5q-95 0 -137.5 43.5t-42.5 139.5v307q0 10 10 10h65q10 0 10 -10v-185q33 35 70 52.5t82 17.5q69 0 105.5 -39zM367 206q0 40 -20 61t-58 21q-72 0 -129 -75v-56q0 -98 101 -98q50 0 78 25.5t28 72.5v49z
" />
    <glyph glyph-name="uni044D" unicode="&#x44d;" horiz-adv-x="509" 
d="M103 21q-52 33 -52 87q0 27 12 27h66q9 0 9 -15q0 -28 27 -42.5t78 -14.5q62 0 90.5 23t28.5 74v53h-214q-10 0 -10 10v50q0 10 10 10h214v48q0 47 -28.5 70.5t-86.5 23.5q-47 0 -74 -15t-27 -41q0 -14 -9 -14h-66q-7 0 -9.5 5.5t-2.5 21.5q0 54 52 86t142 32
q194 0 194 -172v-158q0 -92 -50 -137t-151 -45q-91 0 -143 33z" />
    <glyph glyph-name="uni044E" unicode="&#x44e;" horiz-adv-x="730" 
d="M617 451q51 -49 51 -145v-124q0 -96 -51 -145t-148 -49q-98 0 -148.5 49t-50.5 145v31h-110v-203q0 -10 -10 -10h-65q-10 0 -10 10v663q0 10 10 10h65q10 0 10 -10v-387h110v20q0 96 51 145t148 49t148 -49zM583 298q0 127 -114 127t-114 -127v-108q0 -127 114 -127
t114 127v108z" />
    <glyph glyph-name="uni044F" unicode="&#x44f;" horiz-adv-x="506" 
d="M37 3.5q-2 3.5 1 8.5l69 108q38 59 50 76v1q-99 28 -99 136q0 77 46.5 116t133.5 39h183q10 0 10 -10v-468q0 -10 -10 -10h-65q-10 0 -10 10v174h-104l-109 -177q-4 -7 -13 -7h-75q-6 0 -8 3.5zM346 256v159h-109q-52 0 -73 -20.5t-21 -60.5q0 -43 26 -60.5t83 -17.5h94z
" />
    <glyph glyph-name="uni0450" unicode="&#x450;" horiz-adv-x="519" 
d="M113 33q-51 45 -51 133v140q0 94 51 144t148 50t147.5 -48.5t50.5 -140.5v-78q0 -10 -10 -10h-302v-32q0 -68 28 -98t91 -30q47 0 72.5 15.5t25.5 45.5q0 5 3 8t8 3h65q8 0 10 -9q4 -64 -47 -101t-142 -37q-97 0 -148 45zM374 296v6q0 63 -27.5 93t-84.5 30
q-115 0 -115 -124v-5h227zM243 574l-83 122l-2 5q0 6 7 6h70q8 0 12 -7l66 -122q1 -2 1 -5q0 -5 -6 -5h-54q-7 0 -11 6z" />
    <glyph glyph-name="uni0451" unicode="&#x451;" horiz-adv-x="519" 
d="M113 33q-51 45 -51 133v140q0 94 51 144t148 50t147.5 -48.5t50.5 -140.5v-78q0 -10 -10 -10h-302v-32q0 -68 28 -98t91 -30q47 0 72.5 15.5t25.5 45.5q0 5 3 8t8 3h65q8 0 10 -9q4 -64 -47 -101t-142 -37q-97 0 -148 45zM374 296v6q0 63 -27.5 93t-84.5 30
q-115 0 -115 -124v-5h227zM133.5 595.5q-12.5 13.5 -12.5 37.5v10q0 24 12.5 37.5t39.5 13.5t39.5 -13.5t12.5 -37.5v-10q0 -24 -12.5 -37.5t-39.5 -13.5t-39.5 13.5zM302.5 595.5q-12.5 13.5 -12.5 37.5v10q0 24 12.5 37.5t39.5 13.5t39.5 -13.5t12.5 -37.5v-10
q0 -24 -12.5 -37.5t-39.5 -13.5t-39.5 13.5z" />
    <glyph glyph-name="uni0452" unicode="&#x452;" horiz-adv-x="557" 
d="M357 -192q-3 0 -8 5l-39 49q-2 2 -2 6q0 5 5 8q83 55 83 188v265q0 96 -81 96q-37 0 -74.5 -20.5t-80.5 -64.5v-330q0 -10 -10 -10h-65q-10 0 -10 10v543h-71q-10 0 -10 10v50q0 10 10 10h71v50q0 10 10 10h65q10 0 10 -10v-50h107q10 0 10 -10v-50q0 -10 -10 -10h-107
v-136q44 44 85.5 63.5t88.5 19.5q72 0 109.5 -42.5t37.5 -124.5v-274q0 -90 -28.5 -151.5t-89.5 -97.5q-4 -2 -6 -2z" />
    <glyph glyph-name="uni0453" unicode="&#x453;" horiz-adv-x="477" 
d="M94.5 16.5q-43.5 28.5 -43.5 98.5q0 54 25.5 88t81.5 55l113 42q36 13 49 29t13 43q0 29 -21 41.5t-68 12.5q-99 0 -99 -58q0 -15 -9 -15h-66q-9 0 -11 15q-6 58 43 95t141 37q85 0 130 -32t45 -97q0 -52 -24.5 -83.5t-81.5 -52.5l-116 -42q-33 -12 -46.5 -29t-13.5 -46
q0 -32 21 -44.5t69 -12.5q58 0 86.5 16t28.5 49q0 8 2 11.5t6 3.5h66q7 0 9 -4t2 -20q0 -61 -48 -95t-149 -34q-91 0 -134.5 28.5zM182 559q-1 3 1 7l66 122q3 7 12 7h70q5 0 6.5 -3.5t-1.5 -7.5l-83 -122q-4 -6 -11 -6h-54q-5 0 -6 3z" />
    <glyph glyph-name="uni0454" unicode="&#x454;" horiz-adv-x="518" 
d="M112 33q-50 45 -50 137v158q0 172 194 172q91 0 142.5 -32t51.5 -87q0 -14 -3 -20t-9 -6h-66q-5 0 -7 3t-2 11q0 26 -27 41t-74 15q-58 0 -86.5 -23.5t-28.5 -70.5v-48h214q10 0 10 -10v-50q0 -10 -10 -10h-214v-53q0 -51 28.5 -74t90.5 -23q51 0 78 14.5t27 42.5
q0 8 2 11.5t7 3.5h66q7 0 9.5 -6t2.5 -22q0 -54 -52 -86.5t-143 -32.5q-101 0 -151 45z" />
    <glyph glyph-name="uni0455" unicode="&#x455;" horiz-adv-x="464" 
d="M53 146q0 9 10 9h66q9 0 9 -8q0 -45 22.5 -65t73.5 -20q49 0 74 16t25 48q0 22 -14 38t-44 29l-114 47q-55 23 -78 52t-23 75q0 133 167 133q85 0 132 -36t47 -100q0 -9 -10 -9h-66q-10 0 -10 16q0 26 -24 40.5t-66 14.5q-43 0 -64 -14.5t-21 -44.5q0 -22 11 -33t47 -26
l114 -48q54 -23 77.5 -53t23.5 -76q0 -69 -48 -106t-137 -37q-180 0 -180 158z" />
    <glyph glyph-name="uni0456" unicode="&#x456;" horiz-adv-x="235" 
d="M75 10v468q0 10 10 10h65q10 0 10 -10v-468q0 -10 -10 -10h-65q-10 0 -10 10zM76.5 585q-13.5 15 -13.5 40v10q0 25 13.5 40t41.5 15t41.5 -15t13.5 -40v-10q0 -25 -13.5 -40t-41.5 -15t-41.5 15z" />
    <glyph glyph-name="uni0457" unicode="&#x457;" horiz-adv-x="235" 
d="M75 10v468q0 10 10 10h65q10 0 10 -10v-468q0 -10 -10 -10h-65q-10 0 -10 10zM-6.5 583.5q-12.5 13.5 -12.5 37.5v10q0 24 12.5 37.5t39.5 13.5t39.5 -13.5t12.5 -37.5v-10q0 -24 -12.5 -37.5t-39.5 -13.5t-39.5 13.5zM162.5 583.5q-12.5 13.5 -12.5 37.5v10
q0 24 12.5 37.5t39.5 13.5t39.5 -13.5t12.5 -37.5v-10q0 -24 -12.5 -37.5t-39.5 -13.5t-39.5 13.5z" />
    <glyph glyph-name="uni0458" unicode="&#x458;" horiz-adv-x="236" 
d="M36 -192q-3 0 -8 5l-39 49q-2 2 -2 6q0 5 5 8q83 57 83 188v414q0 10 10 10h65q10 0 10 -10v-419q0 -90 -28.5 -151.5t-89.5 -97.5q-4 -2 -6 -2zM76.5 585q-13.5 15 -13.5 40v10q0 25 13.5 40t41.5 15t41.5 -15t13.5 -40v-10q0 -25 -13.5 -40t-41.5 -15t-41.5 15z" />
    <glyph glyph-name="uni0459" unicode="&#x459;" horiz-adv-x="738" 
d="M388 14q-37 26 -60 90l-60 173l-13 38q-15 42 -26 76h-2q-16 -51 -39 -116l-94 -267q-3 -8 -11 -8h-70q-5 0 -7 3.5t0 8.5l169 462q3 8 6.5 11t10.5 3h72q7 0 10.5 -3t6.5 -11l77 -212q77 101 183 101q69 0 105.5 -40t36.5 -114v-43q0 -87 -49 -132.5t-139 -45.5
q-70 0 -107 26zM569.5 84.5q26.5 25.5 26.5 72.5v49q0 40 -19.5 61t-57.5 21t-73.5 -22.5t-64.5 -66.5l24 -66q17 -45 35.5 -59.5t55.5 -14.5q47 0 73.5 25.5z" />
    <glyph glyph-name="uni045A" unicode="&#x45a;" horiz-adv-x="818" 
d="M726.5 324q36.5 -39 36.5 -115v-43q0 -87 -51 -132.5t-148 -45.5q-95 0 -137.5 43.5t-42.5 139.5v42h-224v-203q0 -10 -10 -10h-65q-10 0 -10 10v468q0 10 10 10h65q10 0 10 -10v-192h224v192q0 10 10 10h65q10 0 10 -10v-185q33 35 70 52.5t82 17.5q69 0 105.5 -39z
M676 206q0 40 -20 61t-58 21q-72 0 -129 -75v-56q0 -98 101 -98q50 0 78 25.5t28 72.5v49z" />
    <glyph glyph-name="uni045B" unicode="&#x45b;" horiz-adv-x="556" 
d="M443.5 457.5q37.5 -42.5 37.5 -124.5v-323q0 -10 -10 -10h-65q-10 0 -10 10v319q0 96 -81 96q-37 0 -74.5 -20.5t-80.5 -64.5v-330q0 -10 -10 -10h-65q-10 0 -10 10v543h-71q-10 0 -10 10v50q0 10 10 10h71v50q0 10 10 10h65q10 0 10 -10v-50h105q10 0 10 -10v-50
q0 -10 -10 -10h-105v-137q44 44 85.5 64t88.5 20q72 0 109.5 -42.5z" />
    <glyph glyph-name="uni045C" unicode="&#x45c;" horiz-adv-x="484" 
d="M481 7q0 -7 -9 -7h-78q-8 0 -12 6l-150 221h-72v-217q0 -10 -10 -10h-65q-10 0 -10 10v663q0 10 10 10h65q10 0 10 -10v-378h69l139 187q5 6 13 6h75q6 0 8 -4t-2 -8l-158 -206l175 -258zM220 559q-1 3 1 7l66 122q3 7 12 7h70q5 0 6.5 -3.5t-1.5 -7.5l-83 -122
q-4 -6 -11 -6h-54q-5 0 -6 3z" />
    <glyph glyph-name="uni045D" unicode="&#x45d;" horiz-adv-x="542" 
d="M474 8q0 -8 -11 -8h-56q-11 0 -12 10q-6 42 -7 67q-94 -89 -181 -89q-64 0 -98 43t-34 124v323q0 10 10 10h65q10 0 10 -10v-319q0 -49 17.5 -72.5t54.5 -23.5q34 0 68 19.5t82 65.5v330q0 10 10 10h65q10 0 10 -10v-356q0 -70 7 -112v-2zM256 562l-83 122l-2 5q0 6 7 6
h70q8 0 12 -7l66 -122q1 -2 1 -5q0 -5 -6 -5h-54q-7 0 -11 6z" />
    <glyph glyph-name="uni045E" unicode="&#x45e;" horiz-adv-x="497" 
d="M138 -181.5q-2 3.5 0 8.5l71 179l-185 470q-1 2 -1 5q0 7 8 7h71q8 0 11 -8l90 -242q11 -28 31 -86l15 -43h1l47 129l90 242q3 8 12 8h67q5 0 7.5 -3.5t0.5 -8.5l-253 -653q-3 -8 -11 -8h-65q-5 0 -7 3.5zM172 571.5q-29 15.5 -46 33.5q-4 4 -4 12v54q0 6 3 8t8 -2
q19 -19 48 -34.5t65 -15.5t65 15.5t48 34.5q3 3 6 3q5 0 5 -9v-54q0 -8 -4 -12q-49 -49 -120 -49q-45 0 -74 15.5z" />
    <glyph glyph-name="uni045F" unicode="&#x45f;" horiz-adv-x="542" 
d="M474 8q0 -8 -11 -8h-56q-11 0 -12 10q-6 42 -7 67q-49 -47 -97 -70v-117q0 -10 -10 -10h-59q-10 0 -10 10v98h-5q-64 0 -98 43t-34 124v323q0 10 10 10h65q10 0 10 -10v-319q0 -49 17.5 -72.5t54.5 -23.5q34 0 68 19.5t82 65.5v330q0 10 10 10h65q10 0 10 -10v-356
q0 -70 7 -112v-2z" />
    <glyph glyph-name="uni0490" unicode="&#x490;" horiz-adv-x="475" 
d="M445 781v-193q0 -10 -10 -10h-265v-568q0 -10 -10 -10h-65q-10 0 -10 10v635q0 10 10 10h268v126q0 10 10 10h62q10 0 10 -10z" />
    <glyph glyph-name="uni0491" unicode="&#x491;" horiz-adv-x="417" 
d="M52.5 -9.5q-14.5 2.5 -34.5 10.5q-8 3 -8 11v55q0 5 3.5 7t8.5 0q29 -12 52 -12q17 0 24.5 12.5t10.5 52.5l12 181q6 97 41.5 142.5t115.5 45.5q61 0 73 36q3 11 3 24v16q0 8 11 8h55q7 0 7 -12q0 -73 -24 -102q-17 -21 -41.5 -32t-71.5 -12q-43 -1 -61 -26.5t-23 -89.5
l-12 -161q-6 -85 -31.5 -121t-76.5 -36q-19 0 -33.5 2.5z" />
    <glyph glyph-name="uni04C0" unicode="&#x4c0;" horiz-adv-x="255" 
d="M85 10v635q0 10 10 10h65q10 0 10 -10v-635q0 -10 -10 -10h-65q-10 0 -10 10z" />
    <glyph glyph-name="uni04CF" unicode="&#x4cf;" horiz-adv-x="235" 
d="M75 10v663q0 10 10 10h65q10 0 10 -10v-663q0 -10 -10 -10h-65q-10 0 -10 10z" />
    <glyph glyph-name="uni04E2" unicode="&#x4e2;" horiz-adv-x="658" 
d="M85 10v635q0 10 10 10h63q10 0 10 -10v-312q0 -92 -5 -192l-1 -26h2l15 27q38 71 110 191l189 315q5 7 12 7h73q10 0 10 -10v-635q0 -10 -10 -10h-63q-10 0 -10 10v300q0 126 7 231h-2l-13 -24q-51 -92 -120 -207l-182 -303q-5 -7 -12 -7h-73q-10 0 -10 10zM211 727v52
q0 10 10 10h215q10 0 10 -10v-52q0 -10 -10 -10h-215q-10 0 -10 10z" />
    <glyph glyph-name="uni04E3" unicode="&#x4e3;" horiz-adv-x="542" 
d="M474 8q0 -8 -11 -8h-56q-11 0 -12 10q-6 42 -7 67q-94 -89 -181 -89q-64 0 -98 43t-34 124v323q0 10 10 10h65q10 0 10 -10v-319q0 -49 17.5 -72.5t54.5 -23.5q34 0 68 19.5t82 65.5v330q0 10 10 10h65q10 0 10 -10v-356q0 -70 7 -112v-2zM163 580v52q0 10 10 10h195
q10 0 10 -10v-52q0 -10 -10 -10h-195q-10 0 -10 10z" />
    <glyph glyph-name="uni04EE" unicode="&#x4ee;" horiz-adv-x="547" 
d="M130 3.5q-2 3.5 0 8.5l108 218l-212 413q-1 2 -1 5q0 7 8 7h74q9 0 12 -7l116 -236q35 -71 46 -95h2q10 24 46 95l117 236q3 7 12 7h71q5 0 7 -3.5t0 -8.5l-322 -636q-3 -7 -12 -7h-65q-5 0 -7 3.5zM163 727v52q0 10 10 10h215q10 0 10 -10v-52q0 -10 -10 -10h-215
q-10 0 -10 10z" />
    <glyph glyph-name="uni04EF" unicode="&#x4ef;" horiz-adv-x="497" 
d="M138 -181.5q-2 3.5 0 8.5l71 179l-185 470q-1 2 -1 5q0 7 8 7h71q8 0 11 -8l90 -242q11 -28 31 -86l15 -43h1l47 129l90 242q3 8 12 8h67q5 0 7.5 -3.5t0.5 -8.5l-253 -653q-3 -8 -11 -8h-65q-5 0 -7 3.5zM138 580v52q0 10 10 10h195q10 0 10 -10v-52q0 -10 -10 -10h-195
q-10 0 -10 10z" />
    <glyph glyph-name="Wgrave" unicode="&#x1e80;" horiz-adv-x="847" 
d="M204 8l-183 636l-1 3q0 8 10 8h66q9 0 11 -8l116 -413l38 -141h1l42 137l84 279l-36 125l-1 3q0 8 10 8h68q9 0 11 -9l113 -415l35 -128h1l36 138l112 416q2 8 11 8h69q5 0 7.5 -3t1.5 -8l-176 -636q-2 -8 -11 -8h-95q-9 0 -11 8l-68 235q-13 44 -37 132h-1l-39 -129
l-71 -238q-3 -8 -11 -8h-91q-9 0 -11 8zM404 716l-72 101q-2 4 -2 6q0 6 7 6h73q6 0 10 -7l56 -102l2 -5q0 -5 -7 -5h-56q-7 0 -11 6z" />
    <glyph glyph-name="wgrave" unicode="&#x1e81;" horiz-adv-x="716" 
d="M171 9l-145 468l-1 4q0 7 9 7h70q8 0 11 -9l79 -276l36 -128h2l40 124l54 167l-30 101l-1 4q0 7 9 7h63q9 0 11 -8l74 -272l32 -123h2l35 126l80 278q3 9 11 9h70q11 0 8 -11l-146 -468q-3 -9 -11 -9h-91q-8 0 -11 8l-31 102q-20 69 -38 144h-2q-14 -53 -42 -141
l-34 -105q-3 -8 -11 -8h-91q-8 0 -11 9zM343 562l-83 122l-2 5q0 6 7 6h70q8 0 12 -7l66 -122q1 -2 1 -5q0 -5 -6 -5h-54q-7 0 -11 6z" />
    <glyph glyph-name="Wacute" unicode="&#x1e82;" horiz-adv-x="847" 
d="M204 8l-183 636l-1 3q0 8 10 8h66q9 0 11 -8l116 -413l38 -141h1l42 137l84 279l-36 125l-1 3q0 8 10 8h68q9 0 11 -9l113 -415l35 -128h1l36 138l112 416q2 8 11 8h69q5 0 7.5 -3t1.5 -8l-176 -636q-2 -8 -11 -8h-95q-9 0 -11 8l-68 235q-13 44 -37 132h-1l-39 -129
l-71 -238q-3 -8 -11 -8h-91q-9 0 -11 8zM372 720l56 102q3 7 10 7h73q5 0 6.5 -3.5t-1.5 -8.5l-72 -101q-4 -6 -11 -6h-56q-10 0 -5 10z" />
    <glyph glyph-name="wacute" unicode="&#x1e83;" horiz-adv-x="716" 
d="M171 9l-145 468l-1 4q0 7 9 7h70q8 0 11 -9l79 -276l36 -128h2l40 124l54 167l-30 101l-1 4q0 7 9 7h63q9 0 11 -8l74 -272l32 -123h2l35 126l80 278q3 9 11 9h70q11 0 8 -11l-146 -468q-3 -9 -11 -9h-91q-8 0 -11 8l-31 102q-20 69 -38 144h-2q-14 -53 -42 -141
l-34 -105q-3 -8 -11 -8h-91q-8 0 -11 9zM301 559q-1 3 1 7l66 122q3 7 12 7h70q5 0 6.5 -3.5t-1.5 -7.5l-83 -122q-4 -6 -11 -6h-54q-5 0 -6 3z" />
    <glyph glyph-name="Wdieresis" unicode="&#x1e84;" horiz-adv-x="847" 
d="M204 8l-183 636l-1 3q0 8 10 8h66q9 0 11 -8l116 -413l38 -141h1l42 137l84 279l-36 125l-1 3q0 8 10 8h68q9 0 11 -9l113 -415l35 -128h1l36 138l112 416q2 8 11 8h69q5 0 7.5 -3t1.5 -8l-176 -636q-2 -8 -11 -8h-95q-9 0 -11 8l-68 235q-13 44 -37 132h-1l-39 -129
l-71 -238q-3 -8 -11 -8h-91q-9 0 -11 8zM300.5 724.5q-12.5 13.5 -12.5 37.5v10q0 24 12.5 37.5t39.5 13.5t39.5 -13.5t12.5 -37.5v-10q0 -24 -12.5 -37.5t-39.5 -13.5t-39.5 13.5zM468.5 724.5q-12.5 13.5 -12.5 37.5v10q0 24 12.5 37.5t39.5 13.5t39.5 -13.5t12.5 -37.5
v-10q0 -24 -12.5 -37.5t-39.5 -13.5t-39.5 13.5z" />
    <glyph glyph-name="wdieresis" unicode="&#x1e85;" horiz-adv-x="716" 
d="M171 9l-145 468l-1 4q0 7 9 7h70q8 0 11 -9l79 -276l36 -128h2l40 124l54 167l-30 101l-1 4q0 7 9 7h63q9 0 11 -8l74 -272l32 -123h2l35 126l80 278q3 9 11 9h70q11 0 8 -11l-146 -468q-3 -9 -11 -9h-91q-8 0 -11 8l-31 102q-20 69 -38 144h-2q-14 -53 -42 -141
l-34 -105q-3 -8 -11 -8h-91q-8 0 -11 9zM233.5 583.5q-12.5 13.5 -12.5 37.5v10q0 24 12.5 37.5t39.5 13.5t39.5 -13.5t12.5 -37.5v-10q0 -24 -12.5 -37.5t-39.5 -13.5t-39.5 13.5zM402.5 583.5q-12.5 13.5 -12.5 37.5v10q0 24 12.5 37.5t39.5 13.5t39.5 -13.5t12.5 -37.5
v-10q0 -24 -12.5 -37.5t-39.5 -13.5t-39.5 13.5z" />
    <glyph glyph-name="uni1E9E" unicode="&#x1e9e;" horiz-adv-x="651" 
d="M270.5 23q-45.5 35 -45.5 93q0 16 3 21t10 5h59q10 0 10 -16q0 -31 22.5 -47.5t66.5 -16.5q63 0 94 33t31 100q0 71 -36.5 101.5t-121.5 30.5h-47q-10 0 -10 10v37q0 6 4 13l120 191h-260v-568q0 -10 -10 -10h-65q-10 0 -10 10v635q0 10 10 10h458q4 0 7 -3t3 -8
q0 -8 -4 -13l-152 -236q199 -12 199 -198q0 -101 -54.5 -155t-156.5 -54q-79 0 -124.5 35z" />
    <glyph glyph-name="Ygrave" unicode="&#x1ef2;" horiz-adv-x="535" 
d="M225 10v215l-214 418q-1 2 -1 5q0 7 8 7h76q9 0 12 -7l110 -226l52 -107h1l53 110l109 223q3 7 12 7h74q5 0 7 -3.5t0 -8.5l-214 -418v-215q0 -10 -10 -10h-65q-10 0 -10 10zM248 716l-72 101q-2 4 -2 6q0 6 7 6h73q6 0 10 -7l56 -102l2 -5q0 -5 -7 -5h-56q-7 0 -11 6z
" />
    <glyph glyph-name="ygrave" unicode="&#x1ef3;" horiz-adv-x="497" 
d="M138 -181.5q-2 3.5 0 8.5l71 179l-185 470q-1 2 -1 5q0 7 8 7h71q8 0 11 -8l90 -242q11 -28 31 -86l15 -43h1l47 129l90 242q3 8 12 8h67q5 0 7.5 -3.5t0.5 -8.5l-253 -653q-3 -8 -11 -8h-65q-5 0 -7 3.5zM231 562l-83 122l-2 5q0 6 7 6h70q8 0 12 -7l66 -122q1 -2 1 -5
q0 -5 -6 -5h-54q-7 0 -11 6z" />
    <glyph glyph-name="uni2007" unicode="&#x2007;" horiz-adv-x="520" 
 />
    <glyph glyph-name="uni2008" unicode="&#x2008;" horiz-adv-x="210" 
 />
    <glyph glyph-name="uni200B" unicode="&#x200b;" horiz-adv-x="10" 
 />
    <glyph glyph-name="endash" unicode="&#x2013;" horiz-adv-x="740" 
d="M70 243v45q0 10 10 10h580q10 0 10 -10v-45q0 -10 -10 -10h-580q-10 0 -10 10z" />
    <glyph glyph-name="emdash" unicode="&#x2014;" horiz-adv-x="880" 
d="M70 243v45q0 10 10 10h720q10 0 10 -10v-45q0 -10 -10 -10h-720q-10 0 -10 10z" />
    <glyph glyph-name="quoteleft" unicode="&#x2018;" horiz-adv-x="232" 
d="M201 642l-50 -211q-2 -9 -10 -9h-76q-6 0 -8 4t0 10l72 212q3 7 9 7h54q12 0 9 -13z" />
    <glyph glyph-name="quoteright" unicode="&#x2019;" horiz-adv-x="232" 
d="M31 435l50 211q2 9 10 9h76q6 0 8 -4t0 -10l-72 -212q-3 -7 -9 -7h-54q-12 0 -9 13z" />
    <glyph glyph-name="quotesinglbase" unicode="&#x201a;" horiz-adv-x="232" 
d="M31 -115l50 211q2 9 10 9h76q6 0 8 -4t0 -10l-72 -212q-3 -7 -9 -7h-54q-12 0 -9 13z" />
    <glyph glyph-name="quotedblleft" unicode="&#x201c;" horiz-adv-x="387" 
d="M201 642l-50 -211q-2 -9 -10 -9h-76q-6 0 -8 4t0 10l72 212q3 7 9 7h54q12 0 9 -13zM356 642l-50 -211q-2 -9 -10 -9h-76q-6 0 -8 4t0 10l72 212q3 7 9 7h54q12 0 9 -13z" />
    <glyph glyph-name="quotedblright" unicode="&#x201d;" horiz-adv-x="387" 
d="M31 435l50 211q2 9 10 9h76q6 0 8 -4t0 -10l-72 -212q-3 -7 -9 -7h-54q-12 0 -9 13zM186 435l50 211q2 9 10 9h76q6 0 8 -4t0 -10l-72 -212q-3 -7 -9 -7h-54q-12 0 -9 13z" />
    <glyph glyph-name="quotedblbase" unicode="&#x201e;" horiz-adv-x="387" 
d="M31 -115l50 211q2 9 10 9h76q6 0 8 -4t0 -10l-72 -212q-3 -7 -9 -7h-54q-12 0 -9 13zM186 -115l50 211q2 9 10 9h76q6 0 8 -4t0 -10l-72 -212q-3 -7 -9 -7h-54q-12 0 -9 13z" />
    <glyph glyph-name="dagger" unicode="&#x2020;" horiz-adv-x="489" 
d="M202 10v398h-172q-10 0 -10 10v60q0 10 10 10h172v157q0 10 10 10h65q10 0 10 -10v-157h172q10 0 10 -10v-60q0 -10 -10 -10h-172v-398q0 -10 -10 -10h-65q-10 0 -10 10z" />
    <glyph glyph-name="daggerdbl" unicode="&#x2021;" horiz-adv-x="509" 
d="M212 10v148h-172q-10 0 -10 10v60q0 10 10 10h172v179h-172q-10 0 -10 10v60q0 10 10 10h172v148q0 10 10 10h65q10 0 10 -10v-148h172q10 0 10 -10v-60q0 -10 -10 -10h-172v-179h172q10 0 10 -10v-60q0 -10 -10 -10h-172v-148q0 -10 -10 -10h-65q-10 0 -10 10z" />
    <glyph glyph-name="bullet" unicode="&#x2022;" horiz-adv-x="297" 
d="M87 187.5q-22 17.5 -22 50.5v45q0 33 22 50.5t61 17.5q40 0 62 -17.5t22 -50.5v-45q0 -33 -22 -50.5t-62 -17.5q-39 0 -61 17.5z" />
    <glyph glyph-name="ellipsis" unicode="&#x2026;" horiz-adv-x="690" 
d="M73.5 3q-13.5 15 -13.5 41v10q0 26 13.5 41t42.5 15t42.5 -15t13.5 -41v-10q0 -26 -13.5 -41t-42.5 -15t-42.5 15zM302.5 3q-13.5 15 -13.5 41v10q0 26 13.5 41t42.5 15t42.5 -15t13.5 -41v-10q0 -26 -13.5 -41t-42.5 -15t-42.5 15zM531.5 3q-13.5 15 -13.5 41v10
q0 26 13.5 41t42.5 15t42.5 -15t13.5 -41v-10q0 -26 -13.5 -41t-42.5 -15t-42.5 15z" />
    <glyph glyph-name="perthousand" unicode="&#x2030;" horiz-adv-x="1353" 
d="M102.5 358.5q-42.5 41.5 -42.5 118.5v30q0 77 43 118.5t126 41.5q84 0 126 -41t42 -119v-30q0 -77 -42.5 -118.5t-125.5 -41.5q-84 0 -126.5 41.5zM239 3.5q-2 3.5 1 8.5l197 329l180 309q5 7 12 7h66q6 0 8 -3.5t-1 -8.5l-186 -310l-191 -328q-5 -7 -12 -7h-66
q-6 0 -8 3.5zM300 403q22 22 22 72v34q0 51 -22 72.5t-71 21.5t-71.5 -22t-22.5 -72v-34q0 -50 22 -72t72 -22q49 0 71 22zM587 29q-42 41 -42 119v30q0 77 42.5 118.5t125.5 41.5q84 0 126.5 -41.5t42.5 -118.5v-30q0 -77 -43 -118.5t-126 -41.5q-84 0 -126 41zM998.5 29.5
q-42.5 41.5 -42.5 118.5v30q0 77 43 118.5t126 41.5q84 0 126 -41t42 -119v-30q0 -77 -42.5 -118.5t-125.5 -41.5q-84 0 -126.5 41.5zM784.5 74q22.5 22 22.5 72v34q0 50 -22 72t-72 22q-49 0 -71 -22t-22 -72v-34q0 -51 22 -72.5t71 -21.5t71.5 22zM1196 74q22 22 22 72v34
q0 51 -22 72.5t-71 21.5t-71.5 -22t-22.5 -72v-34q0 -50 22 -72t72 -22q49 0 71 22z" />
    <glyph glyph-name="guilsinglleft" unicode="&#x2039;" horiz-adv-x="328" 
d="M166 100l-92 156q-2 3 -2 7t2 7l92 156q5 7 12 7h66q5 0 7.5 -3.5t-0.5 -8.5l-86 -158l86 -158l2 -5q0 -3 -2.5 -5t-6.5 -2h-66q-7 0 -12 7z" />
    <glyph glyph-name="guilsinglright" unicode="&#x203a;" horiz-adv-x="328" 
d="M76.5 96.5q-2.5 3.5 0.5 8.5l86 158l-86 158l-2 5q0 3 2.5 5t6.5 2h66q7 0 12 -7l92 -156q2 -3 2 -7t-2 -7l-92 -156q-5 -7 -12 -7h-66q-5 0 -7.5 3.5z" />
    <glyph glyph-name="fraction" unicode="&#x2044;" horiz-adv-x="122" 
d="M-149 -26.5q-2 3.5 0 8.5l185 371l158 325q4 7 12 7h57q5 0 7.5 -3.5t-0.5 -8.5l-174 -348l-169 -348q-3 -7 -12 -7h-57q-5 0 -7 3.5z" />
    <glyph glyph-name="uni2070" unicode="&#x2070;" horiz-adv-x="400" 
d="M86.5 383q-39.5 39 -39.5 109v135q0 70 39.5 109t112.5 39t112.5 -39t39.5 -109v-135q0 -70 -39.5 -109t-112.5 -39t-112.5 39zM259 430q20 20 20 57v145q0 37 -20 57t-60 20t-60 -20t-20 -57v-145q0 -37 20 -57t60 -20t60 20z" />
    <glyph glyph-name="uni2074" unicode="&#x2074;" horiz-adv-x="400" 
d="M244 361v68h-204q-10 0 -10 10v6q0 8 4 16l163 297q3 6 6 8t8 2h55q7 0 9.5 -3.5t-1.5 -9.5l-143 -259h114v129q0 10 10 10h49q10 0 10 -10v-129h42q10 0 10 -10v-47q0 -10 -10 -10h-42v-68q0 -10 -10 -10h-50q-10 0 -10 10z" />
    <glyph glyph-name="uni2075" unicode="&#x2075;" horiz-adv-x="400" 
d="M53 465q0 10 10 10h51q10 0 10 -10q0 -56 63 -56q45 0 65 15.5t20 49.5v18q0 36 -18 52t-62 16q-52 0 -106 -22l-9 -2q-10 0 -9 12l18 210q2 10 10 10h215q10 0 10 -10v-46q0 -10 -10 -10h-160l-6 -86q32 7 61 7q67 0 102.5 -35.5t35.5 -101.5q0 -69 -39.5 -105.5
t-115.5 -36.5q-136 0 -136 121z" />
    <glyph glyph-name="uni2076" unicode="&#x2076;" horiz-adv-x="400" 
d="M89 380.5q-39 36.5 -39 103.5v152q0 66 40.5 102.5t114.5 36.5q64 0 99 -25.5t35 -74.5q0 -10 -10 -10h-51q-10 0 -10 10q0 34 -62 34q-45 0 -64.5 -17t-19.5 -54v-43q49 29 107 29q122 0 122 -126q0 -74 -39 -114t-111 -40q-73 0 -112 36.5zM260 428q20 19 20 55v23
q0 27 -15.5 40t-48.5 13q-51 0 -94 -32v-42q0 -36 20 -56t59 -20t59 19z" />
    <glyph glyph-name="uni2077" unicode="&#x2077;" horiz-adv-x="400" 
d="M104 356q-2 5 0 10l153 335h-141v-45q0 -10 -10 -10h-48q-10 0 -10 10v102q0 10 10 10h286q10 0 10 -10v-6q0 -5 -2 -11l-170 -379q-4 -11 -17 -11h-53q-6 0 -8 5z" />
    <glyph glyph-name="uni2078" unicode="&#x2078;" horiz-adv-x="400" 
d="M83 376q-40 32 -40 92q0 34 15 61.5t42 44.5q-21 13 -30.5 34t-9.5 51q0 56 36 86t104 30t104 -30t36 -86q0 -59 -39 -85q27 -16 41.5 -43.5t14.5 -62.5q0 -61 -39.5 -92.5t-117.5 -31.5q-77 0 -117 32zM269 654v9q0 48 -69 48t-69 -48v-9q0 -24 17.5 -37.5t51.5 -13.5
q69 0 69 51zM265.5 422q20.5 14 20.5 43v10q0 33 -22 50.5t-64 17.5t-63.5 -17.5t-21.5 -50.5v-10q0 -29 20.5 -43t64.5 -14q45 0 65.5 14z" />
    <glyph glyph-name="uni2079" unicode="&#x2079;" horiz-adv-x="400" 
d="M91.5 370q-35.5 26 -35.5 79q0 10 10 10h51q10 0 10 -10q0 -22 17 -31t51 -9q44 0 64 18.5t20 57.5v36q-22 -15 -45.5 -21.5t-54.5 -6.5q-64 0 -97.5 34t-33.5 99q0 72 39 110.5t112 38.5q72 0 112 -38t40 -106v-143q0 -71 -39.5 -107.5t-116.5 -36.5q-68 0 -103.5 26z
M279 590v44q0 37 -20.5 56.5t-60.5 19.5q-78 0 -78 -71v-28q0 -53 67 -53q51 0 92 32z" />
    <glyph glyph-name="uni2080" unicode="&#x2080;" horiz-adv-x="400" 
d="M86.5 -76q-39.5 39 -39.5 109v135q0 70 39.5 109t112.5 39t112.5 -39t39.5 -109v-135q0 -70 -39.5 -109t-112.5 -39t-112.5 39zM259 -29q20 20 20 57v145q0 37 -20 57t-60 20t-60 -20t-20 -57v-145q0 -37 20 -57t60 -20t60 20z" />
    <glyph glyph-name="uni2081" unicode="&#x2081;" horiz-adv-x="400" 
d="M64 -98v47q0 10 10 10h96v268l-90 -27l-5 -1q-7 0 -7 8v45q0 13 10 16l133 42q8 2 13 2h7q10 0 10 -10v-343h85q10 0 10 -10v-47q0 -10 -10 -10h-252q-10 0 -10 10z" />
    <glyph glyph-name="uni2082" unicode="&#x2082;" horiz-adv-x="400" 
d="M56 -98v48q0 38 17.5 66t42 47t64.5 44q43 26 63.5 44.5t20.5 43.5v14q0 21 -16 31.5t-52 10.5q-35 0 -51 -13t-16 -44q0 -9 -10 -9h-51q-10 0 -10 10q0 121 143 121q135 0 135 -110q0 -40 -16.5 -68t-39.5 -45.5t-61 -40.5q-42 -24 -64 -43.5t-25 -49.5h203q10 0 10 -10
v-47q0 -10 -10 -10h-267q-10 0 -10 10z" />
    <glyph glyph-name="uni2083" unicode="&#x2083;" horiz-adv-x="400" 
d="M52 6q0 10 10 10h51q10 0 10 -10q0 -32 15.5 -44t51.5 -12q40 0 61 14.5t21 41.5v16q0 26 -19 38.5t-60 12.5h-57q-10 0 -10 10v45q0 10 10 10h57q36 0 52.5 13t16.5 41v15q0 22 -16.5 33t-53.5 11t-52.5 -13t-15.5 -43q0 -10 -10 -10h-51q-10 0 -10 10q0 61 35.5 91
t107.5 30q70 0 104 -28t34 -84q0 -64 -45 -93v-1q54 -29 54 -99q0 -61 -39 -93.5t-113 -32.5q-139 0 -139 121z" />
    <glyph glyph-name="uni2084" unicode="&#x2084;" horiz-adv-x="400" 
d="M244 -98v68h-204q-10 0 -10 10v6q0 8 4 16l163 297q3 6 6 8t8 2h55q7 0 9.5 -3.5t-1.5 -9.5l-143 -259h114v129q0 10 10 10h49q10 0 10 -10v-129h42q10 0 10 -10v-47q0 -10 -10 -10h-42v-68q0 -10 -10 -10h-50q-10 0 -10 10z" />
    <glyph glyph-name="uni2085" unicode="&#x2085;" horiz-adv-x="400" 
d="M53 6q0 10 10 10h51q10 0 10 -10q0 -56 63 -56q45 0 65 15.5t20 49.5v18q0 36 -18 52t-62 16q-52 0 -106 -22l-9 -2q-10 0 -9 12l18 210q2 10 10 10h215q10 0 10 -10v-46q0 -10 -10 -10h-160l-6 -86q32 7 61 7q67 0 102.5 -35.5t35.5 -101.5q0 -69 -39.5 -105.5
t-115.5 -36.5q-136 0 -136 121z" />
    <glyph glyph-name="uni2086" unicode="&#x2086;" horiz-adv-x="400" 
d="M89 -78.5q-39 36.5 -39 103.5v152q0 66 40.5 102.5t114.5 36.5q64 0 99 -25.5t35 -74.5q0 -10 -10 -10h-51q-10 0 -10 10q0 34 -62 34q-45 0 -64.5 -17t-19.5 -54v-43q49 29 107 29q122 0 122 -126q0 -74 -39 -114t-111 -40q-73 0 -112 36.5zM260 -31q20 19 20 55v23
q0 27 -15.5 40t-48.5 13q-51 0 -94 -32v-42q0 -36 20 -56t59 -20t59 19z" />
    <glyph glyph-name="uni2087" unicode="&#x2087;" horiz-adv-x="400" 
d="M104 -103q-2 5 0 10l153 335h-141v-45q0 -10 -10 -10h-48q-10 0 -10 10v102q0 10 10 10h286q10 0 10 -10v-6q0 -5 -2 -11l-170 -379q-4 -11 -17 -11h-53q-6 0 -8 5z" />
    <glyph glyph-name="uni2088" unicode="&#x2088;" horiz-adv-x="400" 
d="M83 -84q-40 32 -40 92q0 34 15 61.5t42 44.5q-21 13 -30.5 34t-9.5 51q0 56 36 86t104 30t104 -30t36 -86q0 -59 -39 -85q27 -16 41.5 -43.5t14.5 -62.5q0 -61 -39.5 -92.5t-117.5 -31.5q-77 0 -117 32zM269 194v9q0 48 -69 48t-69 -48v-9q0 -24 17.5 -37.5t51.5 -13.5
q69 0 69 51zM265.5 -38q20.5 14 20.5 43v10q0 33 -22 50.5t-64 17.5t-63.5 -17.5t-21.5 -50.5v-10q0 -29 20.5 -43t64.5 -14q45 0 65.5 14z" />
    <glyph glyph-name="uni2089" unicode="&#x2089;" horiz-adv-x="400" 
d="M91.5 -89q-35.5 26 -35.5 79q0 10 10 10h51q10 0 10 -10q0 -22 17 -31t51 -9q44 0 64 18.5t20 57.5v36q-22 -15 -45.5 -21.5t-54.5 -6.5q-64 0 -97.5 34t-33.5 99q0 72 39 110.5t112 38.5q72 0 112 -38t40 -106v-143q0 -71 -39.5 -107.5t-116.5 -36.5q-68 0 -103.5 26z
M279 131v44q0 37 -20.5 56.5t-60.5 19.5q-78 0 -78 -71v-28q0 -53 67 -53q51 0 92 32z" />
    <glyph glyph-name="Euro" unicode="&#x20ac;" horiz-adv-x="630" 
d="M584 183q0 -58 -28 -102t-79 -68.5t-118 -24.5q-107 0 -166.5 60.5t-64.5 160.5h-76q-8 0 -6 11l11 46q2 9 11 9h60v69h-70q-10 0 -7 11l11 46q2 9 11 9h55v22q0 105 60 170t171 65q70 0 121 -26t77.5 -70.5t26.5 -98.5q0 -10 -8 -10h-68q-8 0 -8 10q0 52 -34.5 86
t-106.5 34q-73 0 -110.5 -41.5t-37.5 -117.5v-23h204q10 0 8 -10l-11 -47q-1 -9 -11 -9h-190v-69h180q11 0 8 -11l-11 -46q-1 -9 -11 -9h-166q4 -70 41.5 -108t106.5 -38q68 0 104.5 33t36.5 87q0 10 9 10h65q10 0 10 -10z" />
    <glyph glyph-name="uni2116" unicode="&#x2116;" horiz-adv-x="989" 
d="M681.5 361.5q-38.5 39.5 -38.5 108.5v49q0 69 38.5 108.5t106.5 39.5q69 0 108 -39.5t39 -108.5v-49q0 -69 -39 -108.5t-108 -39.5q-68 0 -106.5 39.5zM85 10v635q0 10 10 10h112q8 0 11 -7l120 -269q89 -198 122 -285h1l-1 284v267q0 4 2.5 7t6.5 3h65q10 0 10 -10v-635
q0 -10 -10 -10h-110q-8 0 -11 7l-122 274q-92 207 -121 280h-2q1 -69 1 -278v-273q0 -4 -2.5 -7t-6.5 -3h-65q-10 0 -10 10zM845 406q20 21 20 59v60q0 38 -20 58.5t-57 20.5q-36 0 -55.5 -20.5t-19.5 -58.5v-60q0 -38 19.5 -59t55.5 -21q37 0 57 21zM649 214v43q0 10 10 10
h259q4 0 7 -3t3 -7v-43q0 -4 -3 -7t-7 -3h-259q-10 0 -10 10z" />
    </font>
</defs>
</svg>
