<?xml version="1.0" standalone="no"?>
<!DOCTYPE svg PUBLIC "-//W3C//DTD SVG 1.1//EN" "http://www.w3.org/Graphics/SVG/1.1/DTD/svg11.dtd" >
<svg xmlns="http://www.w3.org/2000/svg" xmlns:xlink="http://www.w3.org/1999/xlink" version="1.1">
<metadata>
Created by FontForge 20170731 at Tue Jul 23 14:01:13 2019
 By Aleksey,,,
Copyright 2019 The Sofia Sans Project Authors (nikoltchev@lettersoup.de)
</metadata>
<defs>
<font id="SofiaSans-Bold" horiz-adv-x="0" >
  <font-face 
    font-family="Sofia Sans"
    font-weight="700"
    font-stretch="normal"
    units-per-em="1000"
    panose-1="2 11 8 3 6 0 0 2 0 4"
    ascent="800"
    descent="-200"
    x-height="492"
    cap-height="655"
    bbox="-788 -255 1301 915"
    underline-thickness="50"
    underline-position="-150"
    unicode-range="U+000D-FB02"
  />
<missing-glyph horiz-adv-x="576" 
d="M96.5 3.5q-3.5 3.5 -3.5 8.5v650q0 5 3.5 8t8.5 3h366q5 0 8 -3t3 -8v-650q0 -5 -3 -8.5t-8 -3.5h-366q-5 0 -8.5 3.5zM392 90v493h-209v-493h209z" />
    <glyph glyph-name="f_f" unicode="ff" horiz-adv-x="767" 
d="M105.5 3.5q-3.5 3.5 -3.5 8.5v381h-74q-5 0 -8 3.5t-3 8.5v75q0 5 3 8.5t8 3.5h74v42q0 78 44.5 119.5t127.5 41.5q28 0 56.5 -4.5t46.5 -10.5q16 -5 16 -16v-72q0 -11 -8 -11q-1 0 -13 4q-42 14 -77 14q-75 0 -75 -71v-36h129q12 0 12 -12v-75q0 -5 -3.5 -8.5t-8.5 -3.5
h-129v-381q0 -5 -3.5 -8.5t-8.5 -3.5h-94q-5 0 -8.5 3.5zM491.5 3.5q-3.5 3.5 -3.5 8.5v381h-74q-5 0 -8 3.5t-3 8.5v75q0 5 3 8.5t8 3.5h74v42q0 78 44.5 119.5t127.5 41.5q28 0 56.5 -4.5t46.5 -10.5q16 -5 16 -16v-72q0 -11 -8 -11q-1 0 -13 4q-42 14 -77 14
q-75 0 -75 -71v-36h129q12 0 12 -12v-75q0 -5 -3.5 -8.5t-8.5 -3.5h-129v-381q0 -5 -3.5 -8.5t-8.5 -3.5h-94q-5 0 -8.5 3.5z" />
    <glyph glyph-name="f_i" unicode="fi" horiz-adv-x="581" 
d="M105.5 3.5q-3.5 3.5 -3.5 8.5v381h-74q-5 0 -8 3.5t-3 8.5v75q0 5 3 8.5t8 3.5h74v38q0 84 45.5 124.5t139.5 40.5q30 0 62.5 -3.5t54.5 -8.5q10 -1 10 -12v-72q0 -13 -14 -10q-55 12 -97 12t-62.5 -16t-20.5 -50v-43h286q11 0 11 -12v-468q0 -12 -11 -12h-95
q-5 0 -8.5 3.5t-3.5 8.5v381h-179v-381q0 -5 -3.5 -8.5t-8.5 -3.5h-94q-5 0 -8.5 3.5z" />
    <glyph glyph-name="f_l" unicode="fl" horiz-adv-x="581" 
d="M105.5 3.5q-3.5 3.5 -3.5 8.5v381h-74q-5 0 -8 3.5t-3 8.5v75q0 5 3 8.5t8 3.5h74v38q0 85 46.5 125t138.5 40q59 0 129 -15l89 3q5 0 8.5 -3.5t3.5 -8.5v-659q0 -5 -3.5 -8.5t-8.5 -3.5h-94q-5 0 -8.5 3.5t-3.5 8.5v579q-60 10 -96 10q-83 0 -83 -66v-43h84q5 0 8 -3.5
t3 -8.5v-75q0 -5 -3 -8.5t-8 -3.5h-84v-381q0 -5 -3.5 -8.5t-8.5 -3.5h-94q-5 0 -8.5 3.5z" />
    <glyph glyph-name=".notdef" horiz-adv-x="576" 
d="M96.5 3.5q-3.5 3.5 -3.5 8.5v650q0 5 3.5 8t8.5 3h366q5 0 8 -3t3 -8v-650q0 -5 -3 -8.5t-8 -3.5h-366q-5 0 -8.5 3.5zM392 90v493h-209v-493h209z" />
    <glyph glyph-name=".null" 
 />
    <glyph glyph-name="nonmarkingreturn" unicode="&#xd;" horiz-adv-x="7" 
 />
    <glyph glyph-name="space" unicode=" " horiz-adv-x="203" 
 />
    <glyph glyph-name="exclam" unicode="!" horiz-adv-x="256" 
d="M70 226l-9 417q0 5 3.5 8.5t8.5 3.5h111q11 0 11 -12l-8 -417q0 -11 -12 -11h-93q-12 0 -12 11zM73.5 5.5q-18.5 17.5 -18.5 49.5v16q0 68 74 68q73 0 73 -68v-16q0 -32 -18.5 -49.5t-54.5 -17.5q-37 0 -55.5 17.5z" />
    <glyph glyph-name="quotedbl" unicode="&#x22;" horiz-adv-x="376" 
d="M45 409v262q0 12 12 12h92q5 0 8.5 -3.5t3.5 -8.5v-262q0 -11 -12 -11h-92q-12 0 -12 11zM216 409v262q0 12 11 12h93q5 0 8.5 -3.5t3.5 -8.5v-262q0 -11 -12 -11h-93q-11 0 -11 11z" />
    <glyph glyph-name="numbersign" unicode="#" horiz-adv-x="613" 
d="M117 12v105h-77q-5 0 -8.5 3.5t-3.5 8.5v69q0 5 3.5 8.5t8.5 3.5h77v193h-77q-5 0 -8.5 3.5t-3.5 8.5v69q0 5 3.5 8.5t8.5 3.5h77v105q0 12 12 12h80q5 0 8.5 -3.5t3.5 -8.5v-105h171v105q0 5 3.5 8.5t8.5 3.5h81q11 0 11 -12v-105h77q5 0 8.5 -3.5t3.5 -8.5v-69
q0 -5 -3.5 -8.5t-8.5 -3.5h-77v-193h77q5 0 8.5 -3.5t3.5 -8.5v-69q0 -5 -3.5 -8.5t-8.5 -3.5h-77v-105q0 -12 -11 -12h-81q-5 0 -8.5 3.5t-3.5 8.5v105h-171v-105q0 -5 -3.5 -8.5t-8.5 -3.5h-80q-12 0 -12 12zM392 210v193h-171v-193h171z" />
    <glyph glyph-name="dollar" unicode="$" horiz-adv-x="630" 
d="M491 48.5q-44 -45.5 -126 -56.5v-70q0 -10 -10 -10h-84q-10 0 -10 10v68q-181 20 -175 197q2 12 12 12h92q11 0 11 -13q-3 -98 108 -98q57 0 82 19t25 64q0 31 -14.5 50.5t-51.5 36.5l-138 65q-60 28 -89 69t-29 101q0 76 43 119t124 52v68q0 10 10 10h84q10 0 10 -10
v-70q82 -11 123 -59t39 -132q0 -12 -11 -12h-92q-12 0 -11 12q1 95 -105 95q-95 0 -96 -71q0 -31 16 -51t55 -38l135 -64q61 -29 89 -67t28 -105q0 -76 -44 -121.5z" />
    <glyph glyph-name="percent" unicode="%" horiz-adv-x="945" 
d="M95.5 352q-43.5 43 -43.5 121v31q0 78 43.5 120.5t128.5 42.5q86 0 129 -42t43 -121v-31q0 -78 -43.5 -121t-128.5 -43t-128.5 43zM229.5 4q-2.5 4 1.5 10l199 332l175 302q6 8 14 8h88q16 0 8 -14l-188 -312l-187 -322q-5 -8 -14 -8h-87q-7 0 -9.5 4zM282.5 415.5
q18.5 18.5 18.5 59.5v27q0 41 -18 59.5t-59 18.5q-40 0 -58.5 -19t-18.5 -59v-27q0 -41 18.5 -59.5t58.5 -18.5t58.5 18.5zM592.5 30.5q-43.5 42.5 -43.5 120.5v31q0 78 44 121t128 43q85 0 129 -43t44 -121v-31q0 -78 -44 -120.5t-129 -42.5t-128.5 42.5zM780.5 94
q18.5 19 18.5 59v27q0 41 -18.5 59.5t-59.5 18.5q-40 0 -58.5 -18.5t-18.5 -59.5v-27q0 -41 18 -59.5t59 -18.5t59.5 19z" />
    <glyph glyph-name="ampersand" unicode="&#x26;" horiz-adv-x="678" 
d="M664 7q0 -7 -10 -7h-115q-9 0 -15 6l-53 50q-79 -68 -210 -68q-108 0 -161.5 47t-53.5 128q0 60 27 105t85 90q-39 42 -57 81t-18 80q0 74 43.5 111t128.5 37q77 0 119 -36t42 -101q0 -46 -27.5 -88.5t-83.5 -87.5l149 -142q20 59 20 149q0 5 3.5 8.5t8.5 3.5h83
q5 0 8.5 -3.5t3.5 -8.5q0 -136 -47 -225l126 -121q4 -4 4 -8zM190 516q0 -43 49 -98q36 28 53 52.5t17 50.5q0 55 -58 55q-61 0 -61 -60zM400 125l-174 167q-40 -34 -56 -61.5t-16 -61.5q0 -40 29.5 -63.5t85.5 -23.5q82 0 131 43z" />
    <glyph glyph-name="quotesingle" unicode="'" horiz-adv-x="205" 
d="M45 409v262q0 12 12 12h92q5 0 8.5 -3.5t3.5 -8.5v-262q0 -11 -12 -11h-92q-12 0 -12 11z" />
    <glyph glyph-name="parenleft" unicode="(" horiz-adv-x="278" 
d="M87.5 -68q-23.5 45 -23.5 123v445q0 53 11.5 88.5t32.5 62.5t60 64q4 4 11 4q5 0 8 -3l56 -54q4 -3 4 -8q0 -6 -5 -10q-37 -36 -52 -66.5t-15 -84.5v-431q0 -36 7.5 -60.5t20.5 -43t39 -47.5q5 -5 5 -10q0 -4 -4 -8l-56 -54q-3 -3 -8 -3q-7 0 -11 4q-57 47 -80.5 92z" />
    <glyph glyph-name="parenright" unicode=")" horiz-adv-x="278" 
d="M34 -107q-3 4 -3 8q0 5 5 10q37 38 52 68t15 83v431q0 54 -15 84.5t-52 66.5q-6 5 -6 10q0 4 4 8l57 54q3 3 8 3q7 0 11 -4q38 -34 60 -61.5t33 -64t11 -89.5v-445q0 -78 -23.5 -123t-80.5 -92q-4 -4 -11 -4q-5 0 -8 3z" />
    <glyph glyph-name="asterisk" unicode="*" horiz-adv-x="411" 
d="M88 448q-5 5 -5 10t4 8l63 66l-91 17q-7 1 -9 5.5t0 9.5l22 65q1 7 6.5 9t10.5 -2l82 -41l-9 98v2q0 4 3 6.5t7 2.5h67q4 0 7 -3t2 -8l-8 -99l82 42q4 2 6 2q10 0 11 -9l23 -65q1 -2 1 -5q0 -8 -10 -10l-93 -18l63 -65q4 -4 4 -9q0 -6 -5 -10l-57 -40q-3 -3 -8 -3
q-6 0 -9 7l-43 79l-43 -81q-5 -7 -11 -7q-2 0 -7 3z" />
    <glyph glyph-name="plus" unicode="+" horiz-adv-x="600" 
d="M251 117v135h-151q-11 0 -11 12v72q0 12 11 12h151v135q0 12 11 12h76q11 0 11 -12v-135h151q11 0 11 -12v-72q0 -12 -11 -12h-151v-135q0 -11 -11 -11h-76q-11 0 -11 11z" />
    <glyph glyph-name="comma" unicode="," horiz-adv-x="264" 
d="M27 -125l52 253q2 10 12 10h112q7 0 9.5 -4t0.5 -11l-82 -253q-3 -9 -12 -9h-81q-14 0 -11 14z" />
    <glyph glyph-name="hyphen" unicode="-" horiz-adv-x="485" 
d="M60 233v66q0 12 11 12h343q12 0 12 -12v-66q0 -5 -3.5 -8.5t-8.5 -3.5h-343q-11 0 -11 12z" />
    <glyph glyph-name="period" unicode="." horiz-adv-x="264" 
d="M75 7q-20 19 -20 52v17q0 34 19.5 52.5t57.5 18.5t57.5 -18.5t19.5 -52.5v-17q0 -33 -19.5 -52t-57.5 -19q-37 0 -57 19z" />
    <glyph glyph-name="slash" unicode="/" horiz-adv-x="393" 
d="M12 3.5q-3 3.5 -1 9.5l262 633q3 9 14 9h85q7 0 10 -3.5t0 -9.5l-261 -633q-4 -9 -14 -9h-86q-6 0 -9 3.5z" />
    <glyph glyph-name="zero" unicode="0" horiz-adv-x="594" 
d="M120 50q-62 62 -62 176v203q0 114 62 176t177 62t177 -62t62 -176v-203q0 -114 -62 -176t-177 -62t-177 62zM386.5 125.5q31.5 34.5 31.5 97.5v209q0 63 -31.5 97.5t-89.5 34.5t-89.5 -34.5t-31.5 -97.5v-209q0 -63 31.5 -97.5t89.5 -34.5t89.5 34.5z" />
    <glyph glyph-name="one" unicode="1" horiz-adv-x="480" 
d="M37 12v80q0 11 11 11h152v426l-145 -45l-5 -1q-7 0 -7 10v79q0 6 1.5 8.5t6.5 4.5l221 72q15 3 17 3h18q11 0 11 -12v-545h137q12 0 12 -11v-80q0 -5 -3.5 -8.5t-8.5 -3.5h-407q-11 0 -11 12z" />
    <glyph glyph-name="two" unicode="2" horiz-adv-x="551" 
d="M61.5 3.5q-3.5 3.5 -3.5 8.5v79q0 58 27 102t65.5 74.5t98.5 68.5q67 42 99 72t32 69v18q0 71 -101 71q-99 0 -99 -82q0 -12 -11 -12h-91q-10 0 -12 12q-2 89 55.5 136t166.5 47q210 0 210 -173q0 -59 -24.5 -101.5t-60.5 -70.5t-92 -62q-46 -28 -72.5 -48t-44.5 -47
t-18 -62h298q11 0 11 -11v-80q0 -12 -11 -12h-414q-5 0 -8.5 3.5z" />
    <glyph glyph-name="three" unicode="3" horiz-adv-x="562" 
d="M104 38q-55 50 -51 135q0 12 11 12h91q12 0 12 -12q0 -43 26 -63t80 -20q56 0 86.5 23.5t30.5 66.5v20q0 85 -113 85h-81q-5 0 -8.5 3.5t-3.5 8.5v74q0 5 3.5 8.5t8.5 3.5h73q107 0 107 87v22q0 74 -104 74q-53 0 -78.5 -19.5t-25.5 -61.5q0 -5 -3.5 -8.5t-8.5 -3.5h-90
q-5 0 -8.5 3.5t-3.5 8.5q0 90 57 136t169 46q109 0 161.5 -42t52.5 -127q0 -61 -25 -101t-71 -55v-2q111 -34 111 -157q0 -95 -61 -145t-177 -50q-112 0 -167 50z" />
    <glyph glyph-name="four" unicode="4" horiz-adv-x="570" 
d="M350 12v107h-330q-11 0 -11 12v15q0 11 3 17l255 483q5 9 15 9h100q6 0 9 -3.5t-1 -9.5l-220 -420h182l8 202q0 12 11 12h85q5 0 8.5 -3.5t3.5 -8.5v-202h68q12 0 12 -11v-80q0 -5 -3.5 -8.5t-8.5 -3.5h-68v-107q0 -5 -3.5 -8.5t-8.5 -3.5h-95q-11 0 -11 12z" />
    <glyph glyph-name="five" unicode="5" horiz-adv-x="542" 
d="M93 36.5q-55 48.5 -51 134.5q0 5 3.5 8.5t8.5 3.5h90q5 0 8.5 -3.5t3.5 -8.5q0 -39 26 -60t78 -21q63 0 91 25t28 79v24q0 54 -29.5 80t-92.5 26q-38 0 -85.5 -9t-89.5 -25q-8 -2 -10 -2q-12 0 -11 15l31 340q2 12 12 12h340q5 0 8.5 -3.5t3.5 -8.5v-80q0 -11 -12 -11
h-251l-11 -147q69 16 114 16q98 0 149.5 -53t51.5 -158q0 -222 -243 -222q-106 0 -161 48.5z" />
    <glyph glyph-name="six" unicode="6" horiz-adv-x="585" 
d="M536 226q0 -115 -61 -176.5t-178 -61.5q-118 0 -178.5 57t-60.5 172v222q0 109 63 168.5t181 59.5q99 0 156 -38.5t57 -113.5q0 -11 -12 -11h-90q-12 0 -12 11q0 25 -25.5 38.5t-72.5 13.5q-64 0 -95 -28.5t-31 -92.5v-85q82 59 178 59q181 0 181 -194zM417 231
q0 92 -99 92q-35 0 -71 -13t-70 -38v-61q0 -58 30.5 -90.5t88.5 -32.5t89.5 31t31.5 89v23z" />
    <glyph glyph-name="seven" unicode="7" horiz-adv-x="548" 
d="M136.5 4.5q-2.5 4.5 0.5 10.5l244 538h-218v-71q0 -5 -3.5 -8.5t-8.5 -3.5h-93q-5 0 -8.5 3.5t-3.5 8.5v161q0 5 3.5 8.5t8.5 3.5h470q5 0 8.5 -3.5t3.5 -8.5v-5q0 -8 -3 -17l-274 -611q-4 -10 -15 -10h-103q-6 0 -8.5 4.5z" />
    <glyph glyph-name="eight" unicode="8" horiz-adv-x="590" 
d="M110 35.5q-64 47.5 -64 141.5q0 63 30 107t85 65q-85 38 -85 148q0 80 56.5 125t162.5 45t162.5 -45t56.5 -125q0 -56 -21.5 -92.5t-64.5 -55.5q55 -20 85.5 -64.5t30.5 -107.5q0 -94 -64 -141.5t-185 -47.5t-185 47.5zM371 412q27 22 27 63v15q0 39 -27 61t-76 22
q-50 0 -76.5 -22t-26.5 -61v-15q0 -41 27 -63t76 -22t76 22zM392 109.5q33 24.5 33 71.5v15q0 51 -34 79t-96 28t-96 -28t-34 -79v-15q0 -47 32.5 -71.5t97.5 -24.5q64 0 97 24.5z" />
    <glyph glyph-name="nine" unicode="9" horiz-adv-x="595" 
d="M476 607.5q61 -59.5 61 -175.5v-209q0 -116 -61.5 -175.5t-182.5 -59.5q-107 0 -164 42.5t-57 124.5q0 5 3.5 8.5t8.5 3.5h90q5 0 8.5 -3.5t3.5 -8.5q0 -28 28 -47.5t78 -19.5q63 0 94.5 31t31.5 95v78q-80 -59 -169 -59q-95 0 -143 52t-48 151q0 114 60.5 172.5
t177.5 58.5q119 0 180 -59.5zM418 380v65q0 58 -32 90.5t-92 32.5q-58 0 -87.5 -30t-29.5 -87v-31q0 -43 28 -67t76 -24q71 0 137 51z" />
    <glyph glyph-name="colon" unicode=":" horiz-adv-x="260" 
d="M74 348.5q-19 18.5 -19 50.5v17q0 32 19 50.5t56 18.5t56 -18.5t19 -50.5v-17q0 -32 -19 -50.5t-56 -18.5t-56 18.5zM74 6.5q-19 18.5 -19 50.5v17q0 32 19 50.5t56 18.5t56 -18.5t19 -50.5v-17q0 -32 -19 -50.5t-56 -18.5t-56 18.5z" />
    <glyph glyph-name="semicolon" unicode=";" horiz-adv-x="269" 
d="M82 348.5q-19 18.5 -19 50.5v17q0 32 19 50.5t56 18.5t56 -18.5t19 -50.5v-17q0 -32 -19 -50.5t-56 -18.5t-56 18.5zM17.5 -135q-3.5 4 -2.5 10l52 253q1 4 4 7t7 3h112q6 0 9.5 -4t1.5 -11l-82 -253q-3 -9 -12 -9h-80q-6 0 -9.5 4z" />
    <glyph glyph-name="less" unicode="&#x3c;" horiz-adv-x="600" 
d="M97 249q-9 3 -9 13v70q0 10 9 13l401 159q2 1 6 1q8 0 8 -10v-87q0 -9 -9 -14l-291 -97l291 -98q9 -3 9 -13v-87q0 -15 -14 -10z" />
    <glyph glyph-name="equal" unicode="=" horiz-adv-x="600" 
d="M87 353v72q0 5 3.5 8.5t8.5 3.5h402q5 0 8.5 -3.5t3.5 -8.5v-72q0 -11 -12 -11h-402q-12 0 -12 11zM90.5 168.5q-3.5 3.5 -3.5 8.5v72q0 11 12 11h402q12 0 12 -11v-72q0 -5 -3.5 -8.5t-8.5 -3.5h-402q-5 0 -8.5 3.5z" />
    <glyph glyph-name="greater" unicode="&#x3e;" horiz-adv-x="600" 
d="M97 88q-9 0 -9 11v87q0 10 9 13l291 98l-291 97q-9 5 -9 14v87q0 6 4 9t10 0l401 -159q9 -3 9 -13v-70q0 -10 -9 -13l-401 -160q-2 -1 -5 -1z" />
    <glyph glyph-name="question" unicode="?" horiz-adv-x="489" 
d="M166 218q-3 3 -3 8v39q0 38 22.5 66t66.5 64q40 32 60.5 57t20.5 57q0 60 -86 60q-50 0 -71 -22.5t-20 -68.5q0 -13 -11 -13h-90q-9 0 -10.5 5t-1.5 18q0 91 51 135t156 44q102 0 152 -36.5t50 -107.5q0 -60 -29.5 -101t-81.5 -85q-33 -29 -47 -45t-14 -35v-31
q0 -11 -12 -11h-94q-5 0 -8 3zM171 5.5q-19 17.5 -19 49.5v16q0 33 18.5 50.5t55.5 17.5q73 0 73 -68v-16q0 -32 -18 -49.5t-55 -17.5q-36 0 -55 17.5z" />
    <glyph glyph-name="at" unicode="@" horiz-adv-x="994" 
d="M828 600q113 -95 113 -278v-42q0 -119 -63.5 -188.5t-177.5 -69.5q-48 0 -81.5 18.5t-50.5 51.5q-87 -71 -168 -71q-119 0 -119 124q0 20 3 44l14 111q23 180 196 180q31 0 56.5 -3t63.5 -9q57 -8 67 -9q12 -2 11 -13l-33 -244q-2 -11 -2 -31q0 -29 12 -42.5t40 -13.5
q56 0 88.5 43t32.5 122v42q0 276 -339 276q-160 0 -243.5 -82t-83.5 -239v-79q0 -148 78.5 -216.5t253.5 -68.5h137q12 0 12 -12v-74q0 -5 -3.5 -8.5t-8.5 -3.5h-144q-225 0 -330.5 93.5t-105.5 285.5v86q0 195 110.5 305t327.5 110q224 0 337 -95zM386 173q0 -31 13 -45
t43 -14q26 0 52 14.5t59 42.5q0 7 2 21l26 189q-47 9 -86 9t-62.5 -22t-31.5 -74l-13 -96q-2 -18 -2 -25z" />
    <glyph glyph-name="A" unicode="A" horiz-adv-x="587" 
d="M588 8q0 -8 -10 -8h-106q-9 0 -13 9l-40 128h-254l-39 -127q-3 -10 -14 -10h-103q-13 0 -10 13l216 633q3 9 13 9h128q11 0 14 -9l217 -633q1 -2 1 -5zM388 235l-58 185l-7 24q-14 46 -31 107h-2q-12 -43 -38 -129l-57 -187h193z" />
    <glyph glyph-name="B" unicode="B" horiz-adv-x="588" 
d="M74 12v631q0 12 11 12h199q237 0 237 -162q0 -57 -25.5 -91t-82.5 -54v-3q136 -24 136 -158q0 -97 -63.5 -142t-201.5 -45h-199q-11 0 -11 12zM281 381q62 0 91 21.5t29 68.5q0 45 -30 65t-98 20h-79v-175h87zM287 100q76 0 109 21.5t33 72.5q0 50 -33.5 73t-107.5 23
h-94v-190h93z" />
    <glyph glyph-name="C" unicode="C" horiz-adv-x="643" 
d="M129.5 50.5q-67.5 62.5 -67.5 184.5v184q0 122 67.5 185t194.5 63q78 0 137.5 -24t92 -68.5t32.5 -105.5q0 -22 -2 -33q-2 -14 -12 -14h-97q-6 0 -9 3.5t-2 8.5q2 61 -33 94.5t-105 33.5t-107 -36.5t-37 -108.5v-179q0 -72 37 -108.5t107 -36.5q67 0 103 30.5t36 83.5
l-1 14v2q0 10 11 10h96q11 0 13 -14q1 -8 1 -23q0 -96 -70.5 -152t-190.5 -56q-127 0 -194.5 62.5z" />
    <glyph glyph-name="D" unicode="D" horiz-adv-x="649" 
d="M74 12v631q0 12 11 12h202q155 0 231 -72t76 -216v-60q0 -154 -76 -230.5t-231 -76.5h-202q-11 0 -11 12zM279 103q100 0 147.5 50t47.5 153v62q0 93 -47.5 138.5t-147.5 45.5h-85v-449h85z" />
    <glyph glyph-name="E" unicode="E" horiz-adv-x="540" 
d="M74 12v631q0 12 11 12h383q5 0 8 -3.5t3 -8.5v-82q0 -5 -3 -8.5t-8 -3.5h-274v-167h250q5 0 8 -3.5t3 -8.5v-77q0 -5 -3 -8.5t-8 -3.5h-250v-175h274q5 0 8 -3.5t3 -8.5v-82q0 -5 -3 -8.5t-8 -3.5h-383q-11 0 -11 12z" />
    <glyph glyph-name="F" unicode="F" horiz-adv-x="516" 
d="M74 12v631q0 12 11 12h383q5 0 8 -3.5t3 -8.5v-82q0 -5 -3 -8.5t-8 -3.5h-274v-177h236q5 0 8 -3.5t3 -8.5v-79q0 -5 -3 -8t-8 -3h-236v-258q0 -5 -3.5 -8.5t-8.5 -3.5h-97q-11 0 -11 12z" />
    <glyph glyph-name="G" unicode="G" horiz-adv-x="660" 
d="M127.5 52.5q-65.5 64.5 -65.5 182.5v185q0 119 69.5 183t195.5 64q79 0 137.5 -24t89.5 -67.5t31 -99.5q0 -8 -2 -28q-1 -12 -12 -12l-97 1q-11 0 -11 12q3 55 -30.5 84t-103.5 29q-147 0 -147 -145v-179q0 -74 36 -109.5t109 -35.5q71 0 107.5 32.5t36.5 94.5v32h-135
q-5 0 -8.5 3.5t-3.5 8.5v67q0 11 12 11h238q11 0 11 -11v-184q0 -81 8 -134v-3q0 -10 -10 -10h-78q-10 0 -13 10q-4 22 -6 62h-2q-27 -40 -72 -62t-107 -22q-112 0 -177.5 64.5z" />
    <glyph glyph-name="H" unicode="H" horiz-adv-x="668" 
d="M74 12v631q0 12 11 12h97q5 0 8.5 -3.5t3.5 -8.5v-257h280v257q0 5 3.5 8.5t8.5 3.5h97q11 0 11 -12v-631q0 -12 -11 -12h-97q-5 0 -8.5 3.5t-3.5 8.5v270h-280v-270q0 -5 -3.5 -8.5t-8.5 -3.5h-97q-11 0 -11 12z" />
    <glyph glyph-name="I" unicode="I" horiz-adv-x="267" 
d="M74 12v631q0 12 11 12h97q5 0 8.5 -3.5t3.5 -8.5v-631q0 -5 -3.5 -8.5t-8.5 -3.5h-97q-11 0 -11 12z" />
    <glyph glyph-name="J" unicode="J" horiz-adv-x="277" 
d="M26 -152q-9 0 -12 7l-24 82q-1 1 -1 4q0 9 16 13q79 17 79 138v551q0 12 11 12h97q5 0 8.5 -3.5t3.5 -8.5v-543q0 -221 -167 -251q-4 -1 -11 -1z" />
    <glyph glyph-name="K" unicode="K" horiz-adv-x="615" 
d="M74 12v631q0 12 11 12h97q5 0 8.5 -3.5t3.5 -8.5v-172q0 -59 -3 -119h2q29 40 84 108l162 189q6 6 14 6h121q7 0 9.5 -4t-2.5 -10l-220 -252l240 -375q2 -3 2 -7q0 -7 -9 -7h-120q-9 0 -14 8l-182 288l-84 -95v-189q0 -5 -3.5 -8.5t-8.5 -3.5h-97q-11 0 -11 12z" />
    <glyph glyph-name="L" unicode="L" horiz-adv-x="487" 
d="M74 12v631q0 12 11 12h98q11 0 11 -12v-537h263q5 0 8.5 -3.5t3.5 -8.5v-82q0 -5 -3.5 -8.5t-8.5 -3.5h-372q-11 0 -11 12z" />
    <glyph glyph-name="M" unicode="M" horiz-adv-x="785" 
d="M60 12l13 631q0 12 12 12h129q9 0 13 -9l167 -364l164 364q5 9 14 9h129q11 0 11 -12l14 -631q0 -5 -3.5 -8.5t-8.5 -3.5h-94q-12 0 -12 12l-8 323q-1 44 3 132l1 28h-3q-34 -82 -70 -156l-123 -259q-4 -8 -14 -8h-4q-9 0 -13 8l-124 262q-23 47 -68 153h-3q3 -57 3 -119
v-39l-8 -325q0 -12 -11 -12h-95q-11 0 -11 12z" />
    <glyph glyph-name="N" unicode="N" horiz-adv-x="669" 
d="M74 12v631q0 12 11 12h142q9 0 14 -8l161 -325q55 -111 79 -175h3q-5 88 -5 180v316q0 12 11 12h94q5 0 8.5 -3.5t3.5 -8.5v-631q0 -5 -3.5 -8.5t-8.5 -3.5h-140q-9 0 -14 8l-156 314q-32 64 -83 183h-3q3 -93 3 -191v-302q0 -5 -3.5 -8.5t-8.5 -3.5h-94q-11 0 -11 12z
" />
    <glyph glyph-name="O" unicode="O" horiz-adv-x="651" 
d="M128.5 51q-66.5 63 -66.5 183v187q0 120 66.5 183t197.5 63q130 0 196.5 -63t66.5 -183v-187q0 -120 -66.5 -183t-196.5 -63q-131 0 -197.5 63zM432.5 130.5q36.5 37.5 36.5 109.5v175q0 72 -36.5 109.5t-106.5 37.5q-71 0 -107.5 -37.5t-36.5 -109.5v-175
q0 -72 36.5 -109.5t107.5 -37.5q70 0 106.5 37.5z" />
    <glyph glyph-name="P" unicode="P" horiz-adv-x="559" 
d="M74 12v631q0 12 11 12h186q253 0 253 -214q0 -104 -63.5 -158t-188.5 -54h-78v-217q0 -5 -3.5 -8.5t-8.5 -3.5h-97q-11 0 -11 12zM270 331q69 0 101.5 26t32.5 83q0 59 -32.5 85.5t-102.5 26.5h-75v-221h76z" />
    <glyph glyph-name="Q" unicode="Q" horiz-adv-x="651" 
d="M522.5 604q66.5 -63 66.5 -183v-187q0 -96 -43 -156t-128 -80q3 -44 16.5 -64t41.5 -20q8 0 35 5l4 1q8 0 8 -11v-67q0 -10 -11 -15q-26 -10 -59 -10q-63 0 -99.5 42.5t-40.5 128.5q-124 3 -187.5 66t-63.5 180v187q0 120 66.5 183t197.5 63q130 0 196.5 -63zM469 415
q0 72 -36.5 109.5t-106.5 37.5q-71 0 -107.5 -37.5t-36.5 -109.5v-175q0 -72 36.5 -109.5t107.5 -37.5q70 0 106.5 37.5t36.5 109.5v175z" />
    <glyph glyph-name="R" unicode="R" horiz-adv-x="613" 
d="M74 12v631q0 12 11 12h210q127 0 187 -48.5t60 -145.5q0 -70 -31.5 -117t-93.5 -65v-2l161 -263q2 -3 2 -7q0 -7 -10 -7h-111q-9 0 -14 8l-151 253h-100v-249q0 -5 -3.5 -8.5t-8.5 -3.5h-97q-11 0 -11 12zM290 356q69 0 100.5 24t31.5 77q0 52 -29 74t-98 22h-101v-197
h96z" />
    <glyph glyph-name="S" unicode="S" horiz-adv-x="572" 
d="M101.5 33q-59.5 45 -59.5 129q0 14 1 21q1 17 14 17h94q14 0 12 -15q-1 -48 29 -71t93 -23q61 0 90.5 19.5t29.5 60.5q0 29 -16.5 47t-60.5 36l-145 62q-71 29 -100.5 69.5t-29.5 101.5q0 88 56 133.5t168 45.5t174 -43t62 -125q0 -13 -1 -20q-1 -18 -12 -18h-95
q-6 0 -9 4t-2 14q3 40 -28.5 63.5t-89.5 23.5q-103 0 -103 -75q0 -27 17.5 -45t61.5 -37l143 -61q71 -30 100.5 -69.5t29.5 -103.5q0 -186 -246 -186q-118 0 -177.5 45z" />
    <glyph glyph-name="T" unicode="T" horiz-adv-x="545" 
d="M215.5 3.5q-3.5 3.5 -3.5 8.5v537h-172q-5 0 -8.5 3.5t-3.5 8.5v82q0 5 3.5 8.5t8.5 3.5h465q5 0 8.5 -3.5t3.5 -8.5v-82q0 -5 -3.5 -8.5t-8.5 -3.5h-172v-537q0 -5 -3.5 -8.5t-8.5 -3.5h-97q-5 0 -8.5 3.5z" />
    <glyph glyph-name="U" unicode="U" horiz-adv-x="651" 
d="M135 50.5q-66 62.5 -66 184.5v408q0 12 11 12h97q5 0 8.5 -3.5t3.5 -8.5v-406q0 -70 34.5 -107t102.5 -37t102.5 37t34.5 107v406q0 12 11 12h97q5 0 8.5 -3.5t3.5 -8.5v-410q0 -119 -66.5 -182t-190.5 -63q-125 0 -191 62.5z" />
    <glyph glyph-name="V" unicode="V" horiz-adv-x="607" 
d="M222 9l-209 633q-1 2 -1 5q0 8 10 8h105q4 0 8 -2.5t6 -6.5l120 -395q14 -48 40 -144h2q10 41 40 143l123 395q3 10 14 10h105q12 0 9 -13l-213 -633q-3 -9 -13 -9h-132q-11 0 -14 9z" />
    <glyph glyph-name="W" unicode="W" horiz-adv-x="872" 
d="M194 10l-177 632v3q0 10 11 10h97q12 0 13 -10l96 -358q7 -23 26 -116l9 -47h2q26 92 41 139l76 244l-37 122q-1 2 -1 5q0 4 3 6t8 2h98q5 0 8 -3t4 -7l100 -371q18 -65 34 -137h1l11 56q13 68 23 111l92 354q1 10 13 10h100q6 0 9 -3.5t1 -9.5l-172 -632q-3 -10 -13 -10
h-120q-11 0 -14 10l-58 206q-18 61 -37 138h-2l-13 -46q-6 -19 -12.5 -41.5t-14.5 -48.5l-63 -209q-4 -9 -13 -9h-116q-10 0 -13 10z" />
    <glyph glyph-name="X" unicode="X" horiz-adv-x="577" 
d="M4 4q-2 4 2 10l211 323l-198 304q-2 3 -2 7q0 7 9 7h116q7 0 13 -7l92 -146l44 -77h1q23 42 47 81l88 142q6 7 14 7h112q7 0 8.5 -4t-1.5 -10l-197 -305l208 -322q2 -3 2 -7q0 -7 -9 -7h-116q-8 0 -14 7l-97 155q-21 34 -48 84h-2q-31 -57 -48 -82l-98 -156q-5 -8 -14 -8
h-114q-7 0 -9 4z" />
    <glyph glyph-name="Y" unicode="Y" horiz-adv-x="563" 
d="M222 12v214l-214 415q-2 4 -2 6q0 8 10 8h110q11 0 14 -8l89 -189q25 -54 53 -119h1q18 42 54 120l88 188q3 8 14 8h108q6 0 8.5 -4t-0.5 -10l-213 -415v-214q0 -5 -3.5 -8.5t-8.5 -3.5h-97q-11 0 -11 12z" />
    <glyph glyph-name="Z" unicode="Z" horiz-adv-x="556" 
d="M20 3q-3 3 -3 8v5q0 8 4 15l269 422l13 21q24 41 48 74v2q-37 -1 -112 -1h-180q-5 0 -8.5 3.5t-3.5 8.5v82q0 5 3.5 8.5t8.5 3.5h466q5 0 8.5 -3t3.5 -8v-5q0 -5 -4 -15l-266 -412q-50 -79 -69 -106v-2q41 2 124 2h180q5 0 8.5 -3.5t3.5 -8.5v-82q0 -5 -3.5 -8.5
t-8.5 -3.5h-474q-5 0 -8 3z" />
    <glyph glyph-name="bracketleft" unicode="[" horiz-adv-x="280" 
d="M67.5 -160.5q-3.5 3.5 -3.5 8.5v858q0 5 3.5 8.5t8.5 3.5h200q5 0 8.5 -3.5t3.5 -8.5v-67q0 -5 -3.5 -8.5t-8.5 -3.5h-101v-699h101q5 0 8.5 -3.5t3.5 -8.5v-68q0 -5 -3.5 -8.5t-8.5 -3.5h-200q-5 0 -8.5 3.5z" />
    <glyph glyph-name="backslash" unicode="\" horiz-adv-x="393" 
d="M273 9l-262 633l-1 4q0 9 11 9h86q10 0 14 -9l261 -633q1 -2 1 -5q0 -8 -11 -8h-85q-11 0 -14 9z" />
    <glyph glyph-name="bracketright" unicode="]" horiz-adv-x="280" 
d="M-4.5 -160.5q-3.5 3.5 -3.5 8.5v68q0 5 3.5 8.5t8.5 3.5h101v699h-101q-5 0 -8.5 3.5t-3.5 8.5v67q0 5 3.5 8.5t8.5 3.5h200q5 0 8.5 -3.5t3.5 -8.5v-858q0 -5 -3.5 -8.5t-8.5 -3.5h-200q-5 0 -8.5 3.5z" />
    <glyph glyph-name="asciicircum" unicode="^" horiz-adv-x="523" 
d="M42.5 354q-2.5 4 1.5 10l166 311q4 8 14 8h76q10 0 14 -8l166 -311q2 -4 2 -7q0 -7 -10 -7h-87q-11 0 -14 8l-109 221l-109 -221q-5 -8 -14 -8h-87q-7 0 -9.5 4z" />
    <glyph glyph-name="underscore" unicode="_" horiz-adv-x="545" 
d="M9.5 -144.5q-3.5 3.5 -3.5 8.5v66q0 12 12 12h509q11 0 11 -12v-66q0 -12 -11 -12h-509q-5 0 -8.5 3.5z" />
    <glyph glyph-name="grave" unicode="`" horiz-adv-x="241" 
d="M122 564l-90 126q-2 4 -2 6q0 7 8 7h90q10 0 14 -9l68 -125q2 -4 2 -6q0 -6 -8 -6h-69q-8 0 -13 7z" />
    <glyph glyph-name="a" unicode="a" horiz-adv-x="504" 
d="M447 11q0 -11 -11 -11h-83q-10 0 -13 13q-4 23 -9 63q-44 -45 -83 -66.5t-86 -21.5q-60 0 -92 36t-32 103q0 52 20 84.5t65 50.5t122 25l78 7v40q0 43 -17 60t-59 17q-75 0 -74 -55q0 -12 -11 -12h-90q-8 0 -11 7t-3 24q0 61 51.5 95t142.5 34q97 0 143 -41.5t46 -130.5
v-208q0 -64 6 -111v-2zM257 97q28 16 66 54v71l-68 -6q-58 -5 -80 -22t-22 -55q0 -30 12 -44t37 -14q27 0 55 16z" />
    <glyph glyph-name="b" unicode="b" horiz-adv-x="540" 
d="M487 327v-136q0 -102 -52.5 -152.5t-159.5 -50.5q-48 0 -118 11q-58 8 -93 11v661q0 12 11 12h95q5 0 8.5 -3.5t3.5 -8.5v-233q39 34 77.5 50t80.5 16q147 0 147 -177zM369 307q0 49 -17 72t-53 23q-26 0 -52.5 -13t-64.5 -45v-248q45 -9 81 -9q106 0 106 114v106z" />
    <glyph glyph-name="c" unicode="c" horiz-adv-x="526" 
d="M107.5 40q-56.5 52 -56.5 150v113q0 97 57 149t163 52q65 0 112 -21t71 -58t22 -84q0 -21 -12 -21h-90q-11 0 -11 16q0 32 -24.5 49.5t-66.5 17.5q-52 0 -77.5 -27t-25.5 -85v-90q0 -57 25 -84t77 -27q43 0 67 18t24 48q0 15 11 15h90q12 0 12 -11q2 -80 -51 -126
t-154 -46q-106 0 -162.5 52z" />
    <glyph glyph-name="d" unicode="d" horiz-adv-x="546" 
d="M489 10q0 -10 -12 -10h-83q-12 0 -13 11q-4 25 -8 63q-43 -43 -84.5 -64.5t-91.5 -21.5q-144 0 -144 178v136q0 99 46.5 150.5t131.5 51.5q33 0 70 -7.5t63 -20.5v195q0 5 3.5 8.5t8.5 3.5h94q5 0 8.5 -3.5t3.5 -8.5v-552q0 -56 6 -104zM240 90q30 0 58.5 15.5t65.5 50.5
v227q-24 11 -51.5 16.5t-49.5 5.5q-92 0 -92 -114v-113q0 -88 69 -88z" />
    <glyph glyph-name="e" unicode="e" horiz-adv-x="530" 
d="M51 177v124q0 100 54 151.5t161 51.5q105 0 159.5 -49.5t54.5 -146.5v-78q0 -5 -3.5 -8.5t-8.5 -3.5h-300v-30q0 -55 23.5 -80.5t76.5 -25.5q41 0 63.5 13.5t22.5 38.5q0 12 12 12h92q10 0 12 -11q2 -71 -50 -109t-153 -38q-216 0 -216 189zM364 298v5q0 55 -23.5 81
t-73.5 26q-51 0 -75 -26.5t-24 -81.5v-4h196z" />
    <glyph glyph-name="f" unicode="f" horiz-adv-x="381" 
d="M105.5 3.5q-3.5 3.5 -3.5 8.5v381h-74q-5 0 -8 3.5t-3 8.5v75q0 5 3 8.5t8 3.5h74v42q0 78 44.5 119.5t127.5 41.5q28 0 56.5 -4.5t46.5 -10.5q16 -5 16 -16v-72q0 -11 -8 -11q-1 0 -13 4q-42 14 -77 14q-75 0 -75 -71v-36h129q12 0 12 -12v-75q0 -5 -3.5 -8.5t-8.5 -3.5
h-129v-381q0 -5 -3.5 -8.5t-8.5 -3.5h-94q-5 0 -8.5 3.5z" />
    <glyph glyph-name="g" unicode="g" horiz-adv-x="520" 
d="M464 56.5q32 -35.5 32 -103.5q0 -79 -57.5 -114.5t-184.5 -35.5q-120 0 -174.5 30.5t-54.5 93.5q0 70 61 109q-25 27 -25 68q0 30 12.5 53t42.5 45q-47 41 -47 129t48 130.5t149 42.5q25 0 47 -3q4 54 14 108q3 12 12 12h80q13 0 10 -13q-19 -57 -30 -137q59 -41 59 -141
q0 -87 -47.5 -129t-146.5 -42q-46 0 -82 9q-19 -13 -19 -34q0 -14 9 -20.5t31 -7.5l161 -10q68 -4 100 -39.5zM201 394.5q-18 -18.5 -18 -63.5q0 -44 18 -62t63 -18t62.5 18t17.5 62q0 45 -18 63.5t-62 18.5q-45 0 -63 -18.5zM354.5 -93q25.5 13 25.5 46q0 23 -11.5 34
t-36.5 12l-156 9q-31 -18 -31 -57q0 -31 25 -43.5t90 -13.5q69 0 94.5 13z" />
    <glyph glyph-name="h" unicode="h" horiz-adv-x="558" 
d="M495 339v-327q0 -5 -3.5 -8.5t-8.5 -3.5h-94q-5 0 -8.5 3.5t-3.5 8.5v308q0 82 -69 82q-30 0 -61 -16.5t-65 -49.5v-324q0 -5 -3.5 -8.5t-8.5 -3.5h-95q-11 0 -11 12v659q0 12 11 12h95q5 0 8.5 -3.5t3.5 -8.5v-244q40 38 80 57.5t88 19.5q145 0 145 -165z" />
    <glyph glyph-name="i" unicode="i" horiz-adv-x="245" 
d="M64 12v468q0 12 11 12h95q5 0 8.5 -3.5t3.5 -8.5v-468q0 -5 -3.5 -8.5t-8.5 -3.5h-95q-11 0 -11 12zM71.5 580.5q-17.5 17.5 -17.5 46.5v15q0 30 17.5 47t51.5 17t51 -17t17 -47v-15q0 -29 -17.5 -46.5t-50.5 -17.5q-34 0 -51.5 17.5z" />
    <glyph glyph-name="j" unicode="j" horiz-adv-x="246" 
d="M50 -193q-4 0 -9 5l-57 67q-3 4 -3 8t6 9q77 55 77 180v404q0 5 3 8.5t8 3.5h95q5 0 8.5 -3.5t3.5 -8.5v-406q0 -98 -29.5 -161t-96.5 -104q-4 -2 -6 -2zM72.5 580.5q-17.5 17.5 -17.5 46.5v15q0 30 17.5 47t51.5 17t51 -17t17 -47v-15q0 -29 -17.5 -46.5t-50.5 -17.5
q-34 0 -51.5 17.5z" />
    <glyph glyph-name="k" unicode="k" horiz-adv-x="516" 
d="M64 12v659q0 12 11 12h95q5 0 8.5 -3.5t3.5 -8.5v-244q0 -69 -3 -138h2q35 46 70 87l96 110q5 6 14 6h119q11 0 11 -7q0 -3 -4 -7l-166 -183l180 -281q2 -3 2 -7q0 -7 -10 -7h-111q-9 0 -14 8l-129 204l-57 -60v-140q0 -5 -3.5 -8.5t-8.5 -3.5h-95q-11 0 -11 12z" />
    <glyph glyph-name="l" unicode="l" horiz-adv-x="245" 
d="M64 12v659q0 12 11 12h95q5 0 8.5 -3.5t3.5 -8.5v-659q0 -5 -3.5 -8.5t-8.5 -3.5h-95q-11 0 -11 12z" />
    <glyph glyph-name="m" unicode="m" horiz-adv-x="840" 
d="M64 12v355q0 66 -7 112v2q0 11 12 11h84q6 0 8.5 -2t3.5 -7q7 -43 9 -64q42 43 80.5 64t86.5 21q52 0 82 -21.5t43 -65.5q44 44 84.5 65.5t88.5 21.5q137 0 137 -164v-328q0 -12 -11 -12h-95q-5 0 -8.5 3.5t-3.5 8.5v308q0 42 -15 62t-47 20q-27 0 -54.5 -16t-62.5 -49
v-325q0 -5 -3.5 -8.5t-8.5 -3.5h-94q-5 0 -8.5 3.5t-3.5 8.5v308q0 42 -15 62t-47 20q-27 0 -54.5 -16t-62.5 -49v-325q0 -5 -3.5 -8.5t-8.5 -3.5h-95q-11 0 -11 12z" />
    <glyph glyph-name="n" unicode="n" horiz-adv-x="558" 
d="M495 339v-327q0 -5 -3.5 -8.5t-8.5 -3.5h-94q-5 0 -8.5 3.5t-3.5 8.5v308q0 42 -17 62t-52 20q-30 0 -59.5 -16t-66.5 -50v-324q0 -5 -3.5 -8.5t-8.5 -3.5h-95q-11 0 -11 12v355q0 46 -7 111v3q0 11 12 11h84q6 0 9 -2t4 -9q4 -19 8 -61q44 42 84.5 63t90.5 21
q146 0 146 -165z" />
    <glyph glyph-name="o" unicode="o" horiz-adv-x="544" 
d="M107.5 39q-56.5 51 -56.5 153v108q0 101 57 152.5t164 51.5t163.5 -51.5t56.5 -152.5v-108q0 -102 -56 -153t-164 -51t-164.5 51zM349.5 116.5q24.5 27.5 24.5 86.5v86q0 59 -24.5 86.5t-77.5 27.5q-54 0 -78.5 -27.5t-24.5 -86.5v-86q0 -59 24.5 -86.5t78.5 -27.5
q53 0 77.5 27.5z" />
    <glyph glyph-name="p" unicode="p" horiz-adv-x="540" 
d="M487 327v-137q0 -101 -45.5 -151.5t-131.5 -50.5q-31 0 -66.5 7t-61.5 20v-188q0 -5 -3.5 -8.5t-8.5 -3.5h-95q-11 0 -11 12v546q0 52 -7 106v2q0 11 12 11h84q6 0 8.5 -2.5t4.5 -8.5q6 -38 8 -52q41 37 80.5 56t85.5 19q147 0 147 -177zM369 307q0 49 -17 72t-53 23
q-26 0 -54 -14t-63 -44v-236q47 -21 95 -21q92 0 92 114v106z" />
    <glyph glyph-name="q" unicode="q" horiz-adv-x="545" 
d="M327.5 500.5q31.5 -3.5 59.5 -8.5q58 -10 94 -12v-653q0 -12 -11 -12h-95q-5 0 -8.5 3.5t-3.5 8.5v228q-41 -35 -80.5 -51t-83.5 -16q-74 0 -110 44t-36 134v135q0 103 52.5 153t159.5 50q31 0 62.5 -3.5zM297 103.5q28 13.5 66 44.5v248q-42 9 -89 9q-53 0 -78 -27.5
t-25 -86.5v-106q0 -50 16.5 -72.5t52.5 -22.5q29 0 57 13.5z" />
    <glyph glyph-name="r" unicode="r" horiz-adv-x="365" 
d="M354 446q0 -32 -3 -61q-1 -13 -15 -10t-34 3q-31 0 -62.5 -17.5t-57.5 -48.5v-300q0 -5 -3.5 -8.5t-8.5 -3.5h-95q-11 0 -11 12v357q0 61 -7 110v2q0 11 12 11h84q10 0 13 -10q6 -32 8 -70q31 41 70.5 66.5t72.5 25.5q16 0 27 -3q9 -4 9 -13q1 -13 1 -42z" />
    <glyph glyph-name="s" unicode="s" horiz-adv-x="471" 
d="M89.5 27q-46.5 39 -43.5 121q0 11 12 11h90q10 0 10 -11q0 -36 18.5 -53t58.5 -17q81 0 81 53q0 19 -12.5 32.5t-42.5 25.5l-114 48q-52 21 -74.5 51t-22.5 79q0 69 45 103t137 34q94 0 142.5 -36t48.5 -105q0 -11 -12 -11h-90q-12 0 -12 16q0 22 -19 34.5t-53 12.5
q-69 0 -69 -48q0 -18 10.5 -28t41.5 -23l114 -48q53 -22 76.5 -53t23.5 -79q0 -73 -50.5 -110.5t-148.5 -37.5q-99 0 -145.5 39z" />
    <glyph glyph-name="t" unicode="t" horiz-adv-x="395" 
d="M136 28q-36 40 -36 131v234h-73q-12 0 -12 12v75q0 12 12 12h77l13 120q3 11 13 11h76q12 0 12 -12v-119h137q5 0 8.5 -3.5t3.5 -8.5v-75q0 -5 -3.5 -8.5t-8.5 -3.5h-137v-228q0 -40 15 -58t50 -18q36 0 71 15q2 1 5 1q9 0 9 -10v-77q0 -10 -9 -13q-40 -17 -101 -17
q-86 0 -122 40z" />
    <glyph glyph-name="u" unicode="u" horiz-adv-x="546" 
d="M489 10q0 -4 -3.5 -7t-8.5 -3h-81q-13 0 -14 11q-7 46 -8 63q-43 -41 -86 -63.5t-90 -22.5q-66 0 -100 41.5t-34 123.5v327q0 12 11 12h95q5 0 8.5 -3.5t3.5 -8.5v-308q0 -42 14.5 -62t45.5 -20q28 0 56.5 16t65.5 50v324q0 5 3.5 8.5t8.5 3.5h95q11 0 11 -12v-355
q0 -63 7 -113v-2z" />
    <glyph glyph-name="v" unicode="v" horiz-adv-x="513" 
d="M181 9l-160 470q-1 2 -1 5q0 8 10 8h102q5 0 9 -3t5 -7l73 -248q20 -68 36 -135h2q13 56 38 135l73 248q3 10 14 10h101q13 0 10 -13l-161 -470q-4 -9 -14 -9h-124q-10 0 -13 9z" />
    <glyph glyph-name="w" unicode="w" horiz-adv-x="741" 
d="M171 10l-147 469q-1 2 -1 5q0 8 10 8h101q9 0 12 -11l65 -243q19 -75 30 -130h3l37 125l42 137l-26 98l-1 5q0 8 10 8h89q12 0 13 -9l60 -237l29 -127h3q14 68 30 131l65 242q3 11 12 11h101q6 0 8.5 -3.5t0.5 -9.5l-147 -469q-4 -10 -13 -10h-110q-11 0 -14 10l-25 85
q-18 62 -34 149h-3q-11 -63 -37 -147l-27 -87q-3 -10 -13 -10h-110q-10 0 -13 10z" />
    <glyph glyph-name="x" unicode="x" horiz-adv-x="504" 
d="M9 4q-2 4 2 10l168 239l-157 225q-2 3 -2 7q0 7 10 7h110q11 0 14 -7l55 -85l27 -44q5 -9 9 -16t7 -12h1l46 76l53 80q4 8 14 8h106q8 0 10 -4t-2 -10l-157 -223l170 -241q3 -4 3 -7q0 -7 -10 -7h-111q-9 0 -14 7l-53 80l-57 91h-1l-55 -91l-53 -80q-3 -7 -14 -7h-110
q-7 0 -9 4z" />
    <glyph glyph-name="y" unicode="y" horiz-adv-x="512" 
d="M134.5 -181q-2.5 4 0.5 10l67 175l-183 474q-1 2 -1 5q0 9 10 9h103q10 0 13 -10l72 -205q18 -50 40 -135h2q19 69 41 135l72 205q3 10 13 10h100q15 0 10 -14l-245 -654q-4 -9 -13 -9h-93q-6 0 -8.5 4z" />
    <glyph glyph-name="z" unicode="z" horiz-adv-x="473" 
d="M22 3q-3 3 -3 8v3q0 8 4 15l191 277l15 22q30 44 45 64v2q-36 -1 -106 -1h-113q-5 0 -8.5 3.5t-3.5 8.5v75q0 5 3.5 8.5t8.5 3.5h386q5 0 8.5 -3t3.5 -8v-3q0 -10 -8 -20l-182 -264l-67 -94v-1h101h129q5 0 8.5 -3.5t3.5 -8.5v-75q0 -5 -3.5 -8.5t-8.5 -3.5h-396
q-5 0 -8 3z" />
    <glyph glyph-name="braceleft" unicode="{" horiz-adv-x="290" 
d="M168.5 -147q-39.5 17 -56.5 58.5t-17 117.5v140q0 34 -11.5 47.5t-39.5 13.5h-22q-5 0 -8.5 3.5t-3.5 8.5v71q0 5 3.5 8.5t8.5 3.5h22q28 0 39.5 13.5t11.5 47.5v140q0 77 17.5 118t57 58t111.5 17q12 0 12 -12v-68q0 -12 -12 -12q-46 0 -60.5 -16.5t-14.5 -63.5v-159
q0 -47 -16.5 -74t-49.5 -37q66 -16 66 -110v-159q0 -33 6.5 -50t22 -23.5t46.5 -6.5q12 0 12 -12v-68q0 -12 -12 -12q-73 0 -112.5 17z" />
    <glyph glyph-name="bar" unicode="|" horiz-adv-x="261" 
d="M75 -173v991q0 12 11 12h89q5 0 8.5 -3.5t3.5 -8.5v-991q0 -5 -3.5 -8.5t-8.5 -3.5h-89q-11 0 -11 12z" />
    <glyph glyph-name="braceright" unicode="}" horiz-adv-x="290" 
d="M-3 -152v68q0 12 11 12q31 0 47 6.5t22.5 23.5t6.5 50v159q0 94 66 110q-33 10 -49.5 37t-16.5 74v159q0 32 -6 48.5t-22 24t-48 7.5q-11 0 -11 12v68q0 12 11 12q73 0 112.5 -17t57 -58t17.5 -118v-140q0 -34 11.5 -47.5t39.5 -13.5h22q5 0 8.5 -3.5t3.5 -8.5v-71
q0 -5 -3.5 -8.5t-8.5 -3.5h-22q-28 0 -39.5 -13.5t-11.5 -47.5v-140q0 -76 -17 -117.5t-57 -58.5t-113 -17q-11 0 -11 12z" />
    <glyph glyph-name="asciitilde" unicode="~" horiz-adv-x="600" 
d="M340.5 241q-20.5 4 -43.5 11q-26 7 -44 10.5t-44 3.5q-36 0 -71.5 -10t-39.5 -11l-4 -1q-7 0 -7 9v74q0 4 0.5 6.5t4.5 3.5q57 27 119 27q28 0 46.5 -3.5t47.5 -11.5q22 -7 41 -11t45 -4q34 0 70 10.5t41 11.5l4 1q7 0 7 -9v-74q0 -9 -7 -12q-61 -25 -117 -25
q-28 0 -48.5 4z" />
    <glyph glyph-name="uni00A0" unicode="&#xa0;" horiz-adv-x="203" 
 />
    <glyph glyph-name="exclamdown" unicode="&#xa1;" horiz-adv-x="256" 
d="M183.5 486.5q18.5 -17.5 18.5 -49.5v-16q0 -68 -73 -68q-74 0 -74 68v16q0 32 18.5 49.5t55.5 17.5q36 0 54.5 -17.5zM175 278q12 0 12 -12l8 -417q0 -12 -11 -12h-111q-5 0 -8.5 3.5t-3.5 8.5l9 417q0 12 12 12h93z" />
    <glyph glyph-name="cent" unicode="&#xa2;" horiz-adv-x="630" 
d="M241 426q-25 -27 -25 -85v-90q0 -57 25 -84t76 -27q43 0 67 18t24 48q0 15 11 15h90q12 0 12 -11q2 -68 -36 -111.5t-113 -56.5v-70q0 -10 -10 -10h-84q-10 0 -10 10v69q-83 11 -126.5 62t-43.5 137v113q0 85 43.5 135.5t126.5 62.5v69q0 10 10 10h84q10 0 10 -10v-70
q73 -13 113 -56t37 -103q0 -21 -12 -21h-90q-11 0 -11 16q0 32 -24.5 49.5t-66.5 17.5q-52 0 -77 -27z" />
    <glyph glyph-name="sterling" unicode="&#xa3;" horiz-adv-x="630" 
d="M560 92v-80q0 -12 -12 -12h-432q-12 0 -12 12v64q0 8 6 14q41 47 41 104v91h-66q-12 0 -12 12v70q0 12 12 12h66v90q0 198 197 198q95 0 143.5 -44.5t46.5 -139.5q-1 -12 -12 -12h-87q-12 0 -11 12q2 84 -76 84q-46 0 -65 -25.5t-19 -82.5v-80h145q5 0 8.5 -3.5t3.5 -8.5
v-70q0 -5 -3.5 -8.5t-8.5 -3.5h-145v-74q0 -38 -9.5 -63.5t-28.5 -44.5h318q12 0 12 -11z" />
    <glyph glyph-name="currency" unicode="&#xa4;" horiz-adv-x="633" 
d="M135 96q-3 0 -8 5l-55 60q-3 3 -3 7t4 7l63 54q-18 41 -18 85t18 85l-63 54q-7 6 -1 14l55 60q7 9 14 2l61 -54q51 30 115 30q65 0 114 -30l61 54q3 3 6 3t8 -5l56 -60q3 -3 3 -6q0 -4 -4 -8l-63 -54q18 -41 18 -85t-18 -85l63 -54q7 -7 1 -14l-56 -60q-6 -8 -14 -2
l-61 54q-49 -30 -114 -30q-64 0 -115 30l-61 -54q-3 -3 -6 -3zM413 314q0 94 -96 94q-97 0 -97 -94t97 -94q96 0 96 94z" />
    <glyph glyph-name="yen" unicode="&#xa5;" horiz-adv-x="634" 
d="M579 651q2 -4 0 -10l-163 -335h67q12 0 12 -12v-57q0 -11 -12 -11h-106v-54h106q12 0 12 -12v-57q0 -12 -12 -12h-106v-79q0 -5 -3 -8.5t-8 -3.5h-97q-5 0 -8.5 3.5t-3.5 8.5v79h-107q-11 0 -11 12v57q0 12 11 12h107v54h-107q-11 0 -11 11v57q0 12 11 12h68l-163 335
q-1 2 -1 6q0 8 10 8h109q11 0 14 -8l89 -209l41 -98h2q26 66 40 99l90 208q5 8 14 8h107q7 0 9 -4z" />
    <glyph glyph-name="brokenbar" unicode="&#xa6;" horiz-adv-x="261" 
d="M183.5 626.5q3.5 -3.5 3.5 -8.5v-591q0 -5 -3.5 -8.5t-8.5 -3.5h-89q-11 0 -11 12v591q0 12 11 12h89q5 0 8.5 -3.5z" />
    <glyph glyph-name="section" unicode="&#xa7;" horiz-adv-x="496" 
d="M416.5 83.5q14.5 -26.5 14.5 -63.5q0 -138 -194 -138q-98 0 -144.5 37.5t-46.5 106.5q0 11 12 11h90q11 0 11 -12q0 -53 79 -53q75 0 75 51q0 21 -11.5 33.5t-40.5 29.5l-139 85q-42 25 -68 59t-26 85q0 45 24.5 78t71.5 51q-60 47 -60 114q0 137 192 137
q98 0 145.5 -37.5t47.5 -106.5q0 -11 -12 -11h-89q-5 0 -8.5 3.5t-3.5 8.5q0 26 -17.5 39.5t-60.5 13.5q-38 0 -56.5 -12t-18.5 -38q0 -21 12 -34t40 -30l139 -85q42 -26 67.5 -60t25.5 -85q0 -45 -24.5 -78t-70.5 -50q30 -23 44.5 -49.5zM163 269.5q18 -19.5 60 -44.5
l58 -35q36 9 53 26t17 46q0 26 -19 46.5t-60 43.5l-58 35q-36 -9 -52.5 -25.5t-16.5 -45.5q0 -27 18 -46.5z" />
    <glyph glyph-name="dieresis" unicode="&#xa8;" horiz-adv-x="374" 
d="M46 579.5q-16 15.5 -16 43.5v14q0 28 16 44t47 16q32 0 48 -16t16 -44v-14q0 -28 -16 -43.5t-48 -15.5q-31 0 -47 15.5zM233 579.5q-16 15.5 -16 43.5v14q0 28 16 44t48 16q31 0 47 -15.5t16 -44.5v-14q0 -28 -16 -43.5t-47 -15.5q-32 0 -48 15.5z" />
    <glyph glyph-name="copyright" unicode="&#xa9;" horiz-adv-x="706" 
d="M134.5 55q-71.5 67 -71.5 187v120q0 120 71.5 187t218.5 67t218.5 -67.5t71.5 -186.5v-120q0 -119 -71.5 -186.5t-218.5 -67.5t-218.5 67zM510 105.5q53 45.5 53 131.5v130q0 86 -53 131.5t-157 45.5t-157.5 -45.5t-53.5 -131.5v-130q0 -86 53.5 -131.5t157.5 -45.5
t157 45.5zM252 164.5q-36 34.5 -36 100.5v74q0 65 36 100t103 35q65 0 100.5 -31.5t35.5 -89.5q0 -11 -11 -11h-61q-11 0 -10 11q1 21 -13 33t-41 12q-29 0 -43 -16t-14 -49v-62q0 -65 56 -65q54 0 54 44q0 6 2.5 9t8.5 3h61q10 0 10 -11q0 -56 -35 -88.5t-101 -32.5
t-102 34.5z" />
    <glyph glyph-name="ordfeminine" unicode="&#xaa;" horiz-adv-x="401" 
d="M74.5 338q-24.5 25 -24.5 72q0 56 34.5 80.5t115.5 32.5l51 5v19q0 26 -10.5 37t-39.5 11q-51 0 -48 -33q0 -10 -11 -10h-63q-7 0 -9.5 4.5t-2.5 17.5q0 44 36.5 68.5t100.5 24.5q71 0 104 -30t33 -92v-136q0 -24 5 -77q0 -12 -11 -12h-61q-7 0 -11 12q-2 7 -6 37
q-29 -29 -56 -42.5t-60 -13.5q-42 0 -66.5 25zM251 426v48l-45 -5q-38 -4 -53 -15t-15 -35q0 -36 32 -36q35 0 81 43zM57 192v62q0 5 3.5 8.5t8.5 3.5h270q5 0 8.5 -3.5t3.5 -8.5v-62q0 -5 -3.5 -8t-8.5 -3h-270q-12 0 -12 11z" />
    <glyph glyph-name="guillemotleft" unicode="&#xab;" horiz-adv-x="513" 
d="M151 97l-94 159q-2 6 -2 8l2 8l94 158q5 8 14 8h92q6 0 9 -4t-1 -10l-88 -160l88 -161q2 -4 2 -6q0 -8 -10 -8h-92q-9 0 -14 8zM339 97l-94 159q-2 6 -2 8l2 8l94 158q5 8 14 8h92q6 0 9 -4t-1 -10l-88 -160l88 -161q2 -4 2 -6q0 -8 -10 -8h-92q-9 0 -14 8z" />
    <glyph glyph-name="logicalnot" unicode="&#xac;" horiz-adv-x="600" 
d="M417.5 106.5q-3.5 3.5 -3.5 8.5v137h-315q-12 0 -12 12v72q0 12 12 12h402q12 0 12 -12v-221q0 -12 -12 -12h-75q-5 0 -8.5 3.5z" />
    <glyph glyph-name="uni00AD" unicode="&#xad;" horiz-adv-x="485" 
d="M60 233v66q0 12 11 12h343q12 0 12 -12v-66q0 -5 -3.5 -8.5t-8.5 -3.5h-343q-11 0 -11 12z" />
    <glyph glyph-name="registered" unicode="&#xae;" horiz-adv-x="584" 
d="M126.5 351.5q-55.5 49.5 -55.5 137.5v33q0 87 55.5 135.5t165.5 48.5q111 0 167 -49t56 -136v-34q0 -87 -56 -136t-167 -49q-110 0 -165.5 49.5zM413.5 389.5q41.5 31.5 41.5 94.5v40q0 63 -41.5 94.5t-121.5 31.5q-79 0 -120 -31t-41 -93v-41q0 -63 41 -95t120 -32
q80 0 121.5 31.5zM211 408v198q0 9 11 9h69q51 0 74 -17t23 -52q0 -25 -10.5 -39.5t-35.5 -24.5l47 -72q2 -4 2 -6q0 -6 -7 -6h-39q-7 0 -12 7l-42 68h-28v-65q0 -4 -2.5 -7t-6.5 -3h-33q-10 0 -10 10zM294 514q22 0 31.5 6.5t9.5 19.5v7q0 14 -10 20.5t-32 6.5h-30v-60h31z
" />
    <glyph glyph-name="macron" unicode="&#xaf;" horiz-adv-x="293" 
d="M33.5 573.5q-3.5 3.5 -3.5 8.5v66q0 11 12 11h209q12 0 12 -11v-66q0 -5 -3.5 -8.5t-8.5 -3.5h-209q-5 0 -8.5 3.5z" />
    <glyph glyph-name="degree" unicode="&#xb0;" horiz-adv-x="391" 
d="M82 423q-41 38 -41 107v19q0 70 41 107.5t114 37.5t113.5 -37.5t40.5 -107.5v-19q0 -69 -40.5 -107t-113.5 -38t-114 38zM246 481q18 17 18 51v15q0 68 -68 68q-69 0 -69 -68v-15q0 -68 69 -68q32 0 50 17z" />
    <glyph glyph-name="plusminus" unicode="&#xb1;" horiz-adv-x="600" 
d="M251 194v128h-151q-11 0 -11 12v72q0 12 11 12h151v128q0 11 11 11h76q11 0 11 -11v-128h151q11 0 11 -12v-72q0 -12 -11 -12h-151v-128q0 -12 -11 -12h-76q-11 0 -11 12zM89 51v71q0 12 11 12h398q5 0 8.5 -3.5t3.5 -8.5v-71q0 -5 -3.5 -8.5t-8.5 -3.5h-398
q-11 0 -11 12z" />
    <glyph glyph-name="uni00B2" unicode="&#xb2;" horiz-adv-x="435" 
d="M63.5 349.5q-3.5 3.5 -3.5 8.5v61q0 38 19 66t45 46t67 41q42 24 61 39t19 36v10q0 17 -13.5 25.5t-42.5 8.5t-42 -10t-13 -33q0 -11 -12 -11h-70q-10 0 -12 11q-1 64 39.5 95.5t114.5 31.5q150 0 150 -117q0 -38 -17.5 -65.5t-42 -45.5t-62.5 -39q-40 -22 -59 -38
t-21 -38h193q12 0 12 -11v-63q0 -12 -12 -12h-289q-5 0 -8.5 3.5z" />
    <glyph glyph-name="uni00B3" unicode="&#xb3;" horiz-adv-x="435" 
d="M57 468q0 5 3.5 8.5t8.5 3.5h70q5 0 8.5 -3.5t3.5 -8.5q0 -26 14 -35t46 -9q66 0 66 44v12q0 42 -62 42h-53q-11 0 -11 12v54q0 11 11 11h48q31 0 44.5 10.5t13.5 33.5v11q0 36 -60 36q-32 0 -44.5 -10t-12.5 -32q0 -11 -12 -11h-69q-10 0 -12 11q-5 127 155 127
q154 0 154 -114q0 -65 -50 -95v-1q58 -25 58 -96q0 -64 -42 -97t-123 -33q-158 0 -153 129z" />
    <glyph glyph-name="acute" unicode="&#xb4;" horiz-adv-x="241" 
d="M31 569l68 125q3 5 6 7t9 2h90q6 0 7.5 -4t-2.5 -9l-90 -126q-4 -7 -13 -7h-68q-12 0 -7 12z" />
    <glyph glyph-name="uni00B5" unicode="&#xb5;" horiz-adv-x="556" 
d="M64 -173v653q0 12 11 12h95q5 0 8.5 -3.5t3.5 -8.5v-301q0 -88 64 -88q30 0 63 18.5t55 48.5v322q0 5 3.5 8.5t8.5 3.5h95q11 0 11 -12v-345q0 -30 7 -39.5t26 -9.5q10 0 17 1t11 2q11 0 11 -11v-71q0 -6 -2.5 -8.5t-9.5 -4.5q-34 -6 -58 -6q-98 0 -107 83v1
q-27 -36 -64.5 -57.5t-72.5 -21.5q-39 0 -62 18v-184q0 -12 -11 -12h-92q-11 0 -11 12z" />
    <glyph glyph-name="paragraph" unicode="&#xb6;" horiz-adv-x="620" 
d="M210.5 -181.5q-3.5 3.5 -3.5 8.5v477h-45q-70 0 -105 39t-35 105v92q0 65 35 104t105 39h378q5 0 8.5 -3.5t3.5 -8.5v-844q0 -5 -3.5 -8.5t-8.5 -3.5h-88q-11 0 -11 12v752h-123v-752q0 -12 -11 -12h-88q-5 0 -8.5 3.5z" />
    <glyph glyph-name="periodcentered" unicode="&#xb7;" horiz-adv-x="275" 
d="M80 201q-20 19 -20 52v17q0 34 19.5 52.5t57.5 18.5t57.5 -18.5t19.5 -52.5v-17q0 -33 -19.5 -52t-57.5 -19q-37 0 -57 19z" />
    <glyph glyph-name="cedilla" unicode="&#xb8;" horiz-adv-x="226" 
d="M39 -193q-6 2 -7.5 3.5t-1.5 6.5v46q0 9 7 9q6 0 14.5 -1t16.5 -1q39 0 39 22v10q0 14 -7.5 19t-24.5 5h-23q-4 0 -5.5 1.5t-1.5 5.5q0 15 2 21l25 78q3 7 10 7h63q9 0 6 -12l-21 -63h9q27 0 42 -17t15 -46v-16q0 -82 -107 -82q-30 0 -50 4z" />
    <glyph glyph-name="uni00B9" unicode="&#xb9;" horiz-adv-x="435" 
d="M67 358v63q0 11 12 11h94v232l-90 -27l-4 -1q-8 0 -8 10v62q0 12 10 15l148 45q8 3 15 3h16q11 0 11 -10v-329h86q11 0 11 -11v-63q0 -12 -11 -12h-278q-12 0 -12 12z" />
    <glyph glyph-name="ordmasculine" unicode="&#xba;" horiz-adv-x="403" 
d="M90.5 353q-40.5 41 -40.5 112v49q0 71 40.5 112t110.5 41q71 0 111.5 -41t40.5 -112v-49q0 -71 -40.5 -112t-111.5 -41q-70 0 -110.5 41zM247.5 413.5q16.5 17.5 16.5 49.5v54q0 32 -16.5 49.5t-46.5 17.5t-46 -17.5t-16 -49.5v-54q0 -32 16 -49.5t46 -17.5t46.5 17.5z
M58 192v62q0 5 3.5 8.5t8.5 3.5h263q5 0 8.5 -3.5t3.5 -8.5v-62q0 -11 -12 -11h-263q-12 0 -12 11z" />
    <glyph glyph-name="guillemotright" unicode="&#xbb;" horiz-adv-x="514" 
d="M59.5 93q-2.5 4 1.5 10l87 161l-88 160q-2 4 -2 6q0 8 11 8h91q9 0 15 -8l93 -158q3 -4 3 -8q0 -3 -3 -8l-93 -159q-6 -8 -15 -8h-91q-7 0 -9.5 4zM247.5 93q-2.5 4 1.5 10l87 161l-88 160q-2 4 -2 6q0 8 11 8h91q9 0 15 -8l93 -158q3 -4 3 -8q0 -3 -3 -8l-93 -159
q-6 -8 -15 -8h-91q-7 0 -9.5 4z" />
    <glyph glyph-name="onequarter" unicode="&#xbc;" horiz-adv-x="1001" 
d="M67 246v63q0 11 12 11h94v232l-90 -27l-4 -1q-8 0 -8 10v62q0 12 10 15l148 45q8 3 15 3h16q11 0 11 -10v-329h86q11 0 11 -11v-63q0 -12 -11 -12h-278q-12 0 -12 12zM302 -29.5q-2 3.5 0 8.5l187 369l163 333q4 7 12 7h87q5 0 7.5 -3.5t-0.5 -8.5l-180 -354l-170 -348
q-3 -7 -13 -7h-86q-5 0 -7 3.5zM826.5 3.5q-3.5 3.5 -3.5 8.5v59h-215q-11 0 -11 11v8q0 11 4 18l165 303q3 6 6 8t8 2h76q7 0 9.5 -4.5t-0.5 -10.5l-135 -251h96l4 121q0 11 12 11h67q12 0 12 -11v-120h35q11 0 11 -12v-62q0 -11 -11 -11h-35v-59q0 -12 -12 -12h-74
q-5 0 -8.5 3.5z" />
    <glyph glyph-name="onehalf" unicode="&#xbd;" horiz-adv-x="1045" 
d="M67 246v63q0 11 12 11h94v232l-90 -27l-4 -1q-8 0 -8 10v62q0 12 10 15l148 45q8 3 15 3h16q11 0 11 -10v-329h86q11 0 11 -11v-63q0 -12 -11 -12h-278q-12 0 -12 12zM302 -29.5q-2 3.5 0 8.5l187 369l163 333q4 7 12 7h87q5 0 7.5 -3.5t-0.5 -8.5l-180 -354l-170 -348
q-3 -7 -13 -7h-86q-5 0 -7 3.5zM673.5 3.5q-3.5 3.5 -3.5 8.5v61q0 38 19 66t45 46t67 41q42 24 61 39t19 36v10q0 17 -13.5 25.5t-42.5 8.5t-42 -10t-13 -33q0 -11 -12 -11h-70q-10 0 -12 11q-1 64 39.5 95.5t114.5 31.5q150 0 150 -117q0 -38 -17.5 -65.5t-42 -45.5
t-62.5 -39q-40 -22 -59 -38t-21 -38h193q12 0 12 -11v-63q0 -12 -12 -12h-289q-5 0 -8.5 3.5z" />
    <glyph glyph-name="threequarters" unicode="&#xbe;" horiz-adv-x="988" 
d="M57 356q0 5 3.5 8.5t8.5 3.5h70q5 0 8.5 -3.5t3.5 -8.5q0 -26 14 -35t46 -9q66 0 66 44v12q0 42 -62 42h-53q-11 0 -11 12v54q0 11 11 11h48q31 0 44.5 10.5t13.5 33.5v11q0 36 -60 36q-32 0 -44.5 -10t-12.5 -32q0 -11 -12 -11h-69q-10 0 -12 11q-5 127 155 127
q154 0 154 -114q0 -65 -50 -95v-1q58 -25 58 -96q0 -64 -42 -97t-123 -33q-158 0 -153 129zM289 -29.5q-2 3.5 0 8.5l187 369l163 333q4 7 12 7h87q5 0 7.5 -3.5t-0.5 -8.5l-180 -354l-170 -348q-3 -7 -13 -7h-86q-5 0 -7 3.5zM813.5 3.5q-3.5 3.5 -3.5 8.5v59h-215
q-11 0 -11 11v8q0 11 4 18l165 303q3 6 6 8t8 2h76q7 0 9.5 -4.5t-0.5 -10.5l-135 -251h96l4 121q0 11 12 11h67q12 0 12 -11v-120h35q11 0 11 -12v-62q0 -11 -11 -11h-35v-59q0 -12 -12 -12h-74q-5 0 -8.5 3.5z" />
    <glyph glyph-name="questiondown" unicode="&#xbf;" horiz-adv-x="486" 
d="M344 436v-16q0 -33 -18.5 -50.5t-54.5 -17.5q-73 0 -73 68v16q0 67 73 67t73 -67zM330 274q3 -3 3 -8v-40q0 -38 -22 -65.5t-66 -64.5q-40 -32 -60.5 -57t-20.5 -57q0 -59 86 -59q51 0 71.5 22t19.5 68v3q0 11 11 11h90q12 0 12 -15q2 -95 -49.5 -141.5t-157.5 -46.5
q-202 0 -202 145q0 42 16 75.5t37.5 56.5t56.5 54q32 27 46.5 44t15.5 36v31q0 5 3.5 8t7.5 3h95q4 0 7 -3z" />
    <glyph glyph-name="Agrave" unicode="&#xc0;" horiz-adv-x="587" 
d="M588 8q0 -8 -10 -8h-106q-9 0 -13 9l-40 128h-254l-39 -127q-3 -10 -14 -10h-103q-13 0 -10 13l216 633q3 9 13 9h128q11 0 14 -9l217 -633q1 -2 1 -5zM388 235l-58 185l-7 24q-14 46 -31 107h-2q-12 -43 -38 -129l-57 -187h193zM270 715l-79 109q-3 5 -3 7q0 6 8 6h92
q8 0 13 -8l58 -109q2 -4 2 -6q0 -5 -8 -5h-70q-8 0 -13 6z" />
    <glyph glyph-name="Aacute" unicode="&#xc1;" horiz-adv-x="587" 
d="M588 8q0 -8 -10 -8h-106q-9 0 -13 9l-40 128h-254l-39 -127q-3 -10 -14 -10h-103q-13 0 -10 13l216 633q3 9 13 9h128q11 0 14 -9l217 -633q1 -2 1 -5zM388 235l-58 185l-7 24q-14 46 -31 107h-2q-12 -43 -38 -129l-57 -187h193zM223 720l59 109q3 8 13 8h91q6 0 8 -4
t-2 -9l-80 -109q-4 -6 -13 -6h-70q-12 0 -6 11z" />
    <glyph glyph-name="Acircumflex" unicode="&#xc2;" horiz-adv-x="587" 
d="M588 8q0 -8 -10 -8h-106q-9 0 -13 9l-40 128h-254l-39 -127q-3 -10 -14 -10h-103q-13 0 -10 13l216 633q3 9 13 9h128q11 0 14 -9l217 -633q1 -2 1 -5zM388 235l-58 185l-7 24q-14 46 -31 107h-2q-12 -43 -38 -129l-57 -187h193zM155 713q-7 0 -7 8v63q0 9 8 12l128 59
q3 2 8 2q6 0 9 -2l128 -59q8 -3 8 -12v-63q0 -11 -12 -7l-132 50l-133 -50q-2 -1 -5 -1z" />
    <glyph glyph-name="Atilde" unicode="&#xc3;" horiz-adv-x="587" 
d="M588 8q0 -8 -10 -8h-106q-9 0 -13 9l-40 128h-254l-39 -127q-3 -10 -14 -10h-103q-13 0 -10 13l216 633q3 9 13 9h128q11 0 14 -9l217 -633q1 -2 1 -5zM388 235l-58 185l-7 24q-14 46 -31 107h-2q-12 -43 -38 -129l-57 -187h193zM321 721.5q-13 3.5 -31 10.5
q-32 13 -54 13q-33 0 -73 -20q-4 -2 -6 -2q-8 0 -8 10v58q0 11 7 15q18 12 37.5 19.5t44.5 7.5q33 0 67 -16q11 -5 23 -8.5t24 -3.5q34 0 72 20q3 2 7 2q7 0 7 -9v-58q0 -9 -7 -15q-14 -11 -35.5 -19t-46.5 -8q-15 0 -28 3.5z" />
    <glyph glyph-name="Adieresis" unicode="&#xc4;" horiz-adv-x="587" 
d="M588 8q0 -8 -10 -8h-106q-9 0 -13 9l-40 128h-254l-39 -127q-3 -10 -14 -10h-103q-13 0 -10 13l216 633q3 9 13 9h128q11 0 14 -9l217 -633q1 -2 1 -5zM388 235l-58 185l-7 24q-14 46 -31 107h-2q-12 -43 -38 -129l-57 -187h193zM152 725q-16 16 -16 44v14q0 28 16 43.5
t47 15.5q32 0 48 -15.5t16 -43.5v-14q0 -28 -16.5 -44t-47.5 -16t-47 16zM339 725q-16 16 -16 44v14q0 28 16 43.5t47 15.5t47 -15.5t16 -43.5v-14q0 -28 -16 -44t-47 -16t-47 16z" />
    <glyph glyph-name="Aring" unicode="&#xc5;" horiz-adv-x="587" 
d="M588 8q0 -8 -10 -8h-106q-9 0 -13 9l-40 128h-254l-39 -127q-3 -10 -14 -10h-103q-13 0 -10 13l206 606q-33 25 -33 74q0 51 32 78.5t90 27.5q56 0 88.5 -27.5t32.5 -78.5q0 -50 -36 -75l208 -605q1 -2 1 -5zM259.5 658.5q11.5 -12.5 34.5 -12.5q22 0 33.5 12.5
t11.5 33.5q0 22 -11 34t-34 12q-46 0 -46 -46q0 -21 11.5 -33.5zM389 235l-59 185q-22 76 -38 133h-2q-15 -54 -38 -131l-58 -187h195z" />
    <glyph glyph-name="AE" unicode="&#xc6;" horiz-adv-x="847" 
d="M-0.5 3.5q-2.5 3.5 0.5 10.5l299 632q4 9 14 9h461q5 0 8.5 -3.5t3.5 -8.5v-82q0 -5 -3.5 -8.5t-8.5 -3.5h-274v-167h250q5 0 8.5 -3.5t3.5 -8.5v-77q0 -5 -3.5 -8.5t-8.5 -3.5h-250v-175h274q5 0 8.5 -3.5t3.5 -8.5v-82q0 -5 -3.5 -8.5t-8.5 -3.5h-380q-5 0 -8.5 3.5
t-3.5 8.5v125h-194l-60 -128q-4 -9 -14 -9h-105q-7 0 -9.5 3.5zM382 235v224v109h-2q-20 -52 -43 -108l-107 -225h152z" />
    <glyph glyph-name="Ccedilla" unicode="&#xc7;" horiz-adv-x="643" 
d="M584 219q1 -8 1 -23q0 -87 -59 -142t-161 -64l-9 -26h9q27 0 42 -17t15 -46v-16q0 -82 -107 -82q-30 0 -50 4q-6 2 -7.5 3.5t-1.5 6.5v46q0 9 7 9q6 0 14.5 -1t16.5 -1q39 0 39 22v10q0 14 -7.5 19t-24.5 5h-23q-4 0 -5.5 1.5t-1.5 5.5q0 15 2 21l11 36q-108 9 -165 71
t-57 174v184q0 122 67.5 185t194.5 63q78 0 137.5 -24t92 -68.5t32.5 -105.5q0 -22 -2 -33q-2 -14 -12 -14h-97q-6 0 -9 3.5t-2 8.5q2 61 -33 94.5t-105 33.5t-107 -36.5t-37 -108.5v-179q0 -72 37 -108.5t107 -36.5q67 0 103 30.5t36 83.5l-1 14v2q0 10 11 10h96
q11 0 13 -14z" />
    <glyph glyph-name="Egrave" unicode="&#xc8;" horiz-adv-x="540" 
d="M74 12v631q0 12 11 12h383q5 0 8 -3.5t3 -8.5v-82q0 -5 -3 -8.5t-8 -3.5h-274v-167h250q5 0 8 -3.5t3 -8.5v-77q0 -5 -3 -8.5t-8 -3.5h-250v-175h274q5 0 8 -3.5t3 -8.5v-82q0 -5 -3 -8.5t-8 -3.5h-383q-11 0 -11 12zM255 715l-79 109q-3 5 -3 7q0 6 8 6h92q8 0 13 -8
l58 -109q2 -4 2 -6q0 -5 -8 -5h-70q-8 0 -13 6z" />
    <glyph glyph-name="Eacute" unicode="&#xc9;" horiz-adv-x="540" 
d="M74 12v631q0 12 11 12h383q5 0 8 -3.5t3 -8.5v-82q0 -5 -3 -8.5t-8 -3.5h-274v-167h250q5 0 8 -3.5t3 -8.5v-77q0 -5 -3 -8.5t-8 -3.5h-250v-175h274q5 0 8 -3.5t3 -8.5v-82q0 -5 -3 -8.5t-8 -3.5h-383q-11 0 -11 12zM208 720l59 109q3 8 13 8h91q6 0 8 -4t-2 -9
l-80 -109q-4 -6 -13 -6h-70q-12 0 -6 11z" />
    <glyph glyph-name="Ecircumflex" unicode="&#xca;" horiz-adv-x="540" 
d="M74 12v631q0 12 11 12h383q5 0 8 -3.5t3 -8.5v-82q0 -5 -3 -8.5t-8 -3.5h-274v-167h250q5 0 8 -3.5t3 -8.5v-77q0 -5 -3 -8.5t-8 -3.5h-250v-175h274q5 0 8 -3.5t3 -8.5v-82q0 -5 -3 -8.5t-8 -3.5h-383q-11 0 -11 12zM140 713q-7 0 -7 8v63q0 9 8 12l128 59q3 2 8 2
q6 0 9 -2l128 -59q8 -3 8 -12v-63q0 -11 -12 -7l-132 50l-133 -50q-2 -1 -5 -1z" />
    <glyph glyph-name="Edieresis" unicode="&#xcb;" horiz-adv-x="540" 
d="M74 12v631q0 12 11 12h383q5 0 8 -3.5t3 -8.5v-82q0 -5 -3 -8.5t-8 -3.5h-274v-167h250q5 0 8 -3.5t3 -8.5v-77q0 -5 -3 -8.5t-8 -3.5h-250v-175h274q5 0 8 -3.5t3 -8.5v-82q0 -5 -3 -8.5t-8 -3.5h-383q-11 0 -11 12zM137 725q-16 16 -16 44v14q0 28 16 43.5t47 15.5
q32 0 48 -15.5t16 -43.5v-14q0 -28 -16.5 -44t-47.5 -16t-47 16zM324 725q-16 16 -16 44v14q0 28 16 43.5t47 15.5t47 -15.5t16 -43.5v-14q0 -28 -16 -44t-47 -16t-47 16z" />
    <glyph glyph-name="Igrave" unicode="&#xcc;" horiz-adv-x="267" 
d="M74 12v631q0 12 11 12h97q5 0 8.5 -3.5t3.5 -8.5v-631q0 -5 -3.5 -8.5t-8.5 -3.5h-97q-11 0 -11 12zM112 715l-79 109q-3 5 -3 7q0 6 8 6h92q8 0 13 -8l58 -109q2 -4 2 -6q0 -5 -8 -5h-70q-8 0 -13 6z" />
    <glyph glyph-name="Iacute" unicode="&#xcd;" horiz-adv-x="267" 
d="M74 12v631q0 12 11 12h97q5 0 8.5 -3.5t3.5 -8.5v-631q0 -5 -3.5 -8.5t-8.5 -3.5h-97q-11 0 -11 12zM65 720l59 109q3 8 13 8h91q6 0 8 -4t-2 -9l-80 -109q-4 -6 -13 -6h-70q-12 0 -6 11z" />
    <glyph glyph-name="Icircumflex" unicode="&#xce;" horiz-adv-x="267" 
d="M74 12v631q0 12 11 12h97q5 0 8.5 -3.5t3.5 -8.5v-631q0 -5 -3.5 -8.5t-8.5 -3.5h-97q-11 0 -11 12zM-3 713q-7 0 -7 8v63q0 9 8 12l128 59q3 2 8 2q6 0 9 -2l128 -59q8 -3 8 -12v-63q0 -11 -12 -7l-132 50l-133 -50q-2 -1 -5 -1z" />
    <glyph glyph-name="Idieresis" unicode="&#xcf;" horiz-adv-x="267" 
d="M74 12v631q0 12 11 12h97q5 0 8.5 -3.5t3.5 -8.5v-631q0 -5 -3.5 -8.5t-8.5 -3.5h-97q-11 0 -11 12zM-6 725q-16 16 -16 44v14q0 28 16 43.5t47 15.5q32 0 48 -15.5t16 -43.5v-14q0 -28 -16.5 -44t-47.5 -16t-47 16zM181 725q-16 16 -16 44v14q0 28 16 43.5t47 15.5
t47 -15.5t16 -43.5v-14q0 -28 -16 -44t-47 -16t-47 16z" />
    <glyph glyph-name="Eth" unicode="&#xd0;" horiz-adv-x="649" 
d="M518 583q76 -72 76 -216v-60q0 -154 -76 -230.5t-231 -76.5h-202q-11 0 -11 12v273h-61q-11 0 -11 12v68q0 12 11 12h61v266q0 12 11 12h202q155 0 231 -72zM474 368q0 93 -47.5 138.5t-147.5 45.5h-85v-175h118q5 0 8.5 -3.5t3.5 -8.5v-68q0 -5 -3.5 -8.5t-8.5 -3.5
h-118v-182h85q100 0 147.5 50t47.5 153v62z" />
    <glyph glyph-name="Ntilde" unicode="&#xd1;" horiz-adv-x="669" 
d="M74 12v631q0 12 11 12h142q9 0 14 -8l161 -325q55 -111 79 -175h3q-5 88 -5 180v316q0 12 11 12h94q5 0 8.5 -3.5t3.5 -8.5v-631q0 -5 -3.5 -8.5t-8.5 -3.5h-140q-9 0 -14 8l-156 314q-32 64 -83 183h-3q3 -93 3 -191v-302q0 -5 -3.5 -8.5t-8.5 -3.5h-94q-11 0 -11 12z
M363 721.5q-13 3.5 -31 10.5q-32 13 -54 13q-33 0 -73 -20q-4 -2 -6 -2q-8 0 -8 10v58q0 11 7 15q18 12 37.5 19.5t44.5 7.5q33 0 67 -16q11 -5 23 -8.5t24 -3.5q34 0 72 20q3 2 7 2q7 0 7 -9v-58q0 -9 -7 -15q-14 -11 -35.5 -19t-46.5 -8q-15 0 -28 3.5z" />
    <glyph glyph-name="Ograve" unicode="&#xd2;" horiz-adv-x="651" 
d="M128.5 51q-66.5 63 -66.5 183v187q0 120 66.5 183t197.5 63q130 0 196.5 -63t66.5 -183v-187q0 -120 -66.5 -183t-196.5 -63q-131 0 -197.5 63zM432.5 130.5q36.5 37.5 36.5 109.5v175q0 72 -36.5 109.5t-106.5 37.5q-71 0 -107.5 -37.5t-36.5 -109.5v-175
q0 -72 36.5 -109.5t107.5 -37.5q70 0 106.5 37.5zM303 715l-79 109q-3 5 -3 7q0 6 8 6h92q8 0 13 -8l58 -109q2 -4 2 -6q0 -5 -8 -5h-70q-8 0 -13 6z" />
    <glyph glyph-name="Oacute" unicode="&#xd3;" horiz-adv-x="651" 
d="M128.5 51q-66.5 63 -66.5 183v187q0 120 66.5 183t197.5 63q130 0 196.5 -63t66.5 -183v-187q0 -120 -66.5 -183t-196.5 -63q-131 0 -197.5 63zM432.5 130.5q36.5 37.5 36.5 109.5v175q0 72 -36.5 109.5t-106.5 37.5q-71 0 -107.5 -37.5t-36.5 -109.5v-175
q0 -72 36.5 -109.5t107.5 -37.5q70 0 106.5 37.5zM255 720l59 109q3 8 13 8h91q6 0 8 -4t-2 -9l-80 -109q-4 -6 -13 -6h-70q-12 0 -6 11z" />
    <glyph glyph-name="Ocircumflex" unicode="&#xd4;" horiz-adv-x="651" 
d="M128.5 51q-66.5 63 -66.5 183v187q0 120 66.5 183t197.5 63q130 0 196.5 -63t66.5 -183v-187q0 -120 -66.5 -183t-196.5 -63q-131 0 -197.5 63zM432.5 130.5q36.5 37.5 36.5 109.5v175q0 72 -36.5 109.5t-106.5 37.5q-71 0 -107.5 -37.5t-36.5 -109.5v-175
q0 -72 36.5 -109.5t107.5 -37.5q70 0 106.5 37.5zM188 713q-7 0 -7 8v63q0 9 8 12l128 59q3 2 8 2q6 0 9 -2l128 -59q8 -3 8 -12v-63q0 -11 -12 -7l-132 50l-133 -50q-2 -1 -5 -1z" />
    <glyph glyph-name="Otilde" unicode="&#xd5;" horiz-adv-x="651" 
d="M128.5 51q-66.5 63 -66.5 183v187q0 120 66.5 183t197.5 63q130 0 196.5 -63t66.5 -183v-187q0 -120 -66.5 -183t-196.5 -63q-131 0 -197.5 63zM432.5 130.5q36.5 37.5 36.5 109.5v175q0 72 -36.5 109.5t-106.5 37.5q-71 0 -107.5 -37.5t-36.5 -109.5v-175
q0 -72 36.5 -109.5t107.5 -37.5q70 0 106.5 37.5zM354 721.5q-13 3.5 -31 10.5q-32 13 -54 13q-33 0 -73 -20q-4 -2 -6 -2q-8 0 -8 10v58q0 11 7 15q18 12 37.5 19.5t44.5 7.5q33 0 67 -16q11 -5 23 -8.5t24 -3.5q34 0 72 20q3 2 7 2q7 0 7 -9v-58q0 -9 -7 -15
q-14 -11 -35.5 -19t-46.5 -8q-15 0 -28 3.5z" />
    <glyph glyph-name="Odieresis" unicode="&#xd6;" horiz-adv-x="651" 
d="M128.5 51q-66.5 63 -66.5 183v187q0 120 66.5 183t197.5 63q130 0 196.5 -63t66.5 -183v-187q0 -120 -66.5 -183t-196.5 -63q-131 0 -197.5 63zM432.5 130.5q36.5 37.5 36.5 109.5v175q0 72 -36.5 109.5t-106.5 37.5q-71 0 -107.5 -37.5t-36.5 -109.5v-175
q0 -72 36.5 -109.5t107.5 -37.5q70 0 106.5 37.5zM185 725q-16 16 -16 44v14q0 28 16 43.5t47 15.5q32 0 48 -15.5t16 -43.5v-14q0 -28 -16.5 -44t-47.5 -16t-47 16zM372 725q-16 16 -16 44v14q0 28 16 43.5t47 15.5t47 -15.5t16 -43.5v-14q0 -28 -16 -44t-47 -16t-47 16z
" />
    <glyph glyph-name="multiply" unicode="&#xd7;" horiz-adv-x="600" 
d="M125 176q-4 6 -4 9q0 4 4 8l108 108l-108 107q-4 6 -4 9q0 4 4 8l51 51q4 3 9 3t8 -3l108 -108l107 108q5 3 9 3q5 0 8 -3l51 -51q3 -3 3 -8q0 -4 -3 -9l-108 -107l108 -108q3 -3 3 -8q0 -4 -3 -9l-51 -51q-4 -4 -8 -4q-3 0 -9 4l-107 108l-108 -108q-4 -4 -8 -4
q-3 0 -9 4z" />
    <glyph glyph-name="Oslash" unicode="&#xd8;" horiz-adv-x="651" 
d="M602 701q2 -4 -2 -10l-62 -103q51 -61 51 -167v-187q0 -120 -66.5 -183t-196.5 -63q-80 0 -137 24l-34 -55q-3 -7 -14 -7h-82q-7 0 -9 4t1 10l63 102q-52 61 -52 168v187q0 120 66.5 183t197.5 63q80 0 137 -24l33 54q5 8 14 8h83q7 0 9 -4zM182 240q0 -31 8 -60l222 361
q-34 21 -86 21q-71 0 -107.5 -37.5t-36.5 -109.5v-175zM469 415q0 33 -7 57l-220 -360q35 -19 84 -19q70 0 106.5 37.5t36.5 109.5v175z" />
    <glyph glyph-name="Ugrave" unicode="&#xd9;" horiz-adv-x="651" 
d="M135 50.5q-66 62.5 -66 184.5v408q0 12 11 12h97q5 0 8.5 -3.5t3.5 -8.5v-406q0 -70 34.5 -107t102.5 -37t102.5 37t34.5 107v406q0 12 11 12h97q5 0 8.5 -3.5t3.5 -8.5v-410q0 -119 -66.5 -182t-190.5 -63q-125 0 -191 62.5zM303 715l-79 109q-3 5 -3 7q0 6 8 6h92
q8 0 13 -8l58 -109q2 -4 2 -6q0 -5 -8 -5h-70q-8 0 -13 6z" />
    <glyph glyph-name="Uacute" unicode="&#xda;" horiz-adv-x="651" 
d="M135 50.5q-66 62.5 -66 184.5v408q0 12 11 12h97q5 0 8.5 -3.5t3.5 -8.5v-406q0 -70 34.5 -107t102.5 -37t102.5 37t34.5 107v406q0 12 11 12h97q5 0 8.5 -3.5t3.5 -8.5v-410q0 -119 -66.5 -182t-190.5 -63q-125 0 -191 62.5zM256 720l59 109q3 8 13 8h91q6 0 8 -4t-2 -9
l-80 -109q-4 -6 -13 -6h-70q-12 0 -6 11z" />
    <glyph glyph-name="Ucircumflex" unicode="&#xdb;" horiz-adv-x="651" 
d="M135 50.5q-66 62.5 -66 184.5v408q0 12 11 12h97q5 0 8.5 -3.5t3.5 -8.5v-406q0 -70 34.5 -107t102.5 -37t102.5 37t34.5 107v406q0 12 11 12h97q5 0 8.5 -3.5t3.5 -8.5v-410q0 -119 -66.5 -182t-190.5 -63q-125 0 -191 62.5zM189 713q-7 0 -7 8v63q0 9 8 12l128 59
q3 2 8 2q6 0 9 -2l128 -59q8 -3 8 -12v-63q0 -11 -12 -7l-132 50l-133 -50q-2 -1 -5 -1z" />
    <glyph glyph-name="Udieresis" unicode="&#xdc;" horiz-adv-x="651" 
d="M135 50.5q-66 62.5 -66 184.5v408q0 12 11 12h97q5 0 8.5 -3.5t3.5 -8.5v-406q0 -70 34.5 -107t102.5 -37t102.5 37t34.5 107v406q0 12 11 12h97q5 0 8.5 -3.5t3.5 -8.5v-410q0 -119 -66.5 -182t-190.5 -63q-125 0 -191 62.5zM185 725q-16 16 -16 44v14q0 28 16 43.5
t47 15.5q32 0 48 -15.5t16 -43.5v-14q0 -28 -16.5 -44t-47.5 -16t-47 16zM372 725q-16 16 -16 44v14q0 28 16 43.5t47 15.5t47 -15.5t16 -43.5v-14q0 -28 -16 -44t-47 -16t-47 16z" />
    <glyph glyph-name="Yacute" unicode="&#xdd;" horiz-adv-x="563" 
d="M222 12v214l-214 415q-2 4 -2 6q0 8 10 8h110q11 0 14 -8l89 -189q25 -54 53 -119h1q18 42 54 120l88 188q3 8 14 8h108q6 0 8.5 -4t-0.5 -10l-213 -415v-214q0 -5 -3.5 -8.5t-8.5 -3.5h-97q-11 0 -11 12zM212 720l59 109q3 8 13 8h91q6 0 8 -4t-2 -9l-80 -109
q-4 -6 -13 -6h-70q-12 0 -6 11z" />
    <glyph glyph-name="Thorn" unicode="&#xde;" horiz-adv-x="559" 
d="M74 12v631q0 12 11 12h97q5 0 8.5 -3.5t3.5 -8.5v-91h77q129 0 191 -53.5t62 -159.5q0 -104 -63.5 -158.5t-188.5 -54.5h-78v-114q0 -5 -3.5 -8.5t-8.5 -3.5h-97q-11 0 -11 12zM270 228q69 0 101.5 26t32.5 83q0 59 -33 86t-102 27h-75v-222h76z" />
    <glyph glyph-name="germandbls" unicode="&#xdf;" horiz-adv-x="562" 
d="M247.5 18.5q-34.5 30.5 -32.5 98.5q0 11 13 11h77q10 0 10 -12q0 -38 48 -38q57 0 57 53q0 33 -19 55.5t-59 51.5q-42 30 -63.5 55.5t-21.5 64.5q0 27 10.5 46.5t31.5 43.5q21 26 30.5 43.5t9.5 42.5q0 66 -74 66q-43 0 -63 -25t-20 -77v-486q0 -5 -3.5 -8.5t-8.5 -3.5
h-95q-11 0 -11 12v482q0 103 50 152t154 49q88 0 138.5 -39t50.5 -109q0 -41 -13.5 -66.5t-38.5 -53.5q-15 -17 -21.5 -27t-6.5 -23q0 -18 13.5 -33.5t43.5 -39.5q32 -26 52.5 -46.5t35.5 -51.5t15 -72q0 -146 -172 -146q-83 0 -117.5 30.5z" />
    <glyph glyph-name="agrave" unicode="&#xe0;" horiz-adv-x="504" 
d="M447 11q0 -11 -11 -11h-83q-10 0 -13 13q-4 23 -9 63q-44 -45 -83 -66.5t-86 -21.5q-60 0 -92 36t-32 103q0 52 20 84.5t65 50.5t122 25l78 7v40q0 43 -17 60t-59 17q-75 0 -74 -55q0 -12 -11 -12h-90q-8 0 -11 7t-3 24q0 61 51.5 95t142.5 34q97 0 143 -41.5t46 -130.5
v-208q0 -64 6 -111v-2zM257 97q28 16 66 54v71l-68 -6q-58 -5 -80 -22t-22 -55q0 -30 12 -44t37 -14q27 0 55 16zM230 564l-90 126q-2 4 -2 6q0 7 8 7h90q10 0 14 -9l68 -125q2 -4 2 -6q0 -6 -8 -6h-69q-8 0 -13 7z" />
    <glyph glyph-name="aacute" unicode="&#xe1;" horiz-adv-x="504" 
d="M447 11q0 -11 -11 -11h-83q-10 0 -13 13q-4 23 -9 63q-44 -45 -83 -66.5t-86 -21.5q-60 0 -92 36t-32 103q0 52 20 84.5t65 50.5t122 25l78 7v40q0 43 -17 60t-59 17q-75 0 -74 -55q0 -12 -11 -12h-90q-8 0 -11 7t-3 24q0 61 51.5 95t142.5 34q97 0 143 -41.5t46 -130.5
v-208q0 -64 6 -111v-2zM257 97q28 16 66 54v71l-68 -6q-58 -5 -80 -22t-22 -55q0 -30 12 -44t37 -14q27 0 55 16zM177 569l68 125q3 5 6 7t9 2h90q6 0 7.5 -4t-2.5 -9l-90 -126q-4 -7 -13 -7h-68q-12 0 -7 12z" />
    <glyph glyph-name="acircumflex" unicode="&#xe2;" horiz-adv-x="504" 
d="M447 11q0 -11 -11 -11h-83q-10 0 -13 13q-4 23 -9 63q-44 -45 -83 -66.5t-86 -21.5q-60 0 -92 36t-32 103q0 52 20 84.5t65 50.5t122 25l78 7v40q0 43 -17 60t-59 17q-75 0 -74 -55q0 -12 -11 -12h-90q-8 0 -11 7t-3 24q0 61 51.5 95t142.5 34q97 0 143 -41.5t46 -130.5
v-208q0 -64 6 -111v-2zM257 97q28 16 66 54v71l-68 -6q-58 -5 -80 -22t-22 -55q0 -30 12 -44t37 -14q27 0 55 16zM120 547q-6 0 -6 8v64q0 8 7 14l119 69q3 2 8 2q6 0 9 -2l119 -69q7 -6 7 -14v-64q0 -6 -3.5 -7.5t-9.5 2.5l-121 60l-122 -60q-4 -3 -7 -3z" />
    <glyph glyph-name="atilde" unicode="&#xe3;" horiz-adv-x="504" 
d="M447 11q0 -11 -11 -11h-83q-10 0 -13 13q-4 23 -9 63q-44 -45 -83 -66.5t-86 -21.5q-60 0 -92 36t-32 103q0 52 20 84.5t65 50.5t122 25l78 7v40q0 43 -17 60t-59 17q-75 0 -74 -55q0 -12 -11 -12h-90q-8 0 -11 7t-3 24q0 61 51.5 95t142.5 34q97 0 143 -41.5t46 -130.5
v-208q0 -64 6 -111v-2zM257 97q28 16 66 54v71l-68 -6q-58 -5 -80 -22t-22 -55q0 -30 12 -44t37 -14q27 0 55 16zM274 568.5q-12 3.5 -29 10.5q-30 13 -50 13q-15 0 -30.5 -5.5t-36.5 -14.5q-4 -2 -6 -2q-8 0 -8 10v58q0 9 7 15q13 11 33 19t43 8q20 0 34 -4t29 -12
q2 -1 15 -6.5t27 -5.5q24 0 67 20q6 2 7 2q7 0 7 -9v-58q0 -9 -7 -15q-13 -11 -33 -19t-43 -8q-14 0 -26 3.5z" />
    <glyph glyph-name="adieresis" unicode="&#xe4;" horiz-adv-x="504" 
d="M447 11q0 -11 -11 -11h-83q-10 0 -13 13q-4 23 -9 63q-44 -45 -83 -66.5t-86 -21.5q-60 0 -92 36t-32 103q0 52 20 84.5t65 50.5t122 25l78 7v40q0 43 -17 60t-59 17q-75 0 -74 -55q0 -12 -11 -12h-90q-8 0 -11 7t-3 24q0 61 51.5 95t142.5 34q97 0 143 -41.5t46 -130.5
v-208q0 -64 6 -111v-2zM257 97q28 16 66 54v71l-68 -6q-58 -5 -80 -22t-22 -55q0 -30 12 -44t37 -14q27 0 55 16zM107 579.5q-16 15.5 -16 43.5v14q0 28 16 44t47 16q32 0 48 -16t16 -44v-14q0 -28 -16 -43.5t-48 -15.5q-31 0 -47 15.5zM294 579.5q-16 15.5 -16 43.5v14
q0 28 16 44t48 16q31 0 47 -15.5t16 -44.5v-14q0 -28 -16 -43.5t-47 -15.5q-32 0 -48 15.5z" />
    <glyph glyph-name="aring" unicode="&#xe5;" horiz-adv-x="504" 
d="M447 11q0 -11 -11 -11h-83q-10 0 -13 13q-4 23 -9 63q-44 -45 -83 -66.5t-86 -21.5q-60 0 -92 36t-32 103q0 52 20 84.5t65 50.5t122 25l78 7v40q0 43 -17 60t-59 17q-75 0 -74 -55q0 -12 -11 -12h-90q-8 0 -11 7t-3 24q0 61 51.5 95t142.5 34q97 0 143 -41.5t46 -130.5
v-208q0 -64 6 -111v-2zM257 97q28 16 66 54v71l-68 -6q-58 -5 -80 -22t-22 -55q0 -30 12 -44t37 -14q27 0 55 16zM160 580.5q-32 27.5 -32 78.5t31.5 78.5t89.5 27.5q57 0 89 -27.5t32 -78.5t-32 -78.5t-89 -27.5t-89 27.5zM292 660q0 43 -43 43t-43 -43t43 -43t43 43z" />
    <glyph glyph-name="ae" unicode="&#xe6;" horiz-adv-x="789" 
d="M69.5 24q-31.5 36 -31.5 103q0 54 20.5 87t65 51t121.5 25l78 7v37q0 43 -17 60t-59 17q-75 0 -74 -55q0 -12 -11 -12h-90q-7 0 -10 6.5t-3 23.5q0 61 49 95.5t136 34.5q106 0 146 -64q24 31 65.5 48t89.5 17q93 0 144 -51.5t51 -145.5v-74q0 -5 -3.5 -8.5t-8.5 -3.5
h-291v-34q0 -56 22 -81t71 -25q39 0 61.5 13t22.5 35q0 16 12 16h92q12 0 12 -20q0 -67 -52.5 -102.5t-150.5 -35.5q-141 0 -183 94q-47 -49 -91.5 -71.5t-92.5 -22.5q-59 0 -90.5 36zM623 299v2q0 56 -21.5 82.5t-67.5 26.5q-49 0 -73 -27t-24 -82v-2h186zM257.5 97.5
q27.5 16.5 67.5 55.5q-2 14 -2 47v22l-68 -6q-58 -5 -80 -22t-22 -55q0 -30 12.5 -44t38.5 -14t53.5 16.5z" />
    <glyph glyph-name="ccedilla" unicode="&#xe7;" horiz-adv-x="526" 
d="M194.5 376q-25.5 -27 -25.5 -85v-90q0 -57 25 -84t77 -27q43 0 67 18t24 48q0 15 11 15h90q12 0 12 -11q2 -73 -42 -118t-128 -52l-9 -26h9q27 0 42 -17t15 -46v-16q0 -82 -107 -82q-30 0 -50 4q-6 2 -7.5 3.5t-1.5 6.5v46q0 9 7 9q6 0 14.5 -1t16.5 -1q39 0 39 22v10
q0 14 -7.5 19t-24.5 5h-23q-4 0 -5.5 1.5t-1.5 5.5q0 15 2 21l12 37q-85 10 -129.5 61.5t-44.5 137.5v113q0 97 57 149t163 52q65 0 112 -21t71 -58t22 -84q0 -21 -12 -21h-90q-11 0 -11 16q0 32 -24.5 49.5t-66.5 17.5q-52 0 -77.5 -27z" />
    <glyph glyph-name="egrave" unicode="&#xe8;" horiz-adv-x="530" 
d="M51 177v124q0 100 54 151.5t161 51.5q105 0 159.5 -49.5t54.5 -146.5v-78q0 -5 -3.5 -8.5t-8.5 -3.5h-300v-30q0 -55 23.5 -80.5t76.5 -25.5q41 0 63.5 13.5t22.5 38.5q0 12 12 12h92q10 0 12 -11q2 -71 -50 -109t-153 -38q-216 0 -216 189zM364 298v5q0 55 -23.5 81
t-73.5 26q-51 0 -75 -26.5t-24 -81.5v-4h196zM245 572l-90 126q-2 4 -2 6q0 7 8 7h90q10 0 14 -9l68 -125q2 -4 2 -6q0 -6 -8 -6h-69q-8 0 -13 7z" />
    <glyph glyph-name="eacute" unicode="&#xe9;" horiz-adv-x="530" 
d="M51 177v124q0 100 54 151.5t161 51.5q105 0 159.5 -49.5t54.5 -146.5v-78q0 -5 -3.5 -8.5t-8.5 -3.5h-300v-30q0 -55 23.5 -80.5t76.5 -25.5q41 0 63.5 13.5t22.5 38.5q0 12 12 12h92q10 0 12 -11q2 -71 -50 -109t-153 -38q-216 0 -216 189zM364 298v5q0 55 -23.5 81
t-73.5 26q-51 0 -75 -26.5t-24 -81.5v-4h196zM192 577l68 125q3 5 6 7t9 2h90q6 0 7.5 -4t-2.5 -9l-90 -126q-4 -7 -13 -7h-68q-12 0 -7 12z" />
    <glyph glyph-name="ecircumflex" unicode="&#xea;" horiz-adv-x="530" 
d="M51 177v124q0 100 54 151.5t161 51.5q105 0 159.5 -49.5t54.5 -146.5v-78q0 -5 -3.5 -8.5t-8.5 -3.5h-300v-30q0 -55 23.5 -80.5t76.5 -25.5q41 0 63.5 13.5t22.5 38.5q0 12 12 12h92q10 0 12 -11q2 -71 -50 -109t-153 -38q-216 0 -216 189zM364 298v5q0 55 -23.5 81
t-73.5 26q-51 0 -75 -26.5t-24 -81.5v-4h196zM135 555q-6 0 -6 8v64q0 8 7 14l119 69q3 2 8 2q6 0 9 -2l119 -69q7 -6 7 -14v-64q0 -6 -3.5 -7.5t-9.5 2.5l-121 60l-122 -60q-4 -3 -7 -3z" />
    <glyph glyph-name="edieresis" unicode="&#xeb;" horiz-adv-x="530" 
d="M51 177v124q0 100 54 151.5t161 51.5q105 0 159.5 -49.5t54.5 -146.5v-78q0 -5 -3.5 -8.5t-8.5 -3.5h-300v-30q0 -55 23.5 -80.5t76.5 -25.5q41 0 63.5 13.5t22.5 38.5q0 12 12 12h92q10 0 12 -11q2 -71 -50 -109t-153 -38q-216 0 -216 189zM364 298v5q0 55 -23.5 81
t-73.5 26q-51 0 -75 -26.5t-24 -81.5v-4h196zM122 587.5q-16 15.5 -16 43.5v14q0 28 16 44t47 16q32 0 48 -16t16 -44v-14q0 -28 -16 -43.5t-48 -15.5q-31 0 -47 15.5zM309 587.5q-16 15.5 -16 43.5v14q0 28 16 44t48 16q31 0 47 -15.5t16 -44.5v-14q0 -28 -16 -43.5
t-47 -15.5q-32 0 -48 15.5z" />
    <glyph glyph-name="igrave" unicode="&#xec;" horiz-adv-x="245" 
d="M64 12v468q0 12 11 12h95q5 0 8.5 -3.5t3.5 -8.5v-468q0 -5 -3.5 -8.5t-8.5 -3.5h-95q-11 0 -11 12zM104 564l-90 126q-2 4 -2 6q0 7 8 7h90q10 0 14 -9l68 -125q2 -4 2 -6q0 -6 -8 -6h-69q-8 0 -13 7z" />
    <glyph glyph-name="iacute" unicode="&#xed;" horiz-adv-x="245" 
d="M64 12v468q0 12 11 12h95q5 0 8.5 -3.5t3.5 -8.5v-468q0 -5 -3.5 -8.5t-8.5 -3.5h-95q-11 0 -11 12zM51 569l68 125q3 5 6 7t9 2h90q6 0 7.5 -4t-2.5 -9l-90 -126q-4 -7 -13 -7h-68q-12 0 -7 12z" />
    <glyph glyph-name="icircumflex" unicode="&#xee;" horiz-adv-x="245" 
d="M64 12v468q0 12 11 12h95q5 0 8.5 -3.5t3.5 -8.5v-468q0 -5 -3.5 -8.5t-8.5 -3.5h-95q-11 0 -11 12zM-6 547q-6 0 -6 8v64q0 8 7 14l119 69q3 2 8 2q6 0 9 -2l119 -69q7 -6 7 -14v-64q0 -6 -3.5 -7.5t-9.5 2.5l-121 60l-122 -60q-4 -3 -7 -3z" />
    <glyph glyph-name="idieresis" unicode="&#xef;" horiz-adv-x="245" 
d="M64 12v468q0 12 11 12h95q5 0 8.5 -3.5t3.5 -8.5v-468q0 -5 -3.5 -8.5t-8.5 -3.5h-95q-11 0 -11 12zM-19 579.5q-16 15.5 -16 43.5v14q0 28 16 44t47 16q32 0 48 -16t16 -44v-14q0 -28 -16 -43.5t-48 -15.5q-31 0 -47 15.5zM168 579.5q-16 15.5 -16 43.5v14q0 28 16 44
t48 16q31 0 47 -15.5t16 -44.5v-14q0 -28 -16 -43.5t-47 -15.5q-32 0 -48 15.5z" />
    <glyph glyph-name="eth" unicode="&#xf0;" horiz-adv-x="534" 
d="M459.5 492q23.5 -63 23.5 -138v-155q0 -101 -57.5 -156t-162.5 -55q-212 0 -212 198v84q0 96 41.5 144.5t118.5 48.5q44 0 84.5 -15.5t71.5 -45.5q-12 94 -76 149l-97 -48q-2 -1 -5 -1q-4 0 -8 8l-19 37l-1 3q0 6 7 9l62 31q-28 13 -64 22q-20 6 -11 18l40 56q5 8 13 8
q5 0 8 -1q67 -14 122 -49l95 47q2 1 5 1q4 0 8 -8l18 -37l1 -3q0 -5 -7 -9l-68 -34q46 -46 69.5 -109zM367 207v94q-25 30 -57 46.5t-64 16.5q-77 0 -77 -106v-70q0 -53 23 -76.5t74 -23.5q101 0 101 119z" />
    <glyph glyph-name="ntilde" unicode="&#xf1;" horiz-adv-x="558" 
d="M495 339v-327q0 -5 -3.5 -8.5t-8.5 -3.5h-94q-5 0 -8.5 3.5t-3.5 8.5v308q0 42 -17 62t-52 20q-30 0 -59.5 -16t-66.5 -50v-324q0 -5 -3.5 -8.5t-8.5 -3.5h-95q-11 0 -11 12v355q0 46 -7 111v3q0 11 12 11h84q6 0 9 -2t4 -9q4 -19 8 -61q44 42 84.5 63t90.5 21
q146 0 146 -165zM306 568.5q-12 3.5 -29 10.5q-30 13 -50 13q-15 0 -30.5 -5.5t-36.5 -14.5q-4 -2 -6 -2q-8 0 -8 10v58q0 9 7 15q13 11 33 19t43 8q20 0 34 -4t29 -12q2 -1 15 -6.5t27 -5.5q24 0 67 20q6 2 7 2q7 0 7 -9v-58q0 -9 -7 -15q-13 -11 -33 -19t-43 -8
q-14 0 -26 3.5z" />
    <glyph glyph-name="ograve" unicode="&#xf2;" horiz-adv-x="544" 
d="M107.5 39q-56.5 51 -56.5 153v108q0 101 57 152.5t164 51.5t163.5 -51.5t56.5 -152.5v-108q0 -102 -56 -153t-164 -51t-164.5 51zM349.5 116.5q24.5 27.5 24.5 86.5v86q0 59 -24.5 86.5t-77.5 27.5q-54 0 -78.5 -27.5t-24.5 -86.5v-86q0 -59 24.5 -86.5t78.5 -27.5
q53 0 77.5 27.5zM253 564l-90 126q-2 4 -2 6q0 7 8 7h90q10 0 14 -9l68 -125q2 -4 2 -6q0 -6 -8 -6h-69q-8 0 -13 7z" />
    <glyph glyph-name="oacute" unicode="&#xf3;" horiz-adv-x="544" 
d="M107.5 39q-56.5 51 -56.5 153v108q0 101 57 152.5t164 51.5t163.5 -51.5t56.5 -152.5v-108q0 -102 -56 -153t-164 -51t-164.5 51zM349.5 116.5q24.5 27.5 24.5 86.5v86q0 59 -24.5 86.5t-77.5 27.5q-54 0 -78.5 -27.5t-24.5 -86.5v-86q0 -59 24.5 -86.5t78.5 -27.5
q53 0 77.5 27.5zM200 569l68 125q3 5 6 7t9 2h90q6 0 7.5 -4t-2.5 -9l-90 -126q-4 -7 -13 -7h-68q-12 0 -7 12z" />
    <glyph glyph-name="ocircumflex" unicode="&#xf4;" horiz-adv-x="544" 
d="M107.5 39q-56.5 51 -56.5 153v108q0 101 57 152.5t164 51.5t163.5 -51.5t56.5 -152.5v-108q0 -102 -56 -153t-164 -51t-164.5 51zM349.5 116.5q24.5 27.5 24.5 86.5v86q0 59 -24.5 86.5t-77.5 27.5q-54 0 -78.5 -27.5t-24.5 -86.5v-86q0 -59 24.5 -86.5t78.5 -27.5
q53 0 77.5 27.5zM143 547q-6 0 -6 8v64q0 8 7 14l119 69q3 2 8 2q6 0 9 -2l119 -69q7 -6 7 -14v-64q0 -6 -3.5 -7.5t-9.5 2.5l-121 60l-122 -60q-4 -3 -7 -3z" />
    <glyph glyph-name="otilde" unicode="&#xf5;" horiz-adv-x="544" 
d="M107.5 39q-56.5 51 -56.5 153v108q0 101 57 152.5t164 51.5t163.5 -51.5t56.5 -152.5v-108q0 -102 -56 -153t-164 -51t-164.5 51zM349.5 116.5q24.5 27.5 24.5 86.5v86q0 59 -24.5 86.5t-77.5 27.5q-54 0 -78.5 -27.5t-24.5 -86.5v-86q0 -59 24.5 -86.5t78.5 -27.5
q53 0 77.5 27.5zM297 568.5q-12 3.5 -29 10.5q-30 13 -50 13q-15 0 -30.5 -5.5t-36.5 -14.5q-4 -2 -6 -2q-8 0 -8 10v58q0 9 7 15q13 11 33 19t43 8q20 0 34 -4t29 -12q2 -1 15 -6.5t27 -5.5q24 0 67 20q6 2 7 2q7 0 7 -9v-58q0 -9 -7 -15q-13 -11 -33 -19t-43 -8
q-14 0 -26 3.5z" />
    <glyph glyph-name="odieresis" unicode="&#xf6;" horiz-adv-x="544" 
d="M107.5 39q-56.5 51 -56.5 153v108q0 101 57 152.5t164 51.5t163.5 -51.5t56.5 -152.5v-108q0 -102 -56 -153t-164 -51t-164.5 51zM349.5 116.5q24.5 27.5 24.5 86.5v86q0 59 -24.5 86.5t-77.5 27.5q-54 0 -78.5 -27.5t-24.5 -86.5v-86q0 -59 24.5 -86.5t78.5 -27.5
q53 0 77.5 27.5zM130 579.5q-16 15.5 -16 43.5v14q0 28 16 44t47 16q32 0 48 -16t16 -44v-14q0 -28 -16 -43.5t-48 -15.5q-31 0 -47 15.5zM317 579.5q-16 15.5 -16 43.5v14q0 28 16 44t48 16q31 0 47 -15.5t16 -44.5v-14q0 -28 -16 -43.5t-47 -15.5q-32 0 -48 15.5z" />
    <glyph glyph-name="divide" unicode="&#xf7;" horiz-adv-x="600" 
d="M253.5 401.5q-15.5 14.5 -15.5 39.5v16q0 26 15.5 40.5t46.5 14.5q32 0 47.5 -14.5t15.5 -40.5v-16q0 -25 -16 -39.5t-47 -14.5t-46.5 14.5zM89 264v72q0 12 11 12h400q11 0 11 -12v-72q0 -12 -11 -12h-400q-11 0 -11 12zM253.5 102.5q-15.5 14.5 -15.5 39.5v16
q0 26 15.5 40.5t46.5 14.5t47 -14.5t16 -40.5v-16q0 -25 -16 -39.5t-47 -14.5t-46.5 14.5z" />
    <glyph glyph-name="oslash" unicode="&#xf8;" horiz-adv-x="544" 
d="M532 538.5q2 -4.5 -2 -10.5l-73 -100q35 -50 35 -128v-108q0 -102 -56 -153t-164 -51q-68 0 -113 19l-37 -51q-4 -7 -15 -7h-86q-7 0 -9 4t2 10l73 100q-36 48 -36 129v108q0 101 57 152.5t164 51.5q64 0 113 -20l37 51q5 8 14 8h87q7 0 9 -4.5zM169 203q0 -20 3 -38
l160 225q-23 13 -60 13q-54 0 -78.5 -27.5t-24.5 -86.5v-86zM374 289q0 21 -3 37l-158 -224q22 -13 59 -13q53 0 77.5 27.5t24.5 86.5v86z" />
    <glyph glyph-name="ugrave" unicode="&#xf9;" horiz-adv-x="546" 
d="M489 10q0 -4 -3.5 -7t-8.5 -3h-81q-13 0 -14 11q-7 46 -8 63q-43 -41 -86 -63.5t-90 -22.5q-66 0 -100 41.5t-34 123.5v327q0 12 11 12h95q5 0 8.5 -3.5t3.5 -8.5v-308q0 -42 14.5 -62t45.5 -20q28 0 56.5 16t65.5 50v324q0 5 3.5 8.5t8.5 3.5h95q11 0 11 -12v-355
q0 -63 7 -113v-2zM255 564l-90 126q-2 4 -2 6q0 7 8 7h90q10 0 14 -9l68 -125q2 -4 2 -6q0 -6 -8 -6h-69q-8 0 -13 7z" />
    <glyph glyph-name="uacute" unicode="&#xfa;" horiz-adv-x="546" 
d="M489 10q0 -4 -3.5 -7t-8.5 -3h-81q-13 0 -14 11q-7 46 -8 63q-43 -41 -86 -63.5t-90 -22.5q-66 0 -100 41.5t-34 123.5v327q0 12 11 12h95q5 0 8.5 -3.5t3.5 -8.5v-308q0 -42 14.5 -62t45.5 -20q28 0 56.5 16t65.5 50v324q0 5 3.5 8.5t8.5 3.5h95q11 0 11 -12v-355
q0 -63 7 -113v-2zM201 569l68 125q3 5 6 7t9 2h90q6 0 7.5 -4t-2.5 -9l-90 -126q-4 -7 -13 -7h-68q-12 0 -7 12z" />
    <glyph glyph-name="ucircumflex" unicode="&#xfb;" horiz-adv-x="546" 
d="M489 10q0 -4 -3.5 -7t-8.5 -3h-81q-13 0 -14 11q-7 46 -8 63q-43 -41 -86 -63.5t-90 -22.5q-66 0 -100 41.5t-34 123.5v327q0 12 11 12h95q5 0 8.5 -3.5t3.5 -8.5v-308q0 -42 14.5 -62t45.5 -20q28 0 56.5 16t65.5 50v324q0 5 3.5 8.5t8.5 3.5h95q11 0 11 -12v-355
q0 -63 7 -113v-2zM145 547q-6 0 -6 8v64q0 8 7 14l119 69q3 2 8 2q6 0 9 -2l119 -69q7 -6 7 -14v-64q0 -6 -3.5 -7.5t-9.5 2.5l-121 60l-122 -60q-4 -3 -7 -3z" />
    <glyph glyph-name="udieresis" unicode="&#xfc;" horiz-adv-x="546" 
d="M489 10q0 -4 -3.5 -7t-8.5 -3h-81q-13 0 -14 11q-7 46 -8 63q-43 -41 -86 -63.5t-90 -22.5q-66 0 -100 41.5t-34 123.5v327q0 12 11 12h95q5 0 8.5 -3.5t3.5 -8.5v-308q0 -42 14.5 -62t45.5 -20q28 0 56.5 16t65.5 50v324q0 5 3.5 8.5t8.5 3.5h95q11 0 11 -12v-355
q0 -63 7 -113v-2zM132 579.5q-16 15.5 -16 43.5v14q0 28 16 44t47 16q32 0 48 -16t16 -44v-14q0 -28 -16 -43.5t-48 -15.5q-31 0 -47 15.5zM319 579.5q-16 15.5 -16 43.5v14q0 28 16 44t48 16q31 0 47 -15.5t16 -44.5v-14q0 -28 -16 -43.5t-47 -15.5q-32 0 -48 15.5z" />
    <glyph glyph-name="yacute" unicode="&#xfd;" horiz-adv-x="512" 
d="M134.5 -181q-2.5 4 0.5 10l67 175l-183 474q-1 2 -1 5q0 9 10 9h103q10 0 13 -10l72 -205q18 -50 40 -135h2q19 69 41 135l72 205q3 10 13 10h100q15 0 10 -14l-245 -654q-4 -9 -13 -9h-93q-6 0 -8.5 4zM184 569l68 125q3 5 6 7t9 2h90q6 0 7.5 -4t-2.5 -9l-90 -126
q-4 -7 -13 -7h-68q-12 0 -7 12z" />
    <glyph glyph-name="thorn" unicode="&#xfe;" horiz-adv-x="540" 
d="M64 -173v844q0 12 11 12h95q5 0 8.5 -3.5t3.5 -8.5v-234q40 34 77 50.5t81 16.5q147 0 147 -177v-137q0 -101 -45.5 -151.5t-131.5 -50.5q-31 0 -66 7.5t-62 20.5v-189q0 -5 -3.5 -8.5t-8.5 -3.5h-95q-11 0 -11 12zM369 201v106q0 49 -17 72t-53 23q-27 0 -53.5 -13.5
t-63.5 -45.5v-235q48 -21 95 -21q92 0 92 114z" />
    <glyph glyph-name="ydieresis" unicode="&#xff;" horiz-adv-x="512" 
d="M134.5 -181q-2.5 4 0.5 10l67 175l-183 474q-1 2 -1 5q0 9 10 9h103q10 0 13 -10l72 -205q18 -50 40 -135h2q19 69 41 135l72 205q3 10 13 10h100q15 0 10 -14l-245 -654q-4 -9 -13 -9h-93q-6 0 -8.5 4zM114 579.5q-16 15.5 -16 43.5v14q0 28 16 44t47 16q32 0 48 -16
t16 -44v-14q0 -28 -16 -43.5t-48 -15.5q-31 0 -47 15.5zM301 579.5q-16 15.5 -16 43.5v14q0 28 16 44t48 16q31 0 47 -15.5t16 -44.5v-14q0 -28 -16 -43.5t-47 -15.5q-32 0 -48 15.5z" />
    <glyph glyph-name="Amacron" unicode="&#x100;" horiz-adv-x="587" 
d="M588 8q0 -8 -10 -8h-106q-9 0 -13 9l-40 128h-254l-39 -127q-3 -10 -14 -10h-103q-13 0 -10 13l216 633q3 9 13 9h128q11 0 14 -9l217 -633q1 -2 1 -5zM388 235l-58 185l-7 24q-14 46 -31 107h-2q-12 -43 -38 -129l-57 -187h193zM169.5 719.5q-3.5 3.5 -3.5 8.5v66
q0 5 3.5 8.5t8.5 3.5h229q5 0 8.5 -3.5t3.5 -8.5v-66q0 -5 -3.5 -8.5t-8.5 -3.5h-229q-5 0 -8.5 3.5z" />
    <glyph glyph-name="amacron" unicode="&#x101;" horiz-adv-x="504" 
d="M447 11q0 -11 -11 -11h-83q-10 0 -13 13q-4 23 -9 63q-44 -45 -83 -66.5t-86 -21.5q-60 0 -92 36t-32 103q0 52 20 84.5t65 50.5t122 25l78 7v40q0 43 -17 60t-59 17q-75 0 -74 -55q0 -12 -11 -12h-90q-8 0 -11 7t-3 24q0 61 51.5 95t142.5 34q97 0 143 -41.5t46 -130.5
v-208q0 -64 6 -111v-2zM257 97q28 16 66 54v71l-68 -6q-58 -5 -80 -22t-22 -55q0 -30 12 -44t37 -14q27 0 55 16zM135.5 573.5q-3.5 3.5 -3.5 8.5v66q0 11 12 11h209q12 0 12 -11v-66q0 -5 -3.5 -8.5t-8.5 -3.5h-209q-5 0 -8.5 3.5z" />
    <glyph glyph-name="Abreve" unicode="&#x102;" horiz-adv-x="587" 
d="M588 8q0 -8 -10 -8h-106q-9 0 -13 9l-40 128h-254l-39 -127q-3 -10 -14 -10h-103q-13 0 -10 13l216 633q3 9 13 9h128q11 0 14 -9l217 -633q1 -2 1 -5zM388 235l-58 185l-7 24q-14 46 -31 107h-2q-12 -43 -38 -129l-57 -187h193zM212.5 726.5q-38.5 15.5 -57.5 31.5
q-5 5 -5 13v66q0 7 3.5 9.5t9.5 -1.5q25 -18 60 -32.5t70 -14.5q34 0 69 14.5t60 32.5q3 2 7 2q6 0 6 -10v-66q0 -8 -5 -13q-19 -16 -57.5 -31.5t-79.5 -15.5q-42 0 -80.5 15.5z" />
    <glyph glyph-name="abreve" unicode="&#x103;" horiz-adv-x="504" 
d="M447 11q0 -11 -11 -11h-83q-10 0 -13 13q-4 23 -9 63q-44 -45 -83 -66.5t-86 -21.5q-60 0 -92 36t-32 103q0 52 20 84.5t65 50.5t122 25l78 7v40q0 43 -17 60t-59 17q-75 0 -74 -55q0 -12 -11 -12h-90q-8 0 -11 7t-3 24q0 61 51.5 95t142.5 34q97 0 143 -41.5t46 -130.5
v-208q0 -64 6 -111v-2zM257 97q28 16 66 54v71l-68 -6q-58 -5 -80 -22t-22 -55q0 -30 12 -44t37 -14q27 0 55 16zM172 572q-32 16 -50 36q-4 4 -4 13v66q0 10 6 10q1 0 7 -4q55 -50 118 -50q36 0 66.5 15t50.5 35q4 4 7 4q6 0 6 -10v-66q0 -10 -5 -15q-56 -50 -125 -50
q-45 0 -77 16z" />
    <glyph glyph-name="Aogonek" unicode="&#x104;" horiz-adv-x="587" 
d="M580 -109q7 0 7 -8v-64q0 -5 -2 -7t-8 -4q-21 -5 -52 -5q-50 0 -77.5 22.5t-27.5 60.5v11q0 31 18 57.5t51 45.5h-17q-9 0 -13 9l-40 128h-254l-39 -127q-3 -10 -14 -10h-103q-13 0 -10 13l216 633q3 9 13 9h128q11 0 14 -9l217 -633q1 -2 1 -5q0 -8 -10 -8h-12
q-26 -12 -40 -31.5t-14 -41.5v-8q0 -16 9 -23t28 -7q8 0 28 2h3zM388 235l-58 185l-7 24q-14 46 -31 107h-2q-12 -43 -38 -129l-57 -187h193z" />
    <glyph glyph-name="aogonek" unicode="&#x105;" horiz-adv-x="504" 
d="M448 -109q7 0 7 -8v-64q0 -5 -2 -7t-8 -4q-21 -5 -52 -5q-50 0 -77.5 22.5t-27.5 60.5v11q0 31 18 57.5t51 45.5h-4q-10 0 -13 13q-4 23 -9 63q-44 -45 -83 -66.5t-86 -21.5q-60 0 -92 36t-32 103q0 52 20 84.5t65 50.5t122 25l78 7v40q0 43 -17 60t-59 17q-75 0 -74 -55
q0 -12 -11 -12h-90q-8 0 -11 7t-3 24q0 61 51.5 95t142.5 34q97 0 143 -41.5t46 -130.5v-208q0 -64 6 -111v-2q0 -11 -11 -11h-2q-26 -12 -40 -31.5t-14 -41.5v-8q0 -16 9 -23t28 -7q8 0 28 2h3zM257 97q28 16 66 54v71l-68 -6q-58 -5 -80 -22t-22 -55q0 -30 12 -44t37 -14
q27 0 55 16z" />
    <glyph glyph-name="Cacute" unicode="&#x106;" horiz-adv-x="643" 
d="M129.5 50.5q-67.5 62.5 -67.5 184.5v184q0 122 67.5 185t194.5 63q78 0 137.5 -24t92 -68.5t32.5 -105.5q0 -22 -2 -33q-2 -14 -12 -14h-97q-6 0 -9 3.5t-2 8.5q2 61 -33 94.5t-105 33.5t-107 -36.5t-37 -108.5v-179q0 -72 37 -108.5t107 -36.5q67 0 103 30.5t36 83.5
l-1 14v2q0 10 11 10h96q11 0 13 -14q1 -8 1 -23q0 -96 -70.5 -152t-190.5 -56q-127 0 -194.5 62.5zM252 720l59 109q3 8 13 8h91q6 0 8 -4t-2 -9l-80 -109q-4 -6 -13 -6h-70q-12 0 -6 11z" />
    <glyph glyph-name="cacute" unicode="&#x107;" horiz-adv-x="526" 
d="M107.5 40q-56.5 52 -56.5 150v113q0 97 57 149t163 52q65 0 112 -21t71 -58t22 -84q0 -21 -12 -21h-90q-11 0 -11 16q0 32 -24.5 49.5t-66.5 17.5q-52 0 -77.5 -27t-25.5 -85v-90q0 -57 25 -84t77 -27q43 0 67 18t24 48q0 15 11 15h90q12 0 12 -11q2 -80 -51 -126
t-154 -46q-106 0 -162.5 52zM192 569l68 125q3 5 6 7t9 2h90q6 0 7.5 -4t-2.5 -9l-90 -126q-4 -7 -13 -7h-68q-12 0 -7 12z" />
    <glyph glyph-name="Cdotaccent" unicode="&#x10a;" horiz-adv-x="643" 
d="M129.5 50.5q-67.5 62.5 -67.5 184.5v184q0 122 67.5 185t194.5 63q78 0 137.5 -24t92 -68.5t32.5 -105.5q0 -22 -2 -33q-2 -14 -12 -14h-97q-6 0 -9 3.5t-2 8.5q2 61 -33 94.5t-105 33.5t-107 -36.5t-37 -108.5v-179q0 -72 37 -108.5t107 -36.5q67 0 103 30.5t36 83.5
l-1 14v2q0 10 11 10h96q11 0 13 -14q1 -8 1 -23q0 -96 -70.5 -152t-190.5 -56q-127 0 -194.5 62.5zM271.5 739.5q-17.5 17.5 -17.5 46.5v15q0 30 17.5 47t51.5 17t51 -17t17 -47v-15q0 -29 -17.5 -46.5t-50.5 -17.5q-34 0 -51.5 17.5z" />
    <glyph glyph-name="cdotaccent" unicode="&#x10b;" horiz-adv-x="526" 
d="M107.5 40q-56.5 52 -56.5 150v113q0 97 57 149t163 52q65 0 112 -21t71 -58t22 -84q0 -21 -12 -21h-90q-11 0 -11 16q0 32 -24.5 49.5t-66.5 17.5q-52 0 -77.5 -27t-25.5 -85v-90q0 -57 25 -84t77 -27q43 0 67 18t24 48q0 15 11 15h90q12 0 12 -11q2 -80 -51 -126
t-154 -46q-106 0 -162.5 52zM212.5 580.5q-17.5 17.5 -17.5 46.5v15q0 30 17.5 47t51.5 17t51 -17t17 -47v-15q0 -29 -17.5 -46.5t-50.5 -17.5q-34 0 -51.5 17.5z" />
    <glyph glyph-name="Ccaron" unicode="&#x10c;" horiz-adv-x="643" 
d="M129.5 50.5q-67.5 62.5 -67.5 184.5v184q0 122 67.5 185t194.5 63q78 0 137.5 -24t92 -68.5t32.5 -105.5q0 -22 -2 -33q-2 -14 -12 -14h-97q-6 0 -9 3.5t-2 8.5q2 61 -33 94.5t-105 33.5t-107 -36.5t-37 -108.5v-179q0 -72 37 -108.5t107 -36.5q67 0 103 30.5t36 83.5
l-1 14v2q0 10 11 10h96q11 0 13 -14q1 -8 1 -23q0 -96 -70.5 -152t-190.5 -56q-127 0 -194.5 62.5zM186 773q-5 2 -6.5 4.5t-1.5 7.5v64q0 12 12 6l133 -50l132 50l6 2q6 0 6 -8v-64q0 -5 -1.5 -7.5t-6.5 -4.5l-128 -58q-6 -2 -9 -2l-8 2z" />
    <glyph glyph-name="ccaron" unicode="&#x10d;" horiz-adv-x="526" 
d="M107.5 40q-56.5 52 -56.5 150v113q0 97 57 149t163 52q65 0 112 -21t71 -58t22 -84q0 -21 -12 -21h-90q-11 0 -11 16q0 32 -24.5 49.5t-66.5 17.5q-52 0 -77.5 -27t-25.5 -85v-90q0 -57 25 -84t77 -27q43 0 67 18t24 48q0 15 11 15h90q12 0 12 -11q2 -80 -51 -126
t-154 -46q-106 0 -162.5 52zM136 619q-7 4 -7 14v63q0 13 13 6l122 -61l121 61q6 2 7 2q6 0 6 -8v-63q0 -10 -7 -14l-119 -69q-5 -3 -9 -3q-3 0 -8 3z" />
    <glyph glyph-name="Dcaron" unicode="&#x10e;" horiz-adv-x="649" 
d="M74 12v631q0 12 11 12h202q155 0 231 -72t76 -216v-60q0 -154 -76 -230.5t-231 -76.5h-202q-11 0 -11 12zM279 103q100 0 147.5 50t47.5 153v62q0 93 -47.5 138.5t-147.5 45.5h-85v-449h85zM160 773q-5 2 -6.5 4.5t-1.5 7.5v64q0 12 12 6l133 -50l132 50l6 2q6 0 6 -8
v-64q0 -5 -1.5 -7.5t-6.5 -4.5l-128 -58q-6 -2 -9 -2l-8 2z" />
    <glyph glyph-name="dcaron" unicode="&#x10f;" horiz-adv-x="546" 
d="M489 10q0 -10 -12 -10h-83q-12 0 -13 11q-4 25 -8 63q-43 -43 -84.5 -64.5t-91.5 -21.5q-144 0 -144 178v136q0 99 46.5 150.5t131.5 51.5q33 0 70 -7.5t63 -20.5v195q0 5 3.5 8.5t8.5 3.5h94q5 0 8.5 -3.5t3.5 -8.5v-552q0 -56 6 -104zM240 90q30 0 58.5 15.5t65.5 50.5
v227q-24 11 -51.5 16.5t-49.5 5.5q-92 0 -92 -114v-113q0 -88 69 -88zM539 537l12 55q-14 6 -21 15t-7 25v22q0 19 14 30.5t38 11.5q27 0 41 -11t14 -31v-23q0 -23 -8 -46l-19 -50q-3 -8 -12 -8h-44q-10 0 -8 10z" />
    <glyph glyph-name="Dcroat" unicode="&#x110;" horiz-adv-x="649" 
d="M518 583q76 -72 76 -216v-60q0 -154 -76 -230.5t-231 -76.5h-202q-11 0 -11 12v273h-61q-11 0 -11 12v68q0 12 11 12h61v266q0 12 11 12h202q155 0 231 -72zM474 368q0 93 -47.5 138.5t-147.5 45.5h-85v-175h118q5 0 8.5 -3.5t3.5 -8.5v-68q0 -5 -3.5 -8.5t-8.5 -3.5
h-118v-182h85q100 0 147.5 50t47.5 153v62z" />
    <glyph glyph-name="dcroat" unicode="&#x111;" horiz-adv-x="549" 
d="M550.5 629.5q3.5 -3.5 3.5 -8.5v-58q0 -5 -3.5 -8.5t-8.5 -3.5h-60v-432q0 -56 6 -104l1 -5q0 -10 -12 -10h-83q-12 0 -13 11q-4 25 -8 63q-43 -43 -84.5 -64.5t-91.5 -21.5q-144 0 -144 178v136q0 99 46.5 150.5t131.5 51.5q33 0 70 -7.5t63 -20.5v75h-91q-5 0 -8.5 3.5
t-3.5 8.5v58q0 5 3.5 8.5t8.5 3.5h91v38q0 5 3.5 8.5t8.5 3.5h94q5 0 8.5 -3.5t3.5 -8.5v-38h60q5 0 8.5 -3.5zM240 90q30 0 58.5 15.5t65.5 50.5v227q-24 11 -51.5 16.5t-49.5 5.5q-92 0 -92 -114v-113q0 -88 69 -88z" />
    <glyph glyph-name="Emacron" unicode="&#x112;" horiz-adv-x="540" 
d="M74 12v631q0 12 11 12h383q5 0 8 -3.5t3 -8.5v-82q0 -5 -3 -8.5t-8 -3.5h-274v-167h250q5 0 8 -3.5t3 -8.5v-77q0 -5 -3 -8.5t-8 -3.5h-250v-175h274q5 0 8 -3.5t3 -8.5v-82q0 -5 -3 -8.5t-8 -3.5h-383q-11 0 -11 12zM154.5 719.5q-3.5 3.5 -3.5 8.5v66q0 5 3.5 8.5
t8.5 3.5h229q5 0 8.5 -3.5t3.5 -8.5v-66q0 -5 -3.5 -8.5t-8.5 -3.5h-229q-5 0 -8.5 3.5z" />
    <glyph glyph-name="emacron" unicode="&#x113;" horiz-adv-x="530" 
d="M51 177v124q0 100 54 151.5t161 51.5q105 0 159.5 -49.5t54.5 -146.5v-78q0 -5 -3.5 -8.5t-8.5 -3.5h-300v-30q0 -55 23.5 -80.5t76.5 -25.5q41 0 63.5 13.5t22.5 38.5q0 12 12 12h92q10 0 12 -11q2 -71 -50 -109t-153 -38q-216 0 -216 189zM364 298v5q0 55 -23.5 81
t-73.5 26q-51 0 -75 -26.5t-24 -81.5v-4h196zM150.5 581.5q-3.5 3.5 -3.5 8.5v66q0 11 12 11h209q12 0 12 -11v-66q0 -5 -3.5 -8.5t-8.5 -3.5h-209q-5 0 -8.5 3.5z" />
    <glyph glyph-name="Edotaccent" unicode="&#x116;" horiz-adv-x="540" 
d="M74 12v631q0 12 11 12h383q5 0 8 -3.5t3 -8.5v-82q0 -5 -3 -8.5t-8 -3.5h-274v-167h250q5 0 8 -3.5t3 -8.5v-77q0 -5 -3 -8.5t-8 -3.5h-250v-175h274q5 0 8 -3.5t3 -8.5v-82q0 -5 -3 -8.5t-8 -3.5h-383q-11 0 -11 12zM226.5 739.5q-17.5 17.5 -17.5 46.5v15q0 30 17.5 47
t51.5 17t51 -17t17 -47v-15q0 -29 -17.5 -46.5t-50.5 -17.5q-34 0 -51.5 17.5z" />
    <glyph glyph-name="edotaccent" unicode="&#x117;" horiz-adv-x="530" 
d="M51 177v124q0 100 54 151.5t161 51.5q105 0 159.5 -49.5t54.5 -146.5v-78q0 -5 -3.5 -8.5t-8.5 -3.5h-300v-30q0 -55 23.5 -80.5t76.5 -25.5q41 0 63.5 13.5t22.5 38.5q0 12 12 12h92q10 0 12 -11q2 -71 -50 -109t-153 -38q-216 0 -216 189zM364 298v5q0 55 -23.5 81
t-73.5 26q-51 0 -75 -26.5t-24 -81.5v-4h196zM212.5 588.5q-17.5 17.5 -17.5 46.5v15q0 30 17.5 47t51.5 17t51 -17t17 -47v-15q0 -29 -17.5 -46.5t-50.5 -17.5q-34 0 -51.5 17.5z" />
    <glyph glyph-name="Eogonek" unicode="&#x118;" horiz-adv-x="540" 
d="M194 549v-167h250q5 0 8 -3.5t3 -8.5v-77q0 -5 -3 -8.5t-8 -3.5h-250v-175h274q5 0 8 -3.5t3 -8.5v-82q0 -5 -3 -8.5t-8 -3.5h-28q-26 -12 -40 -31.5t-14 -41.5v-8q0 -16 9 -23t28 -7q8 0 28 2h3q7 0 7 -8v-64q0 -5 -2 -7t-8 -4q-21 -5 -52 -5q-50 0 -77.5 22.5
t-27.5 60.5v11q0 31 18 57.5t51 45.5h-278q-11 0 -11 12v631q0 12 11 12h383q5 0 8 -3.5t3 -8.5v-82q0 -5 -3 -8.5t-8 -3.5h-274z" />
    <glyph glyph-name="eogonek" unicode="&#x119;" horiz-adv-x="530" 
d="M425.5 454.5q54.5 -49.5 54.5 -146.5v-78q0 -5 -3.5 -8.5t-8.5 -3.5h-300v-30q0 -55 23.5 -80.5t76.5 -25.5q41 0 63.5 13.5t22.5 38.5q0 12 12 12h92q10 0 12 -11q1 -49 -23 -82t-72 -50q-27 -12 -42.5 -32t-15.5 -43v-8q0 -16 9 -23t28 -7q8 0 28 2h3q7 0 7 -8v-64
q0 -5 -2 -7t-8 -4q-21 -5 -52 -5q-50 0 -77.5 22.5t-27.5 60.5v11q0 53 49 90h-7q-216 0 -216 189v124q0 100 54 151.5t161 51.5q105 0 159.5 -49.5zM364 303q0 55 -23.5 81t-73.5 26q-51 0 -75 -26.5t-24 -81.5v-4h196v5z" />
    <glyph glyph-name="Ecaron" unicode="&#x11a;" horiz-adv-x="540" 
d="M74 12v631q0 12 11 12h383q5 0 8 -3.5t3 -8.5v-82q0 -5 -3 -8.5t-8 -3.5h-274v-167h250q5 0 8 -3.5t3 -8.5v-77q0 -5 -3 -8.5t-8 -3.5h-250v-175h274q5 0 8 -3.5t3 -8.5v-82q0 -5 -3 -8.5t-8 -3.5h-383q-11 0 -11 12zM141 773q-5 2 -6.5 4.5t-1.5 7.5v64q0 12 12 6
l133 -50l132 50l6 2q6 0 6 -8v-64q0 -5 -1.5 -7.5t-6.5 -4.5l-128 -58q-6 -2 -9 -2l-8 2z" />
    <glyph glyph-name="ecaron" unicode="&#x11b;" horiz-adv-x="530" 
d="M51 177v124q0 100 54 151.5t161 51.5q105 0 159.5 -49.5t54.5 -146.5v-78q0 -5 -3.5 -8.5t-8.5 -3.5h-300v-30q0 -55 23.5 -80.5t76.5 -25.5q41 0 63.5 13.5t22.5 38.5q0 12 12 12h92q10 0 12 -11q2 -71 -50 -109t-153 -38q-216 0 -216 189zM364 298v5q0 55 -23.5 81
t-73.5 26q-51 0 -75 -26.5t-24 -81.5v-4h196zM136 627q-7 4 -7 14v63q0 13 13 6l122 -61l121 61q6 2 7 2q6 0 6 -8v-63q0 -10 -7 -14l-119 -69q-5 -3 -9 -3q-3 0 -8 3z" />
    <glyph glyph-name="Gbreve" unicode="&#x11e;" horiz-adv-x="660" 
d="M127.5 52.5q-65.5 64.5 -65.5 182.5v185q0 119 69.5 183t195.5 64q79 0 137.5 -24t89.5 -67.5t31 -99.5q0 -8 -2 -28q-1 -12 -12 -12l-97 1q-11 0 -11 12q3 55 -30.5 84t-103.5 29q-147 0 -147 -145v-179q0 -74 36 -109.5t109 -35.5q71 0 107.5 32.5t36.5 94.5v32h-135
q-5 0 -8.5 3.5t-3.5 8.5v67q0 11 12 11h238q11 0 11 -11v-184q0 -81 8 -134v-3q0 -10 -10 -10h-78q-10 0 -13 10q-4 22 -6 62h-2q-27 -40 -72 -62t-107 -22q-112 0 -177.5 64.5zM239.5 726.5q-38.5 15.5 -57.5 31.5q-5 5 -5 13v66q0 7 3.5 9.5t9.5 -1.5q25 -18 60 -32.5
t70 -14.5q34 0 69 14.5t60 32.5q3 2 7 2q6 0 6 -10v-66q0 -8 -5 -13q-19 -16 -57.5 -31.5t-79.5 -15.5q-42 0 -80.5 15.5z" />
    <glyph glyph-name="gbreve" unicode="&#x11f;" horiz-adv-x="520" 
d="M464 56.5q32 -35.5 32 -103.5q0 -79 -57.5 -114.5t-184.5 -35.5q-120 0 -174.5 30.5t-54.5 93.5q0 70 61 109q-25 27 -25 68q0 30 12.5 53t42.5 45q-47 41 -47 129t48 130.5t149 42.5q98 0 145 -43t47 -131q0 -87 -47.5 -129t-146.5 -42q-46 0 -82 9q-19 -13 -19 -34
q0 -14 9 -20.5t31 -7.5l161 -10q68 -4 100 -39.5zM201 394.5q-18 -18.5 -18 -63.5q0 -44 18 -62t63 -18t62.5 18t17.5 62q0 45 -18 63.5t-62 18.5q-45 0 -63 -18.5zM354.5 -93q25.5 13 25.5 46q0 23 -11.5 34t-36.5 12l-156 9q-31 -18 -31 -57q0 -31 25 -43.5t90 -13.5
q69 0 94.5 13zM190 572q-32 16 -50 36q-4 4 -4 13v66q0 10 6 10q1 0 7 -4q55 -50 118 -50q36 0 66.5 15t50.5 35q4 4 7 4q6 0 6 -10v-66q0 -10 -5 -15q-56 -50 -125 -50q-45 0 -77 16z" />
    <glyph glyph-name="Gdotaccent" unicode="&#x120;" horiz-adv-x="660" 
d="M127.5 52.5q-65.5 64.5 -65.5 182.5v185q0 119 69.5 183t195.5 64q79 0 137.5 -24t89.5 -67.5t31 -99.5q0 -8 -2 -28q-1 -12 -12 -12l-97 1q-11 0 -11 12q3 55 -30.5 84t-103.5 29q-147 0 -147 -145v-179q0 -74 36 -109.5t109 -35.5q71 0 107.5 32.5t36.5 94.5v32h-135
q-5 0 -8.5 3.5t-3.5 8.5v67q0 11 12 11h238q11 0 11 -11v-184q0 -81 8 -134v-3q0 -10 -10 -10h-78q-10 0 -13 10q-4 22 -6 62h-2q-27 -40 -72 -62t-107 -22q-112 0 -177.5 64.5zM268.5 739.5q-17.5 17.5 -17.5 46.5v15q0 30 17.5 47t51.5 17t51 -17t17 -47v-15
q0 -29 -17.5 -46.5t-50.5 -17.5q-34 0 -51.5 17.5z" />
    <glyph glyph-name="gdotaccent" unicode="&#x121;" horiz-adv-x="520" 
d="M464 56.5q32 -35.5 32 -103.5q0 -79 -57.5 -114.5t-184.5 -35.5q-120 0 -174.5 30.5t-54.5 93.5q0 70 61 109q-25 27 -25 68q0 30 12.5 53t42.5 45q-47 41 -47 129t48 130.5t149 42.5q98 0 145 -43t47 -131q0 -87 -47.5 -129t-146.5 -42q-46 0 -82 9q-19 -13 -19 -34
q0 -14 9 -20.5t31 -7.5l161 -10q68 -4 100 -39.5zM201 394.5q-18 -18.5 -18 -63.5q0 -44 18 -62t63 -18t62.5 18t17.5 62q0 45 -18 63.5t-62 18.5q-45 0 -63 -18.5zM354.5 -93q25.5 13 25.5 46q0 23 -11.5 34t-36.5 12l-156 9q-31 -18 -31 -57q0 -31 25 -43.5t90 -13.5
q69 0 94.5 13zM215.5 580.5q-17.5 17.5 -17.5 46.5v15q0 30 17.5 47t51.5 17t51 -17t17 -47v-15q0 -29 -17.5 -46.5t-50.5 -17.5q-34 0 -51.5 17.5z" />
    <glyph glyph-name="uni0122" unicode="&#x122;" horiz-adv-x="660" 
d="M127.5 52.5q-65.5 64.5 -65.5 182.5v185q0 119 69.5 183t195.5 64q79 0 137.5 -24t89.5 -67.5t31 -99.5q0 -8 -2 -28q-1 -12 -12 -12l-97 1q-11 0 -11 12q3 55 -30.5 84t-103.5 29q-147 0 -147 -145v-179q0 -74 36 -109.5t109 -35.5q71 0 107.5 32.5t36.5 94.5v32h-135
q-5 0 -8.5 3.5t-3.5 8.5v67q0 11 12 11h238q11 0 11 -11v-184q0 -81 8 -134v-3q0 -10 -10 -10h-78q-10 0 -13 10q-4 22 -6 62h-2q-27 -40 -72 -62t-107 -22q-112 0 -177.5 64.5zM284 -237l14 69q-30 10 -30 47v18q0 24 14.5 37t40.5 13q60 0 60 -50v-19q0 -25 -9 -52
l-22 -66q-4 -7 -12 -7h-49q-10 0 -7 10z" />
    <glyph glyph-name="uni0123" unicode="&#x123;" horiz-adv-x="520" 
d="M464 56.5q32 -35.5 32 -103.5q0 -79 -57.5 -114.5t-184.5 -35.5q-120 0 -174.5 30.5t-54.5 93.5q0 70 61 109q-25 27 -25 68q0 30 12.5 53t42.5 45q-47 41 -47 129t48 130.5t149 42.5q98 0 145 -43t47 -131q0 -87 -47.5 -129t-146.5 -42q-46 0 -82 9q-19 -13 -19 -34
q0 -14 9 -20.5t31 -7.5l161 -10q68 -4 100 -39.5zM201 394.5q-18 -18.5 -18 -63.5q0 -44 18 -62t63 -18t62.5 18t17.5 62q0 45 -18 63.5t-62 18.5q-45 0 -63 -18.5zM354.5 -93q25.5 13 25.5 46q0 23 -11.5 34t-36.5 12l-156 9q-31 -18 -31 -57q0 -31 25 -43.5t90 -13.5
q69 0 94.5 13zM224 572.5q-15 13.5 -15 37.5v19q0 25 9 52l22 66q2 7 11 7h50q8 0 7 -11l-15 -68q15 -5 23 -17.5t8 -29.5v-18q0 -24 -15 -37.5t-41 -13.5q-29 0 -44 13.5z" />
    <glyph glyph-name="Hbar" unicode="&#x126;" horiz-adv-x="668" 
d="M646.5 586.5q3.5 -3.5 3.5 -8.5v-62q0 -5 -3.5 -8.5t-8.5 -3.5h-44v-492q0 -12 -11 -12h-97q-5 0 -8.5 3.5t-3.5 8.5v270h-280v-270q0 -5 -3.5 -8.5t-8.5 -3.5h-97q-11 0 -11 12v492h-44q-5 0 -8.5 3.5t-3.5 8.5v62q0 5 3.5 8.5t8.5 3.5h44v53q0 12 11 12h97
q5 0 8.5 -3.5t3.5 -8.5v-53h280v53q0 5 3.5 8.5t8.5 3.5h97q11 0 11 -12v-53h44q5 0 8.5 -3.5zM474 504h-280v-118h280v118z" />
    <glyph glyph-name="hbar" unicode="&#x127;" horiz-adv-x="562" 
d="M498 339v-327q0 -12 -11 -12h-95q-5 0 -8.5 3.5t-3.5 8.5v308q0 42 -16.5 62t-51.5 20q-60 0 -127 -67v-323q0 -5 -3.5 -8.5t-8.5 -3.5h-94q-5 0 -8.5 3.5t-3.5 8.5v539h-60q-5 0 -8.5 3.5t-3.5 8.5v58q0 5 3.5 8.5t8.5 3.5h60v38q0 5 3.5 8.5t8.5 3.5h94q5 0 8.5 -3.5
t3.5 -8.5v-38h91q5 0 8.5 -3.5t3.5 -8.5v-58q0 -5 -3.5 -8.5t-8.5 -3.5h-91v-124q40 38 80 57.5t88 19.5q145 0 145 -165z" />
    <glyph glyph-name="Imacron" unicode="&#x12a;" horiz-adv-x="267" 
d="M74 12v631q0 12 11 12h97q5 0 8.5 -3.5t3.5 -8.5v-631q0 -5 -3.5 -8.5t-8.5 -3.5h-97q-11 0 -11 12zM11.5 719.5q-3.5 3.5 -3.5 8.5v66q0 5 3.5 8.5t8.5 3.5h229q5 0 8.5 -3.5t3.5 -8.5v-66q0 -5 -3.5 -8.5t-8.5 -3.5h-229q-5 0 -8.5 3.5z" />
    <glyph glyph-name="imacron" unicode="&#x12b;" horiz-adv-x="245" 
d="M64 12v468q0 12 11 12h95q5 0 8.5 -3.5t3.5 -8.5v-468q0 -5 -3.5 -8.5t-8.5 -3.5h-95q-11 0 -11 12zM9.5 573.5q-3.5 3.5 -3.5 8.5v66q0 11 12 11h209q12 0 12 -11v-66q0 -5 -3.5 -8.5t-8.5 -3.5h-209q-5 0 -8.5 3.5z" />
    <glyph glyph-name="Iogonek" unicode="&#x12e;" horiz-adv-x="267" 
d="M195 -109q7 0 7 -8v-64q0 -5 -2 -7t-8 -4q-21 -5 -52 -5q-50 0 -77.5 22.5t-27.5 60.5v11q0 31 18 57.5t51 45.5h-19q-11 0 -11 12v631q0 12 11 12h97q5 0 8.5 -3.5t3.5 -8.5v-631q0 -5 -3.5 -8.5t-8.5 -3.5h-1q-26 -12 -40 -31.5t-14 -41.5v-8q0 -16 9 -23t28 -7
q8 0 28 2h3z" />
    <glyph glyph-name="iogonek" unicode="&#x12f;" horiz-adv-x="245" 
d="M174 689q17 -17 17 -47v-15q0 -29 -17 -46.5t-51 -17.5t-51.5 17.5t-17.5 46.5v15q0 30 17.5 47t51.5 17t51 -17zM179 -109q7 0 7 -8v-64q0 -5 -2 -7t-8 -4q-21 -5 -52 -5q-50 0 -77.5 22.5t-27.5 60.5v11q0 31 18 57.5t51 45.5h-13q-11 0 -11 12v468q0 12 11 12h95
q5 0 8.5 -3.5t3.5 -8.5v-468q0 -5 -3.5 -8.5t-8.5 -3.5h-5q-26 -12 -40 -31.5t-14 -41.5v-8q0 -16 9 -23t28 -7q8 0 28 2h3z" />
    <glyph glyph-name="Idotaccent" unicode="&#x130;" horiz-adv-x="267" 
d="M74 12v631q0 12 11 12h97q5 0 8.5 -3.5t3.5 -8.5v-631q0 -5 -3.5 -8.5t-8.5 -3.5h-97q-11 0 -11 12zM83.5 739.5q-17.5 17.5 -17.5 46.5v15q0 30 17.5 47t51.5 17t51 -17t17 -47v-15q0 -29 -17.5 -46.5t-50.5 -17.5q-34 0 -51.5 17.5z" />
    <glyph glyph-name="dotlessi" unicode="&#x131;" horiz-adv-x="245" 
d="M64 12v468q0 12 11 12h95q5 0 8.5 -3.5t3.5 -8.5v-468q0 -5 -3.5 -8.5t-8.5 -3.5h-95q-11 0 -11 12z" />
    <glyph glyph-name="IJ" unicode="&#x132;" horiz-adv-x="544" 
d="M74 12v631q0 12 11 12h97q5 0 8.5 -3.5t3.5 -8.5v-631q0 -5 -3.5 -8.5t-8.5 -3.5h-97q-11 0 -11 12zM293 -152q-9 0 -12 7l-24 82q-1 1 -1 4q0 9 16 13q79 17 79 138v551q0 12 11 12h97q5 0 8.5 -3.5t3.5 -8.5v-543q0 -221 -167 -251q-4 -1 -11 -1z" />
    <glyph glyph-name="ij" unicode="&#x133;" horiz-adv-x="491" 
d="M64 12v468q0 12 11 12h95q5 0 8.5 -3.5t3.5 -8.5v-468q0 -5 -3.5 -8.5t-8.5 -3.5h-95q-11 0 -11 12zM71.5 580.5q-17.5 17.5 -17.5 46.5v15q0 30 17.5 47t51.5 17t51 -17t17 -47v-15q0 -29 -17.5 -46.5t-50.5 -17.5q-34 0 -51.5 17.5zM295 -193q-4 0 -9 5l-57 67
q-3 4 -3 8t6 9q77 55 77 180v404q0 5 3 8.5t8 3.5h95q5 0 8.5 -3.5t3.5 -8.5v-406q0 -98 -29.5 -161t-96.5 -104q-4 -2 -6 -2zM317.5 580.5q-17.5 17.5 -17.5 46.5v15q0 30 17.5 47t51.5 17t51 -17t17 -47v-15q0 -29 -17.5 -46.5t-50.5 -17.5q-34 0 -51.5 17.5z" />
    <glyph glyph-name="uni0136" unicode="&#x136;" horiz-adv-x="615" 
d="M74 12v631q0 12 11 12h97q5 0 8.5 -3.5t3.5 -8.5v-172q0 -59 -3 -119h2q29 40 84 108l162 189q6 6 14 6h121q7 0 9.5 -4t-2.5 -10l-220 -252l240 -375q2 -3 2 -7q0 -7 -9 -7h-120q-9 0 -14 8l-182 288l-84 -95v-189q0 -5 -3.5 -8.5t-8.5 -3.5h-97q-11 0 -11 12zM279 -237
l14 69q-30 10 -30 47v18q0 24 14.5 37t40.5 13q60 0 60 -50v-19q0 -25 -9 -52l-22 -66q-4 -7 -12 -7h-49q-10 0 -7 10z" />
    <glyph glyph-name="uni0137" unicode="&#x137;" horiz-adv-x="516" 
d="M64 12v659q0 12 11 12h95q5 0 8.5 -3.5t3.5 -8.5v-244q0 -69 -3 -138h2q35 46 70 87l96 110q5 6 14 6h119q11 0 11 -7q0 -3 -4 -7l-166 -183l180 -281q2 -3 2 -7q0 -7 -10 -7h-111q-9 0 -14 8l-129 204l-57 -60v-140q0 -5 -3.5 -8.5t-8.5 -3.5h-95q-11 0 -11 12z
M223 -248.5q-2 2.5 0 8.5l14 68q-30 12 -30 48v17q0 24 14.5 37.5t40.5 13.5q60 0 60 -51v-19q0 -24 -9 -52l-22 -65q-3 -8 -12 -8h-48q-6 0 -8 2.5z" />
    <glyph glyph-name="kgreenlandic" unicode="&#x138;" horiz-adv-x="516" 
d="M64 12v468q0 12 11 12h95q5 0 8.5 -3.5t3.5 -8.5v-53q0 -69 -3 -138h2q35 46 70 87l96 110q5 6 14 6h119q11 0 11 -7q0 -3 -4 -7l-166 -183l180 -281q2 -3 2 -7q0 -7 -10 -7h-111q-9 0 -14 8l-129 204l-57 -60v-140q0 -5 -3.5 -8.5t-8.5 -3.5h-95q-11 0 -11 12z" />
    <glyph glyph-name="Lacute" unicode="&#x139;" horiz-adv-x="487" 
d="M74 12v631q0 12 11 12h98q11 0 11 -12v-537h263q5 0 8.5 -3.5t3.5 -8.5v-82q0 -5 -3.5 -8.5t-8.5 -3.5h-372q-11 0 -11 12zM64 720l59 109q3 8 13 8h91q6 0 8 -4t-2 -9l-80 -109q-4 -6 -13 -6h-70q-12 0 -6 11z" />
    <glyph glyph-name="lacute" unicode="&#x13a;" horiz-adv-x="245" 
d="M64 12v659q0 12 11 12h95q5 0 8.5 -3.5t3.5 -8.5v-659q0 -5 -3.5 -8.5t-8.5 -3.5h-95q-11 0 -11 12zM52 748l59 109q3 8 13 8h91q6 0 8 -4t-2 -9l-80 -109q-4 -6 -13 -6h-70q-12 0 -6 11z" />
    <glyph glyph-name="uni013B" unicode="&#x13b;" horiz-adv-x="487" 
d="M74 12v631q0 12 11 12h98q11 0 11 -12v-537h263q5 0 8.5 -3.5t3.5 -8.5v-82q0 -5 -3.5 -8.5t-8.5 -3.5h-372q-11 0 -11 12zM235 -237l14 69q-30 10 -30 47v18q0 24 14.5 37t40.5 13q60 0 60 -50v-19q0 -25 -9 -52l-22 -66q-4 -7 -12 -7h-49q-10 0 -7 10z" />
    <glyph glyph-name="uni013C" unicode="&#x13c;" horiz-adv-x="245" 
d="M64 12v659q0 12 11 12h95q5 0 8.5 -3.5t3.5 -8.5v-659q0 -5 -3.5 -8.5t-8.5 -3.5h-95q-11 0 -11 12zM82 -248.5q-2 2.5 0 8.5l14 68q-30 12 -30 48v17q0 24 14.5 37.5t40.5 13.5q60 0 60 -51v-19q0 -24 -9 -52l-22 -65q-3 -8 -12 -8h-48q-6 0 -8 2.5z" />
    <glyph glyph-name="Lcaron" unicode="&#x13d;" horiz-adv-x="487" 
d="M74 12v631q0 12 11 12h98q11 0 11 -12v-537h263q5 0 8.5 -3.5t3.5 -8.5v-82q0 -5 -3.5 -8.5t-8.5 -3.5h-372q-11 0 -11 12zM282 508l12 55q-14 6 -21 15t-7 25v22q0 19 14 30.5t38 11.5q27 0 41 -11t14 -31v-23q0 -23 -8 -46l-19 -50q-3 -8 -12 -8h-44q-10 0 -8 10z" />
    <glyph glyph-name="lcaron" unicode="&#x13e;" horiz-adv-x="246" 
d="M64 12v659q0 12 11 12h95q5 0 8.5 -3.5t3.5 -8.5v-659q0 -5 -3.5 -8.5t-8.5 -3.5h-95q-11 0 -11 12zM239 537l12 55q-14 6 -21 15t-7 25v22q0 19 14 30.5t38 11.5q27 0 41 -11t14 -31v-23q0 -23 -8 -46l-19 -50q-3 -8 -12 -8h-44q-10 0 -8 10z" />
    <glyph glyph-name="Lslash" unicode="&#x141;" horiz-adv-x="487" 
d="M465.5 102.5q3.5 -3.5 3.5 -8.5v-82q0 -5 -3.5 -8.5t-8.5 -3.5h-372q-11 0 -11 12v267l-69 -25q-2 -1 -5 -1q-4 0 -6.5 3t-2.5 8v73q0 10 10 13l73 27v266q0 12 11 12h98q11 0 11 -12v-223l118 43l4 1q9 0 9 -11v-72q0 -11 -9 -14l-122 -44v-217h263q5 0 8.5 -3.5z" />
    <glyph glyph-name="lslash" unicode="&#x142;" horiz-adv-x="249" 
d="M247 514q4 0 6.5 -3t2.5 -8v-67q0 -10 -10 -13l-62 -25v-386q0 -5 -3.5 -8.5t-8.5 -3.5h-95q-11 0 -11 12v339l-59 -26q-2 -1 -5 -1q-4 0 -6.5 3t-2.5 8v68q0 10 9 13l64 26v229q0 12 11 12h95q5 0 8.5 -3.5t3.5 -8.5v-181l58 23q2 1 5 1z" />
    <glyph glyph-name="Nacute" unicode="&#x143;" horiz-adv-x="669" 
d="M74 12v631q0 12 11 12h142q9 0 14 -8l161 -325q55 -111 79 -175h3q-5 88 -5 180v316q0 12 11 12h94q5 0 8.5 -3.5t3.5 -8.5v-631q0 -5 -3.5 -8.5t-8.5 -3.5h-140q-9 0 -14 8l-156 314q-32 64 -83 183h-3q3 -93 3 -191v-302q0 -5 -3.5 -8.5t-8.5 -3.5h-94q-11 0 -11 12z
M265 720l59 109q3 8 13 8h91q6 0 8 -4t-2 -9l-80 -109q-4 -6 -13 -6h-70q-12 0 -6 11z" />
    <glyph glyph-name="nacute" unicode="&#x144;" horiz-adv-x="558" 
d="M495 339v-327q0 -5 -3.5 -8.5t-8.5 -3.5h-94q-5 0 -8.5 3.5t-3.5 8.5v308q0 42 -17 62t-52 20q-30 0 -59.5 -16t-66.5 -50v-324q0 -5 -3.5 -8.5t-8.5 -3.5h-95q-11 0 -11 12v355q0 46 -7 111v3q0 11 12 11h84q6 0 9 -2t4 -9q4 -19 8 -61q44 42 84.5 63t90.5 21
q146 0 146 -165zM209 569l68 125q3 5 6 7t9 2h90q6 0 7.5 -4t-2.5 -9l-90 -126q-4 -7 -13 -7h-68q-12 0 -7 12z" />
    <glyph glyph-name="uni0145" unicode="&#x145;" horiz-adv-x="669" 
d="M74 12v631q0 12 11 12h142q9 0 14 -8l161 -325q55 -111 79 -175h3q-5 88 -5 180v316q0 12 11 12h94q5 0 8.5 -3.5t3.5 -8.5v-631q0 -5 -3.5 -8.5t-8.5 -3.5h-140q-9 0 -14 8l-156 314q-32 64 -83 183h-3q3 -93 3 -191v-302q0 -5 -3.5 -8.5t-8.5 -3.5h-94q-11 0 -11 12z
M293 -237l14 69q-30 10 -30 47v18q0 24 14.5 37t40.5 13q60 0 60 -50v-19q0 -25 -9 -52l-22 -66q-4 -7 -12 -7h-49q-10 0 -7 10z" />
    <glyph glyph-name="uni0146" unicode="&#x146;" horiz-adv-x="558" 
d="M495 339v-327q0 -5 -3.5 -8.5t-8.5 -3.5h-94q-5 0 -8.5 3.5t-3.5 8.5v308q0 42 -17 62t-52 20q-30 0 -59.5 -16t-66.5 -50v-324q0 -5 -3.5 -8.5t-8.5 -3.5h-95q-11 0 -11 12v355q0 46 -7 111v3q0 11 12 11h84q6 0 9 -2t4 -9q4 -19 8 -61q44 42 84.5 63t90.5 21
q146 0 146 -165zM245 -248.5q-2 2.5 0 8.5l14 68q-30 12 -30 48v17q0 24 14.5 37.5t40.5 13.5q60 0 60 -51v-19q0 -24 -9 -52l-22 -65q-3 -8 -12 -8h-48q-6 0 -8 2.5z" />
    <glyph glyph-name="Ncaron" unicode="&#x147;" horiz-adv-x="669" 
d="M74 12v631q0 12 11 12h142q9 0 14 -8l161 -325q55 -111 79 -175h3q-5 88 -5 180v316q0 12 11 12h94q5 0 8.5 -3.5t3.5 -8.5v-631q0 -5 -3.5 -8.5t-8.5 -3.5h-140q-9 0 -14 8l-156 314q-32 64 -83 183h-3q3 -93 3 -191v-302q0 -5 -3.5 -8.5t-8.5 -3.5h-94q-11 0 -11 12z
M198 773q-5 2 -6.5 4.5t-1.5 7.5v64q0 12 12 6l133 -50l132 50l6 2q6 0 6 -8v-64q0 -5 -1.5 -7.5t-6.5 -4.5l-128 -58q-6 -2 -9 -2l-8 2z" />
    <glyph glyph-name="ncaron" unicode="&#x148;" horiz-adv-x="558" 
d="M495 339v-327q0 -5 -3.5 -8.5t-8.5 -3.5h-94q-5 0 -8.5 3.5t-3.5 8.5v308q0 42 -17 62t-52 20q-30 0 -59.5 -16t-66.5 -50v-324q0 -5 -3.5 -8.5t-8.5 -3.5h-95q-11 0 -11 12v355q0 46 -7 111v3q0 11 12 11h84q6 0 9 -2t4 -9q4 -19 8 -61q44 42 84.5 63t90.5 21
q146 0 146 -165zM153 619q-7 4 -7 14v63q0 13 13 6l122 -61l121 61q6 2 7 2q6 0 6 -8v-63q0 -10 -7 -14l-119 -69q-5 -3 -9 -3q-3 0 -8 3z" />
    <glyph glyph-name="Eng" unicode="&#x14a;" horiz-adv-x="669" 
d="M398 -121q-3 3 -3 7q0 6 10 12q24 18 41 44t24 58h-26q-9 0 -14 8l-156 314q-32 64 -83 183h-3q3 -93 3 -191v-302q0 -5 -3.5 -8.5t-8.5 -3.5h-94q-11 0 -11 12v631q0 12 11 12h142q9 0 14 -8l161 -325q55 -111 79 -175h3q-5 88 -5 180v316q0 12 11 12h94q5 0 8.5 -3.5
t3.5 -8.5v-569q0 -96 -28.5 -159t-89.5 -100q-11 -6 -16 -6t-8 3z" />
    <glyph glyph-name="eng" unicode="&#x14b;" horiz-adv-x="558" 
d="M363 -193q-4 0 -9 5l-56 67q-3 4 -3 8t5 9q38 27 57.5 71t19.5 109v244q0 42 -17 62t-52 20q-30 0 -59.5 -15.5t-66.5 -51.5v-323q0 -5 -3.5 -8.5t-8.5 -3.5h-95q-11 0 -11 12v355q0 46 -7 111v3q0 11 12 11h84q6 0 9 -2t4 -9q4 -19 8 -61q43 42 84 63t91 21
q146 0 146 -165v-265q0 -99 -30 -162t-96 -103q-4 -2 -6 -2z" />
    <glyph glyph-name="Omacron" unicode="&#x14c;" horiz-adv-x="651" 
d="M128.5 51q-66.5 63 -66.5 183v187q0 120 66.5 183t197.5 63q130 0 196.5 -63t66.5 -183v-187q0 -120 -66.5 -183t-196.5 -63q-131 0 -197.5 63zM432.5 130.5q36.5 37.5 36.5 109.5v175q0 72 -36.5 109.5t-106.5 37.5q-71 0 -107.5 -37.5t-36.5 -109.5v-175
q0 -72 36.5 -109.5t107.5 -37.5q70 0 106.5 37.5zM201.5 719.5q-3.5 3.5 -3.5 8.5v66q0 5 3.5 8.5t8.5 3.5h229q5 0 8.5 -3.5t3.5 -8.5v-66q0 -5 -3.5 -8.5t-8.5 -3.5h-229q-5 0 -8.5 3.5z" />
    <glyph glyph-name="omacron" unicode="&#x14d;" horiz-adv-x="544" 
d="M107.5 39q-56.5 51 -56.5 153v108q0 101 57 152.5t164 51.5t163.5 -51.5t56.5 -152.5v-108q0 -102 -56 -153t-164 -51t-164.5 51zM349.5 116.5q24.5 27.5 24.5 86.5v86q0 59 -24.5 86.5t-77.5 27.5q-54 0 -78.5 -27.5t-24.5 -86.5v-86q0 -59 24.5 -86.5t78.5 -27.5
q53 0 77.5 27.5zM158.5 573.5q-3.5 3.5 -3.5 8.5v66q0 11 12 11h209q12 0 12 -11v-66q0 -5 -3.5 -8.5t-8.5 -3.5h-209q-5 0 -8.5 3.5z" />
    <glyph glyph-name="Ohungarumlaut" unicode="&#x150;" horiz-adv-x="651" 
d="M128.5 51q-66.5 63 -66.5 183v187q0 120 66.5 183t197.5 63q130 0 196.5 -63t66.5 -183v-187q0 -120 -66.5 -183t-196.5 -63q-131 0 -197.5 63zM432.5 130.5q36.5 37.5 36.5 109.5v175q0 72 -36.5 109.5t-106.5 37.5q-71 0 -107.5 -37.5t-36.5 -109.5v-175
q0 -72 36.5 -109.5t107.5 -37.5q70 0 106.5 37.5zM194 721l46 107q4 9 14 9h82q7 0 9 -3.5t-2 -9.5l-59 -107q-5 -8 -14 -8h-68q-12 0 -8 12zM356 721l46 107q4 9 13 9h83q6 0 8 -3.5t-1 -9.5l-59 -107q-5 -8 -15 -8h-67q-12 0 -8 12z" />
    <glyph glyph-name="ohungarumlaut" unicode="&#x151;" horiz-adv-x="544" 
d="M107.5 39q-56.5 51 -56.5 153v108q0 101 57 152.5t164 51.5t163.5 -51.5t56.5 -152.5v-108q0 -102 -56 -153t-164 -51t-164.5 51zM349.5 116.5q24.5 27.5 24.5 86.5v86q0 59 -24.5 86.5t-77.5 27.5q-54 0 -78.5 -27.5t-24.5 -86.5v-86q0 -59 24.5 -86.5t78.5 -27.5
q53 0 77.5 27.5zM140 569l55 130q4 10 14 10h85q7 0 8.5 -4t-1.5 -10l-71 -130q-5 -8 -14 -8h-68q-12 0 -8 12zM297 569l54 130q4 10 14 10h86q6 0 8 -4t-2 -10l-71 -130q-4 -8 -13 -8h-69q-13 0 -7 12z" />
    <glyph glyph-name="OE" unicode="&#x152;" horiz-adv-x="884" 
d="M127.5 51q-65.5 63 -65.5 183v187q0 120 66 183t197 63q60 0 102 -12h385q5 0 8.5 -3.5t3.5 -8.5v-82q0 -5 -3.5 -8.5t-8.5 -3.5h-274v-167h250q5 0 8.5 -3.5t3.5 -8.5v-77q0 -5 -3.5 -8.5t-8.5 -3.5h-250v-175h274q5 0 8.5 -3.5t3.5 -8.5v-82q0 -5 -3.5 -8.5t-8.5 -3.5
h-385q-40 -12 -103 -12q-131 0 -196.5 63zM418 101v451q-31 10 -91 10q-72 0 -108.5 -37t-36.5 -108v-179q0 -71 36.5 -108t108.5 -37q56 0 91 8z" />
    <glyph glyph-name="oe" unicode="&#x153;" horiz-adv-x="846" 
d="M106.5 40.5q-55.5 52.5 -55.5 149.5v112q0 98 55.5 150t155.5 52q116 0 162 -72q27 35 70 53.5t97 18.5q100 0 152.5 -50t52.5 -146v-78q0 -12 -11 -12h-300v-30q0 -55 23.5 -80.5t76.5 -25.5q40 0 63 13t23 36q0 15 12 15h92q12 0 12 -13q0 -71 -52 -108t-150 -37
q-57 0 -96 16t-67 54q-29 -38 -66.5 -54t-92.5 -16q-101 0 -156.5 52.5zM680 298v4q0 55 -23.5 81.5t-72.5 26.5q-51 0 -75 -27t-24 -82v-3h195zM343.5 116q24.5 27 24.5 84v92q0 57 -24.5 84t-74.5 27q-51 0 -75.5 -27t-24.5 -84v-92q0 -57 24.5 -84t75.5 -27q50 0 74.5 27
z" />
    <glyph glyph-name="Racute" unicode="&#x154;" horiz-adv-x="613" 
d="M74 12v631q0 12 11 12h210q127 0 187 -48.5t60 -145.5q0 -70 -31.5 -117t-93.5 -65v-2l161 -263q2 -3 2 -7q0 -7 -10 -7h-111q-9 0 -14 8l-151 253h-100v-249q0 -5 -3.5 -8.5t-8.5 -3.5h-97q-11 0 -11 12zM290 356q69 0 100.5 24t31.5 77q0 52 -29 74t-98 22h-101v-197
h96zM209 720l59 109q3 8 13 8h91q6 0 8 -4t-2 -9l-80 -109q-4 -6 -13 -6h-70q-12 0 -6 11z" />
    <glyph glyph-name="racute" unicode="&#x155;" horiz-adv-x="365" 
d="M354 446q0 -32 -3 -61q-1 -13 -15 -10t-34 3q-31 0 -62.5 -17.5t-57.5 -48.5v-300q0 -5 -3.5 -8.5t-8.5 -3.5h-95q-11 0 -11 12v357q0 61 -7 110v2q0 11 12 11h84q10 0 13 -10q6 -32 8 -70q31 41 70.5 66.5t72.5 25.5q16 0 27 -3q9 -4 9 -13q1 -13 1 -42zM137 569l68 125
q3 5 6 7t9 2h90q6 0 7.5 -4t-2.5 -9l-90 -126q-4 -7 -13 -7h-68q-12 0 -7 12z" />
    <glyph glyph-name="uni0156" unicode="&#x156;" horiz-adv-x="613" 
d="M74 12v631q0 12 11 12h210q127 0 187 -48.5t60 -145.5q0 -70 -31.5 -117t-93.5 -65v-2l161 -263q2 -3 2 -7q0 -7 -10 -7h-111q-9 0 -14 8l-151 253h-100v-249q0 -5 -3.5 -8.5t-8.5 -3.5h-97q-11 0 -11 12zM290 356q69 0 100.5 24t31.5 77q0 52 -29 74t-98 22h-101v-197
h96zM268 -237l14 69q-30 10 -30 47v18q0 24 14.5 37t40.5 13q60 0 60 -50v-19q0 -25 -9 -52l-22 -66q-4 -7 -12 -7h-49q-10 0 -7 10z" />
    <glyph glyph-name="uni0157" unicode="&#x157;" horiz-adv-x="365" 
d="M354 446q0 -32 -3 -61q-1 -13 -15 -10t-34 3q-31 0 -62.5 -17.5t-57.5 -48.5v-300q0 -5 -3.5 -8.5t-8.5 -3.5h-95q-11 0 -11 12v357q0 61 -7 110v2q0 11 12 11h84q10 0 13 -10q6 -32 8 -70q31 41 70.5 66.5t72.5 25.5q16 0 27 -3q9 -4 9 -13q1 -13 1 -42zM84 -248.5
q-2 2.5 0 8.5l14 68q-30 12 -30 48v17q0 24 14.5 37.5t40.5 13.5q60 0 60 -51v-19q0 -24 -9 -52l-22 -65q-3 -8 -12 -8h-48q-6 0 -8 2.5z" />
    <glyph glyph-name="Rcaron" unicode="&#x158;" horiz-adv-x="613" 
d="M74 12v631q0 12 11 12h210q127 0 187 -48.5t60 -145.5q0 -70 -31.5 -117t-93.5 -65v-2l161 -263q2 -3 2 -7q0 -7 -10 -7h-111q-9 0 -14 8l-151 253h-100v-249q0 -5 -3.5 -8.5t-8.5 -3.5h-97q-11 0 -11 12zM290 356q69 0 100.5 24t31.5 77q0 52 -29 74t-98 22h-101v-197
h96zM142 773q-5 2 -6.5 4.5t-1.5 7.5v64q0 12 12 6l133 -50l132 50l6 2q6 0 6 -8v-64q0 -5 -1.5 -7.5t-6.5 -4.5l-128 -58q-6 -2 -9 -2l-8 2z" />
    <glyph glyph-name="rcaron" unicode="&#x159;" horiz-adv-x="365" 
d="M354 446q0 -32 -3 -61q-1 -13 -15 -10t-34 3q-31 0 -62.5 -17.5t-57.5 -48.5v-300q0 -5 -3.5 -8.5t-8.5 -3.5h-95q-11 0 -11 12v357q0 61 -7 110v2q0 11 12 11h84q10 0 13 -10q6 -32 8 -70q31 41 70.5 66.5t72.5 25.5q16 0 27 -3q9 -4 9 -13q1 -13 1 -42zM82 619
q-7 4 -7 14v63q0 13 13 6l122 -61l121 61q6 2 7 2q6 0 6 -8v-63q0 -10 -7 -14l-119 -69q-5 -3 -9 -3q-3 0 -8 3z" />
    <glyph glyph-name="Sacute" unicode="&#x15a;" horiz-adv-x="572" 
d="M101.5 33q-59.5 45 -59.5 129q0 14 1 21q1 17 14 17h94q14 0 12 -15q-1 -48 29 -71t93 -23q61 0 90.5 19.5t29.5 60.5q0 29 -16.5 47t-60.5 36l-145 62q-71 29 -100.5 69.5t-29.5 101.5q0 88 56 133.5t168 45.5t174 -43t62 -125q0 -13 -1 -20q-1 -18 -12 -18h-95
q-6 0 -9 4t-2 14q3 40 -28.5 63.5t-89.5 23.5q-103 0 -103 -75q0 -27 17.5 -45t61.5 -37l143 -61q71 -30 100.5 -69.5t29.5 -103.5q0 -186 -246 -186q-118 0 -177.5 45zM212 720l59 109q3 8 13 8h91q6 0 8 -4t-2 -9l-80 -109q-4 -6 -13 -6h-70q-12 0 -6 11z" />
    <glyph glyph-name="sacute" unicode="&#x15b;" horiz-adv-x="471" 
d="M89.5 27q-46.5 39 -43.5 121q0 11 12 11h90q10 0 10 -11q0 -36 18.5 -53t58.5 -17q81 0 81 53q0 19 -12.5 32.5t-42.5 25.5l-114 48q-52 21 -74.5 51t-22.5 79q0 69 45 103t137 34q94 0 142.5 -36t48.5 -105q0 -11 -12 -11h-90q-12 0 -12 16q0 22 -19 34.5t-53 12.5
q-69 0 -69 -48q0 -18 10.5 -28t41.5 -23l114 -48q53 -22 76.5 -53t23.5 -79q0 -73 -50.5 -110.5t-148.5 -37.5q-99 0 -145.5 39zM162 569l68 125q3 5 6 7t9 2h90q6 0 7.5 -4t-2.5 -9l-90 -126q-4 -7 -13 -7h-68q-12 0 -7 12z" />
    <glyph glyph-name="Scedilla" unicode="&#x15e;" horiz-adv-x="572" 
d="M495.5 277.5q29.5 -39.5 29.5 -103.5q0 -84 -50.5 -131t-157.5 -54l-8 -25h9q27 0 42 -17t15 -46v-16q0 -82 -107 -82q-30 0 -50 4q-6 2 -7.5 3.5t-1.5 6.5v46q0 9 7 9q6 0 14.5 -1t16.5 -1q39 0 39 22v10q0 14 -7.5 19t-24.5 5h-23q-4 0 -5.5 1.5t-1.5 5.5q0 15 2 21
l11 36q-97 7 -146 51.5t-49 121.5q0 13 1 20q1 17 14 17h94q14 0 12 -15q-1 -48 29 -71t93 -23q61 0 90.5 19.5t29.5 60.5q0 29 -16.5 47t-60.5 36l-145 62q-71 29 -100.5 69.5t-29.5 101.5q0 88 56 133.5t168 45.5t174 -43t62 -125q0 -13 -1 -20q-1 -18 -12 -18h-95
q-6 0 -9 4t-2 14q3 40 -28.5 63.5t-89.5 23.5q-103 0 -103 -75q0 -27 17.5 -45t61.5 -37l143 -61q71 -30 100.5 -69.5z" />
    <glyph glyph-name="scedilla" unicode="&#x15f;" horiz-adv-x="471" 
d="M394.5 35q-39.5 -37 -115.5 -45l-9 -26h9q27 0 42 -17t15 -46v-16q0 -82 -107 -82q-30 0 -50 4q-6 2 -7.5 3.5t-1.5 6.5v46q0 9 7 9q6 0 14.5 -1t16.5 -1q39 0 39 22v10q0 14 -7.5 19t-24.5 5h-23q-4 0 -5.5 1.5t-1.5 5.5q0 15 2 21l11 35q-80 8 -117.5 47t-34.5 112
q0 11 12 11h90q10 0 10 -11q0 -36 18.5 -53t58.5 -17q81 0 81 53q0 19 -12.5 32.5t-42.5 25.5l-114 48q-52 21 -74.5 51t-22.5 79q0 69 45 103t137 34q94 0 142.5 -36t48.5 -105q0 -11 -12 -11h-90q-12 0 -12 16q0 22 -19 34.5t-53 12.5q-69 0 -69 -48q0 -18 10.5 -28
t41.5 -23l114 -48q53 -22 76.5 -53t23.5 -79q0 -64 -39.5 -101z" />
    <glyph glyph-name="Scaron" unicode="&#x160;" horiz-adv-x="572" 
d="M101.5 33q-59.5 45 -59.5 129q0 14 1 21q1 17 14 17h94q14 0 12 -15q-1 -48 29 -71t93 -23q61 0 90.5 19.5t29.5 60.5q0 29 -16.5 47t-60.5 36l-145 62q-71 29 -100.5 69.5t-29.5 101.5q0 88 56 133.5t168 45.5t174 -43t62 -125q0 -13 -1 -20q-1 -18 -12 -18h-95
q-6 0 -9 4t-2 14q3 40 -28.5 63.5t-89.5 23.5q-103 0 -103 -75q0 -27 17.5 -45t61.5 -37l143 -61q71 -30 100.5 -69.5t29.5 -103.5q0 -186 -246 -186q-118 0 -177.5 45zM146 773q-5 2 -6.5 4.5t-1.5 7.5v64q0 12 12 6l133 -50l132 50l6 2q6 0 6 -8v-64q0 -5 -1.5 -7.5
t-6.5 -4.5l-128 -58q-6 -2 -9 -2l-8 2z" />
    <glyph glyph-name="scaron" unicode="&#x161;" horiz-adv-x="471" 
d="M89.5 27q-46.5 39 -43.5 121q0 11 12 11h90q10 0 10 -11q0 -36 18.5 -53t58.5 -17q81 0 81 53q0 19 -12.5 32.5t-42.5 25.5l-114 48q-52 21 -74.5 51t-22.5 79q0 69 45 103t137 34q94 0 142.5 -36t48.5 -105q0 -11 -12 -11h-90q-12 0 -12 16q0 22 -19 34.5t-53 12.5
q-69 0 -69 -48q0 -18 10.5 -28t41.5 -23l114 -48q53 -22 76.5 -53t23.5 -79q0 -73 -50.5 -110.5t-148.5 -37.5q-99 0 -145.5 39zM106 619q-7 4 -7 14v63q0 13 13 6l122 -61l121 61q6 2 7 2q6 0 6 -8v-63q0 -10 -7 -14l-119 -69q-5 -3 -9 -3q-3 0 -8 3z" />
    <glyph glyph-name="uni0162" unicode="&#x162;" horiz-adv-x="545" 
d="M513.5 651.5q3.5 -3.5 3.5 -8.5v-82q0 -5 -3.5 -8.5t-8.5 -3.5h-172v-537q0 -5 -3.5 -8.5t-8.5 -3.5h-19l-12 -36h9q27 0 42 -17t15 -46v-16q0 -82 -107 -82q-30 0 -50 4q-6 2 -7.5 3.5t-1.5 6.5v46q0 9 7 9q6 0 14.5 -1t16.5 -1q39 0 39 22v10q0 14 -7.5 19t-24.5 5h-23
q-4 0 -5.5 1.5t-1.5 5.5q0 15 2 21l15 46q-4 1 -7 4t-3 8v537h-172q-5 0 -8.5 3.5t-3.5 8.5v82q0 5 3.5 8.5t8.5 3.5h465q5 0 8.5 -3.5z" />
    <glyph glyph-name="uni0163" unicode="&#x163;" horiz-adv-x="395" 
d="M359 105q9 0 9 -10v-77q0 -10 -9 -13q-32 -14 -87 -17l-8 -24h9q27 0 42 -17t15 -46v-16q0 -82 -107 -82q-30 0 -50 4q-6 2 -7.5 3.5t-1.5 6.5v46q0 9 7 9q6 0 14.5 -1t16.5 -1q39 0 39 22v10q0 14 -7.5 19t-24.5 5h-23q-4 0 -5.5 1.5t-1.5 5.5q0 15 2 21l13 41
q-50 13 -72 52.5t-22 111.5v234h-73q-12 0 -12 12v75q0 12 12 12h77l13 120q3 11 13 11h76q12 0 12 -12v-119h137q5 0 8.5 -3.5t3.5 -8.5v-75q0 -5 -3.5 -8.5t-8.5 -3.5h-137v-228q0 -40 15 -58t50 -18q36 0 71 15q2 1 5 1z" />
    <glyph glyph-name="Tcaron" unicode="&#x164;" horiz-adv-x="545" 
d="M215.5 3.5q-3.5 3.5 -3.5 8.5v537h-172q-5 0 -8.5 3.5t-3.5 8.5v82q0 5 3.5 8.5t8.5 3.5h465q5 0 8.5 -3.5t3.5 -8.5v-82q0 -5 -3.5 -8.5t-8.5 -3.5h-172v-537q0 -5 -3.5 -8.5t-8.5 -3.5h-97q-5 0 -8.5 3.5zM137 773q-5 2 -6.5 4.5t-1.5 7.5v64q0 12 12 6l133 -50l132 50
l6 2q6 0 6 -8v-64q0 -5 -1.5 -7.5t-6.5 -4.5l-128 -58q-6 -2 -9 -2l-8 2z" />
    <glyph glyph-name="tcaron" unicode="&#x165;" horiz-adv-x="410" 
d="M136 28q-36 40 -36 131v234h-73q-12 0 -12 12v75q0 12 12 12h77l13 120q3 11 13 11h76q12 0 12 -12v-119h137q5 0 8.5 -3.5t3.5 -8.5v-75q0 -5 -3.5 -8.5t-8.5 -3.5h-137v-228q0 -40 15 -58t50 -18q36 0 71 15q2 1 5 1q9 0 9 -10v-77q0 -10 -9 -13q-40 -17 -101 -17
q-86 0 -122 40zM282 537l12 55q-14 6 -21 15t-7 25v22q0 19 14 30.5t38 11.5q27 0 41 -11t14 -31v-23q0 -23 -8 -46l-19 -50q-3 -8 -12 -8h-44q-10 0 -8 10z" />
    <glyph glyph-name="Tbar" unicode="&#x166;" horiz-adv-x="545" 
d="M513.5 651.5q3.5 -3.5 3.5 -8.5v-82q0 -5 -3.5 -8.5t-8.5 -3.5h-172v-177h92q11 0 11 -12v-65q0 -12 -11 -12h-92v-271q0 -5 -3.5 -8.5t-8.5 -3.5h-97q-5 0 -8.5 3.5t-3.5 8.5v271h-91q-11 0 -11 12v65q0 12 11 12h91v177h-172q-5 0 -8.5 3.5t-3.5 8.5v82q0 5 3.5 8.5
t8.5 3.5h465q5 0 8.5 -3.5z" />
    <glyph glyph-name="tbar" unicode="&#x167;" horiz-adv-x="395" 
d="M359 105q9 0 9 -10v-77q0 -10 -9 -13q-40 -17 -101 -17q-86 0 -122 40t-36 131v84h-64q-12 0 -12 11v62q0 5 3.5 8.5t8.5 3.5h64v65h-73q-12 0 -12 12v75q0 12 12 12h77l13 120q3 11 13 11h76q12 0 12 -12v-119h137q5 0 8.5 -3.5t3.5 -8.5v-75q0 -5 -3.5 -8.5t-8.5 -3.5
h-137v-65h122q5 0 8.5 -3.5t3.5 -8.5v-62q0 -11 -12 -11h-122v-78q0 -40 15 -58t50 -18q36 0 71 15q2 1 5 1z" />
    <glyph glyph-name="Umacron" unicode="&#x16a;" horiz-adv-x="651" 
d="M135 50.5q-66 62.5 -66 184.5v408q0 12 11 12h97q5 0 8.5 -3.5t3.5 -8.5v-406q0 -70 34.5 -107t102.5 -37t102.5 37t34.5 107v406q0 12 11 12h97q5 0 8.5 -3.5t3.5 -8.5v-410q0 -119 -66.5 -182t-190.5 -63q-125 0 -191 62.5zM202.5 719.5q-3.5 3.5 -3.5 8.5v66
q0 5 3.5 8.5t8.5 3.5h229q5 0 8.5 -3.5t3.5 -8.5v-66q0 -5 -3.5 -8.5t-8.5 -3.5h-229q-5 0 -8.5 3.5z" />
    <glyph glyph-name="umacron" unicode="&#x16b;" horiz-adv-x="546" 
d="M489 10q0 -4 -3.5 -7t-8.5 -3h-81q-13 0 -14 11q-7 46 -8 63q-43 -41 -86 -63.5t-90 -22.5q-66 0 -100 41.5t-34 123.5v327q0 12 11 12h95q5 0 8.5 -3.5t3.5 -8.5v-308q0 -42 14.5 -62t45.5 -20q28 0 56.5 16t65.5 50v324q0 5 3.5 8.5t8.5 3.5h95q11 0 11 -12v-355
q0 -63 7 -113v-2zM159.5 573.5q-3.5 3.5 -3.5 8.5v66q0 11 12 11h209q12 0 12 -11v-66q0 -5 -3.5 -8.5t-8.5 -3.5h-209q-5 0 -8.5 3.5z" />
    <glyph glyph-name="Uring" unicode="&#x16e;" horiz-adv-x="651" 
d="M135 50.5q-66 62.5 -66 184.5v408q0 12 11 12h97q5 0 8.5 -3.5t3.5 -8.5v-406q0 -70 34.5 -107t102.5 -37t102.5 37t34.5 107v406q0 12 11 12h97q5 0 8.5 -3.5t3.5 -8.5v-410q0 -119 -66.5 -182t-190.5 -63q-125 0 -191 62.5zM237 700.5q-32 27.5 -32 78.5t32 78.5
t89 27.5t89 -27.5t32 -78.5t-31.5 -78.5t-89.5 -27.5q-57 0 -89 27.5zM369 780q0 43 -43 43t-43 -43t43 -43t43 43z" />
    <glyph glyph-name="uring" unicode="&#x16f;" horiz-adv-x="546" 
d="M489 10q0 -4 -3.5 -7t-8.5 -3h-81q-13 0 -14 11q-7 46 -8 63q-43 -41 -86 -63.5t-90 -22.5q-66 0 -100 41.5t-34 123.5v327q0 12 11 12h95q5 0 8.5 -3.5t3.5 -8.5v-308q0 -42 14.5 -62t45.5 -20q28 0 56.5 16t65.5 50v324q0 5 3.5 8.5t8.5 3.5h95q11 0 11 -12v-355
q0 -63 7 -113v-2zM184 580.5q-32 27.5 -32 78.5t31.5 78.5t89.5 27.5q57 0 89 -27.5t32 -78.5t-32 -78.5t-89 -27.5t-89 27.5zM316 660q0 43 -43 43t-43 -43t43 -43t43 43z" />
    <glyph glyph-name="Uhungarumlaut" unicode="&#x170;" horiz-adv-x="651" 
d="M135 50.5q-66 62.5 -66 184.5v408q0 12 11 12h97q5 0 8.5 -3.5t3.5 -8.5v-406q0 -70 34.5 -107t102.5 -37t102.5 37t34.5 107v406q0 12 11 12h97q5 0 8.5 -3.5t3.5 -8.5v-410q0 -119 -66.5 -182t-190.5 -63q-125 0 -191 62.5zM195 721l46 107q4 9 14 9h82q7 0 9 -3.5
t-2 -9.5l-59 -107q-5 -8 -14 -8h-68q-12 0 -8 12zM357 721l46 107q4 9 13 9h83q6 0 8 -3.5t-1 -9.5l-59 -107q-5 -8 -15 -8h-67q-12 0 -8 12z" />
    <glyph glyph-name="uhungarumlaut" unicode="&#x171;" horiz-adv-x="546" 
d="M489 10q0 -4 -3.5 -7t-8.5 -3h-81q-13 0 -14 11q-7 46 -8 63q-43 -41 -86 -63.5t-90 -22.5q-66 0 -100 41.5t-34 123.5v327q0 12 11 12h95q5 0 8.5 -3.5t3.5 -8.5v-308q0 -42 14.5 -62t45.5 -20q28 0 56.5 16t65.5 50v324q0 5 3.5 8.5t8.5 3.5h95q11 0 11 -12v-355
q0 -63 7 -113v-2zM141 569l55 130q4 10 14 10h85q7 0 8.5 -4t-1.5 -10l-71 -130q-5 -8 -14 -8h-68q-12 0 -8 12zM298 569l54 130q4 10 14 10h86q6 0 8 -4t-2 -10l-71 -130q-4 -8 -13 -8h-69q-13 0 -7 12z" />
    <glyph glyph-name="Uogonek" unicode="&#x172;" horiz-adv-x="651" 
d="M579.5 651.5q3.5 -3.5 3.5 -8.5v-410q0 -90 -39 -149t-114 -82q-27 -12 -42.5 -32t-15.5 -43v-8q0 -16 9 -23t28 -7q8 0 28 2h3q7 0 7 -8v-64q0 -5 -2 -7t-8 -4q-21 -5 -52 -5q-50 0 -77.5 22.5t-27.5 60.5v11q0 53 50 91h-4q-125 0 -191 62.5t-66 184.5v408q0 12 11 12
h97q5 0 8.5 -3.5t3.5 -8.5v-406q0 -70 34.5 -107t102.5 -37t102.5 37t34.5 107v406q0 12 11 12h97q5 0 8.5 -3.5z" />
    <glyph glyph-name="uogonek" unicode="&#x173;" horiz-adv-x="546" 
d="M490 -109q7 0 7 -8v-64q0 -5 -2 -7t-8 -4q-21 -5 -52 -5q-50 0 -77.5 22.5t-27.5 60.5v11q0 31 18 57.5t51 45.5h-3q-13 0 -14 11q-7 46 -8 63q-43 -41 -86 -63.5t-90 -22.5q-66 0 -100 41.5t-34 123.5v327q0 12 11 12h95q5 0 8.5 -3.5t3.5 -8.5v-308q0 -42 14.5 -62
t45.5 -20q28 0 56.5 16t65.5 50v324q0 5 3.5 8.5t8.5 3.5h95q11 0 11 -12v-355q0 -63 7 -113v-2q0 -4 -3.5 -7t-8.5 -3h-1q-26 -12 -40 -31.5t-14 -41.5v-8q0 -16 9 -23t28 -7q8 0 28 2h3z" />
    <glyph glyph-name="Wcircumflex" unicode="&#x174;" horiz-adv-x="872" 
d="M194 10l-177 632v3q0 10 11 10h97q12 0 13 -10l96 -358q7 -23 26 -116l9 -47h2q26 92 41 139l76 244l-37 122q-1 2 -1 5q0 4 3 6t8 2h98q5 0 8 -3t4 -7l100 -371q18 -65 34 -137h1l11 56q13 68 23 111l92 354q1 10 13 10h100q6 0 9 -3.5t1 -9.5l-172 -632q-3 -10 -13 -10
h-120q-11 0 -14 10l-58 206q-18 61 -37 138h-2l-13 -46q-6 -19 -12.5 -41.5t-14.5 -48.5l-63 -209q-4 -9 -13 -9h-116q-10 0 -13 10zM299 713q-7 0 -7 8v63q0 9 8 12l128 59q3 2 8 2q6 0 9 -2l128 -59q8 -3 8 -12v-63q0 -11 -12 -7l-132 50l-133 -50q-2 -1 -5 -1z" />
    <glyph glyph-name="wcircumflex" unicode="&#x175;" horiz-adv-x="741" 
d="M171 10l-147 469q-1 2 -1 5q0 8 10 8h101q9 0 12 -11l65 -243q19 -75 30 -130h3l37 125l42 137l-26 98l-1 5q0 8 10 8h89q12 0 13 -9l60 -237l29 -127h3q14 68 30 131l65 242q3 11 12 11h101q6 0 8.5 -3.5t0.5 -9.5l-147 -469q-4 -10 -13 -10h-110q-11 0 -14 10l-25 85
q-18 62 -34 149h-3q-11 -63 -37 -147l-27 -87q-3 -10 -13 -10h-110q-10 0 -13 10zM242 547q-6 0 -6 8v64q0 8 7 14l119 69q3 2 8 2q6 0 9 -2l119 -69q7 -6 7 -14v-64q0 -6 -3.5 -7.5t-9.5 2.5l-121 60l-122 -60q-4 -3 -7 -3z" />
    <glyph glyph-name="Ycircumflex" unicode="&#x176;" horiz-adv-x="563" 
d="M222 12v214l-214 415q-2 4 -2 6q0 8 10 8h110q11 0 14 -8l89 -189q25 -54 53 -119h1q18 42 54 120l88 188q3 8 14 8h108q6 0 8.5 -4t-0.5 -10l-213 -415v-214q0 -5 -3.5 -8.5t-8.5 -3.5h-97q-11 0 -11 12zM144 713q-7 0 -7 8v63q0 9 8 12l128 59q3 2 8 2q6 0 9 -2
l128 -59q8 -3 8 -12v-63q0 -11 -12 -7l-132 50l-133 -50q-2 -1 -5 -1z" />
    <glyph glyph-name="ycircumflex" unicode="&#x177;" horiz-adv-x="512" 
d="M134.5 -181q-2.5 4 0.5 10l67 175l-183 474q-1 2 -1 5q0 9 10 9h103q10 0 13 -10l72 -205q18 -50 40 -135h2q19 69 41 135l72 205q3 10 13 10h100q15 0 10 -14l-245 -654q-4 -9 -13 -9h-93q-6 0 -8.5 4zM127 547q-6 0 -6 8v64q0 8 7 14l119 69q3 2 8 2q6 0 9 -2l119 -69
q7 -6 7 -14v-64q0 -6 -3.5 -7.5t-9.5 2.5l-121 60l-122 -60q-4 -3 -7 -3z" />
    <glyph glyph-name="Ydieresis" unicode="&#x178;" horiz-adv-x="563" 
d="M222 12v214l-214 415q-2 4 -2 6q0 8 10 8h110q11 0 14 -8l89 -189q25 -54 53 -119h1q18 42 54 120l88 188q3 8 14 8h108q6 0 8.5 -4t-0.5 -10l-213 -415v-214q0 -5 -3.5 -8.5t-8.5 -3.5h-97q-11 0 -11 12zM141 725q-16 16 -16 44v14q0 28 16 43.5t47 15.5q32 0 48 -15.5
t16 -43.5v-14q0 -28 -16.5 -44t-47.5 -16t-47 16zM328 725q-16 16 -16 44v14q0 28 16 43.5t47 15.5t47 -15.5t16 -43.5v-14q0 -28 -16 -44t-47 -16t-47 16z" />
    <glyph glyph-name="Zacute" unicode="&#x179;" horiz-adv-x="556" 
d="M20 3q-3 3 -3 8v5q0 8 4 15l269 422l13 21q24 41 48 74v2q-37 -1 -112 -1h-180q-5 0 -8.5 3.5t-3.5 8.5v82q0 5 3.5 8.5t8.5 3.5h466q5 0 8.5 -3t3.5 -8v-5q0 -5 -4 -15l-266 -412q-50 -79 -69 -106v-2q41 2 124 2h180q5 0 8.5 -3.5t3.5 -8.5v-82q0 -5 -3.5 -8.5
t-8.5 -3.5h-474q-5 0 -8 3zM210 720l59 109q3 8 13 8h91q6 0 8 -4t-2 -9l-80 -109q-4 -6 -13 -6h-70q-12 0 -6 11z" />
    <glyph glyph-name="zacute" unicode="&#x17a;" horiz-adv-x="473" 
d="M22 3q-3 3 -3 8v3q0 8 4 15l191 277l15 22q30 44 45 64v2q-36 -1 -106 -1h-113q-5 0 -8.5 3.5t-3.5 8.5v75q0 5 3.5 8.5t8.5 3.5h386q5 0 8.5 -3t3.5 -8v-3q0 -10 -8 -20l-182 -264l-67 -94v-1h101h129q5 0 8.5 -3.5t3.5 -8.5v-75q0 -5 -3.5 -8.5t-8.5 -3.5h-396
q-5 0 -8 3zM175 569l68 125q3 5 6 7t9 2h90q6 0 7.5 -4t-2.5 -9l-90 -126q-4 -7 -13 -7h-68q-12 0 -7 12z" />
    <glyph glyph-name="Zdotaccent" unicode="&#x17b;" horiz-adv-x="556" 
d="M20 3q-3 3 -3 8v5q0 8 4 15l269 422l13 21q24 41 48 74v2q-37 -1 -112 -1h-180q-5 0 -8.5 3.5t-3.5 8.5v82q0 5 3.5 8.5t8.5 3.5h466q5 0 8.5 -3t3.5 -8v-5q0 -5 -4 -15l-266 -412q-50 -79 -69 -106v-2q41 2 124 2h180q5 0 8.5 -3.5t3.5 -8.5v-82q0 -5 -3.5 -8.5
t-8.5 -3.5h-474q-5 0 -8 3zM228.5 739.5q-17.5 17.5 -17.5 46.5v15q0 30 17.5 47t51.5 17t51 -17t17 -47v-15q0 -29 -17.5 -46.5t-50.5 -17.5q-34 0 -51.5 17.5z" />
    <glyph glyph-name="zdotaccent" unicode="&#x17c;" horiz-adv-x="473" 
d="M22 3q-3 3 -3 8v3q0 8 4 15l191 277l15 22q30 44 45 64v2q-36 -1 -106 -1h-113q-5 0 -8.5 3.5t-3.5 8.5v75q0 5 3.5 8.5t8.5 3.5h386q5 0 8.5 -3t3.5 -8v-3q0 -10 -8 -20l-182 -264l-67 -94v-1h101h129q5 0 8.5 -3.5t3.5 -8.5v-75q0 -5 -3.5 -8.5t-8.5 -3.5h-396
q-5 0 -8 3zM195.5 580.5q-17.5 17.5 -17.5 46.5v15q0 30 17.5 47t51.5 17t51 -17t17 -47v-15q0 -29 -17.5 -46.5t-50.5 -17.5q-34 0 -51.5 17.5z" />
    <glyph glyph-name="Zcaron" unicode="&#x17d;" horiz-adv-x="556" 
d="M20 3q-3 3 -3 8v5q0 8 4 15l269 422l13 21q24 41 48 74v2q-37 -1 -112 -1h-180q-5 0 -8.5 3.5t-3.5 8.5v82q0 5 3.5 8.5t8.5 3.5h466q5 0 8.5 -3t3.5 -8v-5q0 -5 -4 -15l-266 -412q-50 -79 -69 -106v-2q41 2 124 2h180q5 0 8.5 -3.5t3.5 -8.5v-82q0 -5 -3.5 -8.5
t-8.5 -3.5h-474q-5 0 -8 3zM143 773q-5 2 -6.5 4.5t-1.5 7.5v64q0 12 12 6l133 -50l132 50l6 2q6 0 6 -8v-64q0 -5 -1.5 -7.5t-6.5 -4.5l-128 -58q-6 -2 -9 -2l-8 2z" />
    <glyph glyph-name="zcaron" unicode="&#x17e;" horiz-adv-x="473" 
d="M22 3q-3 3 -3 8v3q0 8 4 15l191 277l15 22q30 44 45 64v2q-36 -1 -106 -1h-113q-5 0 -8.5 3.5t-3.5 8.5v75q0 5 3.5 8.5t8.5 3.5h386q5 0 8.5 -3t3.5 -8v-3q0 -10 -8 -20l-182 -264l-67 -94v-1h101h129q5 0 8.5 -3.5t3.5 -8.5v-75q0 -5 -3.5 -8.5t-8.5 -3.5h-396
q-5 0 -8 3zM119 619q-7 4 -7 14v63q0 13 13 6l122 -61l121 61q6 2 7 2q6 0 6 -8v-63q0 -10 -7 -14l-119 -69q-5 -3 -9 -3q-3 0 -8 3z" />
    <glyph glyph-name="florin" unicode="&#x192;" horiz-adv-x="630" 
d="M210.5 -181.5q-3.5 3.5 -3.5 8.5v499h-78q-5 0 -8.5 3t-3.5 8v76q0 5 3.5 8.5t8.5 3.5h78v82q0 78 44.5 119t121.5 41q66 0 121 -19q9 -3 9 -11v-76q0 -5 -3.5 -7.5t-9.5 -0.5q-43 18 -90 18q-75 0 -75 -71v-75h132q5 0 8 -3.5t3 -8.5v-76q0 -4 -3 -7.5t-8 -3.5h-132
v-499q0 -5 -3.5 -8.5t-8.5 -3.5h-94q-5 0 -8.5 3.5z" />
    <glyph glyph-name="uni0218" unicode="&#x218;" horiz-adv-x="572" 
d="M101.5 33q-59.5 45 -59.5 129q0 14 1 21q1 17 14 17h94q14 0 12 -15q-1 -48 29 -71t93 -23q61 0 90.5 19.5t29.5 60.5q0 29 -16.5 47t-60.5 36l-145 62q-71 29 -100.5 69.5t-29.5 101.5q0 88 56 133.5t168 45.5t174 -43t62 -125q0 -13 -1 -20q-1 -18 -12 -18h-95
q-6 0 -9 4t-2 14q3 40 -28.5 63.5t-89.5 23.5q-103 0 -103 -75q0 -27 17.5 -45t61.5 -37l143 -61q71 -30 100.5 -69.5t29.5 -103.5q0 -186 -246 -186q-118 0 -177.5 45zM251 -237l14 69q-30 10 -30 47v18q0 24 14.5 37t40.5 13q60 0 60 -50v-19q0 -25 -9 -52l-22 -66
q-4 -7 -12 -7h-49q-10 0 -7 10z" />
    <glyph glyph-name="uni0219" unicode="&#x219;" horiz-adv-x="471" 
d="M89.5 27q-46.5 39 -43.5 121q0 11 12 11h90q10 0 10 -11q0 -36 18.5 -53t58.5 -17q81 0 81 53q0 19 -12.5 32.5t-42.5 25.5l-114 48q-52 21 -74.5 51t-22.5 79q0 69 45 103t137 34q94 0 142.5 -36t48.5 -105q0 -11 -12 -11h-90q-12 0 -12 16q0 22 -19 34.5t-53 12.5
q-69 0 -69 -48q0 -18 10.5 -28t41.5 -23l114 -48q53 -22 76.5 -53t23.5 -79q0 -73 -50.5 -110.5t-148.5 -37.5q-99 0 -145.5 39zM211 -248.5q-2 2.5 0 8.5l14 68q-30 12 -30 48v17q0 24 14.5 37.5t40.5 13.5q60 0 60 -51v-19q0 -24 -9 -52l-22 -65q-3 -8 -12 -8h-48
q-6 0 -8 2.5z" />
    <glyph glyph-name="uni021A" unicode="&#x21a;" horiz-adv-x="545" 
d="M215.5 3.5q-3.5 3.5 -3.5 8.5v537h-172q-5 0 -8.5 3.5t-3.5 8.5v82q0 5 3.5 8.5t8.5 3.5h465q5 0 8.5 -3.5t3.5 -8.5v-82q0 -5 -3.5 -8.5t-8.5 -3.5h-172v-537q0 -5 -3.5 -8.5t-8.5 -3.5h-97q-5 0 -8.5 3.5zM231 -237l14 69q-30 10 -30 47v18q0 24 14.5 37t40.5 13
q60 0 60 -50v-19q0 -25 -9 -52l-22 -66q-4 -7 -12 -7h-49q-10 0 -7 10z" />
    <glyph glyph-name="uni021B" unicode="&#x21b;" horiz-adv-x="395" 
d="M136 28q-36 40 -36 131v234h-73q-12 0 -12 12v75q0 12 12 12h77l13 120q3 11 13 11h76q12 0 12 -12v-119h137q5 0 8.5 -3.5t3.5 -8.5v-75q0 -5 -3.5 -8.5t-8.5 -3.5h-137v-228q0 -40 15 -58t50 -18q36 0 71 15q2 1 5 1q9 0 9 -10v-77q0 -10 -9 -13q-40 -17 -101 -17
q-86 0 -122 40zM206 -248.5q-2 2.5 0 8.5l14 68q-30 12 -30 48v17q0 24 14.5 37.5t40.5 13.5q60 0 60 -51v-19q0 -24 -9 -52l-22 -65q-3 -8 -12 -8h-48q-6 0 -8 2.5z" />
    <glyph glyph-name="uni0237" unicode="&#x237;" horiz-adv-x="246" 
d="M50 -193q-4 0 -9 5l-57 67q-3 4 -3 8t6 9q77 55 77 180v404q0 5 3 8.5t8 3.5h95q5 0 8.5 -3.5t3.5 -8.5v-406q0 -98 -29.5 -161t-96.5 -104q-4 -2 -6 -2z" />
    <glyph glyph-name="uni02BC" unicode="&#x2bc;" horiz-adv-x="175" 
d="M46 511l14 68q-30 12 -30 48v17q0 24 14.5 37.5t40.5 13.5q60 0 60 -51v-19q0 -23 -9 -52l-22 -65q-4 -8 -12 -8h-49q-10 0 -7 11z" />
    <glyph glyph-name="circumflex" unicode="&#x2c6;" horiz-adv-x="329" 
d="M36 547q-6 0 -6 8v64q0 8 7 14l119 69q3 2 8 2q6 0 9 -2l119 -69q7 -6 7 -14v-64q0 -6 -3.5 -7.5t-9.5 2.5l-121 60l-122 -60q-4 -3 -7 -3z" />
    <glyph glyph-name="caron" unicode="&#x2c7;" horiz-adv-x="329" 
d="M37 619q-7 4 -7 14v63q0 13 13 6l122 -61l121 61q6 2 7 2q6 0 6 -8v-63q0 -10 -7 -14l-119 -69q-5 -3 -9 -3q-3 0 -8 3z" />
    <glyph glyph-name="breve" unicode="&#x2d8;" horiz-adv-x="321" 
d="M84 572q-32 16 -50 36q-4 4 -4 13v66q0 10 6 10q1 0 7 -4q55 -50 118 -50q36 0 66.5 15t50.5 35q4 4 7 4q6 0 6 -10v-66q0 -10 -5 -15q-56 -50 -125 -50q-45 0 -77 16z" />
    <glyph glyph-name="dotaccent" unicode="&#x2d9;" horiz-adv-x="197" 
d="M47.5 580.5q-17.5 17.5 -17.5 46.5v15q0 30 17.5 47t51.5 17t51 -17t17 -47v-15q0 -29 -17.5 -46.5t-50.5 -17.5q-34 0 -51.5 17.5z" />
    <glyph glyph-name="ring" unicode="&#x2da;" horiz-adv-x="302" 
d="M62 580.5q-32 27.5 -32 78.5t31.5 78.5t89.5 27.5q57 0 89 -27.5t32 -78.5t-32 -78.5t-89 -27.5t-89 27.5zM194 660q0 43 -43 43t-43 -43t43 -43t43 43z" />
    <glyph glyph-name="ogonek" unicode="&#x2db;" horiz-adv-x="227" 
d="M57.5 -174.5q-27.5 22.5 -27.5 60.5v11q0 44 35 78t98 51l17 -13v-11q-27 -12 -42.5 -32t-15.5 -43v-8q0 -16 9 -23t28 -7q8 0 28 2h3q7 0 7 -8v-64q0 -5 -2 -7t-8 -4q-21 -5 -52 -5q-50 0 -77.5 22.5z" />
    <glyph glyph-name="tilde" unicode="&#x2dc;" horiz-adv-x="329" 
d="M190 568.5q-12 3.5 -29 10.5q-30 13 -50 13q-15 0 -30.5 -5.5t-36.5 -14.5q-4 -2 -6 -2q-8 0 -8 10v58q0 9 7 15q13 11 33 19t43 8q20 0 34 -4t29 -12q2 -1 15 -6.5t27 -5.5q24 0 67 20q6 2 7 2q7 0 7 -9v-58q0 -9 -7 -15q-13 -11 -33 -19t-43 -8q-14 0 -26 3.5z" />
    <glyph glyph-name="hungarumlaut" unicode="&#x2dd;" horiz-adv-x="380" 
d="M31 569l55 130q4 10 14 10h85q7 0 8.5 -4t-1.5 -10l-71 -130q-5 -8 -14 -8h-68q-12 0 -8 12zM188 569l54 130q4 10 14 10h86q6 0 8 -4t-2 -10l-71 -130q-4 -8 -13 -8h-69q-13 0 -7 12z" />
    <glyph glyph-name="gravecomb" unicode="&#x300;" 
d="M-119 564l-90 126q-2 4 -2 6q0 7 8 7h90q10 0 14 -9l68 -125q2 -4 2 -6q0 -6 -8 -6h-69q-8 0 -13 7z" />
    <glyph glyph-name="acutecomb" unicode="&#x301;" 
d="M-210 569l68 125q3 5 6 7t9 2h90q6 0 7.5 -4t-2.5 -9l-90 -126q-4 -7 -13 -7h-68q-12 0 -7 12z" />
    <glyph glyph-name="uni0302" unicode="&#x302;" 
d="M-293 547q-6 0 -6 8v64q0 8 7 14l119 69q3 2 8 2q6 0 9 -2l119 -69q7 -6 7 -14v-64q0 -6 -3.5 -7.5t-9.5 2.5l-121 60l-122 -60q-4 -3 -7 -3z" />
    <glyph glyph-name="tildecomb" unicode="&#x303;" 
d="M-139 568.5q-12 3.5 -29 10.5q-30 13 -50 13q-15 0 -30.5 -5.5t-36.5 -14.5q-4 -2 -6 -2q-8 0 -8 10v58q0 9 7 15q13 11 33 19t43 8q20 0 34 -4t29 -12q2 -1 15 -6.5t27 -5.5q24 0 67 20q6 2 7 2q7 0 7 -9v-58q0 -9 -7 -15q-13 -11 -33 -19t-43 -8q-14 0 -26 3.5z" />
    <glyph glyph-name="uni0304" unicode="&#x304;" 
d="M-259.5 573.5q-3.5 3.5 -3.5 8.5v66q0 11 12 11h209q12 0 12 -11v-66q0 -5 -3.5 -8.5t-8.5 -3.5h-209q-5 0 -8.5 3.5z" />
    <glyph glyph-name="uni0306" unicode="&#x306;" 
d="M-237 572q-32 16 -50 36q-4 4 -4 13v66q0 10 6 10q1 0 7 -4q55 -50 118 -50q36 0 66.5 15t50.5 35q4 4 7 4q6 0 6 -10v-66q0 -10 -5 -15q-56 -50 -125 -50q-45 0 -77 16z" />
    <glyph glyph-name="uni0307" unicode="&#x307;" 
d="M-149.5 580.5q-17.5 17.5 -17.5 46.5v15q0 30 17.5 47t51.5 17t51 -17t17 -47v-15q0 -29 -17.5 -46.5t-50.5 -17.5q-34 0 -51.5 17.5z" />
    <glyph glyph-name="uni0308" unicode="&#x308;" 
d="M-328 579.5q-16 15.5 -16 43.5v14q0 28 16 44t47 16q32 0 48 -16t16 -44v-14q0 -28 -16 -43.5t-48 -15.5q-31 0 -47 15.5zM-141 579.5q-16 15.5 -16 43.5v14q0 28 16 44t48 16q31 0 47 -15.5t16 -44.5v-14q0 -28 -16 -43.5t-47 -15.5q-32 0 -48 15.5z" />
    <glyph glyph-name="uni030A" unicode="&#x30a;" 
d="M-240 580.5q-32 27.5 -32 78.5t31.5 78.5t89.5 27.5q57 0 89 -27.5t32 -78.5t-32 -78.5t-89 -27.5t-89 27.5zM-108 660q0 43 -43 43t-43 -43t43 -43t43 43z" />
    <glyph glyph-name="uni030B" unicode="&#x30b;" 
d="M-349 569l55 130q4 10 14 10h85q7 0 8.5 -4t-1.5 -10l-71 -130q-5 -8 -14 -8h-68q-12 0 -8 12zM-192 569l54 130q4 10 14 10h86q6 0 8 -4t-2 -10l-71 -130q-4 -8 -13 -8h-69q-13 0 -7 12z" />
    <glyph glyph-name="uni030C" unicode="&#x30c;" 
d="M-292 619q-7 4 -7 14v63q0 13 13 6l122 -61l121 61q6 2 7 2q6 0 6 -8v-63q0 -10 -7 -14l-119 -69q-5 -3 -9 -3q-3 0 -8 3z" />
    <glyph glyph-name="uni0312" unicode="&#x312;" 
d="M-130 572.5q-15 13.5 -15 37.5v19q0 25 9 52l22 66q2 7 11 7h50q8 0 7 -11l-15 -68q15 -5 23 -17.5t8 -29.5v-18q0 -24 -15 -37.5t-41 -13.5q-29 0 -44 13.5z" />
    <glyph glyph-name="uni0313" unicode="&#x313;" 
d="M-129 559l14 69q-30 11 -30 47v18q0 24 14.5 37t40.5 13q60 0 60 -50v-20q0 -23 -9 -52l-22 -65q-4 -8 -12 -8h-49q-10 0 -7 11z" />
    <glyph glyph-name="uni0324" unicode="&#x324;" 
d="M-327 -172.5q-16 15.5 -16 43.5v14q0 28 16 44t47 16q32 0 48 -16t16 -44v-14q0 -28 -16 -43.5t-48 -15.5q-31 0 -47 15.5zM-140 -172.5q-16 15.5 -16 43.5v14q0 28 16 44t48 16q31 0 47 -15.5t16 -44.5v-14q0 -28 -16 -43.5t-47 -15.5q-32 0 -48 15.5z" />
    <glyph glyph-name="uni0325" unicode="&#x325;" 
d="M-240 -210.5q-32 27.5 -32 78.5t31.5 78.5t89.5 27.5q57 0 89 -27.5t32 -78.5t-32 -78.5t-89 -27.5t-89 27.5zM-108 -131q0 43 -43 43t-43 -43t43 -43t43 43z" />
    <glyph glyph-name="uni0326" unicode="&#x326;" 
d="M-129 -248.5q-2 2.5 0 8.5l14 68q-30 12 -30 48v17q0 24 14.5 37.5t40.5 13.5q60 0 60 -51v-19q0 -24 -9 -52l-22 -65q-3 -8 -12 -8h-48q-6 0 -8 2.5z" />
    <glyph glyph-name="uni0327" unicode="&#x327;" 
d="M-187 -193q-6 2 -7.5 3.5t-1.5 6.5v46q0 9 7 9q6 0 14.5 -1t16.5 -1q39 0 39 22v10q0 14 -7.5 19t-24.5 5h-23q-4 0 -5.5 1.5t-1.5 5.5q0 15 2 21l25 78q3 7 10 7h63q9 0 6 -12l-21 -63h9q27 0 42 -17t15 -46v-16q0 -82 -107 -82q-30 0 -50 4z" />
    <glyph glyph-name="uni0328" unicode="&#x328;" 
d="M-169.5 -174.5q-27.5 22.5 -27.5 60.5v11q0 44 35 78t98 51l17 -13v-11q-27 -12 -42.5 -32t-15.5 -43v-8q0 -16 9 -23t28 -7q8 0 28 2h3q7 0 7 -8v-64q0 -5 -2 -7t-8 -4q-21 -5 -52 -5q-50 0 -77.5 22.5z" />
    <glyph glyph-name="uni0330" unicode="&#x330;" 
d="M-139 -197.5q-12 3.5 -29 10.5q-30 13 -50 13q-15 0 -30.5 -5.5t-36.5 -14.5q-4 -2 -6 -2q-8 0 -8 10v58q0 9 7 15q13 11 33 19t43 8q20 0 34 -4t29 -12q2 -1 15 -6.5t27 -5.5q24 0 67 20q6 2 7 2q7 0 7 -9v-58q0 -9 -7 -15q-13 -11 -33 -19t-43 -8q-14 0 -26 3.5z" />
    <glyph glyph-name="uni0331" unicode="&#x331;" 
d="M-259.5 -185.5q-3.5 3.5 -3.5 8.5v66q0 11 12 11h209q12 0 12 -11v-66q0 -5 -3.5 -8.5t-8.5 -3.5h-209q-5 0 -8.5 3.5z" />
    <glyph glyph-name="uni0335" unicode="&#x335;" 
d="M-396 233v66q0 12 11 12h343q12 0 12 -12v-66q0 -5 -3.5 -8.5t-8.5 -3.5h-343q-11 0 -11 12z" />
    <glyph glyph-name="uni0336" unicode="&#x336;" 
d="M-788 233v66q0 12 11 12h735q12 0 12 -12v-66q0 -5 -3.5 -8.5t-8.5 -3.5h-735q-11 0 -11 12z" />
    <glyph glyph-name="tonos" unicode="&#x384;" horiz-adv-x="214" 
d="M30 557l36 145q1 10 13 10h96q13 0 7 -14l-61 -144q-4 -9 -13 -9h-69q-11 0 -9 12z" />
    <glyph glyph-name="dieresistonos" unicode="&#x385;" horiz-adv-x="377" 
d="M143.5 730.5q-2.5 3.5 -1.5 9.5l30 128q3 10 13 10h95q14 0 9 -13l-55 -128q-4 -10 -13 -10h-69q-6 0 -8.5 3.5zM46 578.5q-16 15.5 -16 43.5v14q0 28 16 43.5t47 15.5q32 0 48 -15.5t16 -43.5v-14q0 -28 -16 -43.5t-48 -15.5q-31 0 -47 15.5zM236 578.5
q-16 15.5 -16 43.5v14q0 28 16 43.5t47 15.5q32 0 48 -15.5t16 -43.5v-14q0 -28 -16 -43.5t-48 -15.5q-31 0 -47 15.5z" />
    <glyph glyph-name="Alphatonos" unicode="&#x386;" horiz-adv-x="610" 
d="M612 8q0 -8 -10 -8h-106q-9 0 -13 9l-40 128h-254l-39 -127q-3 -10 -14 -10h-103q-13 0 -10 13l216 633q3 9 13 9h128q11 0 14 -9l217 -633q1 -2 1 -5zM412 235l-58 185l-7 24q-14 46 -31 107h-2q-12 -43 -38 -129l-57 -187h193zM29 511l25 135q1 9 12 9h94q12 0 7 -13
l-46 -134q-3 -9 -13 -9h-70q-10 0 -9 12z" />
    <glyph glyph-name="anoteleia" unicode="&#x387;" horiz-adv-x="264" 
d="M75 355q-20 19 -20 52v17q0 34 19.5 52.5t57.5 18.5t57.5 -18.5t19.5 -52.5v-17q0 -33 -19.5 -52t-57.5 -19q-37 0 -57 19z" />
    <glyph glyph-name="Epsilontonos" unicode="&#x388;" horiz-adv-x="655" 
d="M189 12v631q0 12 11 12h383q5 0 8 -3.5t3 -8.5v-82q0 -5 -3 -8.5t-8 -3.5h-274v-167h250q5 0 8 -3.5t3 -8.5v-77q0 -5 -3 -8.5t-8 -3.5h-250v-175h274q5 0 8 -3.5t3 -8.5v-82q0 -5 -3 -8.5t-8 -3.5h-383q-11 0 -11 12zM0 511l25 135q1 9 12 9h94q12 0 7 -13l-46 -134
q-3 -9 -13 -9h-70q-10 0 -9 12z" />
    <glyph glyph-name="Etatonos" unicode="&#x389;" horiz-adv-x="783" 
d="M189 12v631q0 12 11 12h97q5 0 8.5 -3.5t3.5 -8.5v-257h280v257q0 5 3.5 8.5t8.5 3.5h97q11 0 11 -12v-631q0 -12 -11 -12h-97q-5 0 -8.5 3.5t-3.5 8.5v270h-280v-270q0 -5 -3.5 -8.5t-8.5 -3.5h-97q-11 0 -11 12zM0 511l25 135q1 9 12 9h94q12 0 7 -13l-46 -134
q-3 -9 -13 -9h-70q-10 0 -9 12z" />
    <glyph glyph-name="Iotatonos" unicode="&#x38a;" horiz-adv-x="382" 
d="M189 12v631q0 12 11 12h97q5 0 8.5 -3.5t3.5 -8.5v-631q0 -5 -3.5 -8.5t-8.5 -3.5h-97q-11 0 -11 12zM0 511l25 135q1 9 12 9h94q12 0 7 -13l-46 -134q-3 -9 -13 -9h-70q-10 0 -9 12z" />
    <glyph glyph-name="Omicrontonos" unicode="&#x38c;" horiz-adv-x="724" 
d="M201.5 51q-66.5 63 -66.5 183v187q0 120 66.5 183t197.5 63q130 0 196.5 -63t66.5 -183v-187q0 -120 -66.5 -183t-196.5 -63q-131 0 -197.5 63zM505.5 130.5q36.5 37.5 36.5 109.5v175q0 72 -36.5 109.5t-106.5 37.5q-71 0 -107.5 -37.5t-36.5 -109.5v-175
q0 -72 36.5 -109.5t107.5 -37.5q70 0 106.5 37.5zM0 511l25 135q1 9 12 9h94q12 0 7 -13l-46 -134q-3 -9 -13 -9h-70q-10 0 -9 12z" />
    <glyph glyph-name="Upsilontonos" unicode="&#x38e;" horiz-adv-x="729" 
d="M388 12v214l-214 415q-2 4 -2 6q0 8 10 8h110q11 0 14 -8l89 -189q25 -54 53 -119h1q18 42 54 120l88 188q3 8 14 8h108q6 0 8.5 -4t-0.5 -10l-213 -415v-214q0 -5 -3.5 -8.5t-8.5 -3.5h-97q-11 0 -11 12zM0 511l25 135q1 9 12 9h94q12 0 7 -13l-46 -134q-3 -9 -13 -9
h-70q-10 0 -9 12z" />
    <glyph glyph-name="Omegatonos" unicode="&#x38f;" horiz-adv-x="725" 
d="M127.5 3.5q-3.5 3.5 -3.5 8.5v85q0 11 12 11h78v2q-43 26 -61 62t-18 95v154q0 120 66.5 183t197.5 63t197.5 -63t66.5 -183v-154q0 -59 -18 -95t-61 -62v-2h78q12 0 12 -11v-85q0 -5 -3.5 -8.5t-8.5 -3.5h-220q-5 0 -8.5 3.5t-3.5 8.5v82q0 5 3.5 8.5t8.5 3.5
q47 0 74 34.5t27 94.5v181q0 72 -36.5 109t-107.5 37t-107.5 -37t-36.5 -109v-181q0 -60 27 -94.5t74 -34.5q11 0 11 -12v-82q0 -12 -11 -12h-220q-5 0 -8.5 3.5zM0 511l25 135q1 9 12 9h94q12 0 7 -13l-46 -134q-3 -9 -13 -9h-70q-10 0 -9 12z" />
    <glyph glyph-name="iotadieresistonos" unicode="&#x390;" horiz-adv-x="336" 
d="M100.5 22q-36.5 34 -36.5 119v339q0 12 11 12h95q5 0 8.5 -3.5t3.5 -8.5v-336q0 -32 14 -45t49 -13q27 0 62 7l4 1q8 0 8 -11v-72q0 -9 -10 -12q-33 -11 -88 -11q-84 0 -120.5 34zM77.5 730.5q-2.5 3.5 -1.5 9.5l30 128q3 10 13 10h95q14 0 9 -13l-55 -128
q-4 -10 -13 -10h-69q-6 0 -8.5 3.5zM-20 578.5q-16 15.5 -16 43.5v14q0 28 16 43.5t47 15.5q32 0 48 -15.5t16 -43.5v-14q0 -28 -16 -43.5t-48 -15.5q-31 0 -47 15.5zM170 578.5q-16 15.5 -16 43.5v14q0 28 16 43.5t47 15.5q32 0 48 -15.5t16 -43.5v-14q0 -28 -16 -43.5
t-48 -15.5q-31 0 -47 15.5z" />
    <glyph glyph-name="Alpha" unicode="&#x391;" horiz-adv-x="587" 
d="M588 8q0 -8 -10 -8h-106q-9 0 -13 9l-40 128h-254l-39 -127q-3 -10 -14 -10h-103q-13 0 -10 13l216 633q3 9 13 9h128q11 0 14 -9l217 -633q1 -2 1 -5zM388 235l-58 185l-7 24q-14 46 -31 107h-2q-12 -43 -38 -129l-57 -187h193z" />
    <glyph glyph-name="Beta" unicode="&#x392;" horiz-adv-x="588" 
d="M74 12v631q0 12 11 12h199q237 0 237 -162q0 -57 -25.5 -91t-82.5 -54v-3q136 -24 136 -158q0 -97 -63.5 -142t-201.5 -45h-199q-11 0 -11 12zM281 381q62 0 91 21.5t29 68.5q0 45 -30 65t-98 20h-79v-175h87zM287 100q76 0 109 21.5t33 72.5q0 50 -33.5 73t-107.5 23
h-94v-190h93z" />
    <glyph glyph-name="Gamma" unicode="&#x393;" horiz-adv-x="477" 
d="M74 12v631q0 12 11 12h356q11 0 11 -12v-82q0 -12 -11 -12h-247v-537q0 -5 -3.5 -8.5t-8.5 -3.5h-97q-11 0 -11 12z" />
    <glyph glyph-name="uni0394" unicode="&#x394;" horiz-adv-x="565" 
d="M15.5 3.5q-3.5 3.5 -3.5 8.5v64q0 8 3 15l189 555q4 9 14 9h129q9 0 13 -9l190 -554q3 -7 3 -14v-66q0 -5 -3.5 -8.5t-8.5 -3.5h-517q-5 0 -8.5 3.5zM420 107l-105 330q-12 38 -34 114h-1q-22 -78 -34 -116l-103 -328h277z" />
    <glyph glyph-name="Epsilon" unicode="&#x395;" horiz-adv-x="540" 
d="M74 12v631q0 12 11 12h383q5 0 8 -3.5t3 -8.5v-82q0 -5 -3 -8.5t-8 -3.5h-274v-167h250q5 0 8 -3.5t3 -8.5v-77q0 -5 -3 -8.5t-8 -3.5h-250v-175h274q5 0 8 -3.5t3 -8.5v-82q0 -5 -3 -8.5t-8 -3.5h-383q-11 0 -11 12z" />
    <glyph glyph-name="Zeta" unicode="&#x396;" horiz-adv-x="556" 
d="M20 3q-3 3 -3 8v5q0 8 4 15l269 422l13 21q24 41 48 74v2q-37 -1 -112 -1h-180q-5 0 -8.5 3.5t-3.5 8.5v82q0 5 3.5 8.5t8.5 3.5h466q5 0 8.5 -3t3.5 -8v-5q0 -5 -4 -15l-266 -412q-50 -79 -69 -106v-2q41 2 124 2h180q5 0 8.5 -3.5t3.5 -8.5v-82q0 -5 -3.5 -8.5
t-8.5 -3.5h-474q-5 0 -8 3z" />
    <glyph glyph-name="Eta" unicode="&#x397;" horiz-adv-x="668" 
d="M74 12v631q0 12 11 12h97q5 0 8.5 -3.5t3.5 -8.5v-257h280v257q0 5 3.5 8.5t8.5 3.5h97q11 0 11 -12v-631q0 -12 -11 -12h-97q-5 0 -8.5 3.5t-3.5 8.5v270h-280v-270q0 -5 -3.5 -8.5t-8.5 -3.5h-97q-11 0 -11 12z" />
    <glyph glyph-name="Theta" unicode="&#x398;" horiz-adv-x="651" 
d="M128.5 51q-66.5 63 -66.5 183v187q0 120 66.5 183t197.5 63q130 0 196.5 -63t66.5 -183v-187q0 -120 -66.5 -183t-196.5 -63q-131 0 -197.5 63zM432.5 130.5q36.5 37.5 36.5 109.5v175q0 72 -36.5 109.5t-106.5 37.5q-71 0 -107.5 -37.5t-36.5 -109.5v-175
q0 -72 36.5 -109.5t107.5 -37.5q70 0 106.5 37.5zM246.5 285.5q-3.5 3.5 -3.5 8.5v74q0 5 3.5 8.5t8.5 3.5h141q5 0 8.5 -3.5t3.5 -8.5v-74q0 -5 -3.5 -8.5t-8.5 -3.5h-141q-5 0 -8.5 3.5z" />
    <glyph glyph-name="Iota" unicode="&#x399;" horiz-adv-x="267" 
d="M74 12v631q0 12 11 12h97q5 0 8.5 -3.5t3.5 -8.5v-631q0 -5 -3.5 -8.5t-8.5 -3.5h-97q-11 0 -11 12z" />
    <glyph glyph-name="Kappa" unicode="&#x39a;" horiz-adv-x="604" 
d="M74 12v631q0 12 11 12h97q5 0 8.5 -3.5t3.5 -8.5v-631q0 -5 -3.5 -8.5t-8.5 -3.5h-97q-11 0 -11 12zM457 7l-248 317q-3 5 -3 8q0 5 3 8l239 308q6 7 15 7h112q7 0 9 -4t-2 -10l-241 -303l260 -324q3 -4 3 -7q0 -7 -10 -7h-123q-10 0 -14 7z" />
    <glyph glyph-name="Lambda" unicode="&#x39b;" horiz-adv-x="581" 
d="M-1 13l213 633q3 9 13 9h128q11 0 14 -9l214 -633q1 -2 1 -5q0 -8 -10 -8h-106q-9 0 -13 9l-127 411q-17 56 -37 131h-2q-10 -37 -13 -47l-23 -83l-125 -411q-3 -10 -14 -10h-103q-13 0 -10 13z" />
    <glyph glyph-name="Mu" unicode="&#x39c;" horiz-adv-x="785" 
d="M60 12l13 631q0 12 12 12h129q9 0 13 -9l167 -364l164 364q5 9 14 9h129q11 0 11 -12l14 -631q0 -5 -3.5 -8.5t-8.5 -3.5h-94q-12 0 -12 12l-8 323q-1 44 3 132l1 28h-3q-34 -82 -70 -156l-123 -259q-4 -8 -14 -8h-4q-9 0 -13 8l-124 262q-23 47 -68 153h-3q3 -57 3 -119
v-39l-8 -325q0 -12 -11 -12h-95q-11 0 -11 12z" />
    <glyph glyph-name="Nu" unicode="&#x39d;" horiz-adv-x="669" 
d="M74 12v631q0 12 11 12h142q9 0 14 -8l161 -325q55 -111 79 -175h3q-5 88 -5 180v316q0 12 11 12h94q5 0 8.5 -3.5t3.5 -8.5v-631q0 -5 -3.5 -8.5t-8.5 -3.5h-140q-9 0 -14 8l-156 314q-32 64 -83 183h-3q3 -93 3 -191v-302q0 -5 -3.5 -8.5t-8.5 -3.5h-94q-11 0 -11 12z
" />
    <glyph glyph-name="Xi" unicode="&#x39e;" horiz-adv-x="572" 
d="M56.5 549.5q-3.5 3.5 -3.5 8.5v85q0 5 3.5 8.5t8.5 3.5h442q5 0 8.5 -3.5t3.5 -8.5v-85q0 -5 -3.5 -8.5t-8.5 -3.5h-442q-5 0 -8.5 3.5zM131.5 280.5q-3.5 3.5 -3.5 8.5v86q0 5 3.5 8.5t8.5 3.5h291q5 0 8.5 -3.5t3.5 -8.5v-86q0 -5 -3.5 -8.5t-8.5 -3.5h-291
q-5 0 -8.5 3.5zM56.5 3.5q-3.5 3.5 -3.5 8.5v85q0 5 3.5 8.5t8.5 3.5h442q5 0 8.5 -3.5t3.5 -8.5v-85q0 -5 -3.5 -8.5t-8.5 -3.5h-442q-5 0 -8.5 3.5z" />
    <glyph glyph-name="Omicron" unicode="&#x39f;" horiz-adv-x="651" 
d="M128.5 51q-66.5 63 -66.5 183v187q0 120 66.5 183t197.5 63q130 0 196.5 -63t66.5 -183v-187q0 -120 -66.5 -183t-196.5 -63q-131 0 -197.5 63zM432.5 130.5q36.5 37.5 36.5 109.5v175q0 72 -36.5 109.5t-106.5 37.5q-71 0 -107.5 -37.5t-36.5 -109.5v-175
q0 -72 36.5 -109.5t107.5 -37.5q70 0 106.5 37.5z" />
    <glyph glyph-name="Pi" unicode="&#x3a0;" horiz-adv-x="666" 
d="M74 12v631q0 12 11 12h496q11 0 11 -12v-631q0 -12 -11 -12h-97q-5 0 -8.5 3.5t-3.5 8.5v537h-278v-537q0 -5 -3.5 -8.5t-8.5 -3.5h-97q-11 0 -11 12z" />
    <glyph glyph-name="Rho" unicode="&#x3a1;" horiz-adv-x="559" 
d="M74 12v631q0 12 11 12h186q253 0 253 -214q0 -104 -63.5 -158t-188.5 -54h-78v-217q0 -5 -3.5 -8.5t-8.5 -3.5h-97q-11 0 -11 12zM270 331q69 0 101.5 26t32.5 83q0 59 -32.5 85.5t-102.5 26.5h-75v-221h76z" />
    <glyph glyph-name="Sigma" unicode="&#x3a3;" horiz-adv-x="532" 
d="M37 12v73q0 6 5 14l200 230l-200 227q-5 8 -5 14v73q0 12 11 12h441q5 0 8.5 -3.5t3.5 -8.5v-82q0 -5 -3.5 -8.5t-8.5 -3.5h-200l-53 1q-18 1 -52 1v-2q27 -27 77 -83l89 -102q6 -7 6 -15v-40q0 -8 -6 -14l-88 -101q-39 -43 -82 -88v-2q70 2 112 2h197q5 0 8.5 -3.5
t3.5 -8.5v-82q0 -5 -3.5 -8.5t-8.5 -3.5h-441q-11 0 -11 12z" />
    <glyph glyph-name="Tau" unicode="&#x3a4;" horiz-adv-x="545" 
d="M215.5 3.5q-3.5 3.5 -3.5 8.5v537h-172q-5 0 -8.5 3.5t-3.5 8.5v82q0 5 3.5 8.5t8.5 3.5h465q5 0 8.5 -3.5t3.5 -8.5v-82q0 -5 -3.5 -8.5t-8.5 -3.5h-172v-537q0 -5 -3.5 -8.5t-8.5 -3.5h-97q-5 0 -8.5 3.5z" />
    <glyph glyph-name="Upsilon" unicode="&#x3a5;" horiz-adv-x="563" 
d="M222 12v214l-214 415q-2 4 -2 6q0 8 10 8h110q11 0 14 -8l89 -189q25 -54 53 -119h1q18 42 54 120l88 188q3 8 14 8h108q6 0 8.5 -4t-0.5 -10l-213 -415v-214q0 -5 -3.5 -8.5t-8.5 -3.5h-97q-11 0 -11 12z" />
    <glyph glyph-name="Phi" unicode="&#x3a6;" horiz-adv-x="821" 
d="M698 566q62 -54 62 -176v-92q0 -122 -62 -176t-188 -54h-39v-73q0 -5 -3.5 -8.5t-8.5 -3.5h-96q-5 0 -8.5 3.5t-3.5 8.5v73h-40q-127 0 -188 55t-61 175v92q0 119 61 174.5t188 55.5h40v73q0 5 3.5 8.5t8.5 3.5h96q5 0 8.5 -3.5t3.5 -8.5v-73h39q126 0 188 -54zM211 199
q32 -29 103 -29h40v348h-40q-71 0 -103 -29t-32 -100v-90q0 -71 32 -100zM642 389q0 71 -32 100t-103 29h-39v-348h39q71 0 103 29t32 100v90z" />
    <glyph glyph-name="Chi" unicode="&#x3a7;" horiz-adv-x="577" 
d="M4 4q-2 4 2 10l211 323l-198 304q-2 3 -2 7q0 7 9 7h116q7 0 13 -7l92 -146l44 -77h1q23 42 47 81l88 142q6 7 14 7h112q7 0 8.5 -4t-1.5 -10l-197 -305l208 -322q2 -3 2 -7q0 -7 -9 -7h-116q-8 0 -14 7l-97 155q-21 34 -48 84h-2q-31 -57 -48 -82l-98 -156q-5 -8 -14 -8
h-114q-7 0 -9 4z" />
    <glyph glyph-name="Psi" unicode="&#x3a8;" horiz-adv-x="807" 
d="M738.5 651.5q3.5 -3.5 3.5 -8.5v-280q0 -103 -49.5 -152.5t-155.5 -49.5h-74v-149q0 -5 -3.5 -8.5t-8.5 -3.5h-95q-5 0 -8.5 3.5t-3.5 8.5v149h-75q-106 0 -155 49t-49 153v280q0 12 11 12h97q5 0 8.5 -3.5t3.5 -8.5v-278q0 -50 23 -74t70 -24h66v376q0 5 3.5 8.5
t8.5 3.5h95q5 0 8.5 -3.5t3.5 -8.5v-376h66q47 0 70 24t23 74v278q0 5 3.5 8.5t8.5 3.5h96q5 0 8.5 -3.5z" />
    <glyph glyph-name="uni03A9" unicode="&#x3a9;" horiz-adv-x="652" 
d="M54.5 3.5q-3.5 3.5 -3.5 8.5v85q0 11 12 11h78v2q-43 26 -61 62t-18 95v154q0 120 66.5 183t197.5 63t197.5 -63t66.5 -183v-154q0 -59 -18 -95t-61 -62v-2h78q12 0 12 -11v-85q0 -5 -3.5 -8.5t-8.5 -3.5h-220q-5 0 -8.5 3.5t-3.5 8.5v82q0 5 3.5 8.5t8.5 3.5
q47 0 74 34.5t27 94.5v181q0 72 -36.5 109t-107.5 37t-107.5 -37t-36.5 -109v-181q0 -60 27 -94.5t74 -34.5q11 0 11 -12v-82q0 -12 -11 -12h-220q-5 0 -8.5 3.5z" />
    <glyph glyph-name="Iotadieresis" unicode="&#x3aa;" horiz-adv-x="267" 
d="M74 12v631q0 12 11 12h97q5 0 8.5 -3.5t3.5 -8.5v-631q0 -5 -3.5 -8.5t-8.5 -3.5h-97q-11 0 -11 12zM-6 725q-16 16 -16 44v14q0 28 16 43.5t47 15.5q32 0 48 -15.5t16 -43.5v-14q0 -28 -16.5 -44t-47.5 -16t-47 16zM181 725q-16 16 -16 44v14q0 28 16 43.5t47 15.5
t47 -15.5t16 -43.5v-14q0 -28 -16 -44t-47 -16t-47 16z" />
    <glyph glyph-name="Upsilondieresis" unicode="&#x3ab;" horiz-adv-x="563" 
d="M222 12v214l-214 415q-2 4 -2 6q0 8 10 8h110q11 0 14 -8l89 -189q25 -54 53 -119h1q18 42 54 120l88 188q3 8 14 8h108q6 0 8.5 -4t-0.5 -10l-213 -415v-214q0 -5 -3.5 -8.5t-8.5 -3.5h-97q-11 0 -11 12zM141 725q-16 16 -16 44v14q0 28 16 43.5t47 15.5q32 0 48 -15.5
t16 -43.5v-14q0 -28 -16.5 -44t-47.5 -16t-47 16zM328 725q-16 16 -16 44v14q0 28 16 43.5t47 15.5t47 -15.5t16 -43.5v-14q0 -28 -16 -44t-47 -16t-47 16z" />
    <glyph glyph-name="alphatonos" unicode="&#x3ac;" horiz-adv-x="551" 
d="M549 78v-71q0 -6 -2.5 -8.5t-9.5 -4.5q-34 -6 -59 -6q-104 0 -111 85q-44 -42 -84 -63.5t-89 -21.5q-143 0 -143 178v133q0 100 45.5 152.5t131.5 52.5q36 0 74 -14.5t65 -36.5v27q0 5 3.5 8.5t8.5 3.5h86q5 0 8.5 -3.5t3.5 -8.5v-345q0 -30 7 -39.5t26 -9.5q9 0 16 1
t12 2q11 0 11 -11zM236 90q28 0 56.5 15.5t66.5 51.5v212q-56 34 -100 34q-46 0 -68 -28t-22 -85v-112q0 -88 67 -88zM197 557l36 145q1 10 13 10h96q13 0 7 -14l-61 -144q-4 -9 -13 -9h-69q-11 0 -9 12z" />
    <glyph glyph-name="epsilontonos" unicode="&#x3ad;" horiz-adv-x="501" 
d="M98.5 24q-53.5 36 -53.5 105q0 48 23.5 80t72.5 41v2q-38 13 -60.5 44.5t-22.5 73.5q0 68 47.5 101t147.5 33q97 0 149.5 -35t52.5 -96q0 -15 -3.5 -21t-10.5 -6h-89q-6 0 -8 3.5t-2 11.5q0 23 -21.5 36.5t-65.5 13.5q-42 0 -64 -15t-22 -44q0 -33 23.5 -48.5t75.5 -15.5
h57q5 0 8.5 -3.5t3.5 -8.5v-57q0 -5 -3.5 -8.5t-8.5 -3.5h-75q-48 0 -69 -17t-21 -53q0 -56 97 -56q46 0 68.5 11t22.5 37q0 14 11 14h88q13 0 14 -17q1 -5 1 -15q0 -60 -53.5 -91.5t-156.5 -31.5q-100 0 -153.5 36zM193 557l36 145q1 10 13 10h96q13 0 7 -14l-61 -144
q-4 -9 -13 -9h-69q-11 0 -9 12z" />
    <glyph glyph-name="etatonos" unicode="&#x3ae;" horiz-adv-x="577" 
d="M513 339v-512q0 -12 -11 -12h-95q-5 0 -8.5 3.5t-3.5 8.5v493q0 42 -17 62t-52 20q-30 0 -59.5 -16t-65.5 -50v-324q0 -5 -3.5 -8.5t-8.5 -3.5h-95q-11 0 -11 12v350q0 27 -6.5 35.5t-24.5 8.5q-9 0 -27 -2q-12 0 -12 11v70q0 6 3 8.5t10 4.5q30 6 65 6q46 0 72.5 -21
t30.5 -61q43 41 83.5 61.5t90.5 20.5q145 0 145 -165zM227 557l36 145q1 10 13 10h96q13 0 7 -14l-61 -144q-4 -9 -13 -9h-69q-11 0 -9 12z" />
    <glyph glyph-name="iotatonos" unicode="&#x3af;" horiz-adv-x="336" 
d="M100.5 22q-36.5 34 -36.5 119v339q0 12 11 12h95q5 0 8.5 -3.5t3.5 -8.5v-336q0 -32 14 -45t49 -13q27 0 62 7l4 1q8 0 8 -11v-72q0 -9 -10 -12q-33 -11 -88 -11q-84 0 -120.5 34zM67 557l36 145q1 10 13 10h96q13 0 7 -14l-61 -144q-4 -9 -13 -9h-69q-11 0 -9 12z" />
    <glyph glyph-name="upsilondieresistonos" unicode="&#x3b0;" horiz-adv-x="560" 
d="M132.5 35.5q-49.5 47.5 -49.5 140.5v186q0 27 -6.5 35.5t-24.5 8.5q-9 0 -27 -2q-12 0 -12 11v70q0 6 3 8.5t10 4.5q30 6 66 6q109 0 109 -108v-222q0 -41 23.5 -62.5t67.5 -21.5q43 0 66 24t23 70v66q0 114 -17 229v3q0 10 10 10h95q12 0 13 -10q17 -94 17 -213v-80
q0 -100 -50 -150.5t-157 -50.5q-110 0 -159.5 47.5zM229.5 730.5q-2.5 3.5 -1.5 9.5l30 128q3 10 13 10h95q14 0 9 -13l-55 -128q-4 -10 -13 -10h-69q-6 0 -8.5 3.5zM132 578.5q-16 15.5 -16 43.5v14q0 28 16 43.5t47 15.5q32 0 48 -15.5t16 -43.5v-14q0 -28 -16 -43.5
t-48 -15.5q-31 0 -47 15.5zM322 578.5q-16 15.5 -16 43.5v14q0 28 16 43.5t47 15.5q32 0 48 -15.5t16 -43.5v-14q0 -28 -16 -43.5t-48 -15.5q-31 0 -47 15.5z" />
    <glyph glyph-name="alpha" unicode="&#x3b1;" horiz-adv-x="551" 
d="M549 78v-71q0 -6 -2.5 -8.5t-9.5 -4.5q-34 -6 -59 -6q-104 0 -111 85q-44 -42 -84 -63.5t-89 -21.5q-143 0 -143 178v133q0 100 45.5 152.5t131.5 52.5q36 0 74 -14.5t65 -36.5v27q0 5 3.5 8.5t8.5 3.5h86q5 0 8.5 -3.5t3.5 -8.5v-345q0 -30 7 -39.5t26 -9.5q9 0 16 1
t12 2q11 0 11 -11zM236 90q28 0 56.5 15.5t66.5 51.5v212q-56 34 -100 34q-46 0 -68 -28t-22 -85v-112q0 -88 67 -88z" />
    <glyph glyph-name="beta" unicode="&#x3b2;" horiz-adv-x="550" 
d="M472.5 341q28.5 -38 28.5 -98v-68q0 -92 -46.5 -139.5t-138.5 -47.5q-64 0 -135 31v-192q0 -5 -3.5 -8.5t-8.5 -3.5h-94q-11 0 -11 12v674q0 194 206 194q191 0 191 -149v-26q0 -91 -70 -128v-2q53 -11 81.5 -49zM384 239q0 49 -18 69.5t-58 20.5h-57q-5 0 -8.5 3.5
t-3.5 8.5v57q0 5 3 8.5t7 3.5h7q37 0 55.5 7t26 25.5t7.5 54.5v18q0 42 -19 61t-59 19q-42 0 -64 -22t-22 -65v-395q50 -26 108 -26q95 0 95 96v56z" />
    <glyph glyph-name="gamma" unicode="&#x3b3;" horiz-adv-x="523" 
d="M210 -173v128q-10 81 -39.5 188t-62.5 195q-16 43 -30 56.5t-37 13.5q-12 0 -32 -2h-3q-9 0 -9 10v69q0 11 9 12q31 7 60 7q44 0 72 -11.5t48.5 -44.5t35.5 -96l24 -92q11 -40 27 -140h3q30 109 46 163l71 199q3 10 13 10h105q15 0 10 -14l-193 -482v-169q0 -5 -3.5 -8.5
t-8.5 -3.5h-95q-11 0 -11 12z" />
    <glyph glyph-name="delta" unicode="&#x3b4;" horiz-adv-x="545" 
d="M469 354.5q25 -47.5 25 -112.5v-49q0 -101 -57 -153t-164 -52q-108 0 -165 52t-57 153v59q0 77 44.5 124t135.5 75l-73 63q-30 26 -43 48.5t-13 48.5q1 33 28 52.5t81 19.5h249q5 0 8.5 -3.5t3.5 -8.5v-71q0 -5 -3.5 -8.5t-8.5 -3.5h-201q-20 0 -20 -11q0 -6 6 -12
t20 -18l115 -93q64 -52 89 -99.5zM374 249q0 50 -16 78.5t-60 65.5q-55 -21 -82 -42t-36 -46t-9 -66v-35q0 -60 24 -87t78 -27q53 0 77 27.5t24 86.5v45z" />
    <glyph glyph-name="epsilon" unicode="&#x3b5;" horiz-adv-x="501" 
d="M98.5 24q-53.5 36 -53.5 105q0 48 23.5 80t72.5 41v2q-38 13 -60.5 44.5t-22.5 73.5q0 68 47.5 101t147.5 33q97 0 149.5 -35t52.5 -96q0 -15 -3.5 -21t-10.5 -6h-89q-6 0 -8 3.5t-2 11.5q0 23 -21.5 36.5t-65.5 13.5q-42 0 -64 -15t-22 -44q0 -33 23.5 -48.5t75.5 -15.5
h57q5 0 8.5 -3.5t3.5 -8.5v-57q0 -5 -3.5 -8.5t-8.5 -3.5h-75q-48 0 -69 -17t-21 -53q0 -56 97 -56q46 0 68.5 11t22.5 37q0 14 11 14h88q13 0 14 -17q1 -5 1 -15q0 -60 -53.5 -91.5t-156.5 -31.5q-100 0 -153.5 36z" />
    <glyph glyph-name="zeta" unicode="&#x3b6;" horiz-adv-x="454" 
d="M328 -119v80q0 22 -11 30.5t-41 8.5h-30q-207 0 -207 190q0 77 37.5 150.5t111.5 147.5l101 100h-228q-5 0 -8.5 3.5t-3.5 8.5v71q0 5 3.5 8.5t8.5 3.5h360q5 0 8.5 -3.5t3.5 -8.5v-59q0 -7 -6 -15l-109 -116q-161 -169 -161 -293q0 -47 27.5 -68t88.5 -21
q71 -1 105 -7.5t48.5 -27.5t14.5 -67v-116q0 -5 -3.5 -8.5t-8.5 -3.5h-90q-11 0 -11 12z" />
    <glyph glyph-name="eta" unicode="&#x3b7;" horiz-adv-x="577" 
d="M513 339v-512q0 -12 -11 -12h-95q-5 0 -8.5 3.5t-3.5 8.5v493q0 42 -17 62t-52 20q-30 0 -59.5 -16t-65.5 -50v-324q0 -5 -3.5 -8.5t-8.5 -3.5h-95q-11 0 -11 12v350q0 27 -6.5 35.5t-24.5 8.5q-9 0 -27 -2q-12 0 -12 11v70q0 6 3 8.5t10 4.5q30 6 65 6q46 0 72.5 -21
t30.5 -61q43 41 83.5 61.5t90.5 20.5q145 0 145 -165z" />
    <glyph glyph-name="theta" unicode="&#x3b8;" horiz-adv-x="571" 
d="M450.5 644q56.5 -51 56.5 -144v-317q0 -93 -56.5 -144t-165.5 -51q-108 0 -164.5 51t-56.5 144v317q0 93 56.5 144t164.5 51q109 0 165.5 -51zM207 569q-27 -24 -27 -72v-99h210v100q0 95 -105 95q-51 0 -78 -24zM390 186v119h-210v-119q0 -48 27 -72t78 -24
q105 0 105 96z" />
    <glyph glyph-name="iota" unicode="&#x3b9;" horiz-adv-x="336" 
d="M100.5 22q-36.5 34 -36.5 119v339q0 12 11 12h95q5 0 8.5 -3.5t3.5 -8.5v-336q0 -32 14 -45t49 -13q27 0 62 7l4 1q8 0 8 -11v-72q0 -9 -10 -12q-33 -11 -88 -11q-84 0 -120.5 34z" />
    <glyph glyph-name="kappa" unicode="&#x3ba;" horiz-adv-x="511" 
d="M64 12v468q0 12 11 12h95q5 0 8.5 -3.5t3.5 -8.5v-468q0 -5 -3.5 -8.5t-8.5 -3.5h-95q-11 0 -11 12zM366 6l-168 235q-3 5 -3 8q0 5 3 9l160 228q5 6 14 6h112q10 0 10 -7q0 -2 -3 -7l-164 -223l179 -241q3 -4 3 -7q0 -7 -10 -7h-118q-9 0 -15 6z" />
    <glyph glyph-name="lambda" unicode="&#x3bb;" horiz-adv-x="530" 
d="M395 0.5q-26 12.5 -43.5 44t-34.5 93.5l-25 80q-19 66 -38 152h-2q-24 -83 -55 -167l-70 -193q-3 -10 -13 -10h-101q-6 0 -8.5 4t-0.5 10l176 449q4 9 13 9h22l-25 74q-11 30 -25.5 40.5t-38.5 10.5q-20 0 -40 -3h-2q-11 0 -11 10v73q0 10 11 12q29 6 63 6
q63 0 100.5 -28t59.5 -101l127 -428q9 -29 21.5 -40t32.5 -11q19 0 31 2h3q10 0 10 -10l1 -73q0 -10 -11 -12q-38 -6 -56 -6q-45 0 -71 12.5z" />
    <glyph glyph-name="uni03BC" unicode="&#x3bc;" horiz-adv-x="556" 
d="M64 -173v653q0 12 11 12h95q5 0 8.5 -3.5t3.5 -8.5v-301q0 -88 64 -88q30 0 63 18.5t55 48.5v322q0 5 3.5 8.5t8.5 3.5h95q11 0 11 -12v-345q0 -30 7 -39.5t26 -9.5q10 0 17 1t11 2q11 0 11 -11v-71q0 -6 -2.5 -8.5t-9.5 -4.5q-34 -6 -58 -6q-98 0 -107 83v1
q-27 -36 -64.5 -57.5t-72.5 -21.5q-39 0 -62 18v-184q0 -12 -11 -12h-92q-11 0 -11 12z" />
    <glyph glyph-name="nu" unicode="&#x3bd;" horiz-adv-x="522" 
d="M192 9l-171 469q-1 2 -1 5q0 4 3 6.5t7 2.5h102q11 0 14 -10l82 -248q18 -56 36 -124h2q4 11 33 76l12 27l40 89q16 38 24 67t8 63v48q0 5 3.5 8.5t8.5 3.5h96q11 0 11 -12v-43q0 -41 -11.5 -82.5t-34.5 -91.5l-119 -254q-4 -9 -14 -9h-118q-9 0 -13 9z" />
    <glyph glyph-name="xi" unicode="&#x3be;" horiz-adv-x="463" 
d="M340.5 -127.5q-3.5 3.5 -3.5 8.5v80q0 22 -9.5 30.5t-34.5 8.5h-24q-115 0 -168.5 42t-53.5 126v36q0 66 28 102.5t82 49.5v2q-43 15 -61.5 41.5t-18.5 66.5v8q0 45 25 74t81 44v3q-31 -5 -82 -5h-50q-11 0 -11 12v69q0 12 11 12h364q5 0 8.5 -3.5t3.5 -8.5v-73
q0 -5 -3 -8.5t-7 -3.5h-49q-94 0 -134 -23.5t-40 -81.5v-11q0 -37 24.5 -54.5t75.5 -17.5h56q5 0 8.5 -3t3.5 -8v-69q0 -5 -3.5 -8t-8.5 -3h-77q-58 0 -83.5 -20.5t-25.5 -69.5v-35q0 -45 29 -63t95 -18q67 0 100 -7t47 -28.5t14 -66.5v-118q0 -12 -11 -12h-89
q-5 0 -8.5 3.5z" />
    <glyph glyph-name="omicron" unicode="&#x3bf;" horiz-adv-x="544" 
d="M107.5 39q-56.5 51 -56.5 153v108q0 101 57 152.5t164 51.5t163.5 -51.5t56.5 -152.5v-108q0 -102 -56 -153t-164 -51t-164.5 51zM349.5 116.5q24.5 27.5 24.5 86.5v86q0 59 -24.5 86.5t-77.5 27.5q-54 0 -78.5 -27.5t-24.5 -86.5v-86q0 -59 24.5 -86.5t78.5 -27.5
q53 0 77.5 27.5z" />
    <glyph glyph-name="pi" unicode="&#x3c0;" horiz-adv-x="607" 
d="M411 22q-33 34 -33 118v253h-166v-381q0 -5 -3.5 -8.5t-8.5 -3.5h-95q-11 0 -11 12v381h-67q-12 0 -12 12v75q0 12 12 12h546q5 0 8.5 -3.5t3.5 -8.5v-75q0 -5 -3.5 -8.5t-8.5 -3.5h-77v-250q0 -33 9.5 -46t32.5 -13q31 0 45 2h2q9 0 9 -10v-68q0 -10 -10 -13
q-24 -7 -66 -7q-74 0 -107 34z" />
    <glyph glyph-name="rho" unicode="&#x3c1;" horiz-adv-x="537" 
d="M485 322v-132q0 -99 -44.5 -150.5t-129.5 -51.5q-33 0 -68 7t-61 20v-188q0 -5 -3.5 -8.5t-8.5 -3.5h-95q-11 0 -11 12v492q0 91 52.5 138t158.5 47q210 0 210 -182zM367 313q0 89 -92 89q-93 0 -93 -93v-201q22 -10 47 -15.5t45 -5.5q48 0 70.5 28.5t22.5 85.5v112z" />
    <glyph glyph-name="uni03C2" unicode="&#x3c2;" horiz-adv-x="514" 
d="M336 -119v80q0 23 -10.5 31t-40.5 8h-30q-102 0 -153 47.5t-51 140.5v115q0 97 57 149t161 52q61 0 106.5 -20t69.5 -55.5t24 -80.5q0 -28 -12 -28h-91q-5 0 -8 4.5t-3 11.5q0 31 -23 48.5t-63 17.5q-50 0 -75 -27t-25 -84v-98q0 -48 27 -70t88 -22q69 0 102.5 -7
t47.5 -28.5t14 -67.5v-117q0 -12 -11 -12h-90q-11 0 -11 12z" />
    <glyph glyph-name="sigma" unicode="&#x3c3;" horiz-adv-x="570" 
d="M106.5 38.5q-55.5 50.5 -55.5 144.5v107q0 99 56 150.5t168 51.5h279q11 0 11 -12v-75q0 -12 -12 -12l-116 7v-3q25 -21 38.5 -50.5t13.5 -74.5v-89q0 -93 -56 -144t-163 -51q-108 0 -163.5 50.5zM371 186v95q0 93 -57 115h-39q-52 0 -79 -23t-27 -79v-108q0 -96 101 -96
t101 96z" />
    <glyph glyph-name="tau" unicode="&#x3c4;" horiz-adv-x="511" 
d="M214.5 24.5q-37.5 36.5 -37.5 127.5v241h-149q-11 0 -11 12v75q0 12 11 12h450q11 0 11 -12v-75q0 -12 -11 -12h-183v-240q0 -36 13.5 -51.5t46.5 -15.5q20 0 41.5 3t30.5 4h3q9 0 9 -10l1 -70q0 -12 -10 -13q-55 -12 -94 -12q-84 0 -121.5 36.5z" />
    <glyph glyph-name="upsilon" unicode="&#x3c5;" horiz-adv-x="560" 
d="M132.5 35.5q-49.5 47.5 -49.5 140.5v186q0 27 -6.5 35.5t-24.5 8.5q-9 0 -27 -2q-12 0 -12 11v70q0 6 3 8.5t10 4.5q30 6 66 6q109 0 109 -108v-222q0 -41 23.5 -62.5t67.5 -21.5q43 0 66 24t23 70v66q0 114 -17 229v3q0 10 10 10h95q12 0 13 -10q17 -94 17 -213v-80
q0 -100 -50 -150.5t-157 -50.5q-110 0 -159.5 47.5z" />
    <glyph glyph-name="phi" unicode="&#x3c6;" horiz-adv-x="775" 
d="M329 -173v173h-73q-96 0 -144 49.5t-48 141.5v289q0 12 11 12h94q5 0 8.5 -3.5t3.5 -8.5v-296q0 -40 23 -63t63 -23h62v383q0 11 12 12q99 11 164 11q101 0 154 -45t53 -142v-126q0 -92 -48.5 -141.5t-145.5 -49.5h-71v-173q0 -5 -3.5 -8.5t-8.5 -3.5h-95q-11 0 -11 12z
M507 98q42 0 64.5 22.5t22.5 63.5v136q0 41 -23 63t-65 22q-14 0 -32 -1t-27 -2v-305z" />
    <glyph glyph-name="chi" unicode="&#x3c7;" horiz-adv-x="514" 
d="M394 -184q-25 13 -44.5 45t-42.5 94l-20 49q-20 57 -27 82h-2q-8 -23 -35 -85l-80 -177q-4 -9 -13 -9h-109q-7 0 -9 4t1 10l173 332l-94 201q-12 27 -22 36.5t-26 9.5q-6 0 -32 -4h-2q-11 0 -11 11v70q0 10 11 12q30 7 60 7q38 0 62 -14t42 -45t41 -91l23 -57
q17 -46 21 -60h2q8 25 24 66l81 180q3 9 14 9h106q7 0 9.5 -4t-1.5 -10l-160 -314l90 -199q19 -40 31.5 -53t30.5 -13q9 0 22 3h3q9 0 9 -11v-70q0 -11 -10 -12q-27 -6 -52 -6q-39 0 -64 13z" />
    <glyph glyph-name="psi" unicode="&#x3c8;" horiz-adv-x="783" 
d="M332.5 -181.5q-3.5 3.5 -3.5 8.5v173h-73q-96 0 -144 49.5t-48 141.5v289q0 12 11 12h94q5 0 8.5 -3.5t3.5 -8.5v-295q0 -41 23 -64t63 -23h62v530q0 5 3.5 8.5t8.5 3.5h93q5 0 8.5 -3.5t3.5 -8.5v-530h70q40 0 62.5 23t22.5 64v167q0 23 -9.5 37t-35.5 17q-11 2 -11 13
v73q0 12 12 12q82 0 122 -39t40 -111v-163q0 -92 -48 -141.5t-144 -49.5h-80v-173q0 -12 -11 -12h-95q-5 0 -8.5 3.5z" />
    <glyph glyph-name="omega" unicode="&#x3c9;" horiz-adv-x="785" 
d="M61 165v187q0 73 40 112.5t121 39.5q6 0 9.5 -3.5t3.5 -8.5v-73q0 -11 -11 -13q-27 -3 -36.5 -16t-9.5 -36v-175q0 -47 19 -66.5t60 -19.5q79 0 79 84v154q0 5 3.5 8.5t8.5 3.5h89q5 0 8.5 -3.5t3.5 -8.5v-154q0 -84 79 -84q41 0 60 19.5t19 66.5v175q0 23 -9.5 36
t-36.5 16q-11 2 -11 13v73q0 5 3.5 8.5t9.5 3.5q81 0 121 -39.5t40 -112.5v-187q0 -177 -173 -177q-56 0 -98 22.5t-60 59.5h-1q-18 -35 -59 -58.5t-98 -23.5q-174 0 -174 177z" />
    <glyph glyph-name="iotadieresis" unicode="&#x3ca;" horiz-adv-x="336" 
d="M100.5 22q-36.5 34 -36.5 119v339q0 12 11 12h95q5 0 8.5 -3.5t3.5 -8.5v-336q0 -32 14 -45t49 -13q27 0 62 7l4 1q8 0 8 -11v-72q0 -9 -10 -12q-33 -11 -88 -11q-84 0 -120.5 34zM-19 579.5q-16 15.5 -16 43.5v14q0 28 16 44t47 16q32 0 48 -16t16 -44v-14
q0 -28 -16 -43.5t-48 -15.5q-31 0 -47 15.5zM168 579.5q-16 15.5 -16 43.5v14q0 28 16 44t48 16q31 0 47 -15.5t16 -44.5v-14q0 -28 -16 -43.5t-47 -15.5q-32 0 -48 15.5z" />
    <glyph glyph-name="upsilondieresis" unicode="&#x3cb;" horiz-adv-x="560" 
d="M132.5 35.5q-49.5 47.5 -49.5 140.5v186q0 27 -6.5 35.5t-24.5 8.5q-9 0 -27 -2q-12 0 -12 11v70q0 6 3 8.5t10 4.5q30 6 66 6q109 0 109 -108v-222q0 -41 23.5 -62.5t67.5 -21.5q43 0 66 24t23 70v66q0 114 -17 229v3q0 10 10 10h95q12 0 13 -10q17 -94 17 -213v-80
q0 -100 -50 -150.5t-157 -50.5q-110 0 -159.5 47.5zM133 579.5q-16 15.5 -16 43.5v14q0 28 16 44t47 16q32 0 48 -16t16 -44v-14q0 -28 -16 -43.5t-48 -15.5q-31 0 -47 15.5zM320 579.5q-16 15.5 -16 43.5v14q0 28 16 44t48 16q31 0 47 -15.5t16 -44.5v-14q0 -28 -16 -43.5
t-47 -15.5q-32 0 -48 15.5z" />
    <glyph glyph-name="omicrontonos" unicode="&#x3cc;" horiz-adv-x="544" 
d="M107.5 39q-56.5 51 -56.5 153v108q0 101 57 152.5t164 51.5t163.5 -51.5t56.5 -152.5v-108q0 -102 -56 -153t-164 -51t-164.5 51zM349.5 116.5q24.5 27.5 24.5 86.5v86q0 59 -24.5 86.5t-77.5 27.5q-54 0 -78.5 -27.5t-24.5 -86.5v-86q0 -59 24.5 -86.5t78.5 -27.5
q53 0 77.5 27.5zM216 557l36 145q1 10 13 10h96q13 0 7 -14l-61 -144q-4 -9 -13 -9h-69q-11 0 -9 12z" />
    <glyph glyph-name="upsilontonos" unicode="&#x3cd;" horiz-adv-x="560" 
d="M132.5 35.5q-49.5 47.5 -49.5 140.5v186q0 27 -6.5 35.5t-24.5 8.5q-9 0 -27 -2q-12 0 -12 11v70q0 6 3 8.5t10 4.5q30 6 66 6q109 0 109 -108v-222q0 -41 23.5 -62.5t67.5 -21.5q43 0 66 24t23 70v66q0 114 -17 229v3q0 10 10 10h95q12 0 13 -10q17 -94 17 -213v-80
q0 -100 -50 -150.5t-157 -50.5q-110 0 -159.5 47.5zM218 557l36 145q1 10 13 10h96q13 0 7 -14l-61 -144q-4 -9 -13 -9h-69q-11 0 -9 12z" />
    <glyph glyph-name="omegatonos" unicode="&#x3ce;" horiz-adv-x="785" 
d="M61 165v187q0 73 40 112.5t121 39.5q6 0 9.5 -3.5t3.5 -8.5v-73q0 -11 -11 -13q-27 -3 -36.5 -16t-9.5 -36v-175q0 -47 19 -66.5t60 -19.5q79 0 79 84v154q0 5 3.5 8.5t8.5 3.5h89q5 0 8.5 -3.5t3.5 -8.5v-154q0 -84 79 -84q41 0 60 19.5t19 66.5v175q0 23 -9.5 36
t-36.5 16q-11 2 -11 13v73q0 5 3.5 8.5t9.5 3.5q81 0 121 -39.5t40 -112.5v-187q0 -177 -173 -177q-56 0 -98 22.5t-60 59.5h-1q-18 -35 -59 -58.5t-98 -23.5q-174 0 -174 177zM337 557l36 145q1 10 13 10h96q13 0 7 -14l-61 -144q-4 -9 -13 -9h-69q-11 0 -9 12z" />
    <glyph glyph-name="uni0400" unicode="&#x400;" horiz-adv-x="540" 
d="M74 12v631q0 12 11 12h383q5 0 8 -3.5t3 -8.5v-82q0 -5 -3 -8.5t-8 -3.5h-274v-167h250q5 0 8 -3.5t3 -8.5v-77q0 -5 -3 -8.5t-8 -3.5h-250v-175h274q5 0 8 -3.5t3 -8.5v-82q0 -5 -3 -8.5t-8 -3.5h-383q-11 0 -11 12zM255 715l-79 109q-3 5 -3 7q0 6 8 6h92q8 0 13 -8
l58 -109q2 -4 2 -6q0 -5 -8 -5h-70q-8 0 -13 6z" />
    <glyph glyph-name="uni0401" unicode="&#x401;" horiz-adv-x="540" 
d="M74 12v631q0 12 11 12h383q5 0 8 -3.5t3 -8.5v-82q0 -5 -3 -8.5t-8 -3.5h-274v-167h250q5 0 8 -3.5t3 -8.5v-77q0 -5 -3 -8.5t-8 -3.5h-250v-175h274q5 0 8 -3.5t3 -8.5v-82q0 -5 -3 -8.5t-8 -3.5h-383q-11 0 -11 12zM137 725q-16 16 -16 44v14q0 28 16 43.5t47 15.5
q32 0 48 -15.5t16 -43.5v-14q0 -28 -16.5 -44t-47.5 -16t-47 16zM324 725q-16 16 -16 44v14q0 28 16 43.5t47 15.5t47 -15.5t16 -43.5v-14q0 -28 -16 -44t-47 -16t-47 16z" />
    <glyph glyph-name="uni0402" unicode="&#x402;" horiz-adv-x="740" 
d="M486 -12q-10 0 -11 8l-25 81l-1 5q0 8 15 11q93 17 93 106v45q0 88 -79 88q-36 0 -71.5 -17.5t-73.5 -53.5v-249q0 -5 -3.5 -8.5t-8.5 -3.5h-97q-5 0 -8.5 3.5t-3.5 8.5v537h-172q-5 0 -8.5 3.5t-3.5 8.5v82q0 5 3.5 8.5t8.5 3.5h478q5 0 8.5 -3.5t3.5 -8.5v-82
q0 -5 -3.5 -8.5t-8.5 -3.5h-185v-188q40 36 88 55.5t98 19.5q78 0 118 -43.5t40 -128.5v-63q0 -91 -47.5 -146t-134.5 -66q-4 -1 -9 -1z" />
    <glyph glyph-name="uni0403" unicode="&#x403;" horiz-adv-x="477" 
d="M74 12v631q0 12 11 12h356q11 0 11 -12v-82q0 -12 -11 -12h-247v-537q0 -5 -3.5 -8.5t-8.5 -3.5h-97q-11 0 -11 12zM204 720l59 109q3 8 13 8h91q6 0 8 -4t-2 -9l-80 -109q-4 -6 -13 -6h-70q-12 0 -6 11z" />
    <glyph glyph-name="uni0404" unicode="&#x404;" horiz-adv-x="620" 
d="M125 42q-63 54 -63 171v228q0 117 60.5 171.5t183.5 54.5q120 0 186 -43t66 -120q0 -14 -1 -22q-3 -19 -12 -19h-97q-11 0 -11 19q0 41 -31 60.5t-95 19.5q-69 0 -99 -23t-30 -78v-79h223q11 0 11 -11v-79q0 -12 -11 -12h-223v-82q0 -56 30.5 -80.5t103.5 -24.5
q127 0 127 80q0 10 2 14.5t8 4.5h97q12 0 12 -24q4 -87 -57.5 -133.5t-183.5 -46.5q-133 0 -196 54z" />
    <glyph glyph-name="uni0405" unicode="&#x405;" horiz-adv-x="572" 
d="M101.5 33q-59.5 45 -59.5 129q0 14 1 21q1 17 14 17h94q14 0 12 -15q-1 -48 29 -71t93 -23q61 0 90.5 19.5t29.5 60.5q0 29 -16.5 47t-60.5 36l-145 62q-71 29 -100.5 69.5t-29.5 101.5q0 88 56 133.5t168 45.5t174 -43t62 -125q0 -13 -1 -20q-1 -18 -12 -18h-95
q-6 0 -9 4t-2 14q3 40 -28.5 63.5t-89.5 23.5q-103 0 -103 -75q0 -27 17.5 -45t61.5 -37l143 -61q71 -30 100.5 -69.5t29.5 -103.5q0 -186 -246 -186q-118 0 -177.5 45z" />
    <glyph glyph-name="uni0406" unicode="&#x406;" horiz-adv-x="267" 
d="M74 12v631q0 12 11 12h97q5 0 8.5 -3.5t3.5 -8.5v-631q0 -5 -3.5 -8.5t-8.5 -3.5h-97q-11 0 -11 12z" />
    <glyph glyph-name="uni0407" unicode="&#x407;" horiz-adv-x="267" 
d="M74 12v631q0 12 11 12h97q5 0 8.5 -3.5t3.5 -8.5v-631q0 -5 -3.5 -8.5t-8.5 -3.5h-97q-11 0 -11 12zM-6 725q-16 16 -16 44v14q0 28 16 43.5t47 15.5q32 0 48 -15.5t16 -43.5v-14q0 -28 -16.5 -44t-47.5 -16t-47 16zM181 725q-16 16 -16 44v14q0 28 16 43.5t47 15.5
t47 -15.5t16 -43.5v-14q0 -28 -16 -44t-47 -16t-47 16z" />
    <glyph glyph-name="uni0408" unicode="&#x408;" horiz-adv-x="277" 
d="M26 -152q-9 0 -12 7l-24 82q-1 1 -1 4q0 9 16 13q79 17 79 138v551q0 12 11 12h97q5 0 8.5 -3.5t3.5 -8.5v-543q0 -221 -167 -251q-4 -1 -11 -1z" />
    <glyph glyph-name="uni0409" unicode="&#x409;" horiz-adv-x="891" 
d="M-1 13l213 633q3 9 13 9h128q11 0 14 -9l75 -220h162q251 0 251 -206q0 -220 -254 -220h-135q-9 0 -13 9l-127 411q-17 56 -37 131h-2q-10 -37 -13 -47l-23 -83l-125 -411q-3 -10 -14 -10h-103q-13 0 -10 13zM599 103q69 0 102.5 28.5t33.5 88.5q0 57 -32 82t-102 25
h-126l76 -224h48z" />
    <glyph glyph-name="uni040A" unicode="&#x40a;" horiz-adv-x="975" 
d="M74 12v631q0 12 11 12h97q5 0 8.5 -3.5t3.5 -8.5v-232h280v232q0 5 3.5 8.5t8.5 3.5h96q5 0 8.5 -3.5t3.5 -8.5v-232h98q121 0 184.5 -51.5t63.5 -147.5q0 -103 -63.5 -157.5t-187.5 -54.5h-203q-5 0 -8.5 3.5t-3.5 8.5v298h-280v-298q0 -5 -3.5 -8.5t-8.5 -3.5h-97
q-11 0 -11 12zM687 103q132 0 132 108q0 51 -32 75t-98 24h-95v-207h93z" />
    <glyph glyph-name="uni040B" unicode="&#x40b;" horiz-adv-x="740" 
d="M215.5 3.5q-3.5 3.5 -3.5 8.5v537h-172q-5 0 -8.5 3.5t-3.5 8.5v82q0 5 3.5 8.5t8.5 3.5h482q11 0 11 -12v-82q0 -12 -11 -12h-189v-188q83 75 185 75q78 0 118.5 -43.5t40.5 -128.5v-252q0 -5 -3.5 -8.5t-8.5 -3.5h-96q-5 0 -8.5 3.5t-3.5 8.5v228q0 92 -82 92
q-35 0 -70 -17.5t-72 -53.5v-249q0 -5 -3.5 -8.5t-8.5 -3.5h-97q-5 0 -8.5 3.5z" />
    <glyph glyph-name="uni040C" unicode="&#x40c;" horiz-adv-x="602" 
d="M74 12v631q0 12 11 12h97q5 0 8.5 -3.5t3.5 -8.5v-263h69l187 268q4 7 14 7h109q7 0 9.5 -4.5t-2.5 -9.5l-213 -299l234 -328q3 -4 3 -7q0 -7 -10 -7h-118q-9 0 -15 7l-194 269h-73v-264q0 -5 -3.5 -8.5t-8.5 -3.5h-97q-11 0 -11 12zM234 720l59 109q3 8 13 8h91
q6 0 8 -4t-2 -9l-80 -109q-4 -6 -13 -6h-70q-12 0 -6 11z" />
    <glyph glyph-name="uni040D" unicode="&#x40d;" horiz-adv-x="665" 
d="M74 12v631q0 12 11 12h93q5 0 8.5 -3.5t3.5 -8.5v-268q0 -69 -2.5 -114t-7.5 -100h3q19 43 44 89t72 125l162 272q5 8 14 8h105q11 0 11 -12v-631q0 -12 -11 -12h-93q-5 0 -8.5 3.5t-3.5 8.5v256q0 123 9 224h-3q-20 -41 -45.5 -87t-79.5 -137l-152 -260q-5 -8 -14 -8
h-105q-11 0 -11 12zM310 715l-79 109q-3 5 -3 7q0 6 8 6h92q8 0 13 -8l58 -109q2 -4 2 -6q0 -5 -8 -5h-70q-8 0 -13 6z" />
    <glyph glyph-name="uni040E" unicode="&#x40e;" horiz-adv-x="573" 
d="M124.5 4q-2.5 4 0.5 10l105 212l-212 415q-2 4 -2 6q0 8 10 8h109q10 0 14 -8l97 -202q31 -66 44 -104h3q19 52 46 104l98 202q5 8 14 8h106q6 0 8.5 -4t-0.5 -10l-320 -633q-3 -8 -13 -8h-98q-7 0 -9.5 4zM211.5 726.5q-38.5 15.5 -57.5 31.5q-5 5 -5 13v66q0 7 3.5 9.5
t9.5 -1.5q25 -18 60 -32.5t70 -14.5q34 0 69 14.5t60 32.5q3 2 7 2q6 0 6 -10v-66q0 -8 -5 -13q-19 -16 -57.5 -31.5t-79.5 -15.5q-42 0 -80.5 15.5z" />
    <glyph glyph-name="uni040F" unicode="&#x40f;" horiz-adv-x="666" 
d="M277.5 -132.5q-3.5 3.5 -3.5 8.5v124h-189q-11 0 -11 12v631q0 12 11 12h97q5 0 8.5 -3.5t3.5 -8.5v-536h278v536q0 5 3.5 8.5t8.5 3.5h97q11 0 11 -12v-631q0 -5 -3 -8.5t-8 -3.5h-189v-124q0 -5 -3 -8.5t-8 -3.5h-95q-5 0 -8.5 3.5z" />
    <glyph glyph-name="uni0410" unicode="&#x410;" horiz-adv-x="587" 
d="M588 8q0 -8 -10 -8h-106q-9 0 -13 9l-40 128h-254l-39 -127q-3 -10 -14 -10h-103q-13 0 -10 13l216 633q3 9 13 9h128q11 0 14 -9l217 -633q1 -2 1 -5zM388 235l-58 185l-7 24q-14 46 -31 107h-2q-12 -43 -38 -129l-57 -187h193z" />
    <glyph glyph-name="uni0411" unicode="&#x411;" horiz-adv-x="581" 
d="M74 12v631q0 12 11 12h375q11 0 11 -12v-82q0 -12 -11 -12h-266v-140h100q248 0 248 -196q0 -105 -63.5 -159t-190.5 -54h-203q-11 0 -11 12zM285 99q69 0 103 27.5t34 85.5q0 54 -32 78.5t-102 24.5h-94v-216h91z" />
    <glyph glyph-name="uni0412" unicode="&#x412;" horiz-adv-x="588" 
d="M74 12v631q0 12 11 12h199q237 0 237 -162q0 -57 -25.5 -91t-82.5 -54v-3q136 -24 136 -158q0 -97 -63.5 -142t-201.5 -45h-199q-11 0 -11 12zM281 381q62 0 91 21.5t29 68.5q0 45 -30 65t-98 20h-79v-175h87zM287 100q76 0 109 21.5t33 72.5q0 50 -33.5 73t-107.5 23
h-94v-190h93z" />
    <glyph glyph-name="uni0413" unicode="&#x413;" horiz-adv-x="477" 
d="M74 12v631q0 12 11 12h356q11 0 11 -12v-82q0 -12 -11 -12h-247v-537q0 -5 -3.5 -8.5t-8.5 -3.5h-97q-11 0 -11 12z" />
    <glyph glyph-name="uni0414" unicode="&#x414;" horiz-adv-x="630" 
d="M626.5 103.5q3.5 -3.5 3.5 -8.5v-219q0 -5 -3.5 -8.5t-8.5 -3.5h-94q-5 0 -8.5 3.5t-3.5 8.5v124h-394v-124q0 -5 -3.5 -8.5t-8.5 -3.5h-94q-5 0 -8.5 3.5t-3.5 8.5v219q0 5 3.5 8.5t8.5 3.5h48l176 539q5 9 14 9h128q10 0 14 -9l177 -539h49q5 0 8.5 -3.5zM183 107h261
l-83 280l-48 164h-1l-16 -56q-13 -48 -32 -112z" />
    <glyph glyph-name="uni0415" unicode="&#x415;" horiz-adv-x="540" 
d="M74 12v631q0 12 11 12h383q5 0 8 -3.5t3 -8.5v-82q0 -5 -3 -8.5t-8 -3.5h-274v-167h250q5 0 8 -3.5t3 -8.5v-77q0 -5 -3 -8.5t-8 -3.5h-250v-175h274q5 0 8 -3.5t3 -8.5v-82q0 -5 -3 -8.5t-8 -3.5h-383q-11 0 -11 12z" />
    <glyph glyph-name="uni0416" unicode="&#x416;" horiz-adv-x="882" 
d="M24 4q-3 4 1 10l172 325l-157 302q-2 4 -2 6q0 8 10 8h108q11 0 14 -8l131 -268h82v264q0 5 3.5 8.5t8.5 3.5h93q11 0 11 -12v-264h85l131 268q3 8 14 8h105q7 0 9.5 -4t-1.5 -10l-156 -302l172 -325q1 -2 1 -5q0 -9 -10 -9h-114q-10 0 -14 8l-137 269h-85v-265
q0 -12 -11 -12h-93q-5 0 -8.5 3.5t-3.5 8.5v265h-85l-137 -269q-5 -8 -14 -8h-114q-6 0 -9 4z" />
    <glyph glyph-name="uni0417" unicode="&#x417;" horiz-adv-x="588" 
d="M104 29.5q-58 41.5 -58 125.5q0 18 2.5 24t9.5 6h90q11 0 11 -9q0 -45 28 -65.5t90 -20.5q75 0 109.5 24.5t34.5 77.5q0 47 -31 68.5t-101 21.5h-100q-11 0 -11 12v72q0 12 11 12h78q68 0 99 22.5t31 72.5q0 49 -28.5 71t-93.5 22q-58 0 -84.5 -19.5t-26.5 -61.5
q0 -13 -11 -13h-90q-7 0 -9.5 5.5t-2.5 20.5q0 83 58.5 126t172.5 43q235 0 235 -173q0 -56 -28 -96.5t-80 -57.5v-1q65 -13 98.5 -51.5t33.5 -98.5q0 -98 -67 -149.5t-199 -51.5q-113 0 -171 41.5z" />
    <glyph glyph-name="uni0418" unicode="&#x418;" horiz-adv-x="665" 
d="M74 12v631q0 12 11 12h93q5 0 8.5 -3.5t3.5 -8.5v-268q0 -69 -2.5 -114t-7.5 -100h3q19 43 44 89t72 125l162 272q5 8 14 8h105q11 0 11 -12v-631q0 -12 -11 -12h-93q-5 0 -8.5 3.5t-3.5 8.5v256q0 123 9 224h-3q-20 -41 -45.5 -87t-79.5 -137l-152 -260q-5 -8 -14 -8
h-105q-11 0 -11 12z" />
    <glyph glyph-name="uni0419" unicode="&#x419;" horiz-adv-x="665" 
d="M74 12v631q0 12 11 12h93q5 0 8.5 -3.5t3.5 -8.5v-268q0 -69 -2.5 -114t-7.5 -100h3q19 43 44 89t72 125l162 272q5 8 14 8h105q11 0 11 -12v-631q0 -12 -11 -12h-93q-5 0 -8.5 3.5t-3.5 8.5v256q0 123 9 224h-3q-20 -41 -45.5 -87t-79.5 -137l-152 -260q-5 -8 -14 -8
h-105q-11 0 -11 12zM252.5 726.5q-38.5 15.5 -57.5 31.5q-5 5 -5 13v66q0 7 3.5 9.5t9.5 -1.5q25 -18 60 -32.5t70 -14.5q34 0 69 14.5t60 32.5q3 2 7 2q6 0 6 -10v-66q0 -8 -5 -13q-19 -16 -57.5 -31.5t-79.5 -15.5q-42 0 -80.5 15.5z" />
    <glyph glyph-name="uni041A" unicode="&#x41a;" horiz-adv-x="602" 
d="M74 12v631q0 12 11 12h97q5 0 8.5 -3.5t3.5 -8.5v-263h69l187 268q4 7 14 7h109q7 0 9.5 -4.5t-2.5 -9.5l-213 -299l234 -328q3 -4 3 -7q0 -7 -10 -7h-118q-9 0 -15 7l-194 269h-73v-264q0 -5 -3.5 -8.5t-8.5 -3.5h-97q-11 0 -11 12z" />
    <glyph glyph-name="uni041B" unicode="&#x41b;" horiz-adv-x="581" 
d="M-1 13l213 633q3 9 13 9h128q11 0 14 -9l214 -633q1 -2 1 -5q0 -8 -10 -8h-106q-9 0 -13 9l-127 411q-17 56 -37 131h-2q-10 -37 -13 -47l-23 -83l-125 -411q-3 -10 -14 -10h-103q-13 0 -10 13z" />
    <glyph glyph-name="uni041C" unicode="&#x41c;" horiz-adv-x="785" 
d="M60 12l13 631q0 12 12 12h129q9 0 13 -9l167 -364l164 364q5 9 14 9h129q11 0 11 -12l14 -631q0 -5 -3.5 -8.5t-8.5 -3.5h-94q-12 0 -12 12l-8 323q-1 44 3 132l1 28h-3q-34 -82 -70 -156l-123 -259q-4 -8 -14 -8h-4q-9 0 -13 8l-124 262q-23 47 -68 153h-3q3 -57 3 -119
v-39l-8 -325q0 -12 -11 -12h-95q-11 0 -11 12z" />
    <glyph glyph-name="uni041D" unicode="&#x41d;" horiz-adv-x="668" 
d="M74 12v631q0 12 11 12h97q5 0 8.5 -3.5t3.5 -8.5v-257h280v257q0 5 3.5 8.5t8.5 3.5h97q11 0 11 -12v-631q0 -12 -11 -12h-97q-5 0 -8.5 3.5t-3.5 8.5v270h-280v-270q0 -5 -3.5 -8.5t-8.5 -3.5h-97q-11 0 -11 12z" />
    <glyph glyph-name="uni041E" unicode="&#x41e;" horiz-adv-x="651" 
d="M128.5 51q-66.5 63 -66.5 183v187q0 120 66.5 183t197.5 63q130 0 196.5 -63t66.5 -183v-187q0 -120 -66.5 -183t-196.5 -63q-131 0 -197.5 63zM432.5 130.5q36.5 37.5 36.5 109.5v175q0 72 -36.5 109.5t-106.5 37.5q-71 0 -107.5 -37.5t-36.5 -109.5v-175
q0 -72 36.5 -109.5t107.5 -37.5q70 0 106.5 37.5z" />
    <glyph glyph-name="uni041F" unicode="&#x41f;" horiz-adv-x="666" 
d="M74 12v631q0 12 11 12h496q11 0 11 -12v-631q0 -12 -11 -12h-97q-5 0 -8.5 3.5t-3.5 8.5v537h-278v-537q0 -5 -3.5 -8.5t-8.5 -3.5h-97q-11 0 -11 12z" />
    <glyph glyph-name="uni0420" unicode="&#x420;" horiz-adv-x="559" 
d="M74 12v631q0 12 11 12h186q253 0 253 -214q0 -104 -63.5 -158t-188.5 -54h-78v-217q0 -5 -3.5 -8.5t-8.5 -3.5h-97q-11 0 -11 12zM270 331q69 0 101.5 26t32.5 83q0 59 -32.5 85.5t-102.5 26.5h-75v-221h76z" />
    <glyph glyph-name="uni0421" unicode="&#x421;" horiz-adv-x="643" 
d="M129.5 50.5q-67.5 62.5 -67.5 184.5v184q0 122 67.5 185t194.5 63q78 0 137.5 -24t92 -68.5t32.5 -105.5q0 -22 -2 -33q-2 -14 -12 -14h-97q-6 0 -9 3.5t-2 8.5q2 61 -33 94.5t-105 33.5t-107 -36.5t-37 -108.5v-179q0 -72 37 -108.5t107 -36.5q67 0 103 30.5t36 83.5
l-1 14v2q0 10 11 10h96q11 0 13 -14q1 -8 1 -23q0 -96 -70.5 -152t-190.5 -56q-127 0 -194.5 62.5z" />
    <glyph glyph-name="uni0422" unicode="&#x422;" horiz-adv-x="545" 
d="M215.5 3.5q-3.5 3.5 -3.5 8.5v537h-172q-5 0 -8.5 3.5t-3.5 8.5v82q0 5 3.5 8.5t8.5 3.5h465q5 0 8.5 -3.5t3.5 -8.5v-82q0 -5 -3.5 -8.5t-8.5 -3.5h-172v-537q0 -5 -3.5 -8.5t-8.5 -3.5h-97q-5 0 -8.5 3.5z" />
    <glyph glyph-name="uni0423" unicode="&#x423;" horiz-adv-x="573" 
d="M124.5 4q-2.5 4 0.5 10l105 212l-212 415q-2 4 -2 6q0 8 10 8h109q10 0 14 -8l97 -202q31 -66 44 -104h3q19 52 46 104l98 202q5 8 14 8h106q6 0 8.5 -4t-0.5 -10l-320 -633q-3 -8 -13 -8h-98q-7 0 -9.5 4z" />
    <glyph glyph-name="uni0424" unicode="&#x424;" horiz-adv-x="842" 
d="M703 597.5q78 -63.5 78 -188.5v-164q0 -125 -78 -189t-222 -68v-50q0 -5 -3.5 -8.5t-8.5 -3.5h-96q-5 0 -8.5 3.5t-3.5 8.5v50q-143 4 -221 68t-78 189v164q0 125 78 188.5t221 68.5v51q0 5 3.5 8.5t8.5 3.5h96q5 0 8.5 -3.5t3.5 -8.5v-51q144 -5 222 -68.5zM663 399
q0 83 -46.5 123t-138.5 42v-473q92 2 138.5 42t46.5 122v144zM225.5 133q46.5 -40 138.5 -42v473q-92 -2 -138.5 -42t-46.5 -123v-144q0 -82 46.5 -122z" />
    <glyph glyph-name="uni0425" unicode="&#x425;" horiz-adv-x="577" 
d="M4 4q-2 4 2 10l211 323l-198 304q-2 3 -2 7q0 7 9 7h116q7 0 13 -7l92 -146l44 -77h1q23 42 47 81l88 142q6 7 14 7h112q7 0 8.5 -4t-1.5 -10l-197 -305l208 -322q2 -3 2 -7q0 -7 -9 -7h-116q-8 0 -14 7l-97 155q-21 34 -48 84h-2q-31 -57 -48 -82l-98 -156q-5 -8 -14 -8
h-114q-7 0 -9 4z" />
    <glyph glyph-name="uni0426" unicode="&#x426;" horiz-adv-x="672" 
d="M537.5 -132.5q-3.5 3.5 -3.5 8.5v124h-449q-11 0 -11 12v631q0 12 11 12h97q5 0 8.5 -3.5t3.5 -8.5v-536h268v536q0 5 3.5 8.5t8.5 3.5h96q5 0 8.5 -3.5t3.5 -8.5v-536h58q5 0 8.5 -3.5t3.5 -8.5v-219q0 -5 -3.5 -8.5t-8.5 -3.5h-94q-5 0 -8.5 3.5z" />
    <glyph glyph-name="uni0427" unicode="&#x427;" horiz-adv-x="637" 
d="M560.5 651.5q3.5 -3.5 3.5 -8.5v-631q0 -5 -3.5 -8.5t-8.5 -3.5h-97q-11 0 -11 12v250q-43 -28 -94.5 -44.5t-101.5 -16.5q-92 0 -138 46t-46 147v249q0 12 11 12h97q5 0 8.5 -3.5t3.5 -8.5v-230q0 -59 23.5 -82.5t75.5 -23.5q41 0 83 15t78 42v279q0 12 11 12h97
q5 0 8.5 -3.5z" />
    <glyph glyph-name="uni0428" unicode="&#x428;" horiz-adv-x="900" 
d="M74 12v631q0 12 11 12h97q5 0 8.5 -3.5t3.5 -8.5v-536h197v536q0 5 3.5 8.5t8.5 3.5h95q5 0 8.5 -3.5t3.5 -8.5v-536h196v536q0 5 3.5 8.5t8.5 3.5h97q5 0 8.5 -3.5t3.5 -8.5v-631q0 -5 -3.5 -8.5t-8.5 -3.5h-730q-11 0 -11 12z" />
    <glyph glyph-name="uni0429" unicode="&#x429;" horiz-adv-x="915" 
d="M780.5 -132.5q-3.5 3.5 -3.5 8.5v124h-692q-11 0 -11 12v631q0 12 11 12h97q5 0 8.5 -3.5t3.5 -8.5v-536h197v536q0 5 3.5 8.5t8.5 3.5h95q5 0 8.5 -3.5t3.5 -8.5v-536h196v536q0 5 3.5 8.5t8.5 3.5h97q5 0 8.5 -3.5t3.5 -8.5v-536h57q5 0 8 -3.5t3 -8.5v-219
q0 -5 -3 -8.5t-8 -3.5h-95q-5 0 -8.5 3.5z" />
    <glyph glyph-name="uni042A" unicode="&#x42a;" horiz-adv-x="670" 
d="M170 12v537h-130q-5 0 -8.5 3.5t-3.5 8.5v82q0 5 3.5 8.5t8.5 3.5h238q5 0 8.5 -3.5t3.5 -8.5v-217h96q249 0 249 -206q0 -108 -63.5 -164t-190.5 -56h-200q-11 0 -11 12zM379 103q69 0 102.5 28.5t33.5 88.5q0 57 -32 82t-103 25h-90v-224h89z" />
    <glyph glyph-name="uni042B" unicode="&#x42b;" horiz-adv-x="841" 
d="M74 12v631q0 12 11 12h97q5 0 8.5 -3.5t3.5 -8.5v-217h95q250 0 250 -206q0 -108 -63.5 -164t-190.5 -56h-200q-11 0 -11 12zM283 103q69 0 102.5 28.5t33.5 88.5q0 57 -32 82t-103 25h-90v-224h89zM648 12v631q0 12 11 12h97q5 0 8.5 -3.5t3.5 -8.5v-631q0 -5 -3.5 -8.5
t-8.5 -3.5h-97q-11 0 -11 12z" />
    <glyph glyph-name="uni042C" unicode="&#x42c;" horiz-adv-x="574" 
d="M74 12v631q0 12 11 12h97q5 0 8.5 -3.5t3.5 -8.5v-217h95q250 0 250 -206q0 -108 -63.5 -164t-190.5 -56h-200q-11 0 -11 12zM283 103q69 0 102.5 28.5t33.5 88.5q0 57 -32 82t-103 25h-90v-224h89z" />
    <glyph glyph-name="uni042D" unicode="&#x42d;" horiz-adv-x="618" 
d="M111.5 34.5q-60.5 46.5 -55.5 133.5q0 24 11 24h97q11 0 11 -19q0 -80 126 -80q73 0 104 25.5t31 86.5v75h-223q-5 0 -8.5 3.5t-3.5 8.5v79q0 11 12 11h223v72q0 60 -29.5 84t-99.5 24q-64 0 -95 -19.5t-31 -60.5q0 -19 -11 -19h-97q-7 0 -9.5 6.5t-2.5 22.5
q0 83 65.5 129t187.5 46q123 0 182.5 -54.5t59.5 -171.5v-228q0 -117 -64 -171t-198 -54q-122 0 -182.5 46.5z" />
    <glyph glyph-name="uni042E" unicode="&#x42e;" horiz-adv-x="883" 
d="M757 603.5q65 -63.5 65 -182.5v-187q0 -119 -65 -182.5t-187 -63.5t-187 63.5t-65 182.5v49h-124v-271q0 -5 -3.5 -8.5t-8.5 -3.5h-97q-11 0 -11 12v631q0 12 11 12h97q5 0 8.5 -3.5t3.5 -8.5v-257h124v35q0 119 65 182.5t187 63.5t187 -63.5zM702 419q0 70 -33.5 106.5
t-98.5 36.5t-98.5 -36.5t-33.5 -106.5v-183q0 -70 33.5 -106.5t98.5 -36.5t98.5 36.5t33.5 106.5v183z" />
    <glyph glyph-name="uni042F" unicode="&#x42f;" horiz-adv-x="611" 
d="M25 4q-2 4 1 10l103 173q35 60 57 91v2q-59 19 -89.5 63.5t-30.5 110.5q0 100 60 150.5t185 50.5h215q5 0 8.5 -3.5t3.5 -8.5v-631q0 -5 -3.5 -8.5t-8.5 -3.5h-97q-11 0 -11 12v249h-117l-143 -253q-5 -8 -14 -8h-110q-7 0 -9 4zM418 356v197h-106q-66 0 -95.5 -25
t-29.5 -79q0 -51 29.5 -72t100.5 -21h101z" />
    <glyph glyph-name="uni0430" unicode="&#x430;" horiz-adv-x="504" 
d="M447 11q0 -11 -11 -11h-83q-10 0 -13 13q-4 23 -9 63q-44 -45 -83 -66.5t-86 -21.5q-60 0 -92 36t-32 103q0 52 20 84.5t65 50.5t122 25l78 7v40q0 43 -17 60t-59 17q-75 0 -74 -55q0 -12 -11 -12h-90q-8 0 -11 7t-3 24q0 61 51.5 95t142.5 34q97 0 143 -41.5t46 -130.5
v-208q0 -64 6 -111v-2zM257 97q28 16 66 54v71l-68 -6q-58 -5 -80 -22t-22 -55q0 -30 12 -44t37 -14q27 0 55 16z" />
    <glyph glyph-name="uni0431" unicode="&#x431;" horiz-adv-x="548" 
d="M453 419q41 -44 41 -130v-99q0 -98 -56.5 -150t-161.5 -52q-106 0 -160 51t-54 151v218q0 87 26 137.5t78 79.5q24 13 51 21.5t70 18.5q47 12 73.5 20t48.5 23q2 2 7 2q6 0 8 -8l23 -79q1 -2 1 -5q0 -5 -5 -10q-19 -15 -44.5 -22.5t-66.5 -15.5q-23 -4 -47.5 -10
t-42.5 -14q-34 -15 -48.5 -44t-14.5 -74v-37q30 33 71.5 52.5t88.5 19.5q73 0 114 -44zM376 273q0 88 -76 88q-33 0 -65 -17t-56 -47v-96q0 -58 23 -84.5t75 -26.5q51 0 75 27.5t24 81.5v74z" />
    <glyph glyph-name="uni0432" unicode="&#x432;" horiz-adv-x="544" 
d="M61 188v312q0 95 51 145t156 50q94 0 142 -38t48 -112q0 -55 -21.5 -93.5t-58.5 -56.5v-2q112 -17 112 -148v-47q0 -102 -57 -156t-164 -54q-208 0 -208 200zM241 404q49 10 75 37t26 76q0 42 -19 61t-59 19q-86 0 -86 -89v-117zM373 200v47q0 43 -19.5 62.5t-61.5 19.5
t-114 -20v-111q0 -57 22.5 -83t72.5 -26q100 0 100 111z" />
    <glyph glyph-name="uni0433" unicode="&#x433;" horiz-adv-x="484" 
d="M89 18q-46 30 -47 101q0 54 24.5 89t78.5 56l113 44q32 13 44.5 26t12.5 35q0 23 -17 33t-56 10q-80 0 -80 -48q0 -15 -11 -15h-88q-11 0 -13 15q-1 5 -1 14q0 58 51 92t144 34t141 -33t48 -99q0 -53 -24.5 -85t-78.5 -52l-114 -44q-31 -13 -43.5 -28t-12.5 -40
q1 -25 18 -34.5t55 -9.5q50 0 73 13.5t23 43.5q0 15 10 15h89q6 0 8.5 -3t3.5 -11l1 -16q0 -65 -50 -99t-157 -34q-99 0 -145 30z" />
    <glyph glyph-name="uni0434" unicode="&#x434;" horiz-adv-x="543" 
d="M119.5 -165q-51.5 32 -51.5 90q0 16 3 23t11 7h90q11 0 11 -14q0 -22 21.5 -34t60.5 -12q52 0 74 22.5t22 71.5v31q0 41 2 61h-2q-39 -34 -78.5 -50t-83.5 -16q-75 0 -111.5 43t-36.5 133v110q0 103 51 153t159 50q31 0 62.5 -3.5t60.5 -8.5q60 -10 95 -12v-478
q0 -100 -55 -149.5t-160 -49.5q-93 0 -144.5 32zM296 129.5q28 13.5 65 44.5v222q-42 9 -92 9q-52 0 -76 -27.5t-24 -86.5v-80q0 -50 17 -72.5t54 -22.5q28 0 56 13.5z" />
    <glyph glyph-name="uni0435" unicode="&#x435;" horiz-adv-x="530" 
d="M51 177v124q0 100 54 151.5t161 51.5q105 0 159.5 -49.5t54.5 -146.5v-78q0 -5 -3.5 -8.5t-8.5 -3.5h-300v-30q0 -55 23.5 -80.5t76.5 -25.5q41 0 63.5 13.5t22.5 38.5q0 12 12 12h92q10 0 12 -11q2 -71 -50 -109t-153 -38q-216 0 -216 189zM364 298v5q0 55 -23.5 81
t-73.5 26q-51 0 -75 -26.5t-24 -81.5v-4h196z" />
    <glyph glyph-name="uni0436" unicode="&#x436;" horiz-adv-x="745" 
d="M731 8q0 -8 -10 -8h-109q-10 0 -14 7l-111 206h-56v-201q0 -5 -3.5 -8.5t-8.5 -3.5h-93q-5 0 -8.5 3.5t-3.5 8.5v201h-58l-112 -206q-4 -7 -14 -7h-107q-7 0 -9 4.5t2 9.5l144 254l-129 210q-2 4 -2 7q0 7 9 7h107q11 0 14 -7l100 -179h55v365q0 5 3.5 8.5t8.5 3.5h93
q5 0 8.5 -3.5t3.5 -8.5v-365h55l101 179q4 7 14 7h105q7 0 9 -4.5t-2 -9.5l-128 -210l144 -254q2 -4 2 -6z" />
    <glyph glyph-name="uni0437" unicode="&#x437;" horiz-adv-x="485" 
d="M81 -162.5q-52 34.5 -52 99.5q0 7 2 23q3 17 14 17h89q11 0 11 -16q-1 -31 19.5 -48.5t59.5 -17.5q99 0 99 95v48q0 42 -26.5 62.5t-82.5 20.5h-82q-5 0 -8.5 3.5t-3.5 8.5v73q0 5 3.5 8t8.5 3h73q49 0 75.5 24.5t26.5 68.5v24q0 41 -20 60t-63 19q-36 0 -55 -14t-18 -40
q0 -15 -11 -15h-90q-12 0 -14 17l-1 14q0 61 53.5 95t144.5 34q190 0 190 -156v-32q0 -46 -23.5 -83t-65.5 -55v-1q52 -11 79 -46.5t27 -87.5v-44q0 -94 -54 -145t-161 -51q-92 0 -144 34.5z" />
    <glyph glyph-name="uni0438" unicode="&#x438;" horiz-adv-x="546" 
d="M489 10q0 -4 -3.5 -7t-8.5 -3h-81q-13 0 -14 11q-7 46 -8 63q-43 -41 -86 -63.5t-90 -22.5q-66 0 -100 41.5t-34 123.5v327q0 12 11 12h95q5 0 8.5 -3.5t3.5 -8.5v-308q0 -42 14.5 -62t45.5 -20q28 0 56.5 16t65.5 50v324q0 5 3.5 8.5t8.5 3.5h95q11 0 11 -12v-355
q0 -63 7 -113v-2z" />
    <glyph glyph-name="uni0439" unicode="&#x439;" horiz-adv-x="546" 
d="M489 10q0 -4 -3.5 -7t-8.5 -3h-81q-13 0 -14 11q-7 46 -8 63q-43 -41 -86 -63.5t-90 -22.5q-66 0 -100 41.5t-34 123.5v327q0 12 11 12h95q5 0 8.5 -3.5t3.5 -8.5v-308q0 -42 14.5 -62t45.5 -20q28 0 56.5 16t65.5 50v324q0 5 3.5 8.5t8.5 3.5h95q11 0 11 -12v-355
q0 -63 7 -113v-2zM196 572q-32 16 -50 36q-4 4 -4 13v66q0 10 6 10q1 0 7 -4q55 -50 118 -50q36 0 66.5 15t50.5 35q4 4 7 4q6 0 6 -10v-66q0 -10 -5 -15q-56 -50 -125 -50q-45 0 -77 16z" />
    <glyph glyph-name="uni043A" unicode="&#x43a;" horiz-adv-x="512" 
d="M509 7q0 -7 -9 -7h-113q-10 0 -14 7l-133 205h-58v-200q0 -5 -3.5 -8.5t-8.5 -3.5h-95q-11 0 -11 12v659q0 12 11 12h95q5 0 8.5 -3.5t3.5 -8.5v-363h58l122 177q6 7 14 7h109q7 0 9 -4.5t-2 -9.5l-151 -210l166 -254q2 -2 2 -7z" />
    <glyph glyph-name="uni043B" unicode="&#x43b;" horiz-adv-x="480" 
d="M4.5 4q-2.5 4 -0.5 10l167 465q3 7 6.5 10t10.5 3h103q13 0 17 -13l167 -465q1 -2 1 -6q0 -8 -9 -8h-103q-10 0 -13 10l-76 240l-12 39q-18 57 -23 78h-2q-6 -24 -23 -82l-11 -36l-77 -239q-3 -10 -13 -10h-101q-6 0 -8.5 4z" />
    <glyph glyph-name="uni043C" unicode="&#x43c;" horiz-adv-x="638" 
d="M59.5 3.5q-3.5 3.5 -3.5 8.5l9 468q0 12 11 12h97q9 0 13 -9l133 -263l133 263q5 9 13 9h97q12 0 12 -12l8 -468q0 -12 -12 -12h-87q-11 0 -11 12l-2 192q0 24 4 84l2 35h-3q-29 -65 -47 -94l-95 -170q-4 -6 -12 -6t-12 6l-95 170q-11 19 -35 69l-12 25h-3q6 -74 6 -119
l-2 -192q0 -12 -11 -12h-87q-5 0 -8.5 3.5z" />
    <glyph glyph-name="uni043D" unicode="&#x43d;" horiz-adv-x="547" 
d="M480.5 488.5q3.5 -3.5 3.5 -8.5v-468q0 -5 -3.5 -8.5t-8.5 -3.5h-95q-11 0 -11 12v187h-184v-187q0 -5 -3.5 -8.5t-8.5 -3.5h-95q-11 0 -11 12v468q0 12 11 12h95q5 0 8.5 -3.5t3.5 -8.5v-182h184v182q0 12 11 12h95q5 0 8.5 -3.5z" />
    <glyph glyph-name="uni043E" unicode="&#x43e;" horiz-adv-x="544" 
d="M107.5 39q-56.5 51 -56.5 153v108q0 101 57 152.5t164 51.5t163.5 -51.5t56.5 -152.5v-108q0 -102 -56 -153t-164 -51t-164.5 51zM349.5 116.5q24.5 27.5 24.5 86.5v86q0 59 -24.5 86.5t-77.5 27.5q-54 0 -78.5 -27.5t-24.5 -86.5v-86q0 -59 24.5 -86.5t78.5 -27.5
q53 0 77.5 27.5z" />
    <glyph glyph-name="uni043F" unicode="&#x43f;" horiz-adv-x="558" 
d="M495 339v-327q0 -5 -3.5 -8.5t-8.5 -3.5h-94q-5 0 -8.5 3.5t-3.5 8.5v308q0 42 -17 62t-52 20q-30 0 -59.5 -16t-66.5 -50v-324q0 -5 -3.5 -8.5t-8.5 -3.5h-95q-11 0 -11 12v355q0 46 -7 111v3q0 11 12 11h84q6 0 9 -2t4 -9q4 -19 8 -61q44 42 84.5 63t90.5 21
q146 0 146 -165z" />
    <glyph glyph-name="uni0440" unicode="&#x440;" horiz-adv-x="540" 
d="M487 327v-137q0 -101 -45.5 -151.5t-131.5 -50.5q-31 0 -66.5 7t-61.5 20v-188q0 -5 -3.5 -8.5t-8.5 -3.5h-95q-11 0 -11 12v546q0 52 -7 106v2q0 11 12 11h84q6 0 8.5 -2.5t4.5 -8.5q6 -38 8 -52q41 37 80.5 56t85.5 19q147 0 147 -177zM369 307q0 49 -17 72t-53 23
q-26 0 -54 -14t-63 -44v-236q47 -21 95 -21q92 0 92 114v106z" />
    <glyph glyph-name="uni0441" unicode="&#x441;" horiz-adv-x="526" 
d="M107.5 40q-56.5 52 -56.5 150v113q0 97 57 149t163 52q65 0 112 -21t71 -58t22 -84q0 -21 -12 -21h-90q-11 0 -11 16q0 32 -24.5 49.5t-66.5 17.5q-52 0 -77.5 -27t-25.5 -85v-90q0 -57 25 -84t77 -27q43 0 67 18t24 48q0 15 11 15h90q12 0 12 -11q2 -80 -51 -126
t-154 -46q-106 0 -162.5 52z" />
    <glyph glyph-name="uni0442" unicode="&#x442;" horiz-adv-x="840" 
d="M64 12v355q0 66 -7 112v2q0 11 12 11h84q6 0 8.5 -2t3.5 -7q7 -43 9 -64q42 43 80.5 64t86.5 21q52 0 82 -21.5t43 -65.5q44 44 84.5 65.5t88.5 21.5q137 0 137 -164v-328q0 -12 -11 -12h-95q-5 0 -8.5 3.5t-3.5 8.5v308q0 42 -15 62t-47 20q-27 0 -54.5 -16t-62.5 -49
v-325q0 -5 -3.5 -8.5t-8.5 -3.5h-94q-5 0 -8.5 3.5t-3.5 8.5v308q0 42 -15 62t-47 20q-27 0 -54.5 -16t-62.5 -49v-325q0 -5 -3.5 -8.5t-8.5 -3.5h-95q-11 0 -11 12z" />
    <glyph glyph-name="uni0443" unicode="&#x443;" horiz-adv-x="512" 
d="M134.5 -181q-2.5 4 0.5 10l67 175l-183 474q-1 2 -1 5q0 9 10 9h103q10 0 13 -10l72 -205q18 -50 40 -135h2q19 69 41 135l72 205q3 10 13 10h100q15 0 10 -14l-245 -654q-4 -9 -13 -9h-93q-6 0 -8.5 4z" />
    <glyph glyph-name="uni0444" unicode="&#x444;" horiz-adv-x="713" 
d="M602 453q60 -51 60 -150v-114q0 -99 -60 -150t-175 -51h-12v-161q0 -12 -12 -12h-93q-5 0 -8.5 3.5t-3.5 8.5v161h-12q-115 0 -175 51t-60 150v114q0 99 60 150t175 51h12v168q0 5 3.5 8.5t8.5 3.5h93q12 0 12 -12v-168h12q115 0 175 -51zM300 86v321h-18
q-57 0 -85 -27.5t-28 -85.5v-96q0 -57 28 -84.5t85 -27.5h18zM544 294q0 58 -28 85.5t-85 27.5h-18v-321h18q57 0 85 27.5t28 84.5v96z" />
    <glyph glyph-name="uni0445" unicode="&#x445;" horiz-adv-x="504" 
d="M9 4q-2 4 2 10l168 239l-157 225q-2 3 -2 7q0 7 10 7h110q11 0 14 -7l55 -85l27 -44q5 -9 9 -16t7 -12h1l46 76l53 80q4 8 14 8h106q8 0 10 -4t-2 -10l-157 -223l170 -241q3 -4 3 -7q0 -7 -10 -7h-111q-9 0 -14 7l-53 80l-57 91h-1l-55 -91l-53 -80q-3 -7 -14 -7h-110
q-7 0 -9 4z" />
    <glyph glyph-name="uni0446" unicode="&#x446;" horiz-adv-x="563" 
d="M548 95.5q3 -3.5 3 -8.5v-198q0 -5 -3 -8.5t-8 -3.5h-88q-5 0 -8.5 3.5t-3.5 8.5v111h-44q-13 0 -14 11q-7 46 -8 63q-43 -41 -86 -63.5t-90 -22.5q-66 0 -100 41.5t-34 123.5v327q0 12 11 12h95q5 0 8.5 -3.5t3.5 -8.5v-308q0 -42 14.5 -62t45.5 -20q28 0 56.5 16
t65.5 50v324q0 5 3.5 8.5t8.5 3.5h95q11 0 11 -12v-355v-26h58q5 0 8 -3.5z" />
    <glyph glyph-name="uni0447" unicode="&#x447;" horiz-adv-x="527" 
d="M348.5 3.5q-3.5 3.5 -3.5 8.5v188q-81 -72 -165 -72q-63 0 -97 40t-34 118v194q0 5 3.5 8.5t8.5 3.5h94q12 0 12 -12v-165q0 -86 59 -86q58 0 119 64v187q0 5 3.5 8.5t8.5 3.5h94q5 0 8.5 -3.5t3.5 -8.5v-468q0 -5 -3.5 -8.5t-8.5 -3.5h-94q-5 0 -8.5 3.5z" />
    <glyph glyph-name="uni0448" unicode="&#x448;" horiz-adv-x="828" 
d="M64 153v327q0 12 11 12h95q5 0 8.5 -3.5t3.5 -8.5v-308q0 -41 14 -61.5t44 -20.5q25 0 52.5 16t62.5 50v324q0 5 3.5 8.5t8.5 3.5h95q11 0 11 -12v-308q0 -41 14 -61.5t44 -20.5q26 0 53.5 16.5t62.5 50.5v323q0 5 3.5 8.5t8.5 3.5h94q5 0 8.5 -3.5t3.5 -8.5v-355
q0 -62 6 -112v-2q0 -11 -12 -11h-84q-10 0 -11 9q-6 25 -9 64q-43 -43 -81.5 -64t-84.5 -21q-49 0 -78.5 21.5t-42.5 65.5q-44 -43 -84 -65t-86 -22q-134 0 -134 165z" />
    <glyph glyph-name="uni0449" unicode="&#x449;" horiz-adv-x="846" 
d="M831.5 95.5q3.5 -3.5 3.5 -8.5v-198q0 -5 -3.5 -8.5t-8.5 -3.5h-88q-5 0 -8.5 3.5t-3.5 8.5v111h-48q-10 0 -11 9q-6 25 -9 64q-43 -43 -81.5 -64t-84.5 -21q-49 0 -78.5 21.5t-42.5 65.5q-44 -43 -84 -65t-86 -22q-134 0 -134 165v327q0 12 11 12h95q5 0 8.5 -3.5
t3.5 -8.5v-308q0 -41 14 -61.5t44 -20.5q25 0 52.5 16t62.5 50v324q0 5 3.5 8.5t8.5 3.5h95q11 0 11 -12v-308q0 -41 14 -61.5t44 -20.5q26 0 53.5 16.5t62.5 50.5v323q0 5 3.5 8.5t8.5 3.5h94q5 0 8.5 -3.5t3.5 -8.5v-355v-27l1 1h57q5 0 8.5 -3.5z" />
    <glyph glyph-name="uni044A" unicode="&#x44a;" horiz-adv-x="587" 
d="M506 333q38 -39 38 -116v-46q0 -89 -55.5 -136t-157.5 -47q-101 0 -149.5 45t-48.5 144v216h-105q-11 0 -11 12v75q0 12 11 12h212q11 0 11 -12v-171q63 63 147 63q70 0 108 -39zM424 208q0 67 -67 67q-60 0 -106 -57v-53q0 -82 85 -82q41 0 64.5 21.5t23.5 60.5v43z" />
    <glyph glyph-name="uni044B" unicode="&#x44b;" horiz-adv-x="745" 
d="M436 333q38 -39 38 -116v-46q0 -89 -55.5 -136t-157.5 -47q-101 0 -149 45t-48 144v303q0 12 11 12h95q5 0 8.5 -3.5t3.5 -8.5v-170q64 62 146 62q70 0 108 -39zM354 208q0 67 -67 67q-58 0 -105 -56v-54q0 -82 84 -82q41 0 64.5 21.5t23.5 60.5v43zM564 12v468
q0 12 11 12h95q5 0 8.5 -3.5t3.5 -8.5v-468q0 -5 -3.5 -8.5t-8.5 -3.5h-95q-11 0 -11 12z" />
    <glyph glyph-name="uni044C" unicode="&#x44c;" horiz-adv-x="517" 
d="M436 333q38 -39 38 -116v-46q0 -89 -55.5 -136t-157.5 -47q-101 0 -149 45t-48 144v303q0 12 11 12h95q5 0 8.5 -3.5t3.5 -8.5v-170q64 62 146 62q70 0 108 -39zM354 208q0 67 -67 67q-58 0 -105 -56v-54q0 -82 84 -82q41 0 64.5 21.5t23.5 60.5v43z" />
    <glyph glyph-name="uni044D" unicode="&#x44d;" horiz-adv-x="517" 
d="M136 7q-49 19 -72.5 53t-19.5 78q2 17 14 17h90q11 0 11 -14q0 -25 23.5 -38t67.5 -13q52 0 75 20.5t23 67.5v35h-171q-10 0 -10 10v50q0 10 10 10h171v32q0 45 -23 66t-72 21q-41 0 -65 -13t-24 -36q0 -15 -11 -15h-90q-12 0 -13 17l-1 13q0 39 25 70t72.5 48.5
t112.5 17.5q103 0 155 -47.5t52 -139.5v-135q0 -194 -211 -194q-70 0 -119 19z" />
    <glyph glyph-name="uni044E" unicode="&#x44e;" horiz-adv-x="745" 
d="M638.5 452q55.5 -52 55.5 -150v-112q0 -98 -55.5 -150t-158.5 -52t-158.5 52t-55.5 150v10h-84v-188q0 -5 -3.5 -8.5t-8.5 -3.5h-95q-11 0 -11 12v659q0 12 11 12h95q5 0 8.5 -3.5t3.5 -8.5v-374h84v5q0 98 56 150t158 52q103 0 158.5 -52zM576 291q0 56 -23.5 83.5
t-72.5 27.5t-72.5 -27.5t-23.5 -83.5v-90q0 -56 23.5 -83.5t72.5 -27.5t72.5 27.5t23.5 83.5v90z" />
    <glyph glyph-name="uni044F" unicode="&#x44f;" horiz-adv-x="519" 
d="M26.5 4q-2.5 4 1.5 10l69 105q38 57 50 73v2q-97 30 -97 138q0 78 47 119t142 41h204q5 0 8.5 -3.5t3.5 -8.5v-468q0 -5 -3.5 -8.5t-8.5 -3.5h-94q-5 0 -8.5 3.5t-3.5 8.5v164h-77l-103 -168q-4 -8 -15 -8h-106q-7 0 -9.5 4zM337 263v136h-93q-43 0 -61 -17t-18 -52
q0 -36 21 -51.5t68 -15.5h83z" />
    <glyph glyph-name="uni0450" unicode="&#x450;" horiz-adv-x="530" 
d="M51 177v124q0 100 54 151.5t161 51.5q105 0 159.5 -49.5t54.5 -146.5v-78q0 -5 -3.5 -8.5t-8.5 -3.5h-300v-30q0 -55 23.5 -80.5t76.5 -25.5q41 0 63.5 13.5t22.5 38.5q0 12 12 12h92q10 0 12 -11q2 -71 -50 -109t-153 -38q-216 0 -216 189zM364 298v5q0 55 -23.5 81
t-73.5 26q-51 0 -75 -26.5t-24 -81.5v-4h196zM245 572l-90 126q-2 4 -2 6q0 7 8 7h90q10 0 14 -9l68 -125q2 -4 2 -6q0 -6 -8 -6h-69q-8 0 -13 7z" />
    <glyph glyph-name="uni0451" unicode="&#x451;" horiz-adv-x="530" 
d="M51 177v124q0 100 54 151.5t161 51.5q105 0 159.5 -49.5t54.5 -146.5v-78q0 -5 -3.5 -8.5t-8.5 -3.5h-300v-30q0 -55 23.5 -80.5t76.5 -25.5q41 0 63.5 13.5t22.5 38.5q0 12 12 12h92q10 0 12 -11q2 -71 -50 -109t-153 -38q-216 0 -216 189zM364 298v5q0 55 -23.5 81
t-73.5 26q-51 0 -75 -26.5t-24 -81.5v-4h196zM122 587.5q-16 15.5 -16 43.5v14q0 28 16 44t47 16q32 0 48 -16t16 -44v-14q0 -28 -16 -43.5t-48 -15.5q-31 0 -47 15.5zM309 587.5q-16 15.5 -16 43.5v14q0 28 16 44t48 16q31 0 47 -15.5t16 -44.5v-14q0 -28 -16 -43.5
t-47 -15.5q-32 0 -48 15.5z" />
    <glyph glyph-name="uni0452" unicode="&#x452;" horiz-adv-x="563" 
d="M366 -193q-3 0 -8 5l-57 67q-3 4 -3 8t6 9q76 52 76 180v244q0 42 -16.5 62t-51.5 20q-31 0 -61.5 -16.5t-65.5 -50.5v-323q0 -5 -3.5 -8.5t-8.5 -3.5h-94q-5 0 -8.5 3.5t-3.5 8.5v539h-60q-5 0 -8.5 3.5t-3.5 8.5v58q0 5 3.5 8.5t8.5 3.5h60v38q0 5 3.5 8.5t8.5 3.5h94
q5 0 8.5 -3.5t3.5 -8.5v-38h92q5 0 8.5 -3.5t3.5 -8.5v-58q0 -5 -3.5 -8.5t-8.5 -3.5h-92v-124q40 39 80.5 58t87.5 19q145 0 145 -165v-265q0 -98 -29.5 -161t-96.5 -104q-4 -2 -6 -2z" />
    <glyph glyph-name="uni0453" unicode="&#x453;" horiz-adv-x="484" 
d="M89 18q-46 30 -47 101q0 54 24.5 89t78.5 56l113 44q32 13 44.5 26t12.5 35q0 23 -17 33t-56 10q-80 0 -80 -48q0 -15 -11 -15h-88q-11 0 -13 15q-1 5 -1 14q0 58 51 92t144 34t141 -33t48 -99q0 -53 -24.5 -85t-78.5 -52l-114 -44q-31 -13 -43.5 -28t-12.5 -40
q1 -25 18 -34.5t55 -9.5q50 0 73 13.5t23 43.5q0 15 10 15h89q6 0 8.5 -3t3.5 -11l1 -16q0 -65 -50 -99t-157 -34q-99 0 -145 30zM170 569l68 125q3 5 6 7t9 2h90q6 0 7.5 -4t-2.5 -9l-90 -126q-4 -7 -13 -7h-68q-12 0 -7 12z" />
    <glyph glyph-name="uni0454" unicode="&#x454;" horiz-adv-x="523" 
d="M51 182v135q0 92 53 139.5t157 47.5q97 0 152 -38.5t55 -98.5q0 -16 -3 -22.5t-11 -6.5h-90q-11 0 -11 14q0 23 -23.5 36.5t-64.5 13.5q-49 0 -72.5 -21t-23.5 -66v-32h171q10 0 10 -10v-50q0 -10 -10 -10h-171v-35q0 -47 23 -67.5t75 -20.5q44 0 67.5 13.5t23.5 36.5
q0 15 11 15h90q12 0 14 -17l1 -14q0 -61 -55.5 -98.5t-154.5 -37.5q-213 0 -213 194z" />
    <glyph glyph-name="uni0455" unicode="&#x455;" horiz-adv-x="471" 
d="M89.5 27q-46.5 39 -43.5 121q0 11 12 11h90q10 0 10 -11q0 -36 18.5 -53t58.5 -17q81 0 81 53q0 19 -12.5 32.5t-42.5 25.5l-114 48q-52 21 -74.5 51t-22.5 79q0 69 45 103t137 34q94 0 142.5 -36t48.5 -105q0 -11 -12 -11h-90q-12 0 -12 16q0 22 -19 34.5t-53 12.5
q-69 0 -69 -48q0 -18 10.5 -28t41.5 -23l114 -48q53 -22 76.5 -53t23.5 -79q0 -73 -50.5 -110.5t-148.5 -37.5q-99 0 -145.5 39z" />
    <glyph glyph-name="uni0456" unicode="&#x456;" horiz-adv-x="245" 
d="M64 12v468q0 12 11 12h95q5 0 8.5 -3.5t3.5 -8.5v-468q0 -5 -3.5 -8.5t-8.5 -3.5h-95q-11 0 -11 12zM71.5 580.5q-17.5 17.5 -17.5 46.5v15q0 30 17.5 47t51.5 17t51 -17t17 -47v-15q0 -29 -17.5 -46.5t-50.5 -17.5q-34 0 -51.5 17.5z" />
    <glyph glyph-name="uni0457" unicode="&#x457;" horiz-adv-x="245" 
d="M64 12v468q0 12 11 12h95q5 0 8.5 -3.5t3.5 -8.5v-468q0 -5 -3.5 -8.5t-8.5 -3.5h-95q-11 0 -11 12zM-19 579.5q-16 15.5 -16 43.5v14q0 28 16 44t47 16q32 0 48 -16t16 -44v-14q0 -28 -16 -43.5t-48 -15.5q-31 0 -47 15.5zM168 579.5q-16 15.5 -16 43.5v14q0 28 16 44
t48 16q31 0 47 -15.5t16 -44.5v-14q0 -28 -16 -43.5t-47 -15.5q-32 0 -48 15.5z" />
    <glyph glyph-name="uni0458" unicode="&#x458;" horiz-adv-x="246" 
d="M50 -193q-4 0 -9 5l-57 67q-3 4 -3 8t6 9q77 55 77 180v404q0 5 3 8.5t8 3.5h95q5 0 8.5 -3.5t3.5 -8.5v-406q0 -98 -29.5 -161t-96.5 -104q-4 -2 -6 -2zM72.5 580.5q-17.5 17.5 -17.5 46.5v15q0 30 17.5 47t51.5 17t51 -17t17 -47v-15q0 -29 -17.5 -46.5t-50.5 -17.5
q-34 0 -51.5 17.5z" />
    <glyph glyph-name="uni0459" unicode="&#x459;" horiz-adv-x="752" 
d="M380.5 16.5q-40.5 28.5 -62.5 101.5l-44 133l-10 32q-4 14 -11.5 39.5t-12.5 44.5h-2q-11 -47 -34 -118l-76 -239q-3 -10 -13 -10h-102q-6 0 -8.5 4t-0.5 10l166 465q5 13 17 13h105q13 0 17 -13l73 -202q76 95 181 95q70 0 108 -39.5t38 -115.5v-46q0 -89 -54 -136
t-152 -47q-82 0 -122.5 28.5zM567 104.5q22 21.5 22 60.5v43q0 67 -66 67q-65 0 -116 -71l22 -61q13 -36 29 -48t47 -12q40 0 62 21.5z" />
    <glyph glyph-name="uni045A" unicode="&#x45a;" horiz-adv-x="819" 
d="M738 333q38 -39 38 -116v-46q0 -89 -55.5 -136t-157.5 -47q-101 0 -149 45t-48 144v22h-184v-187q0 -5 -3.5 -8.5t-8.5 -3.5h-95q-11 0 -11 12v468q0 12 11 12h95q5 0 8.5 -3.5t3.5 -8.5v-182h184v182q0 12 11 12h95q5 0 8.5 -3.5t3.5 -8.5v-171q63 63 146 63
q70 0 108 -39zM657 208q0 67 -68 67q-58 0 -105 -56v-54q0 -82 84 -82q42 0 65.5 21.5t23.5 60.5v43z" />
    <glyph glyph-name="uni045B" unicode="&#x45b;" horiz-adv-x="562" 
d="M498 339v-327q0 -12 -11 -12h-95q-5 0 -8.5 3.5t-3.5 8.5v308q0 42 -16.5 62t-51.5 20q-60 0 -127 -67v-323q0 -5 -3.5 -8.5t-8.5 -3.5h-94q-5 0 -8.5 3.5t-3.5 8.5v539h-60q-5 0 -8.5 3.5t-3.5 8.5v58q0 5 3.5 8.5t8.5 3.5h60v38q0 5 3.5 8.5t8.5 3.5h94q5 0 8.5 -3.5
t3.5 -8.5v-38h91q5 0 8.5 -3.5t3.5 -8.5v-58q0 -5 -3.5 -8.5t-8.5 -3.5h-91v-124q40 38 80 57.5t88 19.5q145 0 145 -165z" />
    <glyph glyph-name="uni045C" unicode="&#x45c;" horiz-adv-x="512" 
d="M509 7q0 -7 -9 -7h-113q-10 0 -14 7l-133 205h-58v-200q0 -5 -3.5 -8.5t-8.5 -3.5h-95q-11 0 -11 12v659q0 12 11 12h95q5 0 8.5 -3.5t3.5 -8.5v-363h58l122 177q6 7 14 7h109q7 0 9 -4.5t-2 -9.5l-151 -210l166 -254q2 -2 2 -7zM229 569l68 125q3 5 6 7t9 2h90
q6 0 7.5 -4t-2.5 -9l-90 -126q-4 -7 -13 -7h-68q-12 0 -7 12z" />
    <glyph glyph-name="uni045D" unicode="&#x45d;" horiz-adv-x="546" 
d="M489 10q0 -4 -3.5 -7t-8.5 -3h-81q-13 0 -14 11q-7 46 -8 63q-43 -41 -86 -63.5t-90 -22.5q-66 0 -100 41.5t-34 123.5v327q0 12 11 12h95q5 0 8.5 -3.5t3.5 -8.5v-308q0 -42 14.5 -62t45.5 -20q28 0 56.5 16t65.5 50v324q0 5 3.5 8.5t8.5 3.5h95q11 0 11 -12v-355
q0 -63 7 -113v-2zM255 564l-90 126q-2 4 -2 6q0 7 8 7h90q10 0 14 -9l68 -125q2 -4 2 -6q0 -6 -8 -6h-69q-8 0 -13 7z" />
    <glyph glyph-name="uni045E" unicode="&#x45e;" horiz-adv-x="512" 
d="M134.5 -181q-2.5 4 0.5 10l67 175l-183 474q-1 2 -1 5q0 9 10 9h103q10 0 13 -10l72 -205q18 -50 40 -135h2q19 69 41 135l72 205q3 10 13 10h100q15 0 10 -14l-245 -654q-4 -9 -13 -9h-93q-6 0 -8.5 4zM179 572q-32 16 -50 36q-4 4 -4 13v66q0 10 6 10q1 0 7 -4
q55 -50 118 -50q36 0 66.5 15t50.5 35q4 4 7 4q6 0 6 -10v-66q0 -10 -5 -15q-56 -50 -125 -50q-45 0 -77 16z" />
    <glyph glyph-name="uni045F" unicode="&#x45f;" horiz-adv-x="546" 
d="M489 10q0 -4 -3.5 -7t-8.5 -3h-81q-13 0 -14 11q-7 46 -8 63q-40 -39 -77 -59v-126q0 -5 -3 -8.5t-8 -3.5h-85q-5 0 -8.5 3.5t-3.5 8.5v99q-62 3 -93.5 44.5t-31.5 120.5v327q0 12 11 12h95q5 0 8.5 -3.5t3.5 -8.5v-308q0 -42 14.5 -62t45.5 -20q28 0 56.5 16t65.5 50
v324q0 5 3.5 8.5t8.5 3.5h95q11 0 11 -12v-355q0 -63 7 -113v-2z" />
    <glyph glyph-name="uni0490" unicode="&#x490;" horiz-adv-x="477" 
d="M449 792.5q3 -3.5 3 -8.5v-223q0 -12 -11 -12h-247v-537q0 -5 -3.5 -8.5t-8.5 -3.5h-97q-11 0 -11 12v631q0 12 11 12h251v129q0 5 3.5 8.5t8.5 3.5h93q5 0 8 -3.5z" />
    <glyph glyph-name="uni0491" unicode="&#x491;" horiz-adv-x="449" 
d="M55.5 -9.5q-17.5 2.5 -38.5 10.5q-9 5 -9 12l2 73q0 5 3.5 7.5t10.5 0.5q23 -11 49 -11q17 0 25 13t11 52l10 160q6 97 41.5 142.5t115.5 45.5q61 0 73 36q3 11 3 23.5v15.5q0 9 12 9h83q11 0 11 -15q0 -44 -5 -71.5t-19 -43.5q-17 -21 -41.5 -32t-72.5 -12
q-43 -1 -61 -26.5t-23 -89.5l-11 -144q-6 -85 -36 -121.5t-91 -36.5q-25 0 -42.5 2.5z" />
    <glyph glyph-name="uni04C0" unicode="&#x4c0;" horiz-adv-x="267" 
d="M74 12v631q0 12 11 12h97q5 0 8.5 -3.5t3.5 -8.5v-631q0 -5 -3.5 -8.5t-8.5 -3.5h-97q-11 0 -11 12z" />
    <glyph glyph-name="uni04CF" unicode="&#x4cf;" horiz-adv-x="245" 
d="M64 12v659q0 12 11 12h95q5 0 8.5 -3.5t3.5 -8.5v-659q0 -5 -3.5 -8.5t-8.5 -3.5h-95q-11 0 -11 12z" />
    <glyph glyph-name="uni04E2" unicode="&#x4e2;" horiz-adv-x="665" 
d="M74 12v631q0 12 11 12h93q5 0 8.5 -3.5t3.5 -8.5v-268q0 -69 -2.5 -114t-7.5 -100h3q19 43 44 89t72 125l162 272q5 8 14 8h105q11 0 11 -12v-631q0 -12 -11 -12h-93q-5 0 -8.5 3.5t-3.5 8.5v256q0 123 9 224h-3q-20 -41 -45.5 -87t-79.5 -137l-152 -260q-5 -8 -14 -8
h-105q-11 0 -11 12zM208.5 719.5q-3.5 3.5 -3.5 8.5v66q0 5 3.5 8.5t8.5 3.5h229q5 0 8.5 -3.5t3.5 -8.5v-66q0 -5 -3.5 -8.5t-8.5 -3.5h-229q-5 0 -8.5 3.5z" />
    <glyph glyph-name="uni04E3" unicode="&#x4e3;" horiz-adv-x="546" 
d="M489 10q0 -4 -3.5 -7t-8.5 -3h-81q-13 0 -14 11q-7 46 -8 63q-43 -41 -86 -63.5t-90 -22.5q-66 0 -100 41.5t-34 123.5v327q0 12 11 12h95q5 0 8.5 -3.5t3.5 -8.5v-308q0 -42 14.5 -62t45.5 -20q28 0 56.5 16t65.5 50v324q0 5 3.5 8.5t8.5 3.5h95q11 0 11 -12v-355
q0 -63 7 -113v-2zM159.5 573.5q-3.5 3.5 -3.5 8.5v66q0 11 12 11h209q12 0 12 -11v-66q0 -5 -3.5 -8.5t-8.5 -3.5h-209q-5 0 -8.5 3.5z" />
    <glyph glyph-name="uni04EE" unicode="&#x4ee;" horiz-adv-x="573" 
d="M124.5 4q-2.5 4 0.5 10l105 212l-212 415q-2 4 -2 6q0 8 10 8h109q10 0 14 -8l97 -202q31 -66 44 -104h3q19 52 46 104l98 202q5 8 14 8h106q6 0 8.5 -4t-0.5 -10l-320 -633q-3 -8 -13 -8h-98q-7 0 -9.5 4zM167.5 719.5q-3.5 3.5 -3.5 8.5v66q0 5 3.5 8.5t8.5 3.5h229
q5 0 8.5 -3.5t3.5 -8.5v-66q0 -5 -3.5 -8.5t-8.5 -3.5h-229q-5 0 -8.5 3.5z" />
    <glyph glyph-name="uni04EF" unicode="&#x4ef;" horiz-adv-x="512" 
d="M134.5 -181q-2.5 4 0.5 10l67 175l-183 474q-1 2 -1 5q0 9 10 9h103q10 0 13 -10l72 -205q18 -50 40 -135h2q19 69 41 135l72 205q3 10 13 10h100q15 0 10 -14l-245 -654q-4 -9 -13 -9h-93q-6 0 -8.5 4zM142.5 573.5q-3.5 3.5 -3.5 8.5v66q0 11 12 11h209q12 0 12 -11
v-66q0 -5 -3.5 -8.5t-8.5 -3.5h-209q-5 0 -8.5 3.5z" />
    <glyph glyph-name="Wgrave" unicode="&#x1e80;" horiz-adv-x="872" 
d="M194 10l-177 632v3q0 10 11 10h97q12 0 13 -10l96 -358q7 -23 26 -116l9 -47h2q26 92 41 139l76 244l-37 122q-1 2 -1 5q0 4 3 6t8 2h98q5 0 8 -3t4 -7l100 -371q18 -65 34 -137h1l11 56q13 68 23 111l92 354q1 10 13 10h100q6 0 9 -3.5t1 -9.5l-172 -632q-3 -10 -13 -10
h-120q-11 0 -14 10l-58 206q-18 61 -37 138h-2l-13 -46q-6 -19 -12.5 -41.5t-14.5 -48.5l-63 -209q-4 -9 -13 -9h-116q-10 0 -13 10zM414 715l-79 109q-3 5 -3 7q0 6 8 6h92q8 0 13 -8l58 -109q2 -4 2 -6q0 -5 -8 -5h-70q-8 0 -13 6z" />
    <glyph glyph-name="wgrave" unicode="&#x1e81;" horiz-adv-x="741" 
d="M171 10l-147 469q-1 2 -1 5q0 8 10 8h101q9 0 12 -11l65 -243q19 -75 30 -130h3l37 125l42 137l-26 98l-1 5q0 8 10 8h89q12 0 13 -9l60 -237l29 -127h3q14 68 30 131l65 242q3 11 12 11h101q6 0 8.5 -3.5t0.5 -9.5l-147 -469q-4 -10 -13 -10h-110q-11 0 -14 10l-25 85
q-18 62 -34 149h-3q-11 -63 -37 -147l-27 -87q-3 -10 -13 -10h-110q-10 0 -13 10zM352 564l-90 126q-2 4 -2 6q0 7 8 7h90q10 0 14 -9l68 -125q2 -4 2 -6q0 -6 -8 -6h-69q-8 0 -13 7z" />
    <glyph glyph-name="Wacute" unicode="&#x1e82;" horiz-adv-x="872" 
d="M194 10l-177 632v3q0 10 11 10h97q12 0 13 -10l96 -358q7 -23 26 -116l9 -47h2q26 92 41 139l76 244l-37 122q-1 2 -1 5q0 4 3 6t8 2h98q5 0 8 -3t4 -7l100 -371q18 -65 34 -137h1l11 56q13 68 23 111l92 354q1 10 13 10h100q6 0 9 -3.5t1 -9.5l-172 -632q-3 -10 -13 -10
h-120q-11 0 -14 10l-58 206q-18 61 -37 138h-2l-13 -46q-6 -19 -12.5 -41.5t-14.5 -48.5l-63 -209q-4 -9 -13 -9h-116q-10 0 -13 10zM366 720l59 109q3 8 13 8h91q6 0 8 -4t-2 -9l-80 -109q-4 -6 -13 -6h-70q-12 0 -6 11z" />
    <glyph glyph-name="wacute" unicode="&#x1e83;" horiz-adv-x="741" 
d="M171 10l-147 469q-1 2 -1 5q0 8 10 8h101q9 0 12 -11l65 -243q19 -75 30 -130h3l37 125l42 137l-26 98l-1 5q0 8 10 8h89q12 0 13 -9l60 -237l29 -127h3q14 68 30 131l65 242q3 11 12 11h101q6 0 8.5 -3.5t0.5 -9.5l-147 -469q-4 -10 -13 -10h-110q-11 0 -14 10l-25 85
q-18 62 -34 149h-3q-11 -63 -37 -147l-27 -87q-3 -10 -13 -10h-110q-10 0 -13 10zM299 569l68 125q3 5 6 7t9 2h90q6 0 7.5 -4t-2.5 -9l-90 -126q-4 -7 -13 -7h-68q-12 0 -7 12z" />
    <glyph glyph-name="Wdieresis" unicode="&#x1e84;" horiz-adv-x="872" 
d="M194 10l-177 632v3q0 10 11 10h97q12 0 13 -10l96 -358q7 -23 26 -116l9 -47h2q26 92 41 139l76 244l-37 122q-1 2 -1 5q0 4 3 6t8 2h98q5 0 8 -3t4 -7l100 -371q18 -65 34 -137h1l11 56q13 68 23 111l92 354q1 10 13 10h100q6 0 9 -3.5t1 -9.5l-172 -632q-3 -10 -13 -10
h-120q-11 0 -14 10l-58 206q-18 61 -37 138h-2l-13 -46q-6 -19 -12.5 -41.5t-14.5 -48.5l-63 -209q-4 -9 -13 -9h-116q-10 0 -13 10zM296 725q-16 16 -16 44v14q0 28 16 43.5t47 15.5q32 0 48 -15.5t16 -43.5v-14q0 -28 -16.5 -44t-47.5 -16t-47 16zM483 725q-16 16 -16 44
v14q0 28 16 43.5t47 15.5t47 -15.5t16 -43.5v-14q0 -28 -16 -44t-47 -16t-47 16z" />
    </font>
</defs>
</svg>
