<?xml version="1.0" standalone="no"?>
<!DOCTYPE svg PUBLIC "-//W3C//DTD SVG 1.1//EN" "http://www.w3.org/Graphics/SVG/1.1/DTD/svg11.dtd" >
<svg xmlns="http://www.w3.org/2000/svg" xmlns:xlink="http://www.w3.org/1999/xlink" version="1.1">
<metadata>
Created by FontForge 20170731 at Thu Jun  2 18:52:54 2022
 By Aleksey,,,
Copyright (c) 2015 by Context Ltd. All rights reserved.
</metadata>
<defs>
<font id="Repo" horiz-adv-x="1198" >
  <font-face 
    font-family="Repo"
    font-weight="400"
    font-stretch="normal"
    units-per-em="2048"
    panose-1="2 0 5 3 4 0 0 2 0 4"
    ascent="1638"
    descent="-410"
    x-height="1087"
    cap-height="1423"
    bbox="-1100 -567 2869 2458"
    underline-thickness="245"
    underline-position="-619"
    unicode-range="U+0009-FB04"
  />
<missing-glyph horiz-adv-x="1175" 
d="M199 147h860q-17 116 -82 207q-204 -27 -415 -83.5t-363 -123.5zM713 641q-165 -84 -296.5 -204.5t-260.5 -289.5q363 255 696 375q-74 77 -139 119zM141 152v-5q132 295 414 580q-79 36 -158 51q-146 -250 -256 -626zM102 0v1085h996v-1085h-996z" />
    <glyph glyph-name="f_f" unicode="ff" horiz-adv-x="1574" 
d="M836 1137q0 109 17.5 189.5t58.5 143t113 94t176 31.5q68 0 132 -14l-18 -125q-51 10 -96 10q-41 0 -73 -9.5t-54.5 -25t-38.5 -42.5t-26 -56t-15.5 -71t-8 -81.5t-2.5 -93.5h310v-122h-310v-969h-165v952l-158 17h-203v-969h-166v952l-157 17l-15 75l158 47l14 50
q0 87 11 155t36.5 126t67 96t105 59.5t146.5 21.5q68 0 132 -14l-19 -125q-51 10 -96 10q-57 0 -96.5 -18.5t-62.5 -48t-36 -81t-17 -102.5t-5 -129h309v-11l37 11z" />
    <glyph glyph-name="f_i" unicode="fi" horiz-adv-x="1282" 
d="M1151 1380q0 -56 -34 -89.5t-85 -33.5q-52 0 -85.5 33.5t-33.5 89.5t33.5 88.5t85.5 32.5q51 0 85 -33t34 -88zM1120 1069v-1077h-174v1077h174zM571 1597q147 0 226 -41l-35 -149q-81 35 -180 35q-64 0 -108 -14.5t-71 -40.5t-41 -74.5t-19 -103t-5 -140.5h418v-149
h-418v-928h-174v1175q0 430 407 430z" />
    <glyph glyph-name="f_l" unicode="fl" horiz-adv-x="1337" 
d="M1294 80l-34 -109q-84 10 -138 29.5t-95.5 60.5t-60 109t-18.5 170v1257h166v-1122q0 -85 2.5 -141t12.5 -98.5t20 -65.5t34.5 -41.5t46.5 -27t64 -21.5zM571 1597q147 0 226 -41l-35 -149q-81 35 -180 35q-64 0 -108 -14.5t-71 -40.5t-41 -74.5t-19 -103t-5 -140.5h418
v-149h-418v-928h-174v1175q0 430 407 430z" />
    <glyph glyph-name="f_f_i" unicode="ffi" horiz-adv-x="2064" 
d="M1354 1597q146 0 225 -41l-35 -149q-81 35 -180 35q-64 0 -108 -14.5t-71 -40.5t-41 -74.5t-19 -103t-5 -140.5h418v-149h-418v-928h-174v1175q0 430 408 430zM571 1597q80 0 141 -13.5t89 -29.5l-35 -149q-84 37 -184 37q-64 0 -108 -14.5t-71 -40.5t-41 -74.5t-19 -103
t-5 -140.5h418v-149h-418v-928h-174v1175q0 430 407 430zM1743 1125q-43 53 -43 137q0 59 23.5 104t60.5 68h59q86 -100 86 -256q-15 -41 -55 -65q33 -379 33 -615q0 -166 -6 -322q-40 -16 -86 -16q-24 0 -74 4q-19 397 -19 639q0 137 7 319q3 0 7.5 1t6.5 2z" />
    <glyph glyph-name="f_f_l" unicode="ffl" horiz-adv-x="2134" 
d="M2071 80l-35 -109q-84 10 -138 29.5t-95.5 60.5t-60 109t-18.5 170v1257h166v-1122q0 -85 2.5 -141t12.5 -98.5t20.5 -65.5t35 -41.5t46.5 -27t64 -21.5zM1354 1597q146 0 225 -41l-35 -149q-81 35 -180 35q-64 0 -108 -14.5t-71 -40.5t-41 -74.5t-19 -103t-5 -140.5h418
v-149h-418v-928h-174v1175q0 430 408 430zM571 1597q80 0 141 -13.5t89 -29.5l-35 -149q-84 37 -184 37q-64 0 -108 -14.5t-71 -40.5t-41 -74.5t-19 -103t-5 -140.5h418v-149h-418v-928h-174v1175q0 430 407 430z" />
    <glyph glyph-name=".notdef" horiz-adv-x="1175" 
d="M199 147h860q-17 116 -82 207q-204 -27 -415 -83.5t-363 -123.5zM713 641q-165 -84 -296.5 -204.5t-260.5 -289.5q363 255 696 375q-74 77 -139 119zM141 152v-5q132 295 414 580q-79 36 -158 51q-146 -250 -256 -626zM102 0v1085h996v-1085h-996z" />
    <glyph glyph-name=".null" horiz-adv-x="0" 
 />
    <glyph glyph-name=".null" horiz-adv-x="0" 
 />
    <glyph glyph-name="nonmarkingreturn" horiz-adv-x="682" 
 />
    <glyph glyph-name="CR" unicode="&#x9;" horiz-adv-x="471" 
 />
    <glyph glyph-name="space" unicode=" " horiz-adv-x="514" 
 />
    <glyph glyph-name="exclam" unicode="!" horiz-adv-x="438" 
d="M336 98q0 -50 -32.5 -82t-84.5 -32q-51 0 -84 32t-33 82t32.5 84.5t84.5 34.5t84.5 -33.5t32.5 -85.5zM307 1503l-6 -524q-1 -69 -4.5 -149.5t-7.5 -136t-11 -143.5t-10 -128h-100q-31 384 -33 557l-6 524q44 21 86 21q52 0 92 -21z" />
    <glyph glyph-name="quotedbl" unicode="&#x22;" horiz-adv-x="671" 
d="M569 1503q-18 -264 -47 -520h-86q-22 193 -47 520q44 21 90 21q50 0 90 -21zM283 1503q-26 -334 -47 -520h-86q-32 277 -48 520q40 21 91 21q46 0 90 -21z" />
    <glyph glyph-name="numbersign" unicode="#" horiz-adv-x="1349" 
d="M784 893h-292l-70 -354h295zM1139 893h-228l-65 -354h254v-115h-275l-77 -428h-130l78 428h-293l-81 -428h-127l79 426h-202v117h221l67 354h-249v115h272q13 69 37.5 204.5t36.5 204.5h129q-12 -69 -36.5 -204.5t-37.5 -204.5h293q58 315 76 409h129q-18 -93 -76 -409
h205v-115z" />
    <glyph glyph-name="dollar" unicode="$" horiz-adv-x="1157" 
d="M193 219q123 -76 284 -76q20 0 70 4q117 12 175 74t58 156q0 105 -67.5 163.5t-223.5 116.5q-276 105 -313 295q-8 46 -8 74q2 149 90 245.5t250 119.5q-4 158 -8 237h131q-4 -81 -8 -235q164 -6 272 -66q-18 -61 -39 -123q-126 62 -262 62q-124 0 -190 -59.5t-66 -168.5
q0 -44 14.5 -80t34.5 -59t61 -47t71.5 -37t88.5 -35q176 -67 261 -161.5t85 -231.5q0 -155 -95.5 -256t-260.5 -121q4 -176 8 -256h-133q4 84 8 252q-206 5 -336 82q5 14 22.5 59.5t25.5 71.5z" />
    <glyph glyph-name="percent" unicode="%" horiz-adv-x="1722" 
d="M580 1018q0 88 -13.5 158t-52.5 121t-100 51q-47 0 -81 -28.5t-52.5 -77.5t-26.5 -104t-8 -120q0 -64 8 -119t26.5 -103.5t52.5 -77t81 -28.5q46 0 80 28.5t52 77t26 103.5t8 119zM1481 401v13q0 62 -8.5 115t-26.5 99.5t-51.5 73.5t-79.5 27q-47 0 -81 -28t-51.5 -77.5
t-25.5 -104t-8 -118.5t8 -118.5t25.5 -103.5t51.5 -77t81 -28t81 28t51.5 77t25.5 103.5t8 118.5zM702 1018q0 -120 -30.5 -215t-97 -155t-160.5 -60q-95 0 -162 60t-98 155t-31 215q0 119 31 213.5t98 153.5t162 59q94 0 160.5 -59t97 -153.5t30.5 -213.5zM1257 1448
l-669 -1505l-135 18l671 1503zM1604 401q0 -89 -18 -165.5t-53 -135.5t-91 -93t-127 -34q-94 0 -160.5 58t-97.5 151t-31 211q0 122 29.5 217.5t96 156t163.5 60.5q94 0 160.5 -59t97.5 -153.5t31 -213.5z" />
    <glyph glyph-name="ampersand" unicode="&#x26;" horiz-adv-x="1345" 
d="M793 1139q0 83 -51.5 133.5t-139.5 50.5q-101 0 -153 -53.5t-52 -153.5q0 -159 152 -282q114 56 179 128.5t65 176.5zM246 375q0 -50 17.5 -96t52.5 -85.5t95.5 -63.5t139.5 -24q110 0 193.5 40.5t162.5 117.5l-420 445q-41 -22 -69 -39t-63.5 -47t-57 -62.5t-36.5 -80.5
t-15 -105zM94 371q0 265 312 415q-128 125 -146 248q-6 34 -6 62v20q3 156 97.5 245t248.5 89q155 0 245.5 -87t90.5 -220q0 -57 -19 -109t-46.5 -90t-72.5 -75.5t-83.5 -62.5t-91.5 -54l356 -371q81 136 106 317l140 -14q-50 -236 -144 -383q148 -158 230 -301h-166
q-74 116 -146 188q-202 -206 -450 -206q-99 0 -178.5 24t-130 62.5t-84.5 90t-48 104.5t-14 108z" />
    <glyph glyph-name="quotesingle" unicode="'" horiz-adv-x="493" 
d="M322 1475l-5 -117q-5 -154 -34 -397h-93q-33 265 -38 430q0 17 -5 84q36 20 84 20q55 0 91 -20z" />
    <glyph glyph-name="parenleft" unicode="(" horiz-adv-x="647" 
d="M651 -358l-104 -66q-196 247 -295.5 498t-99.5 524q0 527 395 1024l104 -66q-327 -437 -327 -958q0 -524 327 -956z" />
    <glyph glyph-name="parenright" unicode=")" horiz-adv-x="647" 
d="M539 598q0 -273 -100 -524t-298 -498l-102 66q326 431 326 956q0 523 -326 958q18 10 51 33t51 33q198 -247 298 -499t100 -525z" />
    <glyph glyph-name="asterisk" unicode="*" horiz-adv-x="974" 
d="M403 1419h166q0 -150 -39 -342q22 10 72.5 35.5t81 40t76.5 33.5t86 31l51 -158q-133 -46 -338 -70q12 -12 45.5 -45t51.5 -51.5t45 -47t49 -56t41 -54.5l-134 -98q-21 25 -39.5 53t-37.5 62t-31 57t-33.5 66l-30.5 61q-7 -13 -36 -71.5t-43 -85t-40 -69.5t-51 -75
l-135 100q26 37 67 83t69 74.5t96 96.5q-203 22 -336 70l49 158q36 -10 80 -28t74.5 -33t83 -41t77.5 -38q-37 189 -37 342z" />
    <glyph glyph-name="plus" unicode="+" horiz-adv-x="1157" 
d="M989 571h-364v-397h-138v397h-362v138h362v395h138v-395h364v-138z" />
    <glyph glyph-name="comma" unicode="," horiz-adv-x="520" 
d="M367 154q-47 -226 -199 -496l-111 31q83 206 115 417q2 12 5 38t5 38q23 4 56 11t52.5 9.5t39.5 2.5q22 0 32 -14t5 -37z" />
    <glyph glyph-name="hyphen" unicode="-" horiz-adv-x="638" 
d="M557 559h-475v133h475v-133z" />
    <glyph glyph-name="period" unicode="." horiz-adv-x="514" 
d="M371 98q0 -51 -33.5 -84.5t-85.5 -33.5t-86.5 33.5t-34.5 84.5q0 52 34.5 86.5t86.5 34.5t85.5 -34t33.5 -87z" />
    <glyph glyph-name="slash" unicode="/" horiz-adv-x="757" 
d="M823 1620l142 -25l-836 -2021l-139 27z" />
    <glyph glyph-name="zero" unicode="0" horiz-adv-x="1157" 
d="M831 707q0 92 -7 173t-26 163.5t-48.5 141t-79.5 95.5t-115 37q-54 0 -97.5 -25t-73 -70.5t-50 -102.5t-32 -128.5t-16.5 -139.5t-5 -144q0 -75 5 -142.5t16.5 -138t32 -127t50 -101.5t73 -69.5t97.5 -24.5q80 0 137 53t86 145t41 190.5t12 214.5zM1001 707
q0 -154 -25.5 -283.5t-77.5 -232.5t-139.5 -161.5t-203.5 -58.5q-115 0 -202.5 58.5t-139 161.5t-77 232.5t-25.5 283.5q0 123 15.5 230t49.5 201.5t84.5 161.5t126 105.5t168.5 38.5q116 0 203.5 -58t139.5 -161.5t77.5 -233.5t25.5 -284z" />
    <glyph glyph-name="one" unicode="1" horiz-adv-x="1157" 
d="M733 -4h-166v1190q-54 -40 -154.5 -81.5t-189.5 -60.5l-22 68l-11 51q282 62 428 254h115v-1421z" />
    <glyph glyph-name="two" unicode="2" horiz-adv-x="1157" 
d="M741 1057q0 246 -262 246h-14q-154 -7 -275 -97l-69 113q172 125 375 125q201 0 314.5 -102.5t113.5 -280.5q0 -185 -207 -418q-84 -95 -99 -113q-26 -33 -78 -95t-90 -109.5t-67 -89.5q-8 -18 -24 -49.5t-23 -47.5h620v-143h-837q13 74 18 102q11 48 35.5 99.5t48 89.5
t68 92t68.5 80.5t78.5 84t70.5 74.5l88 107q75 91 109.5 164.5t37.5 148.5v19z" />
    <glyph glyph-name="three" unicode="3" horiz-adv-x="1157" 
d="M776 399q0 72 -24.5 126.5t-63.5 87t-96.5 52t-114.5 26.5t-127 7v119q40 2 101 14q115 17 191.5 78.5t76.5 173.5q0 115 -71.5 169.5t-178.5 54.5q-155 0 -272 -76l-60 119q159 94 344 94q189 0 299.5 -93.5t110.5 -252.5q0 -63 -22.5 -117.5t-60 -92.5t-78 -64
t-83.5 -42v-2q59 -17 110 -45t97 -72.5t73 -113t27 -152.5q0 -192 -132 -309t-361 -117q-228 0 -357 76q27 72 46 131q45 -27 124 -48t172 -21q162 0 246 76.5t84 213.5z" />
    <glyph glyph-name="four" unicode="4" horiz-adv-x="1157" 
d="M709 1227q-19 -22 -26 -30.5t-28.5 -41.5t-60.5 -96q-190 -281 -346 -590h461v758zM1012 346h-144v-350h-159v350h-609v109q113 226 275 485t330 477h163v-948h144v-123z" />
    <glyph glyph-name="five" unicode="5" horiz-adv-x="1157" 
d="M963 403q0 -187 -130.5 -309.5t-359.5 -122.5q-111 0 -203.5 22t-146.5 52q2 9 41 133q49 -27 128.5 -48t170.5 -21q151 0 237 77.5t86 212.5q0 76 -23 133.5t-75 102t-142.5 67.5t-217.5 23q-78 0 -121 -4q36 332 55 696h660v-143h-527q-18 -278 -33 -426h50
q273 0 412 -120t139 -325z" />
    <glyph glyph-name="six" unicode="6" horiz-adv-x="1157" 
d="M834 418q0 313 -291 313q-116 0 -236 -49q-12 -71 -12 -152q4 -430 283 -430q89 0 148.5 47t83.5 116t24 155zM1004 418q0 -85 -26.5 -163.5t-77.5 -142.5t-134.5 -102.5t-187.5 -38.5q-218 0 -333.5 149t-115.5 417q0 145 30.5 270.5t85 218.5t125.5 166.5t155.5 121.5
t171.5 76t177 37q5 -25 14 -71t11 -56q-78 -13 -145 -34.5t-135.5 -61t-122 -92.5t-98 -132t-70.5 -177q106 49 233 49q210 0 326.5 -117.5t116.5 -316.5z" />
    <glyph glyph-name="seven" unicode="7" horiz-adv-x="1157" 
d="M1006 1417q-16 -49 -48.5 -146.5t-48.5 -146.5q-62 -83 -82 -123q-124 -246 -221.5 -524t-124.5 -481h-114q-13 1 -38 2t-38 2q76 313 220.5 660.5t299.5 611.5h-682v145h877z" />
    <glyph glyph-name="eight" unicode="8" horiz-adv-x="1157" 
d="M829 346q0 52 -14.5 93.5t-36.5 71t-66.5 59.5t-84.5 51t-111 53q-131 -69 -184 -145t-53 -183q0 -109 76 -178.5t200 -69.5q126 0 200 70t74 178zM801 1087q0 99 -64.5 166.5t-179.5 67.5q-112 0 -178 -67t-66 -169q0 -104 57.5 -169.5t217.5 -129.5q114 64 163.5 133
t49.5 168zM121 336q0 139 67 230t203 167q-128 71 -182.5 153.5t-54.5 190.5q0 161 114.5 264t286.5 103q178 0 286 -97.5t113 -242.5q4 -35 -4 -60q-16 -178 -235 -313q150 -81 215 -172.5t65 -206.5q0 -168 -122 -274.5t-318 -106.5q-186 0 -310 101t-124 264z" />
    <glyph glyph-name="nine" unicode="9" horiz-adv-x="1157" 
d="M817 877q0 96 -14.5 172t-46.5 136.5t-87.5 93t-131.5 32.5q-89 0 -149 -47t-84.5 -116t-24.5 -155q0 -311 292 -311q116 0 236 49q10 61 10 146zM985 870q0 -175 -44 -321t-117 -245.5t-171.5 -171t-204 -106.5t-217.5 -42q-2 6 -24 127q468 52 581 499
q-111 -51 -235 -51q-210 0 -326 117t-116 315q0 84 26.5 162.5t77.5 143.5t134.5 104t187.5 39q218 0 333 -150.5t115 -419.5z" />
    <glyph glyph-name="colon" unicode=":" horiz-adv-x="512" 
d="M371 98q0 -51 -33.5 -84.5t-85.5 -33.5t-86.5 33.5t-34.5 84.5q0 52 34.5 86.5t86.5 34.5t85.5 -34t33.5 -87zM371 838q0 -52 -33.5 -86.5t-85.5 -34.5t-86.5 35t-34.5 86q0 52 34 86t87 34q52 0 85.5 -33.5t33.5 -86.5z" />
    <glyph glyph-name="semicolon" unicode=";" horiz-adv-x="487" 
d="M367 154q-47 -226 -199 -496l-111 31q83 206 115 417q2 12 5 38t5 38q23 4 56 11t52.5 9.5t39.5 2.5q22 0 32 -14t5 -37zM377 838q0 -51 -34.5 -86t-86.5 -35t-86.5 35t-34.5 86q0 52 34 86t87 34t87 -34t34 -86z" />
    <glyph glyph-name="less" unicode="&#x3c;" horiz-adv-x="1157" 
d="M965 215q-168 71 -488.5 210t-353.5 153v129q130 55 411 177t431 185q4 -19 8 -41.5t8.5 -50.5t7.5 -43q-164 -68 -694 -293q127 -53 363 -153t331 -140q-4 -21 -12 -66t-12 -67z" />
    <glyph glyph-name="equal" unicode="=" horiz-adv-x="1157" 
d="M989 377h-864v133h864v-133zM989 903v-135h-864v135h864z" />
    <glyph glyph-name="greater" unicode="&#x3e;" horiz-adv-x="1157" 
d="M989 578q-119 -51 -403.5 -174.5t-438.5 -188.5q-20 106 -26 133q127 53 363 153t331 140q-443 190 -694 293q5 24 26 135q130 -55 411 -177t431 -185v-129z" />
    <glyph glyph-name="question" unicode="?" horiz-adv-x="798" 
d="M465 98q0 -50 -33 -82t-84 -32t-84 32t-33 82t32.5 84.5t84.5 34.5q51 0 84 -34t33 -85zM741 1122q0 -60 -18.5 -113.5t-48.5 -94.5t-66 -79.5t-72.5 -76.5t-67.5 -77.5t-51 -91t-22 -108.5q0 -17 -1 -83.5t-1 -75.5h-129q-18 115 -18 210q0 60 33.5 122.5t82 116.5
t96.5 107t81.5 112t33.5 114q0 96 -65.5 151.5t-169.5 55.5q-128 0 -229 -60l-46 113q48 30 129 52t166 22q187 0 285 -86.5t98 -229.5z" />
    <glyph glyph-name="at" unicode="@" horiz-adv-x="1935" 
d="M672 518q0 -53 9.5 -98.5t31 -87t63 -66t98.5 -24.5q116 0 205 73l47 455q0 59 -57 95t-127 36q-13 0 -37 -4q-111 -24 -172 -130t-61 -249zM1016 1335q-214 0 -383.5 -104.5t-265 -293.5t-95.5 -429q0 -149 43 -275.5t125.5 -222.5t215 -150.5t300.5 -54.5
q162 0 274.5 41t199.5 125q8 -29 28 -98q-181 -178 -502 -178q-251 0 -436 104t-280 286t-95 417q0 16 5 98q12 176 83 331.5t184 268t269 177.5t332 65q28 0 86 -4q269 -24 438.5 -210t169.5 -480q0 -142 -41.5 -270t-118.5 -217.5t-174 -115.5q-33 -8 -71 -8
q-115 0 -172 113q-58 -52 -138.5 -83.5t-160.5 -31.5q-146 0 -222.5 103.5t-76.5 271.5q0 71 17.5 142.5t53.5 137.5t85 117.5t117.5 82t145.5 30.5q63 0 120.5 -27.5t84.5 -68.5l17 77l106 -26l-65 -606q-5 -20 -5 -43q0 -52 31 -78.5t76 -26.5q63 0 115 54.5t82.5 138.5
t47.5 175.5t17 174.5q0 30 -4 70q-25 223 -177 362t-386 139z" />
    <glyph glyph-name="A" unicode="A" horiz-adv-x="1284" 
d="M879 532q-48 143 -185 525q-12 34 -25 74.5t-21 64.5t-15 37q-12 -18 -29 -78q-37 -110 -113 -323t-106 -300h494zM1243 -4h-186q-110 331 -137 407h-576q-93 -256 -141 -407h-170q336 949 528 1421h154q38 -93 74 -185.5t77 -201.5t69.5 -185t77 -209t71 -196
t80.5 -224.5t79 -219.5z" />
    <glyph glyph-name="B" unicode="B" horiz-adv-x="1302" 
d="M940 389q0 85 -29.5 142.5t-91 90t-143.5 45.5t-201 13h-139v-547q90 -22 205 -22q399 0 399 278zM885 1059q0 127 -91.5 188.5t-258.5 61.5q-4 0 -10 -1t-9 -1h-18q-87 0 -162 -21v-487h133q210 0 313 57t103 203zM1118 391q0 -207 -150 -309t-431 -102q-99 0 -201 15
t-170 42v1339q69 26 169 42t197 16q240 0 382.5 -93t142.5 -272q0 -124 -68.5 -204.5t-171.5 -112.5q58 -13 109.5 -41t95.5 -71.5t70 -107.5t26 -141z" />
    <glyph glyph-name="C" unicode="C" horiz-adv-x="1247" 
d="M739 1303q-112 0 -198 -48.5t-138.5 -133.5t-79 -192.5t-26.5 -232.5q3 -208 76 -356t213 -199q64 -24 139 -24h16q157 0 273 65l49 -129q-47 -33 -141.5 -57.5t-212.5 -24.5q-267 0 -430.5 202.5t-163.5 533.5q0 162 45.5 299.5t124.5 233.5t189.5 150t238.5 54
q117 0 205.5 -26.5t136.5 -61.5l-49 -129q-117 76 -267 76z" />
    <glyph glyph-name="D" unicode="D" horiz-adv-x="1447" 
d="M1034 717q0 282 -126 434t-373 152q-115 0 -195 -23v-1141q64 -22 195 -22q253 0 376 154.5t123 445.5zM1214 715q0 -348 -179.5 -541.5t-502.5 -193.5q-221 0 -366 55v1341q156 58 364 58q321 0 502.5 -186.5t181.5 -532.5z" />
    <glyph glyph-name="E" unicode="E" horiz-adv-x="1150" 
d="M944 -4h-778v1421h752v-135h-576v-479h514v-135h-514v-537h602v-135z" />
    <glyph glyph-name="F" unicode="F" horiz-adv-x="1081" 
d="M909 1282h-567v-483h508v-135h-508v-668h-176v1421h743v-135z" />
    <glyph glyph-name="G" unicode="G" horiz-adv-x="1359" 
d="M1139 45q-144 -74 -402 -74q-131 0 -243.5 47.5t-198 138t-134 233.5t-48.5 323q0 174 50.5 314.5t138 230.5t202 138t244.5 48q232 0 374 -88l-53 -129q-50 32 -129.5 52.5t-175.5 20.5h-8q-214 0 -337.5 -153.5t-123.5 -444.5q0 -278 122 -435.5t333 -157.5
q151 0 217 32v461h-140v141h312v-698z" />
    <glyph glyph-name="H" unicode="H" horiz-adv-x="1429" 
d="M1153 -4h-174v670h-637v-670h-176v1421h176v-616h637v616h174v-1421z" />
    <glyph glyph-name="I" unicode="I" horiz-adv-x="528" 
d="M344 -4h-174v1421h174v-1421z" />
    <glyph glyph-name="J" unicode="J" horiz-adv-x="1009" 
d="M590 250q0 -196 -90 -319t-273 -150q-20 -2 -57 -2q-111 0 -211 39q14 53 39 133q74 -21 121 -21q43 0 92 15q124 32 164.5 127.5t40.5 298.5v1046h174v-1167z" />
    <glyph glyph-name="K" unicode="K" horiz-adv-x="1251" 
d="M1124 -4h-123q-13 0 -38 1t-39 1q-126 192 -278.5 376.5t-301.5 325.5v-704h-174v1421h174v-643q364 403 551 643h197q-159 -191 -584 -665q161 -158 331.5 -366t284.5 -390z" />
    <glyph glyph-name="L" unicode="L" horiz-adv-x="1046" 
d="M891 -4h-721v1421h174v-1286h547v-135z" />
    <glyph glyph-name="M" unicode="M" horiz-adv-x="1779" 
d="M1565 -4h-172q-52 742 -95 1188q-4 0 -41 -113q-7 -21 -152 -415.5t-200 -559.5h-133q-51 162 -194 550.5t-156 424.5q-35 108 -39 113q-46 -477 -98 -1188h-162q85 958 139 1421h170q242 -616 365 -968q14 -39 28 -88.5t17 -55.5q3 0 10 21t18.5 58.5t20.5 61.5
q190 536 369 971h165q58 -497 140 -1421z" />
    <glyph glyph-name="N" unicode="N" horiz-adv-x="1466" 
d="M1227 -4h-90l-64 2q-230 403 -657 1044q-17 25 -39.5 63t-35.5 59.5t-17 21.5q0 -30 2 -210.5t2 -275.5v-704h-162v1421h164q367 -514 663 -1003q14 -24 33 -58t29 -51t16 -22q0 60 -2 285t-2 335v514h160v-1421z" />
    <glyph glyph-name="O" unicode="O" horiz-adv-x="1413" 
d="M1118 711q0 126 -24.5 232t-73.5 188.5t-129 129t-184 46.5t-184 -46.5t-129 -129t-74 -188.5t-25 -232t24.5 -232.5t73 -189t129 -129.5t185.5 -47t185.5 47t129 130t72.5 189t24 232zM1298 707q0 -338 -158.5 -537t-432.5 -199t-433 199t-159 537q0 336 159.5 536.5
t432.5 200.5q272 0 431.5 -200.5t159.5 -536.5z" />
    <glyph glyph-name="P" unicode="P" horiz-adv-x="1226" 
d="M893 999q0 158 -98 232t-271 74q-78 0 -186 -21v-592q20 0 56.5 -1t54.5 -1q9 0 28 -1t27 -1q197 0 293 76t96 235zM1069 997q0 -212 -141.5 -326t-415.5 -114q-8 0 -26 1t-27 1q-21 0 -61 1t-60 1v-565h-172v1380q156 58 358 58q270 0 407.5 -115t137.5 -322z" />
    <glyph glyph-name="Q" unicode="Q" horiz-adv-x="1589" 
d="M1118 711q0 101 -15 189t-47.5 163.5t-80 129t-116.5 84t-154 30.5q-105 0 -185 -46.5t-129 -129t-73.5 -188.5t-24.5 -232q0 -125 24.5 -230.5t73 -188.5t129 -130t185.5 -47q85 0 154.5 31t117 85.5t79.5 130t47 163t15 186.5zM1296 709q0 -266 -107 -448t-298 -253
q27 -56 86.5 -108t115.5 -83.5t140 -72.5l-82 -131q-73 37 -123.5 68t-110.5 77t-101.5 103.5t-63.5 124.5q-23 -4 -62 -4q-30 0 -92 8q-232 30 -358.5 223t-126.5 496q0 335 160 535t432 200q273 0 432 -200t159 -535z" />
    <glyph glyph-name="R" unicode="R" horiz-adv-x="1284" 
d="M889 999q0 77 -21.5 135t-55 91.5t-82.5 54t-95.5 27t-102.5 6.5q-117 0 -192 -27v-573h192q82 0 143 13t111.5 44.5t76.5 88.5t26 140zM1126 -4h-194q-256 432 -406 602h-186v-602h-170v1380q155 58 354 58q266 0 403.5 -111.5t137.5 -321.5q0 -161 -93.5 -264
t-260.5 -125v-2q160 -201 415 -614z" />
    <glyph glyph-name="S" unicode="S" horiz-adv-x="1077" 
d="M922 375q0 -187 -127 -295.5t-340 -108.5q-237 0 -379 88q8 24 25.5 69t25.5 69q134 -84 315 -84q143 0 221 65.5t78 190.5q0 48 -14.5 86.5t-37.5 66.5t-65 54.5t-83 45.5t-105 44q-281 112 -323 307q-11 43 -11 100q6 167 122.5 269t310.5 102q101 0 191 -25t144 -63
l-51 -127q-129 78 -278 78q-124 0 -194.5 -62t-70.5 -176q0 -56 20.5 -99t65 -76t86 -53.5t113.5 -49.5q190 -74 275.5 -172t85.5 -244z" />
    <glyph glyph-name="T" unicode="T" horiz-adv-x="1140" 
d="M954 1282h-366v-1286h-176v1286h-367v135h909v-135z" />
    <glyph glyph-name="U" unicode="U" horiz-adv-x="1400" 
d="M1130 465q0 -106 -30 -195.5t-89 -157t-152.5 -105.5t-213.5 -38q-209 0 -331 111.5t-142 292.5q-8 81 -8 190v854h172v-833q0 -236 72 -352.5t241 -116.5q119 0 202 71t101 201q11 108 11 197v833h167v-952z" />
    <glyph glyph-name="V" unicode="V" horiz-adv-x="1306" 
d="M1159 1417q-273 -843 -485 -1421h-88l-68 2q-224 616 -487 1419h188q170 -565 320 -1016q60 -188 61 -190q13 26 66 190q32 93 63.5 189.5t66.5 211t58 189.5t66.5 219.5t62.5 206.5h176z" />
    <glyph glyph-name="W" unicode="W" horiz-adv-x="1894" 
d="M1712 1417q-159 -798 -338 -1421h-166q-22 73 -84 273.5t-106.5 347t-85.5 292.5q-7 26 -16 64t-15 62t-10 36q-5 -11 -11.5 -35t-15 -61.5t-16.5 -65.5q-32 -113 -70.5 -242.5t-66.5 -218.5t-74.5 -236t-67.5 -216h-161q-167 565 -338 1421h180q93 -509 201 -991
q8 -33 18.5 -81t18 -81.5t12.5 -52.5q7 4 61 192q132 439 262 930h144q123 -479 262 -927q8 -26 21 -72.5t22 -75.5t16 -45q4 8 8.5 29.5t12 56.5t12.5 57q95 417 223 1061h168z" />
    <glyph glyph-name="X" unicode="X" horiz-adv-x="1183" 
d="M1124 -4h-123q-13 0 -37.5 1t-35.5 1q-106 216 -340 608q-238 -394 -346 -610h-183q59 116 139.5 254.5t138 233t157.5 253.5q-45 76 -127 214.5t-149.5 252.5t-125.5 213h195l307 -545h2q53 91 159.5 272.5t159.5 272.5h181l-406 -669q290 -468 434 -752z" />
    <glyph glyph-name="Y" unicode="Y" horiz-adv-x="1191" 
d="M1081 1417q-279 -533 -442 -813v-608h-174v606q-218 381 -442 815h194q185 -396 340 -672q142 255 346 672h178z" />
    <glyph glyph-name="Z" unicode="Z" horiz-adv-x="1161" 
d="M948 -4h-889v129q46 100 107 215t148 265t132.5 227.5t153 254.5t117.5 193h-625v137h838v-123q-48 -85 -190 -324t-265 -456t-203 -381h676v-137z" />
    <glyph glyph-name="bracketleft" unicode="[" horiz-adv-x="653" 
d="M616 -414h-438v2024h438v-117h-282v-1788h282v-119z" />
    <glyph glyph-name="backslash" unicode="\" horiz-adv-x="757" 
d="M971 -399q-69 -11 -146 -27q-140 337 -418 1009.5t-417 1009.5l139 27z" />
    <glyph glyph-name="bracketright" unicode="]" horiz-adv-x="653" 
d="M496 -414h-441v119h285v1788h-285v117h441v-2024z" />
    <glyph glyph-name="asciicircum" unicode="^" horiz-adv-x="1157" 
d="M1014 854q-61 -37 -96 -63q-17 25 -143.5 210t-192.5 283q-245 -360 -334 -493q-40 28 -98 63l309 479q36 56 84 94q67 0 123 -26q182 -293 348 -547z" />
    <glyph glyph-name="underscore" unicode="_" horiz-adv-x="1075" 
d="M1075 -391h-1075v133h1075v-133z" />
    <glyph glyph-name="grave" unicode="`" horiz-adv-x="481" 
d="M428 1180h-100l-297 372h221z" />
    <glyph glyph-name="a" unicode="a" horiz-adv-x="1054" 
d="M721 123v430q-87 6 -100 6q-20 0 -74 -4q-66 -8 -114.5 -23t-91 -42t-65 -72.5t-22.5 -108.5q0 -213 262 -213q119 0 205 27zM883 39q-60 -27 -163.5 -45.5t-221.5 -18.5q-196 0 -303 84t-107 248q0 88 35 155.5t99 110.5t146 67.5t185 33.5q7 0 21.5 1t21.5 1
q38 0 125 -6q-1 77 -11 129t-36 94.5t-75.5 63t-123.5 20.5q-154 0 -266 -57l-31 124q49 26 133.5 46t180.5 20q182 0 283.5 -91.5t105.5 -268.5q0 -19 1 -59.5t1 -61.5v-590z" />
    <glyph glyph-name="b" unicode="b" horiz-adv-x="1200" 
d="M858 547q0 91 -17.5 167t-54 136t-98 93.5t-143.5 33.5q-128 0 -223 -64v-784q79 -27 194 -27q167 0 254.5 118.5t87.5 326.5zM1030 549q0 -264 -137 -420t-377 -156q-216 0 -360 68v1556h166v-557q105 64 251 64q209 0 333 -152t124 -403z" />
    <glyph glyph-name="c" unicode="c" horiz-adv-x="954" 
d="M840 41q-41 -27 -113.5 -46.5t-157.5 -19.5q-217 0 -342 153t-125 413q0 261 126 415t337 154q160 0 264 -66q-7 -20 -20.5 -59.5t-20.5 -60.5q-85 49 -200 49q-157 0 -235.5 -113.5t-78.5 -316.5q0 -200 80 -315t242 -115q117 0 205 55z" />
    <glyph glyph-name="d" unicode="d" horiz-adv-x="1200" 
d="M809 133v793q-95 51 -199 51q-91 0 -158.5 -35t-105.5 -97.5t-56 -138.5t-18 -167q0 -201 88.5 -318t253.5 -117q135 0 195 29zM975 43q-144 -70 -367 -70q-236 0 -371 151t-135 406q0 262 131 417t353 155q114 0 223 -49v544h166v-1554z" />
    <glyph glyph-name="e" unicode="e" horiz-adv-x="1132" 
d="M823 645q-3 166 -71 250t-193 84q-128 0 -207.5 -100t-83.5 -277zM985 537l-713 -52q21 -374 353 -374q152 0 272 61l35 -129q-46 -28 -132 -48t-186 -20q-248 0 -380 147.5t-132 420.5q0 137 36.5 247t100 178.5t146 105t176.5 36.5q183 0 292.5 -108.5t127.5 -325.5
q4 -54 4 -139z" />
    <glyph glyph-name="f" unicode="f" horiz-adv-x="794" 
d="M188 1137q0 112 17.5 193t58.5 142.5t113 92t176 30.5q75 0 133 -14l-18 -125q-62 10 -97 10q-47 0 -82.5 -11.5t-59 -36t-38.5 -54.5t-23 -76.5t-10.5 -91.5t-3.5 -109h310v-122h-310v-969h-166v952h-163v139h163v50z" />
    <glyph glyph-name="g" unicode="g" horiz-adv-x="1179" 
d="M801 199v753q-66 29 -195 29q-162 0 -248 -118t-86 -318q0 -201 83.5 -305.5t226.5 -104.5q133 0 219 64zM965 20q0 -446 -461 -446q-200 0 -338 64q13 48 43 133q47 -25 121 -43t147 -19q154 0 232 72q94 70 94 223v68q-97 -62 -246 -62q-203 0 -329 139t-126 394
q0 254 133.5 409.5t372.5 155.5q209 0 357 -68v-1020z" />
    <glyph glyph-name="h" unicode="h" horiz-adv-x="1171" 
d="M973 -4h-166v584q0 57 -1.5 95.5t-7.5 83.5t-16.5 73.5t-29.5 57.5t-46 45t-66.5 26t-90.5 10q-63 0 -126 -14t-99 -35v-926h-168v1601h168v-553q125 58 241 58h8q79 0 141 -16t103.5 -40.5t71 -65t45.5 -79.5t25.5 -94t11.5 -97.5t2 -101.5v-612z" />
    <glyph glyph-name="i" unicode="i" horiz-adv-x="499" 
d="M328 -4h-166v1091h166v-1091zM352 1397q0 -47 -31 -77t-77 -30q-44 0 -75.5 30.5t-31.5 76.5t31.5 76t75.5 30q46 0 77 -29.5t31 -76.5z" />
    <glyph glyph-name="j" unicode="j" horiz-adv-x="499" 
d="M332 35q0 -190 -75.5 -298.5t-219.5 -135.5q-41 -13 -88 -13q-27 0 -39 2l12 115q129 21 184 97.5t58 224.5v1060h168v-1052zM354 1397q0 -47 -30.5 -77t-75.5 -30q-46 0 -76.5 30t-30.5 77t30.5 76.5t76.5 29.5q45 0 75.5 -29.5t30.5 -76.5z" />
    <glyph glyph-name="k" unicode="k" horiz-adv-x="1038" 
d="M977 -4h-193q-106 152 -231.5 303t-226.5 238v-541h-166v1601h166v-995q272 302 422 485h190q-61 -70 -135.5 -153t-179 -197.5t-140.5 -154.5q125 -122 259.5 -281t234.5 -305z" />
    <glyph glyph-name="l" unicode="l" horiz-adv-x="567" 
d="M508 80l-35 -109q-84 10 -138 29.5t-95 60.5t-59.5 109t-18.5 170v1257h166v-1122q0 -85 2.5 -141t12.5 -98.5t20 -65.5t34.5 -41.5t46.5 -27t64 -21.5z" />
    <glyph glyph-name="m" unicode="m" horiz-adv-x="1767" 
d="M1583 -4h-166v590q0 44 -0.5 71.5t-2.5 65.5t-6.5 61.5t-12.5 53t-19.5 47.5t-29 37t-39.5 29.5t-52 17t-67 6.5q-154 0 -252 -94q18 -144 18 -316v-569h-168v594q0 52 -1 85.5t-4.5 75t-10.5 67t-19 54.5t-30.5 46t-44 31.5t-60.5 21t-79 6.5q-134 0 -213 -33v-948h-168
v1042q174 70 395 70q212 0 313 -125q56 50 144 87.5t200 37.5q59 0 108 -10t85 -26t65 -43t47.5 -53t32 -64.5t20.5 -70t11 -76t5 -75.5t1 -76v-618z" />
    <glyph glyph-name="n" unicode="n" horiz-adv-x="1171" 
d="M973 -4h-166v590q0 50 -1 80t-4 72t-10.5 67.5t-19.5 56.5t-31.5 49t-46.5 35t-64.5 24t-84.5 7q-132 0 -221 -33v-948h-168v1038q151 74 407 74q80 0 143.5 -16t106 -41t73 -65.5t47.5 -79.5t26 -94t11.5 -97.5t2.5 -100.5v-618z" />
    <glyph glyph-name="o" unicode="o" 
d="M854 541q0 91 -16.5 168.5t-50 139.5t-90.5 97t-132 35q-76 0 -133.5 -35t-91.5 -97t-51 -139.5t-17 -168.5q0 -124 28.5 -218.5t96 -154t168.5 -59.5q100 0 166.5 60t94.5 154t28 218zM1024 541q0 -255 -122 -411.5t-337 -156.5q-217 0 -340 157t-123 411
q0 168 53.5 295.5t158.5 200.5t249 73q217 0 339 -156.5t122 -412.5z" />
    <glyph glyph-name="p" unicode="p" horiz-adv-x="1200" 
d="M858 545q0 207 -86 320.5t-254 113.5q-130 0 -196 -29v-794q107 -52 198 -52q171 0 254.5 117.5t83.5 323.5zM1030 549q0 -262 -130 -418t-355 -156q-129 0 -223 52v-441h-166v1452q148 70 366 70q235 0 371.5 -151t136.5 -408z" />
    <glyph glyph-name="q" unicode="q" horiz-adv-x="1200" 
d="M811 170v780q-66 29 -197 29q-164 0 -253 -118t-89 -329q0 -201 77.5 -314.5t240.5 -113.5q131 0 221 66zM975 -414h-164v453q-101 -64 -250 -64q-214 0 -336.5 150.5t-122.5 402.5q0 264 135.5 422t376.5 158q209 0 361 -68v-1454z" />
    <glyph glyph-name="r" unicode="r" horiz-adv-x="780" 
d="M686 1090q-9 -32 -37 -134q-61 17 -135 17h-31q-100 0 -159 -33v-944h-168v1036q136 64 319 72h27q91 0 184 -14z" />
    <glyph glyph-name="s" unicode="s" horiz-adv-x="892" 
d="M770 287q0 -138 -106.5 -225t-284.5 -87q-188 0 -303 68l43 133q32 -25 99 -45t153 -20q104 0 166.5 45t62.5 127q0 79 -49 121.5t-178 93.5q-141 58 -207 131t-66 180q0 131 96.5 216t256.5 85q165 0 274 -66q-35 -103 -41 -124q-100 59 -225 59q-90 0 -143.5 -43.5
t-53.5 -118.5q0 -73 50.5 -115.5t166.5 -89.5q150 -57 219.5 -132t69.5 -193z" />
    <glyph glyph-name="t" unicode="t" horiz-adv-x="825" 
d="M362 401q0 -159 36 -221.5t149 -62.5q71 0 125 28q1 -9 8.5 -55t9.5 -70q-69 -33 -170 -36h-4q-59 0 -106.5 13.5t-80 36t-56.5 58t-38 71.5t-22.5 85t-11.5 90.5t-4 95.5v524h-131v121h131v314h165v-306h306v-122h-306v-564z" />
    <glyph glyph-name="u" unicode="u" horiz-adv-x="1171" 
d="M958 51q-160 -76 -399 -76q-100 0 -173 24.5t-118 65.5t-72 105t-36.5 133.5t-9.5 161.5v622h167v-581q0 -82 5 -138t21 -108.5t43.5 -83.5t74 -49t112.5 -18q148 0 218 36v942h167v-1036z" />
    <glyph glyph-name="v" unicode="v" horiz-adv-x="1003" 
d="M954 1087q-146 -491 -379 -1091h-90q-10 0 -29.5 1t-29.5 1q-226 560 -381 1089h178q83 -321 244 -786q7 -22 15.5 -50.5t14.5 -46.5t9 -26q4 6 41 123q173 519 246 786h161z" />
    <glyph glyph-name="w" unicode="w" horiz-adv-x="1589" 
d="M1528 1087q-146 -559 -336 -1091h-145q-135 404 -224 717q-9 28 -17.5 73t-12.5 54q-103 -379 -256 -844h-148q-190 532 -336 1091h174q64 -288 213 -790q6 -21 12.5 -48t10.5 -42t8 -21l31 105q144 475 227 796h141q70 -316 220 -796q7 -20 16.5 -58.5t13.5 -46.5
q4 4 8 19t11 44.5t12 47.5q117 358 215 790h162z" />
    <glyph glyph-name="x" unicode="x" horiz-adv-x="1038" 
d="M948 -4h-180q-112 205 -274 459q-115 -164 -275 -459h-174q130 230 356 569l-196 309q-3 5 -133 213h186l240 -403h2q159 258 245 403h173q-196 -304 -328 -512q245 -373 358 -579z" />
    <glyph glyph-name="y" unicode="y" horiz-adv-x="1003" 
d="M950 1087q-200 -709 -372 -1159q-26 -67 -46.5 -108.5t-48 -80t-61 -56t-76.5 -17.5q-28 0 -53 4t-47.5 12t-36 14t-34 16.5t-25.5 13.5l32 106q5 -3 21 -12t21 -11.5t17.5 -8.5t18 -8t15 -5.5t17 -4.5t15.5 -1q22 0 41 13.5t31.5 30t25.5 47.5t19 49.5t16 52.5
q4 14 6 20q-239 564 -395 1093h178q83 -329 244 -772q44 -140 49 -151q4 2 11 26t18 64.5t16 58.5q76 235 221 774h162z" />
    <glyph glyph-name="z" unicode="z" horiz-adv-x="944" 
d="M819 -4h-753v100q61 117 150.5 267t220 358t151.5 242h-490v124h705v-104l-115 -174q-261 -392 -416 -690h547v-123z" />
    <glyph glyph-name="braceleft" unicode="{" horiz-adv-x="667" 
d="M645 -336q-72 0 -127.5 10t-95 27t-67.5 47.5t-45 64.5t-26.5 85t-12.5 101t-3 120v217q0 118 -40 177t-134 62v111q90 6 132 64t42 168v288q0 104 16 174t57.5 122t116 76t187.5 24v-115q-118 0 -169 -47t-54 -156v-362q0 -124 -38 -191t-114 -98q152 -57 152 -291v-362
q0 -108 53 -153.5t170 -45.5v-117z" />
    <glyph glyph-name="bar" unicode="|" horiz-adv-x="552" 
d="M328 -414h-150v2024h150v-2024z" />
    <glyph glyph-name="braceright" unicode="}" horiz-adv-x="667" 
d="M612 580q-90 -6 -132 -64.5t-42 -169.5v-289q0 -104 -16 -173t-57 -121t-115.5 -75.5t-188.5 -23.5v117q131 0 178.5 55t47.5 191v315q0 125 37 192.5t112 96.5v2q-75 31 -112 98t-37 191v252q0 75 -4 121t-17 87t-38 61.5t-65.5 32t-101.5 11.5v115q115 0 190 -24.5
t115.5 -77.5t56 -121.5t15.5 -172.5v-288q0 -225 174 -228v-110z" />
    <glyph glyph-name="asciitilde" unicode="~" horiz-adv-x="1157" 
d="M1034 721q-57 -211 -246 -223h-16q-43 0 -86 16t-79 39t-70.5 45.5t-73.5 38.5t-76 16h-12q-29 0 -55 -16.5t-44.5 -42t-30 -48.5t-18.5 -44q-10 6 -44.5 28.5t-53.5 32.5q14 44 30 77.5t43.5 68.5t70 55t98.5 22h12q54 0 110 -24t94.5 -52.5t88.5 -52.5t94 -24h14
q105 5 150 151z" />
    <glyph glyph-name="uni00A0" unicode="&#xa0;" horiz-adv-x="471" 
 />
    <glyph glyph-name="exclamdown" unicode="&#xa1;" horiz-adv-x="565" 
d="M412 899q0 -60 -34.5 -96.5t-96.5 -36.5q-59 0 -96.5 37.5t-37.5 95.5q0 57 37 94t97 37q59 0 95 -36.5t36 -94.5zM375 10v-397h-187v397q0 275 43 598h101q43 -323 43 -598z" />
    <glyph glyph-name="cent" unicode="&#xa2;" horiz-adv-x="1157" 
d="M592 -231v294q-192 34 -295.5 177t-103.5 354q0 210 107 357t292 182v294h162v-288q112 -3 233 -52l-45 -147q-107 47 -215 47h-20q-34 0 -84 -8q-248 -54 -248 -385q0 -149 62 -248t192 -127q58 -10 116 -10q127 2 228 49l31 -147q-31 -19 -104 -35.5t-146 -20.5v-286
h-162z" />
    <glyph glyph-name="sterling" unicode="&#xa3;" horiz-adv-x="1157" 
d="M508 958v-196h401v-148h-401v-28q-4 -272 -33 -441h608v-153h-809q53 304 56 588l2 34h-195v148h195v176q0 151 31.5 254.5t92.5 159.5t136.5 79t177.5 23q148 0 277 -61l-48 -154q-107 55 -239 55q-64 0 -109 -15.5t-78 -53t-49 -103.5t-16 -164z" />
    <glyph glyph-name="currency" unicode="&#xa4;" horiz-adv-x="1157" 
d="M813 702q0 113 -75.5 189t-182.5 76t-180.5 -76t-73.5 -189q0 -112 73.5 -187t180.5 -75t182.5 75.5t75.5 186.5zM1020 324l-88 -88l-154 153q-98 -72 -223 -72q-123 0 -223 74l-152 -155l-88 88l152 153q-74 96 -74 225q0 131 74 230q-26 24 -76.5 74t-75.5 75
q15 16 88 90l152 -153q101 72 223 72q127 0 223 -74q25 26 76.5 78t77.5 77l88 -90q-126 -125 -150 -151q70 -95 70 -228q0 -130 -70 -225q25 -25 75.5 -76t74.5 -77z" />
    <glyph glyph-name="yen" unicode="&#xa5;" horiz-adv-x="1157" 
d="M666 -8h-174v233h-330v137h330v218h-330v135h284q-251 395 -405 712h188q141 -308 353 -632q214 329 350 632h186q-126 -264 -411 -712h288v-135h-329v-218h329v-137h-329v-233z" />
    <glyph glyph-name="brokenbar" unicode="&#xa6;" horiz-adv-x="548" 
d="M190 819v793h168v-793h-168zM190 -387v793h168v-793h-168z" />
    <glyph glyph-name="section" unicode="&#xa7;" horiz-adv-x="997" 
d="M432 852q-76 -45 -120 -101.5t-44 -142.5q0 -45 16 -84t38 -66t59.5 -55t67.5 -44.5t77.5 -42.5t73.5 -42q75 42 119.5 102.5t44.5 133.5q0 57 -21.5 102.5t-60.5 78.5t-77.5 57t-91 53.5t-81.5 50.5zM575 1317q-86 0 -144 -39t-58 -113q0 -66 39 -113.5t143 -101.5
q5 -5 25 -20q93 -51 148.5 -88.5t101 -84.5t64.5 -102t19 -127q0 -100 -60 -181t-155 -138q131 -99 140 -229v-23q0 -137 -100.5 -219t-270.5 -82q-189 0 -305 72q14 45 43 116q99 -58 246 -61q113 0 174 55q55 37 55 105q0 65 -45 119.5t-166 113.5q-98 54 -157 93.5
t-105.5 89t-66 105t-19.5 128.5q0 191 217 326q-66 54 -92.5 109t-26.5 140q0 119 94 196t244 77q170 0 283 -64l-43 -116q-98 55 -222 57z" />
    <glyph glyph-name="dieresis" unicode="&#xa8;" horiz-adv-x="794" 
d="M698 1389q0 -52 -31 -83.5t-81 -31.5q-48 0 -79.5 31.5t-31.5 83.5t31.5 83t79.5 31q50 0 81 -31t31 -83zM319 1389q0 -52 -31 -83.5t-79 -31.5t-80.5 32t-32.5 83t32.5 82.5t80.5 31.5t79 -31t31 -83z" />
    <glyph glyph-name="copyright" unicode="&#xa9;" horiz-adv-x="1732" 
d="M1126 449l62 -68q-51 -49 -131 -81t-176 -32q-179 0 -298.5 124t-119.5 317q0 127 57.5 228t153.5 155.5t211 54.5q96 0 172.5 -34t124.5 -85l-64 -86q-95 92 -233 92q-128 0 -212.5 -91.5t-84.5 -233.5q0 -144 86.5 -237t218.5 -93q49 0 98 13t73 24.5t62 32.5z
M1485 707q0 141 -48.5 262t-131.5 203.5t-195.5 129t-239.5 46.5t-240 -47t-195.5 -129.5t-130.5 -203t-48 -261.5q0 -274 169.5 -453.5t444.5 -194.5q126 0 239 48t196 132t131.5 205.5t48.5 262.5zM1606 707q0 -166 -59.5 -309t-159.5 -240.5t-234.5 -153t-282.5 -55.5
q-149 0 -283.5 55.5t-235 153t-159.5 240.5t-59 309q0 132 38 251t106.5 210.5t160.5 158.5t202.5 102t229.5 35q198 0 365.5 -94t269 -269t101.5 -394z" />
    <glyph glyph-name="ordfeminine" unicode="&#xaa;" horiz-adv-x="811" 
d="M397 1452q76 0 130 -17.5t85.5 -46.5t49.5 -76.5t24 -95.5t6 -116v-404q-136 -32 -280 -32q-151 0 -236.5 59t-85.5 182q0 62 27 110t74.5 76t107 42t129.5 14q37 0 123 -14v18q0 37 -6 66t-22.5 56.5t-51 42.5t-84.5 15h-4q-114 0 -193 -26l-20 114q105 33 227 33z
M412 786q96 0 139 9v225q-83 10 -123 10q-192 0 -192 -117q0 -64 39 -95.5t137 -31.5z" />
    <glyph glyph-name="guillemotleft" unicode="&#xab;" horiz-adv-x="966" 
d="M510 250q-37 -26 -100 -64l-316 447q53 74 158 222t158 222q74 -45 100 -63l-248 -381q30 -45 248 -383zM893 250q-67 -44 -102 -64l-316 447q216 306 316 444q47 -27 102 -63l-252 -381z" />
    <glyph glyph-name="logicalnot" unicode="&#xac;" horiz-adv-x="1157" 
d="M989 197h-139v442h-725v131h864v-573z" />
    <glyph glyph-name="uni00AD" unicode="&#xad;" horiz-adv-x="598" 
d="M66 541v135h491v-135h-491z" />
    <glyph glyph-name="registered" unicode="&#xae;" horiz-adv-x="1734" 
d="M1071 907q0 62 -20 104.5t-55.5 62.5t-72.5 28t-83 8q-75 0 -125 -16v-373h125q110 0 170.5 41.5t60.5 144.5zM1227 256h-127q-174 290 -264 391h-121v-391h-111v895q97 39 232 39q172 0 261 -72.5t89 -208.5q0 -106 -60.5 -173.5t-169.5 -80.5q106 -134 271 -399z
M1485 707q0 141 -48.5 262t-131.5 203.5t-195.5 129t-239.5 46.5t-240 -47t-195.5 -129.5t-130.5 -203t-48 -261.5q0 -274 169.5 -453.5t444.5 -194.5q126 0 239 48t196 132t131.5 205.5t48.5 262.5zM1606 707q0 -166 -59.5 -309t-159.5 -240.5t-234.5 -153t-282.5 -55.5
q-149 0 -283.5 55.5t-235 153t-159.5 240.5t-59 309q0 132 38 251t106.5 210.5t160.5 158.5t202.5 102t229.5 35q198 0 365.5 -94t269 -269t101.5 -394z" />
    <glyph glyph-name="macron" unicode="&#xaf;" horiz-adv-x="770" 
d="M674 1313h-576v143h576v-143z" />
    <glyph glyph-name="degree" unicode="&#xb0;" horiz-adv-x="663" 
d="M565 1219q0 81 -53 133.5t-131 52.5t-131 -52.5t-53 -133.5q0 -82 53 -135.5t131 -53.5t131 53.5t53 135.5zM676 1219q0 -128 -86.5 -211.5t-208.5 -83.5t-207.5 83.5t-85.5 211.5t85 210t208 82t209 -82t86 -210z" />
    <glyph glyph-name="plusminus" unicode="&#xb1;" horiz-adv-x="1157" 
d="M104 0v141h949v-141h-949zM989 616h-364v-397h-138v397h-362v138h362v395h138v-395h364v-138z" />
    <glyph glyph-name="twosuperior" unicode="&#xb2;" horiz-adv-x="737" 
d="M598 1225q0 -43 -14 -82t-42.5 -73t-55.5 -59t-68 -57q-87 -69 -119.5 -112.5t-34.5 -77.5h371v-127h-537q-2 20 -2 51q0 30 6 58.5t13 50.5t24 48t27 41t35 41t35.5 36t41 37.5t39.5 35.5q40 33 54.5 45.5t38.5 39t32.5 51t8.5 53.5q0 104 -121 104q-99 0 -189 -84
l-71 105q108 108 270 108q126 0 192 -59t66 -174z" />
    <glyph glyph-name="threesuperior" unicode="&#xb3;" horiz-adv-x="737" 
d="M469 1077q158 -58 158 -219q-3 -105 -82.5 -171t-239.5 -66q-135 0 -231 47l35 125q99 -43 190 -43q99 0 139.5 31.5t40.5 88.5q0 70 -61 104t-156 34h-43v108h39q79 0 130.5 29t51.5 94q0 88 -110 88q-23 0 -37 -2q-85 0 -164 -51l-53 110q40 28 105 51t141 23
q133 0 195.5 -52.5t64.5 -145.5q0 -69 -27.5 -112t-85.5 -71z" />
    <glyph glyph-name="acute" unicode="&#xb4;" horiz-adv-x="589" 
d="M209 1223h-100l176 372h221z" />
    <glyph glyph-name="mu" unicode="&#xb5;" horiz-adv-x="1183" 
d="M973 47q-155 -67 -387 -67q-165 0 -271 86q7 -112 7 -285v-193h-166v1499h168v-745q25 -125 83.5 -179t174.5 -54q148 0 225 36v942h166v-1040z" />
    <glyph glyph-name="paragraph" unicode="&#xb6;" horiz-adv-x="1288" 
d="M492 1411h516v-1825h-140v1719h-245v-1719h-140v1016q-194 19 -303.5 124t-109.5 282q0 181 115.5 281t306.5 122z" />
    <glyph glyph-name="periodcentered" unicode="&#xb7;" horiz-adv-x="503" 
d="M367 651q0 -54 -33.5 -87.5t-87.5 -33.5q-53 0 -87 33.5t-34 87.5q0 51 34.5 86t86.5 35q53 0 87 -34.5t34 -86.5z" />
    <glyph glyph-name="cedilla" unicode="&#xb8;" horiz-adv-x="755" 
d="M436 -72q59 -28 90 -66t31 -95q0 -71 -52 -119.5t-169 -48.5q-103 0 -160 26l23 119q35 -17 118 -20q79 0 82 49q-3 21 -19.5 36.5t-35 24.5t-63.5 27q18 61 88 188h129q-52 -94 -62 -121z" />
    <glyph glyph-name="onesuperior" unicode="&#xb9;" horiz-adv-x="737" 
d="M147 1159l-28 96q63 26 142 78t130 107h101v-803h-146v606q-85 -49 -199 -84z" />
    <glyph glyph-name="ordmasculine" unicode="&#xba;" horiz-adv-x="962" 
d="M725 1026q0 143 -64 226t-180 83q-115 0 -180 -83.5t-65 -225.5q0 -141 65 -225t180 -84t179.5 83.5t64.5 225.5zM891 1026q0 -195 -115.5 -316.5t-294.5 -121.5t-294 121.5t-115 316.5t115.5 317.5t293.5 122.5t294 -122.5t116 -317.5z" />
    <glyph glyph-name="guillemotright" unicode="&#xbb;" horiz-adv-x="966" 
d="M535 633l-318 -447q-35 20 -102 64q42 64 126 191.5t126 191.5l-252 381q55 36 102 63l159 -222zM913 633l-315 -447q-35 20 -102 64q42 64 124.5 191.5t124.5 191.5l-249 381q55 36 102 63q47 -65 315 -444z" />
    <glyph glyph-name="onequarter" unicode="&#xbc;" horiz-adv-x="1812" 
d="M152 1159l-31 96q64 25 143.5 77.5t128.5 107.5h103v-803h-146v606q-82 -47 -198 -84zM1251 297h254v346q-63 -63 -135.5 -163.5t-118.5 -182.5zM379 -8l817 1435h176l-819 -1435h-174zM1640 297h105v-111h-105v-192h-137v192h-385v93q57 112 174 271t226 249h122v-502z
" />
    <glyph glyph-name="onehalf" unicode="&#xbd;" horiz-adv-x="1832" 
d="M1692 582q0 -43 -13.5 -81t-43.5 -73.5t-54.5 -58t-67.5 -58.5q-89 -70 -121 -112.5t-32 -77.5h369v-127h-535q-4 23 -4 51q0 30 6 59t13.5 51.5t24 48t27.5 41t35 40.5t36 36t40.5 37t38.5 35q48 40 70 60.5t42.5 56t20.5 74.5q0 102 -119 102q-100 0 -190 -84l-72 105
q114 110 273 110q126 0 191 -59.5t65 -175.5zM381 -8l807 1435h176l-807 -1435h-176zM147 1159l-28 96q63 26 142 78t130 107h101v-803h-146v606q-85 -49 -199 -84z" />
    <glyph glyph-name="threequarters" unicode="&#xbe;" horiz-adv-x="1824" 
d="M1264 297h254v346q-63 -62 -135 -161.5t-119 -184.5zM1653 297h104v-111h-104v-192h-137v192h-386v93q57 112 174 271t226 249h123v-502zM481 1077q160 -58 160 -219q-3 -105 -82.5 -171t-239.5 -66q-139 0 -231 47l33 125q99 -43 192 -43q99 0 140 31.5t41 88.5
q0 48 -35 79.5t-84.5 43t-112.5 11.5h-29v108q35 0 61 2t55 9t47.5 19t31.5 34t14 53q6 6 4 10q-1 52 -36 72t-97 20q-82 0 -170 -57l-53 110q105 74 246 74q133 0 195.5 -52.5t64.5 -145.5q0 -69 -28 -111.5t-87 -71.5zM449 -8l821 1435h174l-821 -1435h-174z" />
    <glyph glyph-name="questiondown" unicode="&#xbf;" horiz-adv-x="798" 
d="M590 952q0 -60 -35.5 -97.5t-95.5 -37.5t-96.5 37.5t-36.5 97.5q0 59 36.5 95t96.5 36t95.5 -36t35.5 -95zM236 -72q0 -88 62 -127t165 -39q130 0 260 68l51 -143q-58 -34 -145.5 -57t-182.5 -23q-110 0 -191 29t-123.5 76.5t-61.5 97.5t-19 104q0 78 36 150t87 127
t102 109.5t87 121.5t36 139q0 20 -2 45h144q10 -39 10 -86q0 -62 -23.5 -121t-58.5 -103t-75.5 -91t-75.5 -87t-58.5 -90t-23.5 -100z" />
    <glyph glyph-name="Agrave" unicode="&#xc0;" horiz-adv-x="1335" 
d="M672 1530h-101l-297 373h222zM879 532q-48 143 -185 525q-12 34 -25 74.5t-21 64.5t-15 37q-12 -18 -29 -78q-37 -110 -113 -323t-106 -300h494zM1243 -4h-186q-110 331 -137 407h-576q-93 -256 -141 -407h-170q336 949 528 1421h154q38 -93 74 -185.5t77 -201.5
t69.5 -185t77 -209t71 -196t80.5 -224.5t79 -219.5z" />
    <glyph glyph-name="Aacute" unicode="&#xc1;" horiz-adv-x="1335" 
d="M676 1577h-101l177 373h221zM879 532q-48 143 -185 525q-12 34 -25 74.5t-21 64.5t-15 37q-12 -18 -29 -78q-37 -110 -113 -323t-106 -300h494zM1243 -4h-186q-110 331 -137 407h-576q-93 -256 -141 -407h-170q336 949 528 1421h154q38 -93 74 -185.5t77 -201.5
t69.5 -185t77 -209t71 -196t80.5 -224.5t79 -219.5z" />
    <glyph glyph-name="Acircumflex" unicode="&#xc2;" horiz-adv-x="1335" 
d="M627 1704l-215 -191l-76 86l291 308l286 -308l-73 -86zM879 532q-48 143 -185 525q-12 34 -25 74.5t-21 64.5t-15 37q-12 -18 -29 -78q-37 -110 -113 -323t-106 -300h494zM1243 -4h-186q-110 331 -137 407h-576q-93 -256 -141 -407h-170q336 949 528 1421h154
q38 -93 74 -185.5t77 -201.5t69.5 -185t77 -209t71 -196t80.5 -224.5t79 -219.5z" />
    <glyph glyph-name="Atilde" unicode="&#xc3;" horiz-adv-x="1335" 
d="M754 1550q-46 0 -100 20t-97.5 40t-64.5 20q-36 0 -59.5 -24.5t-49.5 -71.5l-102 55q12 31 30 59.5t44 58t62 47.5t77 18q50 0 104 -20t96 -40t62 -20q36 0 59 24.5t49 71.5l99 -55q-14 -29 -33.5 -57t-46 -58.5t-60.5 -49t-69 -18.5zM879 532q-48 143 -185 525
q-12 34 -25 74.5t-21 64.5t-15 37q-12 -18 -29 -78q-37 -110 -113 -323t-106 -300h494zM1243 -4h-186q-110 331 -137 407h-576q-93 -256 -141 -407h-170q336 949 528 1421h154q38 -93 74 -185.5t77 -201.5t69.5 -185t77 -209t71 -196t80.5 -224.5t79 -219.5z" />
    <glyph glyph-name="Adieresis" unicode="&#xc4;" horiz-adv-x="1335" 
d="M920 1690q0 -52 -31.5 -83.5t-81.5 -31.5q-48 0 -79.5 31.5t-31.5 83.5t31.5 83t79.5 31q50 0 81.5 -31t31.5 -83zM541 1690q0 -52 -31.5 -83.5t-79.5 -31.5t-80.5 32t-32.5 83t32.5 82.5t80.5 31.5t79.5 -31t31.5 -83zM879 532q-48 143 -185 525q-12 34 -25 74.5
t-21 64.5t-15 37q-12 -18 -29 -78q-37 -110 -113 -323t-106 -300h494zM1243 -4h-186q-110 331 -137 407h-576q-93 -256 -141 -407h-170q336 949 528 1421h154q38 -93 74 -185.5t77 -201.5t69.5 -185t77 -209t71 -196t80.5 -224.5t79 -219.5z" />
    <glyph glyph-name="Aring" unicode="&#xc5;" horiz-adv-x="1335" 
d="M727 1753q0 51 -29 80t-75 29q-45 0 -75 -29t-30 -80q0 -52 30 -80t75 -28q46 0 75 28t29 80zM834 1753q0 -94 -61 -152.5t-150 -58.5q-88 0 -149.5 58t-61.5 153q0 94 61.5 151.5t149.5 57.5q89 0 150 -58t61 -151zM879 532q-48 143 -185 525q-12 34 -25 74.5t-21 64.5
t-15 37q-12 -18 -29 -78q-37 -110 -113 -323t-106 -300h494zM1243 -4h-186q-110 331 -137 407h-576q-93 -256 -141 -407h-170q336 949 528 1421h154q38 -93 74 -185.5t77 -201.5t69.5 -185t77 -209t71 -196t80.5 -224.5t79 -219.5z" />
    <glyph glyph-name="AE" unicode="&#xc6;" horiz-adv-x="1896" 
d="M948 528v719q-228 -317 -356 -532l-113 -187h469zM1827 -8h-879v381h-553q-123 -209 -205 -381h-192q380 743 885 1435h891v-157h-646v-447h572v-155h-572v-518h699v-158z" />
    <glyph glyph-name="Ccedilla" unicode="&#xc7;" horiz-adv-x="1257" 
d="M786 -98q52 -29 78.5 -62t26.5 -82q0 -66 -53 -112.5t-164 -46.5q-105 0 -162 26l23 119q54 -23 129 -23q67 3 67 50q0 22 -15.5 38t-33 24t-66.5 28q6 20 48 110q-251 36 -400 229t-149 511q0 175 54.5 318.5t148 236t214.5 142.5t256 50q145 0 253.5 -32.5t160.5 -67.5
l-57 -156q-158 92 -334 92q-241 0 -373.5 -157.5t-132.5 -425.5q0 -272 127.5 -429t362.5 -157q217 0 368 82l51 -154q-44 -31 -158.5 -60t-262.5 -30q0 -26 -7 -61z" />
    <glyph glyph-name="Egrave" unicode="&#xc8;" horiz-adv-x="1150" 
d="M610 1530h-100l-297 373h221zM944 -4h-778v1421h752v-135h-576v-479h514v-135h-514v-537h602v-135z" />
    <glyph glyph-name="Eacute" unicode="&#xc9;" horiz-adv-x="1150" 
d="M616 1577h-100l176 373h221zM944 -4h-778v1421h752v-135h-576v-479h514v-135h-514v-537h602v-135z" />
    <glyph glyph-name="Ecircumflex" unicode="&#xca;" horiz-adv-x="1150" 
d="M565 1704l-215 -191l-76 86l291 308l287 -308l-74 -86zM944 -4h-778v1421h752v-135h-576v-479h514v-135h-514v-537h602v-135z" />
    <glyph glyph-name="Edieresis" unicode="&#xcb;" horiz-adv-x="1150" 
d="M860 1690q0 -52 -31 -83.5t-81 -31.5q-48 0 -79.5 31.5t-31.5 83.5t31.5 83t79.5 31q50 0 81 -31t31 -83zM481 1690q0 -52 -31 -83.5t-79 -31.5t-80.5 32t-32.5 83t32.5 82.5t80.5 31.5t79 -31t31 -83zM944 -4h-778v1421h752v-135h-576v-479h514v-135h-514v-537h602v-135
z" />
    <glyph glyph-name="Igrave" unicode="&#xcc;" horiz-adv-x="528" 
d="M301 1530h-100l-297 373h221zM344 -4h-174v1421h174v-1421z" />
    <glyph glyph-name="Iacute" unicode="&#xcd;" horiz-adv-x="528" 
d="M307 1577h-100l176 373h221zM344 -4h-174v1421h174v-1421z" />
    <glyph glyph-name="Icircumflex" unicode="&#xce;" horiz-adv-x="528" 
d="M256 1704l-215 -191l-76 86l291 308l287 -308l-74 -86zM344 -4h-174v1421h174v-1421z" />
    <glyph glyph-name="Idieresis" unicode="&#xcf;" horiz-adv-x="528" 
d="M551 1690q0 -52 -31.5 -83.5t-81.5 -31.5q-48 0 -79 31.5t-31 83.5t31 83t79 31q50 0 81.5 -31t31.5 -83zM172 1690q0 -52 -31.5 -83.5t-79.5 -31.5t-80 31.5t-32 83.5q0 51 32 82.5t80 31.5t79.5 -31t31.5 -83zM344 -4h-174v1421h174v-1421z" />
    <glyph glyph-name="Eth" unicode="&#xd0;" horiz-adv-x="1474" 
d="M383 668v-518q104 -13 201 -13q286 0 435.5 152t149.5 422q0 269 -149 420t-436 151q-105 0 -201 -12v-455h268v-147h-268zM1360 711q0 -180 -57.5 -320.5t-163 -230.5t-250.5 -136.5t-322 -46.5q-206 0 -366 39v652h-164v147h164v586q147 39 366 39q178 0 322 -45.5
t250 -134t163.5 -228.5t57.5 -321z" />
    <glyph glyph-name="Ntilde" unicode="&#xd1;" horiz-adv-x="1466" 
d="M862 1622q-46 0 -100 19.5t-97.5 39t-64.5 19.5q-34 0 -58.5 -25t-49.5 -71l-103 55q13 32 30.5 60.5t44 57.5t63 46.5t77.5 17.5q50 0 103.5 -19.5t95 -39t61.5 -19.5q36 0 60 24.5t49 70.5l98 -56q-15 -28 -33.5 -55.5t-45.5 -57.5t-61 -48.5t-69 -18.5zM1227 -4h-90
l-64 2q-230 403 -657 1044q-17 25 -39.5 63t-35.5 59.5t-17 21.5q0 -30 2 -210.5t2 -275.5v-704h-162v1421h164q367 -514 663 -1003q14 -24 33 -58t29 -51t16 -22q0 60 -2 285t-2 335v514h160v-1421z" />
    <glyph glyph-name="Ograve" unicode="&#xd2;" horiz-adv-x="1413" 
d="M756 1587h-101l-297 373h222zM1118 711q0 126 -24.5 232t-73.5 188.5t-129 129t-184 46.5t-184 -46.5t-129 -129t-74 -188.5t-25 -232t24.5 -232.5t73 -189t129 -129.5t185.5 -47t185.5 47t129 130t72.5 189t24 232zM1298 707q0 -338 -158.5 -537t-432.5 -199t-433 199
t-159 537q0 336 159.5 536.5t432.5 200.5q272 0 431.5 -200.5t159.5 -536.5z" />
    <glyph glyph-name="Oacute" unicode="&#xd3;" horiz-adv-x="1413" 
d="M762 1632h-100l176 373h221zM1118 711q0 126 -24.5 232t-73.5 188.5t-129 129t-184 46.5t-184 -46.5t-129 -129t-74 -188.5t-25 -232t24.5 -232.5t73 -189t129 -129.5t185.5 -47t185.5 47t129 130t72.5 189t24 232zM1298 707q0 -338 -158.5 -537t-432.5 -199t-433 199
t-159 537q0 336 159.5 536.5t432.5 200.5q272 0 431.5 -200.5t159.5 -536.5z" />
    <glyph glyph-name="Ocircumflex" unicode="&#xd4;" horiz-adv-x="1413" 
d="M711 1759l-215 -190l-76 86l291 307l286 -307l-73 -86zM1118 711q0 126 -24.5 232t-73.5 188.5t-129 129t-184 46.5t-184 -46.5t-129 -129t-74 -188.5t-25 -232t24.5 -232.5t73 -189t129 -129.5t185.5 -47t185.5 47t129 130t72.5 189t24 232zM1298 707
q0 -338 -158.5 -537t-432.5 -199t-433 199t-159 537q0 336 159.5 536.5t432.5 200.5q272 0 431.5 -200.5t159.5 -536.5z" />
    <glyph glyph-name="Otilde" unicode="&#xd5;" horiz-adv-x="1413" 
d="M831 1606q-46 0 -100 20t-97.5 40t-64.5 20q-19 0 -35 -7.5t-29.5 -23.5t-22 -29.5t-21.5 -36.5l-103 56q12 31 30 59.5t44 58t62 47t77 17.5q50 0 104 -20t96.5 -40t62.5 -20q36 0 59 24.5t49 71.5l98 -55q-14 -29 -33.5 -57t-46 -58t-60.5 -48.5t-69 -18.5zM1118 711
q0 126 -24.5 232t-73.5 188.5t-129 129t-184 46.5t-184 -46.5t-129 -129t-74 -188.5t-25 -232t24.5 -232.5t73 -189t129 -129.5t185.5 -47t185.5 47t129 130t72.5 189t24 232zM1298 707q0 -338 -158.5 -537t-432.5 -199t-433 199t-159 537q0 336 159.5 536.5t432.5 200.5
q272 0 431.5 -200.5t159.5 -536.5z" />
    <glyph glyph-name="Odieresis" unicode="&#xd6;" horiz-adv-x="1413" 
d="M1006 1745q0 -52 -31.5 -83.5t-81.5 -31.5q-48 0 -79.5 31.5t-31.5 83.5t31.5 83.5t79.5 31.5q50 0 81.5 -31.5t31.5 -83.5zM627 1745q0 -52 -31.5 -83.5t-79.5 -31.5t-80.5 32t-32.5 83t32.5 83t80.5 32t79.5 -31.5t31.5 -83.5zM1118 711q0 126 -24.5 232t-73.5 188.5
t-129 129t-184 46.5t-184 -46.5t-129 -129t-74 -188.5t-25 -232t24.5 -232.5t73 -189t129 -129.5t185.5 -47t185.5 47t129 130t72.5 189t24 232zM1298 707q0 -338 -158.5 -537t-432.5 -199t-433 199t-159 537q0 336 159.5 536.5t432.5 200.5q272 0 431.5 -200.5
t159.5 -536.5z" />
    <glyph glyph-name="multiply" unicode="&#xd7;" horiz-adv-x="1157" 
d="M164 911l106 107l308 -311l309 311l104 -107l-309 -307l309 -309l-104 -105l-309 310l-308 -310l-106 105l311 309z" />
    <glyph glyph-name="Oslash" unicode="&#xd8;" horiz-adv-x="1589" 
d="M1284 711q0 229 -100 374l-672 -870q116 -90 283 -90q225 0 357 158t132 428zM305 711q0 -236 105 -381q99 128 323.5 420t347.5 450q-119 94 -286 94q-225 0 -357.5 -156.5t-132.5 -426.5zM1475 711q0 -180 -54 -324.5t-147.5 -236.5t-215.5 -140.5t-263 -48.5
q-219 0 -389 117l-125 -162l-123 90l133 172q-176 195 -176 533q0 179 54.5 323.5t148.5 235.5t216 139.5t261 48.5q224 0 391 -121l131 168l123 -92l-140 -178q175 -197 175 -524z" />
    <glyph glyph-name="Ugrave" unicode="&#xd9;" horiz-adv-x="1400" 
d="M705 1530h-101l-297 373h221zM1130 465q0 -106 -30 -195.5t-89 -157t-152.5 -105.5t-213.5 -38q-209 0 -331 111.5t-142 292.5q-8 81 -8 190v854h172v-833q0 -236 72 -352.5t241 -116.5q119 0 202 71t101 201q11 108 11 197v833h167v-952z" />
    <glyph glyph-name="Uacute" unicode="&#xda;" horiz-adv-x="1400" 
d="M711 1577h-101l176 373h222zM1130 465q0 -106 -30 -195.5t-89 -157t-152.5 -105.5t-213.5 -38q-209 0 -331 111.5t-142 292.5q-8 81 -8 190v854h172v-833q0 -236 72 -352.5t241 -116.5q119 0 202 71t101 201q11 108 11 197v833h167v-952z" />
    <glyph glyph-name="Ucircumflex" unicode="&#xdb;" horiz-adv-x="1400" 
d="M659 1704l-215 -191l-75 86l290 308l287 -308l-74 -86zM1130 465q0 -106 -30 -195.5t-89 -157t-152.5 -105.5t-213.5 -38q-209 0 -331 111.5t-142 292.5q-8 81 -8 190v854h172v-833q0 -236 72 -352.5t241 -116.5q119 0 202 71t101 201q11 108 11 197v833h167v-952z" />
    <glyph glyph-name="Udieresis" unicode="&#xdc;" horiz-adv-x="1400" 
d="M954 1690q0 -52 -31 -83.5t-81 -31.5q-48 0 -79.5 31.5t-31.5 83.5t31.5 83t79.5 31q50 0 81 -31t31 -83zM575 1690q0 -52 -31 -83.5t-79 -31.5t-80.5 32t-32.5 83t32.5 82.5t80.5 31.5t79 -31t31 -83zM1130 465q0 -106 -30 -195.5t-89 -157t-152.5 -105.5t-213.5 -38
q-209 0 -331 111.5t-142 292.5q-8 81 -8 190v854h172v-833q0 -236 72 -352.5t241 -116.5q119 0 202 71t101 201q11 108 11 197v833h167v-952z" />
    <glyph glyph-name="Yacute" unicode="&#xdd;" horiz-adv-x="1191" 
d="M612 1577h-100l176 373h221zM1081 1417q-279 -533 -442 -813v-608h-174v606q-218 381 -442 815h194q185 -396 340 -672q142 255 346 672h178z" />
    <glyph glyph-name="Thorn" unicode="&#xde;" horiz-adv-x="1228" 
d="M553 1034q-127 0 -199 -10v-582h158q113 0 193 13t143.5 45t95 92t31.5 149q0 293 -422 293zM354 1427v-243q78 10 197 10q301 0 456.5 -116.5t155.5 -338.5q0 -240 -163 -348t-474 -108h-172v-291h-182v1435h182z" />
    <glyph glyph-name="germandbls" unicode="&#xdf;" horiz-adv-x="1239" 
d="M776 121q105 0 164 45.5t59 136.5q0 77 -45 125t-161 109q-138 70 -183 120t-45 138q0 47 21.5 92.5t43.5 71.5t70 77q7 8 26.5 28.5t25.5 27t20.5 23.5t19 25.5t13.5 24t11.5 27t5.5 28t3 33.5q0 85 -59 138t-158 53q-272 0 -272 -303v-1149h-172v1173q5 198 120 315
t310 117q203 0 303 -89.5t100 -241.5q0 -21 -3 -41t-7 -37t-12.5 -35.5t-14.5 -31t-18.5 -30t-18.5 -26t-21 -25.5t-20 -22t-20.5 -21t-17.5 -18q-59 -59 -81 -93t-22 -75q0 -12 2.5 -23t8.5 -21t11 -17t16.5 -16t18 -14t22 -13.5t22 -12t25 -12.5t24.5 -12q59 -30 93 -49.5
t76 -52.5t63.5 -67t37 -84.5t15.5 -113.5q0 -161 -106 -248.5t-302 -87.5q-152 0 -272 58l14 67q13 62 20 88q110 -57 246 -59z" />
    <glyph glyph-name="agrave" unicode="&#xe0;" horiz-adv-x="1054" 
d="M569 1210h-100l-297 373h221zM721 123v430q-87 6 -100 6q-20 0 -74 -4q-66 -8 -114.5 -23t-91 -42t-65 -72.5t-22.5 -108.5q0 -213 262 -213q119 0 205 27zM883 39q-60 -27 -163.5 -45.5t-221.5 -18.5q-196 0 -303 84t-107 248q0 88 35 155.5t99 110.5t146 67.5t185 33.5
q7 0 21.5 1t21.5 1q38 0 125 -6q-1 77 -11 129t-36 94.5t-75.5 63t-123.5 20.5q-154 0 -266 -57l-31 124q49 26 133.5 46t180.5 20q182 0 283.5 -91.5t105.5 -268.5q0 -19 1 -59.5t1 -61.5v-590z" />
    <glyph glyph-name="aacute" unicode="&#xe1;" horiz-adv-x="1054" 
d="M563 1268h-100l176 372h221zM721 123v430q-87 6 -100 6q-20 0 -74 -4q-66 -8 -114.5 -23t-91 -42t-65 -72.5t-22.5 -108.5q0 -213 262 -213q119 0 205 27zM883 39q-60 -27 -163.5 -45.5t-221.5 -18.5q-196 0 -303 84t-107 248q0 88 35 155.5t99 110.5t146 67.5t185 33.5
q7 0 21.5 1t21.5 1q38 0 125 -6q-1 77 -11 129t-36 94.5t-75.5 63t-123.5 20.5q-154 0 -266 -57l-31 124q49 26 133.5 46t180.5 20q182 0 283.5 -91.5t105.5 -268.5q0 -19 1 -59.5t1 -61.5v-590z" />
    <glyph glyph-name="acircumflex" unicode="&#xe2;" horiz-adv-x="1054" 
d="M524 1384l-215 -190l-76 86l291 307l287 -307l-74 -86zM721 123v430q-87 6 -100 6q-20 0 -74 -4q-66 -8 -114.5 -23t-91 -42t-65 -72.5t-22.5 -108.5q0 -213 262 -213q119 0 205 27zM883 39q-60 -27 -163.5 -45.5t-221.5 -18.5q-196 0 -303 84t-107 248q0 88 35 155.5
t99 110.5t146 67.5t185 33.5q7 0 21.5 1t21.5 1q38 0 125 -6q-1 77 -11 129t-36 94.5t-75.5 63t-123.5 20.5q-154 0 -266 -57l-31 124q49 26 133.5 46t180.5 20q182 0 283.5 -91.5t105.5 -268.5q0 -19 1 -59.5t1 -61.5v-590z" />
    <glyph glyph-name="atilde" unicode="&#xe3;" horiz-adv-x="1054" 
d="M645 1229q-46 0 -100 20t-97.5 40t-64.5 20q-36 0 -59.5 -25t-49.5 -72l-102 56q12 31 30 59.5t44 58t62 47t77 17.5q50 0 104 -20t96 -40t62 -20q36 0 59.5 24.5t49.5 71.5l98 -55q-14 -29 -33.5 -57t-46 -58t-60.5 -48.5t-69 -18.5zM721 123v430q-87 6 -100 6
q-20 0 -74 -4q-66 -8 -114.5 -23t-91 -42t-65 -72.5t-22.5 -108.5q0 -213 262 -213q119 0 205 27zM883 39q-60 -27 -163.5 -45.5t-221.5 -18.5q-196 0 -303 84t-107 248q0 88 35 155.5t99 110.5t146 67.5t185 33.5q7 0 21.5 1t21.5 1q38 0 125 -6q-1 77 -11 129t-36 94.5
t-75.5 63t-123.5 20.5q-154 0 -266 -57l-31 124q49 26 133.5 46t180.5 20q182 0 283.5 -91.5t105.5 -268.5q0 -19 1 -59.5t1 -61.5v-590z" />
    <glyph glyph-name="adieresis" unicode="&#xe4;" horiz-adv-x="1054" 
d="M819 1370q0 -52 -31 -83.5t-81 -31.5q-48 0 -79.5 31.5t-31.5 83.5t31.5 83.5t79.5 31.5q50 0 81 -31.5t31 -83.5zM440 1370q0 -52 -31 -83.5t-79 -31.5t-80.5 32t-32.5 83t32.5 83t80.5 32t79 -31.5t31 -83.5zM721 123v430q-87 6 -100 6q-20 0 -74 -4q-66 -8 -114.5 -23
t-91 -42t-65 -72.5t-22.5 -108.5q0 -213 262 -213q119 0 205 27zM883 39q-60 -27 -163.5 -45.5t-221.5 -18.5q-196 0 -303 84t-107 248q0 88 35 155.5t99 110.5t146 67.5t185 33.5q7 0 21.5 1t21.5 1q38 0 125 -6q-1 77 -11 129t-36 94.5t-75.5 63t-123.5 20.5
q-154 0 -266 -57l-31 124q49 26 133.5 46t180.5 20q182 0 283.5 -91.5t105.5 -268.5q0 -19 1 -59.5t1 -61.5v-590z" />
    <glyph glyph-name="aring" unicode="&#xe5;" horiz-adv-x="1054" 
d="M627 1434q0 51 -29.5 79.5t-75.5 28.5q-45 0 -74.5 -28.5t-29.5 -79.5q0 -52 29.5 -80.5t74.5 -28.5q46 0 75.5 28.5t29.5 80.5zM733 1434q0 -94 -61 -152.5t-150 -58.5q-88 0 -149.5 58t-61.5 153q0 94 61.5 151t149.5 57q89 0 150 -57.5t61 -150.5zM721 123v430
q-87 6 -100 6q-20 0 -74 -4q-66 -8 -114.5 -23t-91 -42t-65 -72.5t-22.5 -108.5q0 -213 262 -213q119 0 205 27zM883 39q-60 -27 -163.5 -45.5t-221.5 -18.5q-196 0 -303 84t-107 248q0 88 35 155.5t99 110.5t146 67.5t185 33.5q7 0 21.5 1t21.5 1q38 0 125 -6
q-1 77 -11 129t-36 94.5t-75.5 63t-123.5 20.5q-154 0 -266 -57l-31 124q49 26 133.5 46t180.5 20q182 0 283.5 -91.5t105.5 -268.5q0 -19 1 -59.5t1 -61.5v-590z" />
    <glyph glyph-name="ae" unicode="&#xe6;" horiz-adv-x="1755" 
d="M735 475q-75 29 -190 29q-281 0 -281 -191q0 -192 258 -192q179 0 277 82q-61 107 -64 272zM1276 -31q-131 0 -221.5 27t-159.5 90q-156 -117 -377 -117q-200 0 -316 83.5t-116 260.5q0 170 124 253t331 83q49 0 110 -10t80 -18q0 30 -0.5 44.5t-2.5 44t-5 45t-9 41
t-15 40t-21.5 33.5t-30.5 30t-40 21.5t-51 15t-64 4.5q-150 0 -271 -43l-22 150q45 20 126.5 34.5t176.5 14.5q264 0 346 -191q105 143 270 180q49 9 103 9q200 -5 313 -139t113 -392q0 -15 -2.5 -41.5t-2.5 -38.5h-733q9 -176 96 -267t263 -91q150 0 276 59l29 -149
q-40 -23 -121.5 -44t-175.5 -22zM911 627h557q-6 150 -74 231.5t-190 81.5q-124 0 -204 -90.5t-89 -222.5z" />
    <glyph glyph-name="ccedilla" unicode="&#xe7;" horiz-adv-x="954" 
d="M645 -31v-10q0 -21 -8 -57q104 -56 104 -144q0 -67 -52.5 -113t-166.5 -46q-103 0 -160 26l23 119q54 -23 129 -23q68 3 68 50q0 16 -5.5 27.5t-25.5 23.5t-31.5 17.5t-50.5 21.5q18 66 49 116q-203 30 -310.5 176t-107.5 375q0 255 137 411.5t369 156.5q182 0 291 -58
l-45 -147q-103 47 -231 47q-165 0 -251.5 -107t-86.5 -303q0 -403 360 -403q131 0 238 57l32 -151q-41 -23 -115 -41t-153 -21z" />
    <glyph glyph-name="egrave" unicode="&#xe8;" horiz-adv-x="1132" 
d="M596 1186h-100l-297 373h221zM823 645q-3 166 -71 250t-193 84q-128 0 -207.5 -100t-83.5 -277zM985 537l-713 -52q21 -374 353 -374q152 0 272 61l35 -129q-46 -28 -132 -48t-186 -20q-248 0 -380 147.5t-132 420.5q0 137 36.5 247t100 178.5t146 105t176.5 36.5
q183 0 292.5 -108.5t127.5 -325.5q4 -54 4 -139z" />
    <glyph glyph-name="eacute" unicode="&#xe9;" horiz-adv-x="1132" 
d="M600 1231h-100l176 373h221zM823 645q-3 166 -71 250t-193 84q-128 0 -207.5 -100t-83.5 -277zM985 537l-713 -52q21 -374 353 -374q152 0 272 61l35 -129q-46 -28 -132 -48t-186 -20q-248 0 -380 147.5t-132 420.5q0 137 36.5 247t100 178.5t146 105t176.5 36.5
q183 0 292.5 -108.5t127.5 -325.5q4 -54 4 -139z" />
    <glyph glyph-name="ecircumflex" unicode="&#xea;" horiz-adv-x="1132" 
d="M551 1360l-215 -191l-76 86l291 308l287 -308l-74 -86zM823 645q-3 166 -71 250t-193 84q-128 0 -207.5 -100t-83.5 -277zM985 537l-713 -52q21 -374 353 -374q152 0 272 61l35 -129q-46 -28 -132 -48t-186 -20q-248 0 -380 147.5t-132 420.5q0 137 36.5 247t100 178.5
t146 105t176.5 36.5q183 0 292.5 -108.5t127.5 -325.5q4 -54 4 -139z" />
    <glyph glyph-name="edieresis" unicode="&#xeb;" horiz-adv-x="1132" 
d="M844 1343q0 -52 -31.5 -83t-81.5 -31q-48 0 -79 31t-31 83t31 83.5t79 31.5q50 0 81.5 -31.5t31.5 -83.5zM465 1343q0 -52 -31.5 -83t-79.5 -31t-80 31.5t-32 82.5q0 52 32 83.5t80 31.5t79.5 -31.5t31.5 -83.5zM823 645q-3 166 -71 250t-193 84q-128 0 -207.5 -100
t-83.5 -277zM985 537l-713 -52q21 -374 353 -374q152 0 272 61l35 -129q-46 -28 -132 -48t-186 -20q-248 0 -380 147.5t-132 420.5q0 137 36.5 247t100 178.5t146 105t176.5 36.5q183 0 292.5 -108.5t127.5 -325.5q4 -54 4 -139z" />
    <glyph glyph-name="igrave" unicode="&#xec;" horiz-adv-x="499" 
d="M297 1186h-100l-297 373h221zM338 1069v-1077h-174v1077h174z" />
    <glyph glyph-name="iacute" unicode="&#xed;" horiz-adv-x="499" 
d="M303 1231h-100l176 373h221zM338 1069v-1077h-174v1077h174z" />
    <glyph glyph-name="icircumflex" unicode="&#xee;" horiz-adv-x="499" 
d="M252 1360l-215 -191l-76 86l291 308l287 -308l-74 -86zM338 1069v-1077h-174v1077h174z" />
    <glyph glyph-name="idieresis" unicode="&#xef;" horiz-adv-x="499" 
d="M547 1343q0 -52 -31.5 -83t-81.5 -31q-48 0 -79 31t-31 83t31 83.5t79 31.5q50 0 81.5 -31.5t31.5 -83.5zM168 1343q0 -52 -31.5 -83t-79.5 -31t-80 31.5t-32 82.5q0 52 32 83.5t80 31.5t79.5 -31.5t31.5 -83.5zM338 1069v-1077h-174v1077h174z" />
    <glyph glyph-name="eth" unicode="&#xf0;" horiz-adv-x="1193" 
d="M903 735q-120 115 -293 115q-164 0 -244.5 -96.5t-80.5 -253.5q0 -161 78 -268t215 -107q325 0 325 534q2 12 2 37t-2 39zM104 498q0 240 134.5 373t357.5 133q164 0 285 -93q-20 163 -123 324l-256 -86l-45 108l219 78q-81 93 -191 160l111 107q139 -83 244 -209l247 86
l43 -119l-212 -76q167 -260 167 -610q0 -111 -13 -206.5t-48 -190t-90 -161t-146 -108t-210 -41.5q-144 0 -253.5 73t-165 192.5t-55.5 265.5z" />
    <glyph glyph-name="ntilde" unicode="&#xf1;" horiz-adv-x="1171" 
d="M717 1284q-46 0 -100 19.5t-97.5 39t-64.5 19.5q-34 0 -59 -25t-50 -71l-102 55q13 32 30.5 60.5t44 57.5t63 46.5t77.5 17.5q50 0 103.5 -19.5t95 -39t61.5 -19.5q36 0 59 24t49 71l99 -56q-15 -28 -33.5 -55.5t-45.5 -57.5t-61 -48.5t-69 -18.5zM973 -4h-166v590
q0 50 -1 80t-4 72t-10.5 67.5t-19.5 56.5t-31.5 49t-46.5 35t-64.5 24t-84.5 7q-132 0 -221 -33v-948h-168v1038q151 74 407 74q80 0 143.5 -16t106 -41t73 -65.5t47.5 -79.5t26 -94t11.5 -97.5t2.5 -100.5v-618z" />
    <glyph glyph-name="ograve" unicode="&#xf2;" 
d="M612 1186h-100l-297 373h221zM854 541q0 91 -16.5 168.5t-50 139.5t-90.5 97t-132 35q-76 0 -133.5 -35t-91.5 -97t-51 -139.5t-17 -168.5q0 -124 28.5 -218.5t96 -154t168.5 -59.5q100 0 166.5 60t94.5 154t28 218zM1024 541q0 -255 -122 -411.5t-337 -156.5
q-217 0 -340 157t-123 411q0 168 53.5 295.5t158.5 200.5t249 73q217 0 339 -156.5t122 -412.5z" />
    <glyph glyph-name="oacute" unicode="&#xf3;" 
d="M618 1231h-100l176 373h221zM854 541q0 91 -16.5 168.5t-50 139.5t-90.5 97t-132 35q-76 0 -133.5 -35t-91.5 -97t-51 -139.5t-17 -168.5q0 -124 28.5 -218.5t96 -154t168.5 -59.5q100 0 166.5 60t94.5 154t28 218zM1024 541q0 -255 -122 -411.5t-337 -156.5
q-217 0 -340 157t-123 411q0 168 53.5 295.5t158.5 200.5t249 73q217 0 339 -156.5t122 -412.5z" />
    <glyph glyph-name="ocircumflex" unicode="&#xf4;" 
d="M567 1360l-215 -191l-76 86l291 308l287 -308l-74 -86zM854 541q0 91 -16.5 168.5t-50 139.5t-90.5 97t-132 35q-76 0 -133.5 -35t-91.5 -97t-51 -139.5t-17 -168.5q0 -124 28.5 -218.5t96 -154t168.5 -59.5q100 0 166.5 60t94.5 154t28 218zM1024 541
q0 -255 -122 -411.5t-337 -156.5q-217 0 -340 157t-123 411q0 168 53.5 295.5t158.5 200.5t249 73q217 0 339 -156.5t122 -412.5z" />
    <glyph glyph-name="otilde" unicode="&#xf5;" 
d="M688 1204q-46 0 -100 20t-97.5 40t-64.5 20q-36 0 -59.5 -24.5t-49.5 -71.5l-102 55q12 31 30 59.5t44 58t62 47t77 17.5q50 0 104 -19.5t96 -39.5t62 -20q36 0 59.5 24.5t49.5 71.5l98 -56q-14 -29 -33.5 -57t-46 -58t-60.5 -48.5t-69 -18.5zM854 541q0 91 -16.5 168.5
t-50 139.5t-90.5 97t-132 35q-76 0 -133.5 -35t-91.5 -97t-51 -139.5t-17 -168.5q0 -124 28.5 -218.5t96 -154t168.5 -59.5q100 0 166.5 60t94.5 154t28 218zM1024 541q0 -255 -122 -411.5t-337 -156.5q-217 0 -340 157t-123 411q0 168 53.5 295.5t158.5 200.5t249 73
q217 0 339 -156.5t122 -412.5z" />
    <glyph glyph-name="odieresis" unicode="&#xf6;" 
d="M862 1343q0 -52 -31 -83t-81 -31q-48 0 -79.5 31t-31.5 83t31.5 83.5t79.5 31.5q50 0 81 -31.5t31 -83.5zM483 1343q0 -52 -31 -83t-79 -31t-80.5 31.5t-32.5 82.5t32.5 83t80.5 32t79 -31.5t31 -83.5zM854 541q0 91 -16.5 168.5t-50 139.5t-90.5 97t-132 35
q-76 0 -133.5 -35t-91.5 -97t-51 -139.5t-17 -168.5q0 -124 28.5 -218.5t96 -154t168.5 -59.5q100 0 166.5 60t94.5 154t28 218zM1024 541q0 -255 -122 -411.5t-337 -156.5q-217 0 -340 157t-123 411q0 168 53.5 295.5t158.5 200.5t249 73q217 0 339 -156.5t122 -412.5z" />
    <glyph glyph-name="divide" unicode="&#xf7;" horiz-adv-x="1157" 
d="M1051 528h-947v148h947v-148zM694 209q0 -53 -33 -86t-86 -33t-87.5 33.5t-34.5 85.5q0 51 35 86t87 35t85.5 -34.5t33.5 -86.5zM694 1001q0 -53 -33.5 -86.5t-85.5 -33.5q-53 0 -87.5 34t-34.5 86q0 51 35 85t87 34t85.5 -34t33.5 -85z" />
    <glyph glyph-name="oslash" unicode="&#xf8;" 
d="M918 526q-3 140 -60 226l-438 -568q70 -61 188 -61q143 3 226.5 111.5t83.5 291.5zM281 532q3 -137 59 -229l442 569q-82 66 -182 66h-8q-142 -3 -225.5 -113t-85.5 -293zM1098 530q0 -253 -138.5 -408t-359.5 -155q-163 0 -281 86l-104 -137l-109 82l113 147
q-119 146 -119 385q0 253 140 409.5t360 156.5q162 0 283 -92q11 15 48 63.5t56 71.5l109 -80l-115 -148q117 -151 117 -381z" />
    <glyph glyph-name="ugrave" unicode="&#xf9;" horiz-adv-x="1171" 
d="M621 1186h-101l-297 373h221zM958 51q-160 -76 -399 -76q-100 0 -173 24.5t-118 65.5t-72 105t-36.5 133.5t-9.5 161.5v622h167v-581q0 -82 5 -138t21 -108.5t43.5 -83.5t74 -49t112.5 -18q148 0 218 36v942h167v-1036z" />
    <glyph glyph-name="uacute" unicode="&#xfa;" horiz-adv-x="1171" 
d="M627 1231h-101l176 373h222zM958 51q-160 -76 -399 -76q-100 0 -173 24.5t-118 65.5t-72 105t-36.5 133.5t-9.5 161.5v622h167v-581q0 -82 5 -138t21 -108.5t43.5 -83.5t74 -49t112.5 -18q148 0 218 36v942h167v-1036z" />
    <glyph glyph-name="ucircumflex" unicode="&#xfb;" horiz-adv-x="1171" 
d="M575 1360l-215 -191l-75 86l290 308l287 -308l-74 -86zM958 51q-160 -76 -399 -76q-100 0 -173 24.5t-118 65.5t-72 105t-36.5 133.5t-9.5 161.5v622h167v-581q0 -82 5 -138t21 -108.5t43.5 -83.5t74 -49t112.5 -18q148 0 218 36v942h167v-1036z" />
    <glyph glyph-name="udieresis" unicode="&#xfc;" horiz-adv-x="1171" 
d="M870 1343q0 -52 -31 -83t-81 -31q-48 0 -79.5 31t-31.5 83t31.5 83.5t79.5 31.5q50 0 81 -31.5t31 -83.5zM492 1343q0 -52 -31.5 -83t-79.5 -31t-80.5 31.5t-32.5 82.5t32.5 83t80.5 32t79.5 -31.5t31.5 -83.5zM958 51q-160 -76 -399 -76q-100 0 -173 24.5t-118 65.5
t-72 105t-36.5 133.5t-9.5 161.5v622h167v-581q0 -82 5 -138t21 -108.5t43.5 -83.5t74 -49t112.5 -18q148 0 218 36v942h167v-1036z" />
    <glyph glyph-name="yacute" unicode="&#xfd;" horiz-adv-x="1003" 
d="M553 1231h-100l176 373h221zM950 1087q-200 -709 -372 -1159q-26 -67 -46.5 -108.5t-48 -80t-61 -56t-76.5 -17.5q-28 0 -53 4t-47.5 12t-36 14t-34 16.5t-25.5 13.5l32 106q5 -3 21 -12t21 -11.5t17.5 -8.5t18 -8t15 -5.5t17 -4.5t15.5 -1q22 0 41 13.5t31.5 30
t25.5 47.5t19 49.5t16 52.5q4 14 6 20q-239 564 -395 1093h178q83 -329 244 -772q44 -140 49 -151q4 2 11 26t18 64.5t16 58.5q76 235 221 774h162z" />
    <glyph glyph-name="thorn" unicode="&#xfe;" horiz-adv-x="1200" 
d="M338 893v-684q42 -32 110 -58t146 -26q87 0 151 30.5t101 86t54.5 126.5t17.5 158q0 192 -96.5 300t-260.5 108q-124 0 -223 -41zM164 1569l174 30v-552q116 45 235 45q237 0 382 -153.5t145 -410.5q0 -251 -129.5 -406t-358.5 -155q-87 0 -158.5 23.5t-115.5 54.5v-432
h-174v1956z" />
    <glyph glyph-name="ydieresis" unicode="&#xff;" horiz-adv-x="1003" 
d="M797 1343q0 -52 -31.5 -83t-81.5 -31q-48 0 -79.5 31t-31.5 83t31.5 83.5t79.5 31.5q50 0 81.5 -31.5t31.5 -83.5zM418 1343q0 -52 -31.5 -83t-79.5 -31t-80 31.5t-32 82.5q0 52 32 83.5t80 31.5t79.5 -31.5t31.5 -83.5zM950 1087q-200 -709 -372 -1159
q-26 -67 -46.5 -108.5t-48 -80t-61 -56t-76.5 -17.5q-28 0 -53 4t-47.5 12t-36 14t-34 16.5t-25.5 13.5l32 106q5 -3 21 -12t21 -11.5t17.5 -8.5t18 -8t15 -5.5t17 -4.5t15.5 -1q22 0 41 13.5t31.5 30t25.5 47.5t19 49.5t16 52.5q4 14 6 20q-239 564 -395 1093h178
q83 -329 244 -772q44 -140 49 -151q4 2 11 26t18 64.5t16 58.5q76 235 221 774h162z" />
    <glyph glyph-name="Amacron" unicode="&#x100;" horiz-adv-x="1335" 
d="M907 1616h-575v143h575v-143zM879 532q-48 143 -185 525q-12 34 -25 74.5t-21 64.5t-15 37q-12 -18 -29 -78q-37 -110 -113 -323t-106 -300h494zM1243 -4h-186q-110 331 -137 407h-576q-93 -256 -141 -407h-170q336 949 528 1421h154q38 -93 74 -185.5t77 -201.5
t69.5 -185t77 -209t71 -196t80.5 -224.5t79 -219.5z" />
    <glyph glyph-name="amacron" unicode="&#x101;" horiz-adv-x="1054" 
d="M807 1294h-576v144h576v-144zM721 123v430q-87 6 -100 6q-20 0 -74 -4q-66 -8 -114.5 -23t-91 -42t-65 -72.5t-22.5 -108.5q0 -213 262 -213q119 0 205 27zM883 39q-60 -27 -163.5 -45.5t-221.5 -18.5q-196 0 -303 84t-107 248q0 88 35 155.5t99 110.5t146 67.5t185 33.5
q7 0 21.5 1t21.5 1q38 0 125 -6q-1 77 -11 129t-36 94.5t-75.5 63t-123.5 20.5q-154 0 -266 -57l-31 124q49 26 133.5 46t180.5 20q182 0 283.5 -91.5t105.5 -268.5q0 -19 1 -59.5t1 -61.5v-590z" />
    <glyph glyph-name="Abreve" unicode="&#x102;" horiz-adv-x="1335" 
d="M623 1550q-113 0 -191 71t-78 202v26h121q0 -17 3 -35t12.5 -40.5t24.5 -39.5t43 -28.5t65 -11.5q46 0 77.5 16.5t45.5 43.5t19.5 49t6.5 46h121q0 -148 -73 -223.5t-197 -75.5zM879 532q-48 143 -185 525q-12 34 -25 74.5t-21 64.5t-15 37q-12 -18 -29 -78
q-37 -110 -113 -323t-106 -300h494zM1243 -4h-186q-110 331 -137 407h-576q-93 -256 -141 -407h-170q336 949 528 1421h154q38 -93 74 -185.5t77 -201.5t69.5 -185t77 -209t71 -196t80.5 -224.5t79 -219.5z" />
    <glyph glyph-name="abreve" unicode="&#x103;" horiz-adv-x="1054" 
d="M520 1229q-113 0 -190.5 70.5t-77.5 201.5v27h121q0 -23 5.5 -46t19.5 -50t45.5 -43.5t76.5 -16.5q37 0 65.5 12t43.5 28.5t25 40t12.5 40.5t3.5 35h121q0 -148 -73.5 -223.5t-197.5 -75.5zM721 123v430q-87 6 -100 6q-20 0 -74 -4q-66 -8 -114.5 -23t-91 -42t-65 -72.5
t-22.5 -108.5q0 -213 262 -213q119 0 205 27zM883 39q-60 -27 -163.5 -45.5t-221.5 -18.5q-196 0 -303 84t-107 248q0 88 35 155.5t99 110.5t146 67.5t185 33.5q7 0 21.5 1t21.5 1q38 0 125 -6q-1 77 -11 129t-36 94.5t-75.5 63t-123.5 20.5q-154 0 -266 -57l-31 124
q49 26 133.5 46t180.5 20q182 0 283.5 -91.5t105.5 -268.5q0 -19 1 -59.5t1 -61.5v-590z" />
    <glyph glyph-name="Aogonek" unicode="&#x104;" horiz-adv-x="1335" 
d="M1100 -399q-217 0 -217 157q0 69 49 137.5t119 118.5q-95 286 -131 389h-576q-93 -256 -141 -407h-170q336 949 528 1421h154q38 -93 74 -185.5t77 -201.5t69.5 -185t77 -209t71 -196t80.5 -224.5t79 -219.5h-43q-39 -39 -59 -66q0 -2 -2 -2q-82 -86 -84 -129
q3 -61 78 -61q52 4 86 16l14 -131q-61 -22 -133 -22zM879 532q-48 143 -185 525q-12 34 -25 74.5t-21 64.5t-15 37q-12 -18 -29 -78q-37 -110 -113 -323t-106 -300h494z" />
    <glyph glyph-name="aogonek" unicode="&#x105;" horiz-adv-x="1054" 
d="M731 475q-29 11 -85.5 20t-106.5 9q-275 0 -275 -191q0 -192 252 -192q133 0 215 16v338zM786 -399q-99 0 -161 34.5t-62 102.5v14q0 48 23 95t47.5 74t62.5 61q-93 -13 -202 -13q-90 0 -162.5 19.5t-128.5 59.5t-86.5 107t-30.5 158q0 170 124 253t331 83q49 0 110 -10
t80 -18v65q-2 53 -11.5 93t-33.5 79t-73 60.5t-121 21.5h-11q-156 -2 -260 -43l-22 150q45 20 126.5 34.5t176.5 14.5q99 0 172 -25t116.5 -65.5t69 -104.5t34.5 -130.5t9 -154.5v-600q-58 -50 -92 -84h2q-29 -32 -41.5 -46.5t-26.5 -40t-14 -46.5q0 -59 74 -59h6
q44 0 82 14l14 -131q-64 -22 -121 -22z" />
    <glyph glyph-name="Cacute" unicode="&#x106;" horiz-adv-x="1257" 
d="M729 1577h-100l176 373h221zM739 1303q-112 0 -198 -48.5t-138.5 -133.5t-79 -192.5t-26.5 -232.5q3 -208 76 -356t213 -199q64 -24 139 -24h16q157 0 273 65l49 -129q-47 -33 -141.5 -57.5t-212.5 -24.5q-267 0 -430.5 202.5t-163.5 533.5q0 162 45.5 299.5t124.5 233.5
t189.5 150t238.5 54q117 0 205.5 -26.5t136.5 -61.5l-49 -129q-117 76 -267 76z" />
    <glyph glyph-name="cacute" unicode="&#x107;" horiz-adv-x="954" 
d="M580 1280h-101l176 373h222zM840 41q-41 -27 -113.5 -46.5t-157.5 -19.5q-217 0 -342 153t-125 413q0 261 126 415t337 154q160 0 264 -66q-7 -20 -20.5 -59.5t-20.5 -60.5q-85 49 -200 49q-157 0 -235.5 -113.5t-78.5 -316.5q0 -200 80 -315t242 -115q117 0 205 55z" />
    <glyph glyph-name="Ccircumflex" unicode="&#x108;" horiz-adv-x="1257" 
d="M678 1704l-215 -191l-76 86l291 308l287 -308l-74 -86zM739 1303q-112 0 -198 -48.5t-138.5 -133.5t-79 -192.5t-26.5 -232.5q3 -208 76 -356t213 -199q64 -24 139 -24h16q157 0 273 65l49 -129q-47 -33 -141.5 -57.5t-212.5 -24.5q-267 0 -430.5 202.5t-163.5 533.5
q0 162 45.5 299.5t124.5 233.5t189.5 150t238.5 54q117 0 205.5 -26.5t136.5 -61.5l-49 -129q-117 76 -267 76z" />
    <glyph glyph-name="ccircumflex" unicode="&#x109;" horiz-adv-x="954" 
d="M530 1409l-215 -190l-75 86l290 307l287 -307l-74 -86zM840 41q-41 -27 -113.5 -46.5t-157.5 -19.5q-217 0 -342 153t-125 413q0 261 126 415t337 154q160 0 264 -66q-7 -20 -20.5 -59.5t-20.5 -60.5q-85 49 -200 49q-157 0 -235.5 -113.5t-78.5 -316.5q0 -200 80 -315
t242 -115q117 0 205 55z" />
    <glyph glyph-name="Cdotaccent" unicode="&#x10a;" horiz-adv-x="1257" 
d="M674 1563q-51 0 -84 32t-33 86t33 86.5t84 32.5q49 0 81.5 -32.5t32.5 -86.5t-32.5 -86t-81.5 -32zM739 1303q-112 0 -198 -48.5t-138.5 -133.5t-79 -192.5t-26.5 -232.5q3 -208 76 -356t213 -199q64 -24 139 -24h16q157 0 273 65l49 -129q-47 -33 -141.5 -57.5
t-212.5 -24.5q-267 0 -430.5 202.5t-163.5 533.5q0 162 45.5 299.5t124.5 233.5t189.5 150t238.5 54q117 0 205.5 -26.5t136.5 -61.5l-49 -129q-117 76 -267 76z" />
    <glyph glyph-name="cdotaccent" unicode="&#x10b;" horiz-adv-x="954" 
d="M524 1266q-51 0 -83.5 32t-32.5 86t32.5 86.5t83.5 32.5q49 0 82 -32.5t33 -86.5t-33 -86t-82 -32zM840 41q-41 -27 -113.5 -46.5t-157.5 -19.5q-217 0 -342 153t-125 413q0 261 126 415t337 154q160 0 264 -66q-7 -20 -20.5 -59.5t-20.5 -60.5q-85 49 -200 49
q-157 0 -235.5 -113.5t-78.5 -316.5q0 -200 80 -315t242 -115q117 0 205 55z" />
    <glyph glyph-name="Ccaron" unicode="&#x10c;" horiz-adv-x="1257" 
d="M463 1950l213 -193l213 193l76 -86l-289 -310l-289 310zM739 1303q-112 0 -198 -48.5t-138.5 -133.5t-79 -192.5t-26.5 -232.5q3 -208 76 -356t213 -199q64 -24 139 -24h16q157 0 273 65l49 -129q-47 -33 -141.5 -57.5t-212.5 -24.5q-267 0 -430.5 202.5t-163.5 533.5
q0 162 45.5 299.5t124.5 233.5t189.5 150t238.5 54q117 0 205.5 -26.5t136.5 -61.5l-49 -129q-117 76 -267 76z" />
    <glyph glyph-name="ccaron" unicode="&#x10d;" horiz-adv-x="954" 
d="M315 1653l213 -193l213 193l76 -86l-289 -310l-288 310zM840 41q-41 -27 -113.5 -46.5t-157.5 -19.5q-217 0 -342 153t-125 413q0 261 126 415t337 154q160 0 264 -66q-7 -20 -20.5 -59.5t-20.5 -60.5q-85 49 -200 49q-157 0 -235.5 -113.5t-78.5 -316.5q0 -200 80 -315
t242 -115q117 0 205 55z" />
    <glyph glyph-name="Dcaron" unicode="&#x10e;" horiz-adv-x="1447" 
d="M403 1950l213 -193l213 193l76 -86l-289 -310l-288 310zM1034 717q0 282 -126 434t-373 152q-115 0 -195 -23v-1141q64 -22 195 -22q253 0 376 154.5t123 445.5zM1214 715q0 -348 -179.5 -541.5t-502.5 -193.5q-221 0 -366 55v1341q156 58 364 58q321 0 502.5 -186.5
t181.5 -532.5z" />
    <glyph glyph-name="dcaron" unicode="&#x10f;" horiz-adv-x="1310" 
d="M1184 1597h180l-55 -469h-125v469zM860 147v711q-115 84 -250 84q-87 0 -151 -31.5t-101 -88.5t-54 -129t-17 -161q0 -196 95 -303.5t257 -107.5q141 0 221 26zM1038 1595v-1560q-173 -64 -401 -64q-242 0 -388.5 149.5t-146.5 409.5q0 251 130 405.5t356 154.5
q87 0 158 -23.5t114 -52.5v555q55 9 178 26z" />
    <glyph glyph-name="Dcroat" unicode="&#x110;" horiz-adv-x="1474" 
d="M383 668v-518q104 -13 201 -13q286 0 435.5 152t149.5 422q0 269 -149 420t-436 151q-105 0 -201 -12v-455h268v-147h-268zM1360 711q0 -180 -57.5 -320.5t-163 -230.5t-250.5 -136.5t-322 -46.5q-206 0 -366 39v652h-164v147h164v586q147 39 366 39q178 0 322 -45.5
t250 -134t163.5 -228.5t57.5 -321z" />
    <glyph glyph-name="dcroat" unicode="&#x111;" horiz-adv-x="1200" 
d="M862 150v698q-44 32 -111.5 58t-144.5 26q-87 0 -150.5 -31t-100.5 -87.5t-54.5 -127.5t-17.5 -158q0 -191 96 -297t258 -106q144 0 225 25zM1036 1599v-196h160v-135h-160v-1241q-178 -60 -401 -60q-241 0 -388 151t-147 408q0 252 130.5 406.5t359.5 154.5
q158 0 272 -75v256h-360v135h360v166z" />
    <glyph glyph-name="Emacron" unicode="&#x112;" horiz-adv-x="1150" 
d="M848 1616h-576v143h576v-143zM944 -4h-778v1421h752v-135h-576v-479h514v-135h-514v-537h602v-135z" />
    <glyph glyph-name="emacron" unicode="&#x113;" horiz-adv-x="1132" 
d="M831 1270h-575v143h575v-143zM823 645q-3 166 -71 250t-193 84q-128 0 -207.5 -100t-83.5 -277zM985 537l-713 -52q21 -374 353 -374q152 0 272 61l35 -129q-46 -28 -132 -48t-186 -20q-248 0 -380 147.5t-132 420.5q0 137 36.5 247t100 178.5t146 105t176.5 36.5
q183 0 292.5 -108.5t127.5 -325.5q4 -54 4 -139z" />
    <glyph glyph-name="Ebreve" unicode="&#x114;" horiz-adv-x="1150" 
d="M563 1550q-113 0 -190.5 71t-77.5 202v26h121q0 -23 5.5 -45.5t19.5 -49.5t45.5 -43.5t76.5 -16.5q37 0 65.5 12t43.5 28.5t25 39.5t12.5 40t3.5 35h121q0 -148 -73.5 -223.5t-197.5 -75.5zM944 -4h-778v1421h752v-135h-576v-479h514v-135h-514v-537h602v-135z" />
    <glyph glyph-name="ebreve" unicode="&#x115;" horiz-adv-x="1132" 
d="M547 1204q-113 0 -190.5 71t-77.5 202v26h120q0 -17 3 -35t12.5 -40.5t24.5 -39.5t43 -28.5t65 -11.5q46 0 77.5 16.5t45.5 43.5t19.5 49t6.5 46h121q0 -148 -73 -223.5t-197 -75.5zM823 645q-3 166 -71 250t-193 84q-128 0 -207.5 -100t-83.5 -277zM985 537l-713 -52
q21 -374 353 -374q152 0 272 61l35 -129q-46 -28 -132 -48t-186 -20q-248 0 -380 147.5t-132 420.5q0 137 36.5 247t100 178.5t146 105t176.5 36.5q183 0 292.5 -108.5t127.5 -325.5q4 -54 4 -139z" />
    <glyph glyph-name="Edotaccent" unicode="&#x116;" horiz-adv-x="1150" 
d="M561 1563q-51 0 -84 32t-33 86t33 86.5t84 32.5q49 0 82 -32.5t33 -86.5t-33 -86t-82 -32zM944 -4h-778v1421h752v-135h-576v-479h514v-135h-514v-537h602v-135z" />
    <glyph glyph-name="edotaccent" unicode="&#x117;" horiz-adv-x="1132" 
d="M545 1217q-51 0 -84 32t-33 86t33 86.5t84 32.5q49 0 81.5 -32.5t32.5 -86.5t-32.5 -86t-81.5 -32zM823 645q-3 166 -71 250t-193 84q-128 0 -207.5 -100t-83.5 -277zM985 537l-713 -52q21 -374 353 -374q152 0 272 61l35 -129q-46 -28 -132 -48t-186 -20
q-248 0 -380 147.5t-132 420.5q0 137 36.5 247t100 178.5t146 105t176.5 36.5q183 0 292.5 -108.5t127.5 -325.5q4 -54 4 -139z" />
    <glyph glyph-name="Eogonek" unicode="&#x118;" horiz-adv-x="1150" 
d="M893 -8h-721v1435h856v-157h-674v-447h600v-155h-600v-518h727v-150q-61 -44 -110.5 -101.5t-50.5 -99.5q3 -59 73 -59h6q44 0 82 14l15 -131q-57 -22 -133 -22q-215 0 -215 157q0 66 41.5 127t103.5 107z" />
    <glyph glyph-name="eogonek" unicode="&#x119;" horiz-adv-x="1132" 
d="M291 627h555q-6 151 -73.5 232t-190.5 81t-203 -91t-88 -222zM625 -27q-136 0 -238 42t-164 118t-92.5 175.5t-30.5 221.5q0 110 26.5 203.5t72.5 159t107.5 112t130.5 69t143 22.5q209 0 326.5 -134.5t117.5 -398.5q0 -15 -2 -41.5t-2 -38.5h-733q9 -181 98 -268.5
t272 -87.5q141 2 265 57l28 -149q-205 -154 -207 -236q3 -59 76 -59h6q44 0 82 14l15 -131q-61 -22 -134 -22q-215 0 -215 153q0 120 138 226q-54 -7 -86 -7z" />
    <glyph glyph-name="Ecaron" unicode="&#x11a;" horiz-adv-x="1150" 
d="M350 1950l213 -193l213 193l76 -86l-289 -310l-289 310zM944 -4h-778v1421h752v-135h-576v-479h514v-135h-514v-537h602v-135z" />
    <glyph glyph-name="ecaron" unicode="&#x11b;" horiz-adv-x="1132" 
d="M336 1604l213 -193l213 193l76 -86l-289 -310l-289 310zM823 645q-3 166 -71 250t-193 84q-128 0 -207.5 -100t-83.5 -277zM985 537l-713 -52q21 -374 353 -374q152 0 272 61l35 -129q-46 -28 -132 -48t-186 -20q-248 0 -380 147.5t-132 420.5q0 137 36.5 247t100 178.5
t146 105t176.5 36.5q183 0 292.5 -108.5t127.5 -325.5q4 -54 4 -139z" />
    <glyph glyph-name="Gcircumflex" unicode="&#x11c;" horiz-adv-x="1359" 
d="M725 1704l-215 -191l-76 86l291 308l287 -308l-74 -86zM1139 45q-144 -74 -402 -74q-131 0 -243.5 47.5t-198 138t-134 233.5t-48.5 323q0 174 50.5 314.5t138 230.5t202 138t244.5 48q232 0 374 -88l-53 -129q-50 32 -129.5 52.5t-175.5 20.5h-8q-214 0 -337.5 -153.5
t-123.5 -444.5q0 -278 122 -435.5t333 -157.5q151 0 217 32v461h-140v141h312v-698z" />
    <glyph glyph-name="gcircumflex" unicode="&#x11d;" horiz-adv-x="1179" 
d="M606 1360l-215 -191l-76 86l291 308l287 -308l-74 -86zM801 199v753q-66 29 -195 29q-162 0 -248 -118t-86 -318q0 -201 83.5 -305.5t226.5 -104.5q133 0 219 64zM965 20q0 -446 -461 -446q-200 0 -338 64q13 48 43 133q47 -25 121 -43t147 -19q154 0 232 72
q94 70 94 223v68q-97 -62 -246 -62q-203 0 -329 139t-126 394q0 254 133.5 409.5t372.5 155.5q209 0 357 -68v-1020z" />
    <glyph glyph-name="Gbreve" unicode="&#x11e;" horiz-adv-x="1359" 
d="M723 1550q-113 0 -190.5 71t-77.5 202v26h120q0 -17 3 -35t12.5 -40.5t24.5 -39.5t43 -28.5t65 -11.5q46 0 77.5 16.5t45.5 43.5t19.5 49t6.5 46h121q0 -148 -73 -223.5t-197 -75.5zM1139 45q-144 -74 -402 -74q-131 0 -243.5 47.5t-198 138t-134 233.5t-48.5 323
q0 174 50.5 314.5t138 230.5t202 138t244.5 48q232 0 374 -88l-53 -129q-50 32 -129.5 52.5t-175.5 20.5h-8q-214 0 -337.5 -153.5t-123.5 -444.5q0 -278 122 -435.5t333 -157.5q151 0 217 32v461h-140v141h312v-698z" />
    <glyph glyph-name="gbreve" unicode="&#x11f;" horiz-adv-x="1179" 
d="M602 1204q-113 0 -190.5 71t-77.5 202v26h121q0 -23 5.5 -45.5t19.5 -49.5t45.5 -43.5t76.5 -16.5q37 0 65.5 12t43.5 28.5t25 39.5t12.5 40t3.5 35h120q0 -148 -73 -223.5t-197 -75.5zM801 199v753q-66 29 -195 29q-162 0 -248 -118t-86 -318q0 -201 83.5 -305.5
t226.5 -104.5q133 0 219 64zM965 20q0 -446 -461 -446q-200 0 -338 64q13 48 43 133q47 -25 121 -43t147 -19q154 0 232 72q94 70 94 223v68q-97 -62 -246 -62q-203 0 -329 139t-126 394q0 254 133.5 409.5t372.5 155.5q209 0 357 -68v-1020z" />
    <glyph glyph-name="Gdotaccent" unicode="&#x120;" horiz-adv-x="1359" 
d="M721 1563q-51 0 -84 32t-33 86t33 86.5t84 32.5q49 0 82 -32.5t33 -86.5t-33 -86t-82 -32zM1139 45q-144 -74 -402 -74q-131 0 -243.5 47.5t-198 138t-134 233.5t-48.5 323q0 174 50.5 314.5t138 230.5t202 138t244.5 48q232 0 374 -88l-53 -129q-50 32 -129.5 52.5
t-175.5 20.5h-8q-214 0 -337.5 -153.5t-123.5 -444.5q0 -278 122 -435.5t333 -157.5q151 0 217 32v461h-140v141h312v-698z" />
    <glyph glyph-name="gdotaccent" unicode="&#x121;" horiz-adv-x="1179" 
d="M602 1217q-51 0 -84 32t-33 86t33 86.5t84 32.5q49 0 82 -32.5t33 -86.5t-33 -86t-82 -32zM801 199v753q-66 29 -195 29q-162 0 -248 -118t-86 -318q0 -201 83.5 -305.5t226.5 -104.5q133 0 219 64zM965 20q0 -446 -461 -446q-200 0 -338 64q13 48 43 133q47 -25 121 -43
t147 -19q154 0 232 72q94 70 94 223v68q-97 -62 -246 -62q-203 0 -329 139t-126 394q0 254 133.5 409.5t372.5 155.5q209 0 357 -68v-1020z" />
    <glyph glyph-name="Gcommaaccent" unicode="&#x122;" horiz-adv-x="1359" 
d="M682 -139v37h162q4 -16 4 -45q2 -19 -2 -46q-10 -101 -75.5 -153.5t-168.5 -52.5q-57 5 -70 12v113q82 0 116 31.5t34 103.5zM1155 1204q-57 39 -153.5 63.5t-204.5 24.5q-217 0 -352.5 -152t-135.5 -429q0 -275 124.5 -430.5t361.5 -155.5q175 0 235 29q4 218 6 329
l-6 19v192h189v-655q-55 -26 -174 -49t-269 -23q-296 0 -477.5 198t-181.5 546q0 173 52.5 314t144.5 234t215.5 143t265.5 50q261 0 419 -100z" />
    <glyph glyph-name="gcommaaccent" unicode="&#x123;" horiz-adv-x="1179" 
d="M528 1288q0 72 20.5 131t55.5 96t72.5 60t79.5 35l57 -101q-29 -18 -46 -32.5t-36 -40.5t-28 -65t-9 -93v-33h-164q-2 6 -2 43zM842 258v657q-90 25 -221 25q-156 0 -245 -105.5t-89 -281.5q0 -96 25.5 -169.5t69 -116.5t96 -64t112.5 -21q78 0 144.5 21.5t107.5 54.5z
M844 45q-7 36 -10 64q-30 -26 -98 -50t-158 -24q-98 0 -182 30t-151 90.5t-105 162t-38 233.5q0 238 140 387t379 149q218 0 397 -59v-971q0 -239 -124.5 -345.5t-381.5 -106.5q-183 0 -346 55l35 152q52 -24 132.5 -40.5t160.5 -17.5q175 0 251 62q96 64 99 229z" />
    <glyph glyph-name="Hcircumflex" unicode="&#x124;" horiz-adv-x="1429" 
d="M659 1704l-215 -191l-75 86l290 308l287 -308l-74 -86zM1153 -4h-174v670h-637v-670h-176v1421h176v-616h637v616h174v-1421z" />
    <glyph glyph-name="hcircumflex" unicode="&#x125;" horiz-adv-x="1171" 
d="M586 1810l-213 -192l-78 86l291 309l288 -309l-75 -86zM973 -4h-166v584q0 57 -1.5 95.5t-7.5 83.5t-16.5 73.5t-29.5 57.5t-46 45t-66.5 26t-90.5 10q-63 0 -126 -14t-99 -35v-926h-168v1601h168v-553q125 58 241 58h8q79 0 141 -16t103.5 -40.5t71 -65t45.5 -79.5
t25.5 -94t11.5 -97.5t2 -101.5v-612z" />
    <glyph glyph-name="Hbar" unicode="&#x126;" horiz-adv-x="1484" 
d="M1102 819v254h-719v-254h719zM1448 1073h-164v-1081h-182v667h-719v-667h-182v1081h-164v144h164v210h182v-210h719v210h182v-210h164v-144z" />
    <glyph glyph-name="hbar" unicode="&#x127;" horiz-adv-x="1173" 
d="M340 -8h-174v1276h-160v135h160v166l174 30v-196h371v-135h-371v-228q124 47 246 47q124 0 211 -35t135 -103t69 -155t21 -204v-598h-174v555q0 214 -61 298.5t-222 84.5q-56 0 -128.5 -15.5t-96.5 -27.5v-895z" />
    <glyph glyph-name="Itilde" unicode="&#x128;" horiz-adv-x="528" 
d="M377 1550q-46 0 -100 20t-97.5 40t-64.5 20q-36 0 -59.5 -24.5t-49.5 -71.5l-102 55q12 31 30 59.5t44 58t62 47.5t77 18q50 0 104 -20t96 -40t62 -20q36 0 59 24.5t49 71.5l99 -55q-14 -29 -33.5 -57t-46 -58.5t-60.5 -49t-69 -18.5zM344 -4h-174v1421h174v-1421z" />
    <glyph glyph-name="itilde" unicode="&#x129;" horiz-adv-x="499" 
d="M373 1196q-46 0 -100 20t-97.5 40t-64.5 20q-36 0 -59.5 -24.5t-49.5 -71.5l-102 55q12 31 30 59.5t44 58t62 47t77 17.5q50 0 104 -20t96 -40t62 -20q19 0 35 7.5t29.5 23.5t22 29.5t21.5 36.5l99 -56q-14 -29 -33.5 -57t-46 -58t-60.5 -48.5t-69 -18.5zM338 1069v-1077
h-174v1077h174z" />
    <glyph glyph-name="Imacron" unicode="&#x12a;" horiz-adv-x="528" 
d="M539 1616h-576v143h576v-143zM344 -4h-174v1421h174v-1421z" />
    <glyph glyph-name="imacron" unicode="&#x12b;" horiz-adv-x="499" 
d="M535 1270h-576v143h576v-143zM338 1069v-1077h-174v1077h174z" />
    <glyph glyph-name="Ibreve" unicode="&#x12c;" horiz-adv-x="528" 
d="M254 1550q-113 0 -190.5 71t-77.5 202v26h120q0 -17 3 -35t12.5 -40.5t24.5 -39.5t43 -28.5t65 -11.5q46 0 77.5 16.5t45.5 43.5t19.5 49t6.5 46h121q0 -148 -73 -223.5t-197 -75.5zM344 -4h-174v1421h174v-1421z" />
    <glyph glyph-name="ibreve" unicode="&#x12d;" horiz-adv-x="499" 
d="M248 1204q-113 0 -190.5 71t-77.5 202v26h120q0 -17 3 -35t12.5 -40.5t24.5 -39.5t43 -28.5t65 -11.5q46 0 77.5 16.5t45.5 43.5t19.5 49t6.5 46h121q0 -148 -73 -223.5t-197 -75.5zM338 1069v-1077h-174v1077h174z" />
    <glyph glyph-name="Iogonek" unicode="&#x12e;" horiz-adv-x="528" 
d="M354 1427v-1431q-45 -38 -71.5 -64t-54 -65t-27.5 -68q0 -59 73 -59h7q43 0 81 14l15 -131q-60 -22 -133 -22q-217 0 -217 157q0 65 42 127t103 109v1433h182z" />
    <glyph glyph-name="iogonek" unicode="&#x12f;" horiz-adv-x="499" 
d="M369 1380q0 -56 -34 -89.5t-85 -33.5q-52 0 -85.5 33.5t-33.5 89.5t33.5 88.5t85.5 32.5q51 0 85 -33t34 -88zM338 1069v-1073q-10 -9 -38.5 -35.5t-42.5 -41t-33 -37t-27.5 -43t-8.5 -40.5q0 -59 74 -59h6q44 0 82 14l15 -131q-60 -22 -134 -22q-217 0 -217 157
q0 125 150 238v1073h174z" />
    <glyph glyph-name="Idotaccent" unicode="&#x130;" horiz-adv-x="528" 
d="M264 1581q-49 0 -81.5 32.5t-32.5 86.5t32.5 86.5t81.5 32.5q51 0 84 -32.5t33 -86.5t-33 -86.5t-84 -32.5zM174 -4v1427h184v-1427h-184z" />
    <glyph glyph-name="dotlessi" unicode="&#x131;" horiz-adv-x="499" 
d="M338 1069v-1077h-174v1077h174z" />
    <glyph glyph-name="IJ" unicode="&#x132;" horiz-adv-x="1536" 
d="M850 106q162 0 234.5 83.5t72.5 277.5v956h184v-997q0 -110 -22 -194.5t-71.5 -151.5t-137.5 -104t-211 -39q-125 0 -221 36t-146 78l66 144q126 -89 252 -89zM174 -4v1427h184v-1427h-184z" />
    <glyph glyph-name="ij" unicode="&#x133;" horiz-adv-x="999" 
d="M328 -4h-166v1091h166v-1091zM352 1397q0 -47 -31 -77t-77 -30q-44 0 -75.5 30.5t-31.5 76.5t31.5 76t75.5 30q46 0 77 -29.5t31 -76.5zM831 35q0 -380 -294 -434q-41 -13 -88 -13q-27 0 -39 2l12 115q129 21 184 97.5t58 224.5v1060h167v-1052zM854 1397
q0 -47 -30.5 -77t-75.5 -30q-46 0 -76.5 30t-30.5 77t30.5 76.5t76.5 29.5q45 0 75.5 -29.5t30.5 -76.5z" />
    <glyph glyph-name="Jcircumflex" unicode="&#x134;" horiz-adv-x="1009" 
d="M508 1704l-215 -191l-76 86l291 308l287 -308l-74 -86zM590 250q0 -196 -90 -319t-273 -150q-20 -2 -57 -2q-111 0 -211 39q14 53 39 133q74 -21 121 -21q43 0 92 15q124 32 164.5 127.5t40.5 298.5v1046h174v-1167z" />
    <glyph glyph-name="jcircumflex" unicode="&#x135;" horiz-adv-x="499" 
d="M252 1360l-215 -191l-76 86l291 308l287 -308l-74 -86zM-14 -391q-67 0 -127 24l24 146q46 -17 99 -17q104 0 143 58.5t39 189.5v1059h174v-1055q0 -209 -83 -307t-269 -98z" />
    <glyph glyph-name="Kcommaaccent" unicode="&#x136;" horiz-adv-x="1251" 
d="M768 -147q0 -122 -66.5 -187t-181.5 -65q-54 4 -69 12v113q83 0 116 31.5t33 103.5v37h164q1 -7 2 -23.5t2 -21.5zM1237 -4h-127q-14 0 -41 1t-41 1q-128 201 -312.5 389.5t-357.5 296.5v-688h-184v1427h184v-643q151 138 338 332t281 311h217q-122 -136 -315 -335.5
t-334 -333.5q176 -122 386 -351t306 -407z" />
    <glyph glyph-name="kcommaaccent" unicode="&#x137;" horiz-adv-x="1038" 
d="M977 -4h-193q-106 152 -231.5 303t-226.5 238v-541h-166v1601h166v-995q272 302 422 485h190q-61 -70 -135.5 -153t-179 -197.5t-140.5 -154.5q125 -122 259.5 -281t234.5 -305zM649 -147q0 -123 -65.5 -187.5t-180.5 -64.5q-55 4 -71 12v113q83 0 117 31.5t34 103.5v37
h162q4 -16 4 -45z" />
    <glyph glyph-name="kgreenlandic" unicode="&#x138;" horiz-adv-x="1058" 
d="M338 -8h-174v1077h174v-463q294 286 453 463h210q-90 -102 -241 -254.5t-252 -245.5q136 -96 288 -261.5t242 -315.5h-204q-89 140 -232 282.5t-264 219.5v-502z" />
    <glyph glyph-name="Lacute" unicode="&#x139;" horiz-adv-x="1046" 
d="M311 1577h-100l176 373h221zM891 -4h-721v1421h174v-1286h547v-135z" />
    <glyph glyph-name="lacute" unicode="&#x13a;" horiz-adv-x="567" 
d="M299 1755h-100l176 373h221zM508 80l-35 -109q-84 10 -138 29.5t-95 60.5t-59.5 109t-18.5 170v1257h166v-1122q0 -85 2.5 -141t12.5 -98.5t20 -65.5t34.5 -41.5t46.5 -27t64 -21.5z" />
    <glyph glyph-name="Lcommaaccent" unicode="&#x13b;" horiz-adv-x="1046" 
d="M698 -147q0 -122 -66 -187t-181 -65q-55 4 -70 12v113q83 0 117 31.5t34 103.5v37h162q4 -32 4 -45zM358 150h637v-154h-821v1427h184v-1273z" />
    <glyph glyph-name="lcommaaccent" unicode="&#x13c;" horiz-adv-x="540" 
d="M508 80l-35 -109q-84 10 -138 29.5t-95 60.5t-59.5 109t-18.5 170v1257h166v-1122q0 -85 2.5 -141t12.5 -98.5t20 -65.5t34.5 -41.5t46.5 -27t64 -21.5zM389 -147q0 -122 -66.5 -187t-181.5 -65q-54 4 -69 12v113q83 0 117 31.5t34 103.5v37h162q4 -32 4 -45z" />
    <glyph glyph-name="Lcaron" unicode="&#x13d;" horiz-adv-x="1046" 
d="M541 1430h178l-53 -469h-125v469zM358 150h637v-154h-821v1427h184v-1273z" />
    <glyph glyph-name="lcaron" unicode="&#x13e;" horiz-adv-x="729" 
d="M508 80l-35 -109q-84 10 -138 29.5t-95 60.5t-59.5 109t-18.5 170v1257h166v-1122q0 -85 2.5 -141t12.5 -98.5t20 -65.5t34.5 -41.5t46.5 -27t64 -21.5zM489 1595h179l-54 -469h-125v469z" />
    <glyph glyph-name="Ldot" unicode="&#x13f;" horiz-adv-x="1046" 
d="M791 639q-51 0 -85 33.5t-34 87.5q0 56 34 89.5t85 33.5t84.5 -33.5t33.5 -87.5q0 -56 -33.5 -89.5t-84.5 -33.5zM358 150h637v-154h-821v1427h184v-1273z" />
    <glyph glyph-name="ldot" unicode="&#x140;" horiz-adv-x="567" 
d="M244 1741q-51 0 -84 32.5t-33 86.5t33 86t84 32q49 0 81.5 -32t32.5 -86t-32.5 -86.5t-81.5 -32.5zM508 80l-35 -109q-84 10 -138 29.5t-95 60.5t-59.5 109t-18.5 170v1257h166v-1122q0 -85 2.5 -141t12.5 -98.5t20 -65.5t34.5 -41.5t46.5 -27t64 -21.5z" />
    <glyph glyph-name="Lslash" unicode="&#x141;" horiz-adv-x="1079" 
d="M387 834q41 21 231 118l62 -129l-293 -151v-520h664v-160h-844v586l-152 -76l-65 129l217 110v686h180v-593z" />
    <glyph glyph-name="lslash" unicode="&#x142;" horiz-adv-x="552" 
d="M352 936l146 76l59 -127l-205 -107v-499q0 -88 33.5 -118.5t126.5 -41.5l-25 -148q-155 8 -227 67.5t-78 199.5q-4 74 -4 223v227q-20 -9 -108 -55l-62 125l170 88v751h174v-661z" />
    <glyph glyph-name="Nacute" unicode="&#x143;" horiz-adv-x="1466" 
d="M766 1577h-100l176 373h221zM1227 -4h-90l-64 2q-230 403 -657 1044q-17 25 -39.5 63t-35.5 59.5t-17 21.5q0 -30 2 -210.5t2 -275.5v-704h-162v1421h164q367 -514 663 -1003q14 -24 33 -58t29 -51t16 -22q0 60 -2 285t-2 335v514h160v-1421z" />
    <glyph glyph-name="nacute" unicode="&#x144;" horiz-adv-x="1171" 
d="M594 1231h-100l176 373h221zM973 -4h-166v590q0 50 -1 80t-4 72t-10.5 67.5t-19.5 56.5t-31.5 49t-46.5 35t-64.5 24t-84.5 7q-132 0 -221 -33v-948h-168v1038q151 74 407 74q80 0 143.5 -16t106 -41t73 -65.5t47.5 -79.5t26 -94t11.5 -97.5t2.5 -100.5v-618z" />
    <glyph glyph-name="Ncommaaccent" unicode="&#x145;" horiz-adv-x="1466" 
d="M829 -147q0 -122 -66 -187t-181 -65q-55 4 -70 12v113q83 0 117.5 31.5t34.5 103.5v37h161q4 -32 4 -45zM1278 -4h-90l-62 2q-120 216 -372.5 584.5t-405.5 545.5q0 -88 1 -266t1 -268v-598h-176v1427h145q194 -218 407.5 -514t375.5 -569v1083h176v-1427z" />
    <glyph glyph-name="ncommaaccent" unicode="&#x146;" horiz-adv-x="1171" 
d="M680 -147q0 -123 -65.5 -187.5t-180.5 -64.5q-56 4 -72 12v113q83 0 117.5 31.5t34.5 103.5v37h162q4 -16 4 -45zM164 -4v1028q182 63 422 63q101 0 176.5 -23.5t124.5 -65t79.5 -104.5t43 -136t12.5 -166v-596h-176v549q0 219 -59.5 306t-219.5 87q-143 0 -227 -25v-917
h-176z" />
    <glyph glyph-name="Ncaron" unicode="&#x147;" horiz-adv-x="1466" 
d="M500 1950l213 -193l213 193l75 -86l-288 -310l-289 310zM1227 -4h-90l-64 2q-230 403 -657 1044q-17 25 -39.5 63t-35.5 59.5t-17 21.5q0 -30 2 -210.5t2 -275.5v-704h-162v1421h164q367 -514 663 -1003q14 -24 33 -58t29 -51t16 -22q0 60 -2 285t-2 335v514h160v-1421z
" />
    <glyph glyph-name="ncaron" unicode="&#x148;" horiz-adv-x="1171" 
d="M328 1604l213 -193l213 193l75 -86l-288 -310l-289 310zM973 -4h-166v590q0 50 -1 80t-4 72t-10.5 67.5t-19.5 56.5t-31.5 49t-46.5 35t-64.5 24t-84.5 7q-132 0 -221 -33v-948h-168v1038q151 74 407 74q80 0 143.5 -16t106 -41t73 -65.5t47.5 -79.5t26 -94t11.5 -97.5
t2.5 -100.5v-618z" />
    <glyph glyph-name="napostrophe" unicode="&#x149;" horiz-adv-x="1179" 
d="M111 1597h178q4 -50 4 -67q-7 -107 -39.5 -192.5t-97.5 -190.5l-123 49q86 179 86 320q0 48 -8 81zM172 -4v1028q182 63 422 63q125 0 212 -34.5t135.5 -102.5t69.5 -154.5t21 -203.5v-596h-178v549q0 219 -59.5 306t-219.5 87q-143 0 -227 -25v-917h-176z" />
    <glyph glyph-name="Eng" unicode="&#x14a;" horiz-adv-x="1466" 
d="M1112 -59v98q-126 223 -361 562.5t-399 533.5v-1143h-180v1435h143q194 -214 430.5 -538.5t366.5 -552.5v1091h180v-1468q0 -81 -9.5 -136.5t-36 -105t-79.5 -75.5t-133 -29q-12 -2 -37 -2l-49 2q-52 8 -76 18l25 148q43 -17 86 -17q71 0 100 42.5t29 136.5z" />
    <glyph glyph-name="eng" unicode="&#x14b;" horiz-adv-x="1171" 
d="M846 -66v619q0 211 -61.5 296t-219.5 85q-149 0 -227 -27v-915h-174v1038q213 62 420 62q99 0 174.5 -23.5t124.5 -65.5t80 -105.5t44 -137t13 -166.5v-639q0 -65 -5.5 -111.5t-21.5 -91.5t-44 -73.5t-75 -46t-112 -19.5q-6 0 -17.5 -1t-17.5 -1q-69 0 -115 20l23 142
q47 -15 84 -15q69 0 98 41.5t29 134.5z" />
    <glyph glyph-name="Omacron" unicode="&#x14c;" horiz-adv-x="1589" 
d="M993 1671h-575v144h575v-144zM1118 711q0 126 -24.5 232t-73.5 188.5t-129 129t-184 46.5t-184 -46.5t-129 -129t-74 -188.5t-25 -232t24.5 -232.5t73 -189t129 -129.5t185.5 -47t185.5 47t129 130t72.5 189t24 232zM1298 707q0 -338 -158.5 -537t-432.5 -199t-433 199
t-159 537q0 336 159.5 536.5t432.5 200.5q272 0 431.5 -200.5t159.5 -536.5z" />
    <glyph glyph-name="omacron" unicode="&#x14d;" 
d="M850 1270h-576v143h576v-143zM854 541q0 91 -16.5 168.5t-50 139.5t-90.5 97t-132 35q-76 0 -133.5 -35t-91.5 -97t-51 -139.5t-17 -168.5q0 -124 28.5 -218.5t96 -154t168.5 -59.5q100 0 166.5 60t94.5 154t28 218zM1024 541q0 -255 -122 -411.5t-337 -156.5
q-217 0 -340 157t-123 411q0 168 53.5 295.5t158.5 200.5t249 73q217 0 339 -156.5t122 -412.5z" />
    <glyph glyph-name="Obreve" unicode="&#x14e;" horiz-adv-x="1589" 
d="M709 1606q-113 0 -191 70.5t-78 201.5v27h121q0 -17 3 -35t12.5 -41t24.5 -39.5t43 -28.5t65 -12q46 0 77.5 16.5t45.5 44t19.5 49.5t6.5 46h121q0 -148 -73 -223.5t-197 -75.5zM1118 711q0 126 -24.5 232t-73.5 188.5t-129 129t-184 46.5t-184 -46.5t-129 -129
t-74 -188.5t-25 -232t24.5 -232.5t73 -189t129 -129.5t185.5 -47t185.5 47t129 130t72.5 189t24 232zM1298 707q0 -338 -158.5 -537t-432.5 -199t-433 199t-159 537q0 336 159.5 536.5t432.5 200.5q272 0 431.5 -200.5t159.5 -536.5z" />
    <glyph glyph-name="obreve" unicode="&#x14f;" 
d="M563 1204q-113 0 -190.5 71t-77.5 202v26h121q0 -23 5.5 -45.5t19.5 -49.5t45.5 -43.5t76.5 -16.5q37 0 65.5 12t43.5 28.5t25 39.5t12.5 40t3.5 35h121q0 -148 -73.5 -223.5t-197.5 -75.5zM854 541q0 91 -16.5 168.5t-50 139.5t-90.5 97t-132 35q-76 0 -133.5 -35
t-91.5 -97t-51 -139.5t-17 -168.5q0 -124 28.5 -218.5t96 -154t168.5 -59.5q100 0 166.5 60t94.5 154t28 218zM1024 541q0 -255 -122 -411.5t-337 -156.5q-217 0 -340 157t-123 411q0 168 53.5 295.5t158.5 200.5t249 73q217 0 339 -156.5t122 -412.5z" />
    <glyph glyph-name="Ohungarumlaut" unicode="&#x150;" horiz-adv-x="1589" 
d="M1128 1925l119 -106l-272 -318l-101 74zM793 1925l118 -104l-272 -320l-100 74zM1260 711q0 270 -128 427.5t-348 157.5q-218 0 -346.5 -157.5t-128.5 -427.5q0 -269 128.5 -427.5t346.5 -158.5q219 0 347.5 158.5t128.5 427.5zM1452 711q0 -177 -52 -320t-143 -235
t-212 -141.5t-261 -49.5q-111 0 -211 31t-183.5 93t-144 150.5t-94.5 209t-34 262.5q0 176 52 318t143 233.5t212 140.5t260 49t260 -49t212 -140.5t143.5 -233.5t52.5 -318z" />
    <glyph glyph-name="ohungarumlaut" unicode="&#x151;" 
d="M934 1610l119 -107l-273 -319l-100 76zM596 1610l117 -105l-271 -321l-100 76zM909 532q0 189 -83 299.5t-228 110.5q-144 0 -227.5 -111.5t-83.5 -298.5q0 -189 83 -299t228 -110t228 110t83 299zM1094 530q0 -251 -137.5 -405t-358.5 -154q-220 0 -358 154t-138 405
q0 252 138 407t358 155t358 -155t138 -407z" />
    <glyph glyph-name="OE" unicode="&#x152;" horiz-adv-x="2029" 
d="M1960 -8h-852q-99 -12 -207 -12q-174 0 -316 45.5t-246 135t-161 229.5t-57 321q0 180 57 319.5t161 229t246 135t316 45.5q100 0 207 -13h799v-157h-645v-447h571v-155h-571v-518h698v-158zM1081 150v1120q-4 0 -26 3t-66.5 6t-101.5 3q-282 0 -430 -151t-148 -420
q0 -270 148 -422t430 -152q45 0 83 2t55.5 4t35 4.5t20.5 2.5z" />
    <glyph glyph-name="oe" unicode="&#x153;" horiz-adv-x="1931" 
d="M1090 627h555q-6 151 -74 232t-191 81t-202.5 -91t-87.5 -222zM915 530q0 187 -84.5 297.5t-230.5 110.5q-147 0 -232 -110.5t-85 -297.5t85 -296t232 -109q146 0 230.5 109.5t84.5 295.5zM1458 -31q-179 0 -290.5 58.5t-174.5 179.5q-128 -240 -395 -240
q-221 0 -359.5 155t-138.5 408t139 409.5t359 156.5q136 0 237.5 -65.5t161.5 -184.5q96 188 279 235q67 13 125 13q199 -6 310.5 -140.5t111.5 -390.5q0 -15 -2 -41.5t-2 -38.5h-734q15 -288 240 -344q61 -12 135 -12q142 2 260 57l29 -149q-37 -22 -117 -42.5t-174 -23.5z
" />
    <glyph glyph-name="Racute" unicode="&#x154;" horiz-adv-x="1284" 
d="M639 1577h-100l176 373h221zM889 999q0 77 -21.5 135t-55 91.5t-82.5 54t-95.5 27t-102.5 6.5q-117 0 -192 -27v-573h192q82 0 143 13t111.5 44.5t76.5 88.5t26 140zM1126 -4h-194q-256 432 -406 602h-186v-602h-170v1380q155 58 354 58q266 0 403.5 -111.5t137.5 -321.5
q0 -161 -93.5 -264t-260.5 -125v-2q160 -201 415 -614z" />
    <glyph glyph-name="racute" unicode="&#x155;" horiz-adv-x="780" 
d="M459 1231h-101l177 373h221zM156 1032q148 72 346 72q91 0 184 -14q-9 -32 -37 -134q-61 17 -135 17h-31q-100 0 -159 -33v-944h-168v1036z" />
    <glyph glyph-name="Rcommaaccent" unicode="&#x156;" horiz-adv-x="1280" 
d="M762 -147q0 -123 -65.5 -187.5t-180.5 -64.5q-56 4 -72 12v113q83 0 117.5 31.5t34.5 103.5v37h162q4 -16 4 -45zM563 1286q-66 0 -207 -12v-572h170q80 0 139.5 6t118 24t95.5 49t59.5 83.5t22.5 124.5q0 297 -398 297zM1151 989q0 -147 -79 -242.5t-216 -140.5
q87 -111 201 -287.5t180 -322.5h-199q-115 218 -358 557q-20 2 -60.5 6t-60.5 6h-203v-569h-182v1397q157 43 373 43q300 0 452 -113.5t152 -333.5z" />
    <glyph glyph-name="rcommaaccent" unicode="&#x157;" horiz-adv-x="780" 
d="M336 -147q0 -122 -66.5 -187t-181.5 -65q-55 4 -70 12v113q83 0 117.5 31.5t34.5 103.5v37h162q4 -32 4 -45zM543 1087q142 0 215 -30q-5 -24 -16.5 -71t-16.5 -71q-66 23 -182 23q-2 0 -7 1t-8 1q-105 0 -188 -29v-915h-176v1020q159 71 379 71z" />
    <glyph glyph-name="Rcaron" unicode="&#x158;" horiz-adv-x="1284" 
d="M373 1950l213 -193l213 193l75 -86l-288 -310l-289 310zM889 999q0 77 -21.5 135t-55 91.5t-82.5 54t-95.5 27t-102.5 6.5q-117 0 -192 -27v-573h192q82 0 143 13t111.5 44.5t76.5 88.5t26 140zM1126 -4h-194q-256 432 -406 602h-186v-602h-170v1380q155 58 354 58
q266 0 403.5 -111.5t137.5 -321.5q0 -161 -93.5 -264t-260.5 -125v-2q160 -201 415 -614z" />
    <glyph glyph-name="rcaron" unicode="&#x159;" horiz-adv-x="780" 
d="M258 1585l213 -192l213 192l76 -86l-289 -309l-289 309zM543 1087q142 0 215 -30q-5 -24 -16.5 -71t-16.5 -71q-66 23 -182 23q-2 0 -7 1t-8 1q-105 0 -188 -29v-915h-176v1020q159 71 379 71z" />
    <glyph glyph-name="Sacute" unicode="&#x15a;" horiz-adv-x="1077" 
d="M541 1577h-101l176 373h222zM922 375q0 -187 -127 -295.5t-340 -108.5q-237 0 -379 88q8 24 25.5 69t25.5 69q134 -84 315 -84q143 0 221 65.5t78 190.5q0 48 -14.5 86.5t-37.5 66.5t-65 54.5t-83 45.5t-105 44q-281 112 -323 307q-11 43 -11 100q6 167 122.5 269
t310.5 102q101 0 191 -25t144 -63l-51 -127q-129 78 -278 78q-124 0 -194.5 -62t-70.5 -176q0 -56 20.5 -99t65 -76t86 -53.5t113.5 -49.5q190 -74 275.5 -172t85.5 -244z" />
    <glyph glyph-name="sacute" unicode="&#x15b;" horiz-adv-x="892" 
d="M465 1231h-100l176 373h221zM770 287q0 -138 -106.5 -225t-284.5 -87q-188 0 -303 68l43 133q32 -25 99 -45t153 -20q104 0 166.5 45t62.5 127q0 79 -49 121.5t-178 93.5q-141 58 -207 131t-66 180q0 131 96.5 216t256.5 85q165 0 274 -66q-35 -103 -41 -124
q-100 59 -225 59q-90 0 -143.5 -43.5t-53.5 -118.5q0 -73 50.5 -115.5t166.5 -89.5q150 -57 219.5 -132t69.5 -193z" />
    <glyph glyph-name="Scircumflex" unicode="&#x15c;" horiz-adv-x="1077" 
d="M489 1704l-215 -191l-75 86l290 308l287 -308l-74 -86zM922 375q0 -187 -127 -295.5t-340 -108.5q-237 0 -379 88q8 24 25.5 69t25.5 69q134 -84 315 -84q143 0 221 65.5t78 190.5q0 48 -14.5 86.5t-37.5 66.5t-65 54.5t-83 45.5t-105 44q-281 112 -323 307
q-11 43 -11 100q6 167 122.5 269t310.5 102q101 0 191 -25t144 -63l-51 -127q-129 78 -278 78q-124 0 -194.5 -62t-70.5 -176q0 -56 20.5 -99t65 -76t86 -53.5t113.5 -49.5q190 -74 275.5 -172t85.5 -244z" />
    <glyph glyph-name="scircumflex" unicode="&#x15d;" horiz-adv-x="892" 
d="M414 1360l-215 -191l-76 86l291 308l286 -308l-73 -86zM770 287q0 -138 -106.5 -225t-284.5 -87q-188 0 -303 68l43 133q32 -25 99 -45t153 -20q104 0 166.5 45t62.5 127q0 79 -49 121.5t-178 93.5q-141 58 -207 131t-66 180q0 131 96.5 216t256.5 85q165 0 274 -66
q-35 -103 -41 -124q-100 59 -225 59q-90 0 -143.5 -43.5t-53.5 -118.5q0 -73 50.5 -115.5t166.5 -89.5q150 -57 219.5 -132t69.5 -193z" />
    <glyph glyph-name="Scedilla" unicode="&#x15e;" horiz-adv-x="1077" 
d="M590 -33v-10q0 -19 -8 -55q53 -26 79.5 -60.5t26.5 -87.5q-5 -66 -56 -110.5t-163 -44.5q-103 0 -160 26l23 119q51 -23 127 -23q69 3 69 54q-3 28 -25.5 43.5t-88.5 42.5q5 18 43 102q-137 5 -242.5 36t-155.5 64l58 156q167 -98 381 -98q325 0 325 231q0 52 -17 93.5
t-42 69t-70 54t-83 42.5t-99 40q-19 7 -29 11q-76 30 -129.5 55.5t-105 61.5t-82.5 76t-49.5 94.5t-18.5 121.5q0 187 125 287t350 100q113 0 220 -28.5t168 -69.5l-60 -152q-141 92 -330 92q-134 0 -211 -52.5t-77 -164.5q0 -37 9 -67.5t29.5 -55t43 -43.5t59.5 -38
t68.5 -32.5t79.5 -33.5q13 -5 20 -8q63 -26 99 -41.5t87.5 -41.5t80 -48t62 -55.5t50.5 -70t29 -85t12 -105.5q0 -176 -110 -274.5t-312 -116.5z" />
    <glyph glyph-name="scedilla" unicode="&#x15f;" horiz-adv-x="892" 
d="M393 121q248 0 248 145q0 72 -47.5 108t-198.5 99q-61 26 -95.5 42t-80.5 45.5t-70 59t-41.5 74t-17.5 99.5q0 138 103 220.5t280 82.5q163 0 295 -56l-37 -151q-1 1 -13.5 6t-17 6.5t-18 7t-21.5 8t-23 7t-27 6.5t-29.5 5.5t-33.5 5t-36 2.5t-41 1q-89 0 -147 -35.5
t-58 -105.5q0 -25 5.5 -45t22.5 -38t30.5 -29.5t48 -28t55 -25.5t70.5 -29q48 -20 75 -32t66 -32t61 -37t48 -42.5t39.5 -52.5t22.5 -63.5t9 -78.5q0 -127 -83.5 -203t-233.5 -94q0 -33 -10 -71q51 -28 76.5 -62t25.5 -82q0 -67 -52 -113t-163 -46q-106 0 -160 26l23 119
q51 -23 127 -23q69 3 69 54q-4 28 -27.5 43.5t-88.5 42.5q23 59 47 106q-178 4 -297 62l41 157q20 -12 49.5 -24t94.5 -26t136 -15z" />
    <glyph glyph-name="Scaron" unicode="&#x160;" horiz-adv-x="1077" 
d="M274 1950l213 -193l213 193l76 -86l-289 -310l-288 310zM922 375q0 -187 -127 -295.5t-340 -108.5q-237 0 -379 88q8 24 25.5 69t25.5 69q134 -84 315 -84q143 0 221 65.5t78 190.5q0 48 -14.5 86.5t-37.5 66.5t-65 54.5t-83 45.5t-105 44q-281 112 -323 307
q-11 43 -11 100q6 167 122.5 269t310.5 102q101 0 191 -25t144 -63l-51 -127q-129 78 -278 78q-124 0 -194.5 -62t-70.5 -176q0 -56 20.5 -99t65 -76t86 -53.5t113.5 -49.5q190 -74 275.5 -172t85.5 -244z" />
    <glyph glyph-name="scaron" unicode="&#x161;" horiz-adv-x="892" 
d="M199 1604l213 -193l213 193l75 -86l-288 -310l-289 310zM770 287q0 -138 -106.5 -225t-284.5 -87q-188 0 -303 68l43 133q32 -25 99 -45t153 -20q104 0 166.5 45t62.5 127q0 79 -49 121.5t-178 93.5q-141 58 -207 131t-66 180q0 131 96.5 216t256.5 85q165 0 274 -66
q-35 -103 -41 -124q-100 59 -225 59q-90 0 -143.5 -43.5t-53.5 -118.5q0 -73 50.5 -115.5t166.5 -89.5q150 -57 219.5 -132t69.5 -193z" />
    <glyph glyph-name="uni0162" unicode="&#x162;" horiz-adv-x="1140" 
d="M616 -98q51 -29 77 -62t26 -82q0 -67 -52.5 -113t-164.5 -46q-103 0 -160 26l23 119q51 -23 129 -23q67 3 67 50q0 29 -21.5 44.5t-79.5 39.5q-3 2 -5 2.5t-4.5 1.5t-4.5 2q30 83 58 131h-25v1276h-450v159h1083v-159h-450v-1276h-29q-1 -12 -17 -90z" />
    <glyph glyph-name="uni0163" unicode="&#x163;" horiz-adv-x="808" 
d="M330 391q0 -157 46.5 -210.5t162.5 -53.5q118 0 213 55l36 -145q-35 -23 -101.5 -43t-137.5 -23q0 -29 -8 -69q100 -57 100 -144q0 -67 -51.5 -113t-163.5 -46q-103 0 -160 26l23 119q37 -17 121 -20q76 0 79 49q-3 36 -47 59l-71 29q5 16 24 56t25 60q-68 10 -115.5 37
t-77 65.5t-46 99.5t-22 127t-5.5 161v926h176v-324h413v-149h-413v-529z" />
    <glyph glyph-name="Tcaron" unicode="&#x164;" horiz-adv-x="1140" 
d="M285 1950l213 -193l213 193l75 -86l-288 -310l-289 310zM954 1282h-366v-1286h-176v1286h-367v135h909v-135z" />
    <glyph glyph-name="tcaron" unicode="&#x165;" horiz-adv-x="833" 
d="M469 1614h178l-57 -414h-121v414zM778 37q-40 -23 -113 -43.5t-149 -20.5q-106 0 -177 29.5t-109.5 91t-54 140t-15.5 192.5h-6v70l6 426v446l178 35v-336h397v-143h-397v-531q0 -82 13 -136t41 -82.5t62 -39t85 -10.5q112 0 206 53q5 -23 16.5 -70t16.5 -71z" />
    <glyph glyph-name="Tbar" unicode="&#x166;" horiz-adv-x="1140" 
d="M29 1427h1083v-159h-450v-477h258v-144h-258v-655h-183v655h-258v144h258v477h-450v159z" />
    <glyph glyph-name="tbar" unicode="&#x167;" horiz-adv-x="808" 
d="M330 1405v-336h413v-149h-413v-295h405v-138h-405q0 -70 14 -116q1 -76 14.5 -126t41.5 -75t61 -34t82 -9q114 0 209 55l36 -147q-43 -25 -117 -45.5t-153 -20.5q-104 0 -175 26.5t-112.5 82.5t-59 133.5t-17.5 189.5v973z" />
    <glyph glyph-name="Utilde" unicode="&#x168;" horiz-adv-x="1400" 
d="M780 1550q-46 0 -100 20t-97.5 40t-64.5 20q-36 0 -59 -24.5t-49 -71.5l-103 55q12 31 30 59.5t44 58t62 47.5t77 18q50 0 104 -20t96 -40t62 -20q36 0 59.5 24.5t49.5 71.5l98 -55q-14 -29 -33.5 -57t-46 -58.5t-60.5 -49t-69 -18.5zM1130 465q0 -106 -30 -195.5
t-89 -157t-152.5 -105.5t-213.5 -38q-209 0 -331 111.5t-142 292.5q-8 81 -8 190v854h172v-833q0 -236 72 -352.5t241 -116.5q119 0 202 71t101 201q11 108 11 197v833h167v-952z" />
    <glyph glyph-name="utilde" unicode="&#x169;" horiz-adv-x="1171" 
d="M696 1204q-46 0 -100 20t-97.5 40t-64.5 20q-36 0 -59 -24.5t-49 -71.5l-103 55q12 31 30 59.5t44 58t62 47t77 17.5q50 0 104 -19.5t96 -39.5t62 -20q36 0 59.5 24.5t49.5 71.5l98 -56q-14 -29 -33.5 -57t-46 -58t-60.5 -48.5t-69 -18.5zM958 51q-160 -76 -399 -76
q-100 0 -173 24.5t-118 65.5t-72 105t-36.5 133.5t-9.5 161.5v622h167v-581q0 -82 5 -138t21 -108.5t43.5 -83.5t74 -49t112.5 -18q148 0 218 36v942h167v-1036z" />
    <glyph glyph-name="Umacron" unicode="&#x16a;" horiz-adv-x="1400" 
d="M942 1616h-575v143h575v-143zM1130 465q0 -106 -30 -195.5t-89 -157t-152.5 -105.5t-213.5 -38q-209 0 -331 111.5t-142 292.5q-8 81 -8 190v854h172v-833q0 -236 72 -352.5t241 -116.5q119 0 202 71t101 201q11 108 11 197v833h167v-952z" />
    <glyph glyph-name="umacron" unicode="&#x16b;" horiz-adv-x="1171" 
d="M858 1270h-575v143h575v-143zM958 51q-160 -76 -399 -76q-100 0 -173 24.5t-118 65.5t-72 105t-36.5 133.5t-9.5 161.5v622h167v-581q0 -82 5 -138t21 -108.5t43.5 -83.5t74 -49t112.5 -18q148 0 218 36v942h167v-1036z" />
    <glyph glyph-name="Ubreve" unicode="&#x16c;" horiz-adv-x="1400" 
d="M655 1550q-113 0 -190.5 71t-77.5 202v26h121q0 -23 5.5 -45.5t19.5 -49.5t45.5 -43.5t76.5 -16.5q37 0 65.5 12t43.5 28.5t25 39.5t12.5 40t3.5 35h121q0 -148 -73.5 -223.5t-197.5 -75.5zM1130 465q0 -106 -30 -195.5t-89 -157t-152.5 -105.5t-213.5 -38
q-209 0 -331 111.5t-142 292.5q-8 81 -8 190v854h172v-833q0 -236 72 -352.5t241 -116.5q119 0 202 71t101 201q11 108 11 197v833h167v-952z" />
    <glyph glyph-name="ubreve" unicode="&#x16d;" horiz-adv-x="1171" 
d="M571 1204q-113 0 -190.5 71t-77.5 202v26h121q0 -23 5.5 -45.5t19.5 -49.5t45.5 -43.5t76.5 -16.5q37 0 65.5 12t43.5 28.5t25 39.5t12.5 40t3.5 35h121q0 -148 -73.5 -223.5t-197.5 -75.5zM958 51q-160 -76 -399 -76q-100 0 -173 24.5t-118 65.5t-72 105t-36.5 133.5
t-9.5 161.5v622h167v-581q0 -82 5 -138t21 -108.5t43.5 -83.5t74 -49t112.5 -18q148 0 218 36v942h167v-1036z" />
    <glyph glyph-name="Uring" unicode="&#x16e;" horiz-adv-x="1400" 
d="M762 1753q0 51 -29.5 80t-75.5 29q-45 0 -74.5 -29t-29.5 -80q0 -52 29.5 -80t74.5 -28q46 0 75.5 28t29.5 80zM868 1753q0 -94 -61 -152.5t-150 -58.5q-88 0 -149.5 58t-61.5 153q0 94 61.5 151.5t149.5 57.5q89 0 150 -58t61 -151zM1130 465q0 -106 -30 -195.5
t-89 -157t-152.5 -105.5t-213.5 -38q-209 0 -331 111.5t-142 292.5q-8 81 -8 190v854h172v-833q0 -236 72 -352.5t241 -116.5q119 0 202 71t101 201q11 108 11 197v833h167v-952z" />
    <glyph glyph-name="uring" unicode="&#x16f;" horiz-adv-x="1171" 
d="M676 1409q0 51 -29.5 80t-75.5 29q-45 0 -74.5 -29t-29.5 -80q0 -52 29.5 -80.5t74.5 -28.5q46 0 75.5 28.5t29.5 80.5zM782 1409q0 -94 -61 -152.5t-150 -58.5q-88 0 -149.5 58t-61.5 153q0 94 61.5 151.5t149.5 57.5q89 0 150 -58t61 -151zM958 51q-160 -76 -399 -76
q-100 0 -173 24.5t-118 65.5t-72 105t-36.5 133.5t-9.5 161.5v622h167v-581q0 -82 5 -138t21 -108.5t43.5 -83.5t74 -49t112.5 -18q148 0 218 36v942h167v-1036z" />
    <glyph glyph-name="Uhungarumlaut" unicode="&#x170;" horiz-adv-x="1400" 
d="M778 1823l-270 -322l-98 78l252 352zM750 1579l251 350l119 -108l-274 -320zM1130 465q0 -106 -30 -195.5t-89 -157t-152.5 -105.5t-213.5 -38q-209 0 -331 111.5t-142 292.5q-8 81 -8 190v854h172v-833q0 -236 72 -352.5t241 -116.5q119 0 202 71t101 201q11 108 11 197
v833h167v-952z" />
    <glyph glyph-name="uhungarumlaut" unicode="&#x171;" horiz-adv-x="1171" 
d="M649 1526l-270 -322l-98 78l251 352zM621 1282l251 350l119 -108l-274 -320zM958 51q-160 -76 -399 -76q-100 0 -173 24.5t-118 65.5t-72 105t-36.5 133.5t-9.5 161.5v622h167v-581q0 -82 5 -138t21 -108.5t43.5 -83.5t74 -49t112.5 -18q148 0 218 36v942h167v-1036z" />
    <glyph glyph-name="Uogonek" unicode="&#x172;" horiz-adv-x="1400" 
d="M717 -37q-22 0 -58 4q-131 4 -228.5 48.5t-154.5 122t-84.5 174.5t-27.5 216v899h182v-880q0 -213 94 -317.5t260 -104.5q165 0 260 105t95 317v880h180v-899q0 -363 -231 -495q-54 -30 -101.5 -65.5t-86.5 -82.5t-40 -86q0 -59 74 -59h6q44 0 82 14l14 -131
q-60 -22 -133 -22q-217 0 -217 157q0 106 115 205z" />
    <glyph glyph-name="uogonek" unicode="&#x173;" horiz-adv-x="1171" 
d="M877 -399q-215 0 -215 155q0 41 16 84q34 72 133 150q-145 -19 -225 -19q-120 0 -205.5 35t-135 102.5t-71.5 155t-22 203.5v602h174v-561q0 -210 63 -295.5t217 -85.5q75 0 140 9t88 18v915h174v-1046q-21 -17 -95 -91q-18 -20 -34.5 -47.5t-29 -54.5t-15.5 -31
q0 -59 79 -59q48 4 82 14l15 -129q-66 -24 -133 -24z" />
    <glyph glyph-name="Wcircumflex" unicode="&#x174;" horiz-adv-x="1894" 
d="M895 1704l-215 -191l-76 86l291 308l287 -308l-74 -86zM1712 1417q-159 -798 -338 -1421h-166q-22 73 -84 273.5t-106.5 347t-85.5 292.5q-7 26 -16 64t-15 62t-10 36q-5 -11 -11.5 -35t-15 -61.5t-16.5 -65.5q-32 -113 -70.5 -242.5t-66.5 -218.5t-74.5 -236t-67.5 -216
h-161q-167 565 -338 1421h180q93 -509 201 -991q8 -33 18.5 -81t18 -81.5t12.5 -52.5q7 4 61 192q132 439 262 930h144q123 -479 262 -927q8 -26 21 -72.5t22 -75.5t16 -45q4 8 8.5 29.5t12 56.5t12.5 57q95 417 223 1061h168z" />
    <glyph glyph-name="wcircumflex" unicode="&#x175;" horiz-adv-x="1589" 
d="M797 1360l-215 -191l-76 86l291 308l286 -308l-73 -86zM1528 1087q-146 -559 -336 -1091h-145q-135 404 -224 717q-9 28 -17.5 73t-12.5 54q-103 -379 -256 -844h-148q-190 532 -336 1091h174q64 -288 213 -790q6 -21 12.5 -48t10.5 -42t8 -21l31 105q144 475 227 796
h141q70 -316 220 -796q7 -20 16.5 -58.5t13.5 -46.5q4 4 8 19t11 44.5t12 47.5q117 358 215 790h162z" />
    <glyph glyph-name="Ycircumflex" unicode="&#x176;" horiz-adv-x="1191" 
d="M561 1704l-215 -191l-76 86l291 308l287 -308l-74 -86zM1081 1417q-279 -533 -442 -813v-608h-174v606q-218 381 -442 815h194q185 -396 340 -672q142 255 346 672h178z" />
    <glyph glyph-name="ycircumflex" unicode="&#x177;" horiz-adv-x="1003" 
d="M502 1360l-215 -191l-76 86l291 308l286 -308l-73 -86zM950 1087q-200 -709 -372 -1159q-26 -67 -46.5 -108.5t-48 -80t-61 -56t-76.5 -17.5q-28 0 -53 4t-47.5 12t-36 14t-34 16.5t-25.5 13.5l32 106q5 -3 21 -12t21 -11.5t17.5 -8.5t18 -8t15 -5.5t17 -4.5t15.5 -1
q22 0 41 13.5t31.5 30t25.5 47.5t19 49.5t16 52.5q4 14 6 20q-239 564 -395 1093h178q83 -329 244 -772q44 -140 49 -151q4 2 11 26t18 64.5t16 58.5q76 235 221 774h162z" />
    <glyph glyph-name="Ydieresis" unicode="&#x178;" horiz-adv-x="1191" 
d="M856 1690q0 -52 -31.5 -83.5t-81.5 -31.5q-48 0 -79 31.5t-31 83.5t31 83t79 31q50 0 81.5 -31t31.5 -83zM477 1690q0 -52 -31 -83.5t-79 -31.5t-80.5 32t-32.5 83t32.5 82.5t80.5 31.5t79 -31t31 -83zM1081 1417q-279 -533 -442 -813v-608h-174v606q-218 381 -442 815
h194q185 -396 340 -672q142 255 346 672h178z" />
    <glyph glyph-name="Zacute" unicode="&#x179;" horiz-adv-x="1161" 
d="M573 1577h-100l176 373h221zM948 -4h-889v129q46 100 107 215t148 265t132.5 227.5t153 254.5t117.5 193h-625v137h838v-123q-48 -85 -190 -324t-265 -456t-203 -381h676v-137z" />
    <glyph glyph-name="zacute" unicode="&#x17a;" horiz-adv-x="944" 
d="M514 1231h-100l176 373h221zM819 -4h-753v100q61 117 150.5 267t220 358t151.5 242h-490v124h705v-104l-115 -174q-261 -392 -416 -690h547v-123z" />
    <glyph glyph-name="Zdotaccent" unicode="&#x17b;" horiz-adv-x="1161" 
d="M518 1563q-51 0 -84 32t-33 86t33 86.5t84 32.5q49 0 82 -32.5t33 -86.5t-33 -86t-82 -32zM948 -4h-889v129q46 100 107 215t148 265t132.5 227.5t153 254.5t117.5 193h-625v137h838v-123q-48 -85 -190 -324t-265 -456t-203 -381h676v-137z" />
    <glyph glyph-name="zdotaccent" unicode="&#x17c;" horiz-adv-x="944" 
d="M459 1217q-51 0 -84 32t-33 86t33 86.5t84 32.5q49 0 81.5 -32.5t32.5 -86.5t-32.5 -86t-81.5 -32zM819 -4h-753v100q61 117 150.5 267t220 358t151.5 242h-490v124h705v-104l-115 -174q-261 -392 -416 -690h547v-123z" />
    <glyph glyph-name="Zcaron" unicode="&#x17d;" horiz-adv-x="1161" 
d="M307 1950l213 -193l213 193l76 -86l-289 -310l-289 310zM948 -4h-889v129q46 100 107 215t148 265t132.5 227.5t153 254.5t117.5 193h-625v137h838v-123q-48 -85 -190 -324t-265 -456t-203 -381h676v-137z" />
    <glyph glyph-name="zcaron" unicode="&#x17e;" horiz-adv-x="944" 
d="M248 1604l213 -193l213 193l76 -86l-289 -310l-289 310zM819 -4h-753v100q61 117 150.5 267t220 358t151.5 242h-490v124h705v-104l-115 -174q-261 -392 -416 -690h547v-123z" />
    <glyph glyph-name="longs" unicode="&#x17f;" horiz-adv-x="528" 
d="M338 1163v-1171h-174v1175q0 430 407 430q80 0 141 -13.5t89 -29.5l-35 -149q-84 37 -184 37q-131 0 -187.5 -66.5t-56.5 -212.5z" />
    <glyph glyph-name="uni0180" unicode="&#x180;" horiz-adv-x="1200" 
d="M338 848v-698q77 -25 225 -25q162 0 258.5 106t96.5 297q0 69 -10.5 128t-35 110.5t-61.5 87.5t-92 57t-125 21q-77 0 -144.5 -26t-111.5 -58zM338 1599v-196h383v-135h-383v-256q42 30 114 52.5t160 22.5q152 0 263.5 -72t168 -197.5t56.5 -289.5q0 -259 -146.5 -410
t-388.5 -151q-223 0 -401 60v1241h-160v135h160v166z" />
    <glyph glyph-name="uni0181" unicode="&#x181;" horiz-adv-x="1486" 
d="M737 1286q-151 0 -198 -6v-463h168q66 0 111.5 2.5t99 10t88 23.5t65 41.5t45 65.5t14.5 93q0 233 -393 233zM811 664h-272v-517q78 -12 200 -12q97 0 173.5 12t143.5 41t103.5 84t36.5 134q0 144 -96.5 201t-288.5 57zM1313 1065q0 -114 -53 -193t-144 -112
q268 -75 268 -357q0 -426 -659 -426q-77 0 -186 12t-183 29v1252q-168 -11 -168 -183q0 -36 9 -75l-150 -21q-16 54 -16 115q0 63 17.5 112t47 84t79 60t103 40t129.5 23.5t148.5 11.5t169.5 3q125 0 226.5 -19t185 -61t130 -117t46.5 -178z" />
    <glyph glyph-name="uni0182" unicode="&#x182;" horiz-adv-x="1263" 
d="M352 883h174q320 0 485 -107t165 -342q0 -227 -158.5 -340.5t-468.5 -113.5q-224 0 -377 40v1407h877v-157h-697v-387zM508 727h-156v-577q153 -13 203 -13q432 0 432 295q0 71 -22.5 123t-61.5 84.5t-100.5 52.5t-131.5 27.5t-163 7.5z" />
    <glyph glyph-name="uni0183" unicode="&#x183;" horiz-adv-x="1200" 
d="M338 848v-698q77 -25 225 -25q162 0 258.5 106t96.5 297q0 69 -10.5 128t-35 110.5t-61.5 87.5t-92 57t-125 21q-77 0 -144.5 -26t-111.5 -58zM338 1438v-426q44 31 115.5 54.5t158.5 23.5q152 0 263.5 -72.5t168 -198.5t56.5 -291q0 -259 -146.5 -410t-388.5 -151
q-223 0 -401 60v1560h815v-149h-641z" />
    <glyph glyph-name="uni0184" unicode="&#x184;" horiz-adv-x="1200" 
d="M338 852v-702q77 -25 225 -25q162 0 258.5 106.5t96.5 298.5q0 88 -17.5 159t-54.5 127.5t-101 88t-151 31.5q-77 0 -144.5 -26t-111.5 -58zM338 1599v-583q43 30 114.5 53t159.5 23q152 0 263.5 -72.5t168 -198.5t56.5 -291q0 -260 -146.5 -411.5t-388.5 -151.5
q-223 0 -401 60v1286l-141 153q63 38 152.5 76.5t162.5 56.5z" />
    <glyph glyph-name="uni0185" unicode="&#x185;" horiz-adv-x="1245" 
d="M362 1442v-549q107 10 191 10q627 0 627 -461q0 -462 -623 -462q-220 0 -373 40v1133l-147 154q155 90 325 135zM559 745q-111 0 -197 -12v-583q106 -13 213 -13q92 1 162 15t130 46.5t92 94t32 149.5q0 86 -31.5 146.5t-91.5 94t-135 48t-174 14.5z" />
    <glyph glyph-name="uni0186" unicode="&#x186;" horiz-adv-x="1249" 
d="M446 125q247 0 372.5 155.5t125.5 430.5q0 270 -127 426.5t-360 156.5q-210 0 -361 -82l-49 154q53 34 166.5 63t259.5 29q145 0 266.5 -50t209.5 -143.5t137 -236t49 -319.5t-50.5 -319t-141 -235.5t-215 -143.5t-273.5 -50q-131 0 -241 30.5t-165 61.5l53 154
q147 -82 344 -82z" />
    <glyph glyph-name="uni0187" unicode="&#x187;" horiz-adv-x="1325" 
d="M811 1294q-241 0 -373.5 -157.5t-132.5 -425.5q0 -271 128 -428.5t362 -157.5q217 0 368 82l51 -154q-48 -32 -165.5 -62t-268.5 -30q-145 0 -266.5 50t-210.5 144t-138.5 236.5t-49.5 319.5q0 175 54.5 318.5t148 236t214.5 142.5t256 50q153 0 261 -45q29 103 94.5 152
t177.5 49q70 0 135 -25l-35 -135q-55 19 -96 19q-29 0 -51.5 -8.5t-36 -19.5t-25.5 -33.5t-17.5 -37t-14.5 -43.5l-35 -119q-53 27 -145.5 54.5t-188.5 27.5z" />
    <glyph glyph-name="uni0188" unicode="&#x188;" horiz-adv-x="1019" 
d="M748 1083q29 101 89 150t167 49h18q67 0 121 -20l-35 -134q-55 19 -94 19q-34 0 -60.5 -13.5t-41 -31t-26 -50t-15.5 -52t-9.5 -57.5t-7.5 -48q-105 43 -233 43q-165 0 -251.5 -107t-86.5 -303q0 -403 360 -403q126 0 238 55l32 -149q-47 -25 -129 -44.5t-163 -19.5
q-252 0 -386.5 152t-134.5 409q0 255 137 411.5t369 156.5q58 0 142 -13z" />
    <glyph glyph-name="uni0189" unicode="&#x189;" horiz-adv-x="1474" 
d="M383 668v-518q104 -13 201 -13q286 0 435.5 152t149.5 422q0 269 -149 420t-436 151q-105 0 -201 -12v-455h268v-147h-268zM1360 711q0 -180 -57.5 -320.5t-163 -230.5t-250.5 -136.5t-322 -46.5q-206 0 -366 39v652h-164v147h164v586q147 39 366 39q178 0 322 -45.5
t250 -134t163.5 -228.5t57.5 -321z" />
    <glyph glyph-name="uni018A" unicode="&#x18a;" horiz-adv-x="1632" 
d="M733 1282h-84q-83 0 -110 -4v-1128q104 -13 200 -13q287 0 437.5 152.5t150.5 421.5q0 270 -151 420.5t-443 150.5zM725 1440q177 0 321 -45.5t250 -134t164 -228.5t58 -321q0 -180 -58 -320.5t-164 -230.5t-251 -136.5t-322 -46.5q-207 0 -367 39v1254
q-168 -11 -168 -183q0 -36 9 -75l-150 -21q-16 54 -16 115q0 63 18 112.5t48 84.5t80 60t103.5 40t130 23t147.5 11t167 3z" />
    <glyph glyph-name="uni018B" unicode="&#x18b;" horiz-adv-x="1263" 
d="M739 883h172v387h-694v157h875v-1409q-157 -41 -375 -41q-309 0 -469 115t-160 342q0 238 164.5 343.5t486.5 105.5zM276 432q0 -70 25 -123t66.5 -85.5t102.5 -52.5t124.5 -27t142.5 -7q81 0 174 13v577h-80q-79 0 -137 -2.5t-119.5 -9.5t-103.5 -20t-81.5 -35t-63 -53
t-37 -75t-13.5 -100z" />
    <glyph glyph-name="uni018C" unicode="&#x18c;" horiz-adv-x="1200" 
d="M862 150v698q-44 32 -111.5 58t-144.5 26q-87 0 -150.5 -31t-100.5 -87.5t-54.5 -127.5t-17.5 -158q0 -191 96 -297t258 -106q148 0 225 25zM862 1012v426h-641v149h815v-1560q-178 -60 -401 -60q-242 0 -388.5 151t-146.5 410q0 165 56.5 291t168 198.5t263.5 72.5
q87 0 158.5 -23.5t115.5 -54.5z" />
    <glyph glyph-name="uni018D" unicode="&#x18d;" horiz-adv-x="1177" 
d="M604 186q126 57 208.5 160.5t82.5 245.5q0 67 -16.5 126.5t-50.5 110.5t-96 81t-144 30q-148 0 -226.5 -93t-78.5 -259q0 -53 11.5 -99.5t26.5 -79.5t45 -65.5t51.5 -51.5t62 -42.5t61 -33.5t63.5 -30zM532 -238q84 0 139.5 25.5t55.5 83.5q0 39 -28.5 70.5t-57.5 47.5
t-112 55q-20 10 -31 15q-71 36 -120.5 65.5t-106 77t-91 98.5t-57.5 124t-23 160q0 83 18 157t56.5 139.5t94.5 113t138 75t181 27.5q100 0 183 -28.5t139 -77t94.5 -113.5t55.5 -135.5t17 -145.5q0 -159 -92 -290t-242 -197q59 -36 93 -72t51 -82q12 -37 12 -84
q0 -73 -32.5 -126t-89 -81t-121 -40.5t-140.5 -12.5q-98 0 -183 18t-130 39l37 144q92 -48 262 -50h30z" />
    <glyph glyph-name="uni018E" unicode="&#x18e;" horiz-adv-x="1150" 
d="M979 -8h-909v158h727v518h-600v155h600v447h-674v157h856v-1435z" />
    <glyph glyph-name="uni018F" unicode="&#x18f;" horiz-adv-x="1431" 
d="M119 758h1007q-10 264 -137.5 401t-349.5 137q-113 0 -215.5 -27t-163.5 -69l-55 154q65 40 178 72t262 32q311 0 491.5 -195.5t180.5 -543.5q0 -186 -49.5 -332t-136.5 -238t-201.5 -140t-249.5 -48q-274 0 -421.5 182t-147.5 537q0 38 8 78zM1124 602h-823
q3 -218 101 -349.5t282 -131.5q85 0 157 28.5t120.5 75.5t84.5 110.5t54 130t24 136.5z" />
    <glyph glyph-name="uni0190" unicode="&#x190;" horiz-adv-x="1148" 
d="M291 391q0 -139 96.5 -204t263.5 -65q23 0 35 1q112 1 206 30.5t150 63.5l58 -156q-62 -36 -178 -68t-252 -32q-129 0 -231 24t-179.5 74t-118.5 133.5t-41 196.5q0 82 26 149t72 112t102 74.5t124 45.5q-95 25 -157.5 84.5t-86.5 138.5q-14 52 -14 109
q6 177 136.5 266.5t348.5 89.5q120 0 228.5 -29.5t175.5 -72.5l-64 -152q-137 94 -338 94q-121 0 -200 -45t-79 -137q0 -27 7 -51q0 -65 30 -113t80.5 -73.5t106.5 -37.5t119 -12h143v-155h-117q-81 0 -145.5 -7.5t-123.5 -26.5t-98 -50.5t-62 -81.5t-23 -117z" />
    <glyph glyph-name="uni0191" unicode="&#x191;" horiz-adv-x="1081" 
d="M354 655v-444q0 -27 1 -84t1 -84q0 -56 -2 -98t-9.5 -89.5t-20 -81.5t-35 -67t-53 -53t-75 -32.5t-100.5 -12.5q-65 0 -129 22l25 148q43 -17 88 -17q36 0 59.5 11t37 28.5t20.5 53.5t8.5 69.5t1.5 93.5v66v1343h846v-157h-664v-455h590v-160h-590z" />
    <glyph glyph-name="florin" unicode="&#x192;" horiz-adv-x="782" 
d="M338 920v-791q0 -123 -9.5 -204t-35.5 -147t-74 -103t-123 -54q-48 -10 -100 -10h-25q-63 0 -112 22l24 146q46 -17 99 -17q104 0 143 58.5t39 189.5v1176q9 411 407 411q80 0 141 -13.5t89 -29.5l-35 -149q-84 37 -184 37q-64 0 -108 -14.5t-71 -40.5t-41 -74.5
t-19 -103t-5 -140.5h418v-149h-418z" />
    <glyph glyph-name="uni0193" unicode="&#x193;" horiz-adv-x="1376" 
d="M797 1458q158 0 270 -45q29 105 94 153t180 48q73 0 138 -25l-35 -135q-55 19 -96 19q-20 0 -37.5 -4.5t-29.5 -9.5t-23.5 -18t-18 -20.5t-14.5 -26t-11 -26.5t-10.5 -30.5l-9.5 -28.5l-37 -92q-46 27 -138 52t-206 25q-234 0 -371 -151.5t-137 -431.5q0 -274 127.5 -430
t370.5 -156q176 0 246 27v540h182v-657q-58 -25 -179 -48.5t-272 -23.5q-144 0 -265.5 50t-210.5 143.5t-139 236t-50 318.5t54 319t147.5 235.5t216.5 142.5t264 50z" />
    <glyph glyph-name="uni0194" unicode="&#x194;" horiz-adv-x="1306" 
d="M752 326l26 -45q9 -15 38 -64t40 -68t32 -60.5t29.5 -67.5t16.5 -61.5t8 -68.5q0 -35 -7 -69.5t-27 -73t-51 -67t-83 -47.5t-119 -19q-82 0 -142 27.5t-90 72t-43 88t-13 88.5q0 27 4 54.5t15.5 58.5t19.5 52t28 58t29 53t34.5 59t32.5 55l23 36q-262 453 -547 1110h203
q241 -570 446 -948q186 347 449 948h194q-213 -526 -546 -1101zM653 186q-36 -54 -57.5 -92t-42.5 -94t-21 -102q0 -57 30 -93t91 -36q60 0 90.5 36.5t30.5 92.5q0 45 -22 103t-41.5 91.5t-57.5 93.5z" />
    <glyph glyph-name="uni0195" unicode="&#x195;" horiz-adv-x="1810" 
d="M993 590v-121q0 -184 59 -263t187 -79q126 0 186 79.5t60 262.5v600h174v-614q0 -113 -21 -199t-68 -152.5t-130 -101.5t-201 -35t-202 35t-131 101.5t-68 152.5t-21 199v94q0 109 -11 178.5t-40.5 118t-79 68.5t-127.5 20q-58 0 -126 -15.5t-95 -27.5v-899h-174v1577
l174 30v-552q124 45 242 45q98 0 170.5 -24.5t118.5 -66.5t74 -106.5t39 -137.5t11 -167z" />
    <glyph glyph-name="uni0196" unicode="&#x196;" horiz-adv-x="761" 
d="M170 356v1071h180v-1075q0 -91 23.5 -142.5t63 -69t104.5 -17.5q94 0 166 35l36 -150q-33 -17 -96 -32t-131 -15q-178 0 -262 91t-84 304z" />
    <glyph glyph-name="uni0197" unicode="&#x197;" horiz-adv-x="647" 
d="M414 -8h-183v676h-196v143h196v616h183v-616h198v-143h-198v-676z" />
    <glyph glyph-name="uni0198" unicode="&#x198;" horiz-adv-x="1343" 
d="M807 1307q66 73 129.5 111t150.5 38q128 0 226 -102l-88 -127q-67 71 -138 71q-38 0 -73.5 -20t-85.5 -70q-164 -166 -402 -448q182 -117 401.5 -351.5t317.5 -416.5h-201q-136 197 -326.5 387t-363.5 291v-678h-182v1435h182v-639q193 240 359 418z" />
    <glyph glyph-name="uni0199" unicode="&#x199;" horiz-adv-x="1038" 
d="M164 -8v1261q0 67 6 115t23.5 94t48 74t81.5 44.5t121 16.5q69 0 127 -20l-24 -139q-46 12 -82 12q-31 0 -52.5 -6.5t-35.5 -23.5t-22 -34.5t-11.5 -52.5t-4.5 -64t-1 -82v-34v-535q296 292 432 451h211q-219 -233 -475 -489q125 -90 274 -263t238 -325h-205
q-88 147 -221.5 289t-253.5 223v-512h-174z" />
    <glyph glyph-name="uni019A" unicode="&#x19a;" horiz-adv-x="557" 
d="M516 119l-24 -148q-155 8 -227.5 67.5t-78.5 199.5q-4 114 -4 176v342h-157v137h157v676l174 30v-706h191v-137h-191v-477q0 -88 34 -118.5t126 -41.5z" />
    <glyph glyph-name="uni019B" unicode="&#x19b;" horiz-adv-x="1024" 
d="M334 1298q-45 106 -93.5 143.5t-146.5 37.5h-20q2 31 20 102q36 16 109 16q63 0 115 -18t89.5 -52.5t64.5 -72.5t52 -90q41 14 127 44t127 44l47 -133l-245 -84q218 -546 417 -1243h-184q-118 464 -274 887q-228 -440 -336 -887h-178q56 218 176.5 517t253.5 550
q-15 54 -35 121q-25 -8 -105 -35.5t-122 -40.5l-48 131q63 23 189 63z" />
    <glyph glyph-name="uni019C" unicode="&#x19c;" horiz-adv-x="1980" 
d="M1012 100q-182 -139 -385 -139q-92 0 -164.5 18t-122.5 54t-85 84t-54.5 113.5t-28 135.5t-8.5 158v903h182v-843q0 -128 12 -210t44.5 -141t89.5 -84.5t147 -25.5q97 0 171.5 35.5t121.5 77.5q-37 110 -37 296v895h182v-866q0 -118 13 -196.5t46 -134.5t89.5 -81.5
t142.5 -25.5q75 0 149 11t109 22v1271h182v-1394q-223 -72 -448 -72q-230 0 -348 139z" />
    <glyph glyph-name="uni019D" unicode="&#x19d;" horiz-adv-x="1466" 
d="M352 1135v-996v-104q0 -59 -1.5 -98.5t-8 -88.5t-18 -80.5t-32.5 -64.5t-51 -51.5t-74 -30.5t-101 -12q-70 0 -134 22l25 148q43 -17 88 -17q69 0 98 42.5t29 136.5v1486h143q194 -214 430.5 -538.5t366.5 -552.5v1091h180v-1435h-145q-73 117 -78 125
q-144 238 -356 539.5t-361 478.5z" />
    <glyph glyph-name="uni019E" unicode="&#x19e;" horiz-adv-x="1175" 
d="M164 -8v1032q161 68 420 68q99 0 174.5 -23.5t124.5 -65.5t80 -105.5t44 -137t13 -166.5v-981h-174v940q0 210 -61.5 295.5t-219.5 85.5q-149 0 -227 -27v-915h-174z" />
    <glyph glyph-name="uni019F" unicode="&#x19f;" horiz-adv-x="1589" 
d="M795 1294q-207 0 -336 -133.5t-148 -367.5h969q-20 235 -149 368t-336 133zM795 125q210 0 340 137.5t145 378.5h-971q13 -240 144.5 -378t341.5 -138zM1475 711q0 -180 -54 -324.5t-147.5 -236.5t-215.5 -140.5t-263 -48.5q-140 0 -262 48.5t-216 140.5t-148 236.5
t-54 324.5q0 179 54.5 323.5t148.5 235.5t216 139.5t261 48.5q140 0 262 -48.5t216 -140t148 -235.5t54 -323z" />
    <glyph glyph-name="Ohorn" unicode="&#x1a0;" horiz-adv-x="1589" 
d="M1284 711q0 271 -132 427t-357 156t-357.5 -156.5t-132.5 -426.5t132.5 -428t357.5 -158t357 158t132 428zM1475 711q0 -180 -54 -324.5t-147.5 -236.5t-215.5 -140.5t-263 -48.5q-140 0 -262 48.5t-216 140.5t-148 236.5t-54 324.5q0 179 54.5 323.5t148.5 235.5
t216 139.5t261 48.5q240 0 407 -133q52 50 73 104.5t21 133.5q0 48 -6 84h172q1 -9 2.5 -24.5t2.5 -27.5t1 -20q0 -228 -153 -354q160 -197 160 -510z" />
    <glyph glyph-name="ohorn" unicode="&#x1a1;" horiz-adv-x="1208" 
d="M915 530q0 187 -84.5 297.5t-230.5 110.5q-147 0 -232 -110.5t-85 -297.5t85 -296t232 -109q146 0 230.5 109.5t84.5 295.5zM1098 530q0 -253 -138.5 -408t-359.5 -155t-360.5 155t-139.5 408t140 409.5t360 156.5q189 0 320 -125q51 53 72.5 106t21.5 129q0 44 -8 84
h168q6 -60 6 -63q0 -47 -6 -94q-23 -167 -158 -277q82 -133 82 -326z" />
    <glyph glyph-name="uni01A2" unicode="&#x1a2;" horiz-adv-x="2072" 
d="M768 125q214 0 338.5 158t124.5 428q0 271 -124.5 427t-338.5 156t-338.5 -156t-124.5 -427q0 -270 124.5 -428t338.5 -158zM768 1458q224 0 397 -135q157 133 340 133q82 0 144.5 -16t106 -49.5t72 -77t44.5 -106t22.5 -128.5t6.5 -153v-934h-183v921q0 209 -48 296
t-181 87q-103 0 -215 -88q147 -198 147 -497q0 -180 -52.5 -324.5t-142.5 -236.5t-207 -140.5t-251 -48.5q-106 0 -202.5 30t-178.5 92t-142.5 150t-95 210.5t-34.5 267.5q0 179 53 323.5t143.5 235.5t207.5 139.5t249 48.5z" />
    <glyph glyph-name="uni01A3" unicode="&#x1a3;" horiz-adv-x="1656" 
d="M895 530q0 186 -83 297t-222 111q-144 0 -225.5 -110t-81.5 -298q0 -186 82.5 -295.5t224.5 -109.5q141 0 223 109.5t82 295.5zM1077 530q0 -253 -136 -408t-351 -155q-217 0 -353.5 155t-136.5 408t137.5 409.5t352.5 156.5q164 0 289 -101q124 97 268 97q75 0 133 -15
t96.5 -46t64.5 -70.5t39.5 -96.5t19 -115t5.5 -135v-1001h-174v983q0 179 -40.5 260.5t-153.5 81.5q-91 0 -158 -59q98 -148 98 -349z" />
    <glyph glyph-name="uni01A4" unicode="&#x1a4;" horiz-adv-x="1413" 
d="M733 1282h-85q-83 0 -109 -4v-588h157q113 0 193 13t143.5 45t95 92t31.5 149q0 293 -426 293zM723 1440q625 0 625 -453q0 -240 -163 -348.5t-474 -108.5h-172v-538h-183v1278q-168 -11 -168 -183q0 -36 9 -75l-150 -21q-16 54 -16 115q0 55 12.5 100t39 78.5t60 58.5
t83 42t100 28t118.5 17t132 8t147 2z" />
    <glyph glyph-name="uni01A5" unicode="&#x1a5;" horiz-adv-x="1200" 
d="M338 893v-684q42 -32 110 -58t146 -26q87 0 151 30.5t101 86t54.5 126.5t17.5 158q0 192 -96.5 300t-260.5 108q-54 0 -125 -15t-98 -26zM164 1253q0 66 6 114t23 93.5t46.5 73.5t79 44.5t117.5 16.5q12 0 33 -1t31 -1q60 -12 71 -16l-24 -139q-46 12 -82 12
q-70 0 -98.5 -41.5t-28.5 -134.5v-227q116 45 235 45q237 0 382 -153.5t145 -410.5q0 -251 -129.5 -406t-358.5 -155q-87 0 -158.5 23.5t-115.5 54.5v-432h-174v1640z" />
    <glyph glyph-name="uni01A6" unicode="&#x1a6;" horiz-adv-x="1280" 
d="M553 1276q-127 0 -199 -10v-553h86h3q80 0 120 0.5t106.5 6t100.5 15.5t78.5 30t66 49.5t37 74t15.5 102.5q0 67 -22.5 118t-59.5 82.5t-92 50.5t-112.5 26.5t-127.5 7.5zM172 1597h182v-172q118 11 195 11q606 0 606 -447q0 -291 -295 -389q101 -130 241 -355.5
t249 -475.5h-197q-188 408 -479 794q-58 -6 -117 -6h-203v-565h-182v1605z" />
    <glyph glyph-name="uni01A7" unicode="&#x1a7;" horiz-adv-x="1077" 
d="M580 121q214 0 381 98l57 -156q-62 -38 -176.5 -70t-263.5 -32q-247 0 -379.5 101t-132.5 296q0 45 7 84t18 70.5t32 61t40 51t51.5 44.5t57 38t67 34.5t71 31.5t77.5 32q149 61 196 91q99 62 110 158q2 14 2 29q0 111 -77.5 164t-211.5 53q-191 0 -328 -92l-61 152
q62 40 170 69t221 29q226 0 348.5 -99.5t122.5 -287.5q0 -66 -18.5 -120.5t-49.5 -94.5t-82.5 -76t-106 -62t-130.5 -56q-13 -5 -40 -16q-46 -18 -69 -27.5t-61.5 -28t-57.5 -32.5t-44 -36.5t-37 -46t-20.5 -55t-8.5 -68.5q0 -231 326 -231z" />
    <glyph glyph-name="uni01A8" unicode="&#x1a8;" horiz-adv-x="892" 
d="M492 121q169 0 288 65l41 -155q-139 -64 -332 -64q-204 0 -309.5 77t-105.5 226q0 42 9.5 78.5t23.5 63.5t40.5 53t49.5 43t62.5 37t68 32t75.5 31q55 22 82 34t60.5 31t47.5 35.5t24 40.5t10 54q0 70 -58 105.5t-147 35.5q-21 0 -41 -1t-36 -2.5t-33.5 -5t-29.5 -5.5
t-27 -6.5t-23 -7t-21.5 -8t-18 -7t-17 -6.5t-13.5 -6l-37 151q132 56 301 56q178 0 276.5 -80.5t98.5 -222.5q0 -39 -9 -73.5t-22 -60t-38 -50t-46.5 -41t-58 -35.5t-62.5 -30.5t-69 -29.5q-151 -63 -198.5 -99t-47.5 -108q0 -145 242 -145z" />
    <glyph glyph-name="uni01A9" unicode="&#x1a9;" horiz-adv-x="1142" 
d="M760 741q-57 -69 -161.5 -189t-183.5 -217t-139 -185h791v-158h-999v145q37 58 98.5 136.5t148.5 184t123 150.5l107 131q-62 79 -164.5 202t-175.5 213.5t-111 148.5v124h971v-157h-727q30 -45 98.5 -130.5t165 -202.5t158.5 -196z" />
    <glyph glyph-name="uni01AA" unicode="&#x1aa;" horiz-adv-x="647" 
d="M164 1161q46 0 76 20t69 64v41q0 82 -39.5 124t-107.5 42q-67 0 -100 -40t-33 -105q0 -64 34 -105t101 -41zM309 -96v1177q-73 -67 -170 -67q-119 0 -195.5 81.5t-76.5 209.5q0 136 84 215t213 79q51 0 93.5 -9.5t73.5 -24t55.5 -41.5t40.5 -51.5t27 -64t16.5 -69
t8.5 -78t3.5 -79t0.5 -82.5v-19v-1165q0 -88 33.5 -118.5t126.5 -41.5q-24 -123 -33 -147q-160 8 -230.5 74t-70.5 221z" />
    <glyph glyph-name="uni01AB" unicode="&#x1ab;" horiz-adv-x="808" 
d="M532 127q132 0 228 33q16 -102 16 -211q0 -82 -11 -139t-40 -104.5t-85 -71t-140 -23.5q-71 0 -129 20l24 142q40 -15 86 -15q69 0 98 38.5t31 125.5q0 52 -2 64q-74 -9 -127 -9q-84 2 -142 25t-94.5 61t-56.5 103t-27 138.5t-7 180.5v889l176 31v-336h413v-149h-413
v-529q0 -80 13 -132.5t40.5 -81t62 -39.5t86.5 -11z" />
    <glyph glyph-name="uni01AC" unicode="&#x1ac;" horiz-adv-x="1179" 
d="M518 1268h-145q-91 0 -138 -47t-47 -136q0 -36 9 -75l-150 -21q-16 58 -16 115q0 50 9 91.5t24.5 72.5t41 55.5t51.5 41t64.5 28.5t72 18.5t80.5 10t85 4.5t90 1h117h485v-159h-453v-1276h-180v1276z" />
    <glyph glyph-name="uni01AD" unicode="&#x1ad;" horiz-adv-x="808" 
d="M330 1069h418v-149h-418v-529q0 -111 25 -169t77 -79q41 -16 111 -16q112 2 211 55l37 -145q-44 -26 -118 -47t-155 -21q-104 0 -174.5 26.5t-112 82.5t-59.5 134t-18 189v766q0 430 409 430q77 0 138 -13t90 -28l-35 -151q-80 37 -185 37q-64 0 -107 -14.5t-70 -40.5
t-41 -74.5t-18.5 -103t-4.5 -140.5z" />
    <glyph glyph-name="uni01AE" unicode="&#x1ae;" horiz-adv-x="1140" 
d="M662 1268v-1327q0 -94 29 -136.5t100 -42.5q42 0 88 17l22 -148q-64 -22 -129 -22q-71 0 -123.5 17t-84.5 46t-51.5 75t-26.5 96t-7 116v1309h-450v159h1083v-159h-450z" />
    <glyph glyph-name="Uhorn" unicode="&#x1af;" horiz-adv-x="1435" 
d="M1055 1427h137q56 0 91.5 33.5t35.5 106.5q0 40 -6 82h170q6 -37 6 -72q0 -40 -7 -77t-25 -73.5t-46 -64.5t-73 -47.5t-103 -24.5v-762q0 -124 -30 -225t-92 -179t-167 -120.5t-246 -42.5q-114 0 -205 28.5t-152 79t-102 122.5t-59 155.5t-18 181.5v899h182v-858
q0 -444 354 -444q166 0 260.5 104.5t94.5 317.5v880z" />
    <glyph glyph-name="uhorn" unicode="&#x1b0;" horiz-adv-x="1208" 
d="M1008 934v-903q-206 -60 -422 -60q-120 0 -205.5 35t-135 102.5t-71.5 155t-22 203.5v602h174v-561q0 -210 63 -295.5t217 -85.5q75 0 140 9t88 18v915h139q54 2 88.5 34.5t34.5 104.5q0 21 -9 82h166q7 -51 7 -73q0 -50 -13 -95t-40.5 -86.5t-78.5 -68.5t-120 -33z" />
    <glyph glyph-name="uni01B1" unicode="&#x1b1;" horiz-adv-x="1595" 
d="M799 -39q-138 0 -258 46t-211.5 132t-144 221.5t-52.5 303.5q0 103 23.5 199.5t64 172t83.5 133t93 103.5h-297v155h551v-122q-327 -250 -327 -643q0 -249 130 -393t345 -144t344 144t129 393q0 392 -328 643v122h551v-155h-297q49 -47 92 -103.5t84 -132t64.5 -172
t23.5 -200.5q0 -168 -52.5 -303.5t-143.5 -221.5t-210.5 -132t-256.5 -46z" />
    <glyph glyph-name="uni01B2" unicode="&#x1b2;" horiz-adv-x="1406" 
d="M1270 735q0 -77 -6.5 -148t-24 -150.5t-45 -146t-73.5 -129t-106 -105.5t-145 -69t-188 -26q-137 0 -238.5 42.5t-161.5 120t-89 176.5t-29 220v907h182v-886q0 -208 89.5 -312t236.5 -104q204 0 307.5 142t103.5 450q0 288 -71 423.5t-224 135.5q-43 0 -81 -10l-15 151
q47 15 127 15q451 0 451 -697z" />
    <glyph glyph-name="uni01B3" unicode="&#x1b3;" horiz-adv-x="1357" 
d="M598 739q21 41 186 348q10 19 34.5 65.5t36 67t33.5 58.5t38 57t37.5 42.5t43.5 37t46 19.5q37 12 80 12q140 0 245 -109l-88 -125q-68 76 -139 76q-39 0 -60.5 -15.5t-50.5 -64.5q-221 -368 -338 -600h3q-3 -21 -8.5 -64t-8.5 -65v-487h-182v583q-308 474 -502 852h211
q159 -336 383 -688z" />
    <glyph glyph-name="uni01B4" unicode="&#x1b4;" horiz-adv-x="1148" 
d="M883 805q-112 -434 -230 -746q-84 -215 -165 -315.5t-216 -126.5q-58 -9 -102 -9q-49 0 -101 12t-75 24l33 143q69 -33 137 -33q108 0 173 51.5t116 178.5q-293 549 -426 1085h184q44 -195 130 -431.5t196 -459.5q62 186 161 559q41 157 56 194q40 104 114 138
q48 21 117 21q71 0 166 -35l-39 -140q-52 25 -102 25q-57 0 -83 -30t-44 -105z" />
    <glyph glyph-name="uni01B5" unicode="&#x1b5;" horiz-adv-x="1161" 
d="M1069 1427v-151q-112 -124 -356 -459h311v-147h-418q-213 -305 -327 -520h813v-158h-1024v127q119 230 335 551h-243v147h346q222 313 348 453h-748v157h963z" />
    <glyph glyph-name="uni01B6" unicode="&#x1b6;" horiz-adv-x="944" 
d="M858 1069v-133q-95 -103 -250 -309h236v-135h-342q-143 -198 -228 -353h603v-147h-809v117q90 166 243 383h-182v135h283q137 185 229 295h-543v147h760z" />
    <glyph glyph-name="uni01B7" unicode="&#x1b7;" horiz-adv-x="1136" 
d="M1042 391q0 -113 -41.5 -197t-118.5 -134.5t-178.5 -74.5t-230.5 -24q-138 0 -252.5 33t-175.5 69l57 156q61 -37 159.5 -67.5t213.5 -30.5q377 0 377 272q0 67 -23.5 118t-63 83t-98 51.5t-122 27t-142.5 7.5h-34v70l2 45q30 30 63 65t68 75.5t62 71.5t65 77.5t55 67
t54 66.5t42 52h-669v157h901v-110q-114 -166 -426 -510q72 -8 135 -25.5t123 -50t103 -78t69 -112.5t26 -150z" />
    <glyph glyph-name="uni01B8" unicode="&#x1b8;" horiz-adv-x="1138" 
d="M94 391q0 83 26 150.5t69 113t103.5 78t123.5 50t135 24.5q-288 314 -426 510v110h901v-157h-666q70 -93 191.5 -235t220.5 -242v-113h-39q-100 0 -176 -13t-140.5 -43.5t-99 -88.5t-34.5 -142q0 -272 376 -272q205 0 375 100l60 -155q-190 -105 -432 -105
q-129 0 -230.5 24t-178.5 74.5t-118 134.5t-41 197z" />
    <glyph glyph-name="uni01B9" unicode="&#x1b9;" horiz-adv-x="956" 
d="M705 451v-125h-68q-61 0 -111 -6t-102 -24t-87.5 -47t-58 -79t-22.5 -117q0 -137 87.5 -209.5t258.5 -72.5q192 0 316 63l43 -149q-53 -29 -150.5 -50.5t-210.5 -21.5q-247 0 -385.5 112t-138.5 328q0 101 35 177.5t97 123t135.5 71.5t160.5 32q-99 114 -210.5 262.5
t-170.5 245.5v104h792v-149h-573q61 -93 166 -230t197 -239z" />
    <glyph glyph-name="uni01BA" unicode="&#x1ba;" horiz-adv-x="944" 
d="M471 573q205 -29 298 -99.5t93 -211.5q0 -74 -25 -130t-57.5 -90t-100.5 -64t-115.5 -44t-141.5 -38q-5 -1 -8 -2q-133 -38 -169 -57q-65 -35 -65 -95q0 -61 27 -104l-148 -31q-43 65 -43 143q0 59 23 104t61.5 74t88.5 51t105 37t110 29.5t105 32t88.5 40.5t61.5 59.5
t23 84.5q0 98 -95 142t-313 53v125q187 161 334 338h-565v149h780v-119q-157 -208 -352 -377z" />
    <glyph glyph-name="uni01BB" unicode="&#x1bb;" horiz-adv-x="1087" 
d="M926 1067q0 -156 -146 -330h181v-143h-316q-161 -151 -215 -213q-119 -136 -121 -234h658v-155h-858q-5 25 -5 63q0 81 25.5 157t75 145.5t96.5 120.5t117 116h-244v143h391q82 80 128 157t46 165q0 123 -69.5 182t-186.5 59q-58 0 -113 -15.5t-96 -40.5t-65.5 -44
t-44.5 -39l-92 125q22 24 58.5 50.5t89 55.5t122.5 47.5t141 18.5q216 0 329.5 -102t113.5 -289z" />
    <glyph glyph-name="uni01BC" unicode="&#x1bc;" horiz-adv-x="1107" 
d="M135 203q54 -30 145.5 -54t196.5 -24q115 0 197 31q170 57 170 241q0 161 -148.5 240.5t-488.5 79.5q39 323 47 553h-199v157h922v-157h-557q-12 -298 -31 -400q334 -21 488.5 -139t154.5 -332q0 -202 -136 -320t-417 -118q-116 0 -233 29t-154 55z" />
    <glyph glyph-name="uni01BD" unicode="&#x1bd;" horiz-adv-x="1009" 
d="M926 303q0 -156 -117 -246t-352 -90q-107 0 -215 20t-152 46l41 153q131 -61 307 -63q85 0 131 10q179 35 179 172q0 121 -97.5 167t-349.5 46h-113l21 201q3 39 8 105t8 98h-164v147h820v-147h-498q-3 -28 -8 -83.5t-9 -100t-8 -79.5q138 0 238.5 -17t176.5 -57
t114.5 -110.5t38.5 -171.5z" />
    <glyph glyph-name="uni01BE" unicode="&#x1be;" horiz-adv-x="931" 
d="M418 121q260 0 260 145q0 37 -12.5 63.5t-48.5 51.5t-75.5 44t-119.5 52q-46 19 -68.5 29.5t-58 30t-53 36.5t-40 45.5t-32.5 60.5t-17.5 77t-7.5 100v518l177 31v-336h413v-147h-413q1 -16 2 -46.5t2 -46.5q7 -62 40.5 -107.5t81 -73.5t102.5 -52.5t109 -50.5t98 -59
t71.5 -88t27.5 -128q0 -149 -111 -226t-315 -77q-206 0 -338 64l39 155q114 -63 287 -65z" />
    <glyph glyph-name="uni01BF" unicode="&#x1bf;" horiz-adv-x="1165" 
d="M881 616q0 151 -84.5 234.5t-233.5 83.5q-123 0 -225 -41v-836q62 20 106 36.5t105 44.5t103.5 57t89 72.5t74.5 92t46.5 114.5t18.5 142zM565 1092q239 0 369.5 -127.5t130.5 -356.5q0 -90 -21 -169t-56.5 -141t-90.5 -116.5t-114 -95.5t-136.5 -78t-149 -63.5
t-159.5 -53.5v-278h-174v1391q180 88 401 88z" />
    <glyph glyph-name="uni01C0" unicode="&#x1c0;" horiz-adv-x="552" 
d="M193 -387v1995h161v-1995h-161z" />
    <glyph glyph-name="uni01C1" unicode="&#x1c1;" horiz-adv-x="946" 
d="M584 -387v1995h164v-1995h-164zM193 -387v1995h161v-1995h-161z" />
    <glyph glyph-name="uni01C2" unicode="&#x1c2;" horiz-adv-x="1165" 
d="M498 889v723h168v-723h411v-150h-411v-241h411v-148h-411v-737h-168v737h-410v148h410v241h-410v150h410z" />
    <glyph glyph-name="uni01C3" unicode="&#x1c3;" horiz-adv-x="565" 
d="M336 98q0 -50 -32.5 -82t-84.5 -32q-51 0 -84 32t-33 82t32.5 84.5t84.5 34.5t84.5 -33.5t32.5 -85.5zM307 1503l-6 -524q-1 -69 -4.5 -149.5t-7.5 -136t-11 -143.5t-10 -128h-100q-31 384 -33 557l-6 524q44 21 86 21q52 0 92 -21z" />
    <glyph glyph-name="uni01C4" unicode="&#x1c4;" horiz-adv-x="2594" 
d="M1817 1907l213 -193l213 193l75 -86l-288 -310l-289 310zM2486 1423l-4 -145q-162 -203 -393.5 -537.5t-372.5 -590.5h789v-154h-1002l4 123q125 248 360.5 600t403.5 551h-727v153h942zM356 1270v-1120q104 -13 199 -13q279 0 424 150t145 424q0 272 -144.5 421.5
t-424.5 149.5q-103 0 -199 -12zM1317 711q0 -235 -97.5 -400.5t-271 -247t-409.5 -81.5q-207 0 -365 41v1370q154 43 363 43q237 0 410.5 -80.5t271.5 -245t98 -399.5z" />
    <glyph glyph-name="uni01C5" unicode="&#x1c5;" horiz-adv-x="2385" 
d="M1698 1585l213 -192l213 192l78 -86l-291 -309l-289 309zM2292 1067q-4 -86 -4 -127l-86 -100q-114 -143 -249.5 -339.5t-228.5 -361.5h584v-143h-797q6 62 9 123q90 172 255.5 407t297.5 398h-531v143h750zM356 1270v-1120q104 -13 199 -13q279 0 424 150t145 424
q0 272 -144.5 421.5t-424.5 149.5q-103 0 -199 -12zM1317 711q0 -235 -97.5 -400.5t-271 -247t-409.5 -81.5q-207 0 -365 41v1370q154 43 363 43q237 0 410.5 -80.5t271.5 -245t98 -399.5z" />
    <glyph glyph-name="uni01C6" unicode="&#x1c6;" horiz-adv-x="2142" 
d="M1452 1585l213 -192l213 192l78 -86l-291 -309l-289 309zM2048 1067q-1 -22 -3 -64l-3 -63q-112 -130 -282.5 -368t-278.5 -433h583v-143h-796q1 21 4 62t4 61q89 171 253 404.5t298 400.5h-529v143h750zM860 147v711q-115 84 -250 84q-87 0 -151 -31.5t-101 -88.5
t-54 -129t-17 -161q0 -196 95 -303.5t257 -107.5q141 0 221 26zM1038 1595v-1560q-173 -64 -401 -64q-242 0 -388.5 149.5t-146.5 409.5q0 251 130 405.5t356 154.5q87 0 158 -23.5t114 -52.5v555q55 9 178 26z" />
    <glyph glyph-name="uni01C7" unicode="&#x1c7;" horiz-adv-x="2103" 
d="M1417 106q163 0 236 83.5t73 277.5v956h185v-997q0 -109 -22.5 -194t-72.5 -152t-137.5 -104t-210.5 -39q-125 0 -221.5 36t-146.5 78l67 144q121 -89 250 -89zM358 150h637v-154h-821v1427h184v-1273z" />
    <glyph glyph-name="uni01C8" unicode="&#x1c8;" horiz-adv-x="1544" 
d="M1413 1382q0 -54 -33 -86t-84 -32q-52 0 -85 32t-33 86t32.5 86.5t83.5 32.5q52 0 85.5 -33t33.5 -86zM1038 -391q-70 0 -125 20l21 129q19 -4 50 -4q24 0 36 2q109 1 148.5 61t39.5 197v1053h176v-1042q0 -209 -82.5 -310.5t-263.5 -105.5zM358 150h637v-154h-821v1427
h184v-1273z" />
    <glyph glyph-name="uni01C9" unicode="&#x1c9;" horiz-adv-x="1040" 
d="M907 1382q0 -54 -32.5 -86t-83.5 -32t-85 32t-34 86t34 86.5t85 32.5q50 0 83 -33t33 -86zM479 -246q130 0 176.5 56t46.5 204v1053h177v-1042q0 -210 -82.5 -311t-264.5 -105q-69 0 -124 20l20 129q28 -4 51 -4zM481 78l-53 -101q-132 9 -196.5 70t-67.5 195
q-2 59 -2 184v1143q63 11 176 26v-972q0 -222 14 -359v-10q0 -84 28 -118.5t101 -57.5z" />
    <glyph glyph-name="uni01CA" unicode="&#x1ca;" horiz-adv-x="2473" 
d="M1788 106q162 0 234.5 83.5t72.5 277.5v956h184v-997q0 -110 -22 -194.5t-71.5 -151.5t-137.5 -104t-211 -39q-125 0 -221 36t-146 78l68 144q121 -89 250 -89zM1278 -4h-90l-62 2q-120 216 -372.5 584.5t-405.5 545.5q0 -88 1 -266t1 -268v-598h-176v1427h145
q194 -218 407.5 -514t375.5 -569v1083h176v-1427z" />
    <glyph glyph-name="uni01CB" unicode="&#x1cb;" horiz-adv-x="1966" 
d="M1833 1382q0 -54 -33 -86t-84 -32t-85 32t-34 86t34 86.5t85 32.5q50 0 83.5 -33t33.5 -86zM1458 -391q-70 0 -125 20l21 129q28 -4 51 -4t35 2q109 1 148.5 61t39.5 197v1053h176v-1042q0 -210 -82 -311t-264 -105zM1278 -4h-90l-62 2q-120 216 -372.5 584.5
t-405.5 545.5q0 -88 1 -266t1 -268v-598h-176v1427h145q194 -218 407.5 -514t375.5 -569v1083h176v-1427z" />
    <glyph glyph-name="uni01CC" unicode="&#x1cc;" horiz-adv-x="1671" 
d="M1540 1382q0 -54 -34 -86t-85 -32t-83.5 32t-32.5 86t32.5 86.5t83.5 32.5t85 -33t34 -86zM1111 -246q130 0 177 56t47 204v1053h176v-1042q0 -209 -82.5 -310.5t-263.5 -105.5q-70 0 -125 20l21 129q17 -4 50 -4zM164 -4v1028q182 63 422 63q101 0 176.5 -23.5
t124.5 -65t79.5 -104.5t43 -136t12.5 -166v-596h-176v549q0 219 -59.5 306t-219.5 87q-143 0 -227 -25v-917h-176z" />
    <glyph glyph-name="uni01CD" unicode="&#x1cd;" horiz-adv-x="499" 
d="M37 1604l213 -193l213 193l76 -86l-289 -310l-289 310zM338 1069v-1077h-174v1077h174z" />
    <glyph glyph-name="uni01CE" unicode="&#x1ce;" horiz-adv-x="1054" 
d="M309 1628l213 -192l213 192l76 -86l-289 -309l-289 309zM721 123v430q-87 6 -100 6q-20 0 -74 -4q-66 -8 -114.5 -23t-91 -42t-65 -72.5t-22.5 -108.5q0 -213 262 -213q119 0 205 27zM883 39q-60 -27 -163.5 -45.5t-221.5 -18.5q-196 0 -303 84t-107 248q0 88 35 155.5
t99 110.5t146 67.5t185 33.5q7 0 21.5 1t21.5 1q38 0 125 -6q-1 77 -11 129t-36 94.5t-75.5 63t-123.5 20.5q-154 0 -266 -57l-31 124q49 26 133.5 46t180.5 20q182 0 283.5 -91.5t105.5 -268.5q0 -19 1 -59.5t1 -61.5v-590z" />
    <glyph glyph-name="uni01CF" unicode="&#x1cf;" horiz-adv-x="528" 
d="M41 1950l213 -193l213 193l76 -86l-289 -310l-289 310zM344 -4h-174v1421h174v-1421z" />
    <glyph glyph-name="uni01D0" unicode="&#x1d0;" horiz-adv-x="499" 
d="M37 1604l213 -193l213 193l76 -86l-289 -310l-289 310zM338 1069v-1077h-174v1077h174z" />
    <glyph glyph-name="uni01D1" unicode="&#x1d1;" horiz-adv-x="1413" 
d="M494 1948l213 -193l213 193l75 -86l-288 -310l-289 310zM1118 711q0 126 -24.5 232t-73.5 188.5t-129 129t-184 46.5t-184 -46.5t-129 -129t-74 -188.5t-25 -232t24.5 -232.5t73 -189t129 -129.5t185.5 -47t185.5 47t129 130t72.5 189t24 232zM1298 707
q0 -338 -158.5 -537t-432.5 -199t-433 199t-159 537q0 336 159.5 536.5t432.5 200.5q272 0 431.5 -200.5t159.5 -536.5z" />
    <glyph glyph-name="uni01D2" unicode="&#x1d2;" 
d="M352 1604l213 -193l213 193l76 -86l-289 -310l-289 310zM854 541q0 91 -16.5 168.5t-50 139.5t-90.5 97t-132 35q-76 0 -133.5 -35t-91.5 -97t-51 -139.5t-17 -168.5q0 -124 28.5 -218.5t96 -154t168.5 -59.5q100 0 166.5 60t94.5 154t28 218zM1024 541
q0 -255 -122 -411.5t-337 -156.5q-217 0 -340 157t-123 411q0 168 53.5 295.5t158.5 200.5t249 73q217 0 339 -156.5t122 -412.5z" />
    <glyph glyph-name="uni01D3" unicode="&#x1d3;" horiz-adv-x="1400" 
d="M444 1950l213 -193l213 193l76 -86l-289 -310l-288 310zM1130 465q0 -106 -30 -195.5t-89 -157t-152.5 -105.5t-213.5 -38q-209 0 -331 111.5t-142 292.5q-8 81 -8 190v854h172v-833q0 -236 72 -352.5t241 -116.5q119 0 202 71t101 201q11 108 11 197v833h167v-952z" />
    <glyph glyph-name="uni01D4" unicode="&#x1d4;" horiz-adv-x="1171" 
d="M360 1604l213 -193l213 193l76 -86l-289 -310l-288 310zM958 51q-160 -76 -399 -76q-100 0 -173 24.5t-118 65.5t-72 105t-36.5 133.5t-9.5 161.5v622h167v-581q0 -82 5 -138t21 -108.5t43.5 -83.5t74 -49t112.5 -18q148 0 218 36v942h167v-1036z" />
    <glyph glyph-name="uni01D5" unicode="&#x1d5;" horiz-adv-x="1400" 
d="M905 1759q47 0 78 -31.5t31 -80.5q0 -50 -30.5 -80.5t-78.5 -30.5q-47 0 -76.5 30.5t-29.5 82.5q0 50 29 79t77 31zM604 1645q0 -49 -30.5 -79t-77.5 -30q-48 0 -78.5 30.5t-30.5 80.5q0 52 31 82t78 30q48 0 78 -30.5t30 -83.5zM422 1862v133h557v-133h-557zM694 -35
q-141 0 -244.5 42.5t-164.5 121t-90 179.5t-29 227v888h184v-862q0 -221 90 -327.5t256 -106.5q344 0 344 434v862h183v-903q0 -121 -30 -220t-92 -175t-165.5 -118t-241.5 -42z" />
    <glyph glyph-name="uni01D6" unicode="&#x1d6;" horiz-adv-x="1171" 
d="M737 1419q49 0 80 -32t31 -80q0 -50 -31 -80.5t-78 -30.5t-77.5 31t-30.5 82q1 51 30.5 80.5t75.5 29.5zM436 1305q0 -49 -30 -79t-76 -30q-48 0 -78.5 30.5t-30.5 80.5q0 53 30 82.5t79 29.5q47 0 76.5 -30.5t29.5 -83.5zM256 1522v133h557v-133h-557zM958 51
q-160 -76 -399 -76q-100 0 -173 24.5t-118 65.5t-72 105t-36.5 133.5t-9.5 161.5v622h167v-581q0 -82 5 -138t21 -108.5t43.5 -83.5t74 -49t112.5 -18q148 0 218 36v942h167v-1036z" />
    <glyph glyph-name="uni01D7" unicode="&#x1d7;" horiz-adv-x="1400" 
d="M1071 1665q0 -53 -32.5 -85t-80.5 -32t-79 32t-31 85q0 52 31 83.5t79 31.5t80.5 -32t32.5 -83zM496 1665q0 -53 -31.5 -85t-79.5 -32q-50 0 -81.5 32t-31.5 85q0 52 31.5 83.5t81.5 31.5q48 0 79.5 -31.5t31.5 -83.5zM537 1628l243 371l142 -101l-281 -346zM1130 465
q0 -106 -30 -195.5t-89 -157t-152.5 -105.5t-213.5 -38q-209 0 -331 111.5t-142 292.5q-8 81 -8 190v854h172v-833q0 -236 72 -352.5t241 -116.5q119 0 202 71t101 201q11 108 11 197v833h167v-952z" />
    <glyph glyph-name="uni01D8" unicode="&#x1d8;" horiz-adv-x="1050" 
d="M907 1290q0 -53 -32 -84.5t-80 -31.5t-79.5 31.5t-31.5 84.5q0 52 31.5 83.5t79.5 31.5t80 -31.5t32 -83.5zM332 1290q0 -53 -31.5 -84.5t-79.5 -31.5q-50 0 -81 31.5t-31 84.5q0 52 31 83.5t81 31.5q48 0 79.5 -31.5t31.5 -83.5zM373 1253l243 371l142 -100l-281 -346z
M924 51q-160 -76 -400 -76q-100 0 -173 24.5t-118 65.5t-72 105t-36.5 133.5t-9.5 161.5v622h168v-581q0 -82 5 -138t21 -108.5t43.5 -83.5t74 -49t112.5 -18q147 0 217 36v942h168v-1036z" />
    <glyph glyph-name="uni01D9" unicode="&#x1d9;" horiz-adv-x="1167" 
d="M893 1645q0 -52 -31.5 -83.5t-81.5 -31.5q-48 0 -79 31.5t-31 83.5t31 83t79 31q50 0 81.5 -31t31.5 -83zM477 1645q0 -52 -31 -83.5t-79 -31.5q-50 0 -81.5 31.5t-31.5 83.5t31.5 83t81.5 31q48 0 79 -31t31 -83zM369 2048l213 -193l213 193l75 -86l-288 -309l-289 309z
M1069 465q0 -106 -30 -195.5t-88 -157t-151.5 -105.5t-213.5 -38q-209 0 -331.5 111.5t-143.5 292.5q-9 91 -9 190v854h174v-833q0 -236 72.5 -352.5t241.5 -116.5q119 0 201.5 71t99.5 201q10 74 10 197v833h168v-952z" />
    <glyph glyph-name="uni01DA" unicode="&#x1da;" horiz-adv-x="1181" 
d="M817 1380q0 -52 -31 -83t-81 -31q-48 0 -79.5 31t-31.5 83t31.5 83.5t79.5 31.5q50 0 81 -31.5t31 -83.5zM401 1380q0 -52 -31 -83t-79 -31q-50 0 -81.5 31t-31.5 83t31.5 83.5t81.5 31.5q48 0 79 -31.5t31 -83.5zM293 1782l213 -191l213 191l76 -86l-289 -307l-289 307z
M911 51q-160 -76 -399 -76q-99 0 -172 24.5t-118.5 65.5t-72.5 105t-37 134t-10 161v622h168v-581q0 -103 9 -169t35.5 -121.5t79 -81t134.5 -25.5q145 0 215 36v942h168v-1036z" />
    <glyph glyph-name="uni01DB" unicode="&#x1db;" horiz-adv-x="1400" 
d="M954 1690q0 -52 -31 -83.5t-81 -31.5q-48 0 -79.5 31.5t-31.5 83.5t31.5 83t79.5 31q50 0 81 -31t31 -83zM575 1690q0 -52 -31 -83.5t-79 -31.5t-80.5 32t-32.5 83t32.5 82.5t80.5 31.5t79 -31t31 -83zM1130 465q0 -106 -30 -195.5t-89 -157t-152.5 -105.5t-213.5 -38
q-209 0 -331 111.5t-142 292.5q-8 81 -8 190v854h172v-833q0 -236 72 -352.5t241 -116.5q119 0 202 71t101 201q11 108 11 197v833h167v-952zM705 1927h-102l-297 373h221z" />
    <glyph glyph-name="uni01DC" unicode="&#x1dc;" horiz-adv-x="1171" 
d="M870 1343q0 -52 -31 -83t-81 -31q-48 0 -79.5 31t-31.5 83t31.5 83.5t79.5 31.5q50 0 81 -31.5t31 -83.5zM492 1343q0 -52 -31.5 -83t-79.5 -31t-80.5 31.5t-32.5 82.5t32.5 83t80.5 32t79.5 -31.5t31.5 -83.5zM958 51q-160 -76 -399 -76q-100 0 -173 24.5t-118 65.5
t-72 105t-36.5 133.5t-9.5 161.5v622h167v-581q0 -82 5 -138t21 -108.5t43.5 -83.5t74 -49t112.5 -18q148 0 218 36v942h167v-1036zM618 1581h-98l-299 373h221z" />
    <glyph glyph-name="uni01DD" unicode="&#x1dd;" horiz-adv-x="1132" 
d="M842 436h-555q6 -151 73.5 -232t190.5 -81t203 91t88 222zM1032 532q0 -137 -40.5 -247.5t-108.5 -178t-152.5 -103.5t-177.5 -36q-209 0 -326.5 134.5t-117.5 398.5q0 53 4 80h733q-15 288 -240 344q-62 12 -135 12q-142 -2 -260 -57l-29 149q41 24 129 46t185 22
q139 0 243 -42t167.5 -118.5t94.5 -177.5t31 -226z" />
    <glyph glyph-name="uni01DE" unicode="&#x1de;" horiz-adv-x="1335" 
d="M944 1647q0 -50 -30.5 -80.5t-77.5 -30.5t-77.5 30.5t-31.5 82.5q1 50 31 80t76 30t78 -31.5t32 -80.5zM532 1645q0 -49 -30 -79t-76 -30q-48 0 -78.5 30.5t-30.5 80.5q0 53 30 82.5t79 29.5q47 0 76.5 -30.5t29.5 -83.5zM352 1862v133h557v-133h-557zM872 532
q-33 96 -94.5 270.5t-89.5 254.5q-16 42 -34.5 101.5t-26.5 74.5q-11 -16 -25 -68q-37 -111 -114.5 -327.5t-108.5 -305.5h493zM1237 -4h-113l-73 2l-93 272q-29 81 -45 133h-575q-93 -256 -141 -407h-170q311 887 528 1421h152q64 -157 138 -350t116.5 -309t142 -392
t133.5 -370z" />
    <glyph glyph-name="uni01DF" unicode="&#x1df;" horiz-adv-x="1054" 
d="M811 1307q0 -50 -30 -80.5t-76 -30.5q-47 0 -78 31t-31 82q0 50 29.5 80t76.5 30q46 0 77.5 -31.5t31.5 -80.5zM401 1305q0 -49 -30 -79t-78 -30q-47 0 -77 30.5t-30 80.5q0 53 30 82.5t77 29.5q48 0 78 -30.5t30 -83.5zM221 1522v133h555v-133h-555zM721 123v430
q-87 6 -100 6q-20 0 -74 -4q-66 -8 -114.5 -23t-91 -42t-65 -72.5t-22.5 -108.5q0 -213 262 -213q119 0 205 27zM883 39q-60 -27 -163.5 -45.5t-221.5 -18.5q-196 0 -303 84t-107 248q0 88 35 155.5t99 110.5t146 67.5t185 33.5q18 2 57 2q61 0 111 -4q-1 77 -11 129t-36 94
t-75.5 62t-123.5 20q-154 0 -266 -57l-31 124q49 26 133.5 46t180.5 20q182 0 283.5 -91.5t105.5 -268.5q0 -19 1 -59.5t1 -61.5v-590z" />
    <glyph glyph-name="uni01E0" unicode="&#x1e0;" horiz-adv-x="1335" 
d="M739 1645q0 -50 -30.5 -80.5t-77.5 -30.5q-46 0 -77.5 31t-31.5 80q0 50 31.5 82t77.5 32q48 0 78 -31.5t30 -82.5zM362 1858v135h535v-135h-535zM872 532q-33 96 -94.5 270.5t-89.5 254.5q-16 42 -34.5 101.5t-26.5 74.5q-11 -16 -25 -68q-37 -111 -114.5 -327.5
t-108.5 -305.5h493zM1237 -4h-113l-73 2l-93 272q-29 81 -45 133h-575q-93 -256 -141 -407h-170q311 887 528 1421h152q64 -157 138 -350t116.5 -309t142 -392t133.5 -370z" />
    <glyph glyph-name="uni01E1" unicode="&#x1e1;" horiz-adv-x="1054" 
d="M586 1329q0 -50 -30.5 -81t-78.5 -31q-46 0 -76 31t-30 81q0 51 30 82t78 31q46 0 76.5 -31.5t30.5 -81.5zM211 1540v135h532v-135h-532zM721 123v430q-87 6 -100 6q-20 0 -74 -4q-66 -8 -114.5 -23t-91 -42t-65 -72.5t-22.5 -108.5q0 -213 262 -213q119 0 205 27z
M883 39q-60 -27 -163.5 -45.5t-221.5 -18.5q-196 0 -303 84t-107 248q0 88 35 155.5t99 110.5t146 67.5t185 33.5q18 2 57 2q61 0 111 -4q-1 77 -11 129t-36 94t-75.5 62t-123.5 20q-154 0 -266 -57l-31 124q49 26 133.5 46t180.5 20q182 0 283.5 -91.5t105.5 -268.5
q0 -19 1 -59.5t1 -61.5v-590z" />
    <glyph glyph-name="uni01E2" unicode="&#x1e2;" horiz-adv-x="1896" 
d="M1450 1632h-578v144h578v-144zM948 528v719q-228 -317 -356 -532l-113 -187h469zM1827 -8h-879v381h-553q-125 -219 -205 -381h-192q380 743 885 1435h891v-157h-646v-447h572v-155h-572v-518h699v-158z" />
    <glyph glyph-name="uni01E3" unicode="&#x1e3;" horiz-adv-x="1755" 
d="M1145 1313h-578v143h578v-143zM735 475q-75 29 -190 29q-281 0 -281 -191q0 -192 258 -192q179 0 277 82q-61 107 -64 272zM1245 -31q-221 0 -350 117q-156 -117 -377 -117q-200 0 -316 83.5t-116 260.5q0 170 124 253t331 83q49 0 110 -10t80 -18q-4 128 -19 179
q-39 129 -191 139q-14 1 -29 1q-150 0 -271 -43l-22 150q45 20 126.5 34.5t176.5 14.5q264 0 346 -191q105 143 270 180q49 9 103 9q200 -5 313 -139t113 -392q0 -17 -5 -80h-733q9 -176 96 -267t263 -91q150 0 276 59l29 -149q-41 -24 -135.5 -45t-192.5 -21zM911 627h557
q-6 150 -74 231.5t-190 81.5q-124 0 -204 -90.5t-89 -222.5z" />
    <glyph glyph-name="uni01E4" unicode="&#x1e4;" horiz-adv-x="1423" 
d="M1049 152v262h-232v141h232v186h182v-186h164v-141h-164v-379q-58 -25 -179 -48.5t-272 -23.5q-144 0 -265.5 50t-210.5 143.5t-139 236t-50 318.5t54 319t147.5 235.5t216.5 142.5t264 50q149 0 258.5 -32t171.5 -72l-60 -154q-63 43 -160.5 68.5t-207.5 25.5
q-107 0 -197 -38t-156 -110t-103.5 -183.5t-37.5 -251.5q0 -274 127.5 -430t370.5 -156q176 0 246 27z" />
    <glyph glyph-name="uni01E5" unicode="&#x1e5;" horiz-adv-x="1206" 
d="M842 268v230h-238v135h238v278q-90 25 -221 25q-157 0 -247.5 -105.5t-90.5 -275.5q0 -94 25.5 -166t69 -114.5t96.5 -63.5t114 -21q78 0 146 22t108 56zM819 37q18 23 25 72q-34 -26 -104.5 -50t-159.5 -24q-100 0 -185 30.5t-152 91.5t-105 163t-38 235
q0 236 140.5 386.5t377.5 150.5q218 0 398 -62v-397h166v-135h-166v-453q-6 -231 -130.5 -334.5t-379.5 -103.5q-184 0 -344 55l35 158q56 -27 142 -43.5t171 -16.5q165 0 237 63t72 214z" />
    <glyph glyph-name="Gcaron" unicode="&#x1e6;" horiz-adv-x="1359" 
d="M510 1950l213 -193l213 193l76 -86l-289 -310l-289 310zM1139 45q-144 -74 -402 -74q-131 0 -243.5 47.5t-198 138t-134 233.5t-48.5 323q0 174 50.5 314.5t138 230.5t202 138t244.5 48q232 0 374 -88l-53 -129q-50 32 -129.5 52.5t-175.5 20.5h-8q-214 0 -337.5 -153.5
t-123.5 -444.5q0 -278 122 -435.5t333 -157.5q151 0 217 32v461h-140v141h312v-698z" />
    <glyph glyph-name="gcaron" unicode="&#x1e7;" horiz-adv-x="1179" 
d="M391 1604l213 -193l213 193l76 -86l-289 -310l-289 310zM801 199v753q-66 29 -195 29q-162 0 -248 -118t-86 -318q0 -201 83.5 -305.5t226.5 -104.5q133 0 219 64zM965 20q0 -446 -461 -446q-200 0 -338 64q13 48 43 133q47 -25 121 -43t147 -19q154 0 232 72
q94 70 94 223v68q-97 -62 -246 -62q-203 0 -329 139t-126 394q0 254 133.5 409.5t372.5 155.5q209 0 357 -68v-1020z" />
    <glyph glyph-name="uni01E8" unicode="&#x1e8;" horiz-adv-x="1251" 
d="M367 1931l213 -192l213 192l75 -86l-288 -309l-289 309zM1124 -4h-123q-13 0 -38 1t-39 1q-126 192 -278.5 376.5t-301.5 325.5v-704h-174v1421h174v-643q364 403 551 643h197q-159 -191 -584 -665q161 -158 331.5 -366t284.5 -390z" />
    <glyph glyph-name="uni01E9" unicode="&#x1e9;" horiz-adv-x="1038" 
d="M489 1604l213 -193l213 193l76 -86l-289 -310l-288 310zM977 -4h-193q-106 152 -231.5 303t-226.5 238v-541h-166v1601h166v-995q272 302 422 485h190q-61 -70 -135.5 -153t-179 -197.5t-140.5 -154.5q125 -122 259.5 -281t234.5 -305z" />
    <glyph glyph-name="uni01EA" unicode="&#x1ea;" horiz-adv-x="1589" 
d="M776 -37q-137 3 -255.5 53t-209.5 141.5t-143.5 234t-52.5 319.5q0 179 54.5 323.5t148.5 235.5t216 139.5t261 48.5q140 0 262 -48.5t216 -140t148 -235.5t54 -323q0 -245 -97.5 -418t-263.5 -256q-85 -43 -162 -110t-80 -128q0 -59 74 -59h6q44 0 82 14l15 -131
q-60 -22 -134 -22q-108 0 -160.5 39t-52.5 108q0 90 101 191q-16 9 -27 24zM1284 711q0 271 -132 427t-357 156t-357.5 -156.5t-132.5 -426.5t132.5 -428t357.5 -158t357 158t132 428z" />
    <glyph glyph-name="uni01EB" unicode="&#x1eb;" 
d="M915 530q0 187 -84.5 297.5t-230.5 110.5q-147 0 -232 -110.5t-85 -297.5t85 -296t232 -109q146 0 230.5 109.5t84.5 295.5zM672 -399q-215 0 -215 157q0 34 12 68q20 64 106 143q-211 8 -343 161.5t-132 399.5q0 253 140 409.5t360 156.5t359 -156.5t139 -409.5
q0 -171 -65.5 -299.5t-180.5 -197.5q-44 -28 -72.5 -47.5t-69 -53t-61.5 -67.5t-22 -66q3 -59 75 -59h7q44 0 82 14l14 -131q-61 -22 -133 -22z" />
    <glyph glyph-name="uni01EC" unicode="&#x1ec;" horiz-adv-x="1589" 
d="M1083 1632h-575v144h575v-144zM776 -37q-137 3 -255.5 53t-209.5 141.5t-143.5 234t-52.5 319.5q0 179 54.5 323.5t148.5 235.5t216 139.5t261 48.5q140 0 262 -48.5t216 -140t148 -235.5t54 -323q0 -245 -97.5 -418t-263.5 -256q-85 -43 -162 -110t-80 -128
q0 -29 20.5 -44t53.5 -15h6q44 0 82 14l15 -131q-60 -22 -134 -22q-108 0 -160.5 39.5t-52.5 108.5q0 89 101 190q-16 9 -27 24zM1284 711q0 271 -132 427t-357 156t-357.5 -156.5t-132.5 -426.5t132.5 -428t357.5 -158t357 158t132 428z" />
    <glyph glyph-name="uni01ED" unicode="&#x1ed;" 
d="M889 1313h-578v143h578v-143zM915 530q0 187 -84.5 297.5t-230.5 110.5q-147 0 -232 -110.5t-85 -297.5t85 -296t232 -109q146 0 230.5 109.5t84.5 295.5zM672 -399q-215 0 -215 157q0 34 12 68q20 64 106 143q-211 8 -343 161.5t-132 399.5q0 253 140 409.5t360 156.5
t359 -156.5t139 -409.5q0 -171 -65.5 -299.5t-180.5 -197.5q-223 -135 -225 -234q3 -59 75 -59h7q44 0 82 14l14 -131q-61 -22 -133 -22z" />
    <glyph glyph-name="uni01EE" unicode="&#x1ee;" horiz-adv-x="1136" 
d="M344 1907l213 -193l213 193l76 -86l-289 -310l-289 310zM1042 391q0 -113 -41.5 -197t-118.5 -134.5t-178.5 -74.5t-230.5 -24q-138 0 -252.5 33t-175.5 69l57 156q61 -37 159.5 -67.5t213.5 -30.5q377 0 377 272q0 67 -23.5 118t-63 83t-98 51.5t-122 27t-142.5 7.5h-34
v70l2 45q30 30 63 65t68 75.5t62 71.5t65 77.5t55 67t54 66.5t42 52h-669v157h901v-110q-114 -166 -426 -510q72 -8 135 -25.5t123 -50t103 -78t69 -112.5t26 -150z" />
    <glyph glyph-name="uni01EF" unicode="&#x1ef;" horiz-adv-x="948" 
d="M211 1585l213 -192l213 192l78 -86l-291 -309l-289 309zM248 326v75l2 52q94 106 196 239.5t164 227.5h-573v149h792v-104q-66 -105 -176 -252.5t-204 -255.5q87 -7 160.5 -32t135.5 -71.5t97 -123t35 -177.5q0 -216 -139 -328t-386 -112q-113 0 -208.5 21t-151.5 51
l43 149q124 -63 315 -63q170 0 259 72.5t89 209.5q0 67 -23 117t-58.5 79t-88 47t-102.5 24t-111 6h-67z" />
    <glyph glyph-name="uni01F0" unicode="&#x1f0;" horiz-adv-x="499" 
d="M39 1585l213 -192l213 192l78 -86l-291 -309l-289 309zM-14 -391q-67 0 -127 24l24 146q46 -17 99 -17q104 0 143 58.5t39 189.5v1059h174v-1055q0 -209 -83 -307t-269 -98z" />
    <glyph glyph-name="uni01F1" unicode="&#x1f1;" horiz-adv-x="2594" 
d="M2486 1423l-4 -145q-162 -203 -393.5 -537.5t-372.5 -590.5h789v-154h-1002l4 123q125 248 360.5 600t403.5 551h-727v153h942zM356 1270v-1120q104 -13 199 -13q279 0 424 150t145 424q0 272 -144.5 421.5t-424.5 149.5q-103 0 -199 -12zM1317 711q0 -235 -97.5 -400.5
t-271 -247t-409.5 -81.5q-207 0 -365 41v1370q154 43 363 43q237 0 410.5 -80.5t271.5 -245t98 -399.5z" />
    <glyph glyph-name="uni01F2" unicode="&#x1f2;" horiz-adv-x="2385" 
d="M2292 1067q-4 -86 -4 -127l-86 -100q-114 -143 -249.5 -339.5t-228.5 -361.5h584v-143h-797q6 62 9 123q90 172 255.5 407t297.5 398h-531v143h750zM356 1270v-1120q104 -13 199 -13q279 0 424 150t145 424q0 272 -144.5 421.5t-424.5 149.5q-103 0 -199 -12zM1317 711
q0 -235 -97.5 -400.5t-271 -247t-409.5 -81.5q-207 0 -365 41v1370q154 43 363 43q237 0 410.5 -80.5t271.5 -245t98 -399.5z" />
    <glyph glyph-name="uni01F3" unicode="&#x1f3;" horiz-adv-x="2142" 
d="M2048 1067q-1 -22 -3 -64l-3 -63q-112 -130 -282.5 -368t-278.5 -433h583v-143h-796q1 21 4 62t4 61q89 171 253 404.5t298 400.5h-529v143h750zM860 147v711q-115 84 -250 84q-87 0 -151 -31.5t-101 -88.5t-54 -129t-17 -161q0 -196 95 -303.5t257 -107.5q141 0 221 26z
M1038 1595v-1560q-173 -64 -401 -64q-242 0 -388.5 149.5t-146.5 409.5q0 251 130 405.5t356 154.5q87 0 158 -23.5t114 -52.5v555q55 9 178 26z" />
    <glyph glyph-name="uni01F4" unicode="&#x1f4;" horiz-adv-x="1359" 
d="M776 1577h-100l176 373h221zM1139 45q-144 -74 -402 -74q-131 0 -243.5 47.5t-198 138t-134 233.5t-48.5 323q0 174 50.5 314.5t138 230.5t202 138t244.5 48q232 0 374 -88l-53 -129q-50 32 -129.5 52.5t-175.5 20.5q-2 0 -5 0.5t-4 0.5q-214 0 -337 -154t-123 -445
q0 -278 122 -435.5t333 -157.5q151 0 217 32v461h-140v141h312v-698z" />
    <glyph glyph-name="uni01F5" unicode="&#x1f5;" horiz-adv-x="1179" 
d="M657 1231h-100l176 373h221zM801 199v753q-66 29 -195 29q-162 0 -248 -118t-86 -318q0 -201 83.5 -305.5t226.5 -104.5q133 0 219 64zM965 20q0 -446 -461 -446q-200 0 -338 64q13 48 43 133q47 -25 121 -43t147 -19q154 0 232 72q94 70 94 223v68q-97 -62 -246 -62
q-203 0 -329 139t-126 394q0 254 133.5 409.5t372.5 155.5q209 0 357 -68v-1020z" />
    <glyph glyph-name="uni01F6" unicode="&#x1f6;" horiz-adv-x="2148" 
d="M1817 528v537h182v-569q0 -96 -13 -173t-45.5 -146t-84.5 -115t-134 -72.5t-190 -26.5t-189.5 26.5t-134 72.5t-85.5 115t-46.5 146t-13.5 173v166h-709v-670h-182v1435h182v-606h709v606h182v-899q0 -213 66.5 -308t220.5 -95t219.5 95t65.5 308z" />
    <glyph glyph-name="uni01F7" unicode="&#x1f7;" horiz-adv-x="1302" 
d="M354 1227v-1053q74 32 127.5 57t119.5 60t113 69.5t97.5 78.5t84.5 93.5t62.5 108t42 129t13.5 150.5q0 181 -100.5 270.5t-292.5 89.5q-142 0 -267 -53zM354 -4v-383h-182v1726q271 101 446 101q285 0 435.5 -134t150.5 -395q0 -102 -22.5 -193.5t-62.5 -167
t-100.5 -144t-130 -124t-158.5 -108t-178.5 -94.5t-197.5 -84z" />
    <glyph glyph-name="uni01F8" unicode="&#x1f8;" horiz-adv-x="1466" 
d="M760 1530h-101l-297 373h222zM1227 -4h-90l-64 2q-230 403 -657 1044q-17 25 -39.5 63t-35.5 59.5t-17 21.5q0 -30 2 -210.5t2 -275.5v-704h-162v1421h164q367 -514 663 -1003q14 -24 33 -58t29 -51t16 -22q0 60 -2 285t-2 335v514h160v-1421z" />
    <glyph glyph-name="uni01F9" unicode="&#x1f9;" horiz-adv-x="1171" 
d="M588 1186h-101l-297 373h222zM973 -4h-166v590q0 50 -1 80t-4 72t-10.5 67.5t-19.5 56.5t-31.5 49t-46.5 35t-64.5 24t-84.5 7q-132 0 -221 -33v-948h-168v1038q151 74 407 74q80 0 143.5 -16t106 -41t73 -65.5t47.5 -79.5t26 -94t11.5 -97.5t2.5 -100.5v-618z" />
    <glyph glyph-name="Aringacute" unicode="&#x1fa;" horiz-adv-x="1335" 
d="M762 2288l121 -125l-363 -297l-90 96zM745 1661q0 51 -29 79.5t-75 28.5q-45 0 -74.5 -28.5t-29.5 -79.5q0 -52 29.5 -80.5t74.5 -28.5q46 0 75 28.5t29 80.5zM852 1661q0 -94 -61 -152.5t-150 -58.5q-88 0 -149.5 58t-61.5 153q0 94 61.5 151.5t149.5 57.5q89 0 150 -58
t61 -151zM879 532q-48 143 -185 525q-12 34 -25 74.5t-21 64.5t-15 37q-12 -18 -29 -78q-37 -110 -113 -323t-106 -300h494zM1243 -4h-186q-110 331 -137 407h-576q-93 -256 -141 -407h-170q336 949 528 1421h154q38 -93 74 -185.5t77 -201.5t69.5 -185t77 -209t71 -196
t80.5 -224.5t79 -219.5z" />
    <glyph glyph-name="aringacute" unicode="&#x1fb;" horiz-adv-x="1054" 
d="M610 2023l121 -125l-362 -296l-90 96zM594 1397q0 51 -29.5 79.5t-75.5 28.5q-45 0 -74.5 -28.5t-29.5 -79.5q0 -52 29.5 -80.5t74.5 -28.5q46 0 75.5 28.5t29.5 80.5zM700 1397q0 -94 -61 -152.5t-150 -58.5q-88 0 -149 58t-61 153q0 94 61 151.5t149 57.5q89 0 150 -58
t61 -151zM721 123v430q-87 6 -100 6q-20 0 -74 -4q-66 -8 -114.5 -23t-91 -42t-65 -72.5t-22.5 -108.5q0 -213 262 -213q119 0 205 27zM883 39q-60 -27 -163.5 -45.5t-221.5 -18.5q-196 0 -303 84t-107 248q0 88 35 155.5t99 110.5t146 67.5t185 33.5q18 2 57 2q61 0 111 -4
q-1 77 -11 129t-36 94t-75.5 62t-123.5 20q-154 0 -266 -57l-31 124q49 26 133.5 46t180.5 20q182 0 283.5 -91.5t105.5 -268.5q0 -19 1 -59.5t1 -61.5v-590z" />
    <glyph glyph-name="AEacute" unicode="&#x1fc;" horiz-adv-x="1896" 
d="M1337 1923l121 -127l-360 -295l-90 96zM948 528v719q-228 -317 -356 -532l-113 -187h469zM1827 -8h-879v381h-553q-125 -219 -205 -381h-192q380 743 885 1435h891v-157h-646v-447h572v-155h-572v-518h699v-158z" />
    <glyph glyph-name="aeacute" unicode="&#x1fd;" horiz-adv-x="1755" 
d="M1040 1604l121 -127l-360 -297l-90 96zM735 475q-75 29 -190 29q-281 0 -281 -191q0 -192 258 -192q179 0 277 82q-61 107 -64 272zM1245 -31q-221 0 -350 117q-156 -117 -377 -117q-200 0 -316 83.5t-116 260.5q0 170 124 253t331 83q49 0 110 -10t80 -18
q-4 128 -19 179q-39 129 -191 139q-14 1 -29 1q-150 0 -271 -43l-22 150q45 20 126.5 34.5t176.5 14.5q264 0 346 -191q105 143 270 180q49 9 103 9q200 -5 313 -139t113 -392q0 -17 -5 -80h-733q9 -176 96 -267t263 -91q150 0 276 59l29 -149q-41 -24 -135.5 -45
t-192.5 -21zM911 627h557q-6 150 -74 231.5t-190 81.5q-124 0 -204 -90.5t-89 -222.5z" />
    <glyph glyph-name="Oslashacute" unicode="&#x1fe;" horiz-adv-x="1589" 
d="M965 1923l120 -127l-362 -295l-90 96zM1284 711q0 229 -100 374l-672 -870q116 -90 283 -90q225 0 357 158t132 428zM305 711q0 -236 105 -381q99 128 323.5 420t347.5 450q-119 94 -286 94q-225 0 -357.5 -156.5t-132.5 -426.5zM1475 711q0 -180 -54 -324.5
t-147.5 -236.5t-215.5 -140.5t-263 -48.5q-219 0 -389 117l-125 -162l-123 90l133 172q-176 195 -176 533q0 179 54.5 323.5t148.5 235.5t216 139.5t261 48.5q224 0 391 -121l131 168l123 -92l-140 -178q175 -197 175 -524z" />
    <glyph glyph-name="oslashacute" unicode="&#x1ff;" 
d="M770 1604l121 -127l-363 -297l-88 96zM918 526q-3 140 -60 226l-438 -568q76 -61 188 -61q143 3 226.5 111.5t83.5 291.5zM600 938q-147 0 -232 -110t-87 -296q3 -137 59 -229l442 569q-79 66 -182 66zM1098 530q0 -253 -138.5 -408t-359.5 -155q-163 0 -281 86
l-104 -137l-109 82l113 147q-119 146 -119 385q0 253 140 409.5t360 156.5q162 0 283 -92q11 15 48 63.5t56 71.5l109 -80l-115 -148q117 -151 117 -381z" />
    <glyph glyph-name="uni0200" unicode="&#x200;" horiz-adv-x="1335" 
d="M203 1827l121 106l254 -348l-101 -76zM545 1829l119 104l254 -348l-101 -76zM655 1219q-86 -193 -276 -707h553q-181 485 -277 707zM1313 -4h-121l-80 2q-78 206 -131 367h-651q-65 -177 -131 -369h-187q194 530 313 834.5t253 592.5h165q32 -70 62.5 -138t64.5 -148.5
t58 -137.5t62.5 -155.5t57.5 -147t64 -167t61.5 -161.5t69.5 -185.5t70 -186.5z" />
    <glyph glyph-name="uni0201" unicode="&#x201;" horiz-adv-x="1054" 
d="M33 1511l119 107l254 -348l-101 -76zM375 1513l117 105l253 -348l-100 -76zM721 123v430q-87 6 -100 6q-20 0 -74 -4q-66 -8 -114.5 -23t-91 -42t-65 -72.5t-22.5 -108.5q0 -213 262 -213q119 0 205 27zM883 39q-60 -27 -163.5 -45.5t-221.5 -18.5q-196 0 -303 84
t-107 248q0 88 35 155.5t99 110.5t146 67.5t185 33.5q18 2 57 2q61 0 111 -4q-1 77 -11 129t-36 94t-75.5 62t-123.5 20q-154 0 -266 -57l-31 124q49 26 133.5 46t180.5 20q182 0 283.5 -91.5t105.5 -268.5q0 -19 1 -59.5t1 -61.5v-590z" />
    <glyph glyph-name="uni0202" unicode="&#x202;" horiz-adv-x="1335" 
d="M666 1860q124 0 197 -75.5t73 -223.5h-121q-1 24 -6.5 46t-19.5 49t-45.5 43.5t-77.5 16.5q-37 0 -65 -11.5t-43 -28.5t-24.5 -39.5t-12.5 -40.5t-3 -35h-121v26q0 131 78 202t191 71zM655 1219q-86 -193 -276 -707h553q-181 485 -277 707zM1313 -4h-121l-80 2
q-78 206 -131 367h-651q-65 -177 -131 -369h-187q194 530 313 834.5t253 592.5h165q32 -70 62.5 -138t64.5 -148.5t58 -137.5t62.5 -155.5t57.5 -147t64 -167t61.5 -161.5t69.5 -185.5t70 -186.5z" />
    <glyph glyph-name="uni0203" unicode="&#x203;" horiz-adv-x="1054" 
d="M721 123v430q-87 6 -100 6q-20 0 -74 -4q-66 -8 -114.5 -23t-91 -42t-65 -72.5t-22.5 -108.5q0 -213 262 -213q119 0 205 27zM883 39q-60 -27 -163.5 -45.5t-221.5 -18.5q-196 0 -303 84t-107 248q0 88 35 155.5t99 110.5t146 67.5t185 33.5q7 0 21.5 1t21.5 1
q38 0 125 -6q-1 77 -11 129t-36 94.5t-75.5 63t-123.5 20.5q-154 0 -266 -57l-31 124q49 26 133.5 46t180.5 20q182 0 283.5 -91.5t105.5 -268.5q0 -19 1 -59.5t1 -61.5v-590zM537 1554q122 0 196 -76t74 -223h-121q-1 24 -6.5 46t-20 49.5t-46 44t-76.5 16.5q-37 0 -65 -12
t-43 -28.5t-25 -39.5t-13 -40.5t-4 -35.5h-121v23q0 131 78.5 203.5t192.5 72.5z" />
    <glyph glyph-name="uni0204" unicode="&#x204;" horiz-adv-x="1150" 
d="M203 1827l121 106l254 -348l-101 -76zM545 1829l119 104l254 -348l-101 -76zM944 -4h-778v1421h752v-135h-576v-477h514v-135h-514v-539h602v-135z" />
    <glyph glyph-name="uni0205" unicode="&#x205;" horiz-adv-x="1132" 
d="M33 1511l119 107l254 -348l-101 -76zM375 1513l117 105l253 -348l-100 -76zM823 645q-3 166 -71 250t-193 84q-128 0 -207.5 -100t-83.5 -277zM985 537l-713 -52q21 -374 353 -374q152 0 272 61l35 -129q-46 -28 -132 -48t-186 -20q-248 0 -380 147.5t-132 420.5
q0 137 36.5 247t100 178.5t146 105t176.5 36.5q183 0 292.5 -108.5t127.5 -325.5q6 -49 6 -101q0 -26 -2 -38z" />
    <glyph glyph-name="uni0206" unicode="&#x206;" horiz-adv-x="1150" 
d="M602 1860q122 0 195 -75.5t73 -223.5h-120q0 17 -3 35t-12.5 40.5t-24.5 39.5t-43 28.5t-65 11.5q-46 0 -77.5 -16.5t-45.5 -43.5t-19.5 -49t-6.5 -46h-121q0 3 -0.5 11t-0.5 11q0 134 77.5 205.5t193.5 71.5zM1057 -4h-883v1427h834v-153h-650v-453h578v-149h-578v-518
h699v-154z" />
    <glyph glyph-name="uni0207" unicode="&#x207;" horiz-adv-x="1132" 
d="M580 1540q122 0 196 -76t74 -223h-123q0 23 -5.5 46t-19.5 50t-45.5 43.5t-76.5 16.5q-37 0 -65.5 -12t-43.5 -28.5t-25 -40t-12.5 -40.5t-3.5 -35h-121v23q0 131 78.5 203.5t192.5 72.5zM289 621l555 2q-5 155 -72.5 239t-189.5 84q-126 0 -206.5 -94.5t-86.5 -230.5z
M102 532q0 135 40 243.5t107 176.5t152 104t179 36q176 0 287 -96.5t141 -284.5q12 -74 12 -123v-21v-22q0 -37 -2 -53l-731 -7q9 -178 95.5 -269t262.5 -91q145 0 273 57l32 -143q-43 -24 -129 -45t-186 -21q-138 0 -242 41.5t-166.5 117t-93.5 176t-31 224.5z" />
    <glyph glyph-name="uni0208" unicode="&#x208;" horiz-adv-x="528" 
d="M-244 1827l119 106l254 -348l-100 -76zM98 1829l119 104l254 -348l-102 -76zM344 -4h-174v1421h174v-1421z" />
    <glyph glyph-name="uni0209" unicode="&#x209;" horiz-adv-x="499" 
d="M-211 1511l121 107l254 -348l-101 -76zM133 1513l117 105l254 -348l-101 -76zM338 1069v-1077h-174v1077h174z" />
    <glyph glyph-name="uni020A" unicode="&#x20a;" horiz-adv-x="528" 
d="M266 1874q123 0 197 -75.5t74 -223.5h-123q0 17 -3 35t-12.5 41t-24.5 39.5t-43 28.5t-65 12q-45 0 -76.5 -16.5t-46 -44t-20 -49.5t-6.5 -46h-121v22q0 133 78 205t192 72zM174 -4v1427h184v-1427h-184z" />
    <glyph glyph-name="uni020B" unicode="&#x20b;" horiz-adv-x="499" 
d="M252 1554q122 0 196 -76t74 -223h-123q0 23 -5.5 46t-19.5 50t-45.5 43.5t-76.5 16.5q-37 0 -65.5 -12t-43.5 -28.5t-25 -40t-12.5 -40.5t-3.5 -35h-120v23q0 132 78 204t192 72zM338 1069v-1077h-174v1077h174z" />
    <glyph glyph-name="uni020C" unicode="&#x20c;" horiz-adv-x="1589" 
d="M203 1827l121 106l254 -348l-101 -76zM545 1829l119 104l254 -348l-101 -76zM1116 711q0 126 -24.5 232t-73.5 188.5t-129 129t-184 46.5t-184 -46.5t-129 -129t-74 -188.5t-25 -232t24.5 -232.5t73.5 -189t129 -129.5t185 -47q106 0 186.5 46.5t128.5 130t72 189.5
t24 232zM1296 707q0 -338 -158.5 -537t-432.5 -199q-273 0 -432.5 199t-159.5 537q0 336 159.5 536.5t432.5 200.5q181 0 315.5 -91t205 -257.5t70.5 -388.5z" />
    <glyph glyph-name="uni020D" unicode="&#x20d;" 
d="M49 1511l121 107l254 -348l-100 -76zM391 1513l119 105l254 -348l-100 -76zM854 541q0 91 -16.5 168.5t-50 139.5t-90.5 97t-132 35q-76 0 -133.5 -35t-91.5 -97t-51 -139.5t-17 -168.5q0 -124 28.5 -218.5t96 -154t168.5 -59.5q100 0 166.5 60t94.5 154t28 218z
M1024 541q0 -255 -122 -411.5t-337 -156.5q-217 0 -340 157t-123 411q0 168 53.5 295.5t158.5 200.5t249 73q217 0 339 -156.5t122 -412.5z" />
    <glyph glyph-name="uni020E" unicode="&#x20e;" horiz-adv-x="1589" 
d="M678 1845q115 0 192.5 -71.5t77.5 -204.5v-23h-94q-1 23 -8.5 47.5t-24.5 53t-54 47t-89 18.5t-89 -18.5t-54 -47t-24.5 -53t-8.5 -47.5h-94v23q0 133 77.5 204.5t192.5 71.5zM1118 711q0 126 -24.5 232t-73.5 188.5t-129 129t-184 46.5t-184 -46.5t-129 -129t-74 -188.5
t-25 -232t24.5 -232.5t73 -189t129 -129.5t185.5 -47t185.5 47t129 130t72.5 189t24 232zM1298 707q0 -338 -158.5 -537t-432.5 -199t-433 199t-159 537q0 336 159.5 536.5t432.5 200.5q272 0 431.5 -200.5t159.5 -536.5z" />
    <glyph glyph-name="uni020F" unicode="&#x20f;" 
d="M565 1497q115 0 193 -71.5t78 -204.5v-23h-95q-1 23 -8.5 47.5t-24.5 53t-54 47t-89 18.5t-89 -18.5t-54 -47t-24.5 -53t-8.5 -47.5h-94v23q0 133 77.5 204.5t192.5 71.5zM854 541q0 91 -16.5 168.5t-50 139.5t-90.5 97t-132 35q-76 0 -133.5 -35t-91.5 -97t-51 -139.5
t-17 -168.5q0 -124 28.5 -218.5t96 -154t168.5 -59.5q100 0 166.5 60t94.5 154t28 218zM1024 541q0 -255 -122 -411.5t-337 -156.5q-217 0 -340 157t-123 411q0 168 53.5 295.5t158.5 200.5t249 73q217 0 339 -156.5t122 -412.5z" />
    <glyph glyph-name="uni0210" unicode="&#x210;" horiz-adv-x="1280" 
d="M203 1827l121 106l254 -348l-101 -76zM545 1829l119 104l254 -348l-101 -76zM889 999q0 303 -348 306q-29 0 -117 -5q-17 -2 -45.5 -8t-38.5 -8v-579q144 -7 152 -7q194 0 295.5 69t101.5 232zM1126 -4h-194q-118 191 -342 502q-117 93 -141 112h-109v-614h-170v1380
q155 58 354 58q266 0 403.5 -111.5t137.5 -321.5q0 -166 -99.5 -266.5t-271.5 -122.5v-2q236 -296 432 -614z" />
    <glyph glyph-name="uni0211" unicode="&#x211;" horiz-adv-x="780" 
d="M33 1511l119 107l254 -348l-101 -76zM375 1513l117 105l253 -348l-100 -76zM156 1032q152 72 347 72q99 0 183 -14q-9 -32 -37 -134q-66 16 -128 16q-22 0 -34 -1l-5 1q-5 1 -9 1q-95 -3 -149 -33v-944h-168v1036z" />
    <glyph glyph-name="uni0212" unicode="&#x212;" horiz-adv-x="1280" 
d="M602 1860q122 0 195 -75.5t73 -223.5h-120q0 17 -3 35t-12.5 40.5t-24.5 39.5t-43 28.5t-65 11.5q-46 0 -77.5 -16.5t-45.5 -43.5t-19.5 -49t-6.5 -46h-121v22q0 133 78 205t192 72zM563 1286q-66 0 -207 -12v-572h170q80 0 139.5 6t118 24t95.5 49t59.5 83.5t22.5 124.5
q0 297 -398 297zM1151 989q0 -147 -79 -242.5t-216 -140.5q87 -111 201 -287.5t180 -322.5h-199q-115 218 -358 557q-20 2 -60.5 6t-60.5 6h-203v-569h-182v1397q157 43 373 43q300 0 452 -113.5t152 -333.5z" />
    <glyph glyph-name="uni0213" unicode="&#x213;" horiz-adv-x="780" 
d="M471 1540q113 0 190.5 -72.5t77.5 -203.5v-23h-121q0 23 -5.5 46t-19.5 50t-45.5 43.5t-76.5 16.5q-46 0 -77.5 -16.5t-45.5 -44t-19.5 -49.5t-6.5 -46h-121v23q0 132 78 204t192 72zM543 1087q142 0 215 -30q-5 -24 -16.5 -71t-16.5 -71q-66 23 -182 23q-2 0 -7 1t-8 1
q-105 0 -188 -29v-915h-176v1020q159 71 379 71z" />
    <glyph glyph-name="uni0214" unicode="&#x214;" horiz-adv-x="1400" 
d="M203 1827l121 106l254 -348l-101 -76zM545 1829l119 104l254 -348l-101 -76zM1130 465q0 -106 -30 -195.5t-89 -157t-152.5 -105.5t-213.5 -38q-209 0 -331 111.5t-142 292.5q-8 81 -8 190v854h172v-833q0 -236 72 -352.5t241 -116.5q119 0 202 71t101 201q11 108 11 197
v833h167v-952z" />
    <glyph glyph-name="uni0215" unicode="&#x215;" horiz-adv-x="1171" 
d="M33 1511l119 107l254 -348l-101 -76zM375 1513l117 105l253 -348l-100 -76zM958 51q-160 -76 -399 -76q-100 0 -173 24.5t-118 65.5t-72 105t-36.5 133.5t-9.5 161.5v622h167v-581q0 -82 5 -138t21 -108.5t43.5 -83.5t74 -49t112.5 -18q148 0 218 36v942h167v-1036z" />
    <glyph glyph-name="uni0216" unicode="&#x216;" horiz-adv-x="1400" 
d="M700 1860q123 0 197 -75.5t74 -223.5h-121q-1 18 -4 35.5t-13 40t-25 39.5t-43 28.5t-65 11.5q-45 0 -76.5 -16.5t-46 -43.5t-20 -49t-6.5 -46h-121v22q0 133 78 205t192 72zM694 -35q-141 0 -244.5 42.5t-164.5 121t-90 179.5t-29 227v888h184v-862q0 -221 90 -327.5
t256 -106.5q344 0 344 434v862h183v-903q0 -121 -30 -220t-92 -175t-165.5 -118t-241.5 -42z" />
    <glyph glyph-name="uni0217" unicode="&#x217;" horiz-adv-x="1171" 
d="M580 1540q122 0 195 -76t73 -223h-121q0 23 -5.5 46t-19.5 50t-45.5 43.5t-76.5 16.5q-37 0 -65.5 -12t-43.5 -28.5t-25 -40t-12.5 -40.5t-3.5 -35h-121v23q0 131 78.5 203.5t192.5 72.5zM1010 1067v-1028q-169 -64 -422 -64q-119 0 -204 34t-135 99t-72.5 152t-22.5 201
v606h176v-551q0 -213 61.5 -301t216.5 -88q148 0 226 25v915h176z" />
    <glyph glyph-name="Scommaaccent" unicode="&#x218;" horiz-adv-x="1077" 
d="M629 -147q0 -122 -66.5 -187t-181.5 -65q-55 4 -70 12v113q83 0 117.5 31.5t34.5 103.5v37h162q4 -32 4 -45zM483 123q322 0 322 231q0 64 -20.5 110t-74.5 83t-90.5 54t-124.5 52q-21 9 -32 13q-153 64 -237.5 132.5t-110.5 170.5q-15 53 -15 114q6 178 128.5 273.5
t338.5 95.5q113 0 217.5 -28t163.5 -68l-59 -146q-133 88 -320 88q-132 0 -208 -52.5t-76 -162.5q0 -46 15.5 -82.5t39 -62t66.5 -50.5t81.5 -42t99.5 -42q2 -1 3 -1t3 -1t3.5 -1.5t3.5 -1.5q58 -24 94.5 -41t83 -42.5t75 -48t59 -55t47 -68t27.5 -82t11 -100.5
q0 -191 -135 -294t-373 -103q-146 0 -257.5 32t-168.5 69l56 151q162 -94 364 -94z" />
    <glyph glyph-name="scommaaccent" unicode="&#x219;" horiz-adv-x="892" 
d="M367 -139v37h161q4 -16 4 -45q2 -19 -2 -46q-10 -101 -75 -153.5t-168 -52.5q-57 5 -70 12v113q82 0 116 31.5t34 103.5zM393 121q111 0 174.5 35.5t63.5 111.5q0 32 -9.5 56t-23.5 41.5t-50 38t-68 35t-99 42.5q-58 25 -92 42t-76.5 45t-65.5 57t-39 71.5t-16 94.5
q0 136 101 218.5t274 82.5q176 0 295 -56q-20 -66 -39 -145q-35 16 -54 24t-76 19.5t-120 11.5q-89 0 -147 -36t-58 -107q0 -67 44.5 -102.5t158.5 -85.5q8 -3 12 -5t10.5 -5t12.5 -5q46 -20 70.5 -31t62.5 -31t58.5 -36t45.5 -41t37.5 -51t21.5 -61t9 -75
q0 -146 -109 -224.5t-305 -78.5q-198 0 -323 64l43 149q113 -63 276 -63z" />
    <glyph glyph-name="uni021A" unicode="&#x21a;" horiz-adv-x="1140" 
d="M649 -147q0 -122 -66.5 -187t-181.5 -65q-54 4 -69 12v113q83 0 117 31.5t34 103.5v37h162q4 -32 4 -45zM35 1423h1055v-153h-435v-1274h-184v1274h-436v153z" />
    <glyph glyph-name="uni021B" unicode="&#x21b;" horiz-adv-x="808" 
d="M565 -147q0 -123 -65.5 -187.5t-180.5 -64.5q-55 4 -69 12v113q82 0 115.5 31.5t33.5 103.5v37h162q4 -16 4 -45zM778 37q-39 -23 -112 -43.5t-150 -20.5q-85 0 -147.5 20.5t-102.5 56.5t-63.5 94t-33 125t-9.5 157h-6v70l6 426v446l178 35v-336h397v-143h-397v-531
q0 -82 13 -136t41 -82.5t62 -39t85 -10.5q112 0 206 53q5 -23 16.5 -70t16.5 -71z" />
    <glyph glyph-name="uni021C" unicode="&#x21c;" horiz-adv-x="1085" 
d="M430 1458q146 0 255 -46.5t173 -146.5t64 -245q0 -36 -9 -90q-24 -102 -96.5 -183t-181.5 -120q163 -46 255.5 -163t92.5 -276q0 -125 -44.5 -225t-118.5 -164.5t-176 -107t-211.5 -60.5t-231.5 -18q-117 0 -152 6l10 160q40 -6 127 -6q85 0 162 10.5t155 37.5t135.5 69
t95 110.5t40.5 155.5q9 47 9 74q0 34 -9 67q-22 66 -72.5 114.5t-114.5 73.5t-125 36t-120 11h-92v156h74q79 0 150.5 19.5t130.5 57.5t93.5 102t34.5 147q0 136 -78 211t-225 75q-94 0 -183.5 -27t-156.5 -71l-63 154q68 42 176.5 72t226.5 30z" />
    <glyph glyph-name="uni021D" unicode="&#x21d;" horiz-adv-x="870" 
d="M322 942q-149 0 -261 -55l-43 145q48 25 135 44.5t175 19.5q90 0 162.5 -20.5t130 -63.5t89 -116.5t31.5 -172.5q0 -101 -63 -181.5t-158 -115.5q129 -32 201 -114t72 -216q0 -108 -48 -193.5t-124.5 -139t-179.5 -88t-205 -48.5t-209 -14l-9 149q53 2 94.5 5t106.5 12.5
t114.5 23.5t104.5 39.5t91 58.5t59.5 83.5t23.5 111.5q0 238 -350 238h-47v149q52 0 98 6t93.5 23t81.5 43t55.5 70.5t21.5 101.5q0 105 -62 160t-181 55z" />
    <glyph glyph-name="uni021E" unicode="&#x21e;" horiz-adv-x="1429" 
d="M502 1907l213 -193l213 193l76 -86l-289 -310l-289 310zM1061 817v606h184v-1427h-184v668h-703v-668h-184v1427h184v-606h703z" />
    <glyph glyph-name="uni021F" unicode="&#x21f;" horiz-adv-x="1171" 
d="M616 1882l-262 -213l-264 213l60 92l204 -137l203 137zM340 -4h-176v1573q63 11 176 26v-555q121 47 246 47q2 0 5 0.5t5 0.5q100 0 175 -24t122.5 -66t76.5 -106t40.5 -136t11.5 -164v-596h-176v549q0 219 -60 306t-223 87q-55 0 -125 -15t-98 -26v-901z" />
    <glyph glyph-name="uni0220" unicode="&#x220;" horiz-adv-x="1372" 
d="M1204 889v-1276h-180v1237q0 231 -83.5 338.5t-278.5 107.5q-175 0 -308 -39v-1265h-182v1384q75 34 216.5 57t295.5 23q116 0 205.5 -27.5t148.5 -76.5t96.5 -121t53.5 -155.5t16 -186.5z" />
    <glyph glyph-name="uni0221" unicode="&#x221;" horiz-adv-x="1468" 
d="M862 164v688q-44 32 -111.5 58t-144.5 26q-87 0 -150.5 -31.5t-100.5 -88t-54.5 -127.5t-17.5 -159q0 -191 96 -296t258 -105q123 0 225 35zM622 -25q-237 0 -379.5 149.5t-142.5 403.5t130.5 409t359.5 155q157 0 272 -76v553l174 30v-1449q75 69 178 69
q126 0 203.5 -84.5t77.5 -216.5q0 -143 -83.5 -224t-219.5 -81q-232 0 -297 201l-152 -179l-94 86l189 224q0 16 2.5 36t3.5 27q-97 -33 -222 -33zM1190 72q-49 0 -82.5 -21.5t-71.5 -66.5v-47q0 -87 42.5 -132t113.5 -45q69 0 105 44t36 112q0 66 -37.5 111t-105.5 45z" />
    <glyph glyph-name="uni0222" unicode="&#x222;" horiz-adv-x="1355" 
d="M678 -20q-291 0 -436.5 114t-145.5 318q0 76 26 141t69.5 109t92 73t101.5 45q-195 78 -195 334q0 156 41 313h175q-37 -181 -37 -299q0 -142 74 -211t235 -69t235 69.5t74 210.5q0 118 -37 299h174q41 -157 41 -313q0 -256 -194 -334q54 -16 102.5 -45t92 -73t69 -109
t25.5 -141q0 -204 -145.5 -318t-436.5 -114zM678 137q181 0 287 68.5t106 208.5q0 142 -105.5 211t-287.5 69t-287.5 -69t-105.5 -211q0 -140 106 -208.5t287 -68.5z" />
    <glyph glyph-name="uni0223" unicode="&#x223;" horiz-adv-x="1206" 
d="M604 991q127 0 189.5 73.5t62.5 235.5q0 135 -31 297h170q35 -158 35 -325q0 -264 -174 -354q107 -54 176.5 -167t69.5 -274q0 -232 -133.5 -371t-364.5 -139t-365.5 139t-134.5 371q0 161 69.5 274t176.5 167q-174 90 -174 354q0 153 35 325h170q-31 -182 -31 -297
q0 -162 63 -235.5t191 -73.5zM604 123q148 0 232 95t84 261q0 167 -84 263t-232 96t-232.5 -96t-84.5 -263q0 -166 84.5 -261t232.5 -95z" />
    <glyph glyph-name="uni0224" unicode="&#x224;" horiz-adv-x="1161" 
d="M1092 0q0 -83 -6.5 -140t-24 -107.5t-49.5 -80t-83 -46t-124 -16.5q-68 0 -131 21l22 138q39 -13 82 -13q81 0 107 51t28 185h-845v127q129 250 372 604t414 547h-748v157h963v-147q-41 -52 -57 -74q-163 -196 -379 -504t-354 -552h813v-150z" />
    <glyph glyph-name="uni0225" unicode="&#x225;" horiz-adv-x="944" 
d="M715 -8h-647v119q94 176 267.5 417.5t301.5 391.5h-539v149h760v-133q-99 -106 -281 -351.5t-298 -443.5h598v-153q0 -75 -4.5 -126t-20 -101t-43 -79.5t-74 -48t-112.5 -20.5q-24 -2 -35 -2q-61 0 -115 20l27 136q41 -13 84 -13q82 0 106.5 52t24.5 186z" />
    <glyph glyph-name="uni0226" unicode="&#x226;" horiz-adv-x="1335" 
d="M621 1563q-51 0 -84 32t-33 86t33 86.5t84 32.5q49 0 81.5 -32.5t32.5 -86.5t-32.5 -86t-81.5 -32zM879 532q-48 143 -185 525q-12 34 -25 74.5t-21 64.5t-15 37q-12 -18 -29 -78q-37 -110 -113 -323t-106 -300h494zM1243 -4h-186q-110 331 -137 407h-576
q-93 -256 -141 -407h-170q336 949 528 1421h154q38 -93 74 -185.5t77 -201.5t69.5 -185t77 -209t71 -196t80.5 -224.5t79 -219.5z" />
    <glyph glyph-name="uni0227" unicode="&#x227;" horiz-adv-x="1054" 
d="M520 1243q-51 0 -84 32.5t-33 86.5t33 86.5t84 32.5q49 0 82 -32.5t33 -86.5t-33 -86.5t-82 -32.5zM721 123v430q-47 5 -100 5q-33 0 -74 -3q-66 -8 -114.5 -23t-91 -42t-65 -72.5t-22.5 -108.5q0 -213 262 -213q119 0 205 27zM883 39q-60 -27 -163.5 -45.5t-221.5 -18.5
q-196 0 -303 84t-107 248q0 88 35 155.5t99 110.5t146 67.5t185 33.5q14 1 43 1q55 0 125 -5q-1 77 -11 129t-36 94.5t-75.5 63t-123.5 20.5q-154 0 -266 -57l-31 124q49 26 133.5 46t180.5 20q182 0 283.5 -91.5t105.5 -268.5q0 -19 1 -59.5t1 -61.5v-590z" />
    <glyph glyph-name="uni0228" unicode="&#x228;" horiz-adv-x="1150" 
d="M688 -98q52 -28 78.5 -61.5t26.5 -83.5q0 -65 -53 -111.5t-165 -46.5q-105 0 -159 26l22 119q51 -23 127 -23q70 3 70 54q-4 28 -27.5 43.5t-89.5 42.5q24 66 57 131h-403v1435h856v-157h-674v-447h600v-155h-600v-518h727v-158h-374q-6 -42 -19 -90z" />
    <glyph glyph-name="uni0229" unicode="&#x229;" horiz-adv-x="1132" 
d="M291 627h555q-6 151 -73.5 232t-190.5 81t-203 -91t-88 -222zM287 483q9 -178 99 -267t271 -89q141 2 265 57l28 -149q-40 -23 -115.5 -43t-168.5 -23q0 -35 -11 -67q107 -55 107 -143q0 -67 -53.5 -113.5t-165.5 -46.5q-103 0 -160 26l23 119q51 -23 126 -23q70 3 70 54
q-2 20 -18 35t-33 23t-64 28q15 49 50 114q-113 14 -197.5 61t-136.5 120.5t-77.5 166.5t-25.5 207q0 110 26.5 203.5t72.5 159t107.5 112t130.5 69t143 22.5q209 0 326.5 -134.5t117.5 -398.5q0 -15 -2 -41.5t-2 -38.5h-733z" />
    <glyph glyph-name="uni022A" unicode="&#x22a;" horiz-adv-x="1589" 
d="M1016 1647q0 -50 -30.5 -80.5t-78.5 -30.5q-46 0 -76.5 30.5t-31.5 82.5q1 51 30.5 80.5t77.5 29.5q45 0 77 -31.5t32 -80.5zM606 1645q-1 -49 -31.5 -79t-76.5 -30q-48 0 -78.5 30.5t-30.5 80.5q0 52 31 82t78 30q48 0 77.5 -30.5t30.5 -83.5zM424 1862v133h557v-133
h-557zM1116 711q0 126 -24.5 232t-73.5 188.5t-129 129t-184 46.5t-184 -46.5t-129 -129t-74 -188.5t-25 -232t24.5 -232.5t73.5 -189t129 -129.5t185 -47q106 0 186.5 46.5t128.5 130t72 189.5t24 232zM1296 707q0 -338 -158.5 -537t-432.5 -199q-273 0 -432.5 199
t-159.5 537q0 336 159.5 536.5t432.5 200.5q181 0 315.5 -91t205 -257.5t70.5 -388.5z" />
    <glyph glyph-name="uni022B" unicode="&#x22b;" 
d="M872 1307q0 -50 -30 -80.5t-76 -30.5q-48 0 -78.5 30.5t-30.5 82.5q0 50 30 80t77 30q45 0 76.5 -31.5t31.5 -80.5zM463 1305q0 -49 -31 -79t-78 -30q-46 0 -76 30.5t-30 80.5q0 53 29.5 82.5t76.5 29.5q48 0 78.5 -30.5t30.5 -83.5zM281 1522v133h557v-133h-557z
M854 541q0 91 -16.5 168.5t-50 139.5t-90.5 97t-132 35q-76 0 -133.5 -35t-91.5 -97t-51 -139.5t-17 -168.5q0 -124 28.5 -218.5t96 -154t168.5 -59.5q100 0 166.5 60t94.5 154t28 218zM1024 541q0 -255 -122 -411.5t-337 -156.5q-217 0 -340 157t-123 411q0 168 53.5 295.5
t158.5 200.5t249 73q217 0 339 -156.5t122 -412.5z" />
    <glyph glyph-name="uni022C" unicode="&#x22c;" horiz-adv-x="1589" 
d="M1051 1868h-656v164h656v-164zM526 1769q64 0 117.5 -17.5t111.5 -35.5t132 -18q68 3 115.5 23.5t95.5 62.5l35 -68q-72 -184 -244 -184q-52 0 -149 41t-136 41q-30 0 -95.5 -18t-98.5 -54l-86 103q32 33 46 46.5t41.5 34.5t54.5 30.5t60 12.5zM1116 711q0 126 -24.5 232
t-73.5 188.5t-129 129t-184 46.5t-184 -46.5t-129 -129t-74 -188.5t-25 -232t24.5 -232.5t73.5 -189t129 -129.5t185 -47q106 0 186.5 46.5t128.5 130t72 189.5t24 232zM1296 707q0 -338 -158.5 -537t-432.5 -199q-273 0 -432.5 199t-159.5 537q0 336 159.5 536.5
t432.5 200.5q181 0 315.5 -91t205 -257.5t70.5 -388.5z" />
    <glyph glyph-name="uni022D" unicode="&#x22d;" 
d="M258 1548v133h557v-133h-557zM686 1227q-46 0 -99.5 19.5t-97 39t-65.5 19.5q-34 0 -59 -25.5t-50 -71.5l-100 56q28 72 81.5 127t131.5 55q50 0 103.5 -19.5t95 -39t61.5 -19.5q25 0 46.5 15t34 31.5t30.5 47.5l96 -55q-15 -28 -33.5 -55.5t-45.5 -57.5t-61 -48.5
t-69 -18.5zM854 541q0 91 -16.5 168.5t-50 139.5t-90.5 97t-132 35q-76 0 -133.5 -35t-91.5 -97t-51 -139.5t-17 -168.5q0 -124 28.5 -218.5t96 -154t168.5 -59.5q100 0 166.5 60t94.5 154t28 218zM1024 541q0 -255 -122 -411.5t-337 -156.5q-217 0 -340 157t-123 411
q0 168 53.5 295.5t158.5 200.5t249 73q217 0 339 -156.5t122 -412.5z" />
    <glyph glyph-name="uni022E" unicode="&#x22e;" horiz-adv-x="1589" 
d="M707 1618q-51 0 -84 32.5t-33 86.5t33 86t84 32q49 0 81.5 -32t32.5 -86t-32.5 -86.5t-81.5 -32.5zM1118 711q0 126 -24.5 232t-73.5 188.5t-129 129t-184 46.5t-184 -46.5t-129 -129t-74 -188.5t-25 -232t24.5 -232.5t73 -189t129 -129.5t185.5 -47t185.5 47t129 130
t72.5 189t24 232zM1298 707q0 -338 -158.5 -537t-432.5 -199t-433 199t-159 537q0 336 159.5 536.5t432.5 200.5q272 0 431.5 -200.5t159.5 -536.5z" />
    <glyph glyph-name="uni022F" unicode="&#x22f;" 
d="M600 1274q-51 0 -84 32.5t-33 86.5t33 86t84 32q49 0 82 -32t33 -86t-33 -86.5t-82 -32.5zM854 541q0 91 -16.5 168.5t-50 139.5t-90.5 97t-132 35q-76 0 -133.5 -35t-91.5 -97t-51 -139.5t-17 -168.5q0 -124 28.5 -218.5t96 -154t168.5 -59.5q100 0 166.5 60t94.5 154
t28 218zM1024 541q0 -255 -122 -411.5t-337 -156.5q-217 0 -340 157t-123 411q0 168 53.5 295.5t158.5 200.5t249 73q217 0 339 -156.5t122 -412.5z" />
    <glyph glyph-name="uni0230" unicode="&#x230;" horiz-adv-x="1589" 
d="M815 1645q0 -50 -30.5 -80.5t-77.5 -30.5q-46 0 -77.5 31t-31.5 80q0 51 30.5 82.5t78.5 31.5t78 -31.5t30 -82.5zM438 1858v135h535v-135h-535zM1116 711q0 126 -24.5 232t-73.5 188.5t-129 129t-184 46.5t-184 -46.5t-129 -129t-74 -188.5t-25 -232t24.5 -232.5
t73.5 -189t129 -129.5t185 -47q106 0 186.5 46.5t128.5 130t72 189.5t24 232zM1296 707q0 -338 -158.5 -537t-432.5 -199q-273 0 -432.5 199t-159.5 537q0 336 159.5 536.5t432.5 200.5q181 0 315.5 -91t205 -257.5t70.5 -388.5z" />
    <glyph glyph-name="uni0231" unicode="&#x231;" 
d="M670 1329q0 -50 -30.5 -81t-76.5 -31q-48 0 -78 30.5t-30 81.5t30 82t78 31q46 0 76.5 -31.5t30.5 -81.5zM295 1540v135h534v-135h-534zM854 541q0 91 -16.5 168.5t-50 139.5t-90.5 97t-132 35q-76 0 -133.5 -35t-91.5 -97t-51 -139.5t-17 -168.5q0 -124 28.5 -218.5
t96 -154t168.5 -59.5q100 0 166.5 60t94.5 154t28 218zM1024 541q0 -255 -122 -411.5t-337 -156.5q-217 0 -340 157t-123 411q0 168 53.5 295.5t158.5 200.5t249 73q217 0 339 -156.5t122 -412.5z" />
    <glyph glyph-name="uni0232" unicode="&#x232;" horiz-adv-x="1191" 
d="M844 1616h-576v143h576v-143zM1081 1417q-279 -533 -442 -813v-608h-174v606q-218 381 -442 815h194q185 -396 340 -672q142 255 346 672h178z" />
    <glyph glyph-name="uni0233" unicode="&#x233;" horiz-adv-x="1003" 
d="M788 1313h-575v143h575v-143zM950 1087q-200 -709 -372 -1159q-26 -67 -46.5 -108.5t-48 -80t-61 -56t-76.5 -17.5q-28 0 -53 4t-47.5 12t-36 14t-34 16.5t-25.5 13.5l32 106q5 -3 21 -12t21 -11.5t17.5 -8.5t18 -8t15 -5.5t17 -4.5t15.5 -1q22 0 41 13.5t31.5 30
t25.5 47.5t19 49.5t16 52.5q4 14 6 20q-239 564 -395 1093h178q83 -329 244 -772q44 -140 49 -151q4 2 11 26t18 64.5t16 58.5q76 235 221 774h162z" />
    <glyph glyph-name="uni0234" unicode="&#x234;" horiz-adv-x="774" 
d="M199 -186l-150 -179l-94 86l217 256q-2 33 -2 84v1508l174 30v-1449q72 69 178 69q125 0 203 -84.5t78 -216.5q0 -144 -83.5 -224.5t-221.5 -80.5q-231 0 -299 201zM496 72q-49 0 -81.5 -21.5t-70.5 -66.5v-47q0 -87 41.5 -132t112.5 -45q70 0 106.5 44t36.5 112
q0 66 -37.5 111t-107.5 45z" />
    <glyph glyph-name="uni0235" unicode="&#x235;" horiz-adv-x="1449" 
d="M1475 -83q0 -143 -81.5 -223.5t-219.5 -80.5q-232 0 -300 201l-149 -179l-94 86l217 256q-2 29 -2 72v504q0 211 -62 296t-219 85q-149 0 -227 -27v-915h-174v1038q213 62 420 62q99 0 174.5 -23.5t124.5 -65.5t80 -105.5t44 -137t13 -166.5v-444q72 69 178 69
q124 0 200.5 -83t76.5 -219zM1171 72q-49 0 -81 -21t-70 -67v-47q0 -87 41.5 -132t112.5 -45q70 0 106.5 44t36.5 112q0 66 -38 111t-108 45z" />
    <glyph glyph-name="uni0236" unicode="&#x236;" horiz-adv-x="829" 
d="M496 72q-49 0 -81.5 -21.5t-70.5 -66.5v-47q0 -87 41.5 -132t112.5 -45q70 0 106.5 43t36.5 113q0 66 -37.5 111t-107.5 45zM344 920v-770q72 69 178 69q125 0 203 -84.5t78 -216.5q0 -144 -83.5 -224.5t-221.5 -80.5q-231 0 -299 201l-150 -179l-94 86l217 256
q-2 31 -2 76v1321l174 31v-336h414v-149h-414z" />
    <glyph glyph-name="uni0237" unicode="&#x237;" horiz-adv-x="499" 
d="M-14 -391q-67 0 -127 24l24 146q46 -17 99 -17q104 0 143 58.5t39 189.5v1059h174v-1055q0 -209 -83 -307t-269 -98z" />
    <glyph glyph-name="uni0238" unicode="&#x238;" horiz-adv-x="1900" 
d="M862 150v702q-44 32 -111.5 58t-144.5 26q-87 0 -150.5 -31.5t-100.5 -88t-54.5 -127.5t-17.5 -159q0 -192 96 -298.5t258 -106.5q148 0 225 25zM1036 1599v-583q45 30 117 53t160 23q227 0 356 -155t129 -407q0 -261 -145.5 -412t-388.5 -151q-175 0 -316 49
q-141 -49 -313 -49q-242 0 -388.5 151t-146.5 410q0 254 130.5 409t359.5 155q157 0 272 -76v553zM1036 852v-702q81 -25 226 -25q164 0 259 106.5t95 298.5q0 70 -10.5 129t-34.5 111t-61 88t-92.5 57t-125.5 21q-136 0 -256 -84z" />
    <glyph glyph-name="uni0239" unicode="&#x239;" horiz-adv-x="1900" 
d="M862 209v700q-77 25 -225 25q-162 0 -258 -107t-96 -301q0 -88 17.5 -158.5t54.5 -126t100.5 -86t150.5 -30.5q78 0 146 26t110 58zM1036 45v-432h-174v432q-44 -31 -115.5 -54.5t-158.5 -23.5q-229 0 -358.5 154t-129.5 407q0 259 147 411.5t388 152.5q163 0 313 -52
q150 52 316 52q243 0 388.5 -152t145.5 -412q0 -251 -129 -406t-356 -155q-161 0 -277 78zM1036 909v-700q113 -84 256 -84q87 0 151.5 30.5t101 86t54 126t17.5 158.5q0 194 -95 301t-259 107q-145 0 -226 -25z" />
    <glyph glyph-name="uni023A" unicode="&#x23a;" horiz-adv-x="1366" 
d="M758 508h211q-18 46 -53 140t-56 145zM383 508h213l180 491q-67 163 -100 236q-154 -350 -293 -727zM989 1587l141 -45l-186 -514q57 -134 116 -285t149 -391t134 -356h-190q-25 70 -70 192t-65 179h-316l-204 -576l-146 47l191 529h-209q-20 -53 -41.5 -113.5
t-48.5 -136.5t-43 -121h-181q190 513 315.5 828t264.5 603h156q50 -105 96 -210z" />
    <glyph glyph-name="uni023B" unicode="&#x23b;" horiz-adv-x="1294" 
d="M816 1293q-246 0 -378.5 -156t-132.5 -426q0 -326 174 -478l430 1051q-54 9 -93 9zM805 129q217 0 358 78l51 -154q-48 -32 -165.5 -62t-268.5 -30q-120 0 -233 43l-88 -219l-137 51l92 227q-142 92 -220.5 257t-78.5 391q0 175 54.5 318.5t148 236t214.5 142.5t256 50
q110 0 181 -18l67 162l140 -50l-62 -151l74 -33q16 -6 55 -25l-59 -159q-62 39 -131 63l-443 -1083q90 -35 195 -35z" />
    <glyph glyph-name="uni023C" unicode="&#x23c;" horiz-adv-x="980" 
d="M622 950q-177 0 -267.5 -110.5t-90.5 -323.5q0 -224 119 -323l244 757h-5zM621 -33q-70 0 -164 23l-56 -174l-131 39l60 186q-113 68 -171.5 194t-58.5 293q0 255 137 411.5t369 156.5q22 0 62 -4l55 174l131 -39l-49 -160q84 -25 117 -41l-43 -147q-67 33 -123 45
l-248 -779q64 -18 147 -18q122 2 226 53l32 -149q-47 -25 -129 -44.5t-163 -19.5z" />
    <glyph glyph-name="uni023D" unicode="&#x23d;" horiz-adv-x="1073" 
d="M383 152h661v-160h-843v678h-164v145h164v612h182v-612h326v-145h-326v-518z" />
    <glyph glyph-name="uni023E" unicode="&#x23e;" horiz-adv-x="1069" 
d="M209 -104l207 647v739h-367v135h723l43 123l133 -18v-92l66 -13l-6 -98l-115 -27l-229 -639l-17 -544l-166 -154l-59 201l-111 -287zM590 918l131 364h-131v-364z" />
    <glyph glyph-name="uni023F" unicode="&#x23f;" horiz-adv-x="892" 
d="M819 270q0 -142 -106 -212.5t-296 -70.5q-47 0 -83 7q9 -9 24 -26t41 -46t47 -53q34 -38 61.5 -59.5t70.5 -35.5t100 -14q32 0 84 9l18 -140q-50 -16 -116 -16q-67 0 -114 8.5t-89.5 34t-73.5 53t-84 82.5q-33 38 -72 86.5t-59 73t-50 51.5t-63 45l56 137
q122 -61 284 -61q242 0 242 143q0 19 -2.5 34.5t-10.5 30t-15.5 25t-26 23t-32 21t-43.5 22t-51 22.5l-63 27q-45 18 -69.5 29t-62 30.5t-59 35.5t-47 40.5t-38.5 50t-22 60t-9 74.5q0 137 103 219t280 82q168 0 295 -54l-37 -151q-110 51 -250 51q-8 1 -22 1
q-83 0 -138 -35.5t-55 -102.5q0 -25 5.5 -45t22.5 -38t30.5 -29.5t48 -28t55 -25.5t70.5 -29t75.5 -31.5t66 -32t61.5 -36.5t47.5 -41.5t39 -52.5t22 -63t9.5 -79z" />
    <glyph glyph-name="uni0240" unicode="&#x240;" horiz-adv-x="942" 
d="M938 -225l20 -144q-54 -14 -110 -14q-72 0 -125 16q-44 12 -85 39t-73.5 59t-66.5 68.5t-71.5 70.5t-79 61.5t-97.5 44t-121 16.5h-61v119q94 176 267.5 417.5t301.5 391.5h-539v149h760v-129q-109 -122 -291 -365t-301 -446q94 -16 167.5 -63t150.5 -125q11 -11 40 -41
t42 -42.5t39 -34t45.5 -31t47 -17.5t56.5 -8q53 0 84 8z" />
    <glyph glyph-name="uni0241" unicode="&#x241;" horiz-adv-x="978" 
d="M446 403v-411h-182v422q0 54 7 98t16 76.5t31.5 64.5t40 52t55.5 48t63 44t78 49q47 29 75 50t53 49t35.5 62t10.5 78q0 107 -82.5 160t-214.5 53q-103 0 -193 -31t-147 -67l-61 152q53 37 171 71.5t234 34.5q235 0 358.5 -95t123.5 -273q0 -37 -4.5 -70t-17 -61.5
t-23.5 -50.5t-34 -46t-38 -39t-46.5 -37.5t-48 -33.5t-53.5 -35q-129 -81 -168 -137.5t-39 -176.5z" />
    <glyph glyph-name="uni0242" unicode="&#x242;" horiz-adv-x="843" 
d="M399 229v-237h-176v254q0 111 42 177t126 122q24 16 63.5 40.5t57 36t42 31.5t34.5 36t18 39.5t8 51.5q0 86 -66.5 123t-170.5 37q-85 0 -166.5 -25.5t-140.5 -64.5l-58 143q47 36 150.5 69.5t210.5 33.5q207 0 312.5 -82t105.5 -232q0 -47 -13 -88t-32 -69.5t-51.5 -58
t-59 -48t-68.5 -43.5q-49 -32 -74.5 -51.5t-50 -48.5t-34 -63.5t-9.5 -82.5z" />
    <glyph glyph-name="uni0243" unicode="&#x243;" horiz-adv-x="1327" 
d="M379 1272v-455h246q163 0 254.5 53t91.5 183q0 233 -393 233q-117 0 -199 -14zM659 664l-253 -5v-206l229 -2v-99h-229v-205q74 -12 194 -12q93 2 165.5 14.5t136.5 41.5t99 83.5t35 131.5q0 75 -25.5 125.5t-76.5 79t-117 40.5t-158 13zM565 -23q-77 0 -185.5 12
t-182.5 29v318h-160v135h160v930q157 39 374 39q99 0 183 -11.5t160 -39.5t128.5 -71t83.5 -109t31 -150q0 -108 -54 -187t-147 -112q271 -76 271 -357q0 -426 -662 -426z" />
    <glyph glyph-name="uni0244" unicode="&#x244;" horiz-adv-x="1443" 
d="M721 125q164 0 257.5 102.5t96.5 309.5v165h-706v-165q3 -208 96 -310t256 -102zM721 -39q-141 0 -246 43t-167 121.5t-92 179t-30 223.5v174h-149v146h149v579h183v-579h706v579h182v-579h150v-146h-150v-174q0 -125 -29.5 -225.5t-92 -178.5t-167.5 -120.5t-247 -42.5z
" />
    <glyph glyph-name="uni0245" unicode="&#x245;" horiz-adv-x="1306" 
d="M1298 -8h-202q-247 736 -447 1210q-192 -446 -448 -1210h-193q172 491 297.5 810.5t263.5 624.5h160l78 -163q211 -480 491 -1272z" />
    <glyph glyph-name="uni0246" unicode="&#x246;" horiz-adv-x="1173" 
d="M354 668v-498l74 4l205 494h-279zM354 1270v-449h342l187 449h-529zM1098 -8h-590l-96 -234l-133 49l75 185h-182v1435h774l62 148l133 -49l-293 -705h125v-153h-187l-215 -518h527v-158z" />
    <glyph glyph-name="uni0247" unicode="&#x247;" horiz-adv-x="1136" 
d="M668 616l217 2q3 219 -121 302zM485 485l-206 -2q0 -200 114 -288zM287 614l239 2l107 336q-21 3 -42 3q-124 0 -205.5 -99.5t-98.5 -241.5zM104 532q0 152 59 280t169 205.5t248 77.5q41 0 96 -10l55 177l131 -39l-55 -172q127 -57 186.5 -175t59.5 -311q0 -37 -4 -73
l-420 -7l-111 -344q65 -24 149 -24q140 0 283 63l29 -141q-117 -68 -296 -68q-105 0 -210 25l-55 -170l-131 35l57 180q-240 127 -240 491z" />
    <glyph glyph-name="uni0248" unicode="&#x248;" horiz-adv-x="1044" 
d="M844 1427v-614h166v-143h-166v-219q0 -110 -22 -195t-71.5 -153.5t-140 -105t-217.5 -36.5q-133 0 -235 39.5t-152 85.5l78 147q138 -110 293 -110q151 0 219 78t68 264v205h-297v143h297v614h180z" />
    <glyph glyph-name="uni0249" unicode="&#x249;" horiz-adv-x="555" 
d="M397 1380q0 -56 -33.5 -89.5t-84.5 -33.5q-52 0 -85.5 33.5t-33.5 89.5t33.5 88.5t85.5 32.5q51 0 84.5 -32.5t33.5 -88.5zM23 -236q30 0 54 5t41.5 17t30 25.5t21 37.5t13 44.5t7 55.5t3 62t0.5 71v414h-193v137h193v436h174v-436h165v-137h-165v-412q0 -127 -16 -212.5
t-56 -146.5t-108 -88.5t-171 -27.5q-69 0 -129 24l25 146q38 -15 88 -15h23z" />
    <glyph glyph-name="uni024A" unicode="&#x24a;" horiz-adv-x="1622" 
d="M1360 -109q-66 129 -66 328q-71 -113 -207 -185.5t-294 -72.5q-139 0 -261 48.5t-215.5 140.5t-147.5 236.5t-54 324.5q0 179 54.5 323.5t148.5 235.5t216 139.5t261 48.5q140 0 262 -48.5t215 -140t147 -235.5t54 -323v-770q0 -94 30 -136.5t99 -42.5q46 0 88 17
l24 -148q-56 -19 -117 -22q-74 0 -122.5 20.5t-72.5 62t-32.5 87t-9.5 112.5zM1284 711q0 271 -132 427t-357 156t-357.5 -156.5t-132.5 -426.5t132.5 -428t357.5 -158t357 157.5t132 428.5z" />
    <glyph glyph-name="uni024B" unicode="&#x24b;" horiz-adv-x="1200" 
d="M862 209v700q-77 25 -225 25q-162 0 -258 -107t-96 -301q0 -88 17.5 -158.5t54.5 -126t100.5 -86t150.5 -30.5q78 0 146 26t110 58zM862 -53q-3 16 -22 94q-105 -74 -252 -74q-229 0 -358.5 154t-129.5 407q0 259 147 411.5t388 152.5q217 0 401 -62v-1091q0 -93 28 -135
t97 -42q49 0 86 13l25 -144q-58 -20 -133 -20q-68 0 -117.5 16t-79.5 43.5t-48 72t-24.5 92t-7.5 112.5z" />
    <glyph glyph-name="uni024C" unicode="&#x24c;" horiz-adv-x="1306" 
d="M590 1282q-72 0 -207 -12v-557h86h3q80 0 119.5 0.5t106 6t100 15.5t78 30t65.5 49.5t36.5 74t15.5 102.5q0 291 -403 291zM700 565q-18 -2 -57 -2h-59h-201v-571h-182v571h-164v150h164v688q160 39 372 39q301 0 455 -113.5t154 -337.5q0 -290 -295 -389
q98 -127 209.5 -295.5t177.5 -312.5h-199q-135 258 -375 573z" />
    <glyph glyph-name="uni024D" unicode="&#x24d;" horiz-adv-x="794" 
d="M566 937q-53 0 -120 -10.5t-92 -23.5v-344h310v-137h-310v-430h-174v430h-155v137h155v459q170 74 379 74q61 0 125.5 -11.5t97.5 -25.5l-34 -150q-72 32 -182 32z" />
    <glyph glyph-name="uni024E" unicode="&#x24e;" horiz-adv-x="1255" 
d="M463 961l168 -261l164 261h-332zM721 -8h-182v583q-119 177 -242 386h-256v143h174q-124 217 -178 323h209q62 -136 166 -323h438q115 210 170 323h199l-181 -323h174v-143h-256q-79 -138 -235 -381v-588z" />
    <glyph glyph-name="uni024F" unicode="&#x24f;" horiz-adv-x="1077" 
d="M418 504q114 -284 168 -389q29 87 123 389h-291zM1040 518h-178q-95 -318 -200 -555q-74 -172 -155.5 -252.5t-215.5 -97.5q-37 -5 -69 -5q-49 0 -102.5 12.5t-76.5 23.5l33 145q65 -31 137 -31q108 0 171 50.5t116 177.5q-133 243 -248 532h-197v137h148
q-78 208 -127 414h184q45 -189 123 -414h350q41 154 101 414h176q-54 -230 -107 -414h137v-137z" />
    <glyph glyph-name="uni0259" unicode="&#x259;" horiz-adv-x="1132" 
d="M266 438q3 -166 71 -250t193 -84q128 0 207.5 100t83.5 277zM104 547l713 51q-21 375 -352 375q-150 0 -272 -62l-35 129q46 28 131.5 48t185.5 20q248 0 380 -147t132 -420q0 -137 -36.5 -247t-100 -179t-146 -105.5t-176.5 -36.5q-182 0 -291.5 109t-127.5 326
q-5 68 -5 139z" />
    <glyph glyph-name="uni0292" unicode="&#x292;" horiz-adv-x="948" 
d="M248 326v75l2 52q94 106 196 239.5t164 227.5h-573v149h792v-104q-66 -105 -176 -252.5t-204 -255.5q87 -7 160.5 -32t135.5 -71.5t97 -123t35 -177.5q0 -216 -139 -328t-386 -112q-113 0 -208.5 21t-151.5 51l43 149q124 -63 315 -63q170 0 259 72.5t89 209.5
q0 67 -23 117t-58.5 79t-88 47t-102.5 24t-111 6h-67z" />
    <glyph glyph-name="uni02BB" unicode="&#x2bb;" horiz-adv-x="468" 
d="M367 1278q-2 -47 -38 -78t-93 -31q-69 0 -97 33q-35 45 -35 109q3 71 40.5 155.5t99.5 161.5l94 -47q-42 -65 -60 -105.5t-22 -91.5q111 -13 111 -106z" />
    <glyph glyph-name="apostrophe" unicode="&#x2bc;" horiz-adv-x="739" 
d="M303 1597h176q0 -2 6 -67q-8 -108 -40.5 -194t-96.5 -189l-123 49q84 175 84 320q0 44 -6 81z" />
    <glyph glyph-name="circumflex" unicode="&#x2c6;" horiz-adv-x="776" 
d="M389 1374l-215 -190l-76 86l291 307l287 -307l-74 -86z" />
    <glyph glyph-name="caron" unicode="&#x2c7;" horiz-adv-x="774" 
d="M176 1585l213 -192l213 192l76 -86l-289 -309l-289 309z" />
    <glyph glyph-name="uni02C8" unicode="&#x2c8;" horiz-adv-x="360" 
d="M102 1223v370h156v-370h-156z" />
    <glyph glyph-name="uni02C9" unicode="&#x2c9;" horiz-adv-x="770" 
d="M674 1313h-576v143h576v-143z" />
    <glyph glyph-name="breve" unicode="&#x2d8;" horiz-adv-x="780" 
d="M389 1243q-113 0 -191 71t-78 203q0 16 1 25h121q0 -23 5.5 -46t19.5 -50t45.5 -43.5t76.5 -16.5q37 0 65.5 12t43.5 28.5t25 40t12.5 40.5t3.5 35h120q0 -148 -73 -223.5t-197 -75.5z" />
    <glyph glyph-name="dotaccent" unicode="&#x2d9;" horiz-adv-x="733" 
d="M367 1262q-51 0 -84 32t-33 86t33 86.5t84 32.5q49 0 81.5 -32.5t32.5 -86.5t-32.5 -86t-81.5 -32z" />
    <glyph glyph-name="ring" unicode="&#x2da;" horiz-adv-x="755" 
d="M481 1391q0 51 -29 79.5t-75 28.5q-45 0 -75 -28.5t-30 -79.5q0 -52 30 -80.5t75 -28.5q46 0 75 28.5t29 80.5zM588 1391q0 -94 -61 -152.5t-150 -58.5q-88 0 -149.5 58t-61.5 153q0 94 61.5 151t149.5 57q89 0 150 -57.5t61 -150.5z" />
    <glyph glyph-name="ogonek" unicode="&#x2db;" horiz-adv-x="751" 
d="M362 -399q-217 0 -217 157q0 75 56 147t131 122h162q-66 -66 -91 -97l-2 -2q-82 -86 -84 -129q3 -61 78 -61q52 4 86 16l15 -131q-60 -22 -134 -22z" />
    <glyph glyph-name="tilde" unicode="&#x2dc;" horiz-adv-x="770" 
d="M516 1196q-46 0 -100 20t-97.5 40t-64.5 20q-36 0 -59.5 -24.5t-49.5 -71.5l-102 55q12 31 30 59.5t44 58t62 47t77 17.5q50 0 104 -20t96 -40t62 -20q36 0 59.5 25t49.5 72l98 -56q-14 -29 -33.5 -57t-46 -58t-60.5 -48.5t-69 -18.5z" />
    <glyph glyph-name="hungarumlaut" unicode="&#x2dd;" horiz-adv-x="794" 
d="M418 1499l-271 -321l-98 77l252 353zM389 1255l252 351l119 -109l-275 -319z" />
    <glyph glyph-name="gravecomb" unicode="&#x300;" horiz-adv-x="0" 
d="M-569 1180h-101l-297 372h222z" />
    <glyph glyph-name="acutecomb" unicode="&#x301;" horiz-adv-x="0" 
d="M-580 1180h-100l176 372h223z" />
    <glyph glyph-name="uni0302" unicode="&#x302;" horiz-adv-x="0" 
d="M-627 1386l-213 -192l-78 86l291 309l289 -309l-76 -86z" />
    <glyph glyph-name="tildecomb" unicode="&#x303;" horiz-adv-x="0" 
d="M-502 1274q-46 0 -100 19.5t-97.5 39t-64.5 19.5q-24 0 -45 -15.5t-33.5 -33.5t-29.5 -48l-103 56q13 32 30.5 60.5t44 57.5t63 46.5t77.5 17.5q50 0 103.5 -19.5t95 -39t61.5 -19.5q36 0 60 24t49 70l98 -55q-15 -28 -33.5 -55.5t-45.5 -57.5t-61 -48.5t-69 -18.5z" />
    <glyph glyph-name="uni0304" unicode="&#x304;" horiz-adv-x="0" 
d="M-356 1313h-576v143h576v-143z" />
    </font>
</defs>
</svg>
