<?xml version="1.0" standalone="no"?>
<!DOCTYPE svg PUBLIC "-//W3C//DTD SVG 1.1//EN" "http://www.w3.org/Graphics/SVG/1.1/DTD/svg11.dtd" >
<svg xmlns="http://www.w3.org/2000/svg" xmlns:xlink="http://www.w3.org/1999/xlink" version="1.1">
<metadata>
Created by FontForge 20170731 at Thu Jun  2 18:52:53 2022
 By Aleksey,,,
Copyright (c) 2015 by Context Ltd. All rights reserved.
</metadata>
<defs>
<font id="Repo-Bold" horiz-adv-x="1187" >
  <font-face 
    font-family="Repo"
    font-weight="700"
    font-stretch="normal"
    units-per-em="2048"
    panose-1="2 0 5 3 4 0 0 2 0 4"
    ascent="1638"
    descent="-410"
    x-height="1104"
    cap-height="1450"
    bbox="-1155 -664 2955 2599"
    underline-thickness="245"
    underline-position="-619"
    unicode-range="U+0009-FB04"
  />
<missing-glyph horiz-adv-x="1101" 
d="M102 0v1085h996v-1085h-996zM141 152v-5q132 295 414 580q-79 36 -158 51q-146 -250 -256 -626zM713 641q-165 -84 -296.5 -204.5t-260.5 -289.5q363 255 696 375q-74 77 -139 119zM199 147h860q-17 116 -82 207q-204 -27 -415 -83.5t-363 -123.5z" />
    <glyph glyph-name="f_f" unicode="ff" horiz-adv-x="1679" 
d="M1233 874h-287v-890h-301v827l-80 63l-61 39l82 189l59 24q0 116 16 197t55 143.5t106 97.5t167 48q125 8 271 -27l-31 -225q-55 9 -97.5 10.5t-73.5 -11.5t-52.5 -32.5t-34.5 -53.5t-18.5 -74.5t-6.5 -94.5h287v-230zM1083 874h-286v-890h-301v827l-80 63l-62 39l82 189
l60 24q0 116 16 197t55 143.5t106 97.5t167 48q124 8 270 -27l-31 -225q-66 15 -114 10t-80 -21t-51.5 -52t-27.5 -82t-9 -111h286v-230z" />
    <glyph glyph-name="f_i" unicode="fi" horiz-adv-x="1363" 
d="M590 1624q146 0 266 -57l-55 -252q-97 43 -191 43q-112 0 -150 -58.5t-38 -195.5h397v-260h-397v-879h-299v1186q0 227 118.5 350t348.5 123zM1241 1104v-1139h-299v1139h299zM1270 1384q0 -82 -51.5 -131t-126.5 -49q-76 0 -128.5 49t-52.5 131t52.5 131.5t128.5 49.5
q75 0 126.5 -49.5t51.5 -131.5z" />
    <glyph glyph-name="f_l" unicode="fl" horiz-adv-x="1476" 
d="M590 1624q146 0 266 -57l-55 -252q-97 43 -191 43q-112 0 -150 -58.5t-38 -195.5h397v-260h-397v-879h-299v1186q0 227 118.5 350t348.5 123zM1481 121l-51 -150q-138 4 -228.5 30.5t-142 80.5t-72 126t-20.5 179v1210h303v-1132q0 -80 7.5 -134t20.5 -89t41.5 -58
t58.5 -35.5t83 -27.5z" />
    <glyph glyph-name="f_f_i" unicode="ffi" horiz-adv-x="2183" 
d="M590 1624q154 0 284 -59l-61 -256q-104 49 -203 49q-112 0 -150 -58.5t-38 -195.5h397v-260h-397v-879h-299v1186q0 227 118.5 350t348.5 123zM1409 1624q146 0 266 -57l-55 -252q-97 43 -190 43q-58 0 -95.5 -15t-57.5 -49t-27.5 -77.5t-8.5 -112.5h399v-260h-399v-879
h-299v1186q0 227 118.5 350t348.5 123zM1939 1378q61 -84 99.5 -199t38.5 -247q0 -119 -21 -227q-52 -62 -145 -62q-53 0 -96 14q-70 217 -70 430q0 128 20 228q66 63 174 63zM2075 571q-137 -45 -285 -45q-43 211 -43 381q0 173 43 381h242q43 -417 43 -717z" />
    <glyph glyph-name="f_f_l" unicode="ffl" horiz-adv-x="2351" 
d="M590 1624q154 0 284 -59l-61 -256q-104 49 -203 49q-112 0 -150 -58.5t-38 -195.5h397v-260h-397v-879h-299v1186q0 227 118.5 350t348.5 123zM1409 1624q146 0 266 -57l-55 -252q-97 43 -190 43q-58 0 -95.5 -15t-57.5 -49t-27.5 -77.5t-8.5 -112.5h399v-260h-399v-879
h-299v1186q0 227 118.5 350t348.5 123zM2286 121l-52 -150q-138 4 -228.5 30.5t-142 80.5t-71.5 126t-20 179v1210h303v-1132q0 -80 7.5 -134t20.5 -89t41.5 -58t58.5 -35.5t83 -27.5z" />
    <glyph glyph-name=".notdef" horiz-adv-x="1101" 
d="M102 0v1085h996v-1085h-996zM141 152v-5q132 295 414 580q-79 36 -158 51q-146 -250 -256 -626zM713 641q-165 -84 -296.5 -204.5t-260.5 -289.5q363 255 696 375q-74 77 -139 119zM199 147h860q-17 116 -82 207q-204 -27 -415 -83.5t-363 -123.5z" />
    <glyph glyph-name=".null" horiz-adv-x="0" 
 />
    <glyph glyph-name=".null" horiz-adv-x="0" 
 />
    <glyph glyph-name="nonmarkingreturn" horiz-adv-x="682" 
 />
    <glyph glyph-name="CR" unicode="&#x9;" horiz-adv-x="481" 
 />
    <glyph glyph-name="space" unicode=" " horiz-adv-x="583" 
 />
    <glyph glyph-name="exclam" unicode="!" horiz-adv-x="542" 
d="M418 1579l-6 -584q-1 -114 -23.5 -301t-26.5 -239h-186q-3 31 -25.5 227t-23.5 313l-6 584q2 1 11 6t12.5 6.5t12.5 5.5t15.5 5.5t17.5 4.5t21.5 4t25.5 2t31 1t30.5 -1t25 -2t22 -4t17.5 -4.5t16.5 -5.5t13.5 -5.5l13 -6.5zM440 145q0 -75 -48.5 -121.5t-119.5 -46.5
q-72 0 -121 46t-49 120t47 122t123 48q70 0 119 -47t49 -121z" />
    <glyph glyph-name="quotedbl" unicode="&#x22;" horiz-adv-x="905" 
d="M391 1579q-26 -343 -65 -596h-160q-40 276 -64 596l11 5.5t11.5 5.5t11.5 5t14 5.5t14 4t17 4t18.5 3t22 2t24.5 0.5q37 0 68 -6.5t40.5 -11t36.5 -17.5zM803 1579q-24 -320 -64 -596h-161q-43 313 -64 596l12 6l13 6.5t13 5.5t16 5.5t17 4.5t21 4t23 2t28 1
q13 0 25 -0.5t23 -2t19 -3t17 -4t14 -4t14 -5.5t11.5 -5t11.5 -5.5z" />
    <glyph glyph-name="numbersign" unicode="#" horiz-adv-x="1390" 
d="M1198 846h-211l-49 -260h223v-199h-256l-74 -403h-223l74 403h-217l-74 -403h-223l74 401h-172v201h206l52 260h-222v198h256q12 65 35.5 193.5t36.5 192.5h221q-46 -236 -69 -386h217q44 246 71 386h220q-55 -310 -70 -386h174v-198zM766 846h-217l-49 -260h217z" />
    <glyph glyph-name="dollar" unicode="$" horiz-adv-x="1159" 
d="M1020 403q0 -154 -95.5 -263.5t-267.5 -139.5q2 -40 6.5 -129t6.5 -135h-221q8 172 10 258q-211 10 -350 90q13 38 39 114.5t40 114.5q106 -59 236 -75q44 -5 98 -2q94 6 139.5 47t45.5 108q0 72 -52 115t-172 90q-72 30 -122.5 58t-103 71t-82.5 102.5t-36 133.5
q-4 41 -2 61q8 147 97 248t251 131q-2 40 -5 122t-5 122h217q-2 -39 -5 -117.5t-5 -118.5q163 -13 283 -76q-29 -104 -64 -217q-144 68 -274 68q-91 0 -141 -40t-50 -112q0 -37 13.5 -65t55 -55.5t69.5 -41.5t103 -47q9 -4 13 -6q164 -70 247 -167t83 -247z" />
    <glyph glyph-name="percent" unicode="%" horiz-adv-x="1800" 
d="M1706 416q0 -193 -79.5 -317t-231.5 -124q-103 0 -174.5 60.5t-104 158t-31.5 222.5q0 124 32 221t103.5 158t174.5 61t174 -61t103.5 -158t33.5 -221zM1364 1561l-756 -1768l-241 41l755 1770zM707 1014q0 -92 -19 -171t-56 -140.5t-98 -96.5t-139 -35t-139 35
t-97.5 96.5t-55.5 140.5t-19 171q0 125 32 222.5t103.5 158.5t175.5 61t176 -61t104 -158.5t32 -222.5zM1516 418q0 289 -121 289q-123 0 -119 -289q0 -291 119 -291q121 0 121 291zM516 1016q0 293 -121 293q-123 0 -123 -293q0 -291 123 -291q121 0 121 291z" />
    <glyph glyph-name="ampersand" unicode="&#x26;" horiz-adv-x="1400" 
d="M72 383q0 257 278 412q-114 123 -125 249q-2 34 2 93q17 150 117.5 231.5t261.5 81.5q174 0 272.5 -92.5t98.5 -233.5q0 -64 -21 -121t-60 -104t-83 -83.5t-102 -72.5l252 -258q53 101 77 234l220 -19q-15 -89 -48 -190t-77 -178q68 -75 136 -168.5t105 -163.5h-268
q-68 94 -125 152q-193 -170 -428 -170q-105 0 -189.5 24.5t-138.5 63.5t-89.5 92.5t-50.5 108t-15 112.5zM319 399q0 -81 61 -142.5t181 -61.5q156 0 273 102l-342 352q-36 -20 -62.5 -39.5t-54 -49.5t-42 -70.5t-14.5 -90.5zM745 1116q0 58 -37 94.5t-104 36.5
q-72 0 -110.5 -40.5t-38.5 -112.5q0 -117 112 -213q84 45 131 100t47 135z" />
    <glyph glyph-name="quotesingle" unicode="'" horiz-adv-x="499" 
d="M393 1479l-6 -144q-5 -128 -47 -452h-178q-40 265 -49 469q0 45 -4 127q49 32 122 32q94 0 162 -32z" />
    <glyph glyph-name="parenleft" unicode="(" horiz-adv-x="688" 
d="M741 -334l-180 -110q-224 251 -334 507t-110 535t110 535t334 507l180 -108q-317 -436 -317 -934q0 -500 317 -932z" />
    <glyph glyph-name="parenright" unicode=")" horiz-adv-x="688" 
d="M631 598q0 -279 -110 -535t-335 -507l-180 110q318 434 318 932q0 497 -318 934q31 18 90 54t90 54q225 -251 335 -507t110 -535z" />
    <glyph glyph-name="asterisk" unicode="*" horiz-adv-x="1001" 
d="M375 1419h239v-34v-36.5t-0.5 -34t-3 -41t-5.5 -41t-8.5 -49.5t-12.5 -53q6 3 41.5 22t53.5 27.5t50.5 23.5t62.5 25t60 17l74 -227q-18 -9 -37 -17t-44 -14t-40 -10t-45.5 -8t-39.5 -5.5t-44 -5.5t-37 -4q2 -2 27.5 -25t36 -33t35 -34t38.5 -40.5t31.5 -39.5t28.5 -43
l-191 -143q-13 14 -26.5 30t-23.5 29.5t-21.5 33.5t-18.5 31.5t-18.5 34t-15.5 31t-15.5 33t-13.5 29.5q-2 -4 -16.5 -37t-21.5 -47l-22.5 -45t-27 -49t-28 -39t-32.5 -35l-194 143q12 25 39 57.5t45.5 51t62 59.5t49.5 47q-201 20 -287 64l72 225q14 -2 29 -5.5t32 -9.5
t30.5 -11t33.5 -14.5t30.5 -14t32.5 -16t28.5 -15t29 -16t24.5 -13.5q-36 182 -26 291z" />
    <glyph glyph-name="plus" unicode="+" horiz-adv-x="1159" 
d="M1036 522h-342v-364h-237v364h-340v238h340v362h237v-362h342v-238z" />
    <glyph glyph-name="comma" unicode="," horiz-adv-x="573" 
d="M463 238q-48 -257 -244 -596l-192 51q33 93 57 187.5t34 149.5t25 152q9 81 9 82q12 3 39.5 10.5t37.5 10.5t31 8t32 7t28 4.5t31 3.5t30 1q38 0 60.5 -19t21.5 -52z" />
    <glyph glyph-name="hyphen" unicode="-" horiz-adv-x="729" 
d="M647 516h-565v229h565v-229z" />
    <glyph glyph-name="period" unicode="." horiz-adv-x="544" 
d="M451 145q0 -81 -53 -131.5t-130 -50.5t-130.5 50t-53.5 130t54 132.5t130 52.5t129.5 -52.5t53.5 -130.5z" />
    <glyph glyph-name="slash" unicode="/" horiz-adv-x="825" 
d="M801 1636l246 -45l-842 -2033l-244 45z" />
    <glyph glyph-name="zero" unicode="0" horiz-adv-x="1159" 
d="M1075 709q0 -158 -29 -291t-87.5 -237t-156.5 -163t-227 -59q-104 0 -187.5 39t-141 107t-96.5 163t-56.5 205t-17.5 236q0 124 18 233.5t57 204.5t96.5 163t141.5 107t186 39q104 0 188 -38.5t141.5 -106.5t96.5 -163t56.5 -204.5t17.5 -234.5zM776 709q0 518 -201 518
q-200 0 -200 -518q0 -516 200 -516q201 0 201 516z" />
    <glyph glyph-name="one" unicode="1" horiz-adv-x="1159" 
d="M825 -16h-305v1083q-52 -32 -137.5 -62t-175.5 -44l-45 137l-4 80q154 34 269 100t183 152h215v-1446z" />
    <glyph glyph-name="two" unicode="2" horiz-adv-x="1159" 
d="M1026 -16h-942q8 41 43 122q6 48 27 102t44.5 96t66.5 99.5t68.5 88t76 88t65.5 75.5v-2l53 64q129 153 148 258q11 50 2 98q-18 115 -146 131q-38 7 -73 4q-151 -32 -264 -102l-115 205q191 145 434 145q245 0 365 -113.5t120 -298.5q0 -108 -61.5 -214.5t-179.5 -237.5
q-39 -49 -49 -60q-47 -49 -69 -73.5t-51.5 -63.5t-43.5 -71q-41 -48 -64 -82h545v-258z" />
    <glyph glyph-name="three" unicode="3" horiz-adv-x="1159" 
d="M1028 416q0 -205 -147.5 -331t-407.5 -126q-123 0 -234 25t-180 59q12 39 35.5 118t36.5 118q137 -74 313 -74q130 0 198.5 56t68.5 157q0 58 -22.5 100.5t-63.5 67t-90 37t-109 14.5q-35 2 -109 2v211q77 3 152 20q85 15 140 60t55 125q0 81 -55 121.5t-142 40.5
q-141 0 -281 -82l-96 213q193 108 408 108q224 0 346.5 -102.5t122.5 -276.5q0 -99 -58 -175t-141 -118v-2q117 -46 188.5 -135.5t71.5 -230.5z" />
    <glyph glyph-name="four" unicode="4" horiz-adv-x="1159" 
d="M1085 297h-135v-313h-291v313h-593v192q113 220 274 473.5t326 467.5h284v-922h135v-211zM664 1081q-18 -18 -30.5 -37t-53.5 -92q-176 -279 -261 -444h340v323q0 50 2.5 136.5t2.5 113.5z" />
    <glyph glyph-name="five" unicode="5" horiz-adv-x="1159" 
d="M1038 420q0 -202 -146.5 -331.5t-402.5 -129.5q-121 0 -233 24t-178 58q3 11 28.5 99.5t40.5 135.5q139 -73 312 -73q126 0 195 58t69 155q0 64 -27 111.5t-89 83t-174.5 48t-272.5 0.5q42 375 69 771h754v-256h-518q-6 -143 -21 -295q298 -3 446 -124.5t148 -334.5z" />
    <glyph glyph-name="six" unicode="6" horiz-adv-x="1159" 
d="M1077 434q0 -94 -31.5 -178.5t-90.5 -151t-153 -106t-210 -39.5q-126 0 -223 43t-157.5 122t-91 185.5t-30.5 237.5q0 173 48.5 319t129 247t188 174t223 110t236.5 45q8 -38 24 -115t24 -115q-398 -47 -519 -350q79 27 152 27q222 0 351.5 -120t129.5 -335zM780 440
q0 246 -229 246q-74 0 -160 -31q-8 -90 -8 -131q7 -336 211 -336q95 0 140.5 73t45.5 179z" />
    <glyph glyph-name="seven" unicode="7" horiz-adv-x="1159" 
d="M1085 1432q-31 -120 -90 -330q-39 -49 -69 -98q-130 -264 -224.5 -536t-119.5 -484h-238q-18 3 -100 18q75 289 203.5 604t269.5 565h-623v261h991z" />
    <glyph glyph-name="eight" unicode="8" horiz-adv-x="1159" 
d="M1071 369q0 -184 -134.5 -297t-361.5 -113q-235 0 -368 119.5t-121 302.5q6 113 66.5 194.5t173.5 153.5q-109 71 -159 150t-50 184q0 170 129.5 281.5t328.5 111.5q189 0 308.5 -90.5t142.5 -230.5q7 -33 4 -80q-8 -179 -209 -318q130 -78 190 -166.5t60 -201.5z
M762 1075q0 70 -48.5 119t-133.5 49t-135 -49t-50 -121q0 -76 44.5 -127.5t164.5 -105.5q85 52 121.5 106.5t36.5 128.5zM782 362q0 88 -55 140.5t-186 115.5q-98 -58 -138.5 -116t-40.5 -137q0 -77 58.5 -131t152.5 -54q97 0 153 51.5t56 130.5z" />
    <glyph glyph-name="nine" unicode="9" horiz-adv-x="1159" 
d="M1061 858q0 -173 -46 -318.5t-124.5 -246.5t-185 -173t-225 -107.5t-247.5 -41.5q-3 17 -12 70.5t-16.5 90t-16.5 69.5q87 8 163 30.5t146.5 63.5t125.5 107t88 153q-74 -31 -156 -31q-222 0 -351.5 118t-129.5 335q0 93 31.5 177.5t90.5 152t152.5 107.5t208.5 40
q170 0 284.5 -76.5t167 -208t52.5 -311.5zM766 874q-4 355 -211 355q-95 0 -141.5 -73.5t-46.5 -178.5q0 -244 231 -244q78 0 160 31q8 70 8 110z" />
    <glyph glyph-name="colon" unicode=":" horiz-adv-x="540" 
d="M451 879q0 -82 -53 -133.5t-130 -51.5t-130.5 51.5t-53.5 131.5q0 81 53.5 132.5t130.5 51.5t130 -51t53 -131zM451 145q0 -81 -53 -131.5t-130 -50.5t-130.5 50t-53.5 130t54 132.5t130 52.5t129.5 -52.5t53.5 -130.5z" />
    <glyph glyph-name="semicolon" unicode=";" horiz-adv-x="538" 
d="M455 879q-1 -82 -54.5 -133.5t-130.5 -51.5q-76 0 -129 51.5t-53 131.5q0 82 52.5 133t129.5 51t131 -51t54 -131zM463 238q-48 -257 -244 -596l-192 51q33 93 57 187.5t34 149.5t25 152q9 81 9 82q12 3 39.5 10.5t37.5 10.5t31 8t32 7t28 4.5t31 3.5t30 1q38 0 60.5 -19
t21.5 -52z" />
    <glyph glyph-name="less" unicode="&#x3c;" horiz-adv-x="1159" 
d="M999 164q-339 141 -882 373v211q118 49 418 176.5t464 195.5q13 -87 43 -235q-115 -44 -324.5 -127t-291.5 -115q415 -166 616 -246q-27 -126 -43 -233z" />
    <glyph glyph-name="equal" unicode="=" horiz-adv-x="1159" 
d="M1036 969v-228l-919 -2v230h919zM1036 313h-919v228h919v-228z" />
    <glyph glyph-name="greater" unicode="&#x3e;" horiz-adv-x="1159" 
d="M1036 537q-775 -328 -882 -373q-8 46 -24.5 134.5t-18.5 98.5q102 41 308 123t308 123q-82 32 -291.5 115t-324.5 127q8 44 22.5 123.5t20.5 111.5q147 -62 440.5 -186t441.5 -186v-211z" />
    <glyph glyph-name="question" unicode="?" horiz-adv-x="864" 
d="M811 1122q0 -58 -18.5 -110.5t-48.5 -93t-66 -78.5t-72.5 -73.5t-67 -71.5t-49.5 -80t-20 -91q0 -17 -1 -67.5t-1 -59.5h-225q-15 98 -15 154t30 115t72.5 108.5t84.5 96.5t72 95.5t30 90.5q0 83 -47.5 133.5t-132.5 50.5q-46 0 -87 -10t-65.5 -22t-60.5 -33l-68 184
q48 30 147.5 57t184.5 27q424 0 424 -322zM535 145q0 -75 -48 -121.5t-120 -46.5q-71 0 -120.5 46.5t-49.5 119.5q0 74 47 122t123 48q72 0 120 -47t48 -121z" />
    <glyph glyph-name="at" unicode="@" horiz-adv-x="1964" 
d="M1741 760q2 -153 -44 -292.5t-130.5 -231.5t-186.5 -105q-105 -8 -164 18.5t-98 102.5q-58 -64 -154 -95.5t-184 -17.5q-115 20 -179 120t-64 251q0 89 29 178.5t81 164t133 121t176 46.5q52 0 96.5 -23t69.5 -63l17 67l145 -26l-63 -580q-11 -66 16 -105.5t82 -39.5
t100 60t70 147.5t35.5 184t1.5 173.5q-25 204 -164.5 336.5t-345.5 132.5q-187 0 -337.5 -90.5t-239 -245.5t-109.5 -350q-12 -128 4 -240t63.5 -205.5t122.5 -160.5t186.5 -104.5t249.5 -37.5q298 0 476 164q22 -73 47 -164q-185 -182 -523 -182q-170 0 -312.5 47.5
t-242.5 131.5t-167 198t-95 248t-18 280q16 269 147.5 477.5t346 317.5t472.5 98q136 -6 255 -60t206.5 -145t139 -220.5t53.5 -280.5zM1036 362l37 340q3 58 -43.5 91.5t-111.5 25.5q-166 -18 -191 -248q-10 -94 22 -175t105 -87q40 -6 92 9t90 44z" />
    <glyph glyph-name="A" unicode="A" horiz-adv-x="1392" 
d="M1362 -16h-334q-86 281 -102 327h-496q-75 -220 -108 -327h-302q307 899 527 1446h287q84 -209 178.5 -465t160.5 -443t189 -538zM862 535q-17 51 -63 195.5t-72 219.5q-14 43 -29.5 94t-17.5 58q-10 -18 -33 -103q-20 -67 -45 -142t-58 -173t-50 -149h368z" />
    <glyph glyph-name="B" unicode="B" horiz-adv-x="1339" 
d="M1206 401q0 -218 -159.5 -327t-464.5 -109q-252 0 -447 64v1355q195 64 432 64q275 0 428.5 -100.5t153.5 -296.5q0 -108 -58 -182.5t-145 -112.5q113 -40 186.5 -131.5t73.5 -223.5zM846 1036q0 191 -264 191q-1 0 -4.5 -1t-4.5 -1h-16q-60 0 -117 -13v-374h99
q160 0 233.5 43.5t73.5 154.5zM891 410q0 123 -84 173t-264 50h-103v-426q82 -14 144 -14q145 0 226 50t81 167z" />
    <glyph glyph-name="C" unicode="C" horiz-adv-x="1245" 
d="M1120 57q-61 -43 -165 -70.5t-232 -27.5q-151 0 -271.5 55t-200 154.5t-121.5 236.5t-42 302q0 217 79 387t225.5 266t336.5 96q128 0 227.5 -30.5t155.5 -69.5l-80 -228q-122 72 -262 72q-126 0 -211 -75.5t-113 -213.5q-33 -99 -30 -245q8 -171 78 -289.5t200 -143.5
q63 -14 117 -8q121 7 229 62z" />
    <glyph glyph-name="D" unicode="D" horiz-adv-x="1478" 
d="M1284 711q0 -350 -187 -548t-538 -198q-235 0 -424 62v1359q202 62 420 62q353 0 541 -192.5t188 -544.5zM965 713q0 249 -97.5 371t-300.5 122q-85 0 -118 -10v-973q27 -10 118 -10q203 0 300.5 123.5t97.5 376.5z" />
    <glyph glyph-name="E" unicode="E" horiz-adv-x="1196" 
d="M1001 -16h-866v1446h842v-242h-526v-344h464v-240h-464v-379h550v-241z" />
    <glyph glyph-name="F" unicode="F" horiz-adv-x="1126" 
d="M971 1188h-520v-344h460v-242h-460v-618h-316v1446h836v-242z" />
    <glyph glyph-name="G" unicode="G" horiz-adv-x="1398" 
d="M1208 41q-164 -82 -450 -82q-315 0 -493.5 198.5t-178.5 553.5q0 171 51 311.5t141.5 235t216.5 146.5t275 52q256 0 428 -102l-96 -226q-108 64 -268 72q-207 11 -317.5 -114.5t-110.5 -378.5q0 -238 93 -370t263 -132q42 0 86 6t57 12v348h-145v244h448v-774z" />
    <glyph glyph-name="H" unicode="H" horiz-adv-x="1466" 
d="M1237 -16h-313v620h-473v-620h-316v1446h316v-588h473v588h313v-1446z" />
    <glyph glyph-name="I" unicode="I" horiz-adv-x="585" 
d="M453 -16h-316v1446h316v-1446z" />
    <glyph glyph-name="J" unicode="J" horiz-adv-x="1046" 
d="M688 276q0 -222 -104.5 -356t-325.5 -158q-151 -12 -309 50q8 36 27.5 114t29.5 121q137 -44 225 16q84 42 114 128.5t30 244.5v60v934h313v-1154z" />
    <glyph glyph-name="K" unicode="K" horiz-adv-x="1325" 
d="M1270 -16h-269q-64 4 -94 8q-209 358 -454 643v-651h-316v1446h316v-588q30 33 62.5 71.5t58 70t60 78t54 73t56.5 79t50 72t52 76t47 68.5h350q-248 -325 -532 -670q143 -162 291 -367t268 -409z" />
    <glyph glyph-name="L" unicode="L" horiz-adv-x="1097" 
d="M956 -16h-819v1446h316v-1203h503v-243z" />
    <glyph glyph-name="M" unicode="M" horiz-adv-x="1808" 
d="M1630 -16h-305q-5 83 -14.5 245t-15.5 263t-15 232.5t-18 229.5q-4 -4 -33 -90q-22 -61 -128 -355t-155 -431h-194q-50 148 -164 460t-119 326q-27 84 -31 90q-23 -241 -63 -970h-285q71 924 133 1446h297q179 -464 289 -775q9 -27 20 -62t18 -56.5t11 -32.5q4 0 11 22
t19 61t19 60q167 456 303 783h285q56 -472 135 -1446z" />
    <glyph glyph-name="N" unicode="N" horiz-adv-x="1505" 
d="M1284 -16h-184l-72 8q-213 368 -524 831q-14 21 -34.5 57.5t-33.5 57t-18 20.5q0 -21 2 -138.5t2 -182.5v-653h-287v1446h264q254 -337 525 -762q12 -21 30.5 -53.5t29.5 -50.5t17 -25q0 41 -2 190t-2 227v474h287v-1446z" />
    <glyph glyph-name="O" unicode="O" horiz-adv-x="1445" 
d="M1358 707q0 -344 -169.5 -546t-465.5 -202q-294 0 -464.5 202.5t-170.5 545.5q0 341 172 545t463 204q293 0 464 -203.5t171 -545.5zM1036 713q0 105 -18.5 194t-55.5 158t-98 108t-141 39q-79 0 -140 -39.5t-98 -108.5t-56 -158t-19 -193q0 -142 31.5 -251.5t104 -178
t177.5 -68.5q80 0 141.5 39t98.5 108t55 157t18 194z" />
    <glyph glyph-name="P" unicode="P" horiz-adv-x="1271" 
d="M1163 977q0 -236 -161 -357.5t-478 -115.5h-78v-520h-311v1400q195 64 426 64q303 0 452.5 -122.5t149.5 -348.5zM852 979q0 127 -73 184.5t-212 57.5q-33 0 -121 -13v-475q12 0 37 -1t37 -1q171 -5 251.5 53.5t80.5 194.5z" />
    <glyph glyph-name="Q" unicode="Q" horiz-adv-x="1603" 
d="M1356 707q0 -250 -99.5 -429t-275.5 -260q40 -60 118 -106.5t197 -97.5l-147 -228q-337 129 -428 383q-67 0 -143 17q-159 23 -271 121t-166.5 251t-54.5 349q0 341 171.5 545t463.5 204t463.5 -204t171.5 -545zM1034 715q0 105 -18.5 193t-55.5 157t-98 108t-141 39
t-141.5 -39t-98.5 -108t-56 -157.5t-19 -192.5q0 -105 18.5 -194t55.5 -158.5t99 -108.5t142 -39q105 0 177.5 69t104 179t31.5 252z" />
    <glyph glyph-name="R" unicode="R" horiz-adv-x="1339" 
d="M1241 -16h-346q-189 362 -336 575h-110v-575h-312v1402q199 62 420 62q302 0 455 -118.5t153 -344.5q0 -140 -81 -242.5t-214 -138.5v-2q58 -74 133 -197t114 -194t124 -227zM850 979q0 69 -22 119.5t-61 77.5t-82.5 39t-94.5 12q-79 0 -141 -17v-473h141q116 0 188 59.5
t72 182.5z" />
    <glyph glyph-name="S" unicode="S" horiz-adv-x="1132" 
d="M993 395q0 -200 -139 -318t-377 -118q-273 0 -428 100q14 40 41.5 121t40.5 121q150 -86 315 -86q109 0 165.5 43t56.5 125q0 81 -62.5 128t-222.5 110q-283 128 -303 360q-6 53 0 109q22 166 150.5 266t328.5 100q220 0 385 -96l-84 -227q-132 79 -272 79
q-97 0 -149 -39.5t-52 -115.5q0 -29 7.5 -52.5t27.5 -44.5t38 -35.5t55.5 -33.5t63 -30t76.5 -32q184 -79 261 -179.5t77 -254.5z" />
    <glyph glyph-name="T" unicode="T" horiz-adv-x="1198" 
d="M1036 1186h-344v-1202h-313v1202h-344v244h1001v-244z" />
    <glyph glyph-name="U" unicode="U" horiz-adv-x="1423" 
d="M1202 473q0 -234 -140.5 -375t-397.5 -141q-225 0 -363 113t-162 305q-10 105 -10 196v859h313v-812q0 -214 48.5 -307.5t181.5 -93.5q95 0 154.5 56t66.5 169q6 82 6 179v809h303v-957z" />
    <glyph glyph-name="V" unicode="V" horiz-adv-x="1390" 
d="M1278 1430q-278 -850 -502 -1446h-180l-100 10q-224 587 -500 1436h336q127 -443 246 -824q10 -32 24 -82t24.5 -84.5t18.5 -52.5q8 18 19 52t28 90.5t25 82.5q92 287 246 818h315z" />
    <glyph glyph-name="W" unicode="W" horiz-adv-x="1916" 
d="M1788 1430q-162 -790 -344 -1446h-281q-125 401 -217 723q-9 30 -21.5 83.5t-17.5 67.5q-4 -11 -9.5 -34t-13.5 -58t-14 -59q-92 -322 -217 -723h-278q-168 585 -344 1446h319q73 -415 150 -799l45 -215q4 5 11.5 32.5t19.5 72.5t18 67q99 357 203 762h241
q135 -528 201 -754q42 -164 47 -178q4 8 8 29t10.5 58t10.5 58q72 339 170 867h303z" />
    <glyph glyph-name="X" unicode="X" horiz-adv-x="1331" 
d="M1280 -16h-276q-16 1 -44 4t-42 4q-96 209 -261 493q-168 -289 -272 -501h-336q150 286 436 747q-234 402 -409 699h354l240 -449h2q110 192 254 449h329l-411 -680q243 -387 436 -766z" />
    <glyph glyph-name="Y" unicode="Y" horiz-adv-x="1271" 
d="M1194 1430q-227 -458 -451 -857v-589h-311v587q-204 366 -450 859h346q127 -299 270 -576q146 287 274 576h322z" />
    <glyph glyph-name="Z" unicode="Z" horiz-adv-x="1204" 
d="M1028 -16h-991v211q63 139 163.5 313.5t228.5 381t181 298.5h-532v242h944v-185q-46 -96 -157 -278t-234.5 -388t-196.5 -354h594v-241z" />
    <glyph glyph-name="bracketleft" unicode="[" horiz-adv-x="704" 
d="M692 -426h-547v2048h547v-211h-268v-1624h268v-213z" />
    <glyph glyph-name="backslash" unicode="\" horiz-adv-x="825" 
d="M1049 -397q-41 -7 -124 -22.5t-124 -22.5q-595 1436 -840 2031l244 47z" />
    <glyph glyph-name="bracketright" unicode="]" horiz-adv-x="704" 
d="M578 -426h-547v213h268v1624h-268v211h547v-2048z" />
    <glyph glyph-name="asciicircum" unicode="^" horiz-adv-x="1159" 
d="M1106 819q-30 -19 -92.5 -59t-93.5 -60q-53 76 -159 226.5t-159 226.5q-53 -76 -159.5 -226.5t-159.5 -226.5q-30 19 -92 59l-93 60l340 522q48 66 107 101q98 0 180 -33q40 -70 92 -153t91 -141t102.5 -153t95.5 -143z" />
    <glyph glyph-name="underscore" unicode="_" horiz-adv-x="1140" 
d="M1141 -430h-1141v227h1141v-227z" />
    <glyph glyph-name="grave" unicode="`" horiz-adv-x="575" 
d="M549 1180h-209l-326 413h365z" />
    <glyph glyph-name="a" unicode="a" horiz-adv-x="1093" 
d="M977 31q-72 -29 -191 -48.5t-256 -19.5q-471 0 -471 361q0 345 514 378q52 3 113 -2q-3 98 -46.5 149.5t-147.5 51.5q-154 0 -295 -63l-54 217q174 71 387 71q400 0 441 -344q6 -64 6 -133v-618zM688 188v324q-96 0 -119 -2q-102 -10 -159.5 -50t-57.5 -128
q0 -160 197 -160q90 0 139 16z" />
    <glyph glyph-name="b" unicode="b" horiz-adv-x="1218" 
d="M1112 559q0 -282 -150 -440t-419 -158q-254 0 -420 74v1562h301v-520q100 45 215 45q218 0 345.5 -154t127.5 -409zM809 551q0 350 -231 350q-82 0 -154 -39v-661q41 -15 129 -15q126 0 191 95.5t65 269.5z" />
    <glyph glyph-name="c" unicode="c" horiz-adv-x="987" 
d="M887 35q-119 -76 -301 -76q-242 0 -376 157t-134 429q0 263 139.5 422t364.5 159q172 0 297 -73q-22 -78 -66 -211q-93 49 -186 49q-121 0 -182.5 -90t-61.5 -254q0 -166 62 -255t190 -89q99 0 196 53z" />
    <glyph glyph-name="d" unicode="d" horiz-adv-x="1218" 
d="M1065 47q-72 -36 -186.5 -61t-245.5 -25q-260 0 -408.5 152t-148.5 424q0 268 134.5 425.5t362.5 157.5q103 0 191 -35v512h301v-1550zM764 207v663q-73 31 -137 31q-248 0 -248 -354q0 -170 66 -264.5t192 -94.5q72 0 127 19z" />
    <glyph glyph-name="e" unicode="e" horiz-adv-x="1163" 
d="M1063 485l-682 -47q17 -120 86 -179.5t195 -59.5q166 0 296 63l56 -223q-65 -33 -165.5 -56.5t-217.5 -23.5q-271 0 -413 157.5t-142 426.5q0 137 38.5 248t107 184t162 112t202.5 39q209 0 332.5 -121.5t140.5 -353.5q0 -19 2 -71.5t2 -94.5zM772 662q-9 243 -192 243
q-95 0 -151.5 -73.5t-57.5 -202.5z" />
    <glyph glyph-name="f" unicode="f" horiz-adv-x="866" 
d="M754 874h-287v-890h-301v890h-123v230h123v63q0 107 16 182.5t54.5 134t106 90t167.5 38.5q124 8 270 -27l-30 -225q-55 9 -97.5 10.5t-73.5 -11.5t-52.5 -32.5t-34.5 -53.5t-18.5 -74.5t-6.5 -94.5h287v-230z" />
    <glyph glyph-name="g" unicode="g" horiz-adv-x="1198" 
d="M1051 45q0 -247 -132.5 -367t-383.5 -120q-224 0 -402 75l68 234q117 -55 243 -66q109 -3 174 33q67 19 102.5 64.5t35.5 109.5v41q-89 -43 -205 -43q-215 0 -345 142t-130 397q0 266 146 422.5t413 156.5q252 0 416 -73v-1006zM754 262v627q-39 16 -125 16
q-124 0 -187 -91.5t-63 -260.5q0 -166 59 -248t170 -82q87 0 146 39z" />
    <glyph glyph-name="h" unicode="h" 
d="M1061 -16h-301v569q0 39 -0.5 61.5t-1.5 55.5t-3.5 51.5t-7 43.5t-12 39t-17.5 31.5t-23.5 26.5t-31.5 17.5t-40.5 12t-49.5 3.5q-84 0 -147 -29v-882h-303v1613h303v-516q84 37 172 37q89 4 159 -9t118 -37t83 -64t54.5 -82t30.5 -100.5t14.5 -108.5t3.5 -117v-616z" />
    <glyph glyph-name="i" unicode="i" horiz-adv-x="544" 
d="M449 1401q0 -69 -50.5 -115.5t-122.5 -46.5t-122 46t-50 116q0 72 50 118t122 46t122.5 -46t50.5 -118zM428 -16h-303v1120h303v-1120z" />
    <glyph glyph-name="j" unicode="j" horiz-adv-x="544" 
d="M451 1401q0 -70 -50 -116t-122 -46t-122.5 46.5t-50.5 115.5q0 72 50.5 118t122.5 46t122 -46.5t50 -117.5zM430 72q0 -215 -94 -339.5t-270 -150.5q-70 -19 -181 -2l21 187q58 13 96 31t67.5 50t43 82t14.5 123v1051h303v-1032z" />
    <glyph glyph-name="k" unicode="k" horiz-adv-x="1110" 
d="M1122 -16h-342q-11 17 -95 154.5t-149 229t-108 119.5v-503h-301v1613h301v-925q224 280 332 432h336q-142 -179 -418 -506q111 -125 230.5 -291.5t213.5 -322.5z" />
    <glyph glyph-name="l" unicode="l" horiz-adv-x="698" 
d="M639 121l-51 -150q-138 4 -228.5 30.5t-142 80.5t-72 126t-20.5 179v1210h303v-1132q0 -80 7.5 -134t20.5 -89t41.5 -58t58.5 -35.5t83 -27.5z" />
    <glyph glyph-name="m" unicode="m" horiz-adv-x="1765" 
d="M1661 -16h-303v571q0 79 -1.5 116t-9.5 90t-25 75.5t-50 40.5t-82 18q-93 0 -158 -53q10 -96 10 -310v-548h-301v573q0 44 -0.5 69.5t-2 60.5t-5 54.5t-9.5 45t-15 39.5t-22.5 29t-31 22.5t-40.5 12.5t-52 5q-81 0 -137 -18v-893h-303v1067q210 75 450 75q215 0 324 -106
q149 104 346 104q78 0 140.5 -15t105.5 -39.5t75 -64t50 -81.5t29 -98.5t14.5 -108t3.5 -117.5v-616z" />
    <glyph glyph-name="n" unicode="n" 
d="M1061 -16h-301v571q0 44 -0.5 66.5t-2 58.5t-5 54.5t-9.5 46t-15.5 41t-24 30.5t-33 24.5t-43.5 13t-56 5.5q-82 0 -145 -18v-893h-303v1054q156 86 463 86q90 0 161 -14.5t120.5 -38.5t85 -63t56.5 -80t33 -98.5t15.5 -109t3.5 -120.5v-616z" />
    <glyph glyph-name="o" unicode="o" horiz-adv-x="1220" 
d="M1100 543q0 -262 -137 -423t-375 -161q-236 0 -374 161t-138 423q0 261 139 422t373 161q235 0 373.5 -161t138.5 -422zM795 545q0 160 -51 256t-156 96q-107 0 -158 -96t-51 -256q0 -159 51.5 -253.5t157.5 -94.5q105 0 156 94t51 254z" />
    <glyph glyph-name="p" unicode="p" horiz-adv-x="1218" 
d="M1112 547q0 -266 -134 -424t-364 -158q-115 0 -190 35v-426h-301v1477q178 73 432 73q259 0 408 -152t149 -425zM809 543q0 173 -64.5 264.5t-193.5 91.5q-86 0 -127 -14v-666q69 -31 137 -31q248 0 248 355z" />
    <glyph glyph-name="q" unicode="q" horiz-adv-x="1218" 
d="M1065 -426h-301v434q-92 -45 -213 -45q-219 0 -347 153t-128 410q0 178 61.5 310.5t191 210t314.5 77.5q242 0 422 -73v-1477zM764 227v658q-49 18 -129 18q-124 0 -190 -94.5t-66 -271.5q0 -349 233 -349q88 0 152 39z" />
    <glyph glyph-name="r" unicode="r" horiz-adv-x="821" 
d="M770 1098q-3 -13 -53 -219q-73 18 -144 18q-89 0 -147 -23v-890h-303v1056q180 77 403 82q115 3 244 -24z" />
    <glyph glyph-name="s" unicode="s" horiz-adv-x="942" 
d="M842 305q0 -158 -118 -252t-323 -94q-112 0 -205.5 24.5t-146.5 55.5l68 227q128 -71 264 -71q72 0 114 28t42 78t-44.5 83.5t-160.5 80.5q-133 58 -193.5 133t-60.5 188q0 151 108 245.5t289 94.5q184 0 330 -71q-43 -136 -68 -215q-111 59 -223 59q-65 0 -102 -27
t-37 -73q0 -49 34 -76t128 -69q22 -10 34 -15q146 -63 208.5 -140t62.5 -194z" />
    <glyph glyph-name="t" unicode="t" horiz-adv-x="919" 
d="M815 14q-95 -42 -203 -47q-82 -3 -146 11.5t-106 46.5t-70.5 71t-44.5 94.5t-23.5 106t-10.5 117.5q-4 242 -4 458h-144v228h144v293h303v-289h281v-230h-281v-446q0 -121 23 -170t94 -55q87 -6 164 30q4 -37 12 -109.5t12 -109.5z" />
    <glyph glyph-name="u" unicode="u" 
d="M1049 51q-141 -90 -463 -90q-131 0 -223 33t-145.5 98.5t-77 152.5t-23.5 204v655h303v-567q0 -61 1.5 -98t7 -81.5t17 -69.5t31 -48t50.5 -33t73 -10q88 0 145 22v885h304v-1053z" />
    <glyph glyph-name="v" unicode="v" horiz-adv-x="1062" 
d="M1057 1104q-160 -540 -389 -1120h-193q-13 1 -40 4t-42 4q-219 548 -387 1112h322q71 -291 174 -627q34 -138 37 -147q5 3 10.5 21.5t15.5 62t15 63.5q118 380 180 627h297z" />
    <glyph glyph-name="w" unicode="w" horiz-adv-x="1597" 
d="M1604 1104q-172 -636 -342 -1120h-258q-130 422 -166 553q-6 22 -11.5 52.5t-10 50.5t-7.5 28q-101 -388 -193 -684h-260q-174 497 -340 1120h310q54 -264 149 -623q5 -24 11 -57t10 -51t8 -25l20 82q28 116 90 345.5t86 328.5h242q27 -125 87 -353.5t81 -316.5
q17 -79 20 -86q4 2 8 21t11 54t12 56q80 290 154 625h289z" />
    <glyph glyph-name="x" unicode="x" horiz-adv-x="1085" 
d="M1071 -16h-332q-89 177 -211 374q-22 -24 -56 -79t-59 -101t-60.5 -113t-43.5 -81h-309q160 284 362 579l-198 314q-132 206 -146 227h330l193 -330h2q99 164 198 330h306q-67 -101 -188.5 -285.5t-158.5 -240.5q228 -337 371 -594z" />
    <glyph glyph-name="y" unicode="y" horiz-adv-x="1105" 
d="M1071 1104q-193 -670 -414 -1264q-51 -120 -115 -172.5t-171 -52.5q-18 0 -37.5 2t-35 4.5t-35 7t-31.5 8t-31 10t-27 9.5t-26 10t-21 8l61 201q78 -37 115 -37q16 0 29.5 5t24.5 17.5t18 21t15 30.5t11 30t10.5 34t8.5 30q-222 542 -389 1098h319q70 -296 170 -610
q44 -169 47 -175q4 7 11 32.5t17.5 72.5t16.5 70q69 232 164 610h295z" />
    <glyph glyph-name="z" unicode="z" horiz-adv-x="983" 
d="M885 -16h-840v184q65 117 228.5 373t209.5 333h-405v230h796v-166l-112 -170q-222 -329 -348 -557h471v-227z" />
    <glyph glyph-name="braceleft" unicode="{" horiz-adv-x="712" 
d="M727 -340q-267 0 -376 100t-109 338v217q0 119 -41 171t-142 53v186q91 21 137 64t46 135v286q0 222 113.5 315t371.5 93v-201q-117 0 -164.5 -37t-48.5 -135v-321q0 -213 -156 -281q69 -13 112.5 -98t43.5 -191v-323q0 -96 48.5 -132t164.5 -36v-203z" />
    <glyph glyph-name="bar" unicode="|" horiz-adv-x="606" 
d="M410 -426h-265v2048h265v-2048z" />
    <glyph glyph-name="braceright" unicode="}" horiz-adv-x="712" 
d="M705 557q-45 -11 -75 -24.5t-55 -36t-37 -57t-12 -83.5v-288q0 -222 -114.5 -315t-372.5 -93v203q124 0 168.5 40.5t44.5 151.5v299q0 219 158 287l-2 2q-156 68 -156 281v231q0 57 -2 91.5t-10 67t-21.5 49.5t-38 31t-58 18.5t-83.5 4.5v201q261 0 374 -93.5t113 -314.5
v-286q0 -89 46.5 -134t132.5 -47v-186z" />
    <glyph glyph-name="asciitilde" unicode="~" horiz-adv-x="1159" 
d="M1110 745q-13 -51 -34.5 -95.5t-55 -84.5t-84.5 -64t-113 -26q-49 -3 -98.5 12t-89.5 38t-78.5 46t-80 38.5t-79.5 13.5q-100 -5 -147 -160q-126 103 -158 127q78 265 285 272q50 2 99.5 -13t89.5 -38t78.5 -46t79 -38t77.5 -12q57 4 92.5 43.5t58.5 111.5z" />
    <glyph glyph-name="uni00A0" unicode="&#xa0;" horiz-adv-x="481" 
 />
    <glyph glyph-name="exclamdown" unicode="&#xa1;" horiz-adv-x="575" 
d="M444 8v-416h-313v416q0 278 49 631h37h141h39q47 -367 47 -631zM477 934q0 -86 -49 -138.5t-141 -52.5q-77 0 -134 55t-57 136q0 85 55 136.5t136 51.5t135.5 -51.5t54.5 -136.5z" />
    <glyph glyph-name="cent" unicode="&#xa2;" horiz-adv-x="1159" 
d="M496 -258v305q-187 48 -285 194.5t-98 356.5q0 199 103 348.5t280 200.5v305h284v-287q100 -8 224 -59l-72 -254q-96 42 -195 51q-33 4 -90 0q-110 -13 -168.5 -92t-58.5 -213q0 -276 235 -301q50 -7 99 -4q114 8 217 57l47 -260q-100 -46 -238 -59v-289h-284z" />
    <glyph glyph-name="sterling" unicode="&#xa3;" horiz-adv-x="1159" 
d="M545 948v-133h370v-258h-370l-4 -59q0 -134 -21 -269h567v-264h-905q55 289 64 533l2 59h-185v258h187v113q0 127 24 223t66 158.5t105 101t135 54.5t163 16q150 0 322 -76l-80 -254q-122 61 -235 61q-103 0 -154 -57t-51 -207z" />
    <glyph glyph-name="currency" unicode="&#xa4;" horiz-adv-x="1159" 
d="M1094 340l-150 -147l-149 151q-95 -61 -220 -61q-119 0 -217 61l-151 -149q-75 75 -148 145l152 147q-64 95 -64 220q0 124 64 219q-26 25 -76.5 73.5t-75.5 73.5q51 49 148 146l151 -150q95 59 217 59q125 0 220 -59q24 24 74.5 74t76.5 76l148 -146q-76 -73 -150 -147
q60 -94 60 -219q0 -126 -60 -220q112 -112 150 -147zM778 707q0 89 -59 147.5t-144 58.5q-84 0 -142 -59t-58 -147q0 -90 58 -148.5t142 -58.5q86 0 144.5 58.5t58.5 148.5z" />
    <glyph glyph-name="yen" unicode="&#xa5;" horiz-adv-x="1159" 
d="M731 -35h-301v232h-315v219h315v135h-315v219h223q-224 377 -369 684h332q149 -330 285 -559q129 235 276 559h336q-140 -289 -377 -684h228v-219h-318v-135h318v-219h-318v-232z" />
    <glyph glyph-name="brokenbar" unicode="&#xa6;" horiz-adv-x="581" 
d="M147 -414v865h287v-865h-287zM147 774v864h287v-864h-287z" />
    <glyph glyph-name="section" unicode="&#xa7;" horiz-adv-x="1024" 
d="M997 532q0 -177 -194 -309q116 -102 119 -237q5 -156 -107 -249t-309 -93q-222 0 -379 88l68 196q92 -40 247 -53q70 0 119 27q72 21 72 71q0 43 -33 79.5t-123 78.5q-81 45 -132 77t-104 75.5t-82.5 86t-48 98.5t-18.5 122q0 105 53 181.5t140 139.5q-89 86 -95 209
q-9 145 99.5 239.5t294.5 94.5t342 -78l-70 -207q-104 53 -205 60q-55 3 -106 -17q-74 -17 -74 -77q0 -45 29.5 -78t107.5 -74q23 -18 29 -22q100 -55 158.5 -94.5t109 -90.5t71.5 -109.5t21 -134.5zM735 506q0 33 -13.5 63.5t-33 53t-51.5 46.5t-59.5 40t-66 39.5
t-62.5 39.5q-92 -63 -105 -139q0 -4 -0.5 -12t-0.5 -15t1 -12q1 -32 16 -61.5t30.5 -49t52 -46t55 -37.5t68 -38.5t63.5 -35.5q106 66 106 164z" />
    <glyph glyph-name="dieresis" unicode="&#xa8;" horiz-adv-x="942" 
d="M408 1419q0 -75 -47.5 -120.5t-116.5 -45.5t-116.5 45.5t-47.5 120.5q0 73 47.5 118.5t116.5 45.5t116.5 -45.5t47.5 -118.5zM864 1419q0 -74 -48 -120t-118 -46q-68 0 -115.5 46t-47.5 120q0 73 47.5 118.5t115.5 45.5q70 0 118 -45.5t48 -118.5z" />
    <glyph glyph-name="copyright" unicode="&#xa9;" horiz-adv-x="1855" 
d="M1751 707q0 -187 -66 -346t-178 -266t-261.5 -167.5t-315.5 -60.5q-167 0 -316.5 60.5t-261.5 167.5t-177.5 266t-65.5 346t65.5 345.5t177.5 266t261.5 167.5t316.5 60q166 0 315.5 -60t261.5 -167.5t178 -266t66 -345.5zM1546 709q0 156 -51 280.5t-138 202t-196 118
t-231 40.5q-123 0 -233 -41t-197 -118.5t-138 -202t-51 -279.5q0 -153 49.5 -278t135 -206.5t196.5 -126.5t238 -49q121 0 231 43.5t196.5 124.5t137.5 208.5t51 283.5zM1192 477l92 -127q-143 -125 -334 -125q-201 0 -331 136t-130 348q0 209 132.5 341t330.5 132
q183 0 322 -129l-109 -131q-46 45 -95.5 64.5t-117.5 19.5q-115 0 -183.5 -84t-68.5 -213t77.5 -220.5t195.5 -91.5q42 0 81 11.5t57.5 21.5t66.5 39q9 5 14 8z" />
    <glyph glyph-name="ordfeminine" unicode="&#xaa;" horiz-adv-x="872" 
d="M446 815q60 0 95 6v160q-50 4 -86 4q-131 0 -131 -82q0 -43 26 -65.5t96 -22.5zM430 1481q104 0 174.5 -25.5t108.5 -75.5t53.5 -112.5t15.5 -149.5v-459q-195 -41 -344 -41q-362 0 -362 279q0 73 32 127t88.5 85t123.5 45.5t145 14.5q33 0 76 -6v15q0 51 -42.5 85
t-125.5 31q-102 -6 -189 -34l-34 178q53 17 132.5 30t147.5 13z" />
    <glyph glyph-name="guillemotleft" unicode="&#xab;" horiz-adv-x="1091" 
d="M1040 244q-33 -19 -98 -53.5t-98 -53.5l-330 496q56 82 165.5 246.5t164.5 246.5q194 -103 196 -104l-237 -389zM573 244q-36 -21 -103.5 -57.5t-90.5 -49.5l-330 496q55 82 165 246.5t165 246.5q174 -92 194 -104l-235 -389q47 -77 134.5 -222t100.5 -167z" />
    <glyph glyph-name="logicalnot" unicode="&#xac;" horiz-adv-x="1159" 
d="M1036 168h-239v414h-680v229h919v-643z" />
    <glyph glyph-name="uni00AD" unicode="&#xad;" horiz-adv-x="659" 
d="M49 508v227h574v-227h-574z" />
    <glyph glyph-name="registered" unicode="&#xae;" horiz-adv-x="1861" 
d="M1751 707q0 -187 -66 -346t-178 -266t-261.5 -167.5t-315.5 -60.5q-167 0 -316.5 60.5t-261.5 167.5t-177.5 266t-65.5 346t65.5 345.5t177.5 266t261.5 167.5t316.5 60q166 0 315.5 -60t261.5 -167.5t178 -266t66 -345.5zM1546 709q0 156 -51 280.5t-138 202t-196 118
t-231 40.5q-123 0 -233 -41t-197 -118.5t-138 -202t-51 -279.5q0 -153 49.5 -278t135 -206.5t196.5 -126.5t238 -49q121 0 231 43.5t196.5 124.5t137.5 208.5t51 283.5zM1317 256h-221q-128 242 -215 367h-70v-367h-199v895q125 39 269 39q192 0 289.5 -75.5t97.5 -219.5
q0 -90 -51.5 -155t-137.5 -89v-2q15 -18 31 -41t29 -43t32 -51t29.5 -49t31 -54.5t28.5 -51t30 -54.5t27 -49zM1067 891q0 85 -48 121.5t-118 36.5q-41 0 -90 -11v-301h90q73 0 119.5 37.5t46.5 116.5z" />
    <glyph glyph-name="macron" unicode="&#xaf;" horiz-adv-x="770" 
d="M723 1266h-676v235h676v-235z" />
    <glyph glyph-name="degree" unicode="&#xb0;" horiz-adv-x="702" 
d="M717 1204q0 -142 -96.5 -233.5t-233.5 -91.5q-136 0 -232 91.5t-96 233.5t96 234t232 92q137 0 233.5 -92t96.5 -234zM526 1204q0 61 -40 102.5t-99 41.5q-58 0 -98.5 -41.5t-40.5 -102.5t40.5 -101t98.5 -40q59 0 99 40t40 101z" />
    <glyph glyph-name="plusminus" unicode="&#xb1;" horiz-adv-x="1159" 
d="M1036 707h-342v-365h-237v365h-340v237h340v363h237v-363h342v-237zM72 0v256h1015v-256h-1015z" />
    <glyph glyph-name="twosuperior" unicode="&#xb2;" horiz-adv-x="739" 
d="M647 1212q0 -48 -14 -89t-45.5 -79.5t-54.5 -60t-70 -61.5q-55 -43 -71 -64t-21 -45h305v-215h-619q-4 43 -4 84q0 109 56 190.5t172 182.5q42 36 62 54.5t37 44t17 48.5q0 58 -65 58q-85 0 -199 -95l-121 181q66 59 152.5 99t177.5 40q155 0 230 -71.5t75 -201.5z" />
    <glyph glyph-name="threesuperior" unicode="&#xb3;" horiz-adv-x="739" 
d="M303 801q125 0 125 69q0 43 -43 67t-109 24h-94v159h60q55 0 102 29t47 70q0 26 -35 38q-40 11 -135 -16q-56 -7 -108 -39l-88 187q59 39 140 67.5t159 28.5q279 0 303 -211q4 -36 -2 -64q-9 -81 -78 -135q106 -57 121 -180q3 -31 0 -66q-11 -112 -99.5 -179.5
t-261.5 -67.5q-76 0 -153.5 18t-133.5 47l54 211q76 -32 125.5 -44.5t103.5 -12.5z" />
    <glyph glyph-name="acute" unicode="&#xb4;" horiz-adv-x="651" 
d="M274 1223h-208l170 413h362z" />
    <glyph glyph-name="mu" unicode="&#xb5;" horiz-adv-x="1200" 
d="M1061 37q-182 -74 -414 -74q-131 0 -227 57q4 -82 4 -247v-189h-301v1520h303v-703q13 -113 49.5 -163t130.5 -50q87 0 154 23v893h301v-1067z" />
    <glyph glyph-name="paragraph" unicode="&#xb6;" horiz-adv-x="1370" 
d="M520 1425q191 7 336 7h254v-1858h-236v1665h-178v-1665h-235v983q-196 28 -304 138.5t-108 293.5q0 197 128 306.5t343 129.5z" />
    <glyph glyph-name="periodcentered" unicode="&#xb7;" horiz-adv-x="503" 
d="M449 643q0 -81 -53.5 -131.5t-131.5 -50.5q-76 0 -129 50t-53 130q0 81 53 132.5t129 51.5q78 0 131.5 -51t53.5 -131z" />
    <glyph glyph-name="cedilla" unicode="&#xb8;" horiz-adv-x="712" 
d="M475 -66q111 -66 111 -176q0 -98 -72 -156.5t-209 -58.5q-95 0 -205 35l43 207q54 -17 115 -25q58 -3 70 23q-11 13 -30.5 23.5t-34.5 16t-52 17.5q17 52 51.5 126.5t54.5 109.5h230q-45 -86 -72 -142z" />
    <glyph glyph-name="onesuperior" unicode="&#xb9;" horiz-adv-x="739" 
d="M137 1085l-59 181q73 31 162 89t147 113h180v-870h-248v561q-71 -38 -182 -74z" />
    <glyph glyph-name="ordmasculine" unicode="&#xba;" horiz-adv-x="1042" 
d="M971 1028q0 -211 -126 -339t-325 -128q-196 0 -322 128t-126 339q0 214 125.5 342.5t322.5 128.5q199 0 325 -128.5t126 -342.5zM698 1028q0 107 -47 169.5t-131 62.5q-83 0 -129.5 -62.5t-46.5 -169.5q0 -104 47 -165.5t129 -61.5q84 0 131 61.5t47 165.5z" />
    <glyph glyph-name="guillemotright" unicode="&#xbb;" horiz-adv-x="1091" 
d="M1063 633l-330 -496q-21 12 -196 107q85 137 235 389l-235 389q4 2 196 104q130 -192 330 -493zM600 633l-330 -496q-175 95 -196 107q13 22 100.5 167t134.5 222l-235 389q68 38 196 104q200 -302 330 -493z" />
    <glyph glyph-name="onequarter" unicode="&#xbc;" horiz-adv-x="1882" 
d="M1718 322h99v-168h-99v-187h-225v187h-383v157q74 133 181.5 277t221.5 252h205v-518zM375 -35l848 1489h295l-846 -1489h-297zM1286 322h211v288q-114 -120 -211 -288zM150 1085l-58 181q73 31 162 89t147 113h179v-870h-248v561q-69 -38 -182 -74z" />
    <glyph glyph-name="onehalf" unicode="&#xbd;" horiz-adv-x="1964" 
d="M137 1085l-59 181q73 31 162 89t147 113h180v-870h-248v561q-71 -38 -182 -74zM391 -35l801 1489h295l-799 -1489h-297zM1862 584q0 -48 -14.5 -90t-45.5 -79.5t-57 -61.5t-70 -60q-37 -30 -56.5 -51t-24.5 -31.5t-9 -26.5h305v-215h-620q-4 43 -4 84q0 58 16 108.5
t51.5 97.5t70 82t91.5 85h-2q46 38 64 54.5t36.5 43t18.5 49.5q0 58 -68 58q-85 0 -198 -94l-121 180q66 59 152 99t177 40q156 0 232 -71t76 -201z" />
    <glyph glyph-name="threequarters" unicode="&#xbe;" horiz-adv-x="1929" 
d="M434 -35l858 1489h295l-856 -1489h-297zM418 1221q-2 11 -7 19.5t-14 13t-16.5 7.5t-21 3h-20.5t-21.5 -1t-18.5 -1q-44 -2 -131 -60l-88 187q59 39 140 67.5t159 28.5q282 0 303 -215q4 -35 -2 -60q-9 -78 -78 -135q106 -57 121 -180q3 -29 0 -61q-10 -114 -98.5 -183
t-264.5 -69q-74 0 -151 18t-133 47l53 211q76 -32 125.5 -44.5t103.5 -12.5q125 0 125 69q0 80 -204 80h-41v160q70 0 109 14.5t50 59.5q9 6 17 17.5t4 19.5zM1765 322h101v-168h-101v-187h-223v187h-385v157q74 133 182 276.5t222 252.5h204v-518zM1333 322h211v288
q-111 -120 -211 -288z" />
    <glyph glyph-name="questiondown" unicode="&#xbf;" horiz-adv-x="864" 
d="M332 -49q0 -56 43.5 -84.5t116.5 -28.5q121 0 286 86l90 -241q-81 -49 -189.5 -80t-211.5 -31q-101 0 -181 23t-129 59t-81 85.5t-44 97t-12 97.5q0 60 19 115.5t49.5 99t68 84t74.5 78t67.5 74.5t49.5 80t19 88q0 21 -9 78h78h117h70q14 -53 14 -117q0 -77 -31.5 -147.5
t-76 -122.5t-89.5 -99t-76.5 -97t-31.5 -97zM680 971q0 -92 -53 -146.5t-138 -54.5q-86 0 -138 54t-52 147q0 85 54.5 136.5t135.5 51.5q80 0 135.5 -51.5t55.5 -136.5z" />
    <glyph glyph-name="Agrave" unicode="&#xc0;" horiz-adv-x="1404" 
d="M1362 -16h-334q-86 281 -102 327h-496q-75 -220 -108 -327h-302q307 899 527 1446h287q84 -209 178.5 -465t160.5 -443t189 -538zM862 535q-17 51 -63 195.5t-72 219.5q-14 43 -29.5 94t-17.5 58q-10 -18 -33 -103q-20 -67 -45 -142t-58 -173t-50 -149h368zM760 1552
h-209l-326 414h365z" />
    <glyph glyph-name="Aacute" unicode="&#xc1;" horiz-adv-x="1404" 
d="M1362 -16h-334q-86 281 -102 327h-496q-75 -220 -108 -327h-302q307 899 527 1446h287q84 -209 178.5 -465t160.5 -443t189 -538zM862 535q-17 51 -63 195.5t-72 219.5q-14 43 -29.5 94t-17.5 58q-10 -18 -33 -103q-20 -67 -45 -142t-58 -173t-50 -149h368zM758 1593
h-209l170 414h362z" />
    <glyph glyph-name="Acircumflex" unicode="&#xc2;" horiz-adv-x="1404" 
d="M1362 -16h-334q-86 281 -102 327h-496q-75 -220 -108 -327h-302q307 899 527 1446h287q84 -209 178.5 -465t160.5 -443t189 -538zM862 535q-17 51 -63 195.5t-72 219.5q-14 43 -29.5 94t-17.5 58q-10 -18 -33 -103q-20 -67 -45 -142t-58 -173t-50 -149h368zM651 1716
l-213 -180l-135 154l348 333l344 -333l-129 -154z" />
    <glyph glyph-name="Atilde" unicode="&#xc3;" horiz-adv-x="1404" 
d="M1362 -16h-334q-86 281 -102 327h-496q-75 -220 -108 -327h-302q307 899 527 1446h287q84 -209 178.5 -465t160.5 -443t189 -538zM862 535q-17 51 -63 195.5t-72 219.5q-14 43 -29.5 94t-17.5 58q-10 -18 -33 -103q-20 -67 -45 -142t-58 -173t-50 -149h368zM801 1575
q-57 0 -144 38t-116 38q-27 0 -50 -28.5t-47 -78.5l-174 109q16 40 38.5 77.5t55 75.5t77.5 61t94 23q60 0 144.5 -37.5t113.5 -37.5q26 0 48.5 27.5t49.5 78.5l176 -113q-130 -233 -266 -233z" />
    <glyph glyph-name="Adieresis" unicode="&#xc4;" horiz-adv-x="1404" 
d="M1362 -16h-334q-86 281 -102 327h-496q-75 -220 -108 -327h-302q307 899 527 1446h287q84 -209 178.5 -465t160.5 -443t189 -538zM862 535q-17 51 -63 195.5t-72 219.5q-14 43 -29.5 94t-17.5 58q-10 -18 -33 -103q-20 -67 -45 -142t-58 -173t-50 -149h368zM582 1763
q0 -75 -47.5 -120.5t-116.5 -45.5t-116.5 45.5t-47.5 120.5q0 73 47.5 118.5t116.5 45.5t116.5 -45.5t47.5 -118.5zM1038 1763q0 -74 -48 -120t-118 -46q-68 0 -115.5 46t-47.5 120q0 73 47.5 118.5t115.5 45.5q70 0 118 -45.5t48 -118.5z" />
    <glyph glyph-name="Aring" unicode="&#xc5;" horiz-adv-x="1404" 
d="M1362 -16h-334q-86 281 -102 327h-496q-75 -220 -108 -327h-302q307 899 527 1446h287q84 -209 178.5 -465t160.5 -443t189 -538zM862 535q-17 51 -63 195.5t-72 219.5q-14 43 -29.5 94t-17.5 58q-10 -18 -33 -103q-20 -67 -45 -142t-58 -173t-50 -149h368zM905 1800
q0 -117 -73.5 -185.5t-182.5 -68.5q-106 0 -181 68.5t-75 185.5q0 115 75 183.5t181 68.5q109 0 182.5 -68t73.5 -184zM719 1800q0 33 -20.5 52.5t-49.5 19.5q-30 0 -49.5 -19.5t-19.5 -52.5q0 -34 19.5 -54t49.5 -20q29 0 49.5 20t20.5 54z" />
    <glyph glyph-name="AE" unicode="&#xc6;" horiz-adv-x="1964" 
d="M1923 -35h-977v361h-457q-134 -240 -192 -361h-338q459 862 913 1489h1002v-272h-625v-305h553v-269h-553v-370h674v-273zM946 588v491q-136 -193 -241 -368l-74 -123h315z" />
    <glyph glyph-name="Ccedilla" unicode="&#xc7;" horiz-adv-x="1292" 
d="M909 -174q52 -61 41 -131q-24 -69 -89.5 -110.5t-178.5 -41.5q-90 0 -205 35l43 207q90 -29 148 -29q28 0 22 29q-8 13 -24.5 23.5t-28 14.5t-47.5 17q15 54 41 113q-261 45 -407 240.5t-146 517.5q0 181 57 329t156.5 244.5t231.5 148.5t284 52q109 0 215 -25.5
t156.5 -48t91.5 -47.5l-94 -260q-184 100 -359 100q-191 0 -305.5 -128.5t-114.5 -362.5q0 -228 106 -362t314 -134q190 0 379 92l88 -258q-61 -39 -171 -71.5t-234 -36.5q33 -49 30 -117z" />
    <glyph glyph-name="Egrave" unicode="&#xc8;" horiz-adv-x="1196" 
d="M1001 -16h-866v1446h842v-242h-526v-344h464v-240h-464v-379h550v-241zM672 1552h-209l-326 414h365z" />
    <glyph glyph-name="Eacute" unicode="&#xc9;" horiz-adv-x="1196" 
d="M1001 -16h-866v1446h842v-242h-526v-344h464v-240h-464v-379h550v-241zM670 1593h-209l170 414h362z" />
    <glyph glyph-name="Ecircumflex" unicode="&#xca;" horiz-adv-x="1196" 
d="M1001 -16h-866v1446h842v-242h-526v-344h464v-240h-464v-379h550v-241zM563 1716l-213 -180l-135 154l348 333l344 -333l-129 -154z" />
    <glyph glyph-name="Edieresis" unicode="&#xcb;" horiz-adv-x="1196" 
d="M1001 -16h-866v1446h842v-242h-526v-344h464v-240h-464v-379h550v-241zM496 1763q0 -75 -47.5 -120.5t-116.5 -45.5t-116.5 45.5t-47.5 120.5q0 73 47.5 118.5t116.5 45.5t116.5 -45.5t47.5 -118.5zM952 1763q0 -74 -48 -120t-118 -46q-68 0 -115.5 46t-47.5 120
q0 73 47.5 118.5t115.5 45.5q70 0 118 -45.5t48 -118.5z" />
    <glyph glyph-name="Igrave" unicode="&#xcc;" horiz-adv-x="585" 
d="M453 -16h-316v1446h316v-1446zM401 1552h-208l-326 414h364z" />
    <glyph glyph-name="Iacute" unicode="&#xcd;" horiz-adv-x="585" 
d="M453 -16h-316v1446h316v-1446zM399 1593h-209l170 414h363z" />
    <glyph glyph-name="Icircumflex" unicode="&#xce;" horiz-adv-x="585" 
d="M453 -16h-316v1446h316v-1446zM293 1716l-213 -180l-135 154l348 333l344 -333l-129 -154z" />
    <glyph glyph-name="Idieresis" unicode="&#xcf;" horiz-adv-x="585" 
d="M453 -16h-316v1446h316v-1446zM223 1763q0 -75 -47.5 -120.5t-116.5 -45.5t-116 45.5t-47 120.5q0 73 47 118.5t116 45.5t116.5 -45.5t47.5 -118.5zM680 1763q0 -74 -48 -120t-118 -46q-68 0 -116 46t-48 120q0 73 48 118.5t116 45.5q70 0 118 -45.5t48 -118.5z" />
    <glyph glyph-name="Eth" unicode="&#xd0;" horiz-adv-x="1503" 
d="M1423 711q0 -250 -104.5 -422.5t-289.5 -255t-439 -82.5q-239 0 -426 43v620h-166v250h166v561q208 43 430 43q189 0 339.5 -45t260.5 -136t169.5 -237t59.5 -339zM473 614v-383q1 0 44 -3t89 -3q246 0 373 128t127 358q0 233 -124 358t-372 125q-46 0 -90 -3t-47 -3
v-324h262v-250h-262z" />
    <glyph glyph-name="Ntilde" unicode="&#xd1;" horiz-adv-x="1505" 
d="M1284 -16h-184l-72 8q-213 368 -524 831q-14 21 -34.5 57.5t-33.5 57t-18 20.5q0 -21 2 -138.5t2 -182.5v-653h-287v1446h264q254 -337 525 -762q12 -21 30.5 -53.5t29.5 -50.5t17 -25q0 41 -2 190t-2 227v474h287v-1446zM885 1573q-57 0 -143.5 38t-114.5 38t-51 -28.5
t-48 -78.5l-174 109q16 40 38.5 77.5t54.5 74.5t77 60t94 23q60 0 145 -37t114 -37q26 0 48 27t50 78l176 -111q-130 -233 -266 -233z" />
    <glyph glyph-name="Ograve" unicode="&#xd2;" horiz-adv-x="1445" 
d="M1358 707q0 -344 -169.5 -546t-465.5 -202q-294 0 -464.5 202.5t-170.5 545.5q0 341 172 545t463 204q293 0 464 -203.5t171 -545.5zM1036 713q0 105 -18.5 194t-55.5 158t-98 108t-141 39q-79 0 -140 -39.5t-98 -108.5t-56 -158t-19 -193q0 -142 31.5 -251.5t104 -178
t177.5 -68.5q80 0 141.5 39t98.5 108t55 157t18 194zM831 1591h-208l-326 414h365z" />
    <glyph glyph-name="Oacute" unicode="&#xd3;" horiz-adv-x="1445" 
d="M1358 707q0 -344 -169.5 -546t-465.5 -202q-294 0 -464.5 202.5t-170.5 545.5q0 341 172 545t463 204q293 0 464 -203.5t171 -545.5zM1036 713q0 105 -18.5 194t-55.5 158t-98 108t-141 39q-79 0 -140 -39.5t-98 -108.5t-56 -158t-19 -193q0 -142 31.5 -251.5t104 -178
t177.5 -68.5q80 0 141.5 39t98.5 108t55 157t18 194zM829 1632h-208l170 414h362z" />
    <glyph glyph-name="Ocircumflex" unicode="&#xd4;" horiz-adv-x="1445" 
d="M1358 707q0 -344 -169.5 -546t-465.5 -202q-294 0 -464.5 202.5t-170.5 545.5q0 341 172 545t463 204q293 0 464 -203.5t171 -545.5zM1036 713q0 105 -18.5 194t-55.5 158t-98 108t-141 39q-79 0 -140 -39.5t-98 -108.5t-56 -158t-19 -193q0 -142 31.5 -251.5t104 -178
t177.5 -68.5q80 0 141.5 39t98.5 108t55 157t18 194zM723 1755l-213 -180l-135 154l348 333l344 -333l-129 -154z" />
    <glyph glyph-name="Otilde" unicode="&#xd5;" horiz-adv-x="1445" 
d="M1358 707q0 -344 -169.5 -546t-465.5 -202q-294 0 -464.5 202.5t-170.5 545.5q0 341 172 545t463 204q293 0 464 -203.5t171 -545.5zM1036 713q0 105 -18.5 194t-55.5 158t-98 108t-141 39q-79 0 -140 -39.5t-98 -108.5t-56 -158t-19 -193q0 -142 31.5 -251.5t104 -178
t177.5 -68.5q80 0 141.5 39t98.5 108t55 157t18 194zM842 1614q-56 0 -143 38t-117 38q-27 0 -50 -28.5t-47 -78.5l-174 109q16 40 38.5 77.5t54.5 75.5t77 61t94 23q60 0 145 -38t114 -38q26 0 48.5 27.5t49.5 79.5l176 -113q-130 -233 -266 -233z" />
    <glyph glyph-name="Odieresis" unicode="&#xd6;" horiz-adv-x="1445" 
d="M1358 707q0 -344 -169.5 -546t-465.5 -202q-294 0 -464.5 202.5t-170.5 545.5q0 341 172 545t463 204q293 0 464 -203.5t171 -545.5zM1036 713q0 105 -18.5 194t-55.5 158t-98 108t-141 39q-79 0 -140 -39.5t-98 -108.5t-56 -158t-19 -193q0 -142 31.5 -251.5t104 -178
t177.5 -68.5q80 0 141.5 39t98.5 108t55 157t18 194zM653 1802q0 -75 -47.5 -120.5t-116.5 -45.5t-116 45.5t-47 120.5q0 73 47 118.5t116 45.5t116.5 -45.5t47.5 -118.5zM1110 1802q0 -74 -48 -120t-118 -46q-68 0 -116 46t-48 120q0 73 48 118.5t116 45.5q70 0 118 -45.5
t48 -118.5z" />
    <glyph glyph-name="multiply" unicode="&#xd7;" horiz-adv-x="1159" 
d="M104 901l183 184l293 -294l294 294l183 -184l-295 -293l295 -293l-183 -184l-294 295l-293 -295l-183 184l295 293z" />
    <glyph glyph-name="Oslash" unicode="&#xd8;" horiz-adv-x="1603" 
d="M1524 711q0 -186 -56 -335t-154.5 -244t-229 -145t-283.5 -50q-216 0 -371 94l-123 -162l-196 147l133 170q-166 193 -166 525q0 185 58.5 334.5t158.5 244t229.5 145t276.5 50.5q207 0 370 -99l125 164l197 -145l-133 -172q164 -204 164 -522zM397 711q0 -145 58 -252
q104 135 285 370t249 324q-77 51 -188 51q-187 0 -295.5 -133.5t-108.5 -359.5zM1206 711q0 146 -55 250l-539 -693q79 -51 189 -51q188 0 296.5 133.5t108.5 360.5z" />
    <glyph glyph-name="Ugrave" unicode="&#xd9;" horiz-adv-x="1423" 
d="M1202 473q0 -234 -140.5 -375t-397.5 -141q-225 0 -363 113t-162 305q-10 105 -10 196v859h313v-812q0 -214 48.5 -307.5t181.5 -93.5q95 0 154.5 56t66.5 169q6 82 6 179v809h303v-957zM784 1552h-209l-325 414h364z" />
    <glyph glyph-name="Uacute" unicode="&#xda;" horiz-adv-x="1423" 
d="M1202 473q0 -234 -140.5 -375t-397.5 -141q-225 0 -363 113t-162 305q-10 105 -10 196v859h313v-812q0 -214 48.5 -307.5t181.5 -93.5q95 0 154.5 56t66.5 169q6 82 6 179v809h303v-957zM780 1593h-209l170 414h363z" />
    <glyph glyph-name="Ucircumflex" unicode="&#xdb;" horiz-adv-x="1423" 
d="M1202 473q0 -234 -140.5 -375t-397.5 -141q-225 0 -363 113t-162 305q-10 105 -10 196v859h313v-812q0 -214 48.5 -307.5t181.5 -93.5q95 0 154.5 56t66.5 169q6 82 6 179v809h303v-957zM674 1716l-213 -180l-135 154l348 333l344 -333l-129 -154z" />
    <glyph glyph-name="Udieresis" unicode="&#xdc;" horiz-adv-x="1423" 
d="M1202 473q0 -234 -140.5 -375t-397.5 -141q-225 0 -363 113t-162 305q-10 105 -10 196v859h313v-812q0 -214 48.5 -307.5t181.5 -93.5q95 0 154.5 56t66.5 169q6 82 6 179v809h303v-957zM606 1763q0 -75 -47.5 -120.5t-116.5 -45.5t-116 45.5t-47 120.5q0 73 47 118.5
t116 45.5t116.5 -45.5t47.5 -118.5zM1063 1763q0 -74 -48 -120t-118 -46q-68 0 -116 46t-48 120q0 73 48 118.5t116 45.5q70 0 118 -45.5t48 -118.5z" />
    <glyph glyph-name="Yacute" unicode="&#xdd;" horiz-adv-x="1271" 
d="M1194 1430q-227 -458 -451 -857v-589h-311v587q-204 366 -450 859h346q127 -299 270 -576q146 287 274 576h322zM707 1593h-209l170 414h362z" />
    <glyph glyph-name="Thorn" unicode="&#xde;" horiz-adv-x="1273" 
d="M446 1454v-223q65 6 144 6q309 0 476 -122.5t167 -371.5q0 -261 -172.5 -380t-507.5 -119h-107v-279h-307v1489h307zM582 965q-62 0 -136 -9v-438h101q188 0 278 49t90 178q0 220 -333 220z" />
    <glyph glyph-name="germandbls" unicode="&#xdf;" horiz-adv-x="1292" 
d="M1067 1257q0 -91 -32 -154.5t-89 -127.5v2q-39 -44 -55.5 -64t-31.5 -48t-15 -52q0 -19 9 -35t33 -33.5t38.5 -26t53.5 -28.5q10 -5 15 -8q54 -31 83.5 -49.5t68.5 -52t59 -66.5t34.5 -82.5t14.5 -109.5q0 -186 -111.5 -283.5t-338.5 -97.5q-65 0 -132.5 15.5t-92 25
t-72.5 30.5l16 84q6 28 18.5 86.5t18.5 87.5q1 -1 12 -6.5t14.5 -7t15 -7t17.5 -8t18 -7t21.5 -7t23 -6t25.5 -5.5t27 -4t31 -3q53 -8 102 2q88 24 88 108q0 54 -42.5 92.5t-139.5 86.5q-133 64 -178 127t-45 159q0 81 34.5 139t106.5 134q57 66 71 91q19 36 19 81
q0 61 -41.5 96t-115.5 35q-205 0 -205 -240v-1155h-295v1098q0 67 6 131q19 199 143.5 314.5t337.5 115.5q230 0 343.5 -101.5t113.5 -265.5z" />
    <glyph glyph-name="agrave" unicode="&#xe0;" horiz-adv-x="1093" 
d="M977 31q-72 -29 -191 -48.5t-256 -19.5q-471 0 -471 361q0 345 514 378q52 3 113 -2q-3 98 -46.5 149.5t-147.5 51.5q-154 0 -295 -63l-54 217q174 71 387 71q400 0 441 -344q6 -64 6 -133v-618zM688 188v324q-96 0 -119 -2q-102 -10 -159.5 -50t-57.5 -128
q0 -160 197 -160q90 0 139 16zM659 1223h-208l-326 413h364z" />
    <glyph glyph-name="aacute" unicode="&#xe1;" horiz-adv-x="1093" 
d="M977 31q-72 -29 -191 -48.5t-256 -19.5q-471 0 -471 361q0 345 514 378q52 3 113 -2q-3 98 -46.5 149.5t-147.5 51.5q-154 0 -295 -63l-54 217q174 71 387 71q400 0 441 -344q6 -64 6 -133v-618zM688 188v324q-96 0 -119 -2q-102 -10 -159.5 -50t-57.5 -128
q0 -160 197 -160q90 0 139 16zM610 1272h-209l170 414h363z" />
    <glyph glyph-name="acircumflex" unicode="&#xe2;" horiz-adv-x="1093" 
d="M977 31q-72 -29 -191 -48.5t-256 -19.5q-471 0 -471 361q0 345 514 378q52 3 113 -2q-3 98 -46.5 149.5t-147.5 51.5q-154 0 -295 -63l-54 217q174 71 387 71q400 0 441 -344q6 -64 6 -133v-618zM688 188v324q-96 0 -119 -2q-102 -10 -159.5 -50t-57.5 -128
q0 -160 197 -160q90 0 139 16zM551 1386l-213 -180l-135 154l348 334l344 -334l-129 -154z" />
    <glyph glyph-name="atilde" unicode="&#xe3;" horiz-adv-x="1093" 
d="M977 31q-72 -29 -191 -48.5t-256 -19.5q-471 0 -471 361q0 345 514 378q52 3 113 -2q-3 98 -46.5 149.5t-147.5 51.5q-154 0 -295 -63l-54 217q174 71 387 71q400 0 441 -344q6 -64 6 -133v-618zM688 188v324q-96 0 -119 -2q-102 -10 -159.5 -50t-57.5 -128
q0 -160 197 -160q90 0 139 16zM672 1247q-56 0 -143 38t-117 38q-45 0 -97 -106l-174 108q16 40 38.5 77.5t55 76t77.5 61.5t94 23q60 0 144.5 -38t113.5 -38q26 0 48.5 27.5t49.5 78.5l176 -112q-130 -234 -266 -234z" />
    <glyph glyph-name="adieresis" unicode="&#xe4;" horiz-adv-x="1093" 
d="M977 31q-72 -29 -191 -48.5t-256 -19.5q-471 0 -471 361q0 345 514 378q52 3 113 -2q-3 98 -46.5 149.5t-147.5 51.5q-154 0 -295 -63l-54 217q174 71 387 71q400 0 441 -344q6 -64 6 -133v-618zM688 188v324q-96 0 -119 -2q-102 -10 -159.5 -50t-57.5 -128
q0 -160 197 -160q90 0 139 16zM483 1434q0 -75 -47.5 -120.5t-116.5 -45.5t-116 45.5t-47 120.5q0 73 47 118t116 45t116.5 -45t47.5 -118zM940 1434q0 -74 -48 -120t-118 -46q-68 0 -116 46t-48 120q0 73 48 118t116 45q70 0 118 -45t48 -118z" />
    <glyph glyph-name="aring" unicode="&#xe5;" horiz-adv-x="1093" 
d="M977 31q-72 -29 -191 -48.5t-256 -19.5q-471 0 -471 361q0 345 514 378q52 3 113 -2q-3 98 -46.5 149.5t-147.5 51.5q-154 0 -295 -63l-54 217q174 71 387 71q400 0 441 -344q6 -64 6 -133v-618zM688 188v324q-96 0 -119 -2q-102 -10 -159.5 -50t-57.5 -128
q0 -160 197 -160q90 0 139 16zM807 1470q0 -117 -73.5 -185t-182.5 -68q-107 0 -181.5 68t-74.5 185q0 115 75 183.5t181 68.5q109 0 182.5 -68t73.5 -184zM621 1470q0 33 -20.5 52.5t-49.5 19.5q-30 0 -50 -19.5t-20 -52.5q0 -34 20 -53.5t50 -19.5q29 0 49.5 19.5
t20.5 53.5z" />
    <glyph glyph-name="ae" unicode="&#xe6;" horiz-adv-x="1771" 
d="M993 668h406q-9 94 -59 147t-136 53t-142 -57t-69 -143zM526 -57q-477 0 -477 379q0 98 38 170.5t106.5 114t153.5 61.5t188 20q79 0 151 -16q-4 34 -8.5 57t-17 51.5t-31.5 45t-53.5 28.5t-81.5 12q-161 0 -304 -53l-38 258q66 23 165.5 41t198.5 18q130 0 211.5 -38
t132.5 -115q125 131 305 147q59 6 111 0q201 -21 313.5 -164.5t112.5 -400.5q0 -21 -3 -65t-3 -62h-701q40 -223 287 -223q159 0 309 67l45 -258q-48 -25 -132.5 -46t-176.5 -27q-54 -5 -119 -2q-192 9 -317 98q-165 -98 -365 -98zM694 438q-66 17 -131 17q-215 0 -215 -129
t191 -129q109 0 202 45q-41 87 -47 196z" />
    <glyph glyph-name="ccedilla" unicode="&#xe7;" horiz-adv-x="987" 
d="M711 -55q35 -49 28 -119q52 -52 47 -121q-20 -74 -87.5 -118t-184.5 -44q-95 0 -205 35l43 207q90 -29 148 -29q28 0 22 29q-11 17 -33 28.5t-67 26.5q14 60 43 121q-196 45 -296.5 196.5t-100.5 374.5q0 171 66 305.5t194 213.5t299 79q180 0 327 -69l-67 -254
q-131 55 -242 55q-133 0 -202.5 -87t-69.5 -243q0 -157 68 -240t223 -83q122 0 258 61l51 -260q-115 -53 -262 -65z" />
    <glyph glyph-name="egrave" unicode="&#xe8;" horiz-adv-x="1163" 
d="M1063 485l-682 -47q17 -120 86 -179.5t195 -59.5q166 0 296 63l56 -223q-65 -33 -165.5 -56.5t-217.5 -23.5q-271 0 -413 157.5t-142 426.5q0 137 38.5 248t107 184t162 112t202.5 39q209 0 332.5 -121.5t140.5 -353.5q0 -19 2 -71.5t2 -94.5zM772 662q-9 243 -192 243
q-95 0 -151.5 -73.5t-57.5 -202.5zM678 1217h-209l-326 413h365z" />
    <glyph glyph-name="eacute" unicode="&#xe9;" horiz-adv-x="1163" 
d="M1063 485l-682 -47q17 -120 86 -179.5t195 -59.5q166 0 296 63l56 -223q-65 -33 -165.5 -56.5t-217.5 -23.5q-271 0 -413 157.5t-142 426.5q0 137 38.5 248t107 184t162 112t202.5 39q209 0 332.5 -121.5t140.5 -353.5q0 -19 2 -71.5t2 -94.5zM772 662q-9 243 -192 243
q-95 0 -151.5 -73.5t-57.5 -202.5zM676 1257h-209l170 414h362z" />
    <glyph glyph-name="ecircumflex" unicode="&#xea;" horiz-adv-x="1163" 
d="M1063 485l-682 -47q17 -120 86 -179.5t195 -59.5q166 0 296 63l56 -223q-65 -33 -165.5 -56.5t-217.5 -23.5q-271 0 -413 157.5t-142 426.5q0 137 38.5 248t107 184t162 112t202.5 39q209 0 332.5 -121.5t140.5 -353.5q0 -19 2 -71.5t2 -94.5zM772 662q-9 243 -192 243
q-95 0 -151.5 -73.5t-57.5 -202.5zM569 1378l-213 -180l-135 154l348 334l344 -334l-129 -154z" />
    <glyph glyph-name="edieresis" unicode="&#xeb;" horiz-adv-x="1163" 
d="M1063 485l-682 -47q17 -120 86 -179.5t195 -59.5q166 0 296 63l56 -223q-65 -33 -165.5 -56.5t-217.5 -23.5q-271 0 -413 157.5t-142 426.5q0 137 38.5 248t107 184t162 112t202.5 39q209 0 332.5 -121.5t140.5 -353.5q0 -19 2 -71.5t2 -94.5zM772 662q-9 243 -192 243
q-95 0 -151.5 -73.5t-57.5 -202.5zM500 1427q0 -75 -47 -120t-117 -45t-117 45t-47 120q0 73 47.5 118.5t116.5 45.5t116.5 -45.5t47.5 -118.5zM956 1427q0 -74 -47.5 -119.5t-117.5 -45.5q-68 0 -116 45.5t-48 119.5q0 73 48 118.5t116 45.5q69 0 117 -45.5t48 -118.5z" />
    <glyph glyph-name="igrave" unicode="&#xec;" horiz-adv-x="544" 
d="M422 1104v-1139h-299v1139h299zM381 1217h-209l-326 413h365z" />
    <glyph glyph-name="iacute" unicode="&#xed;" horiz-adv-x="544" 
d="M422 1104v-1139h-299v1139h299zM379 1257h-209l170 414h362z" />
    <glyph glyph-name="icircumflex" unicode="&#xee;" horiz-adv-x="544" 
d="M422 1104v-1139h-299v1139h299zM272 1378l-213 -180l-135 154l348 334l344 -334l-129 -154z" />
    <glyph glyph-name="idieresis" unicode="&#xef;" horiz-adv-x="544" 
d="M422 1104v-1139h-299v1139h299zM205 1427q0 -75 -47 -120t-117 -45t-117 45t-47 120q0 73 47.5 118.5t116.5 45.5t116.5 -45.5t47.5 -118.5zM662 1427q0 -74 -48 -119.5t-118 -45.5q-68 0 -116 45.5t-48 119.5q0 73 48 118.5t116 45.5q70 0 118 -45.5t48 -118.5z" />
    <glyph glyph-name="eth" unicode="&#xf0;" horiz-adv-x="1210" 
d="M68 489q0 256 145 395.5t395 139.5q95 0 193 -53q-20 103 -78 200l-217 -57l-80 154l156 61q-65 65 -162 127l180 182q151 -87 264 -213l252 86l70 -200l-193 -68q148 -258 148 -573q0 -122 -17.5 -227t-58 -199.5t-103 -161t-157.5 -105t-215 -38.5q-124 0 -224.5 43.5
t-164.5 119.5t-98.5 175t-34.5 212zM836 688q-89 80 -222 80q-126 0 -185.5 -75.5t-59.5 -200.5q0 -124 57.5 -203.5t163.5 -79.5q234 0 246 399q3 40 0 80z" />
    <glyph glyph-name="ntilde" unicode="&#xf1;" 
d="M1061 -16h-301v571q0 44 -0.5 66.5t-2 58.5t-5 54.5t-9.5 46t-15.5 41t-24 30.5t-33 24.5t-43.5 13t-56 5.5q-82 0 -145 -18v-893h-303v1054q156 86 463 86q90 0 161 -14.5t120.5 -38.5t85 -63t56.5 -80t33 -98.5t15.5 -109t3.5 -120.5v-616zM725 1270q-57 0 -143.5 38
t-114.5 38t-50.5 -28t-47.5 -79l-174 109q16 40 38.5 77.5t54.5 74.5t77 60t94 23q60 0 144.5 -37t113.5 -37q26 0 48 27t50 78l176 -111q-130 -233 -266 -233z" />
    <glyph glyph-name="ograve" unicode="&#xf2;" horiz-adv-x="1220" 
d="M1100 543q0 -262 -137 -423t-375 -161q-236 0 -374 161t-138 423q0 261 139 422t373 161q235 0 373.5 -161t138.5 -422zM795 545q0 160 -51 256t-156 96q-107 0 -158 -96t-51 -256q0 -159 51.5 -253.5t157.5 -94.5q105 0 156 94t51 254zM696 1217h-209l-325 413h364z" />
    <glyph glyph-name="oacute" unicode="&#xf3;" horiz-adv-x="1220" 
d="M1100 543q0 -262 -137 -423t-375 -161q-236 0 -374 161t-138 423q0 261 139 422t373 161q235 0 373.5 -161t138.5 -422zM795 545q0 160 -51 256t-156 96q-107 0 -158 -96t-51 -256q0 -159 51.5 -253.5t157.5 -94.5q105 0 156 94t51 254zM694 1257h-209l170 414h363z" />
    <glyph glyph-name="ocircumflex" unicode="&#xf4;" horiz-adv-x="1220" 
d="M1100 543q0 -262 -137 -423t-375 -161q-236 0 -374 161t-138 423q0 261 139 422t373 161q235 0 373.5 -161t138.5 -422zM795 545q0 160 -51 256t-156 96q-107 0 -158 -96t-51 -256q0 -159 51.5 -253.5t157.5 -94.5q105 0 156 94t51 254zM588 1378l-213 -180l-135 154
l348 334l344 -334l-129 -154z" />
    <glyph glyph-name="otilde" unicode="&#xf5;" horiz-adv-x="1220" 
d="M1100 543q0 -262 -137 -423t-375 -161q-236 0 -374 161t-138 423q0 261 139 422t373 161q235 0 373.5 -161t138.5 -422zM795 545q0 160 -51 256t-156 96q-107 0 -158 -96t-51 -256q0 -159 51.5 -253.5t157.5 -94.5q105 0 156 94t51 254zM709 1239q-57 0 -144 38t-116 38
q-27 0 -50 -28.5t-47 -78.5l-174 109q16 40 38.5 77.5t54.5 75.5t77 61t94 23q60 0 144.5 -37.5t113.5 -37.5q26 0 49 27.5t50 78.5l176 -112q-130 -234 -266 -234z" />
    <glyph glyph-name="odieresis" unicode="&#xf6;" horiz-adv-x="1220" 
d="M1100 543q0 -262 -137 -423t-375 -161q-236 0 -374 161t-138 423q0 261 139 422t373 161q235 0 373.5 -161t138.5 -422zM795 545q0 160 -51 256t-156 96q-107 0 -158 -96t-51 -256q0 -159 51.5 -253.5t157.5 -94.5q105 0 156 94t51 254zM520 1427q0 -75 -47 -120
t-117 -45q-69 0 -116 45t-47 120q0 73 47 118.5t116 45.5t116.5 -45.5t47.5 -118.5zM977 1427q0 -74 -48 -119.5t-118 -45.5q-68 0 -116 45.5t-48 119.5q0 73 48 118.5t116 45.5q70 0 118 -45.5t48 -118.5z" />
    <glyph glyph-name="divide" unicode="&#xf7;" horiz-adv-x="1159" 
d="M762 1069q0 -81 -53.5 -132.5t-130.5 -51.5q-76 0 -129.5 51t-53.5 131t54 132t129 52q76 0 130 -52t54 -130zM762 207q0 -80 -53.5 -130t-130.5 -50q-76 0 -129.5 50t-53.5 130t54 132t129 52q77 0 130.5 -52t53.5 -132zM1087 506h-1015v254h1015v-254z" />
    <glyph glyph-name="oslash" unicode="&#xf8;" horiz-adv-x="1220" 
d="M1153 535q0 -267 -149.5 -431.5t-393.5 -164.5q-153 0 -268 69l-100 -131l-174 131l112 144q-112 147 -112 383q0 266 152.5 430.5t389.5 164.5q151 0 269 -71q17 22 52 68t50 65l172 -131l-111 -146q111 -147 111 -380zM362 549q13 -61 50 -96l295 383q-55 34 -127 28
q-100 -10 -158 -95t-60 -220zM858 522q-13 58 -49 92l-297 -385q62 -33 131 -24q99 11 156.5 95t58.5 222z" />
    <glyph glyph-name="ugrave" unicode="&#xf9;" 
d="M1049 51q-141 -90 -463 -90q-131 0 -223 33t-145.5 98.5t-77 152.5t-23.5 204v655h303v-567q0 -61 1.5 -98t7 -81.5t17 -69.5t31 -48t50.5 -33t73 -10q88 0 145 22v885h304v-1053zM705 1217h-209l-326 413h365z" />
    <glyph glyph-name="uacute" unicode="&#xfa;" 
d="M1049 51q-141 -90 -463 -90q-131 0 -223 33t-145.5 98.5t-77 152.5t-23.5 204v655h303v-567q0 -61 1.5 -98t7 -81.5t17 -69.5t31 -48t50.5 -33t73 -10q88 0 145 22v885h304v-1053zM702 1257h-208l170 414h362z" />
    <glyph glyph-name="ucircumflex" unicode="&#xfb;" 
d="M1049 51q-141 -90 -463 -90q-131 0 -223 33t-145.5 98.5t-77 152.5t-23.5 204v655h303v-567q0 -61 1.5 -98t7 -81.5t17 -69.5t31 -48t50.5 -33t73 -10q88 0 145 22v885h304v-1053zM596 1378l-213 -180l-135 154l348 334l344 -334l-129 -154z" />
    <glyph glyph-name="udieresis" unicode="&#xfc;" 
d="M1049 51q-141 -90 -463 -90q-131 0 -223 33t-145.5 98.5t-77 152.5t-23.5 204v655h303v-567q0 -61 1.5 -98t7 -81.5t17 -69.5t31 -48t50.5 -33t73 -10q88 0 145 22v885h304v-1053zM526 1427q0 -75 -47 -120t-117 -45q-69 0 -116 45t-47 120q0 73 47 118.5t116 45.5
t116.5 -45.5t47.5 -118.5zM983 1427q0 -74 -48 -119.5t-118 -45.5q-68 0 -116 45.5t-48 119.5q0 73 48 118.5t116 45.5q70 0 118 -45.5t48 -118.5z" />
    <glyph glyph-name="yacute" unicode="&#xfd;" horiz-adv-x="1105" 
d="M1071 1104q-193 -670 -414 -1264q-51 -120 -115 -172.5t-171 -52.5q-18 0 -37.5 2t-35 4.5t-35 7t-31.5 8t-31 10t-27 9.5t-26 10t-21 8l61 201q78 -37 115 -37q16 0 29.5 5t24.5 17.5t18 21t15 30.5t11 30t10.5 34t8.5 30q-222 542 -389 1098h319q70 -296 170 -610
q44 -169 47 -175q4 7 11 32.5t17.5 72.5t16.5 70q69 232 164 610h295zM659 1257h-208l170 414h362z" />
    <glyph glyph-name="thorn" unicode="&#xfe;" horiz-adv-x="1218" 
d="M123 1581l299 49v-530q82 26 166 26q257 0 410 -161.5t153 -432.5q0 -267 -134 -428t-374 -161q-121 0 -221 49v-406h-299v1995zM422 836v-574q78 -53 182 -53q125 0 183.5 84.5t58.5 234.5q0 155 -71.5 242.5t-196.5 87.5q-82 0 -156 -22z" />
    <glyph glyph-name="ydieresis" unicode="&#xff;" horiz-adv-x="1105" 
d="M1071 1104q-193 -670 -414 -1264q-51 -120 -115 -172.5t-171 -52.5q-18 0 -37.5 2t-35 4.5t-35 7t-31.5 8t-31 10t-27 9.5t-26 10t-21 8l61 201q78 -37 115 -37q16 0 29.5 5t24.5 17.5t18 21t15 30.5t11 30t10.5 34t8.5 30q-222 542 -389 1098h319q70 -296 170 -610
q44 -169 47 -175q4 7 11 32.5t17.5 72.5t16.5 70q69 232 164 610h295zM485 1427q0 -75 -47 -120t-116 -45q-70 0 -117 45t-47 120q0 73 47.5 118.5t116.5 45.5t116 -45.5t47 -118.5zM942 1427q0 -74 -48 -119.5t-118 -45.5q-68 0 -116 45.5t-48 119.5q0 73 48 118.5
t116 45.5q70 0 118 -45.5t48 -118.5z" />
    <glyph glyph-name="Amacron" unicode="&#x100;" horiz-adv-x="1404" 
d="M1362 -16h-334q-86 281 -102 327h-496q-75 -220 -108 -327h-302q307 899 527 1446h287q84 -209 178.5 -465t160.5 -443t189 -538zM862 535q-17 51 -63 195.5t-72 219.5q-14 43 -29.5 94t-17.5 58q-10 -18 -33 -103q-20 -67 -45 -142t-58 -173t-50 -149h368zM989 1610
h-676v235h676v-235z" />
    <glyph glyph-name="amacron" unicode="&#x101;" horiz-adv-x="1093" 
d="M977 31q-72 -29 -191 -48.5t-256 -19.5q-471 0 -471 361q0 345 514 378q52 3 113 -2q-3 98 -46.5 149.5t-147.5 51.5q-154 0 -295 -63l-54 217q174 71 387 71q400 0 441 -344q6 -64 6 -133v-618zM688 188v324q-96 0 -119 -2q-102 -10 -159.5 -50t-57.5 -128
q0 -160 197 -160q90 0 139 16zM891 1282h-676v236h676v-236z" />
    <glyph glyph-name="Abreve" unicode="&#x102;" horiz-adv-x="1404" 
d="M1362 -16h-334q-86 281 -102 327h-496q-75 -220 -108 -327h-302q307 899 527 1446h287q84 -209 178.5 -465t160.5 -443t189 -538zM862 535q-17 51 -63 195.5t-72 219.5q-14 43 -29.5 94t-17.5 58q-10 -18 -33 -103q-20 -67 -45 -142t-58 -173t-50 -149h368zM651 1571
q-160 0 -247.5 98t-84.5 281h222q5 -72 28.5 -112t81.5 -40q102 0 109 152h221q0 -184 -85.5 -281.5t-244.5 -97.5z" />
    <glyph glyph-name="abreve" unicode="&#x103;" horiz-adv-x="1093" 
d="M977 31q-72 -29 -191 -48.5t-256 -19.5q-471 0 -471 361q0 345 514 378q52 3 113 -2q-3 98 -46.5 149.5t-147.5 51.5q-154 0 -295 -63l-54 217q174 71 387 71q400 0 441 -344q6 -64 6 -133v-618zM688 188v324q-96 0 -119 -2q-102 -10 -159.5 -50t-57.5 -128
q0 -160 197 -160q90 0 139 16zM553 1243q-160 0 -247.5 98t-84.5 281h221q5 -71 29 -111.5t82 -40.5q102 0 109 152h221q0 -184 -85.5 -281.5t-244.5 -97.5z" />
    <glyph glyph-name="Aogonek" unicode="&#x104;" horiz-adv-x="1404" 
d="M1362 -16h-334q-86 281 -102 327h-496q-75 -220 -108 -327h-302q307 899 527 1446h287q84 -209 178.5 -465t160.5 -443t189 -538zM862 535q-17 51 -63 195.5t-72 219.5q-14 43 -29.5 94t-17.5 58q-10 -18 -33 -103q-20 -67 -45 -142t-58 -173t-50 -149h368zM1122 -455
q-264 0 -264 201q0 158 219 313h223q-4 -13 -14.5 -46.5t-17.5 -53.5q-4 -2 -11.5 -6t-11.5 -6q4 0 8 4q-3 -3 -19.5 -19t-29.5 -29t-28.5 -30t-25 -32.5t-11.5 -26.5q3 -32 51 -29q40 3 106 25l27 -226q-88 -39 -201 -39z" />
    <glyph glyph-name="aogonek" unicode="&#x105;" horiz-adv-x="1093" 
d="M516 1130q109 0 191 -24t134 -65t83.5 -104.5t44 -134t12.5 -161.5v-635q-7 -5 -72 -57q5 0 9 4q-7 -7 -25.5 -24.5t-30.5 -30t-27 -29t-23.5 -30.5t-10.5 -25q10 -33 63 -27q30 2 97 23l26 -226q-66 -26 -156 -37q-53 -3 -86 2q-151 11 -198 113q-24 61 -4 143
q17 72 82 144q-99 -6 -111 -6q-106 0 -189 21t-146 65t-96.5 118t-33.5 175q0 98 38 170.5t106.5 114t153.5 61.5t188 20q77 0 149 -16q-12 50 -78 65q-13 59 -47 93.5t-110 33.5q-137 -5 -259 -51l-38 258q66 23 165.5 41t198.5 18zM535 197q112 0 155 8v233q-31 9 -84 15
q-18 2 -63 2q-40 -2 -71 -7.5t-61 -19t-46.5 -39.5t-16.5 -63q0 -69 48 -99t139 -30z" />
    <glyph glyph-name="Cacute" unicode="&#x106;" horiz-adv-x="1292" 
d="M1120 57q-61 -43 -165 -70.5t-232 -27.5q-151 0 -271.5 55t-200 154.5t-121.5 236.5t-42 302q0 217 79 387t225.5 266t336.5 96q128 0 227.5 -30.5t155.5 -69.5l-80 -228q-122 72 -262 72q-126 0 -211 -75.5t-113 -213.5q-33 -99 -30 -245q8 -171 78 -289.5t200 -143.5
q63 -14 117 -8q121 7 229 62zM799 1593h-209l170 414h362z" />
    <glyph glyph-name="cacute" unicode="&#x107;" horiz-adv-x="987" 
d="M887 35q-119 -76 -301 -76q-242 0 -376 157t-134 429q0 263 139.5 422t364.5 159q172 0 297 -73q-22 -78 -66 -211q-93 49 -186 49q-121 0 -182.5 -90t-61.5 -254q0 -166 62 -255t190 -89q99 0 196 53zM659 1282h-208l170 414h362z" />
    <glyph glyph-name="Ccircumflex" unicode="&#x108;" horiz-adv-x="1292" 
d="M1120 57q-61 -43 -165 -70.5t-232 -27.5q-151 0 -271.5 55t-200 154.5t-121.5 236.5t-42 302q0 217 79 387t225.5 266t336.5 96q128 0 227.5 -30.5t155.5 -69.5l-80 -228q-122 72 -262 72q-126 0 -211 -75.5t-113 -213.5q-33 -99 -30 -245q8 -171 78 -289.5t200 -143.5
q63 -14 117 -8q121 7 229 62zM692 1716l-213 -180l-135 154l348 333l344 -333l-129 -154z" />
    <glyph glyph-name="ccircumflex" unicode="&#x109;" horiz-adv-x="987" 
d="M887 35q-119 -76 -301 -76q-242 0 -376 157t-134 429q0 263 139.5 422t364.5 159q172 0 297 -73q-22 -78 -66 -211q-93 49 -186 49q-121 0 -182.5 -90t-61.5 -254q0 -166 62 -255t190 -89q99 0 196 53zM553 1405l-213 -180l-135 153l348 334l344 -334l-129 -153z" />
    <glyph glyph-name="Cdotaccent" unicode="&#x10a;" horiz-adv-x="1292" 
d="M1120 57q-61 -43 -165 -70.5t-232 -27.5q-151 0 -271.5 55t-200 154.5t-121.5 236.5t-42 302q0 217 79 387t225.5 266t336.5 96q128 0 227.5 -30.5t155.5 -69.5l-80 -228q-122 72 -262 72q-126 0 -211 -75.5t-113 -213.5q-33 -99 -30 -245q8 -171 78 -289.5t200 -143.5
q63 -14 117 -8q121 7 229 62zM690 1559q-71 0 -120.5 47t-49.5 123q0 75 49.5 121t120.5 46t119.5 -46t48.5 -121q0 -76 -48.5 -123t-119.5 -47z" />
    <glyph glyph-name="cdotaccent" unicode="&#x10b;" horiz-adv-x="987" 
d="M887 35q-119 -76 -301 -76q-242 0 -376 157t-134 429q0 263 139.5 422t364.5 159q172 0 297 -73q-22 -78 -66 -211q-93 49 -186 49q-121 0 -182.5 -90t-61.5 -254q0 -166 62 -255t190 -89q99 0 196 53zM551 1247q-71 0 -120.5 47t-49.5 123q0 75 49.5 121.5t120.5 46.5
t119.5 -46.5t48.5 -121.5q0 -76 -48.5 -123t-119.5 -47z" />
    <glyph glyph-name="Ccaron" unicode="&#x10c;" horiz-adv-x="1292" 
d="M1120 57q-61 -43 -165 -70.5t-232 -27.5q-151 0 -271.5 55t-200 154.5t-121.5 236.5t-42 302q0 217 79 387t225.5 266t336.5 96q128 0 227.5 -30.5t155.5 -69.5l-80 -228q-122 72 -262 72q-126 0 -211 -75.5t-113 -213.5q-33 -99 -30 -245q8 -171 78 -289.5t200 -143.5
q63 -14 117 -8q121 7 229 62zM477 2050l215 -178l213 178l135 -154l-348 -331l-344 331z" />
    <glyph glyph-name="ccaron" unicode="&#x10d;" horiz-adv-x="987" 
d="M887 35q-119 -76 -301 -76q-242 0 -376 157t-134 429q0 263 139.5 422t364.5 159q172 0 297 -73q-22 -78 -66 -211q-93 49 -186 49q-121 0 -182.5 -90t-61.5 -254q0 -166 62 -255t190 -89q99 0 196 53zM338 1739l215 -178l213 178l135 -154l-348 -332l-344 332z" />
    <glyph glyph-name="Dcaron" unicode="&#x10e;" horiz-adv-x="1478" 
d="M1284 711q0 -350 -187 -548t-538 -198q-235 0 -424 62v1359q202 62 420 62q353 0 541 -192.5t188 -544.5zM965 713q0 249 -97.5 371t-300.5 122q-85 0 -118 -10v-973q27 -10 118 -10q203 0 300.5 123.5t97.5 376.5zM428 2050l215 -178l213 178l135 -154l-348 -331
l-344 331z" />
    <glyph glyph-name="dcaron" unicode="&#x10f;" horiz-adv-x="1466" 
d="M1096 1614v-1573q-185 -82 -449 -82q-263 0 -417 151.5t-154 426.5q0 262 134.5 419.5t364.5 157.5q120 0 216 -47v518q259 25 305 29zM791 213v623q-78 47 -164 47q-242 0 -242 -338q0 -167 70 -256.5t194 -89.5q91 0 142 14zM1200 1624h277l-70 -545h-207v545z" />
    <glyph glyph-name="Dcroat" unicode="&#x110;" horiz-adv-x="1503" 
d="M1423 711q0 -250 -104.5 -422.5t-289.5 -255t-439 -82.5q-239 0 -426 43v620h-166v250h166v561q208 43 430 43q189 0 339.5 -45t260.5 -136t169.5 -237t59.5 -339zM473 614v-383q1 0 44 -3t89 -3q246 0 373 128t127 358q0 233 -124 358t-372 125q-46 0 -90 -3t-47 -3
v-324h262v-250h-262z" />
    <glyph glyph-name="dcroat" unicode="&#x111;" horiz-adv-x="1220" 
d="M1096 1630v-192h141v-224h-141v-1206q-216 -67 -451 -67q-266 0 -421.5 157.5t-155.5 423.5q0 174 60 306.5t177 207t277 74.5q119 0 215 -49v153h-328v224h328v143zM797 221v572q-86 51 -185 51q-124 0 -181.5 -84t-57.5 -230q0 -150 73.5 -236.5t200.5 -86.5
q96 0 150 14z" />
    <glyph glyph-name="Emacron" unicode="&#x112;" horiz-adv-x="1196" 
d="M1001 -16h-866v1446h842v-242h-526v-344h464v-240h-464v-379h550v-241zM903 1610h-676v235h676v-235z" />
    <glyph glyph-name="emacron" unicode="&#x113;" horiz-adv-x="1163" 
d="M1063 485l-682 -47q17 -120 86 -179.5t195 -59.5q166 0 296 63l56 -223q-65 -33 -165.5 -56.5t-217.5 -23.5q-271 0 -413 157.5t-142 426.5q0 137 38.5 248t107 184t162 112t202.5 39q209 0 332.5 -121.5t140.5 -353.5q0 -19 2 -71.5t2 -94.5zM772 662q-9 243 -192 243
q-95 0 -151.5 -73.5t-57.5 -202.5zM907 1274h-676v235h676v-235z" />
    <glyph glyph-name="Ebreve" unicode="&#x114;" horiz-adv-x="1196" 
d="M1001 -16h-866v1446h842v-242h-526v-344h464v-240h-464v-379h550v-241zM563 1571q-160 0 -247.5 98t-84.5 281h222q5 -72 28.5 -112t81.5 -40q102 0 109 152h221q0 -184 -85.5 -281.5t-244.5 -97.5z" />
    <glyph glyph-name="ebreve" unicode="&#x115;" horiz-adv-x="1163" 
d="M1063 485l-682 -47q17 -120 86 -179.5t195 -59.5q166 0 296 63l56 -223q-65 -33 -165.5 -56.5t-217.5 -23.5q-271 0 -413 157.5t-142 426.5q0 137 38.5 248t107 184t162 112t202.5 39q209 0 332.5 -121.5t140.5 -353.5q0 -19 2 -71.5t2 -94.5zM772 662q-9 243 -192 243
q-95 0 -151.5 -73.5t-57.5 -202.5zM569 1235q-160 0 -247 98t-84 281h221q5 -72 28.5 -112t81.5 -40q102 0 109 152h221q0 -184 -85.5 -281.5t-244.5 -97.5z" />
    <glyph glyph-name="Edotaccent" unicode="&#x116;" horiz-adv-x="1196" 
d="M1001 -16h-866v1446h842v-242h-526v-344h464v-240h-464v-379h550v-241zM561 1559q-71 0 -120.5 47t-49.5 123q0 75 49.5 121t120.5 46t119.5 -46t48.5 -121q0 -76 -48.5 -123t-119.5 -47z" />
    <glyph glyph-name="edotaccent" unicode="&#x117;" horiz-adv-x="1163" 
d="M1063 485l-682 -47q17 -120 86 -179.5t195 -59.5q166 0 296 63l56 -223q-65 -33 -165.5 -56.5t-217.5 -23.5q-271 0 -413 157.5t-142 426.5q0 137 38.5 248t107 184t162 112t202.5 39q209 0 332.5 -121.5t140.5 -353.5q0 -19 2 -71.5t2 -94.5zM772 662q-9 243 -192 243
q-95 0 -151.5 -73.5t-57.5 -202.5zM567 1223q-71 0 -120.5 47t-49.5 123q0 75 49.5 121.5t120.5 46.5t119.5 -46.5t48.5 -121.5q0 -76 -48.5 -123t-119.5 -47z" />
    <glyph glyph-name="Eogonek" unicode="&#x118;" horiz-adv-x="1196" 
d="M834 -35h-109h-586v1489h965v-272h-658v-305h586v-269h-586v-370h709v-252q-151 -120 -156 -172q3 -15 20.5 -22.5t43.5 -4.5q25 2 96 23l27 -226q-91 -39 -201 -39q-266 0 -266 201q0 112 115 219z" />
    <glyph glyph-name="eogonek" unicode="&#x119;" horiz-adv-x="1163" 
d="M68 530q0 144 44.5 261t119 189.5t167.5 111t195 38.5q234 0 367 -145.5t133 -425.5q0 -21 -3.5 -65t-3.5 -62h-700q17 -96 78.5 -152.5t163.5 -66.5q38 -5 92 -2q142 10 262 65l45 -253q-80 -56 -141.5 -115t-67.5 -94q10 -33 64 -27q29 2 96 23l27 -226
q-91 -39 -201 -39q-223 0 -256 144q-9 51 2 98q17 87 90 160q-55 0 -117 10q-229 31 -342.5 184t-113.5 389zM385 668h406q-9 94 -58.5 147t-134.5 53q-87 0 -143 -56.5t-70 -143.5z" />
    <glyph glyph-name="Ecaron" unicode="&#x11a;" horiz-adv-x="1196" 
d="M1001 -16h-866v1446h842v-242h-526v-344h464v-240h-464v-379h550v-241zM348 2050l215 -178l213 178l135 -154l-348 -331l-344 331z" />
    <glyph glyph-name="ecaron" unicode="&#x11b;" horiz-adv-x="1163" 
d="M1063 485l-682 -47q17 -120 86 -179.5t195 -59.5q166 0 296 63l56 -223q-65 -33 -165.5 -56.5t-217.5 -23.5q-271 0 -413 157.5t-142 426.5q0 137 38.5 248t107 184t162 112t202.5 39q209 0 332.5 -121.5t140.5 -353.5q0 -19 2 -71.5t2 -94.5zM772 662q-9 243 -192 243
q-95 0 -151.5 -73.5t-57.5 -202.5zM354 1714l215 -178l213 178l136 -153l-349 -332l-344 332z" />
    <glyph glyph-name="Gcircumflex" unicode="&#x11c;" horiz-adv-x="1398" 
d="M1208 41q-164 -82 -450 -82q-315 0 -493.5 198.5t-178.5 553.5q0 171 51 311.5t141.5 235t216.5 146.5t275 52q256 0 428 -102l-96 -226q-108 64 -268 72q-207 11 -317.5 -114.5t-110.5 -378.5q0 -238 93 -370t263 -132q42 0 86 6t57 12v348h-145v244h448v-774zM756 1716
l-213 -180l-135 154l348 333l344 -333l-129 -154z" />
    <glyph glyph-name="gcircumflex" unicode="&#x11d;" horiz-adv-x="1198" 
d="M1051 45q0 -247 -132.5 -367t-383.5 -120q-224 0 -402 75l68 234q117 -55 243 -66q109 -3 174 33q67 19 102.5 64.5t35.5 109.5v41q-89 -43 -205 -43q-215 0 -345 142t-130 397q0 266 146 422.5t413 156.5q252 0 416 -73v-1006zM754 262v627q-39 16 -125 16
q-124 0 -187 -91.5t-63 -260.5q0 -166 59 -248t170 -82q87 0 146 39zM618 1378l-212 -180l-136 154l348 334l345 -334l-129 -154z" />
    <glyph glyph-name="Gbreve" unicode="&#x11e;" horiz-adv-x="1398" 
d="M1208 41q-164 -82 -450 -82q-315 0 -493.5 198.5t-178.5 553.5q0 171 51 311.5t141.5 235t216.5 146.5t275 52q256 0 428 -102l-96 -226q-108 64 -268 72q-207 11 -317.5 -114.5t-110.5 -378.5q0 -238 93 -370t263 -132q42 0 86 6t57 12v348h-145v244h448v-774zM756 1571
q-160 0 -247.5 98t-84.5 281h221q5 -71 29 -111.5t82 -40.5q101 0 108 152h221q0 -184 -85 -281.5t-244 -97.5z" />
    <glyph glyph-name="gbreve" unicode="&#x11f;" horiz-adv-x="1198" 
d="M1051 45q0 -247 -132.5 -367t-383.5 -120q-224 0 -402 75l68 234q117 -55 243 -66q109 -3 174 33q67 19 102.5 64.5t35.5 109.5v41q-89 -43 -205 -43q-215 0 -345 142t-130 397q0 266 146 422.5t413 156.5q252 0 416 -73v-1006zM754 262v627q-39 16 -125 16
q-124 0 -187 -91.5t-63 -260.5q0 -166 59 -248t170 -82q87 0 146 39zM621 1235q-160 0 -247.5 98t-84.5 281h221q5 -71 29 -111.5t82 -40.5q101 0 108 152h221q0 -184 -85 -281.5t-244 -97.5z" />
    <glyph glyph-name="Gdotaccent" unicode="&#x120;" horiz-adv-x="1398" 
d="M1208 41q-164 -82 -450 -82q-315 0 -493.5 198.5t-178.5 553.5q0 171 51 311.5t141.5 235t216.5 146.5t275 52q256 0 428 -102l-96 -226q-108 64 -268 72q-207 11 -317.5 -114.5t-110.5 -378.5q0 -238 93 -370t263 -132q42 0 86 6t57 12v348h-145v244h448v-774zM754 1559
q-71 0 -120.5 47t-49.5 123q0 75 49.5 121t120.5 46t119.5 -46t48.5 -121q0 -76 -48.5 -123t-119.5 -47z" />
    <glyph glyph-name="gdotaccent" unicode="&#x121;" horiz-adv-x="1198" 
d="M1051 45q0 -247 -132.5 -367t-383.5 -120q-224 0 -402 75l68 234q117 -55 243 -66q109 -3 174 33q67 19 102.5 64.5t35.5 109.5v41q-89 -43 -205 -43q-215 0 -345 142t-130 397q0 266 146 422.5t413 156.5q252 0 416 -73v-1006zM754 262v627q-39 16 -125 16
q-124 0 -187 -91.5t-63 -260.5q0 -166 59 -248t170 -82q87 0 146 39zM616 1223q-71 0 -120.5 47t-49.5 123q0 75 49.5 121.5t120.5 46.5t119.5 -46.5t48.5 -121.5q0 -76 -48.5 -123t-119.5 -47z" />
    <glyph glyph-name="Gcommaaccent" unicode="&#x122;" horiz-adv-x="1398" 
d="M913 229q23 184 27 236q-4 12 -13.5 35.5t-13.5 34.5v229h336v-727q-71 -32 -194 -56t-277 -24q-328 0 -510 200.5t-182 551.5q0 227 90 398.5t250 263t367 91.5q265 0 452 -108l-98 -238q-119 72 -293 80q-209 9 -325.5 -115.5t-116.5 -371.5q0 -236 94.5 -366
t277.5 -130q86 0 129 16zM666 -137v61h256q1 -3 10 -69q0 -33 -2 -43q-4 -131 -80.5 -195.5t-192.5 -69.5h-51q-54 7 -90 19v194q78 0 114 22.5t36 80.5z" />
    <glyph glyph-name="gcommaaccent" unicode="&#x123;" horiz-adv-x="1198" 
d="M774 23q-8 6 -24 20.5t-19 17.5q-61 -43 -170 -43q-216 0 -350.5 138t-134.5 393q0 259 149.5 412t417.5 153q252 0 434 -70v-981q0 -255 -135.5 -372t-402.5 -117q-220 0 -406 72l64 241q113 -52 256 -61q116 -6 184 27q128 32 137 170zM774 293v577q-54 15 -137 15
q-122 0 -187 -86t-65 -242q0 -158 62 -233.5t165 -75.5q104 0 162 45zM489 1223q-13 181 67 286t222 142l111 -162q-70 -43 -102.5 -90t-32.5 -131v-62h-265v17z" />
    <glyph glyph-name="Hcircumflex" unicode="&#x124;" horiz-adv-x="1466" 
d="M1237 -16h-313v620h-473v-620h-316v1446h316v-588h473v588h313v-1446zM684 1716l-213 -180l-135 154l348 333l344 -333l-129 -154z" />
    <glyph glyph-name="hcircumflex" unicode="&#x125;" 
d="M1061 -16h-301v569q0 39 -0.5 61.5t-1.5 55.5t-3.5 51.5t-7 43.5t-12 39t-17.5 31.5t-23.5 26.5t-31.5 17.5t-40.5 12t-49.5 3.5q-84 0 -147 -29v-882h-303v1613h303v-516q84 37 172 37q89 4 159 -9t118 -37t83 -64t54.5 -82t30.5 -100.5t14.5 -108.5t3.5 -117v-616z
M596 1808l-215 -178l-133 154l348 332l344 -332l-129 -154z" />
    <glyph glyph-name="Hbar" unicode="&#x126;" horiz-adv-x="1515" 
d="M1518 1020h-166v-1055h-310v627h-569v-627h-309v1055h-166v244h166v190h309v-190h569v190h310v-190h166v-244zM1042 866v154h-569v-154h569z" />
    <glyph glyph-name="hbar" unicode="&#x127;" horiz-adv-x="1200" 
d="M432 -35h-297v1249h-143v224h143v143l297 49v-192h334v-224h-334v-133q95 29 180 29q109 0 191 -25t135.5 -69.5t87 -111.5t47.5 -144.5t14 -175.5v-619h-299v580q0 165 -43 231t-157 66q-78 0 -156 -25v-852z" />
    <glyph glyph-name="Itilde" unicode="&#x128;" horiz-adv-x="585" 
d="M453 -16h-316v1446h316v-1446zM412 1575q-56 0 -143 38t-117 38q-27 0 -50 -28.5t-47 -78.5l-174 109q16 40 38.5 77.5t54.5 75.5t77 61t94 23q60 0 144.5 -37.5t113.5 -37.5q26 0 49 27.5t50 78.5l176 -113q-130 -233 -266 -233z" />
    <glyph glyph-name="itilde" unicode="&#x129;" horiz-adv-x="544" 
d="M422 1104v-1139h-299v1139h299zM393 1204q-57 0 -144 38t-116 38q-27 0 -49 -28t-47 -78l-174 108q12 31 28 61t41 63t52.5 57.5t65 40.5t77.5 16q60 0 144.5 -38t113.5 -38q26 0 48.5 27.5t49.5 78.5l176 -112q-130 -234 -266 -234z" />
    <glyph glyph-name="Imacron" unicode="&#x12a;" horiz-adv-x="585" 
d="M453 -16h-316v1446h316v-1446zM633 1610h-676v235h676v-235z" />
    <glyph glyph-name="imacron" unicode="&#x12b;" horiz-adv-x="544" 
d="M422 1104v-1139h-299v1139h299zM612 1274h-675v235h675v-235z" />
    <glyph glyph-name="Ibreve" unicode="&#x12c;" horiz-adv-x="585" 
d="M453 -16h-316v1446h316v-1446zM293 1571q-160 0 -247.5 98t-84.5 281h221q5 -71 29 -111.5t82 -40.5q101 0 108 152h222q0 -184 -85.5 -281.5t-244.5 -97.5z" />
    <glyph glyph-name="ibreve" unicode="&#x12d;" horiz-adv-x="544" 
d="M422 1104v-1139h-299v1139h299zM274 1235q-160 0 -247 98t-84 281h221q5 -72 28.5 -112t81.5 -40q102 0 109 152h221q0 -184 -85.5 -281.5t-244.5 -97.5z" />
    <glyph glyph-name="Iogonek" unicode="&#x12e;" horiz-adv-x="585" 
d="M446 1454v-1470q-68 -57 -107 -98.5t-42 -71.5q7 -33 63 -27q28 2 95 23l26 -226q-88 -39 -198 -39q-137 0 -202 53t-65 148q0 61 34.5 122.5t88.5 106.5v1479h307z" />
    <glyph glyph-name="iogonek" unicode="&#x12f;" horiz-adv-x="544" 
d="M422 1104v-1120q-7 -6 -29 -25.5t-30 -27t-26 -24.5t-25.5 -26.5t-18 -22.5t-15.5 -23.5t-6 -20.5q10 -33 64 -27q29 2 96 23l27 -226q-91 -39 -201 -39q-266 0 -266 201q0 64 35 121.5t96 118.5v1118h299zM451 1384q0 -82 -52 -131t-127 -49q-76 0 -128 49t-52 131
t52 131.5t128 49.5q75 0 127 -49.5t52 -131.5z" />
    <glyph glyph-name="Idotaccent" unicode="&#x130;" horiz-adv-x="585" 
d="M139 -16v1450h320v-1450h-320zM293 1540q-71 0 -119.5 46t-48.5 122t48.5 123t119.5 47t119.5 -47t48.5 -123t-48.5 -122t-119.5 -46z" />
    <glyph glyph-name="dotlessi" unicode="&#x131;" horiz-adv-x="544" 
d="M422 1104v-1139h-299v1139h299z" />
    <glyph glyph-name="IJ" unicode="&#x132;" horiz-adv-x="1626" 
d="M139 -16v1450h320v-1450h-320zM1386 1434v-1067q0 -503 -473 -525q-187 -5 -358 88l72 242q150 -71 260 -25q94 31 137 111t43 227v949h319z" />
    <glyph glyph-name="ij" unicode="&#x133;" horiz-adv-x="1087" 
d="M991 1401q0 -70 -50 -116t-122 -46t-122 46t-50 116q0 72 50 118t122 46t122 -46.5t50 -117.5zM971 72q0 -215 -94 -339t-271 -151q-70 -19 -180 -2l20 187q78 18 123 45.5t71.5 86t27.5 154.5v1051h303v-1032zM449 1401q0 -69 -50.5 -115.5t-122.5 -46.5t-122 46
t-50 116q0 72 50 118t122 46t122.5 -46t50.5 -118zM428 -16h-303v1120h303v-1120z" />
    <glyph glyph-name="Jcircumflex" unicode="&#x134;" horiz-adv-x="1046" 
d="M688 276q0 -222 -104.5 -356t-325.5 -158q-151 -12 -309 50q8 36 27.5 114t29.5 121q137 -44 225 16q84 42 114 128.5t30 244.5v60v934h313v-1154zM532 1716l-213 -180l-135 154l348 333l345 -333l-129 -154z" />
    <glyph glyph-name="jcircumflex" unicode="&#x135;" horiz-adv-x="544" 
d="M14 -416q-91 0 -192 37l41 256q77 -27 135 -27q71 0 98 42.5t27 136.5v1075h299v-1077q0 -225 -101 -334t-307 -109zM270 1378l-213 -180l-135 154l348 334l344 -334l-129 -154z" />
    <glyph glyph-name="Kcommaaccent" unicode="&#x136;" horiz-adv-x="1325" 
d="M1327 -16h-270q-64 4 -96 8q-97 170 -232 340.5t-270 294.5v-643h-320v1450h320v-588q212 210 477 588h358q-221 -285 -565 -674q154 -146 321 -361t277 -415zM586 -137v61h254q10 -52 10 -69v-43q-2 -67 -25 -118.5t-62 -82t-86 -46.5t-102 -18h-49q-61 7 -90 19v194
q77 0 113.5 22.5t36.5 80.5z" />
    <glyph glyph-name="kcommaaccent" unicode="&#x137;" horiz-adv-x="1110" 
d="M467 -137v61h254q10 -52 10 -69v-43q-2 -67 -25 -118.5t-61.5 -82t-85.5 -46.5t-102 -18h-49q-62 8 -91 19v194q77 0 113.5 22.5t36.5 80.5zM1122 -16h-342q-11 17 -95 154.5t-149 229t-108 119.5v-503h-301v1613h301v-925q224 280 332 432h336q-142 -179 -418 -506
q111 -125 230.5 -291.5t213.5 -322.5z" />
    <glyph glyph-name="kgreenlandic" unicode="&#x138;" horiz-adv-x="1124" 
d="M422 -35h-299v1139h299v-387q243 255 354 387h363q-93 -109 -244.5 -272t-245.5 -252q131 -110 273 -283.5t231 -331.5h-342q-78 123 -183.5 243.5t-205.5 197.5v-441z" />
    <glyph glyph-name="Lacute" unicode="&#x139;" horiz-adv-x="1097" 
d="M956 -16h-819v1446h316v-1203h503v-243zM401 1593h-208l169 414h363z" />
    <glyph glyph-name="lacute" unicode="&#x13a;" horiz-adv-x="698" 
d="M639 121l-51 -150q-138 4 -228.5 30.5t-142 80.5t-72 126t-20.5 179v1210h303v-1132q0 -80 7.5 -134t20.5 -89t41.5 -58t58.5 -35.5t83 -27.5zM383 1755h-209l170 414h363z" />
    <glyph glyph-name="Lcommaaccent" unicode="&#x13b;" horiz-adv-x="1097" 
d="M459 236h551v-252h-871v1450h320v-1198zM518 -137v61h256q8 -62 8 -69q3 -29 0 -43q-2 -67 -25 -118.5t-61.5 -82t-85.5 -46.5t-102 -18h-49q-54 7 -90 19v194q77 0 113 22.5t36 80.5z" />
    <glyph glyph-name="lcommaaccent" unicode="&#x13c;" horiz-adv-x="591" 
d="M205 -137v61h254q10 -52 10 -69v-43q-2 -67 -25 -118.5t-61.5 -82t-85.5 -46.5t-102 -18h-50q-61 7 -90 19v194q77 0 113.5 22.5t36.5 80.5zM639 121l-51 -150q-138 4 -228.5 30.5t-142 80.5t-72 126t-20.5 179v1210h303v-1132q0 -80 7.5 -134t20.5 -89t41.5 -58
t58.5 -35.5t83 -27.5z" />
    <glyph glyph-name="Lcaron" unicode="&#x13d;" horiz-adv-x="1097" 
d="M459 236h551v-252h-871v1450h320v-1198zM584 1456h278l-69 -543h-209v543z" />
    <glyph glyph-name="lcaron" unicode="&#x13e;" horiz-adv-x="878" 
d="M549 1616h278l-69 -545h-209v545zM639 121l-51 -150q-138 4 -228.5 30.5t-142 80.5t-72 126t-20.5 179v1210h303v-1132q0 -80 7.5 -134t20.5 -89t41.5 -58t58.5 -35.5t83 -27.5z" />
    <glyph glyph-name="Ldot" unicode="&#x13f;" horiz-adv-x="1097" 
d="M459 236h551v-252h-871v1450h320v-1198zM858 623q-75 0 -128.5 51t-53.5 133t53.5 133t128.5 51q77 0 130.5 -50.5t53.5 -133.5t-53.5 -133.5t-130.5 -50.5z" />
    <glyph glyph-name="ldot" unicode="&#x140;" horiz-adv-x="698" 
d="M639 121l-51 -150q-138 4 -228.5 30.5t-142 80.5t-72 126t-20.5 179v1210h303v-1132q0 -80 7.5 -134t20.5 -89t41.5 -58t58.5 -35.5t83 -27.5zM276 1720q-71 0 -120.5 47t-49.5 123q0 75 49.5 121.5t120.5 46.5t119.5 -46.5t48.5 -121.5q0 -76 -48.5 -123t-119.5 -47z
" />
    <glyph glyph-name="Lslash" unicode="&#x141;" horiz-adv-x="1146" 
d="M496 932q15 8 99 52t124 63l106 -222l-329 -170v-413h645v-277h-955v537l-123 -62l-108 222l231 116v676h310v-522z" />
    <glyph glyph-name="lslash" unicode="&#x142;" horiz-adv-x="647" 
d="M457 1049l129 65l102 -211l-231 -117v-440q0 -74 34.5 -104.5t133.5 -40.5l-43 -256q-192 6 -287.5 65t-118.5 187q-18 85 -18 213v225q-72 -37 -101 -49l-102 209l203 102v700h299v-548z" />
    <glyph glyph-name="Nacute" unicode="&#x143;" horiz-adv-x="1505" 
d="M1284 -16h-184l-72 8q-213 368 -524 831q-14 21 -34.5 57.5t-33.5 57t-18 20.5q0 -21 2 -138.5t2 -182.5v-653h-287v1446h264q254 -337 525 -762q12 -21 30.5 -53.5t29.5 -50.5t17 -25q0 41 -2 190t-2 227v474h287v-1446zM827 1593h-209l170 414h363z" />
    <glyph glyph-name="nacute" unicode="&#x144;" 
d="M1061 -16h-301v571q0 44 -0.5 66.5t-2 58.5t-5 54.5t-9.5 46t-15.5 41t-24 30.5t-33 24.5t-43.5 13t-56 5.5q-82 0 -145 -18v-893h-303v1054q156 86 463 86q90 0 161 -14.5t120.5 -38.5t85 -63t56.5 -80t33 -98.5t15.5 -109t3.5 -120.5v-616zM682 1257h-209l170 414h363z
" />
    <glyph glyph-name="Ncommaaccent" unicode="&#x145;" horiz-adv-x="1505" 
d="M1311 -16h-185l-71 8q-120 209 -330.5 529t-292.5 409q0 -50 1 -167t1 -181v-598h-295v1450h256q266 -313 523 -705q24 -35 58.5 -93t41.5 -69q0 55 -2 179t-2 190v498h297v-1450zM643 -137v61h256q2 -14 4 -27.5t3.5 -25.5t2.5 -16q0 -33 -2 -43q-2 -67 -25 -118.5
t-61.5 -82t-85.5 -46.5t-102 -18h-49q-54 7 -90 19v194q77 0 113 22.5t36 80.5z" />
    <glyph glyph-name="ncommaaccent" unicode="&#x146;" 
d="M127 -16v1048q164 82 469 82q101 0 178 -16t130.5 -49t89 -76t55.5 -105t28 -128t8 -152v-604h-305v551q0 77 -4.5 128.5t-16.5 95t-33.5 68t-56.5 37.5t-85 13q-93 0 -150 -17v-876h-307zM473 -137v61h254q1 -3 10 -69v-43q-2 -67 -25 -118.5t-61.5 -82t-85.5 -46.5
t-102 -18h-49q-61 7 -90 19v194q77 0 113 22.5t36 80.5z" />
    <glyph glyph-name="Ncaron" unicode="&#x147;" horiz-adv-x="1505" 
d="M1284 -16h-184l-72 8q-213 368 -524 831q-14 21 -34.5 57.5t-33.5 57t-18 20.5q0 -21 2 -138.5t2 -182.5v-653h-287v1446h264q254 -337 525 -762q12 -21 30.5 -53.5t29.5 -50.5t17 -25q0 41 -2 190t-2 227v474h287v-1446zM506 2050l215 -178l213 178l135 -154l-348 -331
l-344 331z" />
    <glyph glyph-name="ncaron" unicode="&#x148;" 
d="M1061 -16h-301v571q0 44 -0.5 66.5t-2 58.5t-5 54.5t-9.5 46t-15.5 41t-24 30.5t-33 24.5t-43.5 13t-56 5.5q-82 0 -145 -18v-893h-303v1054q156 86 463 86q90 0 161 -14.5t120.5 -38.5t85 -63t56.5 -80t33 -98.5t15.5 -109t3.5 -120.5v-616zM360 1714l215 -178l213 178
l136 -153l-349 -332l-344 332z" />
    <glyph glyph-name="napostrophe" unicode="&#x149;" horiz-adv-x="1222" 
d="M162 -16v1048q164 82 469 82q101 0 178 -16t130.5 -49t89 -76t55.5 -105t28 -128t8 -152v-604h-305v551q0 77 -4.5 128.5t-16.5 95t-34.5 68t-57.5 37.5t-86 13q-90 0 -147 -17v-876h-307zM35 1624h258q12 -23 33 -65q-3 -135 -39.5 -239.5t-114.5 -227.5l-215 67
q92 201 92 346q0 62 -14 119z" />
    <glyph glyph-name="Eng" unicode="&#x14a;" horiz-adv-x="1505" 
d="M1061 -10v65q-118 203 -296 461.5t-321 433.5v-985h-305v1489h242q156 -166 349.5 -423.5t330.5 -475.5v899h307v-1458q0 -175 -58 -274t-200 -123q-58 -16 -145 -13q-68 0 -160 31l41 256q77 -27 123 -27q51 0 71.5 34.5t20.5 109.5z" />
    <glyph glyph-name="eng" unicode="&#x14b;" 
d="M778 -35v596q0 165 -44.5 231t-160.5 66q-93 0 -151 -14v-879h-299v1094q236 67 471 67q110 0 193 -25t137.5 -69.5t88.5 -111.5t48 -144.5t14 -175.5v-620q0 -86 -12 -149t-40.5 -114.5t-81.5 -82t-130 -40.5q-58 -9 -125 -6q-65 0 -149 31l38 236q79 -21 113 -21
q49 0 69.5 31t20.5 100z" />
    <glyph glyph-name="Omacron" unicode="&#x14c;" horiz-adv-x="1603" 
d="M1358 707q0 -344 -169.5 -546t-465.5 -202q-294 0 -464.5 202.5t-170.5 545.5q0 341 172 545t463 204q293 0 464 -203.5t171 -545.5zM1036 713q0 105 -18.5 194t-55.5 158t-98 108t-141 39q-79 0 -140 -39.5t-98 -108.5t-56 -158t-19 -193q0 -142 31.5 -251.5t104 -178
t177.5 -68.5q80 0 141.5 39t98.5 108t55 157t18 194zM1061 1649h-676v235h676v-235z" />
    <glyph glyph-name="omacron" unicode="&#x14d;" horiz-adv-x="1220" 
d="M1100 543q0 -262 -137 -423t-375 -161q-236 0 -374 161t-138 423q0 261 139 422t373 161q235 0 373.5 -161t138.5 -422zM795 545q0 160 -51 256t-156 96q-107 0 -158 -96t-51 -256q0 -159 51.5 -253.5t157.5 -94.5q105 0 156 94t51 254zM928 1274h-676v235h676v-235z" />
    <glyph glyph-name="Obreve" unicode="&#x14e;" horiz-adv-x="1603" 
d="M1358 707q0 -344 -169.5 -546t-465.5 -202q-294 0 -464.5 202.5t-170.5 545.5q0 341 172 545t463 204q293 0 464 -203.5t171 -545.5zM1036 713q0 105 -18.5 194t-55.5 158t-98 108t-141 39q-79 0 -140 -39.5t-98 -108.5t-56 -158t-19 -193q0 -142 31.5 -251.5t104 -178
t177.5 -68.5q80 0 141.5 39t98.5 108t55 157t18 194zM723 1610q-160 0 -247.5 98t-84.5 281h221q5 -71 29 -111.5t82 -40.5q101 0 108 152h222q0 -184 -85.5 -281.5t-244.5 -97.5z" />
    <glyph glyph-name="obreve" unicode="&#x14f;" horiz-adv-x="1220" 
d="M1100 543q0 -262 -137 -423t-375 -161q-236 0 -374 161t-138 423q0 261 139 422t373 161q235 0 373.5 -161t138.5 -422zM795 545q0 160 -51 256t-156 96q-107 0 -158 -96t-51 -256q0 -159 51.5 -253.5t157.5 -94.5q105 0 156 94t51 254zM590 1235q-160 0 -247.5 98
t-84.5 281h221q5 -71 29 -111.5t82 -40.5q101 0 108 152h222q0 -184 -85.5 -281.5t-244.5 -97.5z" />
    <glyph glyph-name="Ohungarumlaut" unicode="&#x150;" horiz-adv-x="1603" 
d="M1434 709q0 -175 -49.5 -317t-138 -237.5t-213 -147.5t-273.5 -52q-147 0 -271 52t-213.5 147.5t-139.5 238t-50 316.5q0 173 50.5 315.5t140 238t213.5 147.5t270 52q148 0 272 -52t213 -147.5t139 -237.5t50 -316zM1106 715q0 221 -91.5 356t-254.5 135t-254.5 -135
t-91.5 -356q0 -223 91.5 -358.5t254.5 -135.5t254.5 135.5t91.5 358.5zM752 1991l190 -158l-313 -367l-162 125zM1124 1991l199 -166l-322 -359l-161 125z" />
    <glyph glyph-name="ohungarumlaut" unicode="&#x151;" horiz-adv-x="1220" 
d="M1135 539q0 -261 -145 -420.5t-386 -159.5q-237 0 -382.5 160t-145.5 420q0 258 146.5 418.5t381.5 160.5q237 0 384 -160.5t147 -418.5zM825 541q0 157 -58 247.5t-163 90.5q-103 0 -161 -90.5t-58 -247.5q0 -156 57.5 -246t161.5 -90q105 0 163 89.5t58 246.5z
M551 1686l190 -156l-311 -367l-164 123zM936 1686l199 -164l-322 -359l-162 123z" />
    <glyph glyph-name="OE" unicode="&#x152;" horiz-adv-x="2035" 
d="M1016 233v953q-42 6 -121 6q-245 0 -370.5 -125t-125.5 -356q0 -232 125.5 -358t370.5 -126q38 0 59 1t36.5 2.5t25.5 2.5zM1995 -35h-877q-99 -12 -213 -12q-186 0 -335.5 46.5t-259 138.5t-169 237.5t-59.5 335.5q0 189 59.5 334t169 236.5t259 138t335.5 46.5
q116 0 211 -12h830v-272h-625v-305h551v-269h-551v-370h674v-273z" />
    <glyph glyph-name="oe" unicode="&#x153;" horiz-adv-x="1925" 
d="M606 1130q121 0 220 -51.5t165 -144.5q118 165 312 188q76 9 143 -2q193 -24 301 -166t108 -395q0 -21 -3 -65t-3 -62h-700q18 -91 74.5 -146.5t150.5 -70.5q58 -6 125 0q127 7 246 61l45 -258q-43 -23 -120.5 -43.5t-164.5 -27.5q-91 -6 -166 0q-232 23 -356 184
q-140 -192 -377 -192q-243 0 -390.5 164t-147.5 432q0 267 149.5 431t388.5 164zM848 535q0 152 -63 239.5t-175 87.5q-110 0 -173.5 -88t-63.5 -239t63.5 -239.5t173.5 -88.5q112 0 175 88t63 240zM1147 668h405q-9 94 -58.5 147t-135.5 53t-142 -57t-69 -143z" />
    <glyph glyph-name="Racute" unicode="&#x154;" horiz-adv-x="1339" 
d="M1241 -16h-346q-189 362 -336 575h-110v-575h-312v1402q199 62 420 62q302 0 455 -118.5t153 -344.5q0 -140 -81 -242.5t-214 -138.5v-2q58 -74 133 -197t114 -194t124 -227zM850 979q0 69 -22 119.5t-61 77.5t-82.5 39t-94.5 12q-79 0 -141 -17v-473h141q116 0 188 59.5
t72 182.5zM709 1593h-209l170 414h362z" />
    <glyph glyph-name="racute" unicode="&#x155;" horiz-adv-x="821" 
d="M770 1098q-3 -13 -53 -219q-73 18 -144 18q-89 0 -147 -23v-890h-303v1056q180 77 403 82q115 3 244 -24zM535 1257h-209l170 414h362z" />
    <glyph glyph-name="Rcommaaccent" unicode="&#x156;" horiz-adv-x="1320" 
d="M1208 979q0 -132 -72.5 -229.5t-191.5 -149.5q78 -98 177.5 -273.5t176.5 -342.5h-348q-102 201 -280 493q-16 10 -46.5 33t-45.5 33h-121v-559h-318v1411q191 53 430 53q318 0 478.5 -119.5t160.5 -349.5zM584 1210q-69 0 -127 -8v-465q15 0 48 -1t50 -1q163 0 247.5 53
t84.5 185q0 127 -79 182t-224 55zM573 -137v61h254q11 -57 11 -69v-43q-2 -67 -25 -118.5t-62 -82t-86 -46.5t-102 -18h-49q-61 7 -90 19v194q77 0 113 22.5t36 80.5z" />
    <glyph glyph-name="rcommaaccent" unicode="&#x157;" horiz-adv-x="821" 
d="M561 1114q125 0 246 -33q-26 -120 -51 -223q-58 13 -133 8q-39 11 -56 11q-78 0 -133 -19v-874h-307v1048q192 82 434 82zM143 -137v61h254q4 -23 11 -69v-43q-2 -67 -25 -118.5t-62 -82t-86 -46.5t-102 -18h-49q-61 7 -90 19v194q77 0 113 22.5t36 80.5z" />
    <glyph glyph-name="Rcaron" unicode="&#x158;" horiz-adv-x="1339" 
d="M1241 -16h-346q-189 362 -336 575h-110v-575h-312v1402q199 62 420 62q302 0 455 -118.5t153 -344.5q0 -140 -81 -242.5t-214 -138.5v-2q58 -74 133 -197t114 -194t124 -227zM850 979q0 69 -22 119.5t-61 77.5t-82.5 39t-94.5 12q-79 0 -141 -17v-473h141q116 0 188 59.5
t72 182.5zM387 2050l215 -178l213 178l135 -154l-348 -331l-344 331z" />
    <glyph glyph-name="rcaron" unicode="&#x159;" horiz-adv-x="821" 
d="M561 1114q125 0 246 -33q-26 -120 -51 -223q-58 13 -133 8q-39 11 -56 11q-78 0 -133 -19v-874h-307v1048q192 82 434 82zM272 1640l215 -178l213 178l136 -153l-349 -332l-344 332z" />
    <glyph glyph-name="Sacute" unicode="&#x15a;" horiz-adv-x="1132" 
d="M993 395q0 -200 -139 -318t-377 -118q-273 0 -428 100q14 40 41.5 121t40.5 121q150 -86 315 -86q109 0 165.5 43t56.5 125q0 81 -62.5 128t-222.5 110q-283 128 -303 360q-6 53 0 109q22 166 150.5 266t328.5 100q220 0 385 -96l-84 -227q-132 79 -272 79
q-97 0 -149 -39.5t-52 -115.5q0 -29 7.5 -52.5t27.5 -44.5t38 -35.5t55.5 -33.5t63 -30t76.5 -32q184 -79 261 -179.5t77 -254.5zM604 1593h-209l170 414h363z" />
    <glyph glyph-name="sacute" unicode="&#x15b;" horiz-adv-x="942" 
d="M842 305q0 -158 -118 -252t-323 -94q-112 0 -205.5 24.5t-146.5 55.5l68 227q128 -71 264 -71q72 0 114 28t42 78t-44.5 83.5t-160.5 80.5q-133 58 -193.5 133t-60.5 188q0 151 108 245.5t289 94.5q184 0 330 -71q-43 -136 -68 -215q-111 59 -223 59q-65 0 -102 -27
t-37 -73q0 -49 34 -76t128 -69q22 -10 34 -15q146 -63 208.5 -140t62.5 -194zM524 1257h-209l170 414h363z" />
    <glyph glyph-name="Scircumflex" unicode="&#x15c;" horiz-adv-x="1132" 
d="M993 395q0 -200 -139 -318t-377 -118q-273 0 -428 100q14 40 41.5 121t40.5 121q150 -86 315 -86q109 0 165.5 43t56.5 125q0 81 -62.5 128t-222.5 110q-283 128 -303 360q-6 53 0 109q22 166 150.5 266t328.5 100q220 0 385 -96l-84 -227q-132 79 -272 79
q-97 0 -149 -39.5t-52 -115.5q0 -29 7.5 -52.5t27.5 -44.5t38 -35.5t55.5 -33.5t63 -30t76.5 -32q184 -79 261 -179.5t77 -254.5zM500 1716l-213 -180l-135 154l348 333l344 -333l-129 -154z" />
    <glyph glyph-name="scircumflex" unicode="&#x15d;" horiz-adv-x="942" 
d="M842 305q0 -158 -118 -252t-323 -94q-112 0 -205.5 24.5t-146.5 55.5l68 227q128 -71 264 -71q72 0 114 28t42 78t-44.5 83.5t-160.5 80.5q-133 58 -193.5 133t-60.5 188q0 151 108 245.5t289 94.5q184 0 330 -71q-43 -136 -68 -215q-111 59 -223 59q-65 0 -102 -27
t-37 -73q0 -49 34 -76t128 -69q22 -10 34 -15q146 -63 208.5 -140t62.5 -194zM418 1378l-213 -180l-135 154l348 334l344 -334l-129 -154z" />
    <glyph glyph-name="Scedilla" unicode="&#x15e;" horiz-adv-x="1132" 
d="M672 -51q41 -46 37 -123q53 -53 45 -121q-18 -74 -86 -118t-187 -44q-89 0 -205 35l43 207q96 -29 150 -29q14 0 19 8t1 21q-8 13 -24.5 23t-29 15t-48.5 17q7 23 39 103q-131 9 -233 42.5t-160 71.5l90 262q194 -108 401 -108q127 0 187.5 39t60.5 121q0 31 -8 56
t-29 46.5t-41.5 37t-60.5 33.5t-70 30t-86 32q-75 28 -128 52.5t-109.5 63t-91 82t-56.5 106.5t-22 139q0 205 141 320.5t387 115.5q126 0 242.5 -33t197.5 -82l-98 -256q-170 96 -334 96q-221 0 -221 -143q0 -20 4 -37.5t16.5 -33.5t21.5 -27t33 -25.5t35.5 -21.5t45 -21.5
t46.5 -19.5t54 -21q67 -25 114 -45t97.5 -46.5t84 -53t65 -61.5t49.5 -75t28.5 -91.5t10.5 -112.5q0 -182 -107 -290t-311 -136z" />
    <glyph glyph-name="scedilla" unicode="&#x15f;" horiz-adv-x="942" 
d="M610 -174q53 -72 31 -150q-56 -133 -258 -133q-89 0 -205 35l43 207q96 -29 150 -29q14 0 19 8t1 21q-8 13 -24.5 23t-29 15t-48.5 17q3 10 41 105q-164 11 -289 69l59 260q156 -66 291 -73h74q129 12 129 82q0 41 -38.5 66t-156.5 73q-65 26 -106.5 46t-88.5 51.5
t-73 66.5t-43.5 86t-17.5 114q0 159 115 251.5t315 92.5q182 0 348 -65l-57 -252q-153 59 -281 59q-65 0 -104 -19.5t-39 -59.5q0 -41 37.5 -67.5t138.5 -66.5q95 -36 155.5 -68.5t107 -76t67 -99.5t20.5 -132q0 -135 -83 -219t-235 -111q38 -52 35 -127z" />
    <glyph glyph-name="Scaron" unicode="&#x160;" horiz-adv-x="1132" 
d="M993 395q0 -200 -139 -318t-377 -118q-273 0 -428 100q14 40 41.5 121t40.5 121q150 -86 315 -86q109 0 165.5 43t56.5 125q0 81 -62.5 128t-222.5 110q-283 128 -303 360q-6 53 0 109q22 166 150.5 266t328.5 100q220 0 385 -96l-84 -227q-132 79 -272 79
q-97 0 -149 -39.5t-52 -115.5q0 -29 7.5 -52.5t27.5 -44.5t38 -35.5t55.5 -33.5t63 -30t76.5 -32q184 -79 261 -179.5t77 -254.5zM285 2050l215 -178l213 178l135 -154l-348 -331l-344 331z" />
    <glyph glyph-name="scaron" unicode="&#x161;" horiz-adv-x="942" 
d="M842 305q0 -158 -118 -252t-323 -94q-112 0 -205.5 24.5t-146.5 55.5l68 227q128 -71 264 -71q72 0 114 28t42 78t-44.5 83.5t-160.5 80.5q-133 58 -193.5 133t-60.5 188q0 151 108 245.5t289 94.5q184 0 330 -71q-43 -136 -68 -215q-111 59 -223 59q-65 0 -102 -27
t-37 -73q0 -49 34 -76t128 -69q22 -10 34 -15q146 -63 208.5 -140t62.5 -194zM203 1714l215 -178l213 178l135 -153l-348 -332l-344 332z" />
    <glyph glyph-name="uni0162" unicode="&#x162;" horiz-adv-x="1198" 
d="M735 -174q54 -60 43 -131q-24 -69 -89.5 -110.5t-178.5 -41.5q-90 0 -205 35l43 207q90 -29 148 -29q28 0 22 29q-10 17 -30 27t-62 24q-8 3 -12 4q31 85 51 125h-21v1215h-440v274h1190v-274h-440v-1215h-56q44 -52 37 -139z" />
    <glyph glyph-name="uni0163" unicode="&#x163;" horiz-adv-x="858" 
d="M668 -174q52 -71 30 -150q-56 -133 -256 -133q-90 0 -206 35l43 207q62 -18 116 -25q58 -3 70 23q-5 16 -39 33l-78 24q3 15 45 119q-84 19 -139.5 59t-85.5 106t-41.5 143t-11.5 188v938h297v-289h391v-260h-391v-426q0 -105 31 -153.5t100 -53.5q24 -3 55 0
q93 5 203 53l51 -248q-102 -54 -221 -65q41 -48 37 -125z" />
    <glyph glyph-name="Tcaron" unicode="&#x164;" horiz-adv-x="1198" 
d="M1036 1186h-344v-1202h-313v1202h-344v244h1001v-244zM315 2050l215 -178l213 178l136 -154l-349 -331l-344 331z" />
    <glyph glyph-name="tcaron" unicode="&#x165;" horiz-adv-x="958" 
d="M446 1425v-331h330v-240h-330v-430q0 -125 34.5 -172t111.5 -47q97 0 186 47q11 -87 33 -229q-112 -57 -246 -62q-82 -3 -146.5 10.5t-109 38.5t-76.5 68t-50 87t-28 107.5t-13 119t-3 130.5h-30v273l30 239v330zM549 1686h276l-73 -463h-203v463z" />
    <glyph glyph-name="Tbar" unicode="&#x166;" horiz-adv-x="1198" 
d="M4 1454h1190v-274h-440v-369h272v-244h-272v-602h-310v602h-272v244h272v369h-440v274z" />
    <glyph glyph-name="tbar" unicode="&#x167;" horiz-adv-x="858" 
d="M412 1436v-332h391v-260h-391v-172h387v-223h-387q7 -95 61 -115q8 -74 41 -99.5t94 -23.5q86 7 193 53l51 -250q-150 -71 -313 -71q-122 0 -206 31.5t-131 95t-67 148t-20 202.5v966z" />
    <glyph glyph-name="Utilde" unicode="&#x168;" horiz-adv-x="1423" 
d="M1202 473q0 -234 -140.5 -375t-397.5 -141q-225 0 -363 113t-162 305q-10 105 -10 196v859h313v-812q0 -214 48.5 -307.5t181.5 -93.5q95 0 154.5 56t66.5 169q6 82 6 179v809h303v-957zM795 1575q-57 0 -144 38t-116 38q-27 0 -50 -28.5t-47 -78.5l-174 109
q16 40 38.5 77.5t54.5 75.5t77 61t94 23q60 0 144.5 -37.5t113.5 -37.5q26 0 49 27.5t50 78.5l176 -113q-130 -233 -266 -233z" />
    <glyph glyph-name="utilde" unicode="&#x169;" 
d="M1049 51q-141 -90 -463 -90q-131 0 -223 33t-145.5 98.5t-77 152.5t-23.5 204v655h303v-567q0 -61 1.5 -98t7 -81.5t17 -69.5t31 -48t50.5 -33t73 -10q88 0 145 22v885h304v-1053zM715 1239q-57 0 -144 38t-116 38q-27 0 -50 -28.5t-47 -78.5l-174 109q16 40 38.5 77.5
t55 75.5t77.5 61t94 23q60 0 144.5 -37.5t113.5 -37.5q26 0 48.5 27.5t49.5 78.5l176 -112q-130 -234 -266 -234z" />
    <glyph glyph-name="Umacron" unicode="&#x16a;" horiz-adv-x="1423" 
d="M1202 473q0 -234 -140.5 -375t-397.5 -141q-225 0 -363 113t-162 305q-10 105 -10 196v859h313v-812q0 -214 48.5 -307.5t181.5 -93.5q95 0 154.5 56t66.5 169q6 82 6 179v809h303v-957zM1014 1610h-676v235h676v-235z" />
    <glyph glyph-name="umacron" unicode="&#x16b;" 
d="M1049 51q-141 -90 -463 -90q-131 0 -223 33t-145.5 98.5t-77 152.5t-23.5 204v655h303v-567q0 -61 1.5 -98t7 -81.5t17 -69.5t31 -48t50.5 -33t73 -10q88 0 145 22v885h304v-1053zM934 1274h-676v235h676v-235z" />
    <glyph glyph-name="Ubreve" unicode="&#x16c;" horiz-adv-x="1423" 
d="M1202 473q0 -234 -140.5 -375t-397.5 -141q-225 0 -363 113t-162 305q-10 105 -10 196v859h313v-812q0 -214 48.5 -307.5t181.5 -93.5q95 0 154.5 56t66.5 169q6 82 6 179v809h303v-957zM676 1571q-160 0 -247.5 98t-84.5 281h221q5 -71 29 -111.5t82 -40.5
q101 0 108 152h222q0 -184 -85.5 -281.5t-244.5 -97.5z" />
    <glyph glyph-name="ubreve" unicode="&#x16d;" 
d="M1049 51q-141 -90 -463 -90q-131 0 -223 33t-145.5 98.5t-77 152.5t-23.5 204v655h303v-567q0 -61 1.5 -98t7 -81.5t17 -69.5t31 -48t50.5 -33t73 -10q88 0 145 22v885h304v-1053zM596 1235q-160 0 -247.5 98t-84.5 281h221q5 -71 29 -111.5t82 -40.5q102 0 109 152h221
q0 -184 -85.5 -281.5t-244.5 -97.5z" />
    <glyph glyph-name="Uring" unicode="&#x16e;" horiz-adv-x="1423" 
d="M1202 473q0 -234 -140.5 -375t-397.5 -141q-225 0 -363 113t-162 305q-10 105 -10 196v859h313v-812q0 -214 48.5 -307.5t181.5 -93.5q95 0 154.5 56t66.5 169q6 82 6 179v809h303v-957zM930 1800q0 -117 -73.5 -185.5t-182.5 -68.5q-106 0 -181 68.5t-75 185.5
q0 115 75 183.5t181 68.5q109 0 182.5 -68t73.5 -184zM743 1800q0 33 -20 52.5t-49 19.5q-30 0 -50 -19.5t-20 -52.5q0 -34 20 -54t50 -20q29 0 49 20t20 54z" />
    <glyph glyph-name="uring" unicode="&#x16f;" 
d="M1049 51q-141 -90 -463 -90q-131 0 -223 33t-145.5 98.5t-77 152.5t-23.5 204v655h303v-567q0 -61 1.5 -98t7 -81.5t17 -69.5t31 -48t50.5 -33t73 -10q88 0 145 22v885h304v-1053zM852 1462q0 -117 -73.5 -185.5t-182.5 -68.5q-106 0 -181 68.5t-75 185.5q0 115 75 183.5
t181 68.5q109 0 182.5 -68t73.5 -184zM666 1462q0 33 -20.5 52.5t-49.5 19.5q-30 0 -50 -19.5t-20 -52.5q0 -34 20 -53.5t50 -19.5q29 0 49.5 19.5t20.5 53.5z" />
    <glyph glyph-name="Uhungarumlaut" unicode="&#x170;" horiz-adv-x="1423" 
d="M1202 473q0 -234 -140.5 -375t-397.5 -141q-225 0 -363 113t-162 305q-10 105 -10 196v859h313v-812q0 -214 48.5 -307.5t181.5 -93.5q95 0 154.5 56t66.5 169q6 82 6 179v809h303v-957zM739 1614l285 401l199 -166l-322 -360zM817 1855l-311 -366l-162 125l285 401z" />
    <glyph glyph-name="uhungarumlaut" unicode="&#x171;" 
d="M1049 51q-141 -90 -463 -90q-131 0 -223 33t-145.5 98.5t-77 152.5t-23.5 204v655h303v-567q0 -61 1.5 -98t7 -81.5t17 -69.5t31 -48t50.5 -33t73 -10q88 0 145 22v885h304v-1053zM602 1323l285 401l198 -165l-321 -361zM680 1565l-311 -367l-162 125l285 401z" />
    <glyph glyph-name="Uogonek" unicode="&#x172;" horiz-adv-x="1423" 
d="M647 -57q-49 6 -94 18q-219 37 -323.5 188t-104.5 383v922h309v-899q0 -174 74 -257t203 -83q131 0 205.5 83.5t74.5 256.5v899h307v-922q0 -369 -249 -516q-76 -44 -141 -101.5t-70 -100.5q7 -33 63 -27q25 2 96 23l25 -226q-88 -39 -199 -39q-266 0 -266 201
q0 100 90 197z" />
    <glyph glyph-name="uogonek" unicode="&#x173;" 
d="M711 -47q-77 -10 -115 -10q-136 0 -231.5 37.5t-149.5 110t-78 165t-24 215.5v633h297v-592q0 -165 45.5 -233t158.5 -68q77 0 152 12v881h299v-1092q-3 -2 -72 -61q1 1 4 3t4 3q-6 -6 -25 -24t-31 -30.5t-26.5 -29t-23 -30.5t-10.5 -25q6 -32 63 -29q51 9 96 25l27 -228
q-98 -39 -201 -39q-223 0 -256 146q-9 49 0 98q16 77 97 162z" />
    <glyph glyph-name="Wcircumflex" unicode="&#x174;" horiz-adv-x="1916" 
d="M1788 1430q-162 -790 -344 -1446h-281q-125 401 -217 723q-9 30 -21.5 83.5t-17.5 67.5q-4 -11 -9.5 -34t-13.5 -58t-14 -59q-92 -322 -217 -723h-278q-168 585 -344 1446h319q73 -415 150 -799l45 -215q4 5 11.5 32.5t19.5 72.5t18 67q99 357 203 762h241
q135 -528 201 -754q42 -164 47 -178q4 8 8 29t10.5 58t10.5 58q72 339 170 867h303zM911 1716l-213 -180l-135 154l348 333l344 -333l-129 -154z" />
    <glyph glyph-name="wcircumflex" unicode="&#x175;" horiz-adv-x="1597" 
d="M1604 1104q-172 -636 -342 -1120h-258q-130 422 -166 553q-6 22 -11.5 52.5t-10 50.5t-7.5 28q-101 -388 -193 -684h-260q-174 497 -340 1120h310q54 -264 149 -623q5 -24 11 -57t10 -51t8 -25l20 82q28 116 90 345.5t86 328.5h242q27 -125 87 -353.5t81 -316.5
q17 -79 20 -86q4 2 8 21t11 54t12 56q80 290 154 625h289zM809 1378l-213 -180l-135 154l348 334l344 -334l-129 -154z" />
    <glyph glyph-name="Ycircumflex" unicode="&#x176;" horiz-adv-x="1271" 
d="M1194 1430q-227 -458 -451 -857v-589h-311v587q-204 366 -450 859h346q127 -299 270 -576q146 287 274 576h322zM600 1716l-213 -180l-135 154l348 333l344 -333l-129 -154z" />
    <glyph glyph-name="ycircumflex" unicode="&#x177;" horiz-adv-x="1105" 
d="M1071 1104q-193 -670 -414 -1264q-51 -120 -115 -172.5t-171 -52.5q-18 0 -37.5 2t-35 4.5t-35 7t-31.5 8t-31 10t-27 9.5t-26 10t-21 8l61 201q78 -37 115 -37q16 0 29.5 5t24.5 17.5t18 21t15 30.5t11 30t10.5 34t8.5 30q-222 542 -389 1098h319q70 -296 170 -610
q44 -169 47 -175q4 7 11 32.5t17.5 72.5t16.5 70q69 232 164 610h295zM555 1378l-213 -180l-135 154l348 334l344 -334l-129 -154z" />
    <glyph glyph-name="Ydieresis" unicode="&#x178;" horiz-adv-x="1271" 
d="M1194 1430q-227 -458 -451 -857v-589h-311v587q-204 366 -450 859h346q127 -299 270 -576q146 287 274 576h322zM532 1763q0 -75 -47 -120.5t-116 -45.5t-116.5 45.5t-47.5 120.5q0 73 47.5 118.5t116.5 45.5t116 -45.5t47 -118.5zM989 1763q0 -74 -48 -120t-118 -46
q-68 0 -116 46t-48 120q0 73 48 118.5t116 45.5q70 0 118 -45.5t48 -118.5z" />
    <glyph glyph-name="Zacute" unicode="&#x179;" horiz-adv-x="1204" 
d="M1028 -16h-991v211q63 139 163.5 313.5t228.5 381t181 298.5h-532v242h944v-185q-46 -96 -157 -278t-234.5 -388t-196.5 -354h594v-241zM672 1593h-209l170 414h362z" />
    <glyph glyph-name="zacute" unicode="&#x17a;" horiz-adv-x="983" 
d="M885 -16h-840v184q65 117 228.5 373t209.5 333h-405v230h796v-166l-112 -170q-222 -329 -348 -557h471v-227zM596 1257h-209l170 414h363z" />
    <glyph glyph-name="Zdotaccent" unicode="&#x17b;" horiz-adv-x="1204" 
d="M1028 -16h-991v211q63 139 163.5 313.5t228.5 381t181 298.5h-532v242h944v-185q-46 -96 -157 -278t-234.5 -388t-196.5 -354h594v-241zM563 1559q-71 0 -120.5 47t-49.5 123q0 75 49.5 121t120.5 46t119.5 -46t48.5 -121q0 -76 -48.5 -123t-119.5 -47z" />
    <glyph glyph-name="zdotaccent" unicode="&#x17c;" horiz-adv-x="983" 
d="M885 -16h-840v184q65 117 228.5 373t209.5 333h-405v230h796v-166l-112 -170q-222 -329 -348 -557h471v-227zM487 1223q-71 0 -120.5 47t-49.5 123q0 75 49.5 121.5t120.5 46.5t119.5 -46.5t48.5 -121.5q0 -76 -48.5 -123t-119.5 -47z" />
    <glyph glyph-name="Zcaron" unicode="&#x17d;" horiz-adv-x="1204" 
d="M1028 -16h-991v211q63 139 163.5 313.5t228.5 381t181 298.5h-532v242h944v-185q-46 -96 -157 -278t-234.5 -388t-196.5 -354h594v-241zM350 2050l215 -178l213 178l135 -154l-348 -331l-344 331z" />
    <glyph glyph-name="zcaron" unicode="&#x17e;" horiz-adv-x="983" 
d="M885 -16h-840v184q65 117 228.5 373t209.5 333h-405v230h796v-166l-112 -170q-222 -329 -348 -557h471v-227zM274 1714l215 -178l213 178l136 -153l-349 -332l-344 332z" />
    <glyph glyph-name="longs" unicode="&#x17f;" horiz-adv-x="600" 
d="M422 1147v-1182h-299v1186q0 227 118.5 350t348.5 123q154 0 284 -59l-61 -256q-104 49 -203 49q-101 0 -144.5 -51.5t-43.5 -159.5z" />
    <glyph glyph-name="uni0180" unicode="&#x180;" horiz-adv-x="1218" 
d="M422 1630v-192h338v-224h-338v-153q100 49 221 49q239 0 373.5 -161.5t134.5 -422.5q0 -268 -156 -426.5t-422 -158.5q-238 0 -450 67v1206h-143v224h143v143zM422 793v-572q51 -14 149 -14q127 0 201 87t74 236q0 145 -58.5 229.5t-183.5 84.5q-100 0 -182 -51z" />
    <glyph glyph-name="uni0181" unicode="&#x181;" horiz-adv-x="1570" 
d="M780 1468q586 0 643 -333q12 -72 0 -148q-21 -140 -141 -217q113 -48 168 -134t55 -220q0 -465 -684 -465q-250 0 -448 45v1182q-107 -12 -107 -115q0 -37 17 -111l-254 -32q-29 109 -29 170q0 57 14.5 105.5t39.5 84.5t64.5 64.5t81 48t99 33.5t109.5 22t120.5 12.5
t124 6t127.5 1.5zM885 610h-209v-385q74 -8 153 -8q80 0 141.5 9.5t113 32t79 63.5t27.5 100q0 104 -76.5 146t-228.5 42zM834 1202q-124 0 -158 -4v-330h133q63 0 108 3.5t87 14t67.5 29t41 49.5t15.5 74q0 87 -75.5 125.5t-218.5 38.5z" />
    <glyph glyph-name="uni0182" unicode="&#x182;" horiz-adv-x="1296" 
d="M535 659h-95v-426q52 -6 135 -6q347 0 347 213q0 53 -17.5 92t-49 63t-81.5 38.5t-106.5 20t-132.5 5.5zM440 930h109q338 0 513 -116t175 -372q0 -245 -171.5 -367t-502.5 -122q-229 0 -424 49v1452h967v-274h-666v-250z" />
    <glyph glyph-name="uni0183" unicode="&#x183;" horiz-adv-x="1218" 
d="M422 1352v-289q100 49 221 49q240 0 374 -160.5t134 -425.5q0 -268 -156 -426.5t-422 -158.5q-238 0 -450 67v1604h915v-260h-616zM422 795v-574q51 -14 149 -14q129 0 202 86.5t73 238.5q0 145 -58.5 229.5t-183.5 84.5q-100 0 -182 -51z" />
    <glyph glyph-name="uni0184" unicode="&#x184;" horiz-adv-x="1218" 
d="M422 1634v-557q100 49 221 49q240 0 374 -161.5t134 -429.5q0 -274 -155.5 -434t-422.5 -160q-238 0 -450 67v1245l-176 187q230 131 475 194zM422 807v-586q51 -14 149 -14q129 0 202 88.5t73 243.5q0 150 -58.5 235.5t-183.5 85.5q-104 0 -182 -53z" />
    <glyph glyph-name="uni0185" unicode="&#x185;" horiz-adv-x="1280" 
d="M557 674q-73 0 -113 -6v-437q92 -8 170 -6q69 2 122 14t97 37t67.5 68.5t23.5 104.5q0 85 -49.5 136.5t-127 70t-190.5 18.5zM444 1481v-543q41 6 111 6q684 0 684 -495q0 -496 -674 -496q-227 0 -422 49v1096l-178 188q235 130 479 195z" />
    <glyph glyph-name="uni0186" unicode="&#x186;" horiz-adv-x="1288" 
d="M473 217q195 0 305.5 128t110.5 364q0 228 -105.5 361.5t-312.5 133.5q-198 0 -377 -94l-86 260q75 46 204 80.5t282 34.5q334 0 524 -202.5t190 -571.5q0 -182 -55 -329.5t-152.5 -244t-231 -148.5t-292.5 -52q-103 0 -208 24.5t-158 46.5t-93 45l93 260
q180 -96 362 -96z" />
    <glyph glyph-name="uni0187" unicode="&#x187;" horiz-adv-x="1398" 
d="M817 1204q-192 0 -306 -128.5t-114 -362.5q0 -228 106 -362t314 -134q190 0 379 92l88 -258q-72 -45 -202.5 -79.5t-286.5 -34.5q-334 0 -525.5 203t-191.5 571q0 181 57 329t156.5 244.5t231.5 148.5t284 52q128 0 223 -31q39 98 111 143t184 45q107 0 207 -51l-72 -243
q-76 32 -119 32q-46 0 -70.5 -26t-41.5 -78l-51 -168q-187 96 -361 96z" />
    <glyph glyph-name="uni0188" unicode="&#x188;" horiz-adv-x="1069" 
d="M733 1122q35 86 92 130t144 53q48 3 92 -2q82 -9 143 -39l-67 -238q-65 33 -113 33q-21 0 -39 -8.5t-30.5 -25.5t-21.5 -34.5t-16.5 -45t-11.5 -46t-9.5 -48t-8.5 -42.5q-135 53 -242 53q-133 0 -202.5 -87t-69.5 -243q0 -323 291 -323q129 0 258 61l51 -260
q-62 -30 -153 -49.5t-183 -19.5q-143 0 -253 44t-178.5 123.5t-103 186.5t-34.5 237q0 171 66 305.5t194 213.5t299 79q65 0 106 -8z" />
    <glyph glyph-name="uni0189" unicode="&#x189;" horiz-adv-x="1503" 
d="M1423 711q0 -250 -104.5 -422.5t-289.5 -255t-439 -82.5q-239 0 -426 43v620h-166v250h166v561q208 43 430 43q189 0 339.5 -45t260.5 -136t169.5 -237t59.5 -339zM473 614v-383q1 0 44 -3t89 -3q246 0 373 128t127 358q0 233 -124 358t-372 125q-46 0 -90 -3t-47 -3
v-324h262v-250h-262z" />
    <glyph glyph-name="uni018A" unicode="&#x18a;" horiz-adv-x="1712" 
d="M803 1468q150 0 276 -28t229 -87.5t174.5 -148t110.5 -213.5t39 -280q0 -250 -104.5 -422.5t-290 -255t-440.5 -82.5q-229 0 -424 43v1184q-107 -12 -107 -115q0 -37 17 -111l-254 -32q-29 109 -29 170q0 76 27 135.5t67 99t108.5 67.5t130 42.5t153.5 22.5t156.5 9.5
t160.5 1.5zM815 1194q-100 0 -135 -2v-961q3 0 45.5 -3t87.5 -3q247 0 374.5 128t127.5 358q0 233 -125.5 358t-374.5 125z" />
    <glyph glyph-name="uni018B" unicode="&#x18b;" horiz-adv-x="1296" 
d="M858 659h-57q-87 0 -145.5 -4t-116 -17t-90.5 -36.5t-53.5 -64t-20.5 -97.5q0 -202 303 -213q105 -4 180 4v428zM748 930h110v250h-668v274h969v-1452q-203 -51 -426 -51q-330 0 -501 123t-171 368q0 258 174 373t513 115z" />
    <glyph glyph-name="uni018C" unicode="&#x18c;" horiz-adv-x="1218" 
d="M797 1063v289h-617v260h916v-1604q-216 -67 -451 -67q-266 0 -421.5 158.5t-155.5 426.5q0 265 133.5 425.5t373.5 160.5q122 0 222 -49zM797 221v574q-86 51 -185 51q-123 0 -181 -84.5t-58 -229.5q0 -152 72.5 -238.5t201.5 -86.5q99 0 150 14z" />
    <glyph glyph-name="uni018D" unicode="&#x18d;" horiz-adv-x="1196" 
d="M1133 606q0 -147 -81.5 -274t-215.5 -201q57 -41 86 -86t36 -111q8 -49 -2 -110q-13 -81 -72 -136t-146.5 -79.5t-200.5 -24.5q-202 0 -379 72l67 248q118 -51 244 -58q59 -6 111 0q88 12 88 54q0 37 -38.5 64.5t-137.5 75.5q-2 1 -3.5 1.5t-3.5 1.5q-81 42 -139 78.5
t-115 86t-91.5 103t-55.5 124.5t-21 155q0 154 60 274.5t183 193t292 72.5q128 0 231 -41.5t168.5 -113.5t100.5 -166.5t35 -202.5zM612 283q95 46 155 129.5t60 183.5q0 119 -58 192.5t-171 73.5q-109 0 -170 -70t-61 -198q0 -61 18.5 -109.5t56.5 -85.5t75 -61.5t95 -54.5
z" />
    <glyph glyph-name="uni018E" unicode="&#x18e;" horiz-adv-x="1196" 
d="M1057 -35h-1016v273h707v370h-584v269h584v305h-658v272h967v-1489z" />
    <glyph glyph-name="uni018F" unicode="&#x18f;" horiz-adv-x="1462" 
d="M1049 547h-648q12 -155 90.5 -245.5t215.5 -90.5q80 0 143 28t103 76.5t63.5 106t32.5 125.5zM94 813h963q-36 393 -418 393q-105 0 -212.5 -31.5t-178.5 -72.5l-88 254q77 47 208 88t283 41q238 0 405 -97t247.5 -268t80.5 -403q0 -191 -52 -341.5t-144.5 -245.5
t-215.5 -144t-270 -49q-294 0 -459 190t-165 555q0 57 16 131z" />
    <glyph glyph-name="uni0190" unicode="&#x190;" horiz-adv-x="1202" 
d="M672 1210q-155 0 -191 -73q-17 -48 4 -81t72 -59q0 -63 51.5 -91.5t120.5 -28.5h209v-267h-184q-85 0 -147.5 -9t-115 -30.5t-79.5 -63.5t-27 -104q0 -168 252 -188q63 -3 119 2q169 14 334 98l96 -256q-89 -50 -225 -87.5t-277 -37.5q-294 0 -455 112.5t-161 350.5
q0 265 254 369q-80 42 -127 108.5t-58 143.5q-9 58 0 117q24 172 167 261t366 89q135 0 257 -35t210 -92l-105 -256q-170 108 -360 108z" />
    <glyph glyph-name="uni0191" unicode="&#x191;" horiz-adv-x="1126" 
d="M446 592v-467q0 -72 -3.5 -128.5t-13.5 -115t-27 -101.5t-45 -82t-67 -63.5t-94 -38.5t-124 -14q-85 0 -189 35l41 256q77 -27 123 -27q26 0 43.5 10t27 24.5t14.5 45.5t6 58.5t1 78.5v1391h957v-272h-650v-318h578v-272h-578z" />
    <glyph glyph-name="florin" unicode="&#x192;" horiz-adv-x="823" 
d="M422 844v-760q0 -239 -82.5 -358t-269.5 -136q-44 -6 -115 0q-73 7 -133 31l41 256q77 -27 135 -27q71 0 98 42.5t27 136.5v1067q0 66 6 127q19 196 134.5 298.5t326.5 102.5q154 0 284 -59l-61 -256q-104 49 -203 49q-112 0 -150 -58.5t-38 -195.5h397v-260h-397z" />
    <glyph glyph-name="uni0193" unicode="&#x193;" horiz-adv-x="1433" 
d="M805 1485q122 0 244 -33q39 104 108.5 146t188.5 42q110 0 206 -49l-71 -243q-76 32 -121 32q-44 0 -70.5 -27t-42.5 -79l2 2q-4 -14 -13 -41.5t-13 -42.5l-62 -66q-144 80 -327 80q-209 0 -323 -129.5t-114 -365.5q0 -230 107.5 -364t310.5 -134q114 0 172 16v521h309
v-730q-74 -30 -207.5 -55.5t-295.5 -25.5q-158 0 -289.5 51.5t-226 148.5t-147 243.5t-52.5 328.5q0 181 57 329t156 244.5t231 148.5t283 52z" />
    <glyph glyph-name="uni0194" unicode="&#x194;" horiz-adv-x="1388" 
d="M694 121q-73 -126 -73 -197q0 -34 18.5 -56t54.5 -22q38 0 57 22t19 56q0 76 -76 197zM868 342l31 -49h-2q78 -129 114 -216.5t36 -168.5q0 -63 -21 -119.5t-62 -102t-110 -72t-158 -26.5t-158 27t-110 72.5t-62 101.5t-22 119q0 81 37.5 172.5t114.5 214.5l-2 -2l28 45
q-244 436 -557 1116h340q200 -460 393 -836q187 354 392 836h333q-235 -538 -555 -1112z" />
    <glyph glyph-name="uni0195" unicode="&#x195;" horiz-adv-x="1806" 
d="M1053 600v-115q0 -150 39.5 -213t132.5 -63q92 0 132 63.5t40 212.5v619h299v-645q0 -258 -112 -388t-359 -130q-246 0 -358.5 130.5t-112.5 387.5v100q0 168 -37 233.5t-144 65.5q-82 0 -151 -24v-869h-299v1616l299 49v-532q92 28 178 28q107 0 187 -25.5t130.5 -69.5
t81 -112t42.5 -144t12 -175z" />
    <glyph glyph-name="uni0196" unicode="&#x196;" horiz-adv-x="825" 
d="M137 391v1063h309v-1061q0 -104 34 -145t112 -41q85 0 184 39l53 -254q-134 -55 -272 -55q-229 0 -324.5 110t-95.5 344z" />
    <glyph glyph-name="uni0197" unicode="&#x197;" horiz-adv-x="692" 
d="M502 -35h-309v649h-203v244h203v596h309v-596h200v-244h-200v-649z" />
    <glyph glyph-name="uni0198" unicode="&#x198;" horiz-adv-x="1382" 
d="M772 1294q43 47 68.5 71.5t69.5 56.5t94 46.5t110 14.5q85 0 148 -32t135 -101l-144 -222q-78 78 -133 78q-32 0 -59.5 -18t-67.5 -60q-124 -130 -319 -360q173 -130 366.5 -355t325.5 -448h-342q-27 29 -156.5 181.5t-229 255t-192.5 169.5v-606h-307v1489h307v-534
q162 196 263 303z" />
    <glyph glyph-name="uni0199" unicode="&#x199;" horiz-adv-x="1110" 
d="M123 -35v1264q0 100 17 170t57.5 122t111.5 77.5t176 25.5q90 0 179 -35l-41 -235q-68 22 -111 22q-25 0 -41.5 -8.5t-26.5 -21.5t-14.5 -39.5t-6 -52.5t-1.5 -70v-453q197 204 344 373h364q-279 -310 -481 -512q122 -105 264 -287.5t228 -339.5h-342q-74 121 -178 246.5
t-199 206.5v-453h-299z" />
    <glyph glyph-name="uni019A" unicode="&#x19a;" horiz-adv-x="628" 
d="M621 201l-43 -256q-193 6 -289 65t-119 187q-16 76 -16 188v324h-162v225h162v647l299 49v-696h186v-225h-186v-363q0 -74 34 -104.5t134 -40.5z" />
    <glyph glyph-name="uni019B" unicode="&#x19b;" horiz-adv-x="1071" 
d="M555 719q-163 -357 -264 -754h-307q70 254 179 531t226 508q4 78 4 108q-178 -65 -221 -78l-74 203q13 4 45 16t50 17q-30 83 -56.5 129t-66.5 78q-43 50 -50 61q82 58 154 78q16 8 55 8q123 0 207 -54.5t146 -158.5q95 33 256 90l75 -207l-237 -84q228 -552 418 -1245
h-316q-111 448 -223 754z" />
    <glyph glyph-name="uni019C" unicode="&#x19c;" horiz-adv-x="1996" 
d="M1008 49q-188 -112 -373 -112q-123 0 -214 29.5t-147 80t-90 129t-46.5 164t-12.5 197.5v917h309v-864q0 -207 45 -292t174 -85q110 0 211 70q-28 109 -28 258v913h309v-874q0 -199 46 -283t173 -84q92 0 184 18v1223h310v-1442q-103 -30 -241 -52.5t-269 -22.5
q-216 0 -340 112z" />
    <glyph glyph-name="uni019D" unicode="&#x19d;" horiz-adv-x="1505" 
d="M444 952v-864q0 -98 -8 -169t-31.5 -138t-64.5 -108.5t-108 -66t-160 -24.5q-85 0 -189 35l41 256q77 -27 123 -27q50 0 71 35t21 109v1464h242q156 -166 349.5 -423.5t330.5 -475.5v899h307v-1489h-238q-20 28 -65 80q-129 222 -301 474t-320 433z" />
    <glyph glyph-name="uni019E" unicode="&#x19e;" horiz-adv-x="1216" 
d="M123 -35v1067q53 46 177.5 70t293.5 24q110 0 193 -25t137.5 -69.5t88.5 -111.5t48 -144.5t14 -175.5v-1014h-297v975q0 163 -44.5 230t-160.5 67q-93 0 -151 -14v-879h-299z" />
    <glyph glyph-name="uni019F" unicode="&#x19f;" horiz-adv-x="1603" 
d="M1524 711q0 -186 -56 -335t-154.5 -244t-229 -145t-283.5 -50q-150 0 -280 50t-229.5 145t-156.5 244t-57 335q0 185 58.5 334.5t158.5 244t229.5 145t276.5 50.5q150 0 280.5 -50.5t229.5 -145.5t156 -244t57 -334zM801 217q159 0 263.5 100.5t127.5 274.5h-782
q23 -175 127 -275t264 -100zM801 1204q-159 0 -261 -96.5t-128 -267.5h778q-25 171 -127 267.5t-262 96.5z" />
    <glyph glyph-name="Ohorn" unicode="&#x1a0;" horiz-adv-x="1603" 
d="M1524 711q0 -186 -56 -335t-154.5 -244t-229 -145t-283.5 -50q-150 0 -280 50t-229.5 145t-156.5 244t-57 335q0 185 58.5 334.5t158.5 244t229.5 145t276.5 50.5q220 0 379 -105q53 66 53 172q0 21 -8 121h284q11 -70 11 -121q0 -220 -138 -350q142 -197 142 -491z
M1206 711q0 228 -108.5 360.5t-296.5 132.5q-187 0 -295.5 -133.5t-108.5 -359.5q0 -227 108.5 -360.5t295.5 -133.5q188 0 296.5 133.5t108.5 360.5z" />
    <glyph glyph-name="ohorn" unicode="&#x1a1;" horiz-adv-x="1224" 
d="M1153 535q0 -267 -149.5 -431.5t-393.5 -164.5q-242 0 -392 164.5t-150 431.5q0 266 152.5 430.5t389.5 164.5q168 0 299 -94q54 68 54 168q0 30 -9 119h267q12 -59 12 -92q2 -30 -2 -80q-9 -170 -148 -303q70 -137 70 -313zM848 535q0 152 -63 239.5t-175 87.5
q-110 0 -173.5 -88t-63.5 -239t63.5 -239.5t173.5 -88.5q112 0 175 88t63 240z" />
    <glyph glyph-name="uni01A2" unicode="&#x1a2;" horiz-adv-x="2134" 
d="M774 1485q232 0 402 -125q174 125 354 125q116 0 200 -28t135 -75.5t81 -124.5t40.5 -160t10.5 -196v-936h-309v928q0 175 -40 244t-143 69q-65 0 -147 -53q112 -179 112 -442q0 -186 -55 -335t-151 -244t-221 -145t-269 -50q-112 0 -214 31t-190 95t-153 154.5
t-102 217.5t-37 276q0 184 58 334t155.5 244.5t221.5 145t261 50.5zM774 217q172 0 275.5 134.5t103.5 359.5q0 226 -103.5 359.5t-275.5 133.5q-171 0 -274 -134t-103 -359t103 -359.5t274 -134.5z" />
    <glyph glyph-name="uni01A3" unicode="&#x1a3;" horiz-adv-x="1716" 
d="M1128 535q0 -267 -146.5 -431.5t-383.5 -164.5q-234 0 -382 165t-148 431t149.5 430.5t380.5 164.5q173 0 299 -92q135 88 287 88q105 0 181 -26.5t121.5 -70.5t72.5 -114t36 -144t9 -173v-1012h-297v994q0 149 -28.5 214.5t-109.5 65.5q-54 0 -106 -33q65 -124 65 -292z
M823 535q0 151 -60.5 239t-164.5 88q-109 0 -167 -87t-58 -240q0 -151 60.5 -239.5t164.5 -88.5q105 0 165 88t60 240z" />
    <glyph glyph-name="uni01A4" unicode="&#x1a4;" horiz-adv-x="1505" 
d="M797 1468q669 0 669 -495q0 -261 -172.5 -380.5t-507.5 -119.5h-106v-508h-307v1213q-107 -14 -107 -115q0 -37 17 -111l-254 -32q-29 109 -29 170q0 59 16 108t41.5 85.5t68 65.5t85 48t103.5 32.5t112.5 21t122.5 11.5t123 5t125 1zM813 1194q-100 0 -133 -4v-442h100
q188 0 278.5 49t90.5 178q0 62 -25.5 106t-73 68t-105 34.5t-132.5 10.5z" />
    <glyph glyph-name="uni01A5" unicode="&#x1a5;" horiz-adv-x="1218" 
d="M422 1245v-145q82 26 166 26q257 0 410 -161.5t153 -432.5q0 -267 -134 -428t-374 -161q-121 0 -221 49v-406h-299v1643q0 177 58 271.5t208 113.5q45 10 123 6q72 0 152 -31l-41 -235q-68 22 -111 22q-48 0 -69 -31.5t-21 -99.5zM422 836v-574q78 -53 182 -53
q125 0 183.5 84.5t58.5 234.5q0 155 -71.5 242.5t-196.5 87.5q-39 0 -87.5 -7.5t-68.5 -14.5z" />
    <glyph glyph-name="uni01A6" unicode="&#x1a6;" horiz-adv-x="1320" 
d="M139 1624h307v-166q49 6 129 6q319 0 484.5 -122.5t165.5 -362.5q0 -153 -66 -249t-198 -152q100 -136 241.5 -377.5t235.5 -456.5h-342q-96 213 -227.5 428.5t-225.5 337.5q-13 0 -38 -1t-38 -1h-121v-543h-307v1659zM575 1192q-67 0 -129 -8v-412h60q67 0 113.5 2.5
t96.5 9.5t81.5 21.5t58 37t39 57t12.5 81.5q0 61 -24 103t-70.5 65t-103.5 33t-134 10z" />
    <glyph glyph-name="uni01A7" unicode="&#x1a7;" horiz-adv-x="1132" 
d="M610 211q210 0 400 108l92 -262q-208 -120 -494 -120q-276 0 -420.5 112.5t-144.5 325.5q0 61 11 112.5t29 91.5t49.5 75t65 61.5t84 53t97 46.5t113.5 45q33 13 43.5 17t39 15.5t38.5 17t32.5 16.5t31 18t24.5 19t22 22.5t14 23.5t10.5 27.5t2.5 30.5q0 143 -224 143
q-163 0 -333 -96l-97 256q81 48 198.5 81.5t244.5 33.5q246 0 385 -115t139 -321q0 -64 -14 -118t-43 -95.5t-63.5 -75t-84.5 -62t-95.5 -49t-107.5 -43.5q-70 -26 -102.5 -39t-78 -36.5t-65 -43t-34.5 -49.5t-15 -67q0 -160 250 -160z" />
    <glyph glyph-name="uni01A8" unicode="&#x1a8;" horiz-adv-x="942" 
d="M514 199q154 0 328 75l57 -258q-163 -77 -385 -77q-227 0 -347 87.5t-120 256.5q0 76 21.5 132t69.5 99.5t108 75.5t155 69q100 40 136 66t36 68q0 40 -38.5 59.5t-104.5 19.5q-123 0 -280 -59l-58 252q166 65 350 65q200 0 314 -92t114 -252q0 -63 -17.5 -114.5
t-43.5 -86t-72.5 -66t-87.5 -51.5t-106 -46q-132 -54 -162 -76q-35 -27 -35 -63q0 -84 168 -84z" />
    <glyph glyph-name="uni01A9" unicode="&#x1a9;" horiz-adv-x="1179" 
d="M850 727q-33 -39 -197 -224t-221 -265h698v-273h-1095v223q90 123 307 367q6 7 15 19t17 22t15 18l98 117q-68 86 -221 267.5t-203 248.5v207h1067v-272h-641q42 -57 172 -217t189 -238z" />
    <glyph glyph-name="uni01AA" unicode="&#x1aa;" horiz-adv-x="747" 
d="M326 -53v1024q-59 -41 -138 -41q-134 0 -229.5 93t-95.5 251q0 168 105 261t263 93q98 0 169.5 -28t114.5 -73.5t68 -117.5t33.5 -145.5t8.5 -171.5v-1108q0 -74 35 -105t135 -41q-3 -17 -10.5 -65.5t-12.5 -74t-19 -60.5t-34 -56q-220 6 -306.5 92.5t-86.5 272.5z
M225 1178q31 0 52.5 12t48.5 39v26q0 61 -26.5 94t-74.5 33q-47 0 -69.5 -28.5t-22.5 -71.5q0 -45 23.5 -74.5t68.5 -29.5z" />
    <glyph glyph-name="uni01AB" unicode="&#x1ab;" horiz-adv-x="858" 
d="M569 209q138 0 250 41q25 -186 25 -299q0 -182 -81 -274.5t-259 -92.5q-90 0 -189 35l41 236q69 -25 125 -25q39 0 56.5 20.5t19.5 65.5q1 5 3 13t3.5 13t3.5 9q-72 -4 -125 2q-79 9 -136.5 37t-94 69.5t-58.5 104.5t-30 133.5t-8 165.5v923l297 50v-332h391v-260h-391
v-426q0 -115 37 -162t120 -47z" />
    <glyph glyph-name="uni01AC" unicode="&#x1ac;" horiz-adv-x="1257" 
d="M504 1180h-98q-69 0 -103.5 -33t-34.5 -90q0 -37 17 -109l-256 -35q-29 109 -29 170q0 78 22 138t51 99t88 65.5t102 40t126 20.5t127 7.5t135 0.5h41h561v-274h-440v-1215h-309v1215z" />
    <glyph glyph-name="uni01AD" unicode="&#x1ad;" horiz-adv-x="858" 
d="M412 1104h399v-260h-399v-426q0 -94 25 -142.5t83 -58.5q33 -7 90 -4q103 8 195 53l51 -250q-154 -73 -315 -73q-122 0 -205.5 31.5t-131.5 95t-68.5 148t-20.5 202.5v731q0 228 117 350.5t348 122.5q82 0 158 -18t122 -41l-61 -254q-100 47 -201 47q-58 0 -95 -15
t-56.5 -49.5t-26.5 -77.5t-8 -112z" />
    <glyph glyph-name="uni01AE" unicode="&#x1ae;" horiz-adv-x="1198" 
d="M754 1180v-1190q0 -75 20 -109.5t70 -34.5q49 0 123 27l41 -256q-104 -35 -187 -35q-203 0 -290 103.5t-87 310.5v1184h-440v274h1190v-274h-440z" />
    <glyph glyph-name="Uhorn" unicode="&#x1af;" horiz-adv-x="1480" 
d="M991 1454h156q119 0 119 102q0 17 -2 58.5t-2 60.5h276q10 -66 10 -121q0 -271 -250 -319v-703q0 -133 -34 -239.5t-103.5 -187t-184 -124.5t-267.5 -44q-152 0 -265.5 44t-182.5 125t-102.5 187.5t-33.5 238.5v922h309v-813q0 -228 65 -327t212 -99q132 0 206 83t74 257
v899z" />
    <glyph glyph-name="uhorn" unicode="&#x1b0;" horiz-adv-x="1245" 
d="M1065 893v-883q-229 -67 -469 -67q-136 0 -231.5 37.5t-149.5 110t-78 165t-24 215.5v633h297v-592q0 -165 45.5 -233t158.5 -68q77 0 152 12v881h182q44 0 70 25t26 77q0 29 -10 117h264q13 -74 13 -129q0 -49 -13.5 -95t-41 -88.5t-77 -73.5t-114.5 -44z" />
    <glyph glyph-name="uni01B1" unicode="&#x1b1;" horiz-adv-x="1589" 
d="M795 -63q-149 0 -276.5 47t-224 135.5t-151.5 226.5t-55 309q0 295 205 529h-238v270h645v-223q-292 -236 -292 -572q0 -209 105 -326.5t282 -117.5t283 117.5t106 326.5q0 333 -295 572v223h645v-270h-238q205 -239 205 -529q0 -172 -54.5 -309.5t-150.5 -226
t-224 -135.5t-277 -47z" />
    <glyph glyph-name="uni01B2" unicode="&#x1b2;" horiz-adv-x="1443" 
d="M1354 721q0 -131 -22.5 -246t-73 -214.5t-125 -171t-184.5 -112t-247 -40.5q-147 0 -259 44.5t-180.5 125.5t-103 189.5t-34.5 242.5v915h309v-893q0 -176 73 -261t191 -85q173 0 256.5 123t83.5 373q0 248 -54.5 364.5t-186.5 116.5q-31 0 -113 -21l-27 269
q102 24 177 24q140 0 241.5 -51.5t162 -150.5t88.5 -232.5t28 -308.5z" />
    <glyph glyph-name="uni01B3" unicode="&#x1b3;" horiz-adv-x="1409" 
d="M639 850q41 83 152 291q70 132 98 172q93 136 221 152q5 1 10 1q62 7 111 0q123 -16 237 -133l-141 -217q-41 41 -70.5 61.5t-60.5 20.5q-29 0 -45.5 -13t-40.5 -52q-124 -208 -256 -461h2q-9 -23 -30.5 -80.5t-34.5 -89.5v-537h-310v584q-285 441 -522 905h356
q127 -279 324 -604z" />
    <glyph glyph-name="uni01B4" unicode="&#x1b4;" horiz-adv-x="1193" 
d="M956 776q-17 -54 -59 -190t-64.5 -207.5t-58 -179t-67.5 -193.5q-81 -207 -183 -305.5t-268 -110.5q-53 -6 -115 0q-91 8 -174 48l56 247q108 -41 172 -41q78 0 127 39t84 129q-264 513 -422 1092h315q84 -350 252 -737q6 21 129 436q19 67 34.5 110.5t41 87t57.5 67.5
t80 39t111 15q106 0 223 -51l-68 -240q-74 35 -117 35q-36 0 -54 -20.5t-32 -71.5v2z" />
    <glyph glyph-name="uni01B5" unicode="&#x1b5;" horiz-adv-x="1204" 
d="M1147 1454v-227q-114 -125 -299 -371h264v-244h-448q-157 -222 -242 -374h745v-273h-1126v195q107 204 274 452h-202v244h374q155 219 248 326h-659v272h1071z" />
    <glyph glyph-name="uni01B6" unicode="&#x1b6;" horiz-adv-x="983" 
d="M934 1104v-213q-28 -31 -91.5 -105t-107.5 -124h172v-218h-352q-83 -111 -149 -223h542v-256h-907v182q61 112 188 297h-127v218h297q66 89 146 186h-477v256h866z" />
    <glyph glyph-name="uni01B7" unicode="&#x1b7;" horiz-adv-x="1196" 
d="M1122 406q0 -122 -44.5 -213.5t-127.5 -147.5t-195 -83.5t-253 -27.5q-149 0 -282 41t-214 88l96 261q210 -115 400 -115q303 0 303 199q0 50 -19 88.5t-51 62.5t-80.5 39t-101.5 21t-119 6h-98v151l10 43q153 153 326 363h-590v272h1008v-190q-118 -161 -369 -430
q401 -80 401 -428z" />
    <glyph glyph-name="uni01B8" unicode="&#x1b8;" horiz-adv-x="1196" 
d="M74 406q0 348 401 428q-265 288 -369 430v190h1008v-272h-588q202 -241 336 -373v-184h-100q-66 0 -119 -6t-101.5 -21t-80.5 -39t-51 -62.5t-19 -88.5q0 -199 303 -199q184 0 400 113l96 -261q-88 -49 -217 -88t-279 -39q-141 0 -253 27.5t-195 83.5t-127.5 147.5
t-44.5 213.5z" />
    <glyph glyph-name="uni01B9" unicode="&#x1b9;" horiz-adv-x="1003" 
d="M782 473v-192h-118q-314 0 -314 -211q0 -103 70 -159t203 -56q89 0 181.5 21t162.5 54l71 -252q-76 -39 -193 -65.5t-233 -26.5q-267 0 -415 120.5t-148 354.5q0 178 102.5 282.5t268.5 143.5q-30 39 -110 138.5t-133 167.5t-83 114v197h889v-260h-498q150 -209 297 -371
z" />
    <glyph glyph-name="uni01BA" unicode="&#x1ba;" horiz-adv-x="1001" 
d="M602 594q173 -36 252.5 -112.5t79.5 -223.5q0 -57 -13 -104.5t-34 -83t-58 -66t-73.5 -51.5t-94 -41.5t-106 -34t-121.5 -31.5q-90 -24 -127 -43t-37 -57q0 -41 41 -121l-250 -51q-71 83 -71 197q0 78 35.5 136.5t92 92t124.5 58.5t136.5 43t125 37t92 49.5t35.5 72.5
q0 73 -82 104t-307 35v193q129 117 247 252h-475v260h883v-207q-150 -176 -295 -303z" />
    <glyph glyph-name="uni01BB" unicode="&#x1bb;" horiz-adv-x="1120" 
d="M1004 1057q0 -128 -109 -273h139v-243h-354q-27 -26 -78 -73t-73 -69t-51 -54.5t-41.5 -59t-14.5 -54.5h622v-266h-972q-11 48 -11 109q0 137 62 246t174 221h-176v243h416q77 79 117 137.5t40 120.5q0 90 -52 132.5t-142 42.5q-164 0 -328 -158l-156 217
q90 86 218.5 147.5t271.5 61.5q248 0 373 -112t125 -316z" />
    <glyph glyph-name="uni01BC" unicode="&#x1bc;" horiz-adv-x="1124" 
d="M1028 1186h-536q-11 -216 -21 -279q614 -57 614 -493q0 -106 -34.5 -191.5t-105.5 -150t-187.5 -100t-270.5 -35.5q-115 0 -249.5 33.5t-184.5 64.5l66 268q143 -68 287 -82q112 -10 180 6q96 16 140 64.5t44 116.5q0 84 -56.5 137.5t-195 82.5t-366.5 29q43 358 51 529
h-195v268h1020v-268z" />
    <glyph glyph-name="uni01BD" unicode="&#x1bd;" horiz-adv-x="1028" 
d="M971 315q0 -179 -129.5 -277.5t-384.5 -98.5q-120 0 -238.5 23.5t-171.5 51.5l57 260q132 -56 289 -65q44 -4 119 0q160 18 160 110q0 82 -78 112t-293 30h-172l18 176q18 187 19 211h-154v256h916v-256h-488q0 -6 -5 -64t-7 -84q543 0 543 -385z" />
    <glyph glyph-name="uni01BE" unicode="&#x1be;" horiz-adv-x="964" 
d="M795 846h-385q3 -31 18 -62q29 -47 72 -83.5t87 -59t91.5 -44.5t88.5 -46.5t73.5 -57.5t51.5 -86t19 -124q0 -169 -122.5 -256.5t-348.5 -87.5t-389 77l58 258q158 -65 286 -71q68 -3 109 2q108 15 108 78q0 41 -40.5 68t-155.5 73h2q-46 18 -74 30t-62.5 30.5t-54.5 36
t-43 42.5t-35 55t-23 69.5t-15.5 89t-4.5 110.5v499l297 50v-332h392v-258z" />
    <glyph glyph-name="uni01BF" unicode="&#x1bf;" horiz-adv-x="1183" 
d="M573 1126q256 0 400.5 -136t144.5 -378q0 -90 -19.5 -169.5t-53 -142.5t-84.5 -118.5t-108 -98t-130.5 -81.5t-144 -67.5t-156.5 -57.5v-291h-299v1444q218 96 450 96zM571 858q-79 0 -149 -24v-670q64 26 109.5 47.5t100 58t89 76.5t60 99t28.5 128q3 56 -6 109
q-15 83 -76 129.5t-156 46.5z" />
    <glyph glyph-name="uni01C0" unicode="&#x1c0;" horiz-adv-x="606" 
d="M154 -414v2036h268v-2036h-268z" />
    <glyph glyph-name="uni01C1" unicode="&#x1c1;" horiz-adv-x="1044" 
d="M154 -414v2036h268v-2036h-268zM594 -414v2036h268v-2036h-268z" />
    <glyph glyph-name="uni01C2" unicode="&#x1c2;" horiz-adv-x="1167" 
d="M438 942v696h289v-696h395v-244h-395v-153h395v-244h-395v-715h-289v715h-393v244h393v153h-393v244h393z" />
    <glyph glyph-name="uni01C3" unicode="&#x1c3;" horiz-adv-x="575" 
d="M418 1579l-6 -584q-1 -114 -23.5 -301t-26.5 -239h-186q-3 31 -25.5 227t-23.5 313l-6 584q2 1 11 6t12.5 6.5t12.5 5.5t15.5 5.5t17.5 4.5t21.5 4t25.5 2t31 1t30.5 -1t25 -2t22 -4t17.5 -4.5t16.5 -5.5t13.5 -5.5l13 -6.5zM440 145q0 -75 -48.5 -121.5t-119.5 -46.5
q-72 0 -121 46t-49 120t47 122t123 48q70 0 119 -47t49 -121z" />
    <glyph glyph-name="uni01C4" unicode="&#x1c4;" horiz-adv-x="2627" 
d="M1335 707q0 -350 -202 -545t-572 -195q-231 0 -422 53v1375q188 53 418 53q374 0 576 -192t202 -549zM457 1190v-961q40 -8 121 -8q434 0 434 490q0 487 -432 487q-75 0 -123 -8zM2499 1434l-19 -197q-35 -58 -163.5 -255t-249.5 -394.5t-203 -354.5h651v-249h-1049
l21 180q101 215 276.5 505t331.5 513h-586v252h990zM1825 1966l215 -178l213 178l135 -154l-348 -331l-344 331z" />
    <glyph glyph-name="uni01C5" unicode="&#x1c5;" horiz-adv-x="2435" 
d="M1335 707q0 -350 -202 -545t-572 -195q-231 0 -422 53v1375q188 53 418 53q374 0 576 -192t202 -549zM457 1190v-961q40 -8 121 -8q434 0 434 490q0 487 -432 487q-75 0 -123 -8zM2351 1094q-6 -63 -18 -185l-56 -65q-260 -384 -389 -623h473v-237h-860l31 202
q109 216 426 668h-426v240h819zM1737 1640l213 -178l215 178l133 -153l-348 -332l-344 332z" />
    <glyph glyph-name="uni01C6" unicode="&#x1c6;" horiz-adv-x="2191" 
d="M1096 1614v-1573q-185 -82 -449 -82q-263 0 -417 151.5t-154 426.5q0 262 134.5 419.5t364.5 157.5q120 0 216 -47v518q259 25 305 29zM791 213v623q-78 47 -164 47q-242 0 -242 -338q0 -167 70 -256.5t194 -89.5q91 0 142 14zM2107 1094q-12 -96 -18 -185
q-85 -102 -217.5 -305t-229.5 -383h476v-237h-863q20 112 33 202q122 242 426 668h-426v240h819zM1483 1640l213 -178l215 178l133 -153l-348 -332l-344 332z" />
    <glyph glyph-name="uni01C7" unicode="&#x1c7;" horiz-adv-x="2166" 
d="M459 236h551v-252h-871v1450h320v-1198zM1925 1434v-1067q0 -503 -473 -525q-185 -5 -356 88l69 242q152 -70 262 -25q94 31 137.5 111t43.5 227v949h317z" />
    <glyph glyph-name="uni01C8" unicode="&#x1c8;" horiz-adv-x="1638" 
d="M459 236h551v-252h-871v1450h320v-1198zM1135 -414q-77 -11 -179 15l25 194q45 3 86 27q87 6 119.5 56.5t32.5 168.5v1047h307v-1028q0 -450 -391 -480zM1548 1395q0 -75 -50.5 -122.5t-125.5 -47.5q-74 0 -125 47.5t-51 122.5q0 74 51 121t125 47q75 0 125.5 -47
t50.5 -121z" />
    <glyph glyph-name="uni01C9" unicode="&#x1c9;" horiz-adv-x="1134" 
d="M639 121l-51 -150q-138 4 -228.5 30.5t-142 80.5t-72 126t-20.5 179v1210h303v-1132q0 -80 7.5 -134t20.5 -89t41.5 -58t58.5 -35.5t83 -27.5zM631 -414q-77 -11 -178 15l24 194q45 3 86 27q87 6 119.5 56.5t32.5 168.5v1047h309v-1028q0 -450 -393 -480zM1047 1395
q0 -75 -51.5 -122.5t-125.5 -47.5q-75 0 -126.5 47.5t-51.5 122.5q0 74 51 121t125 47q75 0 127 -47t52 -121z" />
    <glyph glyph-name="uni01CA" unicode="&#x1ca;" horiz-adv-x="2547" 
d="M1311 -16h-185l-71 8q-120 209 -330.5 529t-292.5 409q0 -50 1 -167t1 -181v-598h-295v1450h256q266 -313 523 -705q24 -35 58.5 -93t41.5 -69q0 55 -2 179t-2 190v498h297v-1450zM2306 1434v-1067q0 -503 -473 -525q-187 -5 -358 88l71 242q152 -70 262 -25
q94 31 136.5 111t42.5 227v949h319z" />
    <glyph glyph-name="uni01CB" unicode="&#x1cb;" horiz-adv-x="2048" 
d="M1311 -16h-185l-71 8q-120 209 -330.5 529t-292.5 409q0 -50 1 -167t1 -181v-598h-295v1450h256q266 -313 523 -705q24 -35 58.5 -93t41.5 -69q0 55 -2 179t-2 190v498h297v-1450zM1544 -414q-79 -11 -178 15l25 194q45 3 86 27q87 6 119 56t32 169v1047h307v-1028
q0 -450 -391 -480zM1958 1395q0 -75 -51 -122.5t-125 -47.5q-75 0 -126.5 47.5t-51.5 122.5q0 74 51.5 121t126.5 47q74 0 125 -47t51 -121z" />
    <glyph glyph-name="uni01CC" unicode="&#x1cc;" horiz-adv-x="1732" 
d="M127 -16v1048q164 82 469 82q101 0 178 -16t130.5 -49t89 -76t55.5 -105t28 -128t8 -152v-604h-305v551q0 77 -4.5 128.5t-16.5 95t-33.5 68t-56.5 37.5t-85 13q-93 0 -150 -17v-876h-307zM1231 -414q-79 -11 -180 15l26 194q42 3 86 27q86 6 119 56.5t33 168.5v1047h307
v-1028q0 -450 -391 -480zM1645 1395q0 -75 -51.5 -122.5t-125.5 -47.5q-75 0 -126.5 47.5t-51.5 122.5q0 74 51 121t125 47q75 0 127 -47t52 -121z" />
    <glyph glyph-name="uni01CD" unicode="&#x1cd;" horiz-adv-x="544" 
d="M422 1104v-1139h-299v1139h299zM57 1714l215 -178l213 178l136 -153l-349 -332l-344 332z" />
    <glyph glyph-name="uni01CE" unicode="&#x1ce;" horiz-adv-x="1093" 
d="M977 31q-72 -29 -191 -48.5t-256 -19.5q-471 0 -471 361q0 345 514 378q52 3 113 -2q-3 98 -46.5 149.5t-147.5 51.5q-154 0 -295 -63l-54 217q174 71 387 71q400 0 441 -344q6 -64 6 -133v-618zM688 188v324q-96 0 -119 -2q-102 -10 -159.5 -50t-57.5 -128
q0 -160 197 -160q90 0 139 16zM336 1722l215 -178l213 178l135 -153l-348 -332l-344 332z" />
    <glyph glyph-name="uni01CF" unicode="&#x1cf;" horiz-adv-x="585" 
d="M453 -16h-316v1446h316v-1446zM78 2050l215 -178l213 178l135 -154l-348 -331l-344 331z" />
    <glyph glyph-name="uni01D0" unicode="&#x1d0;" horiz-adv-x="544" 
d="M422 1104v-1139h-299v1139h299zM57 1714l215 -178l213 178l136 -153l-349 -332l-344 332z" />
    <glyph glyph-name="uni01D1" unicode="&#x1d1;" horiz-adv-x="1445" 
d="M1358 707q0 -344 -169.5 -546t-465.5 -202q-294 0 -464.5 202.5t-170.5 545.5q0 341 172 545t463 204q293 0 464 -203.5t171 -545.5zM1036 713q0 105 -18.5 194t-55.5 158t-98 108t-141 39q-79 0 -140 -39.5t-98 -108.5t-56 -158t-19 -193q0 -142 31.5 -251.5t104 -178
t177.5 -68.5q80 0 141.5 39t98.5 108t55 157t18 194zM506 2042l215 -178l213 178l135 -154l-348 -332l-344 332z" />
    <glyph glyph-name="uni01D2" unicode="&#x1d2;" horiz-adv-x="1220" 
d="M1100 543q0 -262 -137 -423t-375 -161q-236 0 -374 161t-138 423q0 261 139 422t373 161q235 0 373.5 -161t138.5 -422zM795 545q0 160 -51 256t-156 96q-107 0 -158 -96t-51 -256q0 -159 51.5 -253.5t157.5 -94.5q105 0 156 94t51 254zM373 1714l215 -178l213 178
l135 -153l-348 -332l-344 332z" />
    <glyph glyph-name="uni01D3" unicode="&#x1d3;" horiz-adv-x="1423" 
d="M1202 473q0 -234 -140.5 -375t-397.5 -141q-225 0 -363 113t-162 305q-10 105 -10 196v859h313v-812q0 -214 48.5 -307.5t181.5 -93.5q95 0 154.5 56t66.5 169q6 82 6 179v809h303v-957zM459 2050l215 -178l213 178l135 -154l-348 -331l-344 331z" />
    <glyph glyph-name="uni01D4" unicode="&#x1d4;" 
d="M1049 51q-141 -90 -463 -90q-131 0 -223 33t-145.5 98.5t-77 152.5t-23.5 204v655h303v-567q0 -61 1.5 -98t7 -81.5t17 -69.5t31 -48t50.5 -33t73 -10q88 0 145 22v885h304v-1053zM381 1714l215 -178l213 178l135 -153l-348 -332l-344 332z" />
    <glyph glyph-name="uni01D5" unicode="&#x1d5;" horiz-adv-x="1423" 
d="M690 -45q-559 0 -559 602v877h320v-828q0 -205 56.5 -295t186.5 -90q133 0 189.5 90t56.5 297v826h309v-932q0 -251 -143.5 -399t-415.5 -148zM369 1923v199h684v-199h-684zM651 1677q-1 -65 -43.5 -104t-105.5 -39q-64 0 -106 40.5t-42 108.5q0 77 43 114.5t105 37.5
q67 0 107.5 -40.5t41.5 -117.5zM1069 1683q0 -67 -42 -108t-105 -41q-64 0 -106.5 41.5t-43.5 112.5q1 74 40.5 110.5t102.5 38.5q28 2 61 -11t48 -32q45 -52 45 -111z" />
    <glyph glyph-name="uni01D6" unicode="&#x1d6;" 
d="M1049 51q-141 -90 -463 -90q-131 0 -223 33t-145.5 98.5t-77 152.5t-23.5 204v655h303v-567q0 -61 1.5 -98t7 -81.5t17 -69.5t31 -48t50.5 -33t73 -10q88 0 145 22v885h304v-1053zM205 1595v201h684v-201h-684zM489 1352q-3 -66 -45.5 -106t-103.5 -40q-66 0 -108 41
t-42 109q0 79 43 116t105 37q67 0 107.5 -40t43.5 -117zM907 1356q0 -67 -43 -108.5t-106 -41.5q-64 0 -106.5 41.5t-43.5 114.5q3 73 42.5 109t101.5 38q28 1 60 -11t50 -30q45 -56 45 -112z" />
    <glyph glyph-name="uni01D7" unicode="&#x1d7;" horiz-adv-x="1423" 
d="M1202 473q0 -234 -140.5 -375t-397.5 -141q-225 0 -363 113t-162 305q-10 105 -10 196v859h313v-812q0 -214 48.5 -307.5t181.5 -93.5q95 0 154.5 56t66.5 169q6 82 6 179v809h303v-957zM500 1688l286 419l220 -161l-328 -390zM467 1712q0 -73 -47.5 -118.5t-116.5 -45.5
t-116.5 45.5t-47.5 118.5q0 75 47.5 120.5t116.5 45.5t116.5 -45.5t47.5 -120.5zM1255 1712q0 -73 -48 -118.5t-117 -45.5q-68 0 -116 45.5t-48 118.5q0 74 48 120t116 46q70 0 117.5 -45.5t47.5 -120.5z" />
    <glyph glyph-name="uni01D8" unicode="&#x1d8;" horiz-adv-x="1263" 
d="M1079 51q-141 -90 -461 -90q-106 0 -186 22t-133.5 62.5t-87 102t-47.5 135t-14 166.5v655h301v-567q0 -45 1 -74.5t3.5 -65.5t8 -59t14 -48t22 -40.5t32.5 -28.5t44 -18.5t57 -5.5q88 0 145 22v885h301v-1053zM426 1331l287 420l219 -162l-328 -389zM393 1356
q0 -73 -47.5 -118.5t-116.5 -45.5t-116 45.5t-47 118.5q0 75 47 120.5t116 45.5t116.5 -45.5t47.5 -120.5zM1182 1356q0 -73 -48 -118.5t-118 -45.5q-68 0 -116 45.5t-48 118.5q0 74 48 120t116 46q70 0 118 -46t48 -120z" />
    <glyph glyph-name="uni01D9" unicode="&#x1d9;" horiz-adv-x="1255" 
d="M1176 473q0 -234 -141 -375t-398 -141q-226 0 -364 113t-160 305q-11 116 -11 196v859h314v-812q0 -214 48 -307.5t181 -93.5q95 0 154.5 56t66.5 169q6 82 6 179v809h304v-957zM414 2189l215 -180l213 180l135 -153l-348 -334l-344 334zM483 1702q0 -75 -47.5 -120.5
t-116.5 -45.5t-116 45.5t-47 120.5t46.5 119.5t116.5 44.5t117 -45t47 -119zM1090 1702q0 -75 -47.5 -120.5t-116.5 -45.5t-116.5 45.5t-47.5 120.5q0 74 47 119t117 45t117 -45t47 -119z" />
    <glyph glyph-name="uni01DA" unicode="&#x1da;" horiz-adv-x="1230" 
d="M1034 51q-144 -90 -463 -90q-132 0 -224 33t-145 98.5t-76.5 152.5t-23.5 204v655h301v-567q0 -60 1.5 -98t7.5 -81.5t18 -69t32 -48.5t51 -33t73 -10q88 0 145 22v885h303v-1053zM360 1872l215 -180l213 180l136 -156l-349 -332l-344 332zM430 1384q0 -75 -47 -120
t-117 -45t-117 45t-47 120q0 74 47 119t117 45t117 -45t47 -119zM1036 1384q0 -75 -47 -120t-117 -45q-69 0 -116 45t-47 120t46.5 119.5t116.5 44.5t117 -45t47 -119z" />
    <glyph glyph-name="uni01DB" unicode="&#x1db;" horiz-adv-x="1417" 
d="M1221 473q0 -234 -141 -375t-398 -141q-226 0 -364 113t-160 305q-11 116 -11 196v859h314v-812q0 -214 48 -307.5t181 -93.5q95 0 154.5 56t66.5 169q7 96 7 179v809h303v-957zM1020 1667q0 -74 -49 -121t-121 -47q-70 0 -119 47t-49 119q0 74 47 123t121 49
q72 0 121 -48t49 -122zM686 1667q0 -74 -49 -121t-119 -47q-72 0 -121 47t-49 119q0 74 47 123t123 49q70 0 119 -48t49 -122zM557 2167l287 -422l-176 -129l-328 387z" />
    <glyph glyph-name="uni01DC" unicode="&#x1dc;" horiz-adv-x="1110" 
d="M1034 51q-144 -90 -463 -90q-132 0 -224 33t-145 98.5t-76.5 152.5t-23.5 204v655h301v-567q0 -60 1.5 -98t7.5 -81.5t18 -69t32 -48.5t51 -33t73 -10q88 0 145 22v885h303v-1053zM887 1354q0 -74 -49 -121t-121 -47q-70 0 -119 47t-49 119q0 74 47 123t121 49
q72 0 121 -48t49 -122zM553 1354q0 -74 -49 -121t-119 -47q-72 0 -121 47t-49 119q0 74 47 123t123 49q70 0 119 -48t49 -122zM424 1853l287 -421l-176 -129l-328 387z" />
    <glyph glyph-name="uni01DD" unicode="&#x1dd;" horiz-adv-x="1163" 
d="M1098 539q0 -144 -45 -260.5t-120 -189t-168.5 -110.5t-195.5 -38q-234 0 -366.5 145t-132.5 426q0 10 6 127h700q-18 91 -74.5 146.5t-150.5 68.5q-68 7 -125 2q-122 -7 -246 -63l-45 258q60 30 167 54.5t212 24.5q149 0 262 -44t182.5 -124.5t104.5 -186.5t35 -236z
M778 403h-407q9 -96 58.5 -148t137.5 -52q86 0 142 57t69 143z" />
    <glyph glyph-name="uni01DE" unicode="&#x1de;" horiz-adv-x="1404" 
d="M1335 -16h-241l-93 12l-67 203q-4 13 -16 51t-19 61h-496q-75 -220 -108 -327h-303q322 933 526 1446h289q195 -492 528 -1446zM836 535q-82 249 -138 415q-9 30 -18.5 65.5t-15 56.5t-9.5 30q-6 -8 -12 -28.5t-8 -26.5q-20 -73 -46.5 -154t-64.5 -190.5t-57 -167.5h369z
M332 1923v199h686v-199h-686zM616 1677q-1 -64 -44 -103.5t-105 -39.5q-66 0 -108 40.5t-42 108.5q0 77 43 114.5t105 37.5q67 0 108.5 -40.5t42.5 -117.5zM1034 1683q0 -67 -43 -108t-106 -41q-64 0 -106.5 41.5t-43.5 112.5q3 74 43 111.5t101 37.5q64 0 109.5 -44.5
t45.5 -109.5z" />
    <glyph glyph-name="uni01DF" unicode="&#x1df;" horiz-adv-x="1093" 
d="M977 31q-72 -29 -191 -48.5t-256 -19.5q-471 0 -471 361q0 345 514 378q24 2 65 4.5t48 2.5q-3 97 -46 144.5t-148 47.5q-154 0 -295 -63l-54 217q174 71 387 71q400 0 441 -344q6 -64 6 -133v-618zM688 188v324q-96 0 -119 -2q-102 -10 -159.5 -50t-57.5 -128
q0 -160 197 -160q90 0 139 16zM186 1595v201h686v-201h-686zM471 1352q-1 -66 -44 -106t-105 -40q-66 0 -108 41t-42 109q0 79 42.5 116t104.5 37q67 0 109 -40t43 -117zM889 1356q0 -67 -43.5 -108.5t-106.5 -41.5q-64 0 -106 41.5t-43 114.5q3 73 42.5 109t100.5 38
q62 2 109 -43t47 -110z" />
    <glyph glyph-name="uni01E0" unicode="&#x1e0;" horiz-adv-x="1404" 
d="M1335 -16h-241l-93 12l-67 203q-4 13 -16 51t-19 61h-496q-75 -220 -108 -327h-303q322 933 526 1446h289q195 -492 528 -1446zM836 535q-82 249 -138 415q-9 30 -18.5 65.5t-15 56.5t-9.5 30q-6 -8 -12 -28.5t-8 -26.5q-20 -73 -46.5 -154t-64.5 -190.5t-57 -167.5h369z
M358 1913v211h594v-211h-594zM805 1686q0 -68 -43 -109t-107 -41q-63 0 -106 42t-43 108q0 69 43 113t108 44q63 0 105.5 -45t42.5 -112z" />
    <glyph glyph-name="uni01E1" unicode="&#x1e1;" horiz-adv-x="1093" 
d="M977 31q-72 -29 -191 -48.5t-256 -19.5q-471 0 -471 361q0 345 514 378q24 2 65 4.5t48 2.5q-3 97 -46 144.5t-148 47.5q-154 0 -295 -63l-54 217q174 71 387 71q400 0 441 -344q6 -64 6 -133v-618zM688 188v324q-96 0 -119 -2q-102 -10 -159.5 -50t-57.5 -128
q0 -160 197 -160q90 0 139 16zM215 1599v209h592v-209h-592zM662 1370q0 -67 -43.5 -108t-106.5 -41q-64 0 -107 41.5t-43 107.5q0 69 43.5 113.5t108.5 44.5q62 0 105 -45t43 -113z" />
    <glyph glyph-name="uni01E2" unicode="&#x1e2;" horiz-adv-x="1964" 
d="M1923 -35h-977v361h-457q-152 -277 -192 -361h-338q459 862 913 1489h1002v-272h-625v-305h553v-269h-553v-370h674v-273zM946 588v491q-136 -193 -241 -368l-74 -123h315zM1534 1581h-676v236h676v-236z" />
    <glyph glyph-name="uni01E3" unicode="&#x1e3;" horiz-adv-x="1771" 
d="M993 668h406q-9 94 -59 147t-136 53t-142 -57t-69 -143zM526 -57q-477 0 -477 379q0 98 38 170.5t106.5 114t153.5 61.5t188 20q79 0 151 -16q-4 30 -7.5 47.5t-11 44t-20.5 41.5t-32.5 31t-50 23t-70.5 7q-161 0 -304 -53l-38 258q66 23 165.5 41t198.5 18
q130 0 211.5 -38t132.5 -115q125 131 305 147q59 6 111 0q201 -21 313.5 -164.5t112.5 -400.5q0 -16 -6 -127h-701q40 -223 287 -223q159 0 309 67l45 -258q-48 -25 -132.5 -46t-176.5 -27q-54 -5 -119 -2q-192 9 -317 98q-165 -98 -365 -98zM694 438q-66 17 -131 17
q-215 0 -215 -129t191 -129q109 0 202 45q-41 87 -47 196zM1196 1266h-676v235h676v-235z" />
    <glyph glyph-name="uni01E4" unicode="&#x1e4;" horiz-adv-x="1456" 
d="M987 229v158h-215v240h215v168h309v-168h166v-240h-166v-367q-74 -30 -207.5 -55.5t-295.5 -25.5q-158 0 -289.5 51.5t-226 148.5t-147 243.5t-52.5 328.5q0 181 57 329t156 244.5t231 148.5t283 52q116 0 225.5 -25t164.5 -48.5t97 -49.5l-98 -258q-76 45 -173.5 73.5
t-195.5 28.5q-202 0 -315 -130t-113 -365q0 -230 107.5 -364t310.5 -134q114 0 172 16z" />
    <glyph glyph-name="uni01E5" unicode="&#x1e5;" horiz-adv-x="1218" 
d="M678 -12q77 11 94 82q-102 -47 -205 -47q-230 0 -364.5 139t-134.5 403q0 252 150.5 406.5t410.5 154.5q221 0 446 -67v-369h152v-219h-152v-321q0 -52 -8 -138q-20 -223 -155.5 -327.5t-395.5 -104.5q-192 0 -395 70l55 266q167 -72 344 -72q84 0 121 33.5t37 110.5z
M776 328v143h-196v219h196v166q-62 12 -145 12q-124 0 -192 -84t-68 -221q0 -141 62.5 -211.5t164.5 -70.5q107 0 178 47z" />
    <glyph glyph-name="Gcaron" unicode="&#x1e6;" horiz-adv-x="1398" 
d="M1208 41q-164 -82 -450 -82q-315 0 -493.5 198.5t-178.5 553.5q0 171 51 311.5t141.5 235t216.5 146.5t275 52q256 0 428 -102l-96 -226q-108 64 -268 72q-207 11 -317.5 -114.5t-110.5 -378.5q0 -238 93 -370t263 -132q42 0 86 6t57 12v348h-145v244h448v-774zM541 2050
l215 -178l213 178l135 -154l-348 -331l-344 331z" />
    <glyph glyph-name="gcaron" unicode="&#x1e7;" horiz-adv-x="1198" 
d="M1051 45q0 -247 -132.5 -367t-383.5 -120q-224 0 -402 75l68 234q117 -55 243 -66q109 -3 174 33q67 19 102.5 64.5t35.5 109.5v41q-89 -43 -205 -43q-215 0 -345 142t-130 397q0 266 146 422.5t413 156.5q252 0 416 -73v-1006zM754 262v627q-39 16 -125 16
q-124 0 -187 -91.5t-63 -260.5q0 -166 59 -248t170 -82q87 0 146 39zM403 1714l215 -178l213 178l136 -153l-349 -332l-344 332z" />
    <glyph glyph-name="uni01E8" unicode="&#x1e8;" horiz-adv-x="1325" 
d="M1270 -16h-269q-64 4 -94 8q-209 358 -454 643v-651h-316v1446h316v-588q30 33 62.5 71.5t58 70t60 78t54 73t56.5 79t50 72t52 76t47 68.5h350q-248 -325 -532 -670q143 -162 291 -367t268 -409zM422 2042l215 -178l213 178l135 -154l-348 -332l-344 332z" />
    <glyph glyph-name="uni01E9" unicode="&#x1e9;" horiz-adv-x="1110" 
d="M1122 -16h-342q-11 17 -95 154.5t-149 229t-108 119.5v-503h-301v1613h301v-925q224 280 332 432h336q-142 -179 -418 -506q111 -125 230.5 -291.5t213.5 -322.5zM608 1714l215 -178l213 178l135 -153l-348 -332l-344 332z" />
    <glyph glyph-name="uni01EA" unicode="&#x1ea;" horiz-adv-x="1603" 
d="M1206 711q0 228 -108.5 360.5t-296.5 132.5q-187 0 -295.5 -133.5t-108.5 -359.5q0 -227 108.5 -360.5t295.5 -133.5q188 0 296.5 133.5t108.5 360.5zM725 -57q-136 12 -252.5 67t-205 149t-139 236t-50.5 316q0 185 58.5 334.5t158.5 244t229.5 145t276.5 50.5
q150 0 280.5 -50.5t229.5 -145.5t156 -244t57 -334q0 -460 -328 -664h2q-247 -139 -266 -233q7 -33 63 -27q31 3 97 23l26 -226q-91 -39 -200 -39q-223 0 -256 144q-7 67 43 149q-9 53 20 105z" />
    <glyph glyph-name="uni01EB" unicode="&#x1eb;" horiz-adv-x="1220" 
d="M891 12q-29 -18 -59 -39.5t-62.5 -49.5t-54.5 -57t-25 -52q10 -33 64 -27q29 2 96 23l27 -226q-91 -39 -201 -39q-218 0 -256 144q-8 43 -2 92q11 82 94 172q-202 29 -323 187t-121 395q0 266 152.5 430.5t389.5 164.5q241 0 392 -164t151 -431q0 -179 -68.5 -313.5
t-193.5 -209.5zM848 535q0 152 -63 239.5t-175 87.5q-110 0 -173.5 -88t-63.5 -239t63.5 -239.5t173.5 -88.5q112 0 175 88t63 240z" />
    <glyph glyph-name="uni01EC" unicode="&#x1ec;" horiz-adv-x="1603" 
d="M1206 711q0 228 -108.5 360.5t-296.5 132.5q-187 0 -295.5 -133.5t-108.5 -359.5q0 -227 108.5 -360.5t295.5 -133.5q188 0 296.5 133.5t108.5 360.5zM725 -57q-136 12 -252.5 67t-205 149t-139 236t-50.5 316q0 185 58.5 334.5t158.5 244t229.5 145t276.5 50.5
q150 0 280.5 -50.5t229.5 -145.5t156 -244t57 -334q0 -460 -328 -664h2q-50 -27 -98 -57.5t-104 -82.5t-64 -93q7 -33 63 -27q31 3 97 23l26 -226q-91 -39 -200 -39q-223 0 -256 144q-7 67 43 149q-9 53 20 105zM1141 1581h-678v236h678v-236z" />
    <glyph glyph-name="uni01ED" unicode="&#x1ed;" horiz-adv-x="1220" 
d="M891 12q-40 -25 -79.5 -54.5t-78.5 -71.5t-43 -72q10 -33 64 -27q29 2 96 23l27 -226q-91 -39 -201 -39q-218 0 -256 144q-8 43 -2 92q11 82 94 172q-202 29 -323 187t-121 395q0 266 152.5 430.5t389.5 164.5q241 0 392 -164t151 -431q0 -179 -68.5 -313.5
t-193.5 -209.5zM848 535q0 152 -63 239.5t-175 87.5q-110 0 -173.5 -88t-63.5 -239t63.5 -239.5t173.5 -88.5q112 0 175 88t63 240zM948 1266h-676v235h676v-235z" />
    <glyph glyph-name="uni01EE" unicode="&#x1ee;" horiz-adv-x="1196" 
d="M1122 406q0 -122 -44.5 -213.5t-127.5 -147.5t-195 -83.5t-253 -27.5q-149 0 -282 41t-214 88l96 261q210 -115 400 -115q303 0 303 199q0 50 -19 88.5t-51 62.5t-80.5 39t-101.5 21t-119 6h-98v151l10 43q153 153 326 363h-590v272h1008v-190q-118 -161 -369 -430
q401 -80 401 -428zM367 1966l215 -178l213 178l135 -154l-348 -331l-344 331z" />
    <glyph glyph-name="uni01EF" unicode="&#x1ef;" horiz-adv-x="999" 
d="M221 281v155l8 45q140 158 287 363h-496v260h889v-197q-151 -213 -327 -420q80 -18 144.5 -51t117 -83.5t81.5 -125t29 -166.5q0 -234 -148.5 -354.5t-414.5 -120.5q-117 0 -234.5 26.5t-191.5 65.5l72 252q168 -75 342 -75q134 0 203 55.5t69 159.5q0 211 -311 211h-119
zM248 1640l215 -178l213 178l135 -153l-348 -332l-344 332z" />
    <glyph glyph-name="uni01F0" unicode="&#x1f0;" horiz-adv-x="544" 
d="M14 -416q-91 0 -192 37l41 256q77 -27 135 -27q71 0 98 42.5t27 136.5v1075h299v-1077q0 -225 -101 -334t-307 -109zM66 1640l213 -178l215 178l133 -153l-348 -332l-342 332z" />
    <glyph glyph-name="uni01F1" unicode="&#x1f1;" horiz-adv-x="2627" 
d="M1335 707q0 -350 -202 -545t-572 -195q-231 0 -422 53v1375q188 53 418 53q374 0 576 -192t202 -549zM457 1190v-961q40 -8 121 -8q434 0 434 490q0 487 -432 487q-75 0 -123 -8zM2499 1434l-19 -197q-35 -58 -163.5 -255t-249.5 -394.5t-203 -354.5h651v-249h-1049
l21 180q101 215 276.5 505t331.5 513h-586v252h990z" />
    <glyph glyph-name="uni01F2" unicode="&#x1f2;" horiz-adv-x="2435" 
d="M1335 707q0 -350 -202 -545t-572 -195q-231 0 -422 53v1375q188 53 418 53q374 0 576 -192t202 -549zM457 1190v-961q40 -8 121 -8q434 0 434 490q0 487 -432 487q-75 0 -123 -8zM2351 1094q-6 -63 -18 -185l-56 -65q-260 -384 -389 -623h473v-237h-860l31 202
q109 216 426 668h-426v240h819z" />
    <glyph glyph-name="uni01F3" unicode="&#x1f3;" horiz-adv-x="2191" 
d="M1096 1614v-1573q-185 -82 -449 -82q-263 0 -417 151.5t-154 426.5q0 262 134.5 419.5t364.5 157.5q120 0 216 -47v518q259 25 305 29zM791 213v623q-78 47 -164 47q-242 0 -242 -338q0 -167 70 -256.5t194 -89.5q91 0 142 14zM2107 1094q-12 -96 -18 -185
q-85 -102 -217.5 -305t-229.5 -383h476v-237h-863q20 112 33 202q122 242 426 668h-426v240h819z" />
    <glyph glyph-name="uni01F4" unicode="&#x1f4;" horiz-adv-x="1398" 
d="M1208 41q-164 -82 -450 -82q-315 0 -493.5 198.5t-178.5 553.5q0 171 51 311.5t141.5 235t216.5 146.5t275 52q256 0 428 -102l-96 -226q-108 64 -268 72q-207 11 -317.5 -114.5t-110.5 -378.5q0 -238 93 -370t263 -132q42 0 86 6t57 12v348h-145v244h448v-774zM862 1593
h-209l170 414h363z" />
    <glyph glyph-name="uni01F5" unicode="&#x1f5;" horiz-adv-x="1198" 
d="M1051 45q0 -247 -132.5 -367t-383.5 -120q-224 0 -402 75l68 234q117 -55 243 -66q109 -3 174 33q67 19 102.5 64.5t35.5 109.5v41q-89 -43 -205 -43q-215 0 -345 142t-130 397q0 266 146 422.5t413 156.5q252 0 416 -73v-1006zM754 262v627q-39 16 -125 16
q-124 0 -187 -91.5t-63 -260.5q0 -166 59 -248t170 -82q87 0 146 39zM725 1257h-209l170 414h363z" />
    <glyph glyph-name="uni01F6" unicode="&#x1f6;" horiz-adv-x="2160" 
d="M1747 537v573h307v-608q0 -102 -14 -183t-50 -154.5t-94.5 -122t-151 -77t-214.5 -28.5q-120 0 -211.5 28t-150 76.5t-95.5 120.5t-52 153.5t-15 182.5v104h-560v-637h-307v1489h307v-575h560v575h309v-917q0 -169 49.5 -245.5t165.5 -76.5t166.5 76.5t50.5 245.5z" />
    <glyph glyph-name="uni01F7" unicode="&#x1f7;" horiz-adv-x="1337" 
d="M446 -23v-391h-307v1768q294 112 502 112q308 0 472.5 -144t164.5 -421q0 -137 -43.5 -258.5t-117 -216.5t-182 -179.5t-226.5 -148t-263 -121.5zM446 1159v-876q94 43 162.5 82t138 95t113 117.5t71 146.5t27.5 185q0 138 -82 210.5t-233 72.5q-100 0 -197 -33z" />
    <glyph glyph-name="uni01F8" unicode="&#x1f8;" horiz-adv-x="1505" 
d="M1284 -16h-184l-72 8q-213 368 -524 831q-14 21 -34.5 57.5t-33.5 57t-18 20.5q0 -21 2 -138.5t2 -182.5v-653h-287v1446h264q254 -337 525 -762q12 -21 30.5 -53.5t29.5 -50.5t17 -25q0 41 -2 190t-2 227v474h287v-1446zM831 1552h-208l-326 414h365z" />
    <glyph glyph-name="uni01F9" unicode="&#x1f9;" 
d="M1061 -16h-301v571q0 44 -0.5 66.5t-2 58.5t-5 54.5t-9.5 46t-15.5 41t-24 30.5t-33 24.5t-43.5 13t-56 5.5q-82 0 -145 -18v-893h-303v1054q156 86 463 86q90 0 161 -14.5t120.5 -38.5t85 -63t56.5 -80t33 -98.5t15.5 -109t3.5 -120.5v-616zM684 1217h-209l-325 413h364
z" />
    <glyph glyph-name="Aringacute" unicode="&#x1fa;" horiz-adv-x="1404" 
d="M1362 -16h-334q-86 281 -102 327h-496q-75 -220 -108 -327h-302q307 899 527 1446h287q84 -209 178.5 -465t160.5 -443t189 -538zM862 535q-17 51 -63 195.5t-72 219.5q-14 43 -29.5 94t-17.5 58q-10 -18 -33 -103q-20 -67 -45 -142t-58 -173t-50 -149h368zM926 1716
q0 -117 -73.5 -185.5t-182.5 -68.5q-106 0 -181 68.5t-75 185.5q0 115 75 183.5t181 68.5q109 0 182.5 -68t73.5 -184zM739 1716q0 33 -20 52.5t-49 19.5q-30 0 -50 -19.5t-20 -52.5q0 -34 20 -54t50 -20q29 0 49 20t20 54zM754 2499l202 -193l-397 -330l-153 148z" />
    <glyph glyph-name="aringacute" unicode="&#x1fb;" horiz-adv-x="1093" 
d="M977 31q-72 -29 -191 -48.5t-256 -19.5q-471 0 -471 361q0 345 514 378q24 2 65 4.5t48 2.5q-3 97 -46 144.5t-148 47.5q-154 0 -295 -63l-54 217q174 71 387 71q400 0 441 -344q6 -64 6 -133v-618zM688 188v324q-96 0 -119 -2q-102 -10 -159.5 -50t-57.5 -128
q0 -160 197 -160q90 0 139 16zM782 1436q0 -117 -73.5 -185.5t-182.5 -68.5q-106 0 -181 68.5t-75 185.5q0 115 75 183.5t181 68.5q109 0 182.5 -68t73.5 -184zM596 1436q0 32 -20.5 51.5t-49.5 19.5q-30 0 -49.5 -19t-19.5 -52q0 -34 19.5 -54t49.5 -20q29 0 49.5 20
t20.5 54zM610 2218l203 -193l-397 -329l-154 147z" />
    <glyph glyph-name="AEacute" unicode="&#x1fc;" horiz-adv-x="1964" 
d="M1923 -35h-977v361h-457q-152 -277 -192 -361h-338q459 862 913 1489h1002v-272h-625v-305h553v-269h-553v-370h674v-273zM946 588v491q-136 -193 -241 -368l-74 -123h315zM1335 1987l201 -193l-397 -330l-154 148z" />
    <glyph glyph-name="aeacute" unicode="&#x1fd;" horiz-adv-x="1771" 
d="M993 668h406q-9 94 -59 147t-136 53t-142 -57t-69 -143zM526 -57q-477 0 -477 379q0 98 38 170.5t106.5 114t153.5 61.5t188 20q79 0 151 -16q-4 30 -7.5 47.5t-11 44t-20.5 41.5t-32.5 31t-50 23t-70.5 7q-161 0 -304 -53l-38 258q66 23 165.5 41t198.5 18
q130 0 211.5 -38t132.5 -115q125 131 305 147q59 6 111 0q201 -21 313.5 -164.5t112.5 -400.5q0 -16 -6 -127h-701q40 -223 287 -223q159 0 309 67l45 -258q-48 -25 -132.5 -46t-176.5 -27q-54 -5 -119 -2q-192 9 -317 98q-165 -98 -365 -98zM694 438q-66 17 -131 17
q-215 0 -215 -129t191 -129q109 0 202 45q-41 87 -47 196zM1036 1663l201 -193l-397 -329l-154 147z" />
    <glyph glyph-name="Oslashacute" unicode="&#x1fe;" horiz-adv-x="1603" 
d="M1524 711q0 -186 -56 -335t-154.5 -244t-229 -145t-283.5 -50q-216 0 -371 94l-123 -162l-196 147l133 170q-166 193 -166 525q0 185 58.5 334.5t158.5 244t229.5 145t276.5 50.5q207 0 370 -99l125 164l197 -145l-133 -172q164 -204 164 -522zM397 711q0 -145 58 -252
q104 135 285 370t249 324q-77 51 -188 51q-187 0 -295.5 -133.5t-108.5 -359.5zM1206 711q0 146 -55 250l-539 -693q79 -51 189 -51q188 0 296.5 133.5t108.5 360.5zM911 1987l201 -193l-395 -330l-154 148z" />
    <glyph glyph-name="oslashacute" unicode="&#x1ff;" horiz-adv-x="1220" 
d="M1153 535q0 -267 -149.5 -431.5t-393.5 -164.5q-153 0 -268 69l-100 -131l-174 131l112 144q-112 147 -112 383q0 266 152.5 430.5t389.5 164.5q151 0 269 -71q17 22 52 68t50 65l172 -131l-111 -146q111 -147 111 -380zM362 549q13 -61 50 -96l295 383q-55 34 -127 28
q-100 -10 -158 -95t-60 -220zM858 522q-13 58 -49 92l-297 -385q64 -33 131 -24q99 11 156.5 95t58.5 222zM727 1663l201 -193l-396 -329l-155 147z" />
    <glyph glyph-name="uni0200" unicode="&#x200;" horiz-adv-x="1404" 
d="M1374 -16h-246l-96 12q-35 101 -98 295h-535q-6 -16 -45.5 -131t-58.5 -176h-309q174 500 295 826t249 624h295q126 -298 246.5 -618.5t302.5 -831.5zM670 1094q-32 -64 -63.5 -151.5t-76 -229t-61.5 -191.5h397q-24 71 -67 204.5t-74 224t-55 143.5zM543 1868l188 155
l285 -399l-162 -123zM137 1860l199 163l285 -399l-162 -123z" />
    <glyph glyph-name="uni0201" unicode="&#x201;" horiz-adv-x="1093" 
d="M977 31q-72 -29 -191 -48.5t-256 -19.5q-471 0 -471 361q0 345 514 378q24 2 65 4.5t48 2.5q-3 97 -46 144.5t-148 47.5q-154 0 -295 -63l-54 217q174 71 387 71q400 0 441 -344q6 -64 6 -133v-618zM688 188v324q-96 0 -119 -2q-102 -10 -159.5 -50t-57.5 -128
q0 -160 197 -160q90 0 139 16zM367 1552l188 158l287 -399l-164 -123zM-39 1546l199 164l284 -399l-161 -123z" />
    <glyph glyph-name="uni0202" unicode="&#x202;" horiz-adv-x="1404" 
d="M1374 -16h-246l-96 12q-35 101 -98 295h-535q-6 -16 -45.5 -131t-58.5 -176h-309q174 500 295 826t249 624h295q126 -298 246.5 -618.5t302.5 -831.5zM670 1094q-32 -64 -63.5 -151.5t-76 -229t-61.5 -191.5h397q-24 71 -67 204.5t-74 224t-55 143.5zM700 1898
q160 0 245 -97.5t85 -280.5h-221q-7 149 -109 149q-101 0 -108 -149h-221q-4 181 83.5 279.5t245.5 98.5z" />
    <glyph glyph-name="uni0203" unicode="&#x203;" horiz-adv-x="1093" 
d="M549 1630q160 0 245 -97.5t85 -281.5h-222q-7 152 -108 152q-102 0 -109 -152h-221q-4 182 83.5 280.5t246.5 98.5zM977 31q-72 -29 -191 -48.5t-256 -19.5q-471 0 -471 361q0 345 514 378q52 3 113 -2q-3 98 -46.5 149.5t-147.5 51.5q-154 0 -295 -63l-54 217
q174 71 387 71q400 0 441 -344q6 -64 6 -133v-618zM688 188v324q-96 0 -119 -2q-102 -10 -159.5 -50t-57.5 -128q0 -160 197 -160q90 0 139 16z" />
    <glyph glyph-name="uni0204" unicode="&#x204;" horiz-adv-x="1196" 
d="M1001 -16h-866v1446h842v-242h-526v-338h464v-240h-464v-385h550v-241zM543 1868l188 155l285 -399l-162 -123zM137 1860l199 163l285 -399l-162 -123z" />
    <glyph glyph-name="uni0205" unicode="&#x205;" horiz-adv-x="1163" 
d="M1063 485l-682 -47q17 -120 86 -179.5t195 -59.5q166 0 296 63l56 -223q-65 -33 -165.5 -56.5t-217.5 -23.5q-271 0 -413 157.5t-142 426.5q0 137 38.5 248t107 184t162 112t202.5 39q209 0 332.5 -121.5t140.5 -353.5q0 -9 1 -27.5t1 -27.5q2 -33 2 -111zM772 662
q-9 243 -192 243q-95 0 -151.5 -73.5t-57.5 -202.5zM367 1552l188 158l287 -399l-164 -123zM-39 1546l199 164l284 -399l-161 -123z" />
    <glyph glyph-name="uni0206" unicode="&#x206;" horiz-adv-x="1196" 
d="M1061 -16h-922v1450h885v-252h-565v-324h497v-248h-497v-377h602v-249zM625 1898q160 0 244.5 -97.5t84.5 -280.5h-221q-7 149 -108 149q-58 0 -82 -39.5t-29 -109.5h-221q-3 182 84.5 280t247.5 98z" />
    <glyph glyph-name="uni0207" unicode="&#x207;" horiz-adv-x="1163" 
d="M76 537q0 136 40.5 247t110.5 183.5t165 111.5t204 39q206 0 330 -115.5t147 -332.5q6 -46 6 -99q3 -55 0 -110l-690 -23q15 -115 83.5 -173t199.5 -58q173 0 297 61l55 -231q-64 -32 -165 -55t-218 -23q-144 0 -253.5 44t-177 123t-101 182.5t-33.5 228.5zM379 639
l403 10q-5 115 -53 176.5t-137 61.5q-94 0 -151 -70t-62 -178zM596 1573q160 0 245 -97.5t85 -281.5h-221q-7 152 -109 152t-109 -152h-221q-4 182 83.5 280.5t246.5 98.5z" />
    <glyph glyph-name="uni0208" unicode="&#x208;" horiz-adv-x="585" 
d="M453 -16h-316v1446h316v-1446zM129 1868l188 155l285 -399l-162 -123zM-276 1860l198 163l285 -399l-162 -123z" />
    <glyph glyph-name="uni0209" unicode="&#x209;" horiz-adv-x="544" 
d="M422 1104v-1139h-299v1139h299zM137 1552l189 158l284 -399l-161 -123zM-268 1546l198 164l285 -399l-162 -123z" />
    <glyph glyph-name="uni020A" unicode="&#x20a;" horiz-adv-x="585" 
d="M139 -16v1450h320v-1450h-320zM297 1954q160 0 245 -98.5t85 -282.5h-221q-7 151 -109 151q-58 0 -82 -40t-29 -111h-221q-3 183 84.5 282t247.5 99z" />
    <glyph glyph-name="uni020B" unicode="&#x20b;" horiz-adv-x="544" 
d="M422 1104v-1139h-299v1139h299zM274 1630q160 0 245 -97.5t85 -281.5h-221q-7 152 -109 152q-101 0 -108 -152h-221q-4 182 83 280.5t246 98.5z" />
    <glyph glyph-name="uni020C" unicode="&#x20c;" horiz-adv-x="1603" 
d="M1356 707q0 -343 -170 -545.5t-465 -202.5q-294 0 -464.5 202.5t-170.5 545.5q0 341 171.5 545t463.5 204t463.5 -204t171.5 -545zM1034 713q0 142 -32 251.5t-104 178.5t-177 69q-80 0 -141.5 -39.5t-98.5 -108.5t-56 -158t-19 -193q0 -142 31.5 -251.5t104.5 -178
t179 -68.5q105 0 177.5 68.5t104 178t31.5 251.5zM543 1868l188 155l285 -399l-162 -123zM137 1860l199 163l285 -399l-162 -123z" />
    <glyph glyph-name="uni020D" unicode="&#x20d;" horiz-adv-x="1220" 
d="M1100 543q0 -262 -137 -423t-375 -161q-236 0 -374 161t-138 423q0 261 139 422t373 161q235 0 373.5 -161t138.5 -422zM795 545q0 160 -51 256t-156 96q-107 0 -158 -96t-51 -256q0 -159 51.5 -253.5t157.5 -94.5q105 0 156 94t51 254zM375 1552l190 158l285 -399
l-162 -123zM-31 1546l199 164l287 -399l-164 -123z" />
    <glyph glyph-name="uni020E" unicode="&#x20e;" horiz-adv-x="1603" 
d="M1358 707q0 -344 -169.5 -546t-465.5 -202q-294 0 -464.5 202.5t-170.5 545.5q0 341 172 545t463 204q293 0 464 -203.5t171 -545.5zM1036 713q0 105 -18.5 194t-55.5 158t-98 108t-141 39q-79 0 -140 -39.5t-98 -108.5t-56 -158t-19 -193q0 -142 31.5 -251.5t104 -178
t177.5 -68.5q80 0 141.5 39t98.5 108t55 157t18 194zM686 1921q159 0 247 -98.5t85 -280.5h-113q-4 74 -58.5 133.5t-160.5 59.5q-56 0 -98 -18t-66 -48t-35.5 -62t-13.5 -65h-117q-3 181 84.5 280t245.5 99z" />
    <glyph glyph-name="uni020F" unicode="&#x20f;" horiz-adv-x="1220" 
d="M1100 543q0 -262 -137 -423t-375 -161q-236 0 -374 161t-138 423q0 261 139 422t373 161q235 0 373.5 -161t138.5 -422zM795 545q0 160 -51 256t-156 96q-107 0 -158 -96t-51 -256q0 -159 51.5 -253.5t157.5 -94.5q105 0 156 94t51 254zM590 1577q159 0 247 -98.5
t85 -280.5h-113q-4 74 -58.5 133.5t-160.5 59.5q-56 0 -98 -18t-66 -48t-35.5 -62t-13.5 -65h-117q-3 181 84.5 280t245.5 99z" />
    <glyph glyph-name="uni0210" unicode="&#x210;" horiz-adv-x="1320" 
d="M1241 -16h-346q-110 205 -272 465q-18 20 -52 58t-51 58h-71v-581h-312v1402q199 62 420 62q302 0 455 -118.5t153 -344.5q0 -143 -83.5 -244t-219.5 -137v-2q140 -176 379 -618zM850 979q0 118 -62 175t-182 63q-34 4 -94 0q-35 -3 -63 -9v-471q46 -4 88 -4
q155 0 234 58.5t79 187.5zM543 1868l188 155l285 -399l-162 -123zM137 1860l199 163l285 -399l-162 -123z" />
    <glyph glyph-name="uni0211" unicode="&#x211;" horiz-adv-x="821" 
d="M770 1098q-3 -13 -53 -219q-60 12 -123 4q-23 10 -55 10q-65 0 -113 -19v-890h-303v1056q180 77 403 82q115 3 244 -24zM367 1552l188 158l287 -399l-164 -123zM-39 1546l199 164l284 -399l-161 -123z" />
    <glyph glyph-name="uni0212" unicode="&#x212;" horiz-adv-x="1320" 
d="M1208 979q0 -132 -72.5 -229.5t-191.5 -149.5q78 -98 177.5 -273.5t176.5 -342.5h-348q-102 201 -280 493q-16 10 -46.5 33t-45.5 33h-121v-559h-318v1411q191 53 430 53q318 0 478.5 -119.5t160.5 -349.5zM584 1210q-69 0 -127 -8v-465q15 0 48 -1t50 -1q163 0 247.5 53
t84.5 185q0 127 -79 182t-224 55zM629 1898q160 0 246 -97.5t86 -280.5h-222q-5 70 -28.5 109.5t-81.5 39.5q-102 0 -109 -149h-221q-3 181 84.5 279.5t245.5 98.5z" />
    <glyph glyph-name="uni0213" unicode="&#x213;" horiz-adv-x="821" 
d="M561 1114q125 0 246 -33q-26 -120 -51 -223q-58 13 -133 8q-39 11 -56 11q-78 0 -133 -19v-874h-307v1048q192 82 434 82zM485 1573q159 0 246.5 -98.5t83.5 -280.5h-221q-7 152 -109 152q-101 0 -108 -152h-221q-4 182 83 280.5t246 98.5z" />
    <glyph glyph-name="uni0214" unicode="&#x214;" horiz-adv-x="1423" 
d="M1202 473q0 -234 -140.5 -375t-397.5 -141q-225 0 -363 113t-162 305q-10 105 -10 196v859h313v-812q0 -214 48.5 -307.5t181.5 -93.5q95 0 154.5 56t66.5 169q6 82 6 179v809h303v-957zM543 1868l188 155l285 -399l-162 -123zM137 1860l199 163l285 -399l-162 -123z" />
    <glyph glyph-name="uni0215" unicode="&#x215;" 
d="M1049 51q-141 -90 -463 -90q-131 0 -223 33t-145.5 98.5t-77 152.5t-23.5 204v655h303v-567q0 -61 1.5 -98t7 -81.5t17 -69.5t31 -48t50.5 -33t73 -10q88 0 145 22v885h304v-1053zM367 1552l188 158l287 -399l-164 -123zM-39 1546l199 164l284 -399l-161 -123z" />
    <glyph glyph-name="uni0216" unicode="&#x216;" horiz-adv-x="1423" 
d="M690 -45q-559 0 -559 602v877h320v-828q0 -205 56.5 -295t186.5 -90q133 0 189.5 90t56.5 297v826h309v-932q0 -251 -143.5 -399t-415.5 -148zM713 1898q160 0 244.5 -97.5t84.5 -280.5h-221q-7 149 -108 149q-102 0 -109 -149h-221q-4 181 83.5 279.5t246.5 98.5z" />
    <glyph glyph-name="uni0217" unicode="&#x217;" 
d="M1075 1094v-1049q-145 -84 -473 -84q-254 0 -368.5 123t-114.5 362v648h307v-551q0 -73 4 -122t15.5 -92.5t33 -68.5t56 -39t83.5 -14q96 0 150 14v873h307zM588 1573q160 0 245 -97.5t85 -281.5h-222q-7 152 -108 152q-102 0 -109 -152h-221q-4 182 83.5 280.5
t246.5 98.5z" />
    <glyph glyph-name="Scommaaccent" unicode="&#x218;" horiz-adv-x="1132" 
d="M467 219q233 0 233 158q0 36 -13.5 65.5t-34 50t-61 42.5t-77 38t-99.5 41q-12 5 -18 7q-144 66 -224 152t-93 206q-6 56 0 115q20 172 152.5 270t345.5 98q120 0 226 -29.5t179 -72.5l-88 -236q-139 84 -293 84q-211 0 -211 -145q0 -41 15.5 -71t58 -57.5t76 -43
t111.5 -47.5q5 -2 8 -3.5t7.5 -3t8.5 -3.5q93 -42 155 -81t109.5 -91.5t69.5 -119t22 -153.5q0 -203 -142.5 -318.5t-395.5 -115.5q-151 0 -266.5 32t-184.5 74l84 252q151 -94 340 -94zM444 -137v61h254q11 -57 11 -69v-43q-2 -67 -25 -118.5t-62 -82t-86 -46.5t-102 -18
h-49q-61 7 -90 19v194q77 0 113 22.5t36 80.5z" />
    <glyph glyph-name="scommaaccent" unicode="&#x219;" horiz-adv-x="942" 
d="M391 201q160 0 160 92q0 49 -42 78.5t-173 83.5q-133 61 -197.5 132.5t-64.5 188.5q0 154 110 248t299 94q195 0 340 -69q-9 -29 -31 -105.5t-36 -118.5q-118 58 -238 58q-63 0 -102 -23t-39 -67q0 -20 6.5 -35.5t15 -26t30.5 -23.5t38 -20.5t54 -25t63 -29.5
q148 -68 214 -140t66 -194q0 -162 -119 -251t-335 -89q-212 0 -363 74l70 237q127 -69 274 -69zM344 -137v61h256q1 -3 10 -69v-43q-6 -131 -82 -195.5t-192 -69.5h-51q-58 7 -88 19v194q77 0 112 22.5t35 80.5z" />
    <glyph glyph-name="uni021A" unicode="&#x21a;" horiz-adv-x="1198" 
d="M29 1434h1077v-254h-381v-1196h-317v1196h-379v254zM463 -137v61h256q2 -14 4 -27.5t3.5 -25.5t2.5 -16q0 -33 -2 -43q-2 -67 -25 -118.5t-61.5 -82t-85.5 -46.5t-102 -18h-50q-54 7 -90 19v194q77 0 113.5 22.5t36.5 80.5z" />
    <glyph glyph-name="uni021B" unicode="&#x21b;" horiz-adv-x="858" 
d="M446 1425v-331h330v-240h-330v-430q0 -125 34.5 -172t111.5 -47q97 0 186 47q11 -87 33 -229q-112 -57 -246 -62q-82 -3 -146.5 10.5t-109 38.5t-76.5 68t-50 87t-28 107.5t-13 119t-3 130.5l4 332h-102v240h98v270zM371 -137v61h254q8 -42 10 -69v-43q-3 -89 -43 -150.5
t-99 -88t-133 -26.5q-4 0 -14 -0.5t-18.5 -0.5t-16.5 1q-61 7 -90 19v194q77 0 113.5 22.5t36.5 80.5z" />
    <glyph glyph-name="uni021C" unicode="&#x21c;" horiz-adv-x="1124" 
d="M434 1210q-81 0 -171 -27t-167 -69l-106 256q94 51 212.5 83t237.5 32q149 0 262.5 -41.5t188.5 -133t92 -225.5q7 -51 4 -129q-12 -99 -70 -184t-151 -139q135 -61 210 -175.5t75 -256.5q0 -134 -46 -240.5t-124 -175.5t-186.5 -114.5t-227 -65t-252.5 -19.5
q-123 0 -207 13l21 276q79 -10 176 -10q78 0 146.5 10.5t133 34t109.5 68t61 106.5q74 68 66 166q-11 62 -49 107.5t-92.5 69.5t-111.5 35t-118 11h-141v272h125q95 0 169.5 25.5t122.5 83t48 141.5q0 101 -63 158t-177 57z" />
    <glyph glyph-name="uni021D" unicode="&#x21d;" horiz-adv-x="923" 
d="M342 866q-140 -3 -285 -61l-65 254q67 27 165 49t187 22q105 0 190 -22.5t151 -69t102 -124.5t36 -183q0 -89 -49.5 -166t-134.5 -123q109 -46 170 -130.5t61 -205.5q0 -82 -25.5 -152t-70.5 -122.5t-109 -94.5t-138.5 -69.5t-162 -46t-176 -27t-184.5 -8.5l-16 260
q59 3 105.5 6t108.5 11.5t109 20t96.5 31.5t81 46t52 64t20.5 84q0 176 -285 176h-79v258q323 0 323 180q0 69 -45.5 106t-132.5 37z" />
    <glyph glyph-name="uni021E" unicode="&#x21e;" horiz-adv-x="1466" 
d="M965 858v576h319v-1450h-319v622h-506v-622h-320v1450h320v-576h506zM518 1966l215 -178l213 178l135 -154l-348 -331l-344 331z" />
    <glyph glyph-name="uni021F" unicode="&#x21f;" 
d="M434 -16h-307v1601q255 25 307 29v-535q92 30 176 33q118 5 204 -19t137.5 -67.5t82 -114.5t41 -146t10.5 -175v-606h-305v551q0 78 -4 128.5t-16 94.5t-34 68t-57 37.5t-87 13.5q-38 0 -83.5 -8.5t-64.5 -16.5v-868zM729 1855l-321 -245l-324 245l104 158l220 -137
l217 137z" />
    <glyph glyph-name="uni0220" unicode="&#x220;" horiz-adv-x="1404" 
d="M1276 866v-1280h-309v1262q0 186 -72 272t-225 86q-120 0 -224 -22v-1219h-307v1417q64 53 212 78t339 25q130 0 231 -30.5t167.5 -84t109 -132.5t60.5 -170t18 -202z" />
    <glyph glyph-name="uni0221" unicode="&#x221;" horiz-adv-x="1533" 
d="M1200 49q-34 0 -57 -13t-47 -40v-31q0 -64 26.5 -98.5t77.5 -34.5q47 0 72.5 30.5t25.5 76.5t-25.5 78t-72.5 32zM1096 1630v-1376q58 43 141 43q143 0 237.5 -96.5t94.5 -255.5q0 -171 -103 -265t-266 -94q-224 0 -321 174l-146 -163l-166 155l123 146q4 11 9.5 21
t12.5 22t11 20q-115 -12 -203 -2q-212 33 -332 182t-120 389q0 273 136 434.5t378 161.5q119 0 215 -49v504zM797 229v578q-83 53 -185 53q-124 0 -181.5 -85t-57.5 -236q0 -155 73 -241.5t201 -86.5q85 0 150 18z" />
    <glyph glyph-name="uni0222" unicode="&#x222;" horiz-adv-x="1404" 
d="M702 215q142 0 230 52t88 157t-85.5 156t-232.5 51q-146 0 -230.5 -51t-84.5 -156t86.5 -157t228.5 -52zM702 -53q-322 0 -477 121t-155 346q0 123 66.5 217.5t176.5 150.5q-149 99 -149 326q0 168 47 346h299q-39 -201 -39 -330q0 -111 55 -169t176 -58q234 0 234 227
q0 129 -39 330h299q47 -196 47 -346q0 -227 -149 -326q111 -55 177 -149.5t66 -218.5q0 -225 -156 -346t-479 -121z" />
    <glyph glyph-name="uni0223" unicode="&#x223;" horiz-adv-x="1216" 
d="M608 207q111 0 174.5 72t63.5 202q0 129 -64 204t-174 75t-174.5 -75t-64.5 -204q0 -130 64 -202t175 -72zM608 1026q183 0 183 250q0 146 -33 348h286q41 -196 41 -362q0 -249 -155 -355q103 -65 162 -176.5t59 -255.5q0 -244 -147.5 -390t-395.5 -146t-396.5 146
t-148.5 390q0 143 60 255t162 177q-154 106 -154 355q0 180 41 362h285q-31 -190 -31 -348q0 -250 182 -250z" />
    <glyph glyph-name="uni0224" unicode="&#x224;" horiz-adv-x="1204" 
d="M651 -160q56 -18 103 -18q55 0 80 35.5t30 107.5h-823v195q115 219 322 522t372 500h-659v272h1071v-215q-18 -27 -39 -57q-146 -166 -346.5 -440t-337.5 -504h743v-222q0 -199 -59.5 -301t-210.5 -123q-58 -9 -125 -6q-66 0 -158 33z" />
    <glyph glyph-name="uni0225" unicode="&#x225;" horiz-adv-x="983" 
d="M682 -35h-641v187q82 150 220.5 341t270.5 351h-464v260h866v-209q-89 -99 -246.5 -299t-269.5 -371h530v-254q0 -172 -58.5 -265.5t-201.5 -111.5q-129 -23 -266 27l47 217q53 -18 119 -18q50 0 69.5 34.5t24.5 110.5z" />
    <glyph glyph-name="uni0226" unicode="&#x226;" horiz-adv-x="1404" 
d="M1362 -16h-334q-86 281 -102 327h-496q-75 -220 -108 -327h-302q307 899 527 1446h287q84 -209 178.5 -465t160.5 -443t189 -538zM862 535q-17 51 -63 195.5t-72 219.5q-14 43 -29.5 94t-17.5 58q-10 -18 -33 -103q-20 -67 -45 -142t-58 -173t-50 -149h368zM649 1559
q-71 0 -120.5 47t-49.5 123q0 75 49.5 121t120.5 46t119.5 -46t48.5 -121q0 -76 -48.5 -123t-119.5 -47z" />
    <glyph glyph-name="uni0227" unicode="&#x227;" horiz-adv-x="1093" 
d="M977 31q-72 -29 -191 -48.5t-256 -19.5q-471 0 -471 361q0 345 514 378q52 3 113 -2q-3 98 -46.5 149.5t-147.5 51.5q-154 0 -295 -63l-54 217q174 71 387 71q400 0 441 -344q6 -64 6 -133v-618zM688 188v324q-96 0 -119 -2q-102 -10 -159.5 -50t-57.5 -128
q0 -160 197 -160q90 0 139 16zM549 1229q-71 0 -120.5 47t-49.5 123q0 75 49.5 121.5t120.5 46.5t119.5 -46.5t48.5 -121.5q0 -76 -48.5 -123t-119.5 -47z" />
    <glyph glyph-name="uni0228" unicode="&#x228;" horiz-adv-x="1196" 
d="M807 -174q52 -61 41 -131q-24 -69 -89.5 -110.5t-178.5 -41.5q-90 0 -205 35l43 207q96 -29 149 -29q14 0 19.5 8t1.5 21q-10 17 -31 27.5t-62 24.5q-2 0 -3.5 0.5l-3 1t-3.5 1.5q28 79 52 125h-398v1489h965v-272h-658v-305h586v-269h-586v-370h709v-273h-383
q39 -48 35 -139z" />
    <glyph glyph-name="uni0229" unicode="&#x229;" horiz-adv-x="1163" 
d="M735 -55q36 -46 29 -119q53 -53 45 -121q-18 -74 -85.5 -118t-184.5 -44q-95 0 -205 35l41 207q96 -29 149 -29q29 0 23 29q-3 5 -7.5 9.5l-8 8t-11 7.5t-11.5 6t-14.5 6t-15 5.5t-17.5 6t-18 6.5q16 59 45 119q-213 41 -317 192t-104 379q0 144 44.5 261t119 189.5
t167.5 111t195 38.5q234 0 367 -145.5t133 -425.5q0 -21 -3.5 -65t-3.5 -62h-700q36 -192 234 -219q63 -4 100 -2q142 10 262 65l45 -256q-47 -25 -125.5 -46.5t-167.5 -28.5zM385 668h406q-9 94 -58.5 147t-134.5 53q-87 0 -143 -56.5t-70 -143.5z" />
    <glyph glyph-name="uni022A" unicode="&#x22a;" horiz-adv-x="1603" 
d="M1356 707q0 -343 -170 -545.5t-465 -202.5q-294 0 -464.5 202.5t-170.5 545.5q0 341 171.5 545t463.5 204t463.5 -204t171.5 -545zM1034 713q0 142 -32 251.5t-104 178.5t-177 69q-80 0 -141.5 -39.5t-98.5 -108.5t-56 -158t-19 -193q0 -142 31.5 -251.5t104.5 -178
t179 -68.5q105 0 177.5 68.5t104 178t31.5 251.5zM375 1923v199h686v-199h-686zM659 1677q-1 -64 -44 -103.5t-105 -39.5q-66 0 -108 40.5t-42 108.5q0 77 43 114.5t105 37.5q67 0 108.5 -40.5t42.5 -117.5zM1077 1683q0 -67 -43 -108t-106 -41q-64 0 -106.5 41.5
t-43.5 112.5q3 74 43 111.5t101 37.5q64 0 109.5 -44.5t45.5 -109.5z" />
    <glyph glyph-name="uni022B" unicode="&#x22b;" horiz-adv-x="1220" 
d="M1100 543q0 -262 -137 -423t-375 -161q-236 0 -374 161t-138 423q0 261 139 422t373 161q235 0 373.5 -161t138.5 -422zM795 545q0 160 -51 256t-156 96q-107 0 -158 -96t-51 -256q0 -159 51.5 -253.5t157.5 -94.5q105 0 156 94t51 254zM242 1595v201h684v-201h-684z
M524 1352q-1 -66 -43.5 -106t-105.5 -40q-64 0 -106 41t-42 109q0 79 42 116t106 37q67 0 107.5 -40t41.5 -117zM942 1356q0 -68 -42.5 -109t-106.5 -41q-62 0 -104.5 41.5t-43.5 114.5q1 73 40.5 109t102.5 38q62 2 108 -43t46 -110z" />
    <glyph glyph-name="uni022C" unicode="&#x22c;" horiz-adv-x="1603" 
d="M1356 707q0 -343 -170 -545.5t-465 -202.5q-294 0 -464.5 202.5t-170.5 545.5q0 341 171.5 545t463.5 204t463.5 -204t171.5 -545zM1034 713q0 142 -32 251.5t-104 178.5t-177 69q-80 0 -141.5 -39.5t-98.5 -108.5t-56 -158t-19 -193q0 -142 31.5 -251.5t104.5 -178
t179 -68.5q105 0 177.5 68.5t104 178t31.5 251.5zM502 1796q59 1 103.5 -10.5t69.5 -26t72 -26.5t109 -11q119 18 244 82l28 -71q-14 -37 -35 -70t-51.5 -64t-74 -49t-93.5 -18q-45 0 -129 36t-124 36q-18 0 -64 -26t-74 -65l-143 132q78 121 162 151zM1094 1868h-656v223
h656v-223z" />
    <glyph glyph-name="uni022D" unicode="&#x22d;" horiz-adv-x="1220" 
d="M1100 543q0 -262 -137 -423t-375 -161q-236 0 -374 161t-138 423q0 261 139 422t373 161q235 0 373.5 -161t138.5 -422zM795 545q0 160 -51 256t-156 96q-107 0 -158 -96t-51 -256q0 -159 51.5 -253.5t157.5 -94.5q105 0 156 94t51 254zM705 1225q-57 0 -144 37.5
t-115 37.5q-26 0 -48.5 -27.5t-49.5 -78.5l-174 109q15 39 38 77t55.5 75t77 60t93.5 23q60 0 145.5 -37t114.5 -37q44 0 97 105l178 -111q-130 -233 -268 -233zM186 1638v201h684v-201h-684z" />
    <glyph glyph-name="uni022E" unicode="&#x22e;" horiz-adv-x="1603" 
d="M1358 707q0 -344 -169.5 -546t-465.5 -202q-294 0 -464.5 202.5t-170.5 545.5q0 341 172 545t463 204q293 0 464 -203.5t171 -545.5zM1036 713q0 105 -18.5 194t-55.5 158t-98 108t-141 39q-79 0 -140 -39.5t-98 -108.5t-56 -158t-19 -193q0 -142 31.5 -251.5t104 -178
t177.5 -68.5q80 0 141.5 39t98.5 108t55 157t18 194zM721 1597q-71 0 -120.5 47t-49.5 123q0 75 49.5 121.5t120.5 46.5t119.5 -46.5t48.5 -121.5q0 -76 -48.5 -123t-119.5 -47z" />
    <glyph glyph-name="uni022F" unicode="&#x22f;" horiz-adv-x="1220" 
d="M1100 543q0 -262 -137 -423t-375 -161q-236 0 -374 161t-138 423q0 261 139 422t373 161q235 0 373.5 -161t138.5 -422zM795 545q0 160 -51 256t-156 96q-107 0 -158 -96t-51 -256q0 -159 51.5 -253.5t157.5 -94.5q105 0 156 94t51 254zM610 1266q-71 0 -119.5 46.5
t-48.5 121.5q0 76 48.5 123t119.5 47t119.5 -47t48.5 -123q0 -75 -48.5 -121.5t-119.5 -46.5z" />
    <glyph glyph-name="uni0230" unicode="&#x230;" horiz-adv-x="1603" 
d="M1356 707q0 -343 -170 -545.5t-465 -202.5q-294 0 -464.5 202.5t-170.5 545.5q0 341 171.5 545t463.5 204t463.5 -204t171.5 -545zM1034 713q0 142 -32 251.5t-104 178.5t-177 69q-80 0 -141.5 -39.5t-98.5 -108.5t-56 -158t-19 -193q0 -142 31.5 -251.5t104.5 -178
t179 -68.5q105 0 177.5 68.5t104 178t31.5 251.5zM422 1913v211h592v-211h-592zM868 1686q0 -67 -43 -108.5t-106 -41.5q-64 0 -107 42t-43 108q0 68 43.5 112.5t108.5 44.5q62 0 104.5 -45t42.5 -112z" />
    <glyph glyph-name="uni0231" unicode="&#x231;" horiz-adv-x="1220" 
d="M1100 543q0 -262 -137 -423t-375 -161q-236 0 -374 161t-138 423q0 261 139 422t373 161q235 0 373.5 -161t138.5 -422zM795 545q0 160 -51 256t-156 96q-107 0 -158 -96t-51 -256q0 -159 51.5 -253.5t157.5 -94.5q105 0 156 94t51 254zM289 1599v209h592v-209h-592z
M733 1370q0 -67 -42 -108t-105 -41q-64 0 -107 41.5t-43 107.5q0 69 43.5 113.5t108.5 44.5q62 0 103.5 -44.5t41.5 -113.5z" />
    <glyph glyph-name="uni0232" unicode="&#x232;" horiz-adv-x="1271" 
d="M1194 1430q-227 -458 -451 -857v-589h-311v587q-204 366 -450 859h346q127 -299 270 -576q146 287 274 576h322zM940 1610h-676v235h676v-235z" />
    <glyph glyph-name="uni0233" unicode="&#x233;" horiz-adv-x="1105" 
d="M1071 1104q-193 -670 -414 -1264q-51 -120 -115 -172.5t-171 -52.5q-18 0 -37.5 2t-35 4.5t-35 7t-31.5 8t-31 10t-27 9.5t-26 10t-21 8l61 201q78 -37 115 -37q16 0 29.5 5t24.5 17.5t18 21t15 30.5t11 30t10.5 34t8.5 30q-222 542 -389 1098h319q70 -296 170 -610
q44 -169 47 -175q4 7 11 32.5t17.5 72.5t16.5 70q69 232 164 610h295zM891 1266h-678v235h678v-235z" />
    <glyph glyph-name="uni0234" unicode="&#x234;" horiz-adv-x="905" 
d="M571 49q-54 0 -104 -53v-31q0 -64 27 -98.5t79 -34.5q47 0 73 31t26 76q0 46 -26.5 78t-74.5 32zM246 -236l-150 -167l-166 155l240 275q-2 53 -2 149v1403l299 51v-1374q58 41 143 41q143 0 237.5 -96.5t94.5 -255.5q0 -171 -103.5 -265t-265.5 -94q-232 0 -327 178z
" />
    <glyph glyph-name="uni0235" unicode="&#x235;" horiz-adv-x="1513" 
d="M1182 49q-57 0 -107 -53v-31q0 -64 27.5 -98.5t79.5 -34.5q47 0 72.5 30.5t25.5 76.5t-25.5 78t-72.5 32zM1075 600v-346q61 43 144 43q130 0 221.5 -81t101.5 -220q9 -67 -4 -135q-24 -131 -120.5 -203t-235.5 -72q-233 0 -328 178l-147 -167l-168 155l239 275v98v436
q0 165 -44.5 231t-160.5 66q-93 0 -151 -14v-879h-299v1094q236 67 471 67q110 0 193 -25t137.5 -69.5t88.5 -111.5t48 -144.5t14 -175.5z" />
    <glyph glyph-name="uni0236" unicode="&#x236;" horiz-adv-x="933" 
d="M467 844v-590q61 43 143 43q143 0 237.5 -96.5t94.5 -255.5q0 -171 -103.5 -265t-265.5 -94q-232 0 -327 178l-150 -167l-166 155l240 275q-2 41 -2 110v1249l299 50v-332h391v-260h-391zM571 47q-54 0 -104 -53v-31q0 -63 27 -98t79 -35q47 0 73 31.5t26 77.5t-26 77
t-75 31z" />
    <glyph glyph-name="uni0237" unicode="&#x237;" horiz-adv-x="544" 
d="M14 -416q-91 0 -192 37l41 256q77 -27 135 -27q71 0 98 42.5t27 136.5v1075h299v-1077q0 -225 -101 -334t-307 -109z" />
    <glyph glyph-name="uni0238" unicode="&#x238;" horiz-adv-x="1890" 
d="M1096 807v-586q47 -14 149 -14q128 0 201.5 88.5t73.5 243.5q0 150 -59 235.5t-183 85.5q-104 0 -182 -53zM1096 1630v-553q100 49 219 49q241 0 375.5 -161.5t134.5 -429.5q0 -274 -155.5 -434t-422.5 -160q-152 0 -301 49q-152 -49 -301 -49q-267 0 -422 158t-155 431
t136 434.5t378 161.5q119 0 215 -49v504zM797 221v586q-83 53 -185 53q-124 0 -181.5 -85t-57.5 -236q0 -156 72.5 -244t201.5 -88q99 0 150 14z" />
    <glyph glyph-name="uni0239" unicode="&#x239;" horiz-adv-x="1890" 
d="M1096 846v-584q78 -53 182 -53q124 0 183 84.5t59 234.5q0 155 -73.5 242.5t-201.5 87.5q-95 0 -149 -12zM1096 -8v-406h-299v406q-100 -49 -222 -49q-241 0 -374 159.5t-133 429.5q0 271 155.5 432.5t421.5 161.5q144 0 299 -51q155 51 303 51q267 0 422.5 -160
t155.5 -434q0 -267 -134.5 -428t-375.5 -161q-119 0 -219 49zM797 262v584q-58 12 -150 12q-129 0 -201.5 -87.5t-72.5 -242.5q0 -150 57.5 -234.5t181.5 -84.5q102 0 185 53z" />
    <glyph glyph-name="uni023A" unicode="&#x23a;" horiz-adv-x="1523" 
d="M1024 1602l221 -66l-168 -463q57 -133 121.5 -300t159 -418.5t139.5 -370.5h-305q-47 131 -113 307h-286l-193 -529l-219 74l164 455h-123q-21 -55 -56.5 -156.5t-54.5 -150.5h-286q177 493 312.5 835t276.5 635h258q34 -73 52 -123zM496 520h133l178 486q-33 82 -59 141
q-158 -360 -252 -627zM877 520h120q-11 30 -29.5 82t-31.5 82z" />
    <glyph glyph-name="uni023B" unicode="&#x23b;" horiz-adv-x="1323" 
d="M1016 1647l229 -70l-61 -166l63 -29q13 -3 38.5 -8t27.5 -6l-101 -278q-82 45 -118 57l-344 -907q86 -18 174 -9q146 14 272 78l88 -258q-72 -45 -202.5 -79.5t-286.5 -34.5q-70 0 -146 22l-76 -207l-225 70l76 203q-168 90 -257 264t-89 422q0 181 57 329t156.5 244.5
t231.5 148.5t284 52q94 0 145 -10zM397 713q0 -257 129 -389q115 307 332 872q-49 6 -98 0q-170 -15 -266.5 -142t-96.5 -341z" />
    <glyph glyph-name="uni023C" unicode="&#x23c;" horiz-adv-x="1015" 
d="M637 -59q-65 0 -127 12l-55 -174l-205 59l57 185q-118 75 -178.5 207t-60.5 302q0 171 66 305.5t194 213.5t299 79q6 0 19 -1t20 -1l55 168l203 -57l-50 -152q98 -32 117 -40l-69 -254q-94 40 -125 47l-201 -621q58 -10 111 -8q107 8 215 59l51 -260q-62 -30 -153 -49.5
t-183 -19.5zM297 610q-22 -105 6 -211t96 -161l215 671q-125 9 -211.5 -72t-105.5 -227z" />
    <glyph glyph-name="uni023D" unicode="&#x23d;" horiz-adv-x="1122" 
d="M473 242h645v-277h-954v664h-166v243h166v582h309v-582h303v-243h-303v-387z" />
    <glyph glyph-name="uni023E" unicode="&#x23e;" horiz-adv-x="1306" 
d="M944 1624l62 -33l-684 -1673l-60 33zM1036 1186h-344v-1202h-313v1202h-344v244h1001v-244z" />
    <glyph glyph-name="uni023F" unicode="&#x23f;" horiz-adv-x="942" 
d="M696 -158q38 0 131 17l31 -244q-70 -19 -158 -27q-51 0 -69 2q-99 4 -175.5 52t-160.5 139q-16 19 -61 74.5t-64 76t-57 53.5t-80 56l88 225q161 -67 305 -67q168 0 168 84q0 41 -38 66t-155 73q-53 21 -89.5 37.5t-78 40t-68 49.5t-50 60t-34.5 78t-11 97
q0 160 114.5 252t315.5 92q182 0 348 -65l-57 -252q-126 51 -240 57q-45 3 -78 -2q-106 -13 -106 -75q0 -41 38 -67t142 -67h-2q97 -36 157 -67.5t106 -75t65.5 -99t19.5 -132.5q0 -129 -79.5 -206.5t-225.5 -99.5q-64 -8 -103 -6q22 -22 74 -71q33 -31 61.5 -44.5
t75.5 -13.5z" />
    <glyph glyph-name="uni0240" unicode="&#x240;" horiz-adv-x="983" 
d="M1004 -135l30 -248q-62 -18 -135 -25q-63 -3 -111 5q-56 7 -107 31t-91 56.5t-78.5 71t-78.5 75t-82.5 67t-98.5 49t-119 18.5h-92v187q82 150 220.5 341t270.5 351h-464v260h866v-197q-10 -13 -124.5 -155t-233.5 -299.5t-199 -282.5q75 -21 132.5 -62.5t121.5 -107.5
q7 -6 31.5 -30.5t33 -32.5t30 -27t34 -26.5t32 -18t37.5 -14t37 -3.5q45 0 138 17z" />
    <glyph glyph-name="uni0241" unicode="&#x241;" horiz-adv-x="1007" 
d="M520 383v-418h-309v445q0 54 8.5 101t20.5 82t36.5 70t44 57.5t57 51.5t61 45.5t69.5 46.5v-2q80 54 114.5 94.5t34.5 104.5q0 73 -60 109t-159 36q-92 0 -190 -32t-166 -72l-100 258q80 48 209.5 86.5t250.5 38.5q256 0 393.5 -107.5t137.5 -304.5q0 -62 -13 -114.5
t-32 -89t-54 -73.5t-64.5 -60.5t-76.5 -57.5q-39 -27 -54.5 -38t-45 -34t-41 -36t-29.5 -36t-25 -43.5t-12.5 -48t-5.5 -59.5z" />
    <glyph glyph-name="uni0242" unicode="&#x242;" horiz-adv-x="882" 
d="M481 221v-256h-299v277q0 53 11 98t27.5 77.5t44 63t52.5 50.5t60 44q21 16 56 39.5t52 36t36.5 31.5t27.5 39t8 45q0 96 -164 96q-75 0 -162.5 -27t-156.5 -69l-99 248q63 40 184.5 78t233.5 38q224 0 342.5 -93.5t118.5 -260.5q0 -63 -15.5 -115t-45 -91t-61 -66
t-75.5 -55q-48 -32 -71.5 -49.5t-52.5 -46.5t-40.5 -60.5t-11.5 -71.5z" />
    <glyph glyph-name="uni0243" unicode="&#x243;" horiz-adv-x="1351" 
d="M600 -49q-235 0 -448 45v338h-154v162h154v927q202 45 432 45q630 0 630 -419q0 -91 -41 -164t-112 -115q114 -47 168.5 -133t54.5 -221q0 -465 -684 -465zM692 612l-129 -14v-102h117v-162h-117v-111q9 0 35 -1t50.5 -1t45.5 2q275 18 275 199q0 100 -69.5 143.5
t-207.5 46.5zM455 1196v-328h172q140 0 211 38t71 132q0 164 -297 164q-108 0 -157 -6z" />
    <glyph glyph-name="uni0244" unicode="&#x244;" horiz-adv-x="1488" 
d="M741 -63q-152 0 -265.5 44t-182.5 125t-103 187.5t-34 238.5v125h-158v244h158v553h309v-553h557v553h309v-553h158v-244h-158v-125q0 -133 -34.5 -239.5t-104 -187t-184.5 -124.5t-267 -44zM743 215q122 0 194.5 72.5t82.5 222.5q2 27 2 84v63h-557v-63q0 -32 4 -86
q9 -149 80.5 -221t193.5 -72z" />
    <glyph glyph-name="uni0245" unicode="&#x245;" horiz-adv-x="1390" 
d="M1417 -35h-338q-249 745 -391 1082q-129 -314 -389 -1082h-326q308 890 586 1489h250l68 -102q248 -540 540 -1387z" />
    <glyph glyph-name="uni0246" unicode="&#x246;" horiz-adv-x="1206" 
d="M1167 -35h-577l-90 -227l-211 76l61 151h-211v1489h799l66 166l213 -74l-271 -669h101v-269h-203l-150 -370h473v-273zM446 1182v-305h263l125 305h-388zM446 608v-293l46 23l114 270h-160z" />
    <glyph glyph-name="uni0247" unicode="&#x247;" horiz-adv-x="1177" 
d="M82 535q0 90 18.5 170t51.5 141.5t79 113t101 84.5t117 54.5t127 23.5t131 -8l51 166l221 -53l-53 -158q71 -29 121 -66t81 -79.5t49 -99.5t24.5 -117t6.5 -142q0 -68 -4 -104l-465 -25l-77 -233q57 -22 138 -15t155.5 28t142.5 52l41 -231q-83 -57 -239 -76.5t-308 8.5
l-55 -147l-215 37l51 164q-291 115 -291 512zM385 637l176 2l84 274q-53 6 -99 -16.5t-77.5 -64t-52.5 -91t-31 -104.5zM498 436l-138 -6q-5 -134 78 -180zM795 643l137 4q18 172 -62 244z" />
    <glyph glyph-name="uni0248" unicode="&#x248;" horiz-adv-x="1085" 
d="M922 1454v-588h163v-243h-163v-160q0 -93 -14.5 -168.5t-51 -143.5t-93.5 -114t-146.5 -73t-206.5 -27q-246 0 -435 137l115 250q168 -111 299 -111q118 0 170.5 60.5t52.5 205.5v144h-272v243h272v588h310z" />
    <glyph glyph-name="uni0249" unicode="&#x249;" horiz-adv-x="583" 
d="M31 -416q-92 0 -193 37l41 256q53 -19 94 -22q43 -6 78 0q29 5 46.5 20.5t26.5 44.5t12 61.5t3 84.5v391h-184v223h184v424h299v-424h154v-223h-154v-396q0 -247 -96 -362t-311 -115zM467 1384q0 -82 -51.5 -131t-126.5 -49q-76 0 -128 49t-52 131t52 131.5t128 49.5
q75 0 126.5 -49.5t51.5 -131.5z" />
    <glyph glyph-name="uni024A" unicode="&#x24a;" horiz-adv-x="1642" 
d="M1206 711q0 228 -108.5 360.5t-296.5 132.5q-187 0 -295.5 -133.5t-108.5 -359.5q0 -227 108.5 -360.5t295.5 -133.5q189 0 297 131.5t108 362.5zM1470 -272q-135 34 -197 125t-63 260q-72 -79 -182.5 -127.5t-236.5 -48.5q-116 0 -221.5 31t-195 95t-155.5 155
t-103.5 217.5t-37.5 275.5q0 185 58.5 334.5t158.5 244t229.5 145t276.5 50.5q150 0 279 -50.5t227.5 -145.5t154.5 -243.5t56 -334.5v-721q0 -75 20.5 -109.5t69.5 -34.5t123 27l43 -256q-80 -26 -136 -31q-86 -1 -122 35.5t-46 106.5z" />
    <glyph glyph-name="uni024B" unicode="&#x24b;" horiz-adv-x="1218" 
d="M797 -57q-56 19 -92 39q-49 -39 -130 -39q-241 0 -374 159.5t-133 429.5q0 271 155.5 432.5t421.5 161.5q235 0 451 -67v-1079q0 -68 18 -101t62 -33q36 0 118 19l45 -244q-98 -35 -204 -35q-179 0 -257 88t-81 269zM797 262v584q-58 12 -150 12q-129 0 -201.5 -87.5
t-72.5 -242.5q0 -150 57.5 -234.5t181.5 -84.5q102 0 185 53z" />
    <glyph glyph-name="uni024C" unicode="&#x24c;" horiz-adv-x="1347" 
d="M668 512q-25 -2 -76 -2h-119v-545h-309v545h-166v262h166v651q213 45 424 45q663 0 663 -489q0 -281 -266 -401q90 -123 196.5 -294t174.5 -319h-340q-190 341 -348 547zM606 1194q-71 0 -133 -8v-414h57q58 0 99 1.5t86 6.5t76 14t60 25t46 37.5t27 53t10 71.5
q0 60 -24.5 103t-70.5 66.5t-102.5 33.5t-130.5 10z" />
    <glyph glyph-name="uni024D" unicode="&#x24d;" horiz-adv-x="835" 
d="M580 1124q64 0 143.5 -13.5t130.5 -35.5l-57 -258q-98 52 -246 39q-68 -6 -113 -27v-237h285v-223h-285v-404h-299v404h-147v223h147v448q224 84 441 84z" />
    <glyph glyph-name="uni024E" unicode="&#x24e;" horiz-adv-x="1406" 
d="M858 -35h-311v582q-110 164 -238 381h-270v241h137q-60 104 -151 285h352q68 -157 139 -285h381q66 124 143 285h340l-155 -285h137v-241h-272q-83 -144 -232 -377v-586zM580 928l137 -228l149 228h-286z" />
    <glyph glyph-name="uni024F" unicode="&#x24f;" horiz-adv-x="1202" 
d="M1155 506h-192q-105 -319 -213 -555q-44 -96 -84.5 -159t-91.5 -109.5t-113.5 -69.5t-145.5 -27q-44 -3 -102 4q-89 8 -172 48l55 247q98 -39 170 -39q78 0 126 38.5t87 127.5q-122 231 -225 494h-205v223h123q-70 190 -117 375h316q40 -173 106 -375h266
q19 69 51.5 204.5t41.5 170.5h307q-76 -281 -105 -375h117v-223zM498 451q10 -23 61.5 -163t67.5 -173q53 151 104 334q-188 0 -233 2z" />
    <glyph glyph-name="uni0259" unicode="&#x259;" horiz-adv-x="1163" 
d="M76 602l682 47q-35 240 -281 240q-165 0 -297 -64l-55 224q64 33 165 56t218 23q271 0 413 -157t142 -426q0 -137 -38.5 -248t-107 -184t-162 -112.5t-202.5 -39.5q-209 0 -332.5 121.5t-140.5 353.5q0 19 -2 71.5t-2 94.5zM367 426q4 -121 53 -182.5t139 -61.5
q95 0 151.5 74t57.5 203z" />
    <glyph glyph-name="uni0292" unicode="&#x292;" horiz-adv-x="999" 
d="M221 281v155l8 45q140 158 287 363h-496v260h889v-197q-151 -213 -327 -420q80 -18 144.5 -51t117 -83.5t81.5 -125t29 -166.5q0 -234 -148.5 -354.5t-414.5 -120.5q-117 0 -234.5 26.5t-191.5 65.5l72 252q168 -75 342 -75q134 0 203 55.5t69 159.5q0 211 -311 211h-119
z" />
    <glyph glyph-name="uni02BB" unicode="&#x2bb;" horiz-adv-x="552" 
d="M281 1702l125 -62q-79 -141 -82 -223q59 -9 92.5 -43t32.5 -86q0 -115 -130 -143q-44 -8 -88.5 1.5t-70.5 33.5q-54 67 -56 125q-6 176 177 397z" />
    <glyph glyph-name="apostrophe" unicode="&#x2bc;" horiz-adv-x="651" 
d="M215 1624h260q16 -36 33 -65q-4 -135 -41 -239.5t-115 -227.5l-215 67q92 194 92 346q0 62 -14 119z" />
    <glyph glyph-name="circumflex" unicode="&#x2c6;" horiz-adv-x="794" 
d="M397 1323l-213 -180l-135 153l348 334l344 -334l-129 -153z" />
    <glyph glyph-name="caron" unicode="&#x2c7;" horiz-adv-x="784" 
d="M184 1640l215 -178l213 178l136 -153l-349 -332l-344 332z" />
    <glyph glyph-name="uni02C8" unicode="&#x2c8;" horiz-adv-x="462" 
d="M102 1223v516h258v-516h-258z" />
    <glyph glyph-name="uni02C9" unicode="&#x2c9;" horiz-adv-x="770" 
d="M723 1266h-676v235h676v-235z" />
    <glyph glyph-name="breve" unicode="&#x2d8;" horiz-adv-x="808" 
d="M406 1204q-160 0 -247.5 98t-84.5 281h221q5 -71 29 -111t82 -40q101 0 108 151h221q0 -184 -85 -281.5t-244 -97.5z" />
    <glyph glyph-name="dotaccent" unicode="&#x2d9;" horiz-adv-x="620" 
d="M311 1214q-71 0 -120.5 47t-49.5 123q0 75 49.5 121.5t120.5 46.5t119.5 -46.5t48.5 -121.5q0 -76 -48.5 -123t-119.5 -47z" />
    <glyph glyph-name="ring" unicode="&#x2da;" horiz-adv-x="710" 
d="M610 1411q0 -117 -73.5 -185.5t-182.5 -68.5q-106 0 -181 68.5t-75 185.5q0 115 75 183.5t181 68.5q109 0 182.5 -68t73.5 -184zM424 1411q0 33 -20.5 52.5t-49.5 19.5q-30 0 -49.5 -19.5t-19.5 -52.5q0 -34 19.5 -54t49.5 -20q29 0 49.5 20t20.5 54z" />
    <glyph glyph-name="ogonek" unicode="&#x2db;" horiz-adv-x="696" 
d="M360 -455q-264 0 -264 201q0 158 219 313h224q-5 -15 -16 -48.5t-17 -51.5q-4 -2 -11.5 -6t-11.5 -6q5 0 9 4l-26 -25q-25 -24 -39.5 -39t-31 -37t-18.5 -36q3 -32 51 -29q41 4 107 25l26 -226q-88 -39 -201 -39z" />
    <glyph glyph-name="tilde" unicode="&#x2dc;" horiz-adv-x="765" 
d="M520 1204q-56 0 -143 38t-117 38q-27 0 -49 -28t-47 -78l-174 108q12 31 28 61t41 63t52.5 57.5t65 40.5t77.5 16q60 0 144.5 -38t113.5 -38q26 0 48.5 27.5t49.5 78.5l176 -112q-130 -234 -266 -234z" />
    <glyph glyph-name="hungarumlaut" unicode="&#x2dd;" horiz-adv-x="839" 
d="M428 1264l285 401l198 -166l-321 -360zM506 1505l-311 -366l-162 125l284 401z" />
    <glyph glyph-name="gravecomb" unicode="&#x300;" horiz-adv-x="0" 
d="M-494 1180h-208l-326 413h364z" />
    <glyph glyph-name="acutecomb" unicode="&#x301;" horiz-adv-x="0" 
d="M-524 1180h-207l168 413h364z" />
    <glyph glyph-name="uni0302" unicode="&#x302;" horiz-adv-x="0" 
d="M-635 1368l-215 -178l-133 153l348 332l344 -332l-129 -153z" />
    <glyph glyph-name="tildecomb" unicode="&#x303;" horiz-adv-x="0" 
d="M-532 1229q-57 0 -144 38t-115 38t-50.5 -28t-47.5 -79l-174 109q16 40 38.5 77.5t54.5 74.5t77 60t94 23q60 0 144.5 -37t113.5 -37q18 0 37 17t31.5 36t30.5 52l176 -111q-130 -233 -266 -233z" />
    <glyph glyph-name="uni0304" unicode="&#x304;" horiz-adv-x="0" 
d="M-299 1266h-678v235h678v-235z" />
    <glyph glyph-name="uni0306" unicode="&#x306;" horiz-adv-x="0" 
d="M-637 1255q-158 0 -246 99t-84 280h222q7 -151 108 -151q102 0 109 151h221q0 -184 -85 -281.5t-245 -97.5z" />
    <glyph glyph-name="uni0307" unicode="&#x307;" horiz-adv-x="0" 
d="M-647 1266q-71 0 -119.5 46.5t-48.5 121.5q0 76 48.5 123t119.5 47t119.5 -47t48.5 -123q0 -75 -48.5 -121.5t-119.5 -46.5z" />
    <glyph glyph-name="uni0308" unicode="&#x308;" horiz-adv-x="0" 
d="M-680 1366q0 -73 -47.5 -118.5t-116.5 -45.5t-116.5 45.5t-47.5 118.5q0 75 47.5 120.5t116.5 45.5t116.5 -45.5t47.5 -120.5zM-201 1366q0 -73 -47.5 -118.5t-116.5 -45.5t-116 45.5t-47 118.5q0 75 47 120.5t116 45.5t116.5 -45.5t47.5 -120.5z" />
    <glyph glyph-name="uni030A" unicode="&#x30a;" horiz-adv-x="0" 
d="M-379 1456q0 -116 -73.5 -184t-182.5 -68q-106 0 -180 67.5t-74 184.5t74 184.5t180 67.5q109 0 182.5 -68t73.5 -184zM-535 1456q0 46 -30 75.5t-70 29.5q-41 0 -69.5 -29.5t-28.5 -75.5q0 -48 28.5 -76t69.5 -28t70.5 28.5t29.5 75.5z" />
    <glyph glyph-name="uni030B" unicode="&#x30b;" horiz-adv-x="0" 
d="M-627 1309l285 401l199 -166l-322 -360zM-549 1550l-311 -366l-162 125l285 401z" />
    <glyph glyph-name="uni030C" unicode="&#x30c;" horiz-adv-x="0" 
d="M-838 1698l215 -178l213 178l136 -154l-349 -332l-344 332z" />
    <glyph glyph-name="uni030D" unicode="&#x30d;" horiz-adv-x="0" 
d="M-752 1223v516h258v-516h-258z" />
    <glyph glyph-name="uni030E" unicode="&#x30e;" horiz-adv-x="0" 
d="M-858 1223v516h258v-516h-258zM-700 1223v516h258v-516h-258z" />
    <glyph glyph-name="uni030F" unicode="&#x30f;" horiz-adv-x="0" 
d="M-956 1710l284 -399l-159 -125l-324 360zM-438 1186l-312 366l191 158l283 -399z" />
    <glyph glyph-name="uni0310" unicode="&#x310;" horiz-adv-x="0" 
d="M-643 1352q159 0 246.5 98.5t83.5 280.5h-111q-4 -74 -58.5 -133.5t-160.5 -59.5q-56 0 -98.5 18t-66 48t-36 61.5t-14.5 65.5h-115q-4 -182 83.5 -280.5t246.5 -98.5zM-641 1628q-71 0 -119.5 47t-48.5 123q0 75 48.5 121.5t119.5 46.5t119.5 -46.5t48.5 -121.5
q0 -76 -48.5 -123t-119.5 -47z" />
    <glyph glyph-name="uni0311" unicode="&#x311;" horiz-adv-x="0" 
d="M-662 1577q159 0 247 -98.5t85 -280.5h-112q-4 74 -59 133.5t-161 59.5q-56 0 -98 -18t-65.5 -48t-35 -62t-13.5 -65h-117q-3 182 84 280.5t245 98.5z" />
    <glyph glyph-name="uni0312" unicode="&#x312;" horiz-adv-x="0" 
d="M-659 1737l127 -64q-79 -136 -84 -221q60 -9 94 -43.5t33 -85.5q-4 -116 -129 -143q-44 -8 -89.5 1t-70.5 33q-54 58 -56 123q-6 175 175 400z" />
    <glyph glyph-name="uni0313" unicode="&#x313;" horiz-adv-x="0" 
d="M-700 985l-84 76q93 85 118 170q-35 13 -55 42t-20 62q0 59 35.5 97t95.5 38q68 0 102 -51t31 -125q-11 -160 -223 -309z" />
    <glyph glyph-name="uni0314" unicode="&#x314;" horiz-adv-x="0" 
d="M-473 1061l-84 -76q-212 149 -223 309q-3 74 31 125t102 51q60 0 95.5 -38t35.5 -97q0 -33 -20.5 -62t-55.5 -42q21 -80 119 -170z" />
    <glyph glyph-name="uni0320" unicode="&#x320;" horiz-adv-x="0" 
d="M-1118 -354v256h1016v-256h-1016z" />
    <glyph glyph-name="dotbelowcomb" unicode="&#x323;" horiz-adv-x="0" 
d="M-610 -442q-70 0 -119 47t-49 123q0 74 49 121t119 47q71 0 120.5 -46.5t49.5 -121.5q0 -76 -49.5 -123t-120.5 -47z" />
    <glyph glyph-name="uni0324" unicode="&#x324;" horiz-adv-x="0" 
d="M-680 -254q0 -75 -47.5 -120.5t-116.5 -45.5t-116.5 45.5t-47.5 120.5q0 73 47.5 118.5t116.5 45.5t116.5 -45.5t47.5 -118.5zM-201 -254q0 -75 -47.5 -120.5t-116.5 -45.5t-116 45.5t-47 120.5q0 73 47 118.5t116 45.5t116.5 -45.5t47.5 -118.5z" />
    <glyph glyph-name="uni0325" unicode="&#x325;" horiz-adv-x="0" 
d="M-379 -375q0 -116 -73.5 -184t-182.5 -68q-106 0 -180 67.5t-74 184.5t74 184.5t180 67.5q109 0 182.5 -68t73.5 -184zM-535 -375q0 46 -30 75.5t-70 29.5q-41 0 -69.5 -29.5t-28.5 -75.5q0 -48 28.5 -76t69.5 -28t70.5 28.5t29.5 75.5z" />
    <glyph glyph-name="uni0331" unicode="&#x331;" horiz-adv-x="0" 
d="M-268 -334h-678v236h678v-236z" />
    <glyph glyph-name="uni0342" unicode="&#x342;" horiz-adv-x="765" 
d="M520 1204q-56 0 -143 38t-117 38q-27 0 -49 -28t-47 -78l-174 108q12 31 28 61t41 63t52.5 57.5t65 40.5t77.5 16q60 0 144.5 -38t113.5 -38q26 0 48.5 27.5t49.5 78.5l176 -112q-130 -234 -266 -234z" />
    <glyph glyph-name="uni0352" unicode="&#x352;" horiz-adv-x="0" 
d="M-643 1966q159 0 246.5 -98.5t83.5 -280.5h-111q-4 74 -58.5 133.5t-160.5 59.5q-56 0 -98.5 -18t-66 -48t-36 -61.5t-14.5 -65.5h-115q-4 182 83.5 280.5t246.5 98.5zM-641 1690q-71 0 -119.5 -47t-48.5 -123q0 -75 48.5 -121.5t119.5 -46.5t119.5 46.5t48.5 121.5
q0 76 -48.5 123t-119.5 47z" />
    <glyph glyph-name="tonos" unicode="&#x384;" horiz-adv-x="657" 
d="M274 1223h-208l170 413h362z" />
    <glyph glyph-name="dieresistonos" unicode="&#x385;" horiz-adv-x="1314" 
d="M463 1323l287 420l219 -162l-328 -389zM430 1348q0 -73 -47.5 -118.5t-116.5 -45.5t-116.5 45.5t-47.5 118.5q0 75 47 120t117 45t117 -45t47 -120zM1219 1348q0 -73 -48 -118.5t-118 -45.5q-68 0 -116 45.5t-48 118.5q0 74 48 119.5t116 45.5q70 0 118 -45.5t48 -119.5z
" />
    <glyph glyph-name="Alphatonos" unicode="&#x386;" horiz-adv-x="1458" 
d="M1421 -16h-334q-86 281 -102 327h-496q-75 -220 -108 -327h-301q312 916 526 1446h287q84 -209 178.5 -465t160.5 -443t189 -538zM922 535q-10 30 -60 183.5t-76 231.5q-14 43 -29.5 94t-17.5 58q-9 -15 -32 -103q-20 -67 -45.5 -143.5t-58 -171t-50.5 -149.5h369z
M242 1102h-209l170 414h362z" />
    <glyph glyph-name="anoteleia" unicode="&#x387;" horiz-adv-x="544" 
d="M471 659q0 -82 -53 -132t-131 -50q-76 0 -129.5 50t-53.5 130q0 81 53.5 133t129.5 52q78 0 131 -51.5t53 -131.5z" />
    <glyph glyph-name="Epsilontonos" unicode="&#x388;" horiz-adv-x="1546" 
d="M1491 -16h-922v1450h885v-252h-565v-324h497v-248h-497v-377h602v-249zM233 1116h-208l170 414h362z" />
    <glyph glyph-name="Etatonos" unicode="&#x389;" horiz-adv-x="1808" 
d="M1399 858v576h319v-1450h-319v622h-506v-622h-320v1450h320v-576h506zM252 1102h-209l170 414h362z" />
    <glyph glyph-name="Iotatonos" unicode="&#x38a;" horiz-adv-x="1015" 
d="M594 -16v1450h319v-1450h-319zM246 1102h-209l170 414h362z" />
    <glyph glyph-name="Omicrontonos" unicode="&#x38c;" horiz-adv-x="1808" 
d="M1710 709q0 -175 -49.5 -317t-138 -237.5t-213 -147.5t-273.5 -52q-147 0 -271 52t-213.5 147.5t-139.5 238t-50 316.5q0 173 50.5 315.5t140 238t213.5 147.5t270 52q148 0 272 -52t213 -147.5t139 -237.5t50 -316zM1382 715q0 221 -91.5 356t-254.5 135t-254.5 -135
t-91.5 -356q0 -223 91.5 -358.5t254.5 -135.5t254.5 135.5t91.5 358.5zM240 1102h-209l170 414h362z" />
    <glyph glyph-name="Upsilontonos" unicode="&#x38e;" horiz-adv-x="1814" 
d="M1288 -16h-317v575q-236 399 -473 875h352q139 -319 289 -584q182 332 291 584h329q-222 -446 -471 -871v-579zM244 1137h-209l170 413h362z" />
    <glyph glyph-name="Omegatonos" unicode="&#x38f;" horiz-adv-x="1724" 
d="M924 1485q149 0 277 -47t224 -136t150.5 -226.5t54.5 -309.5q0 -296 -205 -530h238v-271h-645v223q295 239 295 574q0 209 -106 326.5t-283 117.5t-282 -117.5t-105 -326.5q0 -339 294 -574v-223h-645v271h236q-203 229 -203 530q0 172 54.5 309.5t150.5 226.5t223.5 136
t276.5 47zM51 1499l275 -74l-172 -481l-222 53z" />
    <glyph glyph-name="iotadieresistonos" unicode="&#x390;" horiz-adv-x="581" 
d="M573 190l-41 -245q-236 1 -324.5 79.5t-88.5 272.5v57v750h297v-787q0 -67 32.5 -92.5t124.5 -34.5zM121 1362l287 420l219 -162l-328 -389zM88 1386q0 -73 -47.5 -118t-116.5 -45t-116.5 45t-47.5 118q0 75 47.5 120.5t116.5 45.5t116.5 -45.5t47.5 -120.5zM877 1386
q0 -73 -48 -118t-118 -45q-68 0 -116 45t-48 118q0 74 48 120t116 46q70 0 118 -46t48 -120z" />
    <glyph glyph-name="Alpha" unicode="&#x391;" horiz-adv-x="1404" 
d="M1362 -16h-334q-86 281 -102 327h-496q-75 -220 -108 -327h-302q307 899 527 1446h287q84 -209 178.5 -465t160.5 -443t189 -538zM862 535q-17 51 -63 195.5t-72 219.5q-14 43 -29.5 94t-17.5 58q-10 -18 -33 -103q-20 -67 -45 -142t-58 -173t-50 -149h368z" />
    <glyph glyph-name="Beta" unicode="&#x392;" horiz-adv-x="1339" 
d="M584 -33q-250 0 -445 56v1372q186 53 436 53q140 0 250 -23t192 -71t125.5 -125.5t43.5 -181.5q0 -102 -52.5 -177.5t-134.5 -111.5q114 -42 179 -129.5t65 -222.5q0 -439 -659 -439zM614 627q-26 0 -80.5 -1t-82.5 -1v-412q62 -8 139 -8q76 0 133 10t103.5 33t71 66
t24.5 104q0 113 -75.5 161t-232.5 48zM451 1208v-364h96q65 0 109 3t88.5 14t70.5 31t42.5 55t16.5 85q0 185 -282 185q-82 0 -141 -9z" />
    <glyph glyph-name="Gamma" unicode="&#x393;" horiz-adv-x="1114" 
d="M139 1454h948v-274h-641v-1215h-307v1489z" />
    <glyph glyph-name="uni0394" unicode="&#x394;" horiz-adv-x="1361" 
d="M375 238h604q-184 548 -303 813q-136 -329 -301 -813zM1389 -35h-1369l19 193q125 379 246 679.5t272 616.5h248q162 -344 297 -686t287 -803z" />
    <glyph glyph-name="Epsilon" unicode="&#x395;" horiz-adv-x="1196" 
d="M1061 -16h-922v1450h885v-252h-565v-324h497v-248h-497v-377h602v-249z" />
    <glyph glyph-name="Zeta" unicode="&#x396;" horiz-adv-x="1204" 
d="M1075 1434l-18 -197q-37 -60 -164.5 -255.5t-250 -393.5t-204.5 -355h652v-249h-1047l20 180q101 214 276.5 503.5t332.5 514.5h-586v252h989z" />
    <glyph glyph-name="Eta" unicode="&#x397;" horiz-adv-x="1466" 
d="M965 858v576h319v-1450h-319v622h-506v-622h-320v1450h320v-576h506z" />
    </font>
</defs>
</svg>
