<?xml version="1.0" standalone="no"?>
<!DOCTYPE svg PUBLIC "-//W3C//DTD SVG 1.1//EN" "http://www.w3.org/Graphics/SVG/1.1/DTD/svg11.dtd" >
<svg xmlns="http://www.w3.org/2000/svg" xmlns:xlink="http://www.w3.org/1999/xlink" version="1.1">
<metadata>
Created by FontForge 20170731 at Thu Jun  2 18:52:51 2022
 By Aleksey,,,
Copyright (c) 2015 by Context Ltd. All rights reserved.
</metadata>
<defs>
<font id="Repo-Light" horiz-adv-x="1165" >
  <font-face 
    font-family="Repo"
    font-weight="300"
    font-stretch="normal"
    units-per-em="2048"
    panose-1="2 0 5 3 4 0 0 2 0 4"
    ascent="1638"
    descent="-410"
    x-height="1081"
    cap-height="1413"
    bbox="-1096 -535 2841 2415"
    underline-thickness="245"
    underline-position="-619"
    unicode-range="U+0009-FB04"
  />
<missing-glyph horiz-adv-x="1200" 
d="M102 0v1085h996v-1085h-996zM141 152v-5q132 295 414 580q-79 36 -158 51q-146 -250 -256 -626zM713 641q-165 -84 -296.5 -204.5t-260.5 -289.5q363 255 696 375q-74 77 -139 119zM199 147h860q-17 116 -82 207q-204 -27 -415 -83.5t-363 -123.5z" />
    <glyph glyph-name="f_f" unicode="ff" horiz-adv-x="1540" 
d="M633 993h-316v-993h-120v993h-185v88h185v58q0 199 63.5 310.5t218.5 135.5q98 10 174 -6l-12 -92q-45 8 -82.5 10t-67.5 -4t-53.5 -15.5t-41 -28.5t-30.5 -38t-21.5 -49.5t-14 -57.5t-8.5 -67t-4 -74t-1 -82h316v-88zM1384 993h-315v-993h-121v993h-184v88h184v58
q0 198 64 310t219 136q98 10 174 -6l-12 -92q-45 8 -82.5 10t-67.5 -4t-53.5 -15.5t-41 -28.5t-30.5 -38t-21.5 -49.5t-14 -57.5t-8.5 -67t-4 -74t-1 -82h315v-88z" />
    <glyph glyph-name="f_i" unicode="fi" horiz-adv-x="1255" 
d="M565 1589q77 0 133 -12t78 -25l-26 -114q-71 32 -179 32q-70 0 -117 -16t-76 -44t-44 -81.5t-20 -113.5t-5 -156h426v-113h-426v-946h-133v1174q0 208 96 311.5t293 103.5zM1079 1059v-1059h-133v1059h133zM1110 1378q0 -46 -28 -74t-70 -28t-70.5 28t-28.5 74t28.5 74.5
t70.5 28.5t70 -28.5t28 -74.5z" />
    <glyph glyph-name="f_l" unicode="fl" horiz-adv-x="1292" 
d="M565 1589q77 0 133 -12t78 -25l-26 -114q-71 32 -179 32q-70 0 -117 -16t-76 -44t-44 -81.5t-20 -113.5t-5 -156h426v-113h-426v-946h-133v1174q0 208 96 311.5t293 103.5zM1233 66l-29 -95q-53 10 -87.5 21t-71 35.5t-57 60.5t-33.5 96t-13 142v1271h121v-1118
q0 -68 1 -116.5t6 -89.5t9.5 -67t16 -48t21.5 -34t30.5 -23.5t37.5 -18t48 -16.5z" />
    <glyph glyph-name="f_f_i" unicode="ffi" horiz-adv-x="2025" 
d="M565 1589q77 0 133 -12t78 -25l-26 -114q-71 32 -179 32q-70 0 -117 -16t-76 -44t-44 -81.5t-20 -113.5t-5 -156h426v-113h-426v-946h-133v1174q0 208 96 311.5t293 103.5zM1335 1589q77 0 133 -12t78 -25l-26 -114q-71 32 -179 32q-70 0 -117 -16t-76 -44t-44 -81.5
t-20 -113.5t-5 -156h426v-113h-426v-946h-133v1174q0 208 96 311.5t293 103.5zM1849 1059v-707v-352h-67h-66v707v352h133zM1880 1378q0 -46 -28 -74t-70 -28t-70.5 28t-28.5 74t28.5 74.5t70.5 28.5t70 -28.5t28 -74.5z" />
    <glyph glyph-name="f_f_l" unicode="ffl" horiz-adv-x="2062" 
d="M565 1589q77 0 133 -12t78 -25l-26 -114q-71 32 -179 32q-70 0 -117 -16t-76 -44t-44 -81.5t-20 -113.5t-5 -156h426v-113h-426v-946h-133v1174q0 208 96 311.5t293 103.5zM1335 1589q77 0 133 -12t78 -25l-26 -114q-71 32 -179 32q-70 0 -117 -16t-76 -44t-44 -81.5
t-20 -113.5t-5 -156h426v-113h-426v-946h-133v1174q0 208 96 311.5t293 103.5zM2001 66l-29 -95q-53 10 -87.5 21t-71 35.5t-57 60.5t-33.5 96t-13 142v1271h121v-1118q0 -68 1 -116.5t6 -89.5t9.5 -67t16 -48t21.5 -34t30.5 -23.5t37.5 -18t48 -16.5z" />
    <glyph glyph-name=".notdef" horiz-adv-x="1200" 
d="M102 0v1085h996v-1085h-996zM141 152v-5q132 295 414 580q-79 36 -158 51q-146 -250 -256 -626zM713 641q-165 -84 -296.5 -204.5t-260.5 -289.5q363 255 696 375q-74 77 -139 119zM199 147h860q-17 116 -82 207q-204 -27 -415 -83.5t-363 -123.5z" />
    <glyph glyph-name=".null" horiz-adv-x="0" 
 />
    <glyph glyph-name=".null" horiz-adv-x="0" 
 />
    <glyph glyph-name="nonmarkingreturn" horiz-adv-x="682" 
 />
    <glyph glyph-name="CR" unicode="&#x9;" horiz-adv-x="466" 
 />
    <glyph glyph-name="space" unicode=" " horiz-adv-x="491" 
 />
    <glyph glyph-name="exclam" unicode="!" horiz-adv-x="403" 
d="M270 1479l-6 -506q-2 -227 -26 -563h-72q-24 299 -27 563l-6 506q32 16 66 16q39 0 71 -16zM301 84q0 -42 -27 -70t-71 -28t-72.5 28t-28.5 70t28.5 71t72.5 29q43 0 70.5 -29t27.5 -71z" />
    <glyph glyph-name="quotedbl" unicode="&#x22;" horiz-adv-x="593" 
d="M246 1479q-19 -274 -41 -496h-62q-22 222 -41 496q32 16 72 16t72 -16zM492 1479q-19 -274 -41 -496h-62q-22 222 -41 496q32 16 72 16t72 -16z" />
    <glyph glyph-name="numbersign" unicode="#" horiz-adv-x="1337" 
d="M1118 909h-231l-72 -387h264v-86h-280l-80 -436h-98l79 436h-317l-84 -436h-96l82 434h-213v88h227l74 387h-262v86h278q11 57 76 418h98q-12 -69 -37.5 -209t-38.5 -209h320q65 361 76 418h98q-14 -69 -39.5 -208.5t-38.5 -209.5h215v-86zM791 909h-320l-74 -387h320z
" />
    <glyph glyph-name="dollar" unicode="$" horiz-adv-x="1155" 
d="M932 381q0 -155 -96 -253.5t-258 -113.5q4 -172 8 -254h-105q4 82 8 250q-206 2 -331 80q6 17 18.5 48t18.5 48q102 -61 243 -71q37 -4 117 4q124 13 187 82t63 172q0 60 -19 105.5t-62.5 81t-96 62t-135.5 56.5q-259 95 -304 270q-10 42 -10 80q0 149 87.5 243.5
t250.5 114.5q-4 160 -8 236h102q-4 -79 -8 -233q160 -3 270 -64q-18 -56 -32 -92q-116 59 -256 59q-136 0 -207.5 -65t-71.5 -187q0 -41 9 -73.5t29 -58.5t41 -44.5t58 -37t64.5 -30t75.5 -28.5q181 -66 265.5 -159t84.5 -228z" />
    <glyph glyph-name="percent" unicode="%" horiz-adv-x="1697" 
d="M1571 397q0 -118 -31 -212.5t-96 -153t-156 -58.5q-92 0 -157.5 58.5t-95.5 153t-29 212.5q0 117 30 210.5t95 152.5t157 59q91 0 156 -59t95.5 -152.5t31.5 -210.5zM1223 1409l-641 -1415l-101 10l643 1415zM702 1018q0 -117 -30.5 -211.5t-95.5 -153.5t-156 -59
q-92 0 -157 59t-95.5 153t-30.5 212t30.5 211.5t95.5 152t157 58.5q91 0 156 -58.5t95.5 -152.5t30.5 -211zM1468 397q1 64 -7.5 120.5t-28 108t-56.5 81.5t-88 30t-88 -30t-56.5 -81.5t-28 -108t-7.5 -120.5q0 -65 8.5 -121t27.5 -107.5t56 -81.5t88 -30t88 30t56 81.5
t27.5 107.5t8.5 121zM600 1018q0 65 -8.5 122t-28 108.5t-56.5 81.5t-87 30q-41 0 -73.5 -20.5t-52.5 -53.5t-33 -79t-18 -92t-5 -97q0 -64 8.5 -120t28 -107t57 -81t88.5 -30q50 0 87 30t56.5 81t28 107t8.5 120z" />
    <glyph glyph-name="ampersand" unicode="&#x26;" horiz-adv-x="1327" 
d="M102 367q0 266 322 417q-129 120 -154 246q-8 36 -8 80q0 159 92 249.5t244 90.5q150 0 238 -85t88 -216q0 -59 -20.5 -112t-49.5 -91t-77.5 -76t-87 -61.5t-95.5 -54.5l391 -408q88 144 117 346l112 -14q-28 -118 -61.5 -210.5t-89.5 -176.5q149 -155 225 -291h-131
q-79 127 -153 201q-205 -219 -457 -219q-96 0 -174 23.5t-127.5 62t-82.5 90t-47 103.5t-14 106zM221 367q0 -54 19 -103.5t56 -92t102 -68t149 -25.5q119 0 209 45t176 131l-447 473q-46 -24 -75.5 -41t-69.5 -50t-62.5 -67t-39.5 -87t-17 -115zM809 1147q0 90 -56.5 145.5
t-150.5 55.5q-112 0 -168.5 -57.5t-56.5 -166.5q0 -171 166 -307q125 61 195.5 139t70.5 191z" />
    <glyph glyph-name="quotesingle" unicode="'" horiz-adv-x="491" 
d="M299 1475l-4 -109q-5 -160 -33 -381h-63q-31 266 -35 418q0 49 -2 72q32 16 69 16q39 0 68 -16z" />
    <glyph glyph-name="parenleft" unicode="(" horiz-adv-x="634" 
d="M621 -367l-78 -51q-381 495 -381 1016q0 520 381 1018l78 -51q-330 -438 -330 -967q0 -530 330 -965z" />
    <glyph glyph-name="parenright" unicode=")" horiz-adv-x="634" 
d="M508 598q0 -521 -381 -1016l-78 51q330 435 330 965q0 529 -330 967q14 8 39 25.5t39 25.5q381 -498 381 -1018z" />
    <glyph glyph-name="asterisk" unicode="*" horiz-adv-x="966" 
d="M414 1419h139q0 -65 -6 -128.5t-12 -104.5t-21 -125q33 15 101.5 48t122.5 56.5t106 40.5l43 -133q-137 -44 -355 -74q8 -8 48.5 -48t55.5 -55.5t45 -47.5t52 -59t43 -56l-114 -84q-25 33 -51 76.5t-40.5 71t-46 88.5t-41.5 80q-12 -23 -39.5 -77t-44 -85t-43 -75
t-51.5 -79l-115 84q64 86 244 266q-209 28 -354 74l43 133q39 -12 84 -30t76.5 -33t86 -41.5t83.5 -40.5q-37 208 -39 358z" />
    <glyph glyph-name="plus" unicode="+" horiz-adv-x="1155" 
d="M973 588h-373v-410h-102v410h-371v102h371v408h102v-408h373v-102z" />
    <glyph glyph-name="comma" unicode="," horiz-adv-x="503" 
d="M336 127q-49 -218 -186 -463l-82 23q82 191 114 395q2 13 5.5 37.5t5.5 36.5q103 14 118 14q35 0 25 -43z" />
    <glyph glyph-name="hyphen" unicode="-" horiz-adv-x="608" 
d="M526 573h-444v103h444v-103z" />
    <glyph glyph-name="period" unicode="." horiz-adv-x="503" 
d="M344 84q0 -42 -27 -70t-71 -28t-72.5 28t-28.5 70t28.5 71t72.5 29q43 0 70.5 -29t27.5 -71z" />
    <glyph glyph-name="slash" unicode="/" horiz-adv-x="735" 
d="M831 1616l107 -19l-836 -2017l-104 21z" />
    <glyph glyph-name="zero" unicode="0" horiz-adv-x="1155" 
d="M977 707q0 -153 -24.5 -282t-74 -231.5t-134 -160.5t-195.5 -58t-195.5 58t-134 160.5t-74 231.5t-24.5 282q0 154 24 283t73.5 231.5t134 160.5t196.5 58t196 -58t133.5 -160.5t74 -231.5t24.5 -283zM850 707q0 119 -13 222t-44.5 202t-93.5 157t-150 58t-150 -58
t-93.5 -157t-44.5 -202t-13 -222q0 -93 7.5 -176t28 -169t53 -148t87 -101t125.5 -39t125.5 39t87 101t53 148t28 169t7.5 176z" />
    <glyph glyph-name="one" unicode="1" horiz-adv-x="1155" 
d="M702 0h-120v1227q-55 -44 -160.5 -89.5t-194.5 -64.5l-14 43l-12 43q148 33 247.5 95t172.5 159h81v-1413z" />
    <glyph glyph-name="two" unicode="2" horiz-adv-x="1155" 
d="M932 0h-803q31 53 49 96q12 48 35.5 99t43.5 86.5t62 90.5t60 76.5t72 83t65 74.5l100 121q77 95 111.5 173.5t36.5 160.5q0 62 -21 123q-39 100 -151 135q-59 16 -125 16q-150 0 -279 -96l-53 82q161 119 354 119q187 0 297.5 -99t110.5 -274q0 -171 -195 -405
q-73 -89 -114 -134q-70 -79 -106.5 -122.5t-80 -109t-59.5 -118.5q-51 -71 -53 -74h643v-104z" />
    <glyph glyph-name="three" unicode="3" horiz-adv-x="1155" 
d="M930 391q0 -187 -128 -301.5t-345 -114.5q-216 0 -336 72q6 17 17.5 49t17.5 49q40 -26 118 -46.5t172 -20.5q173 0 263 82.5t90 232.5q0 72 -22.5 128t-59 91.5t-88.5 59t-104.5 33.5t-112.5 12h-52v90q29 2 84 10q59 9 108.5 28.5t92.5 51.5t67.5 82.5t24.5 114.5
q0 86 -39.5 142.5t-97.5 78.5t-131 22q-157 0 -268 -73l-47 88q143 88 323 88q176 0 282.5 -90.5t106.5 -243.5q0 -67 -24.5 -124.5t-64.5 -96t-82.5 -64.5t-88.5 -41v-2q47 -11 90.5 -29.5t87 -51t75 -74t51.5 -101.5t20 -131z" />
    <glyph glyph-name="four" unicode="4" horiz-adv-x="1155" 
d="M987 362h-147v-362h-115v362h-614v82q113 228 276 489t332 480h121v-958h147v-93zM725 1276q-21 -24 -29.5 -34t-31.5 -44.5t-66 -103.5q-215 -313 -375 -639h502v456v365z" />
    <glyph glyph-name="five" unicode="5" horiz-adv-x="1155" 
d="M938 397q0 -87 -31.5 -163.5t-89.5 -134t-148 -91t-200 -33.5q-107 0 -194.5 21.5t-137.5 50.5q13 43 33 98q45 -26 124 -47.5t169 -21.5q159 0 252.5 85t93.5 232q0 91 -30 158t-96 115.5t-181.5 67.5t-278.5 7q34 340 49 672h629v-104h-530q-15 -261 -35 -471
q150 8 266 -20.5t189 -88t110 -143.5t37 -189z" />
    <glyph glyph-name="six" unicode="6" horiz-adv-x="1155" 
d="M979 412q0 -65 -15 -126.5t-48 -118t-80 -99.5t-115 -68t-150 -25q-207 0 -318.5 145.5t-111.5 411.5q0 174 43 319t113 243.5t165 170t194 108t204 48.5l19 -92q-82 -14 -152 -38t-141 -67t-126 -101t-100.5 -145t-70.5 -196q123 58 260 58q207 0 318.5 -116.5
t111.5 -311.5zM852 410q0 338 -313 338q-137 0 -260 -58q-13 -68 -13 -158q0 -103 16.5 -184t51.5 -144.5t95 -97.5t142 -34q73 0 129 28t88 76.5t48 107t16 126.5z" />
    <glyph glyph-name="seven" unicode="7" horiz-adv-x="1155" 
d="M979 1413q-17 -47 -49.5 -140t-48.5 -140q-54 -71 -86 -132q-122 -241 -221.5 -521.5t-127.5 -479.5h-71h-70q81 324 231 683t308 624h-703v106h838z" />
    <glyph glyph-name="eight" unicode="8" horiz-adv-x="1155" 
d="M971 346q0 -163 -118 -267t-304 -104q-125 0 -225 50t-153 147.5t-34 222.5q22 199 277 340q-136 72 -192 155t-56 193q0 158 109.5 257.5t273.5 99.5q173 0 278 -100t105 -246q0 -31 -8 -52q-18 -180 -244 -313q157 -82 224 -175t67 -208zM813 1092q0 108 -69.5 181
t-194.5 73q-121 0 -192.5 -72.5t-71.5 -183.5q0 -113 62.5 -183t236.5 -139q122 69 175.5 143t53.5 181zM846 340q0 48 -9 86t-32 70t-46 55t-69 49.5t-81.5 44t-100.5 47.5q-142 -74 -200 -155t-58 -197q0 -120 82.5 -194t216.5 -74q137 0 217 75t80 193z" />
    <glyph glyph-name="nine" unicode="9" horiz-adv-x="1155" 
d="M961 874q0 -175 -43 -321.5t-114.5 -245.5t-167 -170t-197 -106t-208.5 -43q-12 44 -18 92q490 59 600 549q-127 -60 -262 -60q-205 0 -316.5 117.5t-111.5 310.5q0 81 25 157t72.5 139.5t128 102t181.5 38.5q207 0 319 -146.5t112 -413.5zM836 877q0 138 -28.5 237.5
t-98.5 161t-179 61.5q-59 0 -107 -19t-79.5 -50.5t-53 -75.5t-31 -92t-9.5 -101q0 -335 313 -335q139 0 260 57q13 86 13 156z" />
    <glyph glyph-name="colon" unicode=":" horiz-adv-x="503" 
d="M344 825q0 -42 -27.5 -71t-70.5 -29q-44 0 -72.5 29t-28.5 71t28.5 70.5t72.5 28.5q43 0 70.5 -28.5t27.5 -70.5zM344 84q0 -42 -27 -70t-71 -28t-72.5 28t-28.5 70t28.5 71t72.5 29q43 0 70.5 -29t27.5 -71z" />
    <glyph glyph-name="semicolon" unicode=";" horiz-adv-x="468" 
d="M352 825q-2 -42 -29.5 -71t-70.5 -29q-44 0 -72 29t-28 71t28 70.5t72 28.5t72 -28.5t28 -70.5zM336 127q-49 -218 -186 -463l-82 23q82 191 114 395q2 13 5.5 37.5t5.5 36.5q103 14 118 14q35 0 25 -43z" />
    <glyph glyph-name="less" unicode="&#x3c;" horiz-adv-x="1155" 
d="M952 231q-215 93 -827 361v100q138 60 413.5 181t413.5 180q10 -54 21 -103q-290 -122 -721 -309q120 -51 360.5 -154.5t360.5 -154.5q-11 -43 -21 -101z" />
    <glyph glyph-name="equal" unicode="=" horiz-adv-x="1155" 
d="M973 881v-103l-846 -2v105h846zM973 397h-846v103h846v-103z" />
    <glyph glyph-name="greater" unicode="&#x3e;" horiz-adv-x="1155" 
d="M973 592q-552 -242 -828 -361q-13 74 -20 101q120 51 360.5 154.5t360.5 154.5q-431 187 -721 309q6 27 20 103q138 -59 414 -180.5t414 -180.5v-100z" />
    <glyph glyph-name="question" unicode="?" horiz-adv-x="778" 
d="M719 1122q0 -61 -18.5 -114.5t-48.5 -94.5t-66 -79.5t-73 -77.5t-67.5 -80t-51.5 -95t-23 -114q0 -17 -1 -90t-1 -82h-97q-20 114 -20 231q0 52 25 106.5t63 99t82 94.5t82 93.5t63 96t25 102.5q0 102 -71.5 159.5t-182.5 57.5q-135 0 -234 -59l-38 88q49 31 124 51.5
t160 20.5q181 0 275 -89t94 -225zM440 84q0 -42 -27 -70t-71 -28t-72 28t-28 70t28 71t72 29q43 0 70.5 -29t27.5 -71z" />
    <glyph glyph-name="at" unicode="@" horiz-adv-x="1925" 
d="M1704 752q0 -139 -40 -265.5t-115 -216.5t-171 -120q-73 -23 -136.5 0t-102.5 100q-74 -62 -171 -93.5t-188 -17.5q-115 20 -179 120t-64 251q0 71 17.5 142.5t53.5 137.5t85 117.5t117.5 82t145.5 30.5q67 0 129 -29.5t89 -70.5l18 81l92 -26l-67 -615q-16 -79 17 -114
t89 -35q74 0 133 69.5t90.5 170.5t45 206t5.5 183q-25 230 -181.5 372t-399.5 142q-204 0 -370 -94t-267 -262.5t-121 -385.5q-12 -133 8.5 -254.5t74.5 -225t138 -179.5t206 -119t271 -43q166 0 276.5 40t197.5 126q7 -29 22 -76q-176 -176 -496 -176q-198 0 -357 67
t-261.5 186t-150 286t-29.5 364q14 183 92 343t202 272.5t295 169t361 37.5q129 -14 238 -67t189 -138.5t124.5 -207t44.5 -265.5zM1094 299l51 494q-1 48 -43 82.5t-98 45.5t-103 1q-105 -25 -169 -123.5t-77 -227.5q-4 -51 1 -103.5t22 -107t56.5 -93t96.5 -46.5
q66 -10 136 11.5t127 66.5z" />
    <glyph glyph-name="A" unicode="A" horiz-adv-x="1247" 
d="M1204 0h-137q-117 340 -149 434h-603q-82 -222 -151 -434h-127q124 345 187.5 520.5t160 430t182.5 462.5h107q64 -156 135.5 -343t121 -321.5t137.5 -376t136 -372.5zM885 532q-84 241 -201 560q-17 45 -37.5 107t-28.5 79q-9 -12 -28 -72q-40 -121 -125.5 -353.5
t-116.5 -320.5h537z" />
    <glyph glyph-name="B" unicode="B" horiz-adv-x="1290" 
d="M1090 387q0 -202 -148 -302.5t-420 -100.5q-90 0 -188 15.5t-158 41.5v1331q63 26 158 42t186 16q229 0 367.5 -90.5t138.5 -264.5q0 -129 -71 -210.5t-181 -112.5q59 -11 113 -38.5t100.5 -70.5t74.5 -109.5t28 -146.5zM897 1067q0 137 -99.5 202.5t-279.5 65.5
q-4 0 -10.5 -1t-9.5 -1h-21q-93 0 -176 -22v-525h143q112 0 191 13t140.5 44t91.5 86.5t30 137.5zM956 383q0 75 -21.5 129.5t-61 89.5t-103 56t-139 29.5t-178.5 8.5h-152v-587q102 -27 225 -27q91 0 164.5 15t135.5 48t96 93.5t34 144.5z" />
    <glyph glyph-name="C" unicode="C" horiz-adv-x="1247" 
d="M1042 53q-41 -30 -131.5 -54t-205.5 -24q-257 0 -419.5 201.5t-162.5 530.5q0 215 77 383t210 259t297 91q114 0 198 -25t131 -59l-39 -96q-111 75 -268 75q-141 0 -241 -68t-158 -190q-72 -153 -72 -370q0 -219 74.5 -378.5t218.5 -217.5q76 -31 166 -31q172 0 289 67z
" />
    <glyph glyph-name="D" unicode="D" horiz-adv-x="1437" 
d="M1192 717q0 -348 -177.5 -540.5t-490.5 -192.5q-215 0 -348 55v1333q139 58 346 58q310 0 490 -185t180 -528zM1057 717q0 294 -136.5 455t-398.5 161q-143 0 -217 -24v-1198q65 -25 219 -25q269 0 401 164.5t132 466.5z" />
    <glyph glyph-name="E" unicode="E" horiz-adv-x="1136" 
d="M924 0h-748v1413h721v-100h-592v-525h531v-100h-531v-588h619v-100z" />
    <glyph glyph-name="F" unicode="F" horiz-adv-x="1064" 
d="M889 1313h-584v-529h524v-100h-524v-684h-129v1413h713v-100z" />
    <glyph glyph-name="G" unicode="G" horiz-adv-x="1347" 
d="M1116 47q-132 -72 -385 -72q-98 0 -187 28.5t-166 88.5t-133.5 146t-89 207.5t-32.5 267.5q0 175 50.5 316t136.5 229.5t196 135t233 46.5q228 0 359 -84l-41 -96q-49 33 -132.5 54t-183.5 21q-222 0 -352.5 -162.5t-130.5 -470.5q0 -292 132 -459t355 -167q166 0 242 37
v499h-137v109h266v-674z" />
    <glyph glyph-name="H" unicode="H" horiz-adv-x="1417" 
d="M1126 0h-129v686h-692v-686h-129v1413h129v-627h692v627h129v-1413z" />
    <glyph glyph-name="I" unicode="I" horiz-adv-x="507" 
d="M309 0h-129v1413h129v-1413z" />
    <glyph glyph-name="J" unicode="J" horiz-adv-x="997" 
d="M557 242q0 -188 -84 -307.5t-256 -147.5q-119 -12 -256 33q13 44 33 98q119 -34 211 -14q57 12 97 37t65 59t38.5 88.5t18 113.5t4.5 146v133v932h129v-1171z" />
    <glyph glyph-name="K" unicode="K" horiz-adv-x="1226" 
d="M1075 0h-74h-71q-134 198 -298.5 388.5t-324.5 334.5v-723h-127v1413h127v-661q446 486 588 661h145q-178 -207 -600 -663q164 -153 343 -363.5t292 -386.5z" />
    <glyph glyph-name="L" unicode="L" horiz-adv-x="1028" 
d="M870 0h-690v1413h129v-1313h561v-100z" />
    <glyph glyph-name="M" unicode="M" horiz-adv-x="1771" 
d="M1542 0h-127q-66 876 -104 1262q-1 0 -43 -121q-36 -100 -118.5 -322.5t-149 -406.5t-107.5 -310h-115q-50 167 -198.5 567.5t-173.5 471.5q-7 22 -17 53.5t-15.5 47.5t-8.5 20q-74 -786 -109 -1262h-121q78 898 139 1413h129q269 -683 390 -1032q11 -30 20.5 -62
t15.5 -52t9 -27q4 0 10 19.5t17 58t20 63.5q214 604 391 1032h127q61 -515 139 -1413z" />
    <glyph glyph-name="N" unicode="N" horiz-adv-x="1452" 
d="M1208 0h-59h-59q-212 373 -705 1116q-18 26 -40.5 65t-35.5 60t-18 21q0 -33 2 -234t2 -305v-723h-119v1413h131q401 -566 711 -1083q15 -26 33 -60t28 -51t15 -22q0 68 -2 319t-2 371v526h118v-1413z" />
    <glyph glyph-name="O" unicode="O" horiz-adv-x="1400" 
d="M1278 707q0 -335 -156 -533.5t-422 -198.5t-421.5 198t-155.5 534q0 334 155.5 533.5t421.5 199.5t422 -199.5t156 -533.5zM1145 709q0 132 -27 244.5t-80 199t-139.5 135.5t-198.5 49q-90 0 -164 -32t-125.5 -89t-86.5 -136.5t-51.5 -172.5t-16.5 -198t16 -197.5
t51 -172.5t86 -137t125.5 -89.5t165.5 -32.5q114 0 201 49.5t139.5 136.5t78.5 199t26 244z" />
    <glyph glyph-name="P" unicode="P" horiz-adv-x="1212" 
d="M1036 1004q0 -217 -153 -328t-447 -98q-22 0 -66 1t-67 1v-580h-127v1372q139 58 336 58q259 0 391.5 -112t132.5 -314zM905 1006q0 169 -105.5 248t-289.5 79q-104 0 -207 -24v-631q21 0 62 -1t61 -1q242 -12 360.5 69t118.5 261z" />
    <glyph glyph-name="Q" unicode="Q" horiz-adv-x="1585" 
d="M1278 709q0 -270 -110.5 -453t-305.5 -252q20 -46 56.5 -88t88.5 -77.5t97.5 -61.5t107.5 -56l-59 -100q-5 3 -43.5 25.5t-47.5 28t-44 27.5t-47.5 31.5t-43 32.5t-44 38t-36.5 39t-35.5 45t-26.5 47.5t-23 54.5q-78 -11 -158 2q-153 18 -262 113t-164 249.5t-55 354.5
q0 333 155.5 532t421.5 199t422 -199t156 -532zM1147 711q0 106 -16.5 198.5t-51.5 171.5t-87 135.5t-126.5 88.5t-165.5 32t-165 -32t-125 -88.5t-86 -135.5t-51.5 -171.5t-16.5 -198.5q0 -105 16 -197t50.5 -172t85.5 -137.5t125.5 -90t166.5 -32.5t166.5 32.5t126 90
t87 137.5t51.5 172t16 197z" />
    <glyph glyph-name="R" unicode="R" horiz-adv-x="1265" 
d="M1087 0h-143q-276 451 -430 610h-209v-610h-125v1374q141 56 334 56q254 0 386 -108.5t132 -313.5q0 -170 -98 -273.5t-277 -120.5v-2q212 -267 430 -612zM901 1008q0 84 -23.5 146t-59.5 97t-90 56t-103 27.5t-111 6.5q-55 0 -116 -8.5t-93 -19.5v-608h209
q71 0 126.5 7.5t106 28t83 54t52 87.5t19.5 126z" />
    <glyph glyph-name="S" unicode="S" horiz-adv-x="1058" 
d="M897 369q0 -184 -123.5 -289t-327.5 -105q-231 0 -362 84q40 99 41 103q134 -82 315 -82q154 0 240 72t86 210q0 52 -15.5 94.5t-39.5 72.5t-67.5 58.5t-85 48t-105.5 44.5q-142 55 -223 126t-107 163q-12 47 -12 98q0 168 112 270.5t303 102.5q96 0 183 -24t137 -60
l-41 -96q-118 77 -279 77q-134 0 -210 -68.5t-76 -195.5q0 -61 21.5 -108t66.5 -81.5t88.5 -56.5t113.5 -49q190 -73 278.5 -170t88.5 -239z" />
    <glyph glyph-name="T" unicode="T" horiz-adv-x="1122" 
d="M928 1313h-375v-1313h-129v1313h-375v100h879v-100z" />
    <glyph glyph-name="U" unicode="U" horiz-adv-x="1392" 
d="M1106 461q0 -103 -28.5 -190t-84 -154.5t-146.5 -105.5t-208 -38q-203 0 -320 110.5t-137 287.5q-8 81 -8 190v852h127v-842q0 -242 80 -365.5t262 -123.5q127 0 217.5 75.5t110.5 211.5q12 89 12 202v842h123v-952z" />
    <glyph glyph-name="V" unicode="V" horiz-adv-x="1277" 
d="M1120 1413q-286 -876 -479 -1413h-57h-58q-205 570 -483 1413h139q173 -574 344 -1081q10 -28 23.5 -70t22.5 -69.5t14 -40.5q14 27 61 178q29 83 60.5 177t55 166t59 186t53 172.5t59 194.5t57.5 187h129z" />
    <glyph glyph-name="W" unicode="W" horiz-adv-x="1886" 
d="M1688 1413q-158 -799 -336 -1413h-127q-23 73 -72 231.5t-78 252.5t-71 233t-76 260q-10 35 -24 93t-19 73q-5 -12 -11.5 -36.5t-15 -63t-16.5 -66.5q-63 -224 -301 -977h-123q-167 559 -336 1413h133q112 -589 219 -1055q41 -182 51 -215q9 0 66 199q139 456 283 985
h108q137 -517 283 -985q9 -29 22.5 -75t23.5 -77t17 -47q1 2 35 146q108 459 242 1124h123z" />
    <glyph glyph-name="X" unicode="X" horiz-adv-x="1134" 
d="M1073 0h-72h-71q-106 217 -365 647q-241 -390 -372 -647h-132q26 51 54 102.5t63 112t57.5 99t67.5 112t61 99.5t69 111.5t63 102.5q-67 112 -200 336.5t-200 337.5h144l327 -577h2q240 403 342 577h131l-403 -665q302 -490 434 -748z" />
    <glyph glyph-name="Y" unicode="Y" 
d="M1044 1413q-278 -524 -440 -799v-614h-127v612q-211 359 -442 801h145q190 -398 365 -704q156 275 368 704h131z" />
    <glyph glyph-name="Z" unicode="Z" horiz-adv-x="1146" 
d="M922 0h-854v102q181 387 686 1209h-656v102h801v-102q-23 -39 -148 -251.5t-195.5 -335t-172 -307t-164.5 -315.5h703v-102z" />
    <glyph glyph-name="bracketleft" unicode="[" horiz-adv-x="634" 
d="M592 -410h-404v2016h404v-86h-289v-1842h289v-88z" />
    <glyph glyph-name="backslash" unicode="\" horiz-adv-x="735" 
d="M944 -399q-51 -8 -110 -21l-836 2015l106 21z" />
    <glyph glyph-name="bracketright" unicode="]" horiz-adv-x="634" 
d="M467 -410h-404v88h289v1842h-289v86h404v-2016z" />
    <glyph glyph-name="asciicircum" unicode="^" horiz-adv-x="1155" 
d="M983 866q-27 -16 -68 -45q-210 311 -340 506q-153 -226 -339 -506q-42 29 -68 45l297 465q37 55 78 90q57 0 102 -22q15 -24 142.5 -225.5t195.5 -307.5z" />
    <glyph glyph-name="underscore" unicode="_" horiz-adv-x="1052" 
d="M1053 -379h-1053v103h1053v-103z" />
    <glyph glyph-name="grave" unicode="`" horiz-adv-x="448" 
d="M387 1180h-63l-289 360h174z" />
    <glyph glyph-name="a" unicode="a" horiz-adv-x="1042" 
d="M850 41q-54 -26 -152.5 -43.5t-210.5 -17.5q-186 0 -287.5 82t-101.5 239q0 168 120.5 256.5t328.5 106.5q51 2 67 2t66 -3.5t51 -3.5q0 87 -10 145t-37 106t-80 71t-135 23q-152 0 -256 -58l-25 94q45 25 122.5 44.5t168.5 19.5q176 0 273.5 -93.5t97.5 -271.5v-116
v-582zM731 102v465q-103 8 -192 2q-71 -9 -123.5 -25t-99 -45.5t-71 -79t-24.5 -118.5q0 -229 285 -229q133 0 225 30z" />
    <glyph glyph-name="b" unicode="b" horiz-adv-x="1193" 
d="M1001 547q0 -259 -132.5 -414.5t-362.5 -155.5q-200 0 -340 66v1554h121v-569q108 70 264 70q208 0 329 -150.5t121 -400.5zM874 547q0 95 -19 175.5t-58.5 144.5t-106 100.5t-155.5 36.5q-135 0 -248 -72v-826q75 -30 217 -30q181 0 275.5 125.5t94.5 345.5z" />
    <glyph glyph-name="c" unicode="c" horiz-adv-x="942" 
d="M823 43q-37 -26 -107.5 -44.5t-152.5 -18.5q-208 0 -329 151.5t-121 407.5q0 259 121 412t327 153q158 0 252 -62q-13 -40 -33 -92q-85 51 -205 51q-169 0 -252 -121.5t-83 -336.5q0 -212 85.5 -336.5t258.5 -124.5q119 0 209 55z" />
    <glyph glyph-name="d" unicode="d" horiz-adv-x="1193" 
d="M946 43q-140 -66 -346 -66q-228 0 -357.5 150t-129.5 401q0 260 128.5 414t348.5 154q121 0 235 -56v557h121v-1554zM825 109v835q-112 57 -221 57q-100 0 -173 -38t-114 -105t-60 -147t-19 -176q0 -211 94.5 -335t273.5 -124q151 0 219 33z" />
    <glyph glyph-name="e" unicode="e" horiz-adv-x="1122" 
d="M961 555l-725 -53q18 -420 376 -420q154 0 265 59l28 -96q-41 -26 -121.5 -45.5t-175.5 -19.5q-239 0 -367 144t-128 419q0 138 35.5 247t97 176.5t140 102.5t167.5 35q174 0 278.5 -104.5t122.5 -315.5q5 -52 7 -129zM840 639q-1 182 -76 273.5t-211 91.5
q-139 0 -226 -109.5t-91 -302.5z" />
    <glyph glyph-name="f" unicode="f" horiz-adv-x="770" 
d="M633 993h-316v-993h-120v993h-185v88h185v58q0 199 63.5 310.5t218.5 135.5q98 10 174 -6l-12 -92q-45 8 -82.5 10t-67.5 -4t-53.5 -15.5t-41 -28.5t-30.5 -38t-21.5 -49.5t-14 -57.5t-8.5 -67t-4 -74t-1 -82h316v-88z" />
    <glyph glyph-name="g" unicode="g" horiz-adv-x="1173" 
d="M936 12q0 -216 -111.5 -325t-330.5 -109q-187 0 -318 62q3 11 35 98q47 -25 123.5 -42.5t152.5 -17.5q171 0 252 84q78 81 78 240v78q-38 -27 -106 -48.5t-152 -21.5q-199 0 -322.5 138.5t-123.5 394.5q0 249 128.5 404t356.5 155q197 0 338 -66v-1024zM817 178v795
q-78 33 -217 33q-175 0 -268.5 -126t-93.5 -337q0 -213 90 -325t245 -112q146 0 244 72z" />
    <glyph glyph-name="h" unicode="h" 
d="M944 0h-121v590q0 58 -2 98.5t-8.5 86.5t-18 76.5t-32.5 60.5t-50.5 47t-72.5 27.5t-98 10.5q-70 0 -140.5 -16.5t-111.5 -40.5v-940h-123v1597h123v-565q140 64 264 64q61 0 112 -9.5t88.5 -25.5t67.5 -42t49.5 -52t33.5 -63t22 -68t12 -74t5 -74.5t1 -75.5v-612z" />
    <glyph glyph-name="i" unicode="i" horiz-adv-x="485" 
d="M319 1395q0 -38 -24.5 -63t-61.5 -25q-36 0 -61 25t-25 63q0 39 25 63.5t61 24.5q37 0 61.5 -24.5t24.5 -63.5zM295 0h-121v1081h121v-1081z" />
    <glyph glyph-name="j" unicode="j" horiz-adv-x="485" 
d="M324 1395q0 -38 -25 -63t-61 -25q-37 0 -61.5 25t-24.5 63q0 39 24.5 63.5t61.5 24.5q36 0 61 -24.5t25 -63.5zM299 23q0 -362 -270 -416q-41 -15 -111 -15l10 93q134 19 189.5 100t58.5 233v1063h123v-1058z" />
    <glyph glyph-name="k" unicode="k" horiz-adv-x="1013" 
d="M928 0h-144q-211 302 -491 553v-553h-121v1597h121v-1017q258 274 450 501h142q-82 -92 -268 -293t-197 -213q127 -117 266 -273.5t242 -301.5z" />
    <glyph glyph-name="l" unicode="l" horiz-adv-x="522" 
d="M465 66l-29 -95q-53 10 -87.5 21t-71 35.5t-57 60.5t-33.5 96t-13 142v1271h121v-1118q0 -68 1 -116.5t6 -89.5t9.5 -67t16 -48t21.5 -34t30.5 -23.5t37.5 -18t48 -16.5z" />
    <glyph glyph-name="m" unicode="m" horiz-adv-x="1767" 
d="M1556 0h-120v596q0 45 -0.5 73t-3 67.5t-7 64t-13.5 55.5t-21.5 50t-31.5 39t-43 31t-57 18t-73 7q-177 0 -281 -108q19 -152 19 -315v-578h-123v600q0 53 -1 88.5t-5 78t-12 70t-21.5 57.5t-34 48t-48 33t-65.5 22t-86 7q-152 0 -239 -37v-967h-123v1034q167 68 377 68
q213 0 311 -131q51 51 140 91t202 40q75 0 133.5 -17.5t95.5 -41.5t63.5 -68.5t39.5 -79t19.5 -93.5t7.5 -91.5t1 -92.5v-618z" />
    <glyph glyph-name="n" unicode="n" 
d="M944 0h-121v596q0 57 -1.5 93t-7 84t-17 77.5t-32.5 62t-51 50t-74.5 29.5t-102.5 12q-151 0 -248 -37v-967h-123v1034q158 68 389 68q77 0 138 -16.5t101.5 -41.5t69.5 -66t44 -79t23.5 -92.5t10.5 -94t2 -94.5v-618z" />
    <glyph glyph-name="o" unicode="o" horiz-adv-x="1191" 
d="M999 539q0 -252 -116.5 -407t-325.5 -155q-210 0 -327 154.5t-117 407.5q0 255 116.5 410t325.5 155q211 0 327.5 -155t116.5 -410zM872 539q0 96 -18 178.5t-54 148.5t-98.5 104t-144.5 38q-83 0 -146 -38t-100 -104t-55 -148.5t-18 -178.5q0 -97 18.5 -178t55.5 -145.5
t100 -101t145 -36.5t144.5 36.5t99 101t54 145.5t17.5 178z" />
    <glyph glyph-name="p" unicode="p" horiz-adv-x="1193" 
d="M1001 551q0 -263 -128 -417t-351 -154q-136 0 -235 57v-447h-121v1444q140 68 346 68q227 0 358 -150t131 -401zM874 545q0 219 -93.5 340t-274.5 121q-145 0 -219 -33v-838q106 -59 219 -59q186 0 277 126t91 343z" />
    <glyph glyph-name="q" unicode="q" horiz-adv-x="1193" 
d="M946 -410h-119v459q-42 -28 -112 -48.5t-152 -20.5q-211 0 -330.5 149.5t-119.5 400.5q0 261 131.5 416.5t361.5 155.5q195 0 340 -66v-1446zM827 150v823q-74 33 -219 33q-178 0 -274 -126.5t-96 -349.5q0 -212 84 -333t262 -121q72 0 136.5 22t106.5 52z" />
    <glyph glyph-name="r" unicode="r" horiz-adv-x="765" 
d="M657 1085l-30 -104q-63 18 -174 18q-108 -3 -164 -36v-963h-123v1028q129 63 293 70q91 3 198 -13z" />
    <glyph glyph-name="s" unicode="s" horiz-adv-x="876" 
d="M745 281q0 -131 -102.5 -216t-269.5 -85q-188 0 -289 65l35 100q26 -22 93 -42.5t157 -20.5q113 0 182.5 51t69.5 143q0 47 -12.5 80t-44 60t-70.5 47t-107 47q-144 57 -211 128.5t-67 178.5q0 124 91.5 205.5t243.5 81.5q84 0 151.5 -19t104.5 -43q-5 -16 -16 -48
t-16 -48q-99 60 -224 60q-99 0 -158 -49.5t-59 -133.5q0 -81 55 -128.5t171 -90.5q150 -57 221 -131t71 -192z" />
    <glyph glyph-name="t" unicode="t" horiz-adv-x="792" 
d="M649 23q-68 -33 -160 -33q-56 0 -101 14t-75.5 36.5t-53 58.5t-35 72.5t-20 85t-9.5 89.5t-2 94v547h-127v86h127v320h120v-312h314v-88h-314v-600q0 -154 31 -221t123 -80q94 -15 166 23q12 -64 16 -92z" />
    <glyph glyph-name="u" unicode="u" 
d="M928 51q-169 -71 -379 -71q-97 0 -167.5 25t-113 66t-67 106.5t-33 133.5t-8.5 160v610h123v-585q0 -86 6 -145.5t23.5 -114t48.5 -87t82 -51t122 -18.5q167 0 240 41v960h123v-1030z" />
    <glyph glyph-name="v" unicode="v" horiz-adv-x="983" 
d="M920 1081q-138 -471 -375 -1081h-56h-53q-229 572 -379 1081h131q96 -361 267 -837q7 -19 16 -47.5t14 -44.5t9 -23q6 7 41 115q189 546 268 837h117z" />
    <glyph glyph-name="w" unicode="w" horiz-adv-x="1587" 
d="M1503 1081q-143 -550 -336 -1081h-106q-152 445 -244 772q-8 28 -17.5 72t-13.5 53q-105 -383 -276 -897h-109q-190 522 -335 1081h129q74 -329 235 -845q6 -20 12.5 -46t10.5 -39t8 -18l33 113q138 434 243 835h109q88 -387 237 -837q5 -17 12.5 -43.5t12.5 -43.5t8 -24
q3 3 8 18t12 41t13 44q126 378 235 845h119z" />
    <glyph glyph-name="x" unicode="x" horiz-adv-x="1021" 
d="M907 0h-131q-97 178 -293 487q-147 -216 -295 -487h-127q124 220 353 565l-195 309q-22 35 -65 103.5t-64 103.5h137l256 -426h2q187 300 263 426h126q-200 -311 -321 -506q249 -384 354 -575z" />
    <glyph glyph-name="y" unicode="y" horiz-adv-x="970" 
d="M909 1081q-193 -692 -358 -1124q-21 -57 -35 -89.5t-34.5 -72.5t-40 -60.5t-46 -35t-57.5 -14.5q-23 0 -45 3t-37 7t-32.5 11.5t-25 11.5t-22.5 13t-18 11l22 76q5 -3 21 -12.5t21.5 -12.5t18 -10t18.5 -9t16 -6t18 -5t16 -1q28 0 52 21t40.5 55.5t28 68.5t22.5 71
q1 4 1.5 6.5t1.5 5.5q-241 555 -398 1091h131q95 -356 269 -825q12 -30 28.5 -80t22.5 -63q4 0 11 24t17.5 62t16.5 55q101 307 240 827h116z" />
    <glyph glyph-name="z" unicode="z" horiz-adv-x="931" 
d="M797 0h-725v72q49 97 129 234.5t142 237.5t157 251t123 196h-519v90h674v-84l-114 -174q-282 -426 -439 -735h572v-88z" />
    <glyph glyph-name="braceleft" unicode="{" horiz-adv-x="653" 
d="M618 -334q-70 0 -123 11t-90 27t-61 50t-38 64.5t-20.5 86.5t-8 100t-1.5 120v219q0 117 -40 178.5t-132 65.5v84q92 3 132 64t40 179v291q0 82 7 138t28.5 107t59 80.5t99 46.5t148.5 17v-86q-120 0 -172 -49.5t-55 -163.5v-374q0 -128 -37 -195t-112 -96
q75 -33 112 -98.5t37 -194.5v-375q0 -113 54.5 -162t172.5 -49v-86z" />
    <glyph glyph-name="bar" unicode="|" horiz-adv-x="536" 
d="M301 -410h-113v2016h113v-2016z" />
    <glyph glyph-name="braceright" unicode="}" horiz-adv-x="653" 
d="M582 588q-172 -5 -172 -244v-291q0 -81 -7 -137t-28 -106.5t-58 -80t-98.5 -46.5t-148.5 -17v86q133 0 180 59.5t47 206.5v320q0 129 36.5 196t110.5 95v2q-74 29 -110.5 96t-36.5 195v258q0 65 -2.5 107.5t-11 83t-23.5 64t-40 41.5t-62 25.5t-88 7.5v86q74 0 129 -11
t92 -35t61 -54.5t36.5 -78t17 -95.5t4.5 -115v-291q0 -116 40 -178t132 -65v-84z" />
    <glyph glyph-name="asciitilde" unicode="~" horiz-adv-x="1155" 
d="M1008 713q-11 -39 -26 -70.5t-41 -63t-67.5 -50.5t-95.5 -23q-46 -3 -91.5 13t-82.5 40.5t-73.5 49.5t-78.5 41.5t-83 13.5q-29 0 -56 -17.5t-46 -44.5t-30 -48t-18 -40q-55 31 -78 41q10 32 20.5 56.5t29 53.5t41.5 48t58.5 33t78.5 16q59 3 117.5 -23t98.5 -57.5
t92.5 -56.5t100.5 -21q103 7 150 152z" />
    <glyph glyph-name="uni00A0" unicode="&#xa0;" horiz-adv-x="466" 
 />
    <glyph glyph-name="exclamdown" unicode="&#xa1;" horiz-adv-x="561" 
d="M352 10v-389h-143v389q0 290 41 588h31h30q41 -321 41 -588zM391 887q0 -50 -30 -81.5t-82 -31.5t-82.5 31.5t-30.5 81.5q0 49 30 80.5t83 31.5q52 0 82 -31.5t30 -80.5z" />
    <glyph glyph-name="cent" unicode="&#xa2;" horiz-adv-x="1155" 
d="M623 -223v293q-193 29 -298.5 170.5t-105.5 353.5t108.5 357.5t295.5 174.5v293h120v-289q118 0 238 -49l-35 -112q-107 47 -223 47q-59 0 -109 -12q-254 -60 -254 -410q0 -156 64.5 -262t196.5 -137q69 -15 122 -15q129 0 232 47l24 -110q-26 -17 -102 -33.5t-154 -20.5
v-286h-120z" />
    <glyph glyph-name="sterling" unicode="&#xa3;" horiz-adv-x="1155" 
d="M496 961v-216h411v-112h-411v-19q0 -282 -35 -497h620v-117h-776q53 321 53 608v25h-196v112h196v197q0 119 20.5 208t56 145t90 90.5t115 47.5t138.5 13q146 0 262 -57l-36 -121q-103 53 -242 53q-68 0 -115.5 -16.5t-82.5 -57t-51.5 -111t-16.5 -175.5z" />
    <glyph glyph-name="currency" unicode="&#xa4;" horiz-adv-x="1155" 
d="M995 319l-67 -69l-154 156q-95 -76 -225 -76q-127 0 -225 76l-152 -156q-13 15 -38.5 39t-31.5 30l152 154q-76 95 -76 229t76 232q-25 24 -76 75.5t-76 75.5q10 11 22 23t26 25.5t22 21.5l152 -154q99 74 225 74q130 0 225 -76q26 25 77.5 77.5t76.5 78.5l67 -70
q-24 -26 -74.5 -77t-74.5 -76q74 -96 74 -230q0 -133 -74 -229q24 -26 74.5 -77.5t74.5 -76.5zM823 702q0 119 -79.5 200t-194.5 81t-194 -81t-79 -200t79 -199.5t194 -80.5t194.5 80.5t79.5 199.5z" />
    <glyph glyph-name="yen" unicode="&#xa5;" horiz-adv-x="1155" 
d="M645 0h-133v236h-334v108h334v244h-334v108h305q-271 419 -420 723h142q141 -307 377 -659q236 354 374 659h136q-75 -159 -172.5 -322.5t-249.5 -400.5h309v-108h-334v-244h334v-108h-334v-236z" />
    <glyph glyph-name="brokenbar" unicode="&#xa6;" horiz-adv-x="536" 
d="M205 -379v770h127v-770h-127zM205 834v770h127v-770h-127z" />
    <glyph glyph-name="section" unicode="&#xa7;" horiz-adv-x="987" 
d="M887 526q0 -101 -63 -183t-160 -138q135 -99 145 -228q10 -142 -87.5 -229.5t-266.5 -87.5q-172 0 -283 66q4 14 10 28.5t13.5 32.5t11.5 29q101 -64 248 -64q123 0 192 66q47 44 47 114q0 74 -48.5 134.5t-180.5 123.5q-129 71 -196 123.5t-102.5 119.5t-35.5 159
q0 194 223 328q-60 49 -88.5 98t-34.5 112q-22 130 70.5 218t247.5 88q164 0 262 -60l-33 -86q-96 56 -227 56q-97 0 -152 -43q-59 -46 -59 -127q0 -72 42.5 -124.5t154.5 -111.5q8 -8 24 -20q91 -50 145.5 -87t99 -83.5t63 -100t18.5 -123.5zM772 512q0 62 -22.5 110.5
t-64 83.5t-82 59.5t-94 54t-83.5 52.5q-147 -85 -176 -202q-6 -27 -6 -62q0 -50 16 -92.5t39 -71.5t62 -57.5t71 -46t80.5 -44t77.5 -44.5q83 46 132.5 112t49.5 148z" />
    <glyph glyph-name="dieresis" unicode="&#xa8;" horiz-adv-x="745" 
d="M291 1378q0 -44 -26 -71t-68 -27t-68.5 27t-26.5 71t26.5 71.5t68.5 27.5q41 0 67.5 -27.5t26.5 -71.5zM643 1378q0 -44 -26 -71t-68 -27t-68 27t-26 71t26.5 71.5t67.5 27.5t67.5 -27.5t26.5 -71.5z" />
    <glyph glyph-name="copyright" unicode="&#xa9;" horiz-adv-x="1691" 
d="M1559 707q0 -159 -57 -297t-153.5 -232.5t-226 -148.5t-272.5 -54t-272.5 54t-226 148.5t-153.5 232.5t-57 297q0 210 97.5 379t259 260.5t352.5 91.5t352.5 -91.5t259 -260.5t97.5 -379zM1464 707q0 136 -47.5 255.5t-129 204t-195 133t-242.5 48.5q-172 0 -312 -83
t-220 -230t-80 -328q0 -173 73.5 -314.5t214 -230t324.5 -99.5q172 0 312.5 83.5t221 231t80.5 329.5zM1104 440l51 -49q-46 -47 -124 -77.5t-173 -30.5q-171 0 -287 119.5t-116 306.5q0 185 119 305.5t288 120.5q93 0 168 -33t121 -82l-47 -72q-96 96 -242 96
q-132 0 -221.5 -94t-89.5 -241q0 -149 89 -242.5t226 -93.5q117 0 238 67z" />
    <glyph glyph-name="ordfeminine" unicode="&#xaa;" horiz-adv-x="790" 
d="M399 776q102 0 154 10v246q-70 12 -133 12q-213 0 -213 -129q0 -70 43 -104.5t149 -34.5zM387 1442q73 0 124.5 -18t81 -46t46 -75.5t21 -94t4.5 -114.5v-385q-49 -12 -128 -20.5t-135 -8.5q-143 0 -225 56.5t-82 170.5q0 116 90.5 174t231.5 58q44 0 137 -17v19
q0 35 -2 58.5t-11.5 53t-26.5 47.5t-49 30.5t-77 12.5q-121 0 -194 -24l-15 94q97 29 209 29z" />
    <glyph glyph-name="guillemotleft" unicode="&#xab;" horiz-adv-x="925" 
d="M844 252q-12 -8 -35.5 -24.5t-36.5 -24.5l-311 430q52 70 155.5 213.5t155.5 214.5q13 -8 36.5 -24.5t35.5 -24.5l-256 -379zM489 252q-11 -8 -34.5 -24.5t-34.5 -24.5l-311 430q52 70 155.5 213.5t155.5 214.5q11 -8 34.5 -24.5t34.5 -24.5l-253 -379q43 -63 253 -381z
" />
    <glyph glyph-name="logicalnot" unicode="&#xac;" horiz-adv-x="1155" 
d="M973 205h-105v452h-741v99h846v-551z" />
    <glyph glyph-name="uni00AD" unicode="&#xad;" horiz-adv-x="577" 
d="M72 553v102h463v-102h-463z" />
    <glyph glyph-name="registered" unicode="&#xae;" horiz-adv-x="1691" 
d="M1559 707q0 -159 -57 -297t-153.5 -232.5t-226 -148.5t-272.5 -54t-272.5 54t-226 148.5t-153.5 232.5t-57 297q0 210 97.5 379t259 260.5t352.5 91.5t352.5 -91.5t259 -260.5t97.5 -379zM1464 707q0 136 -47.5 255.5t-129 204t-195 133t-242.5 48.5q-172 0 -312 -83
t-220 -230t-80 -328q0 -173 73.5 -314.5t214 -230t324.5 -99.5q172 0 312.5 83.5t221 231t80.5 329.5zM1196 256h-94q-180 294 -283 399h-135v-399h-82v897q91 37 217 37q166 0 253 -71.5t87 -205.5q0 -110 -64.5 -178t-181.5 -78v-2q130 -162 283 -399zM1073 913
q0 55 -15.5 95.5t-39 64t-58.5 37.5t-67.5 18.5t-73.5 4.5q-71 0 -135 -19v-397h135q59 0 102.5 8.5t79 29.5t54 60.5t18.5 97.5z" />
    <glyph glyph-name="macron" unicode="&#xaf;" horiz-adv-x="770" 
d="M657 1329h-542v113h542v-113z" />
    <glyph glyph-name="degree" unicode="&#xb0;" horiz-adv-x="651" 
d="M662 1223q0 -124 -82.5 -204.5t-200.5 -80.5t-200.5 80.5t-82.5 204.5t82.5 203t200.5 79t200.5 -79t82.5 -203zM578 1223q0 87 -57.5 144.5t-141.5 57.5t-141.5 -57.5t-57.5 -144.5q0 -88 57.5 -145.5t141.5 -57.5t141.5 57.5t57.5 145.5z" />
    <glyph glyph-name="plusminus" unicode="&#xb1;" horiz-adv-x="1155" 
d="M973 588h-373v-410h-102v410h-371v102h371v408h102v-408h373v-102zM115 0v102h925v-102h-925z" />
    <glyph glyph-name="twosuperior" unicode="&#xb2;" horiz-adv-x="735" 
d="M582 1229q0 -42 -14 -79t-43.5 -71.5t-54 -57t-67.5 -56.5q-174 -137 -174 -217h392v-99h-508q-2 14 -2 41q0 40 10.5 77.5t23 63t40.5 58.5t43.5 48t52.5 48.5t49 44.5q39 33 55 47.5t40 41.5t33 54t9 60q0 119 -137 119q-59 0 -109.5 -26.5t-77.5 -53.5l-55 78
q96 100 252 100q117 0 179.5 -56t62.5 -165z" />
    <glyph glyph-name="threesuperior" unicode="&#xb3;" horiz-adv-x="735" 
d="M299 731q110 0 154.5 36.5t44.5 102.5q0 80 -68 116t-172 36h-27v92h31q195 0 195 131q0 59 -39 84t-101 25q-99 0 -182 -58l-41 86q31 25 91 46.5t137 21.5q245 0 245 -195q0 -35 -8 -59q-24 -79 -117 -119q134 -42 162 -147q8 -24 8 -64q0 -102 -76 -167.5t-231 -65.5
q-133 0 -213 43l27 96q89 -41 180 -41z" />
    <glyph glyph-name="acute" unicode="&#xb4;" horiz-adv-x="569" 
d="M186 1223h-63l178 360h174z" />
    <glyph glyph-name="mu" unicode="&#xb5;" horiz-adv-x="1177" 
d="M944 51q-152 -67 -379 -67q-174 0 -284 96q6 -100 6 -297v-193h-121v1491h123v-759q29 -130 95.5 -185t188.5 -55q170 0 250 41v958h121v-1030z" />
    <glyph glyph-name="paragraph" unicode="&#xb6;" horiz-adv-x="1261" 
d="M483 1405h246h246v-1815h-109v1737h-268v-1737h-106v1026q-193 15 -303.5 118.5t-110.5 279.5q0 175 111 272t294 119z" />
    <glyph glyph-name="periodcentered" unicode="&#xb7;" horiz-adv-x="503" 
d="M340 653q0 -43 -27.5 -71.5t-72.5 -28.5q-44 0 -72.5 28.5t-28.5 71.5q0 42 28.5 71.5t72.5 29.5q45 0 72.5 -29.5t27.5 -71.5z" />
    <glyph glyph-name="cedilla" unicode="&#xb8;" horiz-adv-x="770" 
d="M422 -74q62 -27 93.5 -62.5t31.5 -92.5q0 -28 -9 -53t-29.5 -49t-62.5 -38t-100 -14q-100 0 -145 25l16 88q42 -19 121 -19q84 0 84 60q0 32 -26 50.5t-93 45.5q17 61 84 174h94q-38 -65 -59 -115z" />
    <glyph glyph-name="onesuperior" unicode="&#xb9;" horiz-adv-x="735" 
d="M152 1184l-21 67q62 25 137.5 75.5t122.5 105.5h76v-783h-111v623q-89 -56 -204 -88z" />
    <glyph glyph-name="ordmasculine" unicode="&#xba;" horiz-adv-x="935" 
d="M864 1026q0 -189 -112.5 -308.5t-284.5 -119.5q-170 0 -282.5 119.5t-112.5 308.5t112.5 308.5t282.5 119.5q172 0 284.5 -119.5t112.5 -308.5zM735 1026q0 154 -71 244t-197 90q-125 0 -195.5 -90t-70.5 -244t70.5 -245t195.5 -91q126 0 197 91t71 245z" />
    <glyph glyph-name="guillemotright" unicode="&#xbb;" horiz-adv-x="925" 
d="M864 633l-311 -430q-13 8 -36.5 24.5t-35.5 24.5q86 127 254 381l-254 379q12 8 35.5 24.5t36.5 24.5q52 -71 155.5 -214.5t155.5 -213.5zM512 633l-311 -430q-12 8 -35.5 24.5t-36.5 24.5q43 63 128 190.5t128 190.5l-256 379q13 8 36.5 24.5t35.5 24.5
q52 -71 155.5 -214.5t155.5 -213.5z" />
    <glyph glyph-name="onequarter" unicode="&#xbc;" horiz-adv-x="1789" 
d="M1616 289h104v-90h-104v-197h-109v197h-385v67q50 103 170 267.5t228 250.5h96v-495zM379 0l809 1419h135l-809 -1419h-135zM1239 289h268v366q-66 -66 -143.5 -173.5t-124.5 -192.5zM152 1184l-21 67q62 25 137.5 75.5t122.5 105.5h76v-783h-111v623q-89 -56 -204 -88z
" />
    <glyph glyph-name="onehalf" unicode="&#xbd;" horiz-adv-x="1789" 
d="M152 1184l-21 67q62 25 137.5 75.5t122.5 105.5h76v-783h-111v623q-89 -56 -204 -88zM379 0l809 1419h135l-809 -1419h-135zM1636 582q0 -42 -14 -79.5t-43 -71.5t-54 -57.5t-67 -56.5q-99 -80 -136.5 -129t-37.5 -88h391v-98h-508q-2 14 -2 41q0 40 10.5 77.5t23 63
t40.5 58.5t43.5 48t52.5 48.5t49 44.5q40 33 55.5 47t40 41.5t33.5 54.5t9 60q0 63 -38 91t-100 28q-59 0 -109 -26.5t-77 -53.5l-55 77q97 101 252 101q117 0 179 -56t62 -165z" />
    <glyph glyph-name="threequarters" unicode="&#xbe;" horiz-adv-x="1789" 
d="M453 0l809 1419h135l-809 -1419h-135zM457 1245q0 109 -140 109q-101 0 -182 -58l-41 86q31 25 91 46.5t137 21.5q245 0 245 -195q0 -35 -8 -59q-24 -79 -117 -119q134 -42 162 -147q8 -24 8 -64q0 -102 -76 -167.5t-231 -65.5q-133 0 -213 43l27 96q89 -41 180 -41
q110 0 154.5 36.5t44.5 102.5q0 41 -20.5 72t-55.5 47.5t-76 24.5t-88 8h-27v92q50 0 83.5 4t69.5 16t54.5 40t18.5 71zM1616 289h104v-90h-104v-197h-109v197h-385v67q50 103 170 267.5t228 250.5h96v-495zM1239 289h268v366q-66 -66 -143.5 -173.5t-124.5 -192.5z" />
    <glyph glyph-name="questiondown" unicode="&#xbf;" horiz-adv-x="778" 
d="M203 -80q0 -182 252 -182q137 0 250 61l38 -110q-49 -28 -130.5 -49t-172.5 -21q-105 0 -182.5 27t-118.5 71.5t-59.5 92t-18.5 98.5q0 57 19.5 110t50.5 95t68 83t74.5 82t68.5 83t50.5 95t19.5 109q0 19 -2 33h51h53q8 -31 8 -76q0 -72 -33 -139.5t-80 -121t-93.5 -105
t-79.5 -112.5t-33 -124zM561 946q0 -50 -30 -81t-82 -31t-82.5 31t-30.5 81q0 49 30.5 81t82.5 32t82 -32t30 -81z" />
    <glyph glyph-name="Agrave" unicode="&#xc0;" horiz-adv-x="1312" 
d="M1204 0h-137q-117 340 -149 434h-603q-82 -222 -151 -434h-127q124 345 187.5 520.5t160 430t182.5 462.5h107q64 -156 135.5 -343t121 -321.5t137.5 -376t136 -372.5zM885 532q-84 241 -201 560q-17 45 -37.5 107t-28.5 79q-9 -12 -28 -72q-40 -121 -125.5 -353.5
t-116.5 -320.5h537zM641 1524h-63l-289 360h174z" />
    <glyph glyph-name="Aacute" unicode="&#xc1;" horiz-adv-x="1312" 
d="M1204 0h-137q-117 340 -149 434h-603q-82 -222 -151 -434h-127q124 345 187.5 520.5t160 430t182.5 462.5h107q64 -156 135.5 -343t121 -321.5t137.5 -376t136 -372.5zM885 532q-84 241 -201 560q-17 45 -37.5 107t-28.5 79q-9 -12 -28 -72q-40 -121 -125.5 -353.5
t-116.5 -320.5h537zM649 1571h-63l178 360h174z" />
    <glyph glyph-name="Acircumflex" unicode="&#xc2;" horiz-adv-x="1312" 
d="M1204 0h-137q-117 340 -149 434h-603q-82 -222 -151 -434h-127q124 345 187.5 520.5t160 430t182.5 462.5h107q64 -156 135.5 -343t121 -321.5t137.5 -376t136 -372.5zM885 532q-84 241 -201 560q-17 45 -37.5 107t-28.5 79q-9 -12 -28 -72q-40 -121 -125.5 -353.5
t-116.5 -320.5h537zM616 1702l-213 -197l-57 64l270 301l271 -301l-58 -64z" />
    <glyph glyph-name="Atilde" unicode="&#xc3;" horiz-adv-x="1312" 
d="M1204 0h-137q-117 340 -149 434h-603q-82 -222 -151 -434h-127q124 345 187.5 520.5t160 430t182.5 462.5h107q64 -156 135.5 -343t121 -321.5t137.5 -376t136 -372.5zM885 532q-84 241 -201 560q-17 45 -37.5 107t-28.5 79q-9 -12 -28 -72q-40 -121 -125.5 -353.5
t-116.5 -320.5h537zM737 1542q-46 0 -101 20t-98.5 40t-62.5 20q-38 0 -62.5 -23.5t-50.5 -68.5l-77 37q27 65 75 114.5t121 49.5q51 0 105.5 -20t96 -40t60.5 -20q38 0 62.5 23.5t50.5 68.5l72 -37q-30 -61 -81 -112.5t-110 -51.5z" />
    <glyph glyph-name="Adieresis" unicode="&#xc4;" horiz-adv-x="1312" 
d="M1204 0h-137q-117 340 -149 434h-603q-82 -222 -151 -434h-127q124 345 187.5 520.5t160 430t182.5 462.5h107q64 -156 135.5 -343t121 -321.5t137.5 -376t136 -372.5zM885 532q-84 241 -201 560q-17 45 -37.5 107t-28.5 79q-9 -12 -28 -72q-40 -121 -125.5 -353.5
t-116.5 -320.5h537zM528 1665q0 -44 -26 -71t-68 -27t-68 27t-26 71t26 71t68 27t68 -27t26 -71zM881 1665q0 -44 -26.5 -71t-68.5 -27t-68 27t-26 71t26 71t68 27t68.5 -27t26.5 -71z" />
    <glyph glyph-name="Aring" unicode="&#xc5;" horiz-adv-x="1312" 
d="M1204 0h-137q-117 340 -149 434h-603q-82 -222 -151 -434h-127q124 345 187.5 520.5t160 430t182.5 462.5h107q64 -156 135.5 -343t121 -321.5t137.5 -376t136 -372.5zM885 532q-84 241 -201 560q-17 45 -37.5 107t-28.5 79q-9 -12 -28 -72q-40 -121 -125.5 -353.5
t-116.5 -320.5h537zM809 1739q0 -87 -56.5 -142t-138.5 -55t-139 54.5t-57 142.5q0 86 57 140t139 54q81 0 138 -54.5t57 -139.5zM731 1739q0 56 -33 88.5t-84 32.5t-83.5 -32.5t-32.5 -88.5q0 -58 32.5 -89.5t83.5 -31.5q52 0 84.5 31.5t32.5 89.5z" />
    <glyph glyph-name="AE" unicode="&#xc6;" horiz-adv-x="1873" 
d="M1794 0h-844v389h-588q-117 -204 -206 -389h-144q206 409 416.5 744.5t458.5 674.5h854v-121h-651v-493h577v-119h-577v-565h704v-121zM950 508v797q-265 -368 -397 -590l-123 -207h520z" />
    <glyph glyph-name="Ccedilla" unicode="&#xc7;" horiz-adv-x="1247" 
d="M745 -74q62 -27 93.5 -62.5t31.5 -92.5q0 -28 -8.5 -53t-29.5 -49t-62.5 -38t-99.5 -14q-101 0 -146 25l17 88q42 -19 121 -19q83 0 83 60q0 33 -24.5 50.5t-93.5 45.5q9 27 47 110q-246 33 -396.5 225.5t-150.5 508.5q0 173 54 315.5t145 233.5t208.5 140.5t247.5 49.5
q142 0 246 -30t152 -64l-45 -121q-149 90 -326 90q-171 0 -293 -78.5t-182 -216t-60 -321.5q0 -287 134 -451t378 -164q225 0 365 78l39 -119q-38 -28 -154.5 -56t-271.5 -28q-2 -4 -19 -43z" />
    <glyph glyph-name="Egrave" unicode="&#xc8;" horiz-adv-x="1136" 
d="M924 0h-748v1413h721v-100h-592v-525h531v-100h-531v-588h619v-100zM590 1524h-64l-288 360h174z" />
    <glyph glyph-name="Eacute" unicode="&#xc9;" horiz-adv-x="1136" 
d="M924 0h-748v1413h721v-100h-592v-525h531v-100h-531v-588h619v-100zM598 1571h-63l178 360h174z" />
    <glyph glyph-name="Ecircumflex" unicode="&#xca;" horiz-adv-x="1136" 
d="M924 0h-748v1413h721v-100h-592v-525h531v-100h-531v-588h619v-100zM565 1702l-213 -197l-57 64l270 301l271 -301l-58 -64z" />
    <glyph glyph-name="Edieresis" unicode="&#xcb;" horiz-adv-x="1136" 
d="M924 0h-748v1413h721v-100h-592v-525h531v-100h-531v-588h619v-100zM477 1665q0 -44 -26 -71t-68 -27t-68 27t-26 71t26 71t68 27t68 -27t26 -71zM829 1665q0 -44 -26 -71t-68 -27t-68 27t-26 71t26 71t68 27t68 -27t26 -71z" />
    <glyph glyph-name="Igrave" unicode="&#xcc;" horiz-adv-x="507" 
d="M309 0h-129v1413h129v-1413zM268 1524h-63l-289 360h174z" />
    <glyph glyph-name="Iacute" unicode="&#xcd;" horiz-adv-x="507" 
d="M309 0h-129v1413h129v-1413zM276 1571h-63l178 360h174z" />
    <glyph glyph-name="Icircumflex" unicode="&#xce;" horiz-adv-x="507" 
d="M309 0h-129v1413h129v-1413zM244 1702l-213 -197l-58 64l271 301l270 -301l-57 -64z" />
    <glyph glyph-name="Idieresis" unicode="&#xcf;" horiz-adv-x="507" 
d="M309 0h-129v1413h129v-1413zM156 1665q0 -44 -26.5 -71t-68.5 -27t-68 27t-26 71t26 71t68 27t68.5 -27t26.5 -71zM508 1665q0 -44 -26 -71t-68 -27t-68.5 27t-26.5 71t26.5 71t68.5 27t68 -27t26 -71z" />
    <glyph glyph-name="Eth" unicode="&#xd0;" horiz-adv-x="1466" 
d="M1339 711q0 -178 -57 -316.5t-161 -227t-246 -134t-316 -45.5q-204 0 -346 37v661h-164v113h164v594q139 39 346 39q174 0 316 -45.5t246 -134t161 -226.5t57 -315zM352 686v-563q112 -14 223 -14q301 0 459 159.5t158 442.5q0 282 -158 441t-459 159q-103 0 -223 -15
v-497h271v-113h-271z" />
    <glyph glyph-name="Ntilde" unicode="&#xd1;" horiz-adv-x="1452" 
d="M1208 0h-59h-59q-212 373 -705 1116q-18 26 -40.5 65t-35.5 60t-18 21q0 -33 2 -234t2 -305v-723h-119v1413h131q401 -566 711 -1083q15 -26 33 -60t28 -51t15 -22q0 68 -2 319t-2 371v526h118v-1413zM856 1636q-46 0 -101 20t-98.5 40t-62.5 20q-38 0 -62.5 -23.5
t-50.5 -68.5l-78 37q27 65 75.5 114.5t121.5 49.5q51 0 105.5 -20t96 -40t60.5 -20q38 0 62.5 23.5t50.5 68.5l72 -37q-30 -61 -81 -112.5t-110 -51.5z" />
    <glyph glyph-name="Ograve" unicode="&#xd2;" horiz-adv-x="1400" 
d="M1278 707q0 -335 -156 -533.5t-422 -198.5t-421.5 198t-155.5 534q0 334 155.5 533.5t421.5 199.5t422 -199.5t156 -533.5zM1145 709q0 132 -27 244.5t-80 199t-139.5 135.5t-198.5 49q-90 0 -164 -32t-125.5 -89t-86.5 -136.5t-51.5 -172.5t-16.5 -198t16 -197.5
t51 -172.5t86 -137t125.5 -89.5t165.5 -32.5q114 0 201 49.5t139.5 136.5t78.5 199t26 244zM731 1585h-63l-289 361h174z" />
    <glyph glyph-name="Oacute" unicode="&#xd3;" horiz-adv-x="1400" 
d="M1278 707q0 -335 -156 -533.5t-422 -198.5t-421.5 198t-155.5 534q0 334 155.5 533.5t421.5 199.5t422 -199.5t156 -533.5zM1145 709q0 132 -27 244.5t-80 199t-139.5 135.5t-198.5 49q-90 0 -164 -32t-125.5 -89t-86.5 -136.5t-51.5 -172.5t-16.5 -198t16 -197.5
t51 -172.5t86 -137t125.5 -89.5t165.5 -32.5q114 0 201 49.5t139.5 136.5t78.5 199t26 244zM739 1632h-63l178 361h174z" />
    <glyph glyph-name="Ocircumflex" unicode="&#xd4;" horiz-adv-x="1400" 
d="M1278 707q0 -335 -156 -533.5t-422 -198.5t-421.5 198t-155.5 534q0 334 155.5 533.5t421.5 199.5t422 -199.5t156 -533.5zM1145 709q0 132 -27 244.5t-80 199t-139.5 135.5t-198.5 49q-90 0 -164 -32t-125.5 -89t-86.5 -136.5t-51.5 -172.5t-16.5 -198t16 -197.5
t51 -172.5t86 -137t125.5 -89.5t165.5 -32.5q114 0 201 49.5t139.5 136.5t78.5 199t26 244zM707 1763l-213 -196l-58 63l271 301l270 -301l-57 -63z" />
    <glyph glyph-name="Otilde" unicode="&#xd5;" horiz-adv-x="1400" 
d="M1278 707q0 -335 -156 -533.5t-422 -198.5t-421.5 198t-155.5 534q0 334 155.5 533.5t421.5 199.5t422 -199.5t156 -533.5zM1145 709q0 132 -27 244.5t-80 199t-139.5 135.5t-198.5 49q-90 0 -164 -32t-125.5 -89t-86.5 -136.5t-51.5 -172.5t-16.5 -198t16 -197.5
t51 -172.5t86 -137t125.5 -89.5t165.5 -32.5q114 0 201 49.5t139.5 136.5t78.5 199t26 244zM827 1604q-46 0 -101 20t-98.5 39.5t-62.5 19.5q-27 0 -49 -15t-34 -31t-29 -46l-78 37q27 65 75 114.5t121 49.5q51 0 106 -20t96.5 -40t60.5 -20q27 0 49 15t34 31t29 46l72 -37
q-30 -61 -81 -112t-110 -51z" />
    <glyph glyph-name="Odieresis" unicode="&#xd6;" horiz-adv-x="1400" 
d="M1278 707q0 -335 -156 -533.5t-422 -198.5t-421.5 198t-155.5 534q0 334 155.5 533.5t421.5 199.5t422 -199.5t156 -533.5zM1145 709q0 132 -27 244.5t-80 199t-139.5 135.5t-198.5 49q-90 0 -164 -32t-125.5 -89t-86.5 -136.5t-51.5 -172.5t-16.5 -198t16 -197.5
t51 -172.5t86 -137t125.5 -89.5t165.5 -32.5q114 0 201 49.5t139.5 136.5t78.5 199t26 244zM618 1726q0 -44 -26 -71t-68 -27t-68 27t-26 71t26.5 71.5t67.5 27.5t67.5 -27.5t26.5 -71.5zM971 1726q0 -44 -26 -71t-68 -27t-68.5 27t-26.5 71t26.5 71.5t68.5 27.5
q41 0 67.5 -27.5t26.5 -71.5z" />
    <glyph glyph-name="multiply" unicode="&#xd7;" horiz-adv-x="1155" 
d="M184 915l80 80l314 -315l313 315l80 -80l-316 -313l316 -313l-80 -80l-313 315l-314 -315l-80 80l316 313z" />
    <glyph glyph-name="Oslash" unicode="&#xd8;" horiz-adv-x="1585" 
d="M1458 711q0 -143 -34.5 -264t-96 -208t-145 -148.5t-182 -91.5t-207.5 -30q-225 0 -396 125l-125 -164l-98 74l133 172q-180 193 -180 535q0 142 34.5 262.5t96 207.5t145.5 148t182.5 91t207.5 30q230 0 399 -129l131 170l98 -74l-139 -180q176 -199 176 -526zM274 711
q0 -261 119 -424q120 155 359.5 465t359.5 465q-132 108 -319 108q-238 0 -378.5 -164.5t-140.5 -449.5zM1311 711q0 253 -115 415l-719 -929q127 -103 316 -103q237 0 377.5 166t140.5 451z" />
    <glyph glyph-name="Ugrave" unicode="&#xd9;" horiz-adv-x="1392" 
d="M1106 461q0 -103 -28.5 -190t-84 -154.5t-146.5 -105.5t-208 -38q-203 0 -320 110.5t-137 287.5q-8 81 -8 190v852h127v-842q0 -242 80 -365.5t262 -123.5q127 0 217.5 75.5t110.5 211.5q12 89 12 202v842h123v-952zM678 1524h-64l-288 360h174z" />
    <glyph glyph-name="Uacute" unicode="&#xda;" horiz-adv-x="1392" 
d="M1106 461q0 -103 -28.5 -190t-84 -154.5t-146.5 -105.5t-208 -38q-203 0 -320 110.5t-137 287.5q-8 81 -8 190v852h127v-842q0 -242 80 -365.5t262 -123.5q127 0 217.5 75.5t110.5 211.5q12 89 12 202v842h123v-952zM686 1571h-63l178 360h174z" />
    <glyph glyph-name="Ucircumflex" unicode="&#xdb;" horiz-adv-x="1392" 
d="M1106 461q0 -103 -28.5 -190t-84 -154.5t-146.5 -105.5t-208 -38q-203 0 -320 110.5t-137 287.5q-8 81 -8 190v852h127v-842q0 -242 80 -365.5t262 -123.5q127 0 217.5 75.5t110.5 211.5q12 89 12 202v842h123v-952zM653 1702l-213 -197l-57 64l270 301l271 -301l-58 -64
z" />
    <glyph glyph-name="Udieresis" unicode="&#xdc;" horiz-adv-x="1392" 
d="M1106 461q0 -103 -28.5 -190t-84 -154.5t-146.5 -105.5t-208 -38q-203 0 -320 110.5t-137 287.5q-8 81 -8 190v852h127v-842q0 -242 80 -365.5t262 -123.5q127 0 217.5 75.5t110.5 211.5q12 89 12 202v842h123v-952zM565 1665q0 -44 -26 -71t-68 -27t-68 27t-26 71t26 71
t68 27t68 -27t26 -71zM918 1665q0 -44 -26.5 -71t-68.5 -27t-68 27t-26 71t26 71t68 27t68.5 -27t26.5 -71z" />
    <glyph glyph-name="Yacute" unicode="&#xdd;" 
d="M1044 1413q-278 -524 -440 -799v-614h-127v612q-211 359 -442 801h145q190 -398 365 -704q156 275 368 704h131zM580 1571h-64l178 360h174z" />
    <glyph glyph-name="Thorn" unicode="&#xde;" horiz-adv-x="1214" 
d="M324 1419v-252q102 13 215 13q298 0 449 -114.5t151 -326.5q0 -234 -159.5 -338t-463.5 -104h-192v-297h-140v1419h140zM545 1059q-127 0 -221 -12v-629h176q96 0 167.5 8t135.5 29.5t104 57.5t63 93t23 135q0 73 -25 129.5t-66.5 91.5t-100.5 57.5t-121 31t-135 8.5z
" />
    <glyph glyph-name="germandbls" unicode="&#xdf;" horiz-adv-x="1220" 
d="M973 1268q0 -26 -5.5 -51.5t-11.5 -45t-20.5 -42.5t-22.5 -36.5t-27.5 -35t-26.5 -28.5l-27.5 -27.5l-22.5 -22.5q-60 -60 -81 -93t-21 -75q0 -12 2.5 -23t5.5 -19.5t11 -17.5t12.5 -15t16.5 -14.5t17.5 -12.5t20 -11.5t20 -10.5t22.5 -11t21 -10q62 -30 97.5 -49.5
t78.5 -52.5t65.5 -67t38 -85t15.5 -115q0 -153 -104 -237.5t-291 -84.5q-87 0 -159 18.5t-105 35.5l14 61q9 46 14 62q99 -60 260 -60q72 0 127 25q107 50 107 180q0 60 -23 102.5t-66 74.5t-126 75q-142 74 -185 118.5t-43 131.5q0 43 21 86.5t44 70.5t69 74q6 6 32.5 34
t31 34t23 28t22 31.5t13 29t11.5 37t2 38.5q0 93 -64 150.5t-172 57.5q-295 0 -295 -323v-1147h-133v1026v129q0 198 111.5 316t300.5 118q194 0 289.5 -86t95.5 -235z" />
    <glyph glyph-name="agrave" unicode="&#xe0;" horiz-adv-x="1042" 
d="M850 41q-54 -26 -152.5 -43.5t-210.5 -17.5q-186 0 -287.5 82t-101.5 239q0 168 120.5 256.5t328.5 106.5q51 2 67 2t66 -3.5t51 -3.5q0 87 -10 145t-37 106t-80 71t-135 23q-152 0 -256 -58l-25 94q45 25 122.5 44.5t168.5 19.5q176 0 273.5 -93.5t97.5 -271.5v-116
v-582zM731 102v465q-103 8 -192 2q-71 -9 -123.5 -25t-99 -45.5t-71 -79t-24.5 -118.5q0 -229 285 -229q133 0 225 30zM539 1206h-64l-289 361h174z" />
    <glyph glyph-name="aacute" unicode="&#xe1;" horiz-adv-x="1042" 
d="M850 41q-54 -26 -152.5 -43.5t-210.5 -17.5q-186 0 -287.5 82t-101.5 239q0 168 120.5 256.5t328.5 106.5q51 2 67 2t66 -3.5t51 -3.5q0 87 -10 145t-37 106t-80 71t-135 23q-152 0 -256 -58l-25 94q45 25 122.5 44.5t168.5 19.5q176 0 273.5 -93.5t97.5 -271.5v-116
v-582zM731 102v465q-103 8 -192 2q-71 -9 -123.5 -25t-99 -45.5t-71 -79t-24.5 -118.5q0 -229 285 -229q133 0 225 30zM547 1266h-64l179 360h174z" />
    <glyph glyph-name="acircumflex" unicode="&#xe2;" horiz-adv-x="1042" 
d="M850 41q-54 -26 -152.5 -43.5t-210.5 -17.5q-186 0 -287.5 82t-101.5 239q0 168 120.5 256.5t328.5 106.5q51 2 67 2t66 -3.5t51 -3.5q0 87 -10 145t-37 106t-80 71t-135 23q-152 0 -256 -58l-25 94q45 25 122.5 44.5t168.5 19.5q176 0 273.5 -93.5t97.5 -271.5v-116
v-582zM731 102v465q-103 8 -192 2q-71 -9 -123.5 -25t-99 -45.5t-71 -79t-24.5 -118.5q0 -229 285 -229q133 0 225 30zM514 1384l-213 -196l-57 63l270 301l270 -301l-57 -63z" />
    <glyph glyph-name="atilde" unicode="&#xe3;" horiz-adv-x="1042" 
d="M850 41q-54 -26 -152.5 -43.5t-210.5 -17.5q-186 0 -287.5 82t-101.5 239q0 168 120.5 256.5t328.5 106.5q51 2 67 2t66 -3.5t51 -3.5q0 87 -10 145t-37 106t-80 71t-135 23q-152 0 -256 -58l-25 94q45 25 122.5 44.5t168.5 19.5q176 0 273.5 -93.5t97.5 -271.5v-116
v-582zM731 102v465q-103 8 -192 2q-71 -9 -123.5 -25t-99 -45.5t-71 -79t-24.5 -118.5q0 -229 285 -229q133 0 225 30zM635 1225q-46 0 -101 20t-98.5 40t-62.5 20q-38 0 -62.5 -24t-50.5 -69l-78 37q27 65 75.5 114.5t121.5 49.5q51 0 105.5 -20t96 -40t60.5 -20
q38 0 62.5 23.5t50.5 68.5l71 -36q-30 -62 -80.5 -113t-109.5 -51z" />
    <glyph glyph-name="adieresis" unicode="&#xe4;" horiz-adv-x="1042" 
d="M850 41q-54 -26 -152.5 -43.5t-210.5 -17.5q-186 0 -287.5 82t-101.5 239q0 168 120.5 256.5t328.5 106.5q51 2 67 2t66 -3.5t51 -3.5q0 87 -10 145t-37 106t-80 71t-135 23q-152 0 -256 -58l-25 94q45 25 122.5 44.5t168.5 19.5q176 0 273.5 -93.5t97.5 -271.5v-116
v-582zM731 102v465q-103 8 -192 2q-71 -9 -123.5 -25t-99 -45.5t-71 -79t-24.5 -118.5q0 -229 285 -229q133 0 225 30zM426 1348q0 -44 -26.5 -71.5t-67.5 -27.5t-67.5 27.5t-26.5 71.5t26 71t68 27t68 -27t26 -71zM778 1348q0 -44 -26.5 -71.5t-67.5 -27.5t-67.5 27.5
t-26.5 71.5t26 71t68 27t68 -27t26 -71z" />
    <glyph glyph-name="aring" unicode="&#xe5;" horiz-adv-x="1042" 
d="M850 41q-54 -26 -152.5 -43.5t-210.5 -17.5q-186 0 -287.5 82t-101.5 239q0 168 120.5 256.5t328.5 106.5q51 2 67 2t66 -3.5t51 -3.5q0 87 -10 145t-37 106t-80 71t-135 23q-152 0 -256 -58l-25 94q45 25 122.5 44.5t168.5 19.5q176 0 273.5 -93.5t97.5 -271.5v-116
v-582zM731 102v465q-103 8 -192 2q-71 -9 -123.5 -25t-99 -45.5t-71 -79t-24.5 -118.5q0 -229 285 -229q133 0 225 30zM707 1421q0 -87 -56.5 -141.5t-138.5 -54.5t-139.5 54t-57.5 142q0 86 57.5 140.5t139.5 54.5q81 0 138 -55t57 -140zM629 1421q0 56 -33 88.5t-84 32.5
t-84 -32.5t-33 -88.5q0 -58 32.5 -89.5t84.5 -31.5t84.5 31.5t32.5 89.5z" />
    <glyph glyph-name="ae" unicode="&#xe6;" horiz-adv-x="1748" 
d="M885 614h606q-5 167 -79 259t-208 92q-136 0 -223.5 -102.5t-95.5 -248.5zM516 -23q-92 0 -166.5 19t-132 57.5t-88.5 103.5t-31 152q0 111 58.5 185.5t156 107.5t230.5 33q52 0 118.5 -11t83.5 -20v9q0 36 -0.5 55t-2.5 53.5t-6 54.5t-13 49.5t-21.5 46.5t-31.5 37
t-44 30.5t-59 18t-75 7.5q-158 0 -261 -41l-16 114q92 45 283 45q270 0 346 -200q101 148 258 188q50 12 100 12q201 0 313.5 -130t112.5 -388q0 -13 -2 -34t-2 -29h-743q6 -200 98.5 -302t284.5 -102q143 0 264 56l24 -115q-37 -22 -117 -42t-175 -20q-50 0 -111 7
q-157 21 -254 116q-148 -123 -379 -123zM748 487q-73 33 -209 33q-303 0 -303 -211q0 -213 280 -213q198 0 303 94q-68 114 -71 297z" />
    <glyph glyph-name="ccedilla" unicode="&#xe7;" horiz-adv-x="942" 
d="M625 -23q-4 -8 -11.5 -25.5t-11.5 -25.5q60 -27 92.5 -63.5t32.5 -91.5q0 -28 -9 -53t-29.5 -49t-62.5 -38t-100 -14q-100 0 -145 25l16 88q42 -19 121 -19q84 0 84 60q0 33 -24.5 50.5t-94.5 45.5q18 59 52 117q-204 24 -313 167.5t-109 374.5q0 252 131.5 404.5
t355.5 152.5q187 0 277 -51l-35 -114q-92 45 -230 45q-176 0 -267 -113t-91 -324q0 -428 383 -428q124 0 229 54l29 -115q-39 -22 -115 -40.5t-155 -19.5z" />
    <glyph glyph-name="egrave" unicode="&#xe8;" horiz-adv-x="1122" 
d="M961 555l-725 -53q18 -420 376 -420q154 0 265 59l28 -96q-41 -26 -121.5 -45.5t-175.5 -19.5q-239 0 -367 144t-128 419q0 138 35.5 247t97 176.5t140 102.5t167.5 35q174 0 278.5 -104.5t122.5 -315.5q5 -52 7 -129zM840 639q-1 182 -76 273.5t-211 91.5
q-139 0 -226 -109.5t-91 -302.5zM567 1176h-63l-289 360h174z" />
    <glyph glyph-name="eacute" unicode="&#xe9;" horiz-adv-x="1122" 
d="M961 555l-725 -53q18 -420 376 -420q154 0 265 59l28 -96q-41 -26 -121.5 -45.5t-175.5 -19.5q-239 0 -367 144t-128 419q0 138 35.5 247t97 176.5t140 102.5t167.5 35q174 0 278.5 -104.5t122.5 -315.5q5 -52 7 -129zM840 639q-1 182 -76 273.5t-211 91.5
q-139 0 -226 -109.5t-91 -302.5zM575 1223h-63l178 360h174z" />
    <glyph glyph-name="ecircumflex" unicode="&#xea;" horiz-adv-x="1122" 
d="M961 555l-725 -53q18 -420 376 -420q154 0 265 59l28 -96q-41 -26 -121.5 -45.5t-175.5 -19.5q-239 0 -367 144t-128 419q0 138 35.5 247t97 176.5t140 102.5t167.5 35q174 0 278.5 -104.5t122.5 -315.5q5 -52 7 -129zM840 639q-1 182 -76 273.5t-211 91.5
q-139 0 -226 -109.5t-91 -302.5zM543 1354l-213 -197l-58 64l271 301l270 -301l-57 -64z" />
    <glyph glyph-name="edieresis" unicode="&#xeb;" horiz-adv-x="1122" 
d="M961 555l-725 -53q18 -420 376 -420q154 0 265 59l28 -96q-41 -26 -121.5 -45.5t-175.5 -19.5q-239 0 -367 144t-128 419q0 138 35.5 247t97 176.5t140 102.5t167.5 35q174 0 278.5 -104.5t122.5 -315.5q5 -52 7 -129zM840 639q-1 182 -76 273.5t-211 91.5
q-139 0 -226 -109.5t-91 -302.5zM455 1317q0 -44 -26.5 -71t-68.5 -27t-68 27t-26 71t26 71t68 27t68.5 -27t26.5 -71zM807 1317q0 -44 -26 -71t-68 -27t-68.5 27t-26.5 71t26.5 71t68.5 27t68 -27t26 -71z" />
    <glyph glyph-name="igrave" unicode="&#xec;" horiz-adv-x="485" 
d="M309 1059v-1059h-133v1059h133zM268 1176h-63l-289 360h174z" />
    <glyph glyph-name="iacute" unicode="&#xed;" horiz-adv-x="485" 
d="M309 1059v-1059h-133v1059h133zM276 1223h-63l178 360h174z" />
    <glyph glyph-name="icircumflex" unicode="&#xee;" horiz-adv-x="485" 
d="M309 1059v-1059h-133v1059h133zM244 1354l-213 -197l-58 64l271 301l270 -301l-57 -64z" />
    <glyph glyph-name="idieresis" unicode="&#xef;" horiz-adv-x="485" 
d="M309 1059v-1059h-133v1059h133zM156 1317q0 -44 -26.5 -71t-68.5 -27t-68 27t-26 71t26 71t68 27t68.5 -27t26.5 -71zM508 1317q0 -44 -26 -71t-68 -27t-68.5 27t-26.5 71t26.5 71t68.5 27t68 -27t26 -71z" />
    <glyph glyph-name="eth" unicode="&#xf0;" horiz-adv-x="1183" 
d="M113 502q0 233 129.5 364t343.5 131q106 0 188.5 -33.5t128.5 -72.5q-23 188 -139 364l-268 -94l-35 92l241 84q-81 100 -200 172l88 80q132 -79 235 -207l246 86l35 -92l-219 -78q174 -265 174 -622q0 -75 -5.5 -142.5t-20.5 -139.5t-39 -132t-62.5 -114t-89 -91.5
t-121 -59.5t-156.5 -22q-137 0 -242 72.5t-158.5 191t-53.5 263.5zM920 750q-129 129 -318 129q-90 0 -158 -29t-109.5 -81t-62 -119t-20.5 -148q0 -112 35 -202.5t108 -147t172 -56.5q355 0 355 582q0 47 -2 72z" />
    <glyph glyph-name="ntilde" unicode="&#xf1;" 
d="M944 0h-121v596q0 57 -1.5 93t-7 84t-17 77.5t-32.5 62t-51 50t-74.5 29.5t-102.5 12q-151 0 -248 -37v-967h-123v1034q158 68 389 68q77 0 138 -16.5t101.5 -41.5t69.5 -66t44 -79t23.5 -92.5t10.5 -94t2 -94.5v-618zM713 1288q-46 0 -101 20t-98.5 40t-62.5 20
q-38 0 -62.5 -23.5t-50.5 -68.5l-78 37q27 65 75.5 114.5t121.5 49.5q51 0 105.5 -20t96 -40t60.5 -20q27 0 49 15t34 31t29 46l72 -37q-30 -62 -80.5 -113t-109.5 -51z" />
    <glyph glyph-name="ograve" unicode="&#xf2;" horiz-adv-x="1191" 
d="M999 539q0 -252 -116.5 -407t-325.5 -155q-210 0 -327 154.5t-117 407.5q0 255 116.5 410t325.5 155q211 0 327.5 -155t116.5 -410zM872 539q0 96 -18 178.5t-54 148.5t-98.5 104t-144.5 38q-83 0 -146 -38t-100 -104t-55 -148.5t-18 -178.5q0 -97 18.5 -178t55.5 -145.5
t100 -101t145 -36.5t144.5 36.5t99 101t54 145.5t17.5 178zM584 1176h-64l-289 360h175z" />
    <glyph glyph-name="oacute" unicode="&#xf3;" horiz-adv-x="1191" 
d="M999 539q0 -252 -116.5 -407t-325.5 -155q-210 0 -327 154.5t-117 407.5q0 255 116.5 410t325.5 155q211 0 327.5 -155t116.5 -410zM872 539q0 96 -18 178.5t-54 148.5t-98.5 104t-144.5 38q-83 0 -146 -38t-100 -104t-55 -148.5t-18 -178.5q0 -97 18.5 -178t55.5 -145.5
t100 -101t145 -36.5t144.5 36.5t99 101t54 145.5t17.5 178zM592 1223h-64l179 360h174z" />
    <glyph glyph-name="ocircumflex" unicode="&#xf4;" horiz-adv-x="1191" 
d="M999 539q0 -252 -116.5 -407t-325.5 -155q-210 0 -327 154.5t-117 407.5q0 255 116.5 410t325.5 155q211 0 327.5 -155t116.5 -410zM872 539q0 96 -18 178.5t-54 148.5t-98.5 104t-144.5 38q-83 0 -146 -38t-100 -104t-55 -148.5t-18 -178.5q0 -97 18.5 -178t55.5 -145.5
t100 -101t145 -36.5t144.5 36.5t99 101t54 145.5t17.5 178zM559 1354l-213 -197l-57 64l270 301l270 -301l-57 -64z" />
    <glyph glyph-name="otilde" unicode="&#xf5;" horiz-adv-x="1191" 
d="M999 539q0 -252 -116.5 -407t-325.5 -155q-210 0 -327 154.5t-117 407.5q0 255 116.5 410t325.5 155q211 0 327.5 -155t116.5 -410zM872 539q0 96 -18 178.5t-54 148.5t-98.5 104t-144.5 38q-83 0 -146 -38t-100 -104t-55 -148.5t-18 -178.5q0 -97 18.5 -178t55.5 -145.5
t100 -101t145 -36.5t144.5 36.5t99 101t54 145.5t17.5 178zM680 1194q-46 0 -101 20t-98.5 40t-62.5 20q-38 0 -62.5 -23.5t-50.5 -68.5l-78 37q12 28 27.5 53.5t39.5 52t57.5 42t72.5 15.5q51 0 105.5 -20t96 -39.5t60.5 -19.5q38 0 62.5 23.5t50.5 68.5l71 -37
q-30 -62 -80.5 -113t-109.5 -51z" />
    <glyph glyph-name="odieresis" unicode="&#xf6;" horiz-adv-x="1191" 
d="M999 539q0 -252 -116.5 -407t-325.5 -155q-210 0 -327 154.5t-117 407.5q0 255 116.5 410t325.5 155q211 0 327.5 -155t116.5 -410zM872 539q0 96 -18 178.5t-54 148.5t-98.5 104t-144.5 38q-83 0 -146 -38t-100 -104t-55 -148.5t-18 -178.5q0 -97 18.5 -178t55.5 -145.5
t100 -101t145 -36.5t144.5 36.5t99 101t54 145.5t17.5 178zM471 1317q0 -44 -26 -71t-68 -27t-68 27t-26 71t26 71t68 27t68 -27t26 -71zM823 1317q0 -44 -26 -71t-68 -27t-68 27t-26 71t26 71t68 27t68 -27t26 -71z" />
    <glyph glyph-name="divide" unicode="&#xf7;" horiz-adv-x="1155" 
d="M672 979q0 -42 -28 -71t-71 -29q-44 0 -72 29t-28 71t28 70t72 28t71.5 -28t27.5 -70zM672 209q0 -42 -27.5 -70t-71.5 -28t-72 28t-28 70t28 71t72 29q43 0 71 -29t28 -71zM1038 537h-923v112h923v-112z" />
    <glyph glyph-name="oslash" unicode="&#xf8;" horiz-adv-x="1191" 
d="M1079 528q0 -249 -134.5 -401t-348.5 -152q-163 0 -285 93l-104 -138l-88 66l114 147q-120 144 -120 385q0 249 134.5 402t348.5 153q167 0 289 -98q18 22 52 68t52 69l86 -63l-114 -150q118 -149 118 -381zM254 528q0 -166 63 -274l490 631q-91 78 -211 78
q-158 0 -250 -118t-92 -317zM938 528q0 161 -64 271l-485 -631q78 -72 207 -72q158 0 250 117t92 315z" />
    <glyph glyph-name="ugrave" unicode="&#xf9;" 
d="M928 51q-169 -71 -379 -71q-97 0 -167.5 25t-113 66t-67 106.5t-33 133.5t-8.5 160v610h123v-585q0 -86 6 -145.5t23.5 -114t48.5 -87t82 -51t122 -18.5q167 0 240 41v960h123v-1030zM592 1176h-64l-288 360h174z" />
    <glyph glyph-name="uacute" unicode="&#xfa;" 
d="M928 51q-169 -71 -379 -71q-97 0 -167.5 25t-113 66t-67 106.5t-33 133.5t-8.5 160v610h123v-585q0 -86 6 -145.5t23.5 -114t48.5 -87t82 -51t122 -18.5q167 0 240 41v960h123v-1030zM600 1223h-63l178 360h174z" />
    <glyph glyph-name="ucircumflex" unicode="&#xfb;" 
d="M928 51q-169 -71 -379 -71q-97 0 -167.5 25t-113 66t-67 106.5t-33 133.5t-8.5 160v610h123v-585q0 -86 6 -145.5t23.5 -114t48.5 -87t82 -51t122 -18.5q167 0 240 41v960h123v-1030zM567 1354l-213 -197l-57 64l270 301l271 -301l-58 -64z" />
    <glyph glyph-name="udieresis" unicode="&#xfc;" 
d="M928 51q-169 -71 -379 -71q-97 0 -167.5 25t-113 66t-67 106.5t-33 133.5t-8.5 160v610h123v-585q0 -86 6 -145.5t23.5 -114t48.5 -87t82 -51t122 -18.5q167 0 240 41v960h123v-1030zM479 1317q0 -44 -26 -71t-68 -27t-68 27t-26 71t26 71t68 27t68 -27t26 -71zM831 1317
q0 -44 -26 -71t-68 -27t-68 27t-26 71t26 71t68 27t68 -27t26 -71z" />
    <glyph glyph-name="yacute" unicode="&#xfd;" horiz-adv-x="970" 
d="M909 1081q-193 -692 -358 -1124q-21 -57 -35 -89.5t-34.5 -72.5t-40 -60.5t-46 -35t-57.5 -14.5q-23 0 -45 3t-37 7t-32.5 11.5t-25 11.5t-22.5 13t-18 11l22 76q5 -3 21 -12.5t21.5 -12.5t18 -10t18.5 -9t16 -6t18 -5t16 -1q28 0 52 21t40.5 55.5t28 68.5t22.5 71
q1 4 1.5 6.5t1.5 5.5q-241 555 -398 1091h131q95 -356 269 -825q12 -30 28.5 -80t22.5 -63q4 0 11 24t17.5 62t16.5 55q101 307 240 827h116zM516 1223h-63l178 360h174z" />
    <glyph glyph-name="thorn" unicode="&#xfe;" horiz-adv-x="1193" 
d="M176 1565l133 24v-561q128 51 260 51q230 0 371 -150.5t141 -402.5q0 -247 -127.5 -399t-351.5 -152q-94 0 -171.5 26.5t-121.5 59.5v-440h-133v1944zM309 911v-721q48 -36 122 -65t159 -29q95 0 164 33t109 93.5t58.5 135.5t18.5 168q0 204 -104 318t-279 114
q-76 0 -145 -16t-103 -31z" />
    <glyph glyph-name="ydieresis" unicode="&#xff;" horiz-adv-x="970" 
d="M909 1081q-193 -692 -358 -1124q-21 -57 -35 -89.5t-34.5 -72.5t-40 -60.5t-46 -35t-57.5 -14.5q-23 0 -45 3t-37 7t-32.5 11.5t-25 11.5t-22.5 13t-18 11l22 76q5 -3 21 -12.5t21.5 -12.5t18 -10t18.5 -9t16 -6t18 -5t16 -1q28 0 52 21t40.5 55.5t28 68.5t22.5 71
q1 4 1.5 6.5t1.5 5.5q-241 555 -398 1091h131q95 -356 269 -825q12 -30 28.5 -80t22.5 -63q4 0 11 24t17.5 62t16.5 55q101 307 240 827h116zM395 1317q0 -44 -26 -71t-68 -27t-68 27t-26 71t26 71t68 27t68 -27t26 -71zM748 1317q0 -44 -26.5 -71t-68.5 -27t-68 27t-26 71
t26 71t68 27t68.5 -27t26.5 -71z" />
    <glyph glyph-name="Amacron" unicode="&#x100;" horiz-adv-x="1312" 
d="M1204 0h-137q-117 340 -149 434h-603q-82 -222 -151 -434h-127q124 345 187.5 520.5t160 430t182.5 462.5h107q64 -156 135.5 -343t121 -321.5t137.5 -376t136 -372.5zM885 532q-84 241 -201 560q-17 45 -37.5 107t-28.5 79q-9 -12 -28 -72q-40 -121 -125.5 -353.5
t-116.5 -320.5h537zM881 1618h-543v113h543v-113z" />
    <glyph glyph-name="amacron" unicode="&#x101;" horiz-adv-x="1042" 
d="M850 41q-54 -26 -152.5 -43.5t-210.5 -17.5q-186 0 -287.5 82t-101.5 239q0 168 120.5 256.5t328.5 106.5q51 2 67 2t66 -3.5t51 -3.5q0 87 -10 145t-37 106t-80 71t-135 23q-152 0 -256 -58l-25 94q45 25 122.5 44.5t168.5 19.5q176 0 273.5 -93.5t97.5 -271.5v-116
v-582zM731 102v465q-103 8 -192 2q-71 -9 -123.5 -25t-99 -45.5t-71 -79t-24.5 -118.5q0 -229 285 -229q133 0 225 30zM778 1300h-542v113h542v-113z" />
    <glyph glyph-name="Abreve" unicode="&#x102;" horiz-adv-x="1312" 
d="M1204 0h-137q-117 340 -149 434h-603q-82 -222 -151 -434h-127q124 345 187.5 520.5t160 430t182.5 462.5h107q64 -156 135.5 -343t121 -321.5t137.5 -376t136 -372.5zM885 532q-84 241 -201 560q-17 45 -37.5 107t-28.5 79q-9 -12 -28 -72q-40 -121 -125.5 -353.5
t-116.5 -320.5h537zM614 1542q-107 0 -182 70.5t-67 202.5h88q0 -20 5.5 -42t20 -50.5t49.5 -47t86 -18.5t86 18.5t50 47t20.5 50.5t5.5 42h88q0 -136 -70 -204.5t-180 -68.5z" />
    <glyph glyph-name="abreve" unicode="&#x103;" horiz-adv-x="1042" 
d="M850 41q-54 -26 -152.5 -43.5t-210.5 -17.5q-186 0 -287.5 82t-101.5 239q0 168 120.5 256.5t328.5 106.5q51 2 67 2t66 -3.5t51 -3.5q0 87 -10 145t-37 106t-80 71t-135 23q-152 0 -256 -58l-25 94q45 25 122.5 44.5t168.5 19.5q176 0 273.5 -93.5t97.5 -271.5v-116
v-582zM731 102v465q-103 8 -192 2q-71 -9 -123.5 -25t-99 -45.5t-71 -79t-24.5 -118.5q0 -229 285 -229q133 0 225 30zM512 1225q-107 0 -182.5 70t-67.5 202h88q0 -20 5.5 -42t20.5 -50.5t50 -47t86 -18.5t86 18.5t50 47t20.5 50.5t5.5 42h88q0 -135 -70 -203.5t-180 -68.5
z" />
    <glyph glyph-name="Aogonek" unicode="&#x104;" horiz-adv-x="1312" 
d="M1204 0h-137q-117 340 -149 434h-603q-82 -222 -151 -434h-127q124 345 187.5 520.5t160 430t182.5 462.5h107q64 -156 135.5 -343t121 -321.5t137.5 -376t136 -372.5zM885 532q-84 241 -201 560q-17 45 -37.5 107t-28.5 79q-9 -12 -28 -72q-40 -121 -125.5 -353.5
t-116.5 -320.5h537zM1092 -381q-201 0 -201 143q0 71 52.5 139.5t123.5 114.5h141q-67 -50 -108 -94v0q-72 -79 -72 -129q0 -69 86 -69q44 0 78 12l10 -98q-55 -19 -110 -19z" />
    <glyph glyph-name="aogonek" unicode="&#x105;" horiz-adv-x="1042" 
d="M498 1083q96 0 165.5 -25t110.5 -65.5t65 -104.5t32 -128.5t8 -151.5v-588q-53 -44 -101 -94q-36 -39 -53.5 -69.5t-17.5 -63.5q0 -69 86 -69q42 0 77 12l11 -98q-55 -19 -111 -19q-49 0 -94 10q-107 27 -107 133q0 71 49 134q31 40 103 96q-127 -15 -234 -15
q-85 0 -154.5 19t-122.5 57.5t-82.5 103.5t-29.5 152q0 111 58.5 185.5t156 107.5t230.5 33q52 0 118.5 -11t83.5 -20v66q0 48 -5 86.5t-21 79.5t-43 67.5t-74 44t-110 17.5q-158 0 -261 -41l-16 114q92 45 283 45zM510 96q130 0 235 19v372q-39 19 -108 27q-41 6 -98 6
q-303 0 -303 -211q0 -114 70.5 -163.5t203.5 -49.5z" />
    <glyph glyph-name="Cacute" unicode="&#x106;" horiz-adv-x="1247" 
d="M1042 53q-41 -30 -131.5 -54t-205.5 -24q-257 0 -419.5 201.5t-162.5 530.5q0 215 77 383t210 259t297 91q114 0 198 -25t131 -59l-39 -96q-111 75 -268 75q-141 0 -241 -68t-158 -190q-72 -153 -72 -370q0 -219 74.5 -378.5t218.5 -217.5q76 -31 166 -31q172 0 289 67z
M705 1571h-64l178 360h174z" />
    <glyph glyph-name="cacute" unicode="&#x107;" horiz-adv-x="942" 
d="M823 43q-37 -26 -107.5 -44.5t-152.5 -18.5q-208 0 -329 151.5t-121 407.5q0 259 121 412t327 153q158 0 252 -62q-13 -40 -33 -92q-85 51 -205 51q-169 0 -252 -121.5t-83 -336.5q0 -212 85.5 -336.5t258.5 -124.5q119 0 209 55zM553 1280h-64l179 360h174z" />
    <glyph glyph-name="Ccircumflex" unicode="&#x108;" horiz-adv-x="1247" 
d="M1042 53q-41 -30 -131.5 -54t-205.5 -24q-257 0 -419.5 201.5t-162.5 530.5q0 215 77 383t210 259t297 91q114 0 198 -25t131 -59l-39 -96q-111 75 -268 75q-141 0 -241 -68t-158 -190q-72 -153 -72 -370q0 -219 74.5 -378.5t218.5 -217.5q76 -31 166 -31q172 0 289 67z
M672 1702l-213 -197l-58 64l271 301l270 -301l-57 -64z" />
    <glyph glyph-name="ccircumflex" unicode="&#x109;" horiz-adv-x="942" 
d="M823 43q-37 -26 -107.5 -44.5t-152.5 -18.5q-208 0 -329 151.5t-121 407.5q0 259 121 412t327 153q158 0 252 -62q-13 -40 -33 -92q-85 51 -205 51q-169 0 -252 -121.5t-83 -336.5q0 -212 85.5 -336.5t258.5 -124.5q119 0 209 55zM520 1411l-213 -197l-57 64l270 301
l271 -301l-58 -64z" />
    <glyph glyph-name="Cdotaccent" unicode="&#x10a;" horiz-adv-x="1247" 
d="M1042 53q-41 -30 -131.5 -54t-205.5 -24q-257 0 -419.5 201.5t-162.5 530.5q0 215 77 383t210 259t297 91q114 0 198 -25t131 -59l-39 -96q-111 75 -268 75q-141 0 -241 -68t-158 -190q-72 -153 -72 -370q0 -219 74.5 -378.5t218.5 -217.5q76 -31 166 -31q172 0 289 67z
M668 1563q-42 0 -70.5 28t-28.5 74t28.5 74t70.5 28t70 -28t28 -74t-28 -74t-70 -28z" />
    <glyph glyph-name="cdotaccent" unicode="&#x10b;" horiz-adv-x="942" 
d="M823 43q-37 -26 -107.5 -44.5t-152.5 -18.5q-208 0 -329 151.5t-121 407.5q0 259 121 412t327 153q158 0 252 -62q-13 -40 -33 -92q-85 51 -205 51q-169 0 -252 -121.5t-83 -336.5q0 -212 85.5 -336.5t258.5 -124.5q119 0 209 55zM516 1272q-42 0 -70 28t-28 74t28 74.5
t70 28.5t70 -28.5t28 -74.5t-28 -74t-70 -28z" />
    <glyph glyph-name="Ccaron" unicode="&#x10c;" horiz-adv-x="1247" 
d="M1042 53q-41 -30 -131.5 -54t-205.5 -24q-257 0 -419.5 201.5t-162.5 530.5q0 215 77 383t210 259t297 91q114 0 198 -25t131 -59l-39 -96q-111 75 -268 75q-141 0 -241 -68t-158 -190q-72 -153 -72 -370q0 -219 74.5 -378.5t218.5 -217.5q76 -31 166 -31q172 0 289 67z
M457 1915l213 -197l213 197l57 -64l-270 -301l-271 301z" />
    <glyph glyph-name="ccaron" unicode="&#x10d;" horiz-adv-x="942" 
d="M823 43q-37 -26 -107.5 -44.5t-152.5 -18.5q-208 0 -329 151.5t-121 407.5q0 259 121 412t327 153q158 0 252 -62q-13 -40 -33 -92q-85 51 -205 51q-169 0 -252 -121.5t-83 -336.5q0 -212 85.5 -336.5t258.5 -124.5q119 0 209 55zM305 1624l213 -197l213 197l57 -63
l-270 -301l-270 301z" />
    <glyph glyph-name="Dcaron" unicode="&#x10e;" horiz-adv-x="1437" 
d="M1192 717q0 -348 -177.5 -540.5t-490.5 -192.5q-215 0 -348 55v1333q139 58 346 58q310 0 490 -185t180 -528zM1057 717q0 294 -136.5 455t-398.5 161q-143 0 -217 -24v-1198q65 -25 219 -25q269 0 401 164.5t132 466.5zM395 1915l213 -197l213 197l58 -64l-271 -301
l-270 301z" />
    <glyph glyph-name="dcaron" unicode="&#x10f;" horiz-adv-x="1259" 
d="M1018 1589v-1556q-172 -58 -385 -58q-234 0 -377 149t-143 404q0 247 127.5 400t351.5 153q94 0 171.5 -26.5t121.5 -59.5v570q23 4 66.5 12t66.5 12zM885 125v741q-48 36 -122 65.5t-159 29.5q-94 0 -163.5 -34t-109.5 -95t-58.5 -136.5t-18.5 -167.5q0 -206 103 -319
t278 -113q165 0 250 29zM1180 1589h145l-49 -444h-96v444z" />
    <glyph glyph-name="Dcroat" unicode="&#x110;" horiz-adv-x="1466" 
d="M1339 711q0 -178 -57 -316.5t-161 -227t-246 -134t-316 -45.5q-204 0 -346 37v661h-164v113h164v594q139 39 346 39q174 0 316 -45.5t246 -134t161 -226.5t57 -315zM352 686v-563q112 -14 223 -14q301 0 459 159.5t158 442.5q0 282 -158 441t-459 159q-103 0 -223 -15
v-497h271v-113h-271z" />
    <glyph glyph-name="dcroat" unicode="&#x111;" horiz-adv-x="1193" 
d="M1018 1589v-196h164v-107h-164v-1253q-172 -58 -385 -58q-234 0 -377 149t-143 404q0 247 127.5 400t351.5 153q94 0 171.5 -26.5t121.5 -59.5v291h-373v107h373v172zM885 125v741q-48 36 -122 65.5t-159 29.5q-94 0 -163.5 -34t-109.5 -95t-58.5 -136.5t-18.5 -167.5
q0 -206 103 -319t278 -113q165 0 250 29z" />
    <glyph glyph-name="Emacron" unicode="&#x112;" horiz-adv-x="1136" 
d="M924 0h-748v1413h721v-100h-592v-525h531v-100h-531v-588h619v-100zM829 1618h-542v113h542v-113z" />
    <glyph glyph-name="emacron" unicode="&#x113;" horiz-adv-x="1122" 
d="M961 555l-725 -53q18 -420 376 -420q154 0 265 59l28 -96q-41 -26 -121.5 -45.5t-175.5 -19.5q-239 0 -367 144t-128 419q0 138 35.5 247t97 176.5t140 102.5t167.5 35q174 0 278.5 -104.5t122.5 -315.5q5 -52 7 -129zM840 639q-1 182 -76 273.5t-211 91.5
q-139 0 -226 -109.5t-91 -302.5zM807 1270h-543v112h543v-112z" />
    <glyph glyph-name="Ebreve" unicode="&#x114;" horiz-adv-x="1136" 
d="M924 0h-748v1413h721v-100h-592v-525h531v-100h-531v-588h619v-100zM563 1542q-107 0 -182.5 70.5t-67.5 202.5h88q0 -20 5.5 -42t20.5 -50.5t50 -47t86 -18.5t86 18.5t50 47t20.5 50.5t5.5 42h88q0 -136 -70 -204.5t-180 -68.5z" />
    <glyph glyph-name="ebreve" unicode="&#x115;" horiz-adv-x="1122" 
d="M961 555l-725 -53q18 -420 376 -420q154 0 265 59l28 -96q-41 -26 -121.5 -45.5t-175.5 -19.5q-239 0 -367 144t-128 419q0 138 35.5 247t97 176.5t140 102.5t167.5 35q174 0 278.5 -104.5t122.5 -315.5q5 -52 7 -129zM840 639q-1 182 -76 273.5t-211 91.5
q-139 0 -226 -109.5t-91 -302.5zM541 1194q-107 0 -182.5 70t-67.5 202h88q0 -15 2.5 -31.5t13 -40t27 -41.5t47.5 -31t72 -13t72 13t47.5 31t26.5 41.5t12.5 40t2.5 31.5h89q0 -135 -70 -203.5t-180 -68.5z" />
    <glyph glyph-name="Edotaccent" unicode="&#x116;" horiz-adv-x="1136" 
d="M924 0h-748v1413h721v-100h-592v-525h531v-100h-531v-588h619v-100zM561 1563q-42 0 -70 28t-28 74t28 74t70 28t70 -28t28 -74t-28 -74t-70 -28z" />
    <glyph glyph-name="edotaccent" unicode="&#x117;" horiz-adv-x="1122" 
d="M961 555l-725 -53q18 -420 376 -420q154 0 265 59l28 -96q-41 -26 -121.5 -45.5t-175.5 -19.5q-239 0 -367 144t-128 419q0 138 35.5 247t97 176.5t140 102.5t167.5 35q174 0 278.5 -104.5t122.5 -315.5q5 -52 7 -129zM840 639q-1 182 -76 273.5t-211 91.5
q-139 0 -226 -109.5t-91 -302.5zM539 1214q-42 0 -70.5 28.5t-28.5 74.5t28.5 74t70.5 28t70 -28t28 -74t-28 -74.5t-70 -28.5z" />
    <glyph glyph-name="Eogonek" unicode="&#x118;" horiz-adv-x="1136" 
d="M911 0h-241h-486v1419h820v-121h-680v-493h606v-119h-606v-565h733v-117q-62 -45 -113 -104t-51 -107q0 -69 86 -69q43 0 78 12l10 -98q-55 -19 -111 -19q-200 0 -200 143q0 68 45 130.5t110 107.5z" />
    <glyph glyph-name="eogonek" unicode="&#x119;" horiz-adv-x="1122" 
d="M113 530q0 134 39 242t105 174.5t147.5 101.5t170.5 35q201 0 313.5 -130t112.5 -388q0 -13 -2 -34t-2 -29h-743q9 -345 281 -396q41 -8 102 -8q143 0 264 56l25 -115q-99 -76 -153 -135.5t-54 -110.5q0 -69 86 -69q43 0 78 12l10 -98q-55 -19 -111 -19q-200 0 -200 143
q0 43 24 93q39 77 127 135q-58 -10 -100 -10q-109 0 -196 26.5t-147.5 74.5t-100.5 116.5t-58 151.5t-18 181zM258 614h606q-5 167 -78.5 259t-207.5 92q-136 0 -224 -102.5t-96 -248.5z" />
    <glyph glyph-name="Ecaron" unicode="&#x11a;" horiz-adv-x="1136" 
d="M924 0h-748v1413h721v-100h-592v-525h531v-100h-531v-588h619v-100zM350 1915l213 -197l213 197l58 -64l-271 -301l-270 301z" />
    <glyph glyph-name="ecaron" unicode="&#x11b;" horiz-adv-x="1122" 
d="M961 555l-725 -53q18 -420 376 -420q154 0 265 59l28 -96q-41 -26 -121.5 -45.5t-175.5 -19.5q-239 0 -367 144t-128 419q0 138 35.5 247t97 176.5t140 102.5t167.5 35q174 0 278.5 -104.5t122.5 -315.5q5 -52 7 -129zM840 639q-1 182 -76 273.5t-211 91.5
q-139 0 -226 -109.5t-91 -302.5zM328 1567l213 -197l213 197l57 -64l-270 -301l-271 301z" />
    <glyph glyph-name="Gcircumflex" unicode="&#x11c;" horiz-adv-x="1347" 
d="M1116 47q-132 -72 -385 -72q-98 0 -187 28.5t-166 88.5t-133.5 146t-89 207.5t-32.5 267.5q0 175 50.5 316t136.5 229.5t196 135t233 46.5q228 0 359 -84l-41 -96q-49 33 -132.5 54t-183.5 21q-222 0 -352.5 -162.5t-130.5 -470.5q0 -292 132 -459t355 -167q166 0 242 37
v499h-137v109h266v-674zM715 1702l-213 -197l-58 64l271 301l270 -301l-57 -64z" />
    <glyph glyph-name="gcircumflex" unicode="&#x11d;" horiz-adv-x="1173" 
d="M936 12q0 -216 -111.5 -325t-330.5 -109q-187 0 -318 62q3 11 35 98q47 -25 123.5 -42.5t152.5 -17.5q171 0 252 84q78 81 78 240v78q-38 -27 -106 -48.5t-152 -21.5q-199 0 -322.5 138.5t-123.5 394.5q0 249 128.5 404t356.5 155q197 0 338 -66v-1024zM817 178v795
q-78 33 -217 33q-175 0 -268.5 -126t-93.5 -337q0 -213 90 -325t245 -112q146 0 244 72zM600 1354l-213 -197l-57 64l270 301l270 -301l-57 -64z" />
    <glyph glyph-name="Gbreve" unicode="&#x11e;" horiz-adv-x="1347" 
d="M1116 47q-132 -72 -385 -72q-98 0 -187 28.5t-166 88.5t-133.5 146t-89 207.5t-32.5 267.5q0 175 50.5 316t136.5 229.5t196 135t233 46.5q228 0 359 -84l-41 -96q-49 33 -132.5 54t-183.5 21q-222 0 -352.5 -162.5t-130.5 -470.5q0 -292 132 -459t355 -167q166 0 242 37
v499h-137v109h266v-674zM713 1542q-107 0 -182.5 70.5t-67.5 202.5h88q0 -20 5.5 -42t20.5 -50.5t50 -47t86 -18.5t86 18.5t49.5 47t20 50.5t5.5 42h89q0 -136 -70 -204.5t-180 -68.5z" />
    <glyph glyph-name="gbreve" unicode="&#x11f;" horiz-adv-x="1173" 
d="M936 12q0 -216 -111.5 -325t-330.5 -109q-187 0 -318 62q3 11 35 98q47 -25 123.5 -42.5t152.5 -17.5q171 0 252 84q78 81 78 240v78q-38 -27 -106 -48.5t-152 -21.5q-199 0 -322.5 138.5t-123.5 394.5q0 249 128.5 404t356.5 155q197 0 338 -66v-1024zM817 178v795
q-78 33 -217 33q-175 0 -268.5 -126t-93.5 -337q0 -213 90 -325t245 -112q146 0 244 72zM598 1194q-107 0 -182.5 70t-67.5 202h88q0 -15 2.5 -31.5t13 -40t27 -41.5t47.5 -31t72 -13t72 13t47.5 31t27 41.5t13 40t2.5 31.5h88q0 -135 -70 -203.5t-180 -68.5z" />
    <glyph glyph-name="Gdotaccent" unicode="&#x120;" horiz-adv-x="1347" 
d="M1116 47q-132 -72 -385 -72q-98 0 -187 28.5t-166 88.5t-133.5 146t-89 207.5t-32.5 267.5q0 175 50.5 316t136.5 229.5t196 135t233 46.5q228 0 359 -84l-41 -96q-49 33 -132.5 54t-183.5 21q-222 0 -352.5 -162.5t-130.5 -470.5q0 -292 132 -459t355 -167q166 0 242 37
v499h-137v109h266v-674zM711 1563q-42 0 -70.5 28t-28.5 74t28.5 74t70.5 28t70 -28t28 -74t-28 -74t-70 -28z" />
    <glyph glyph-name="gdotaccent" unicode="&#x121;" horiz-adv-x="1173" 
d="M936 12q0 -216 -111.5 -325t-330.5 -109q-187 0 -318 62q3 11 35 98q47 -25 123.5 -42.5t152.5 -17.5q171 0 252 84q78 81 78 240v78q-38 -27 -106 -48.5t-152 -21.5q-199 0 -322.5 138.5t-123.5 394.5q0 249 128.5 404t356.5 155q197 0 338 -66v-1024zM817 178v795
q-78 33 -217 33q-175 0 -268.5 -126t-93.5 -337q0 -213 90 -325t245 -112q146 0 244 72zM596 1214q-42 0 -70 28.5t-28 74.5t28 74t70 28t70 -28t28 -74t-28 -74.5t-70 -28.5z" />
    <glyph glyph-name="Gcommaaccent" unicode="&#x122;" horiz-adv-x="1347" 
d="M1069 127v362v183h139v-633q-52 -24 -168.5 -46t-263.5 -22q-140 0 -258 49.5t-205.5 142t-136.5 233.5t-49 315q0 173 53 315t144.5 233.5t212 141t258.5 49.5q142 0 245.5 -29.5t163.5 -68.5l-47 -119q-58 42 -156.5 67t-212.5 25q-109 0 -202 -40t-162.5 -115.5
t-109.5 -193.5t-40 -265q0 -288 135 -452.5t390 -164.5q95 0 168 10.5t102 22.5zM688 -139v26h131q2 -10 2 -34q0 -20 -4 -48q-10 -77 -56 -124t-118 -58q-28 -4 -43 -4q-44 0 -63 8v88q85 0 118 34t33 112z" />
    <glyph glyph-name="gcommaaccent" unicode="&#x123;" horiz-adv-x="1173" 
d="M866 53v70q-33 -29 -108 -56.5t-174 -27.5q-76 0 -144 17.5t-128.5 57.5t-104 98.5t-69 145.5t-25.5 195q0 230 136 378t365 148q210 0 383 -57v-967q0 -234 -120.5 -337t-372.5 -103q-177 0 -328 51l27 121q51 -24 135.5 -39.5t169.5 -15.5q195 0 274 71q84 75 84 250z
M864 248v682q-94 28 -248 28q-168 0 -265 -112t-97 -295q0 -101 28 -179t76 -122.5t105 -67t121 -22.5q86 0 161 25t119 63zM543 1296q0 70 20 126t52.5 90t65 53.5t67.5 29.5l40 -77q-27 -17 -42.5 -31t-34 -40.5t-27 -67t-8.5 -97.5v-25h-131q-2 10 -2 39z" />
    <glyph glyph-name="Hcircumflex" unicode="&#x124;" horiz-adv-x="1417" 
d="M1126 0h-129v686h-692v-686h-129v1413h129v-627h692v627h129v-1413zM649 1702l-213 -197l-57 64l270 301l271 -301l-58 -64z" />
    <glyph glyph-name="hcircumflex" unicode="&#x125;" 
d="M944 0h-121v590q0 58 -2 98.5t-8.5 86.5t-18 76.5t-32.5 60.5t-50.5 47t-72.5 27.5t-98 10.5q-70 0 -140.5 -16.5t-111.5 -40.5v-940h-123v1597h123v-565q140 64 264 64q61 0 112 -9.5t88.5 -25.5t67.5 -42t49.5 -52t33.5 -63t22 -68t12 -74t5 -74.5t1 -75.5v-612z
M582 1810l-213 -196l-58 63l271 301l270 -301l-57 -63z" />
    <glyph glyph-name="Hbar" unicode="&#x126;" horiz-adv-x="1474" 
d="M1425 1090h-163v-1090h-140v682h-770v-682h-139v1090h-164v110h164v219h139v-219h770v219h140v-219h163v-110zM1122 803v287h-770v-287h770z" />
    <glyph glyph-name="hbar" unicode="&#x127;" 
d="M309 0h-133v1286h-164v107h164v172l133 24v-196h383v-107h-383v-258q136 51 269 51q97 0 170.5 -23t121 -64t77.5 -103t42 -134t12 -163v-592h-133v549q0 229 -67 319t-244 90q-61 0 -142 -17.5t-106 -29.5v-911z" />
    <glyph glyph-name="Itilde" unicode="&#x128;" horiz-adv-x="507" 
d="M309 0h-129v1413h129v-1413zM365 1542q-46 0 -101 20t-99 40t-63 20q-27 0 -49 -15t-34 -31t-29 -46l-78 37q27 65 75.5 114.5t121.5 49.5q51 0 105.5 -20t96 -40t60.5 -20q27 0 49 15t34 31t29 46l72 -37q-30 -62 -80.5 -113t-109.5 -51z" />
    <glyph glyph-name="itilde" unicode="&#x129;" horiz-adv-x="485" 
d="M309 1059v-1059h-133v1059h133zM365 1194q-46 0 -101 20t-99 40t-63 20q-27 0 -49 -15t-34 -31t-29 -46l-78 37q12 28 27.5 53.5t39.5 52t57.5 42t72.5 15.5q51 0 105.5 -20t96 -39.5t60.5 -19.5q27 0 49 15t34 31t29 46l72 -37q-30 -62 -80.5 -113t-109.5 -51z" />
    <glyph glyph-name="Imacron" unicode="&#x12a;" horiz-adv-x="507" 
d="M309 0h-129v1413h129v-1413zM508 1618h-543v113h543v-113z" />
    <glyph glyph-name="imacron" unicode="&#x12b;" horiz-adv-x="485" 
d="M309 1059v-1059h-133v1059h133zM508 1270h-543v112h543v-112z" />
    <glyph glyph-name="Ibreve" unicode="&#x12c;" horiz-adv-x="507" 
d="M309 0h-129v1413h129v-1413zM242 1542q-107 0 -182.5 70.5t-67.5 202.5h88q0 -20 5.5 -42t20.5 -50.5t50 -47t86 -18.5t86 18.5t49.5 47t20 50.5t5.5 42h89q0 -136 -70 -204.5t-180 -68.5z" />
    <glyph glyph-name="ibreve" unicode="&#x12d;" horiz-adv-x="485" 
d="M309 1059v-1059h-133v1059h133zM242 1194q-107 0 -182.5 70t-67.5 202h88q0 -15 2.5 -31.5t13 -40t27 -41.5t47.5 -31t72 -13t72 13t47.5 31t26.5 41.5t12.5 40t2.5 31.5h89q0 -135 -70 -203.5t-180 -68.5z" />
    <glyph glyph-name="Iogonek" unicode="&#x12e;" horiz-adv-x="507" 
d="M324 1419v-1419q-43 -36 -72 -63.5t-56.5 -69t-27.5 -74.5q0 -69 86 -69q44 0 78 12l10 -98q-55 -19 -111 -19q-200 0 -200 143q0 68 44 129.5t109 108.5v1419h140z" />
    <glyph glyph-name="iogonek" unicode="&#x12f;" horiz-adv-x="485" 
d="M309 1059v-1059q-9 -9 -37.5 -36t-42.5 -42t-33 -39t-27.5 -46t-8.5 -44q0 -69 86 -69q44 0 78 12l10 -98q-55 -19 -111 -19q-200 0 -200 143q0 68 44 129.5t109 108.5v1059h133zM340 1378q0 -46 -28 -74t-70 -28t-70.5 28t-28.5 74t28.5 74.5t70.5 28.5t70 -28.5
t28 -74.5z" />
    <glyph glyph-name="Idotaccent" unicode="&#x130;" horiz-adv-x="507" 
d="M184 0v1419h140v-1419h-140zM256 1595q-42 0 -70 28.5t-28 74.5t28 74t70 28t70 -28t28 -74t-28 -74.5t-70 -28.5z" />
    <glyph glyph-name="dotlessi" unicode="&#x131;" horiz-adv-x="485" 
d="M309 1059v-1059h-133v1059h133z" />
    <glyph glyph-name="IJ" unicode="&#x132;" horiz-adv-x="1505" 
d="M184 0v1419h140v-1419h-140zM1327 1419v-973q0 -107 -21 -190t-69 -149.5t-134 -102t-208 -35.5q-131 0 -230 39.5t-141 81.5l66 113q124 -109 291 -109q161 0 234 84.5t73 282.5v958h139z" />
    <glyph glyph-name="ij" unicode="&#x133;" horiz-adv-x="970" 
d="M809 1395q0 -38 -25 -63t-61 -25q-37 0 -61.5 25t-24.5 63q0 39 24.5 63.5t61.5 24.5q36 0 61 -24.5t25 -63.5zM784 23q0 -362 -270 -416q-41 -15 -111 -15l11 93q134 19 189.5 100t58.5 233v1063h122v-1058zM319 1395q0 -38 -24.5 -63t-61.5 -25q-36 0 -61 25t-25 63
q0 39 25 63.5t61 24.5q37 0 61.5 -24.5t24.5 -63.5zM295 0h-121v1081h121v-1081z" />
    <glyph glyph-name="Jcircumflex" unicode="&#x134;" horiz-adv-x="997" 
d="M557 242q0 -188 -84 -307.5t-256 -147.5q-119 -12 -256 33q13 44 33 98q119 -34 211 -14q57 12 97 37t65 59t38.5 88.5t18 113.5t4.5 146v133v932h129v-1171zM498 1702l-213 -197l-58 64l271 301l270 -301l-57 -64z" />
    <glyph glyph-name="jcircumflex" unicode="&#x135;" horiz-adv-x="485" 
d="M-23 -383q-58 0 -106 21l18 108q36 -12 86 -12q116 0 158.5 63.5t42.5 206.5v1055h133v-1049q0 -204 -77.5 -298.5t-254.5 -94.5zM244 1354l-213 -197l-58 64l271 301l270 -301l-57 -64z" />
    <glyph glyph-name="Kcommaaccent" unicode="&#x136;" horiz-adv-x="1226" 
d="M1206 0h-78h-77q-139 212 -339.5 405.5t-387.5 296.5v-702h-140v1419h140v-661q165 148 369 349.5t298 311.5h168q-128 -137 -331.5 -338.5t-344.5 -328.5q181 -112 406 -346t317 -406zM606 -139v26h131q2 -10 2 -34q0 -20 -4 -48q-10 -77 -56 -124t-118 -58
q-28 -4 -43 -4q-44 0 -63 8v88q85 0 118 34t33 112z" />
    <glyph glyph-name="kcommaaccent" unicode="&#x137;" horiz-adv-x="1013" 
d="M489 -139v26h132q2 -10 2 -34q0 -13 -5 -48q-10 -77 -56 -124t-118 -58q-28 -4 -43 -4q-44 0 -63 8v88q85 0 118 34t33 112zM928 0h-144q-211 302 -491 553v-553h-121v1597h121v-1017q258 274 450 501h142q-82 -92 -268 -293t-197 -213q127 -117 266 -273.5t242 -301.5z
" />
    <glyph glyph-name="kgreenlandic" unicode="&#x138;" horiz-adv-x="1036" 
d="M309 0h-133v1059h133v-490q119 113 269 264t217 226h159q-89 -101 -238.5 -250t-254.5 -244q139 -91 294 -254.5t244 -310.5h-157q-95 147 -251.5 297.5t-281.5 224.5v-522z" />
    <glyph glyph-name="Lacute" unicode="&#x139;" horiz-adv-x="1028" 
d="M870 0h-690v1413h129v-1313h561v-100zM281 1571h-64l178 360h174z" />
    <glyph glyph-name="lacute" unicode="&#x13a;" horiz-adv-x="522" 
d="M465 66l-29 -95q-53 10 -87.5 21t-71 35.5t-57 60.5t-33.5 96t-13 142v1271h121v-1118q0 -68 1 -116.5t6 -89.5t9.5 -67t16 -48t21.5 -34t30.5 -23.5t37.5 -18t48 -16.5zM270 1755h-63l178 361h174z" />
    <glyph glyph-name="Lcommaaccent" unicode="&#x13b;" horiz-adv-x="1028" 
d="M324 121h667v-121h-807v1419h140v-1298zM537 -139v26h131q2 -10 2 -34q0 -20 -4 -48q-10 -77 -56 -124t-118 -58q-28 -4 -43 -4q-45 0 -64 8v88q85 0 118.5 34t33.5 112z" />
    <glyph glyph-name="lcommaaccent" unicode="&#x13c;" horiz-adv-x="522" 
d="M229 -139v26h131q2 -10 2 -34q0 -20 -4 -48q-10 -77 -56 -124t-118 -58q-28 -4 -43 -4q-44 0 -63 8v88q85 0 118 34t33 112zM465 66l-29 -95q-53 10 -87.5 21t-71 35.5t-57 60.5t-33.5 96t-13 142v1271h121v-1118q0 -68 1 -116.5t6 -89.5t9.5 -67t16 -48t21.5 -34
t30.5 -23.5t37.5 -18t48 -16.5z" />
    <glyph glyph-name="Lcaron" unicode="&#x13d;" horiz-adv-x="1028" 
d="M324 121h667v-121h-807v1419h140v-1298zM526 1421h146l-49 -444h-97v444z" />
    <glyph glyph-name="lcaron" unicode="&#x13e;" horiz-adv-x="679" 
d="M469 1589h145l-49 -444h-96v444zM465 66l-29 -95q-53 10 -87.5 21t-71 35.5t-57 60.5t-33.5 96t-13 142v1271h121v-1118q0 -68 1 -116.5t6 -89.5t9.5 -67t16 -48t21.5 -34t30.5 -23.5t37.5 -18t48 -16.5z" />
    <glyph glyph-name="Ldot" unicode="&#x13f;" horiz-adv-x="1028" 
d="M324 121h667v-121h-807v1419h140v-1298zM768 643q-42 0 -70 28t-28 74t28 74.5t70 28.5t70 -28.5t28 -74.5t-28 -74t-70 -28z" />
    <glyph glyph-name="ldot" unicode="&#x140;" horiz-adv-x="522" 
d="M465 66l-29 -95q-53 10 -87.5 21t-71 35.5t-57 60.5t-33.5 96t-13 142v1271h121v-1118q0 -68 1 -116.5t6 -89.5t9.5 -67t16 -48t21.5 -34t30.5 -23.5t37.5 -18t48 -16.5zM233 1747q-42 0 -70 28t-28 74t28 74.5t70 28.5t70.5 -28.5t28.5 -74.5t-28.5 -74t-70.5 -28z" />
    <glyph glyph-name="Lslash" unicode="&#x141;" horiz-adv-x="1056" 
d="M352 801q39 19 116 59t116 60l47 -99l-279 -145v-555h668v-121h-807v604l-160 -82l-51 99l211 108v690h139v-618z" />
    <glyph glyph-name="lslash" unicode="&#x142;" horiz-adv-x="522" 
d="M317 899l152 78l45 -98l-197 -103v-520q0 -92 33 -122.5t123 -43.5l-18 -110q-141 8 -206 67.5t-65 204.5v227v228q-19 -9 -55.5 -29t-54.5 -29l-47 96l157 82v770h133v-698z" />
    <glyph glyph-name="Nacute" unicode="&#x143;" horiz-adv-x="1452" 
d="M1208 0h-59h-59q-212 373 -705 1116q-18 26 -40.5 65t-35.5 60t-18 21q0 -33 2 -234t2 -305v-723h-119v1413h131q401 -566 711 -1083q15 -26 33 -60t28 -51t15 -22q0 68 -2 319t-2 371v526h118v-1413zM743 1571h-63l178 360h174z" />
    <glyph glyph-name="nacute" unicode="&#x144;" 
d="M944 0h-121v596q0 57 -1.5 93t-7 84t-17 77.5t-32.5 62t-51 50t-74.5 29.5t-102.5 12q-151 0 -248 -37v-967h-123v1034q158 68 389 68q77 0 138 -16.5t101.5 -41.5t69.5 -66t44 -79t23.5 -92.5t10.5 -94t2 -94.5v-618zM563 1223h-63l178 360h174z" />
    <glyph glyph-name="Ncommaaccent" unicode="&#x145;" horiz-adv-x="1452" 
d="M1268 0h-60h-57q-122 220 -387 603.5t-442 592.5v-598v-598h-138v1419h111q164 -184 362.5 -449.5t348.5 -498.5q48 -74 124 -207v578v577h138v-1419zM670 -139v26h131q2 -10 2 -34q0 -20 -4 -48q-10 -77 -56 -124t-118 -58q-28 -4 -43 -4q-45 0 -64 8v88q85 0 118.5 34
t33.5 112z" />
    <glyph glyph-name="ncommaaccent" unicode="&#x146;" 
d="M176 0v1022q198 57 406 57q118 0 201 -34.5t130 -101t67.5 -152t20.5 -199.5v-592h-133v549q0 228 -67 318.5t-240 90.5q-84 0 -155.5 -9.5t-96.5 -18.5v-930h-133zM528 -139v26h131q3 -15 3 -34q0 -13 -5 -48q-10 -77 -56 -124t-118 -58q-28 -4 -43 -4q-44 0 -63 8v88
q85 0 118 34t33 112z" />
    <glyph glyph-name="Ncaron" unicode="&#x147;" horiz-adv-x="1452" 
d="M1208 0h-59h-59q-212 373 -705 1116q-18 26 -40.5 65t-35.5 60t-18 21q0 -33 2 -234t2 -305v-723h-119v1413h131q401 -566 711 -1083q15 -26 33 -60t28 -51t15 -22q0 68 -2 319t-2 371v526h118v-1413zM496 1915l213 -197l213 197l57 -64l-270 -301l-271 301z" />
    <glyph glyph-name="ncaron" unicode="&#x148;" 
d="M944 0h-121v596q0 57 -1.5 93t-7 84t-17 77.5t-32.5 62t-51 50t-74.5 29.5t-102.5 12q-151 0 -248 -37v-967h-123v1034q158 68 389 68q77 0 138 -16.5t101.5 -41.5t69.5 -66t44 -79t23.5 -92.5t10.5 -94t2 -94.5v-618zM315 1567l213 -197l213 197l58 -64l-271 -301
l-270 301z" />
    <glyph glyph-name="napostrophe" unicode="&#x149;" 
d="M176 0v1022q198 57 406 57q118 0 201 -34.5t130 -101t67.5 -152t20.5 -199.5v-592h-133v549q0 228 -67 318.5t-240 90.5q-84 0 -155.5 -9.5t-96.5 -18.5v-930h-133zM137 1589h150q0 -23 -4 -69q-8 -96 -39.5 -176t-91.5 -179l-93 43q82 167 82 310q0 43 -4 71z" />
    <glyph glyph-name="Eng" unicode="&#x14a;" horiz-adv-x="1452" 
d="M1130 -76v111q-132 231 -386 596.5t-422 564.5v-1196h-138v1419h111q205 -228 454.5 -575t380.5 -580v1155h138v-1472q0 -62 -5 -106.5t-20.5 -89.5t-43.5 -72.5t-75.5 -44.5t-113.5 -17q-38 0 -68 6q-34 7 -47 12l18 111q28 -12 76 -12q77 0 109 45t32 145z" />
    <glyph glyph-name="eng" unicode="&#x14b;" 
d="M868 -76v625q0 228 -67 318.5t-240 90.5q-84 0 -155.5 -9.5t-96.5 -18.5v-930h-133v1022q198 57 406 57q118 0 201 -34.5t130 -101t67.5 -152t20.5 -199.5v-645q0 -80 -8.5 -132.5t-34 -100.5t-78.5 -71.5t-135 -23.5q-45 0 -63 4q-21 2 -45 12l18 109q27 -10 74 -10
q76 0 107.5 45t31.5 145z" />
    <glyph glyph-name="Omacron" unicode="&#x14c;" horiz-adv-x="1585" 
d="M1278 707q0 -335 -156 -533.5t-422 -198.5t-421.5 198t-155.5 534q0 334 155.5 533.5t421.5 199.5t422 -199.5t156 -533.5zM1145 709q0 132 -27 244.5t-80 199t-139.5 135.5t-198.5 49q-90 0 -164 -32t-125.5 -89t-86.5 -136.5t-51.5 -172.5t-16.5 -198t16 -197.5
t51 -172.5t86 -137t125.5 -89.5t165.5 -32.5q114 0 201 49.5t139.5 136.5t78.5 199t26 244zM971 1679h-543v113h543v-113z" />
    <glyph glyph-name="omacron" unicode="&#x14d;" horiz-adv-x="1191" 
d="M999 539q0 -252 -116.5 -407t-325.5 -155q-210 0 -327 154.5t-117 407.5q0 255 116.5 410t325.5 155q211 0 327.5 -155t116.5 -410zM872 539q0 96 -18 178.5t-54 148.5t-98.5 104t-144.5 38q-83 0 -146 -38t-100 -104t-55 -148.5t-18 -178.5q0 -97 18.5 -178t55.5 -145.5
t100 -101t145 -36.5t144.5 36.5t99 101t54 145.5t17.5 178zM823 1270h-542v112h542v-112z" />
    <glyph glyph-name="Obreve" unicode="&#x14e;" horiz-adv-x="1585" 
d="M1278 707q0 -335 -156 -533.5t-422 -198.5t-421.5 198t-155.5 534q0 334 155.5 533.5t421.5 199.5t422 -199.5t156 -533.5zM1145 709q0 132 -27 244.5t-80 199t-139.5 135.5t-198.5 49q-90 0 -164 -32t-125.5 -89t-86.5 -136.5t-51.5 -172.5t-16.5 -198t16 -197.5
t51 -172.5t86 -137t125.5 -89.5t165.5 -32.5q114 0 201 49.5t139.5 136.5t78.5 199t26 244zM705 1604q-107 0 -182.5 70t-67.5 202h88q0 -20 5.5 -42t20.5 -50.5t50 -47t86 -18.5t86 18.5t49.5 47t20 50.5t5.5 42h88q0 -136 -69.5 -204t-179.5 -68z" />
    <glyph glyph-name="obreve" unicode="&#x14f;" horiz-adv-x="1191" 
d="M999 539q0 -252 -116.5 -407t-325.5 -155q-210 0 -327 154.5t-117 407.5q0 255 116.5 410t325.5 155q211 0 327.5 -155t116.5 -410zM872 539q0 96 -18 178.5t-54 148.5t-98.5 104t-144.5 38q-83 0 -146 -38t-100 -104t-55 -148.5t-18 -178.5q0 -97 18.5 -178t55.5 -145.5
t100 -101t145 -36.5t144.5 36.5t99 101t54 145.5t17.5 178zM557 1194q-107 0 -182.5 70t-67.5 202h88q0 -15 2.5 -31.5t13 -40t27 -41.5t47.5 -31t72 -13t72 13t47.5 31t27 41.5t13 40t2.5 31.5h88q0 -135 -70 -203.5t-180 -68.5z" />
    <glyph glyph-name="Ohungarumlaut" unicode="&#x150;" horiz-adv-x="1585" 
d="M1458 711q0 -143 -34.5 -264t-96 -208t-145 -148.5t-182 -91.5t-207.5 -30t-207.5 30t-182.5 91.5t-145.5 148.5t-96 208t-34.5 264q0 142 34.5 262.5t96 207.5t145.5 148t182.5 91t207.5 30t207.5 -30t182 -91t145 -148t96 -207.5t34.5 -262.5zM1311 711q0 286 -140 450
t-378 164t-378.5 -164.5t-140.5 -449.5t141 -451t378 -166t377.5 166t140.5 451zM807 1903l94 -86l-258 -306l-80 60zM1128 1903l95 -86l-258 -306l-80 60z" />
    <glyph glyph-name="ohungarumlaut" unicode="&#x151;" horiz-adv-x="1191" 
d="M1079 528q0 -249 -134.5 -401t-348.5 -152t-348.5 152t-134.5 401t134.5 402t348.5 153t348.5 -153t134.5 -402zM938 528q0 199 -92 317t-250 118t-250 -118t-92 -317q0 -198 92 -315t250 -117t250 117t92 315zM610 1583l95 -86l-259 -305l-79 59zM932 1583l94 -86
l-258 -305l-80 59z" />
    <glyph glyph-name="OE" unicode="&#x152;" horiz-adv-x="2027" 
d="M1104 123v1173q-1 0 -14 2t-28.5 4t-40 4t-60 3.5t-76.5 1.5q-295 0 -449.5 -159t-154.5 -441q0 -284 154 -443t450 -159q107 0 219 14zM1948 0h-842q-102 -12 -205 -12q-171 0 -310.5 45.5t-242 134t-159 227t-56.5 316.5q0 177 56.5 315t159 226.5t242 134t310.5 45.5
q96 0 203 -13h790v-121h-651v-493h578v-119h-578v-565h705v-121z" />
    <glyph glyph-name="oe" unicode="&#x153;" horiz-adv-x="1933" 
d="M596 1083q140 0 242.5 -69.5t160.5 -196.5q43 98 112.5 161.5t156.5 88.5q59 16 118 16q201 0 313.5 -130t112.5 -388q0 -13 -2 -34t-2 -29h-743q9 -323 244 -387q70 -17 139 -17q143 0 264 56l25 -115q-37 -22 -117.5 -42t-175.5 -20q-90 0 -164 19q-200 49 -283 235
q-126 -256 -401 -256q-214 0 -348.5 152t-134.5 401t134.5 402t348.5 153zM938 528q0 199 -92 317t-250 118t-250 -118t-92 -317q0 -198 92 -315t250 -117t250 117t92 315zM1069 614h606q-5 167 -78.5 259t-207.5 92q-136 0 -224 -102.5t-96 -248.5z" />
    <glyph glyph-name="Racute" unicode="&#x154;" horiz-adv-x="1265" 
d="M1087 0h-143q-276 451 -430 610h-209v-610h-125v1374q141 56 334 56q254 0 386 -108.5t132 -313.5q0 -170 -98 -273.5t-277 -120.5v-2q212 -267 430 -612zM901 1008q0 84 -23.5 146t-59.5 97t-90 56t-103 27.5t-111 6.5q-55 0 -116 -8.5t-93 -19.5v-608h209
q71 0 126.5 7.5t106 28t83 54t52 87.5t19.5 126zM614 1571h-63l178 360h174z" />
    <glyph glyph-name="racute" unicode="&#x155;" horiz-adv-x="765" 
d="M657 1085l-30 -104q-63 18 -174 18q-108 -3 -164 -36v-963h-123v1028q129 63 293 70q91 3 198 -13zM434 1223h-63l178 360h174z" />
    <glyph glyph-name="Rcommaaccent" unicode="&#x156;" horiz-adv-x="1265" 
d="M1130 993q0 -293 -305 -385q97 -122 212.5 -293t179.5 -315h-150q-124 233 -383 580q-75 -7 -131 -7h-229v-573h-140v1393q142 39 357 39q293 0 441 -111t148 -328zM557 1311q-105 0 -233 -15v-604h192q61 0 108 2.5t97.5 10.5t87.5 21.5t72 36t56.5 54t34.5 76.5t13 102
q0 316 -428 316zM604 -139v26h131q2 -10 2 -34q0 -20 -4 -48q-10 -77 -56 -124t-118 -58q-28 -4 -43 -4q-44 0 -63 8v88q85 0 118 34t33 112z" />
    <glyph glyph-name="rcommaaccent" unicode="&#x157;" horiz-adv-x="765" 
d="M537 1079q62 0 120.5 -9.5t83.5 -20.5q-4 -20 -13 -58t-13 -57q-62 27 -199 27q-131 0 -207 -33v-928h-133v1010q151 69 361 69zM178 -139v26h131q2 -10 2 -34q0 -20 -4 -48q-10 -77 -56 -124t-118 -58q-28 -4 -43 -4q-44 0 -63 8v88q85 0 118 34t33 112z" />
    <glyph glyph-name="Rcaron" unicode="&#x158;" horiz-adv-x="1265" 
d="M1087 0h-143q-276 451 -430 610h-209v-610h-125v1374q141 56 334 56q254 0 386 -108.5t132 -313.5q0 -170 -98 -273.5t-277 -120.5v-2q212 -267 430 -612zM901 1008q0 84 -23.5 146t-59.5 97t-90 56t-103 27.5t-111 6.5q-55 0 -116 -8.5t-93 -19.5v-608h209
q71 0 126.5 7.5t106 28t83 54t52 87.5t19.5 126zM367 1915l213 -197l213 197l57 -64l-270 -301l-271 301z" />
    <glyph glyph-name="rcaron" unicode="&#x159;" horiz-adv-x="765" 
d="M537 1079q62 0 120.5 -9.5t83.5 -20.5q-4 -20 -13 -58t-13 -57q-62 27 -199 27q-131 0 -207 -33v-928h-133v1010q151 69 361 69zM252 1567l213 -197l213 197l57 -64l-270 -301l-270 301z" />
    <glyph glyph-name="Sacute" unicode="&#x15a;" horiz-adv-x="1058" 
d="M897 369q0 -184 -123.5 -289t-327.5 -105q-231 0 -362 84q40 99 41 103q134 -82 315 -82q154 0 240 72t86 210q0 52 -15.5 94.5t-39.5 72.5t-67.5 58.5t-85 48t-105.5 44.5q-142 55 -223 126t-107 163q-12 47 -12 98q0 168 112 270.5t303 102.5q96 0 183 -24t137 -60
l-41 -96q-118 77 -279 77q-134 0 -210 -68.5t-76 -195.5q0 -61 21.5 -108t66.5 -81.5t88.5 -56.5t113.5 -49q190 -73 278.5 -170t88.5 -239zM518 1571h-63l178 360h174z" />
    <glyph glyph-name="sacute" unicode="&#x15b;" horiz-adv-x="876" 
d="M745 281q0 -131 -102.5 -216t-269.5 -85q-188 0 -289 65l35 100q26 -22 93 -42.5t157 -20.5q113 0 182.5 51t69.5 143q0 47 -12.5 80t-44 60t-70.5 47t-107 47q-144 57 -211 128.5t-67 178.5q0 124 91.5 205.5t243.5 81.5q84 0 151.5 -19t104.5 -43q-5 -16 -16 -48
t-16 -48q-99 60 -224 60q-99 0 -158 -49.5t-59 -133.5q0 -81 55 -128.5t171 -90.5q150 -57 221 -131t71 -192zM444 1223h-63l178 360h174z" />
    <glyph glyph-name="Scircumflex" unicode="&#x15c;" horiz-adv-x="1058" 
d="M897 369q0 -184 -123.5 -289t-327.5 -105q-231 0 -362 84q40 99 41 103q134 -82 315 -82q154 0 240 72t86 210q0 52 -15.5 94.5t-39.5 72.5t-67.5 58.5t-85 48t-105.5 44.5q-142 55 -223 126t-107 163q-12 47 -12 98q0 168 112 270.5t303 102.5q96 0 183 -24t137 -60
l-41 -96q-118 77 -279 77q-134 0 -210 -68.5t-76 -195.5q0 -61 21.5 -108t66.5 -81.5t88.5 -56.5t113.5 -49q190 -73 278.5 -170t88.5 -239zM485 1702l-213 -197l-57 64l270 301l271 -301l-58 -64z" />
    <glyph glyph-name="scircumflex" unicode="&#x15d;" horiz-adv-x="876" 
d="M745 281q0 -131 -102.5 -216t-269.5 -85q-188 0 -289 65l35 100q26 -22 93 -42.5t157 -20.5q113 0 182.5 51t69.5 143q0 47 -12.5 80t-44 60t-70.5 47t-107 47q-144 57 -211 128.5t-67 178.5q0 124 91.5 205.5t243.5 81.5q84 0 151.5 -19t104.5 -43q-5 -16 -16 -48
t-16 -48q-99 60 -224 60q-99 0 -158 -49.5t-59 -133.5q0 -81 55 -128.5t171 -90.5q150 -57 221 -131t71 -192zM412 1354l-213 -197l-58 64l271 301l270 -301l-57 -64z" />
    <glyph glyph-name="Scedilla" unicode="&#x15e;" horiz-adv-x="1058" 
d="M561 -27q-3 -8 -10 -23.5t-10 -23.5q62 -27 93.5 -62.5t31.5 -92.5q0 -28 -9 -53t-29.5 -49t-62.5 -38t-100 -14q-101 0 -146 25l17 88q42 -19 121 -19q84 0 84 60q0 33 -24.5 50.5t-94.5 45.5q8 29 45 102q-138 4 -243.5 34.5t-153.5 62.5l45 120q160 -96 374 -96
q351 0 351 256q0 56 -19 101.5t-41.5 74t-73 58.5t-81.5 43.5t-100 40.5q-26 11 -40 16q-77 31 -130.5 57.5t-103 61.5t-79 74t-46.5 91t-17 115q0 181 119 276t337 95q109 0 212.5 -27.5t158.5 -66.5l-49 -117q-131 90 -328 90q-141 0 -225 -58t-84 -181q0 -62 20 -106.5
t74.5 -82t92 -55.5t129.5 -56q6 -3 9 -4q172 -71 239 -114q135 -89 163 -228q8 -42 8 -90q0 -175 -111 -271t-313 -110z" />
    <glyph glyph-name="scedilla" unicode="&#x15f;" horiz-adv-x="876" 
d="M453 -74q62 -27 93.5 -62.5t31.5 -92.5q0 -28 -9 -53t-29.5 -49t-62.5 -38t-100 -14q-101 0 -146 25l17 88q42 -19 121 -19q84 0 84 60q0 33 -24.5 50.5t-94.5 45.5q14 45 47 108q-187 2 -299 60l35 121q12 -9 40 -21t94.5 -26.5t141.5 -14.5q45 0 86 6q178 27 178 160
q0 30 -4.5 52t-20.5 42.5t-30.5 33.5t-52 32t-65.5 31.5t-89 37.5q-44 19 -66.5 29t-60 29t-57 34t-45 38.5t-38 48t-21.5 57t-9 70.5q0 130 98 209t267 79q167 0 278 -51l-30 -119q-111 54 -254 54q-97 0 -160.5 -40t-63.5 -120q0 -41 12.5 -70.5t51 -55.5t68 -40.5
t102.5 -44.5q9 -4 14 -6q137 -58 186 -90q116 -76 127 -204q1 -14 1 -30q0 -125 -83.5 -197.5t-234.5 -86.5q-12 -24 -24 -56z" />
    <glyph glyph-name="Scaron" unicode="&#x160;" horiz-adv-x="1058" 
d="M897 369q0 -184 -123.5 -289t-327.5 -105q-231 0 -362 84q40 99 41 103q134 -82 315 -82q154 0 240 72t86 210q0 52 -15.5 94.5t-39.5 72.5t-67.5 58.5t-85 48t-105.5 44.5q-142 55 -223 126t-107 163q-12 47 -12 98q0 168 112 270.5t303 102.5q96 0 183 -24t137 -60
l-41 -96q-118 77 -279 77q-134 0 -210 -68.5t-76 -195.5q0 -61 21.5 -108t66.5 -81.5t88.5 -56.5t113.5 -49q190 -73 278.5 -170t88.5 -239zM270 1915l213 -197l213 197l58 -64l-271 -301l-270 301z" />
    <glyph glyph-name="scaron" unicode="&#x161;" horiz-adv-x="876" 
d="M745 281q0 -131 -102.5 -216t-269.5 -85q-188 0 -289 65l35 100q26 -22 93 -42.5t157 -20.5q113 0 182.5 51t69.5 143q0 47 -12.5 80t-44 60t-70.5 47t-107 47q-144 57 -211 128.5t-67 178.5q0 124 91.5 205.5t243.5 81.5q84 0 151.5 -19t104.5 -43q-5 -16 -16 -48
t-16 -48q-99 60 -224 60q-99 0 -158 -49.5t-59 -133.5q0 -81 55 -128.5t171 -90.5q150 -57 221 -131t71 -192zM197 1567l213 -197l213 197l57 -64l-270 -301l-271 301z" />
    <glyph glyph-name="uni0162" unicode="&#x162;" horiz-adv-x="1122" 
d="M575 -74q62 -27 93.5 -62.5t31.5 -92.5q0 -28 -8.5 -53t-29.5 -49t-62.5 -38t-99.5 -14q-101 0 -146 25l17 88q42 -19 121 -19q83 0 83 60q0 33 -24.5 50.5t-93.5 45.5q30 84 59 133h-24v1298h-455v121h1048v-121h-454v-1298h-21q-24 -44 -35 -74z" />
    <glyph glyph-name="uni0163" unicode="&#x163;" horiz-adv-x="792" 
d="M498 -74q62 -27 93.5 -62.5t31.5 -92.5q0 -28 -9 -53t-29.5 -49t-62.5 -38t-100 -14q-101 0 -146 25l17 88q42 -19 121 -19q84 0 84 60q0 40 -52 67l-67 29q5 16 25 56.5t26 60.5q-57 8 -99.5 25.5t-71 48.5t-47 68t-28 93t-13 113.5t-3.5 138.5v922h133v-334h422v-113
h-422v-563q0 -145 39.5 -207.5t118.5 -73.5q18 -4 61 -4q120 0 215 56l33 -111q-32 -22 -102.5 -42.5t-145.5 -23.5q-1 -1 -22 -51z" />
    <glyph glyph-name="Tcaron" unicode="&#x164;" horiz-adv-x="1122" 
d="M928 1313h-375v-1313h-129v1313h-375v100h879v-100zM274 1915l213 -197l213 197l58 -64l-271 -301l-270 301z" />
    <glyph glyph-name="tcaron" unicode="&#x165;" horiz-adv-x="792" 
d="M301 1395v-336h422v-113h-422v-563q0 -88 15 -146t45.5 -87.5t67.5 -40.5t91 -11q120 0 215 56q5 -19 16.5 -56t16.5 -55q-37 -23 -108.5 -44.5t-147.5 -21.5q-192 0 -268 99t-76 319v0v488v487zM442 1589h146l-53 -397h-93v397z" />
    <glyph glyph-name="Tbar" unicode="&#x166;" horiz-adv-x="1122" 
d="M37 1419h1048v-121h-454v-514h254v-110h-254v-674h-139v674h-254v110h254v514h-455v121z" />
    <glyph glyph-name="tbar" unicode="&#x167;" horiz-adv-x="792" 
d="M301 1395v-336h422v-113h-422v-336h414v-108h-414v-119q0 -89 14.5 -147t45.5 -87.5t67.5 -40t91.5 -10.5q120 0 215 56l33 -111q-37 -23 -108.5 -44.5t-147.5 -21.5q-192 0 -268 99t-76 319v975z" />
    <glyph glyph-name="Utilde" unicode="&#x168;" horiz-adv-x="1392" 
d="M1106 461q0 -103 -28.5 -190t-84 -154.5t-146.5 -105.5t-208 -38q-203 0 -320 110.5t-137 287.5q-8 81 -8 190v852h127v-842q0 -242 80 -365.5t262 -123.5q127 0 217.5 75.5t110.5 211.5q12 89 12 202v842h123v-952zM774 1542q-46 0 -101 20t-98.5 40t-62.5 20
q-38 0 -62.5 -23.5t-50.5 -68.5l-77 37q27 65 75 114.5t121 49.5q51 0 105.5 -20t96 -40t60.5 -20q38 0 62.5 23.5t50.5 68.5l72 -37q-30 -61 -81 -112.5t-110 -51.5z" />
    <glyph glyph-name="utilde" unicode="&#x169;" 
d="M928 51q-169 -71 -379 -71q-97 0 -167.5 25t-113 66t-67 106.5t-33 133.5t-8.5 160v610h123v-585q0 -86 6 -145.5t23.5 -114t48.5 -87t82 -51t122 -18.5q167 0 240 41v960h123v-1030zM688 1194q-46 0 -101 20t-98.5 40t-62.5 20q-38 0 -62.5 -23.5t-50.5 -68.5l-77 37
q27 65 75 114t121 49q51 0 105.5 -20t96 -39.5t60.5 -19.5q38 0 62.5 23.5t50.5 68.5l72 -37q-30 -61 -81 -112.5t-110 -51.5z" />
    <glyph glyph-name="Umacron" unicode="&#x16a;" horiz-adv-x="1392" 
d="M1106 461q0 -103 -28.5 -190t-84 -154.5t-146.5 -105.5t-208 -38q-203 0 -320 110.5t-137 287.5q-8 81 -8 190v852h127v-842q0 -242 80 -365.5t262 -123.5q127 0 217.5 75.5t110.5 211.5q12 89 12 202v842h123v-952zM918 1618h-543v113h543v-113z" />
    <glyph glyph-name="umacron" unicode="&#x16b;" 
d="M928 51q-169 -71 -379 -71q-97 0 -167.5 25t-113 66t-67 106.5t-33 133.5t-8.5 160v610h123v-585q0 -86 6 -145.5t23.5 -114t48.5 -87t82 -51t122 -18.5q167 0 240 41v960h123v-1030zM831 1270h-542v112h542v-112z" />
    <glyph glyph-name="Ubreve" unicode="&#x16c;" horiz-adv-x="1392" 
d="M1106 461q0 -103 -28.5 -190t-84 -154.5t-146.5 -105.5t-208 -38q-203 0 -320 110.5t-137 287.5q-8 81 -8 190v852h127v-842q0 -242 80 -365.5t262 -123.5q127 0 217.5 75.5t110.5 211.5q12 89 12 202v842h123v-952zM651 1542q-107 0 -182.5 70.5t-67.5 202.5h88
q0 -20 5.5 -42t20.5 -50.5t50 -47t86 -18.5t86 18.5t50 47t20.5 50.5t5.5 42h88q0 -136 -70 -204.5t-180 -68.5z" />
    <glyph glyph-name="ubreve" unicode="&#x16d;" 
d="M928 51q-169 -71 -379 -71q-97 0 -167.5 25t-113 66t-67 106.5t-33 133.5t-8.5 160v610h123v-585q0 -86 6 -145.5t23.5 -114t48.5 -87t82 -51t122 -18.5q167 0 240 41v960h123v-1030zM565 1194q-107 0 -182.5 70t-67.5 202h88q0 -15 2.5 -31.5t13 -40t27 -41.5t47.5 -31
t72 -13t72 13t47.5 31t27 41.5t13 40t2.5 31.5h88q0 -135 -70 -203.5t-180 -68.5z" />
    <glyph glyph-name="Uring" unicode="&#x16e;" horiz-adv-x="1392" 
d="M1106 461q0 -103 -28.5 -190t-84 -154.5t-146.5 -105.5t-208 -38q-203 0 -320 110.5t-137 287.5q-8 81 -8 190v852h127v-842q0 -242 80 -365.5t262 -123.5q127 0 217.5 75.5t110.5 211.5q12 89 12 202v842h123v-952zM846 1739q0 -87 -56.5 -142t-138.5 -55t-139 54.5
t-57 142.5q0 86 57 140t139 54q81 0 138 -54.5t57 -139.5zM768 1739q0 56 -33 88.5t-84 32.5t-83.5 -32.5t-32.5 -88.5q0 -58 32.5 -89.5t83.5 -31.5q52 0 84.5 31.5t32.5 89.5z" />
    <glyph glyph-name="uring" unicode="&#x16f;" 
d="M928 51q-169 -71 -379 -71q-97 0 -167.5 25t-113 66t-67 106.5t-33 133.5t-8.5 160v610h123v-585q0 -86 6 -145.5t23.5 -114t48.5 -87t82 -51t122 -18.5q167 0 240 41v960h123v-1030zM760 1391q0 -87 -56.5 -142t-138.5 -55t-139 54.5t-57 142.5q0 86 57 140t139 54
q81 0 138 -54.5t57 -139.5zM682 1391q0 56 -33 88t-84 32t-83.5 -32t-32.5 -88q0 -58 32.5 -89.5t83.5 -31.5q52 0 84.5 31.5t32.5 89.5z" />
    <glyph glyph-name="Uhungarumlaut" unicode="&#x170;" horiz-adv-x="1392" 
d="M1106 461q0 -103 -28.5 -190t-84 -154.5t-146.5 -105.5t-208 -38q-203 0 -320 110.5t-137 287.5q-8 81 -8 190v852h127v-842q0 -242 80 -365.5t262 -123.5q127 0 217.5 75.5t110.5 211.5q12 89 12 202v842h123v-952zM752 1567l241 334l94 -89l-260 -307zM766 1812
l-258 -307l-76 62l240 336z" />
    <glyph glyph-name="uhungarumlaut" unicode="&#x171;" 
d="M928 51q-169 -71 -379 -71q-97 0 -167.5 25t-113 66t-67 106.5t-33 133.5t-8.5 160v610h123v-585q0 -86 6 -145.5t23.5 -114t48.5 -87t82 -51t122 -18.5q167 0 240 41v960h123v-1030zM625 1266l241 333l95 -88l-261 -307zM639 1511l-258 -307l-76 62l240 336z" />
    <glyph glyph-name="Uogonek" unicode="&#x172;" horiz-adv-x="1392" 
d="M739 -29q-16 -2 -43 -2q-138 0 -240 42.5t-161.5 120t-88 175.5t-28.5 219v893h139v-874q0 -226 101 -338.5t278 -112.5q176 0 277.5 112.5t101.5 338.5v874h139v-893q0 -359 -225 -487q-92 -52 -162.5 -118t-70.5 -128q0 -69 86 -69q44 0 78 12l10 -98q-55 -19 -111 -19
q-201 0 -201 143q0 104 121 209z" />
    <glyph glyph-name="uogonek" unicode="&#x173;" 
d="M844 2q-158 -22 -260 -22q-116 0 -198.5 34t-130 100t-69.5 152t-22 199v594h133v-551q0 -225 69.5 -316.5t237.5 -91.5q84 0 156 10t96 19v930h133v-1032q-15 -12 -30.5 -27.5t-37 -38t-34.5 -35.5q-37 -40 -54.5 -70t-17.5 -63q0 -69 86 -69q43 0 78 12l10 -98
q-55 -19 -110 -19q-201 0 -201 143q0 49 22 95q32 64 144 145z" />
    <glyph glyph-name="Wcircumflex" unicode="&#x174;" horiz-adv-x="1886" 
d="M1688 1413q-158 -799 -336 -1413h-127q-23 73 -72 231.5t-78 252.5t-71 233t-76 260q-10 35 -24 93t-19 73q-5 -12 -11.5 -36.5t-15 -63t-16.5 -66.5q-63 -224 -301 -977h-123q-167 559 -336 1413h133q112 -589 219 -1055q41 -182 51 -215q9 0 66 199q139 456 283 985
h108q137 -517 283 -985q9 -29 22.5 -75t23.5 -77t17 -47q1 2 35 146q108 459 242 1124h123zM889 1702l-213 -197l-58 64l271 301l270 -301l-57 -64z" />
    <glyph glyph-name="wcircumflex" unicode="&#x175;" horiz-adv-x="1587" 
d="M1503 1081q-143 -550 -336 -1081h-106q-152 445 -244 772q-8 28 -17.5 72t-13.5 53q-105 -383 -276 -897h-109q-190 522 -335 1081h129q74 -329 235 -845q6 -20 12.5 -46t10.5 -39t8 -18l33 113q138 434 243 835h109q88 -387 237 -837q5 -17 12.5 -43.5t12.5 -43.5t8 -24
q3 3 8 18t12 41t13 44q126 378 235 845h119zM791 1354l-213 -197l-58 64l271 301l270 -301l-57 -64z" />
    <glyph glyph-name="Ycircumflex" unicode="&#x176;" 
d="M1044 1413q-278 -524 -440 -799v-614h-127v612q-211 359 -442 801h145q190 -398 365 -704q156 275 368 704h131zM547 1702l-213 -197l-58 64l271 301l270 -301l-57 -64z" />
    <glyph glyph-name="ycircumflex" unicode="&#x177;" horiz-adv-x="970" 
d="M909 1081q-193 -692 -358 -1124q-21 -57 -35 -89.5t-34.5 -72.5t-40 -60.5t-46 -35t-57.5 -14.5q-23 0 -45 3t-37 7t-32.5 11.5t-25 11.5t-22.5 13t-18 11l22 76q5 -3 21 -12.5t21.5 -12.5t18 -10t18.5 -9t16 -6t18 -5t16 -1q28 0 52 21t40.5 55.5t28 68.5t22.5 71
q1 4 1.5 6.5t1.5 5.5q-241 555 -398 1091h131q95 -356 269 -825q12 -30 28.5 -80t22.5 -63q4 0 11 24t17.5 62t16.5 55q101 307 240 827h116zM483 1354l-213 -197l-57 64l270 301l271 -301l-58 -64z" />
    <glyph glyph-name="Ydieresis" unicode="&#x178;" 
d="M1044 1413q-278 -524 -440 -799v-614h-127v612q-211 359 -442 801h145q190 -398 365 -704q156 275 368 704h131zM459 1665q0 -44 -26 -71t-68 -27t-68.5 27t-26.5 71t26.5 71t68.5 27t68 -27t26 -71zM811 1665q0 -44 -26 -71t-68 -27t-68 27t-26 71t26 71t68 27t68 -27
t26 -71z" />
    <glyph glyph-name="Zacute" unicode="&#x179;" horiz-adv-x="1146" 
d="M922 0h-854v102q181 387 686 1209h-656v102h801v-102q-23 -39 -148 -251.5t-195.5 -335t-172 -307t-164.5 -315.5h703v-102zM541 1571h-64l178 360h174z" />
    <glyph glyph-name="zacute" unicode="&#x17a;" horiz-adv-x="931" 
d="M797 0h-725v72q49 97 129 234.5t142 237.5t157 251t123 196h-519v90h674v-84l-114 -174q-282 -426 -439 -735h572v-88zM485 1223h-63l178 360h174z" />
    <glyph glyph-name="Zdotaccent" unicode="&#x17b;" horiz-adv-x="1146" 
d="M922 0h-854v102q181 387 686 1209h-656v102h801v-102q-23 -39 -148 -251.5t-195.5 -335t-172 -307t-164.5 -315.5h703v-102zM504 1563q-42 0 -70 28t-28 74t28 74t70 28t70 -28t28 -74t-28 -74t-70 -28z" />
    <glyph glyph-name="zdotaccent" unicode="&#x17c;" horiz-adv-x="931" 
d="M797 0h-725v72q49 97 129 234.5t142 237.5t157 251t123 196h-519v90h674v-84l-114 -174q-282 -426 -439 -735h572v-88zM449 1214q-42 0 -70.5 28.5t-28.5 74.5t28.5 74t70.5 28t70 -28t28 -74t-28 -74.5t-70 -28.5z" />
    <glyph glyph-name="Zcaron" unicode="&#x17d;" horiz-adv-x="1146" 
d="M922 0h-854v102q181 387 686 1209h-656v102h801v-102q-23 -39 -148 -251.5t-195.5 -335t-172 -307t-164.5 -315.5h703v-102zM293 1915l213 -197l213 197l57 -64l-270 -301l-270 301z" />
    <glyph glyph-name="zcaron" unicode="&#x17e;" horiz-adv-x="931" 
d="M797 0h-725v72q49 97 129 234.5t142 237.5t157 251t123 196h-519v90h674v-84l-114 -174q-282 -426 -439 -735h572v-88zM238 1567l213 -197l213 197l57 -64l-270 -301l-271 301z" />
    <glyph glyph-name="longs" unicode="&#x17f;" horiz-adv-x="505" 
d="M309 1169v-1169h-133v1174q0 208 96 311.5t293 103.5q77 0 133 -12t78 -25l-26 -114q-71 32 -179 32q-140 0 -201 -71t-61 -230z" />
    <glyph glyph-name="uni0180" unicode="&#x180;" horiz-adv-x="1193" 
d="M309 1589v-196h398v-107h-398v-291q44 33 121.5 59.5t171.5 26.5q224 0 351.5 -153t127.5 -400q0 -255 -143 -404t-377 -149q-213 0 -385 58v1253h-164v107h164v172zM309 866v-741q85 -29 250 -29q175 0 278 113t103 319q0 92 -18.5 167.5t-58.5 136.5t-109.5 95
t-163.5 34q-85 0 -159 -29.5t-122 -65.5z" />
    <glyph glyph-name="uni0181" unicode="&#x181;" horiz-adv-x="1458" 
d="M707 1432q120 0 218.5 -19t179.5 -60.5t126 -115t45 -174.5q0 -70 -27 -139q-54 -127 -188 -168q285 -65 285 -357q0 -411 -654 -411q-69 0 -174.5 12t-165.5 27v1273q-99 -6 -144.5 -56t-45.5 -148q0 -41 6 -66l-115 -16q-12 46 -12 98q0 82 29.5 139.5t81 92.5
t138.5 55t183 26.5t234 6.5zM786 680h-294v-559q102 -15 217 -15q104 0 185 13t153 44t111.5 91.5t39.5 146.5q0 81 -28 136.5t-84 86t-128 43.5t-172 13zM707 1313q-168 0 -215 -6v-508h180q61 0 103 1.5t94 7t86.5 16t70.5 30t56.5 46.5t34 67t13.5 92q0 254 -423 254z
" />
    <glyph glyph-name="uni0182" unicode="&#x182;" horiz-adv-x="1253" 
d="M500 750h-176v-627q119 -14 225 -14q461 0 461 319q0 77 -24 134t-65.5 92.5t-107 57.5t-140 30t-173.5 8zM324 868h194q312 0 474.5 -105t162.5 -333q0 -442 -612 -442q-217 0 -359 39v1392h844v-121h-704v-430z" />
    <glyph glyph-name="uni0183" unicode="&#x183;" horiz-adv-x="1193" 
d="M309 1466v-471q44 33 121.5 59.5t171.5 26.5q224 0 351.5 -153t127.5 -400q0 -255 -143 -404t-377 -149q-213 0 -385 58v1546h785v-113h-652zM309 866v-741q85 -29 250 -29q175 0 278 113t103 319q0 92 -18.5 167.5t-58.5 136.5t-109.5 95t-163.5 34q-85 0 -159 -29.5
t-122 -65.5z" />
    <glyph glyph-name="uni0184" unicode="&#x184;" horiz-adv-x="1193" 
d="M309 1589v-594q44 33 121.5 59.5t171.5 26.5q224 0 351.5 -153t127.5 -400q0 -255 -143 -404t-377 -149q-213 0 -385 58v1300l-129 142q45 30 124 64.5t138 49.5zM309 866v-741q85 -29 250 -29q175 0 278 113t103 319q0 92 -18.5 167.5t-58.5 136.5t-109.5 95t-163.5 34
q-85 0 -159 -29.5t-122 -65.5z" />
    <glyph glyph-name="uni0185" unicode="&#x185;" horiz-adv-x="1232" 
d="M559 768q-129 0 -223 -12v-633q86 -14 225 -14q79 0 143 8.5t123.5 31t99 59t63.5 95.5t24 137q0 93 -33 158.5t-96.5 102t-142.5 52t-183 15.5zM336 1430v-553q94 12 215 12q608 0 608 -449q0 -452 -604 -452q-216 0 -358 39v1144l-136 142q134 80 275 117z" />
    <glyph glyph-name="uni0186" unicode="&#x186;" horiz-adv-x="1236" 
d="M436 94q135 0 237 44.5t165 127t94 194t31 251.5q0 286 -134 450t-378 164q-215 0 -355 -78l-37 117q46 30 155 58t253 28q138 0 255.5 -49.5t203.5 -142t135 -234t49 -315.5q0 -176 -49 -316.5t-136.5 -233t-209 -141.5t-266.5 -49q-126 0 -232 27.5t-158 56.5l39 119
q140 -78 338 -78z" />
    <glyph glyph-name="uni0187" unicode="&#x187;" horiz-adv-x="1300" 
d="M809 1325q-258 0 -396.5 -167.5t-138.5 -448.5q0 -286 134.5 -450.5t377.5 -164.5q225 0 365 78l39 -119q-38 -27 -152 -55.5t-264 -28.5q-137 0 -255 50t-205.5 142.5t-137 234t-49.5 315.5q0 173 54 315.5t145 233.5t208.5 140.5t247.5 49.5q161 0 273 -51
q27 106 90 156.5t174 50.5q65 0 113 -19l-23 -98q-37 14 -88 14q-33 0 -58 -10t-39.5 -21.5t-28 -37t-18 -39t-14.5 -45.5l-28 -103q-171 78 -326 78z" />
    <glyph glyph-name="uni0188" unicode="&#x188;" horiz-adv-x="1003" 
d="M752 1069q21 81 58.5 129t100.5 66q43 12 99 12q72 0 112 -16l-22 -99q-40 15 -88 15q-33 0 -58.5 -9t-42 -26.5t-27.5 -35.5t-18 -45.5t-10.5 -46.5t-7.5 -48t-6 -41q-93 39 -230 39q-176 0 -267 -113t-91 -324q0 -97 21 -173.5t65.5 -134.5t119.5 -89t177 -31
q128 0 229 52l29 -113q-41 -23 -121 -41.5t-160 -18.5q-241 0 -371 148t-130 401q0 252 131.5 404.5t355.5 152.5q80 0 152 -14z" />
    <glyph glyph-name="uni0189" unicode="&#x189;" horiz-adv-x="1466" 
d="M1339 711q0 -178 -57 -316.5t-161 -227t-246 -134t-316 -45.5q-204 0 -346 37v661h-164v113h164v594q139 39 346 39q174 0 316 -45.5t246 -134t161 -226.5t57 -315zM352 686v-563q112 -14 223 -14q301 0 459 159.5t158 442.5q0 282 -158 441t-459 159q-103 0 -223 -15
v-497h271v-113h-271z" />
    <glyph glyph-name="uni018A" unicode="&#x18a;" horiz-adv-x="1605" 
d="M698 1432q174 0 316 -45.5t246.5 -134t161.5 -226.5t57 -315q0 -143 -37 -260.5t-105.5 -203t-165.5 -144t-216 -87t-257 -28.5q-204 0 -346 37v1275q-99 -6 -144.5 -56t-45.5 -148q0 -41 6 -66l-115 -16q-12 46 -12 98q0 68 19 119.5t59.5 86.5t92.5 57.5t130.5 35
t161 17t194.5 4.5zM707 1311q-184 0 -215 -4v-1184q112 -14 223 -14q301 0 458.5 159.5t157.5 442.5t-159 441.5t-465 158.5z" />
    <glyph glyph-name="uni018B" unicode="&#x18b;" horiz-adv-x="1253" 
d="M930 750h-88q-75 0 -130 -2t-115.5 -7t-103.5 -15.5t-85.5 -26.5t-70.5 -40.5t-50 -56.5t-32.5 -76t-10.5 -98q0 -90 36.5 -155t102.5 -100.5t145 -51t177 -15.5q126 0 225 15v629zM735 868h195v430h-705v121h844v-1394q-142 -39 -358 -39q-302 0 -457.5 111t-155.5 333
q0 232 161.5 335t475.5 103z" />
    <glyph glyph-name="uni018C" unicode="&#x18c;" horiz-adv-x="1193" 
d="M885 995v471h-652v113h785v-1546q-172 -58 -385 -58q-234 0 -377 149t-143 404q0 247 127.5 400t351.5 153q94 0 171.5 -26.5t121.5 -59.5zM885 125v741q-48 36 -122 65.5t-159 29.5q-94 0 -163.5 -34t-109.5 -95t-58.5 -136.5t-18.5 -167.5q0 -206 103 -319t278 -113
q165 0 250 29z" />
    <glyph glyph-name="uni018D" unicode="&#x18d;" horiz-adv-x="1171" 
d="M1059 592q0 -162 -96 -296t-250 -196q116 -65 149 -139q19 -46 19 -98q0 -69 -33.5 -118.5t-90 -75.5t-117.5 -37t-130 -11q-94 0 -176.5 17.5t-116.5 33.5l29 109q26 -16 95.5 -31.5t170.5 -15.5q75 0 119 10q117 27 117 117q0 34 -12 58.5t-48 49.5t-63 39t-95 45
q-19 9 -28 13q-47 24 -81 42.5t-77.5 47.5t-74 57t-62 68t-51 83t-31.5 99t-12 119q0 79 16.5 151.5t53 137t90.5 112t134.5 75t178.5 27.5q100 0 181 -29.5t134.5 -78t89.5 -113.5t52 -133t16 -139zM600 154q138 61 228 171t90 265q0 56 -10 107.5t-34.5 101t-61.5 86
t-95 58.5t-131 22q-162 0 -247 -101t-85 -278q0 -57 12 -106.5t28.5 -85.5t47 -70t54 -54.5t64.5 -44.5t63 -35t64 -30q9 -4 13 -6z" />
    <glyph glyph-name="uni018E" unicode="&#x18e;" horiz-adv-x="1136" 
d="M952 0h-872v121h733v565h-606v119h606v493h-680v121h819v-1419z" />
    <glyph glyph-name="uni018F" unicode="&#x18f;" horiz-adv-x="1421" 
d="M1149 621h-881q0 -115 25 -210.5t74.5 -167t129 -111.5t181.5 -40q92 0 169.5 32t130 84t90.5 121.5t57 142.5t24 149zM127 739h1022q-7 286 -142 436t-368 150q-117 0 -217 -25t-158 -67l-45 119q60 39 167.5 68.5t256.5 29.5q194 0 340 -84t228.5 -250.5t82.5 -396.5
q0 -183 -48.5 -328t-134 -236t-197 -138.5t-242.5 -47.5q-267 0 -408 179t-141 532q0 31 4 59z" />
    <glyph glyph-name="uni0190" unicode="&#x190;" horiz-adv-x="1130" 
d="M647 1329q-156 0 -244 -69q-81 -63 -81 -173q0 -76 35 -132t94 -85.5t124 -43t138 -13.5h121v-119h-95q-86 0 -154 -8t-130.5 -28.5t-104 -54.5t-66 -88.5t-24.5 -127.5q0 -243 268 -287q68 -10 134 -10q118 0 213.5 29.5t150.5 64.5l45 -121q-54 -33 -162.5 -63.5
t-244.5 -30.5q-124 0 -222.5 23t-173.5 72t-115 130.5t-40 192.5q0 85 28 154t77.5 114.5t109.5 73.5t131 41q-101 21 -169 78.5t-95 136.5q-19 55 -19 107q0 178 126.5 268t342.5 90q115 0 218.5 -27.5t162.5 -66.5l-49 -117q-131 90 -330 90z" />
    <glyph glyph-name="uni0191" unicode="&#x191;" horiz-adv-x="1064" 
d="M324 678v-438q0 -36 1.5 -87.5t3 -89t1 -86t-3 -83t-10.5 -74.5t-20.5 -68t-33 -55t-48.5 -43.5t-67 -26.5t-88 -10q-58 0 -110 18l18 111q28 -12 76 -12q35 0 59.5 6.5t40 29.5t24.5 39t12.5 63.5t4 74.5t0.5 97v46v1329h809v-121h-669v-499h594v-121h-594z" />
    <glyph glyph-name="florin" unicode="&#x192;" horiz-adv-x="770" 
d="M309 946v-803q0 -84 -2.5 -140.5t-9.5 -115t-21 -96t-36.5 -71.5t-56 -55t-79.5 -34q-52 -14 -127 -14q-58 0 -106 21l18 108q36 -12 86 -12q116 0 158.5 63.5t42.5 206.5v1040v130q0 208 96 311.5t293 103.5q77 0 133 -12t78 -25l-26 -114q-71 32 -179 32
q-70 0 -117 -16t-76 -44t-44 -81.5t-20 -113.5t-5 -156h426v-113h-426z" />
    <glyph glyph-name="uni0193" unicode="&#x193;" horiz-adv-x="1357" 
d="M795 1450q166 0 278 -51q27 106 90 155.5t178 49.5q71 0 113 -17l-22 -98q-37 14 -89 14q-24 0 -43.5 -5.5t-33 -11.5t-26 -21.5t-18.5 -23.5t-15 -31t-11 -29.5l-10 -32.5v0l-29 -103q-45 27 -139 53.5t-211 26.5q-242 0 -387.5 -159.5t-145.5 -454.5q0 -289 134.5 -453
t390.5 -164q95 0 168 10.5t102 22.5v545h139v-633q-52 -24 -168.5 -46t-263.5 -22q-140 0 -258 49.5t-205.5 142t-136.5 233.5t-49 315q0 173 53 315t144.5 233.5t212 141t258.5 49.5z" />
    <glyph glyph-name="uni0194" unicode="&#x194;" horiz-adv-x="1277" 
d="M639 209q-40 -61 -64.5 -102.5t-48.5 -104t-24 -113.5q0 -64 34.5 -105.5t102.5 -41.5t102.5 41.5t34.5 105.5q0 39 -11.5 80t-36.5 89.5t-41 74zM713 319l26 -43q9 -15 53.5 -89t60.5 -105t35 -88.5t19 -106.5q0 -31 -5.5 -62t-22.5 -69t-45 -66.5t-78 -47.5t-115 -19
t-115 19t-78 47.5t-45 66.5t-22.5 69t-5.5 62q0 39 9.5 78.5t30 82.5t37.5 73.5t47 80.5t44 74l20 35q-251 425 -543 1108h156q266 -626 465 -985q199 368 469 985h147q-104 -262 -252 -558t-292 -542z" />
    <glyph glyph-name="uni0195" unicode="&#x195;" horiz-adv-x="1810" 
d="M973 588v-123q0 -197 65 -281t205 -84q137 0 203.5 84.5t66.5 280.5v594h134v-606q0 -86 -11.5 -154.5t-39.5 -130t-73.5 -102.5t-116 -65t-163.5 -24t-163.5 24t-115.5 65t-73 102.5t-39.5 130t-11.5 154.5v92q0 231 -59.5 322t-227.5 91q-63 0 -139.5 -17.5
t-104.5 -29.5v-911h-133v1565l133 24v-561q136 51 264 51q94 0 164 -23.5t114.5 -65t72 -104.5t38.5 -134.5t11 -163.5z" />
    <glyph glyph-name="uni0196" unicode="&#x196;" horiz-adv-x="741" 
d="M180 344v1075h139v-1081q0 -75 13.5 -124.5t42 -75t62.5 -35t85 -9.5q101 0 160 33l33 -115q-27 -14 -88 -28.5t-125 -14.5q-80 0 -137.5 18.5t-100 61t-63.5 116t-21 179.5z" />
    <glyph glyph-name="uni0197" unicode="&#x197;" horiz-adv-x="630" 
d="M385 0h-139v684h-197v111h197v624h139v-624h197v-111h-197v-684z" />
    <glyph glyph-name="uni0198" unicode="&#x198;" horiz-adv-x="1331" 
d="M817 1311q63 68 122.5 102.5t139.5 34.5q118 0 207 -94l-69 -94q-65 69 -140 69q-42 0 -80.5 -20.5t-91.5 -73.5q-82 -82 -169 -178.5t-126 -142.5t-133 -158q183 -109 411 -346.5t318 -409.5h-155q-136 210 -338.5 405.5t-388.5 296.5v-702h-140v1419h140v-674
q239 292 391 455z" />
    <glyph glyph-name="uni0199" unicode="&#x199;" horiz-adv-x="1013" 
d="M176 0v1262q0 63 4.5 107t20 88.5t43 71.5t75 43.5t113.5 16.5q63 0 109 -16l-19 -109q-29 11 -73 11q-42 0 -68.5 -14t-41.5 -32.5t-21.5 -66t-7.5 -82.5t-1 -115v-12v-10v-561q112 107 250 248.5t213 228.5h160q-226 -237 -473 -484q126 -85 278 -255t240 -320h-158
q-95 157 -238 303.5t-272 228.5v-532h-133z" />
    <glyph glyph-name="uni019A" unicode="&#x19a;" horiz-adv-x="532" 
d="M481 90l-18 -110q-140 8 -205 67.5t-65 204.5v172v346h-158v109h158v686l133 24v-710h190v-109h-190v-514q0 -49 8 -79t29.5 -47.5t46.5 -25t71 -14.5z" />
    <glyph glyph-name="uni019B" unicode="&#x19b;" horiz-adv-x="1007" 
d="M532 932q-245 -461 -358 -932h-135q51 206 175 513t263 564q-11 33 -49 125q-38 -13 -113.5 -38.5t-113.5 -37.5l-39 109q37 12 109.5 36.5t109.5 37.5q-44 97 -88.5 131.5t-124.5 34.5q-43 0 -78 -15q-4 18 -11 55t-11 56q52 18 127 18q63 0 114 -19t87 -55.5
t60.5 -74.5t47.5 -90q42 15 127 43.5t127 42.5l39 -109l-250 -84q236 -594 418 -1243h-140q-109 434 -293 932z" />
    <glyph glyph-name="uni019C" unicode="&#x19c;" horiz-adv-x="1976" 
d="M1012 117q-181 -148 -389 -148q-105 0 -183.5 26.5t-128 72.5t-80 117t-42 151t-11.5 184v899h139v-837q0 -136 13 -223t48.5 -150t97.5 -90t159 -27q108 0 189.5 40.5t129.5 88.5q-39 111 -39 307v891h140v-864q0 -125 14 -207.5t49 -142t96.5 -86.5t155.5 -27
q81 0 166.5 13t116.5 26v1288h139v-1380q-207 -70 -428 -70q-237 0 -352 148z" />
    <glyph glyph-name="uni019D" unicode="&#x19d;" horiz-adv-x="1452" 
d="M322 1196v-1040q0 -31 1 -81t1.5 -80.5t-1 -74.5t-5 -72t-11.5 -63t-21 -57t-33 -45.5t-46 -36t-62.5 -21t-81.5 -8.5q-62 0 -114 18l18 111q28 -12 76 -12q77 0 109 45t32 145v1495h111q205 -228 454.5 -575t380.5 -580v1155h138v-1419h-117q-53 94 -82 141
q-149 244 -373 561.5t-374 493.5z" />
    <glyph glyph-name="uni019E" unicode="&#x19e;" horiz-adv-x="1163" 
d="M176 0v1022q198 57 406 57q118 0 201 -34.5t130 -101t67.5 -152t20.5 -199.5v-971h-133v928q0 225 -67 317t-240 92q-84 0 -155.5 -9.5t-96.5 -18.5v-930h-133z" />
    <glyph glyph-name="uni019F" unicode="&#x19f;" horiz-adv-x="1585" 
d="M1458 711q0 -143 -34.5 -264t-96 -208t-145 -148.5t-182 -91.5t-207.5 -30t-207.5 30t-182.5 91.5t-145.5 148.5t-96 208t-34.5 264q0 142 34.5 262.5t96 207.5t145.5 148t182.5 91t207.5 30t207.5 -30t182 -91t145 -148t96 -207.5t34.5 -262.5zM793 94q225 0 364.5 151
t151.5 412h-1035q12 -261 152.5 -412t366.5 -151zM793 1325q-223 0 -361.5 -146.5t-155.5 -402.5h1033q-17 256 -155 402.5t-361 146.5z" />
    <glyph glyph-name="Ohorn" unicode="&#x1a0;" horiz-adv-x="1585" 
d="M1458 711q0 -143 -34.5 -264t-96 -208t-145 -148.5t-182 -91.5t-207.5 -30t-207.5 30t-182.5 91.5t-145.5 148.5t-96 208t-34.5 264q0 142 34.5 262.5t96 207.5t145.5 148t182.5 91t207.5 30q246 0 417 -143q60 54 84.5 113.5t24.5 146.5q0 47 -6 71h133q4 -32 4 -55
q0 -230 -158 -356q166 -196 166 -516zM1311 711q0 286 -140 450t-378 164t-378.5 -164.5t-140.5 -449.5t141 -451t378 -166t377.5 166t140.5 451z" />
    <glyph glyph-name="ohorn" unicode="&#x1a1;" horiz-adv-x="1202" 
d="M1079 528q0 -249 -134.5 -401t-348.5 -152t-348.5 152t-134.5 401t134.5 402t348.5 153q195 0 328 -133q58 58 82 115.5t24 142.5q0 48 -6 72h133q4 -32 4 -55q0 -55 -8 -99q-28 -165 -160 -266q86 -138 86 -332zM938 528q0 199 -92 317t-250 118t-250 -118t-92 -317
q0 -198 92 -315t250 -117t250 117t92 315z" />
    <glyph glyph-name="uni01A2" unicode="&#x1a2;" horiz-adv-x="2052" 
d="M766 1450q224 0 395 -139q22 19 35.5 30t49.5 34.5t68 36.5t81.5 24.5t101.5 11.5q91 0 157 -24t107 -65t65 -108t33 -141t9 -176v-934h-139v922q0 220 -50.5 312.5t-195.5 92.5q-120 0 -238 -100q160 -201 160 -516q0 -143 -33.5 -264t-92.5 -208t-139.5 -148.5
t-175 -91.5t-198.5 -30t-198.5 30t-175 91.5t-139.5 148.5t-92.5 208t-33.5 264q0 142 33.5 262.5t92.5 207.5t139.5 148t175 91t198.5 30zM766 94q227 0 359 165.5t132 451.5q0 287 -131.5 450.5t-359.5 163.5t-360 -164t-132 -450t132.5 -451.5t359.5 -165.5z" />
    <glyph glyph-name="uni01A3" unicode="&#x1a3;" horiz-adv-x="1636" 
d="M1059 528q0 -249 -132 -401t-341 -152t-341 152t-132 401t132 402t341 153q166 0 286 -102q124 100 263 100q85 0 146 -22t98 -59t58 -97.5t28.5 -125.5t7.5 -156v-1000h-134v981q0 189 -45 276t-168 87q-97 0 -174 -68q107 -151 107 -369zM918 528q0 198 -90 316.5
t-242 118.5q-154 0 -243 -118t-89 -317q0 -198 89.5 -315t242.5 -117t242.5 117t89.5 315z" />
    <glyph glyph-name="uni01A4" unicode="&#x1a4;" horiz-adv-x="1382" 
d="M698 1432q307 0 458 -113t151 -328q0 -234 -159.5 -338t-463.5 -104h-192v-549h-140v1300q-99 -6 -144.5 -56t-45.5 -148q0 -41 6 -66l-115 -16q-12 46 -12 98q0 68 19 119.5t59.5 86.5t92.5 57.5t130.5 35t161 17t194.5 4.5zM707 1311q-184 0 -215 -4v-637h176
q96 0 167.5 8t135.5 29.5t104 57.5t63 93t23 135q0 318 -454 318z" />
    <glyph glyph-name="uni01A5" unicode="&#x1a5;" horiz-adv-x="1193" 
d="M309 1284v-256q128 51 260 51q230 0 371 -150.5t141 -402.5q0 -247 -127.5 -399t-351.5 -152q-94 0 -171.5 26.5t-121.5 59.5v-440h-133v1641q0 63 4.5 107t20 88.5t43 71.5t75 43.5t113.5 16.5q10 0 64 -6q6 -1 16 -3t17 -3.5t12 -3.5l-19 -109q-29 11 -73 11
q-76 0 -108 -45.5t-32 -145.5zM309 911v-721q48 -36 122 -65t159 -29q95 0 164 33t109 93.5t58.5 135.5t18.5 168q0 204 -104 318t-279 114q-61 0 -142 -17.5t-106 -29.5z" />
    <glyph glyph-name="uni01A6" unicode="&#x1a6;" horiz-adv-x="1265" 
d="M184 1589h140v-176q94 12 215 12q591 0 591 -432q0 -293 -305 -385q103 -130 242 -349.5t254 -481.5h-150q-67 144 -138 273.5t-144.5 239.5t-109 160t-95.5 130q-75 -7 -131 -7h-229v-573h-140v1589zM547 1305q-121 0 -223 -13v-600h96h11q65 0 97.5 0.5t90.5 3t88 7.5
t75.5 15.5t69.5 25.5t54 38t44 52.5t24.5 70t10.5 90.5q0 74 -24.5 129.5t-64 89.5t-98 55t-118.5 28.5t-133 7.5z" />
    <glyph glyph-name="uni01A7" unicode="&#x1a7;" horiz-adv-x="1058" 
d="M569 90q215 0 375 96l45 -120q-59 -35 -168 -66t-254 -31q-236 0 -364.5 97.5t-128.5 287.5q0 94 27.5 162t98 120t120 77t161.5 71q3 1 4 2q44 18 61 25t54 23.5t52.5 25.5t43.5 26.5t40 30.5t29.5 33.5t24.5 40t13 45t6 54.5q0 122 -83.5 180.5t-225.5 58.5
q-197 0 -328 -90l-49 117q57 38 161.5 66t213.5 28q218 0 335 -94.5t117 -276.5q0 -78 -24.5 -138t-77 -107t-116.5 -81.5t-161 -72.5q-16 -7 -49 -20q-36 -14 -54 -21.5t-49.5 -22t-48 -24.5t-41.5 -26.5t-38 -31t-29 -36t-24 -43.5t-13.5 -49.5t-5.5 -59.5
q0 -256 350 -256z" />
    <glyph glyph-name="uni01A8" unicode="&#x1a8;" horiz-adv-x="876" 
d="M483 94q73 0 139 14t96 26.5t42 21.5l35 -121q-124 -60 -314 -60q-196 0 -297.5 74t-101.5 217q0 56 18 101.5t44 75.5t71 58t81.5 44.5t93.5 39.5q9 3 13 5q51 21 74 31.5t57.5 28t49 30.5t31.5 33t22.5 42.5t5.5 51.5q0 80 -63 120t-160 40q-143 0 -254 -54l-31 119
q110 51 285 51q170 0 264 -76.5t94 -211.5q0 -38 -9 -70.5t-21.5 -57t-38 -48t-45 -38.5t-57 -34t-60 -29t-66.5 -29q-47 -20 -68.5 -29t-55 -24.5t-47.5 -24t-34.5 -23t-28 -26t-16.5 -28t-11.5 -34t-2.5 -40.5q0 -166 266 -166z" />
    <glyph glyph-name="uni01A9" unicode="&#x1a9;" horiz-adv-x="1130" 
d="M729 745q-58 -71 -168.5 -199.5t-190 -227.5t-145.5 -197h822v-121h-969v119q70 117 266 352q16 19 34.5 41.5t41.5 50.5t35 43l110 137q-62 78 -170 208t-181 221t-110 149v98h938v-121h-755q27 -43 98.5 -131t174 -212t169.5 -210z" />
    <glyph glyph-name="uni01AA" unicode="&#x1aa;" horiz-adv-x="612" 
d="M303 -111v1229q-76 -76 -180 -76q-114 0 -184 77t-70 196q0 126 76 200t196 74q55 0 98.5 -11t73.5 -30.5t53 -47t35 -60.5t21 -71t11 -78t3.5 -82t-0.5 -84v-46v-1185q0 -92 33 -122.5t123 -43.5q-14 -65 -19 -111q-140 8 -205 67.5t-65 204.5zM143 1155q52 0 84.5 22.5
t75.5 73.5v45q0 89 -43.5 134t-118.5 45q-74 0 -110.5 -44t-36.5 -116q0 -71 37.5 -115.5t111.5 -44.5z" />
    <glyph glyph-name="uni01AB" unicode="&#x1ab;" horiz-adv-x="792" 
d="M520 100q138 0 221 29q13 -71 13 -182q0 -80 -8.5 -132.5t-34 -100.5t-78.5 -71.5t-135 -23.5q-63 0 -109 16l19 109q27 -10 73 -10q80 0 113 45t33 145q0 46 -4 74q-62 -12 -129 -12q-61 0 -108 10.5t-81.5 29.5t-58.5 52t-39.5 71t-24 94t-11.5 114t-3 137v876l133 25
v-336h422v-113h-422v-563q0 -87 14.5 -144t45 -87t67.5 -41t92 -11z" />
    <glyph glyph-name="uni01AC" unicode="&#x1ac;" horiz-adv-x="1153" 
d="M522 1298h-160q-99 0 -149.5 -52t-50.5 -150q0 -41 6 -66l-115 -16q-12 46 -12 98q0 65 15.5 115t43 82t66.5 54.5t86.5 33t102 17t113.5 6t121 -0.5h66h461v-121h-454v-1298h-140v1298z" />
    <glyph glyph-name="uni01AD" unicode="&#x1ad;" horiz-adv-x="792" 
d="M301 1059h426v-113h-426v-563q0 -117 25 -178.5t77 -85.5q49 -21 117 -21q120 0 215 56l33 -111q-37 -23 -108.5 -44.5t-147.5 -21.5q-192 0 -268 99t-76 319v779q0 208 96 311.5t293 103.5q77 0 133 -12t78 -25l-27 -114q-71 32 -178 32q-70 0 -117 -16t-76 -44
t-44 -81.5t-20 -113.5t-5 -156z" />
    <glyph glyph-name="uni01AE" unicode="&#x1ae;" horiz-adv-x="1122" 
d="M631 1298v-1374q0 -100 32 -145t109 -45q48 0 76 12l18 -111q-52 -18 -110 -18q-66 0 -114.5 17t-77 45t-45 72t-22 89.5t-5.5 106.5v1351h-455v121h1048v-121h-454z" />
    <glyph glyph-name="Uhorn" unicode="&#x1af;" horiz-adv-x="1419" 
d="M1075 1419h131q56 0 93.5 35t37.5 115q0 47 -6 71h133q4 -32 4 -55q0 -50 -12.5 -95t-40 -85.5t-79 -66t-122.5 -29.5v-783q0 -121 -28.5 -219t-88 -175.5t-161.5 -120t-240 -42.5t-240 42.5t-161.5 120t-88 175.5t-28.5 219v893h139v-874q0 -226 100.5 -338.5
t278.5 -112.5t278.5 112.5t100.5 338.5v874z" />
    <glyph glyph-name="uhorn" unicode="&#x1b0;" horiz-adv-x="1196" 
d="M989 948v-911q-198 -57 -405 -57q-116 0 -198.5 34t-130 100t-69.5 152t-22 199v594h133v-551q0 -225 69.5 -316.5t237.5 -91.5q84 0 156 10t96 19v930h125q57 0 94 34.5t37 114.5q0 48 -6 72h133q4 -32 4 -55q0 -50 -12.5 -95t-40 -86t-79 -66.5t-122.5 -29.5z" />
    <glyph glyph-name="uni01B1" unicode="&#x1b1;" horiz-adv-x="1597" 
d="M799 -31q-106 0 -203 28t-179 85.5t-142 139.5t-94 196.5t-34 249.5q0 109 26 211t70.5 181t90.5 137t98 103h-317v119h520v-90q-155 -116 -247.5 -281.5t-92.5 -383.5q0 -263 138.5 -416.5t365.5 -153.5t365.5 153.5t138.5 416.5q0 218 -92.5 383.5t-247.5 281.5v90h520
v-119h-318q52 -47 97.5 -104t90 -135.5t71 -180t26.5 -212.5q0 -168 -52 -303t-142 -220.5t-206.5 -130.5t-250.5 -45z" />
    <glyph glyph-name="uni01B2" unicode="&#x1b2;" horiz-adv-x="1394" 
d="M1241 741q0 -73 -4.5 -138.5t-19.5 -146t-40 -146.5t-68.5 -131.5t-101 -110t-142.5 -72t-189 -27.5q-133 0 -231.5 42t-155.5 118.5t-84 172t-27 212.5v905h139v-884q0 -218 95 -329.5t252 -111.5q216 0 326 148.5t110 476.5q0 301 -77 443.5t-239 142.5q-20 0 -69 -7
l-13 111q36 12 113 12q426 0 426 -680z" />
    <glyph glyph-name="uni01B3" unicode="&#x1b3;" horiz-adv-x="1339" 
d="M586 702q72 142 196 367q16 29 49 92.5t50.5 93.5t44.5 71t52 63.5t52 33.5q46 17 98 17q128 0 220 -103l-70 -92q-66 74 -141 74q-43 0 -66 -16t-55 -70q-234 -389 -363 -645v-117v-471h-139v584q-307 473 -494 835h162q167 -351 404 -717z" />
    <glyph glyph-name="uni01B4" unicode="&#x1b4;" horiz-adv-x="1132" 
d="M858 815q-94 -408 -223 -739q-34 -87 -60.5 -145.5t-59 -114.5t-66.5 -90.5t-77 -60.5t-96 -38q-58 -12 -129 -12q-45 0 -87 11t-58 20l27 108q10 -8 49 -19t76 -11q118 0 188 55.5t125 195.5q-138 256 -250.5 540t-175.5 544h141q46 -204 137.5 -454.5t210.5 -489.5
q90 270 175 600q6 23 15.5 61t14.5 59t14 52t16 48.5t19 41t24 36t29.5 27.5t38 22t46.5 12t57 5q63 0 147 -30l-30 -107q-41 23 -99 23q-63 0 -91 -33.5t-48 -116.5z" />
    <glyph glyph-name="uni01B5" unicode="&#x1b5;" horiz-adv-x="1146" 
d="M1044 1419v-127q-141 -160 -376 -489h327v-113h-407q-237 -340 -359 -569h836v-121h-987v104q121 235 356 586h-260v113h338q226 324 381 495h-776v121h927z" />
    <glyph glyph-name="uni01B6" unicode="&#x1b6;" horiz-adv-x="931" 
d="M834 1059v-109q-111 -120 -269 -334h258v-108h-338q-145 -198 -254 -395h621v-113h-774v96q74 143 260 412h-201v108h279q140 191 256 330h-563v113h725z" />
    <glyph glyph-name="uni01B7" unicode="&#x1b7;" horiz-adv-x="1116" 
d="M1016 387q0 -111 -40 -192.5t-115 -130.5t-173.5 -72t-222.5 -23q-135 0 -243 30.5t-165 63.5l45 121q55 -34 151 -64t214 -30q401 0 401 297q0 74 -25 129t-67 89.5t-104 55.5t-129 29t-150 8h-14v43v45q44 44 94 99.5t103.5 118.5t89 107t88 108.5t63.5 78.5h-698v121
h868v-84q-125 -184 -446 -536q71 -5 135.5 -20.5t128 -47t109 -76.5t74 -114t28.5 -154z" />
    <glyph glyph-name="uni01B8" unicode="&#x1b8;" horiz-adv-x="1118" 
d="M100 387q0 85 28.5 154t74 114t109 76.5t128 47t135.5 20.5q-305 335 -444 536v84h866v-121h-692q78 -104 205.5 -255.5t232.5 -256.5v-88h-20q-83 0 -150 -8t-129 -29t-104 -55.5t-67 -89.5t-25 -129q0 -297 401 -297q205 0 365 96l47 -118q-179 -99 -410 -99
q-124 0 -222.5 23t-173.5 72t-115 130.5t-40 192.5z" />
    <glyph glyph-name="uni01B9" unicode="&#x1b9;" horiz-adv-x="940" 
d="M680 442v-100h-51q-63 0 -115 -6t-108.5 -25t-94.5 -50t-63 -85t-25 -127q0 -149 94.5 -228t278.5 -79q194 0 305 59l35 -114q-47 -27 -137.5 -46.5t-202.5 -19.5q-240 0 -376 109t-136 319q0 104 37 181.5t102 122t141.5 67t167.5 26.5q-101 112 -217.5 270t-181.5 267
v76h760v-113h-600q61 -95 173.5 -243t213.5 -261z" />
    <glyph glyph-name="uni01BA" unicode="&#x1ba;" horiz-adv-x="925" 
d="M428 567q216 -27 313 -96.5t97 -208.5q0 -50 -11.5 -92t-29.5 -72t-49.5 -55.5t-62 -42.5t-76.5 -33.5t-82.5 -27t-91.5 -24.5q-18 -5 -27 -7q-141 -39 -182 -59q-76 -39 -76 -109q0 -61 22 -98l-113 -25q-32 53 -32 127q0 64 29 112t76 74.5t107.5 48.5t123 35t123 34
t107.5 44.5t76 67t29 102.5q0 107 -98 154.5t-313 58.5v103q207 176 360 368h-596v113h748v-92q-160 -218 -371 -400z" />
    <glyph glyph-name="uni01BB" unicode="&#x1bb;" horiz-adv-x="1075" 
d="M901 1071q0 -92 -42.5 -176.5t-117.5 -173.5h195v-111h-303q-52 -49 -76.5 -72t-71 -69t-70 -73t-56 -68.5t-48 -72t-27.5 -66.5t-12 -68h668v-121h-819q0 2 -0.5 8t-1 16.5t-0.5 24.5q0 69 20.5 136.5t50 120t79 111.5t90 99t100.5 94h-266v111h382q84 84 131.5 166
t47.5 178q0 134 -75 199t-202 65q-182 0 -317 -135l-70 94q16 19 48 43t81 52.5t117.5 47.5t138.5 19q205 0 315.5 -99.5t110.5 -279.5z" />
    <glyph glyph-name="uni01BC" unicode="&#x1bc;" horiz-adv-x="1103" 
d="M958 1298h-561q-21 -361 -35 -440q342 -20 498 -136t156 -327q0 -197 -132.5 -311.5t-408.5 -114.5q-114 0 -225.5 27.5t-145.5 52.5l35 119q52 -29 139.5 -52.5t192.5 -23.5q149 0 234 39q163 68 163 262q0 173 -151 258.5t-492 85.5q39 329 47 561h-200v121h886v-121z
" />
    <glyph glyph-name="uni01BD" unicode="&#x1bd;" horiz-adv-x="1003" 
d="M911 299q0 -147 -113 -235.5t-341 -88.5q-102 0 -206.5 19.5t-146.5 44.5l35 119q120 -64 316 -64q77 0 135 12q182 41 182 195q0 134 -103.5 185t-367.5 51h-94l22 211q10 109 15 198h-166v113h786v-113h-502q-22 -263 -26 -299q112 0 197 -9.5t158.5 -33.5t120.5 -63
t73 -100t26 -142z" />
    <glyph glyph-name="uni01BE" unicode="&#x1be;" horiz-adv-x="919" 
d="M715 946h-422v-102q0 -66 30 -115t78 -79t106.5 -54.5t116.5 -51t106 -59.5t78 -88.5t30 -130.5q0 -141 -107.5 -216t-304.5 -75q-198 0 -322 60l35 121q12 -9 41.5 -21t99 -26.5t146.5 -14.5q73 0 143 17q131 37 131 149q0 34 -11 61t-28.5 47.5t-55.5 42.5t-75.5 39.5
t-105.5 45.5q-114 50 -155 80q-88 66 -105 194q-4 35 -4 76v524l133 25v-336h422v-113z" />
    <glyph glyph-name="uni01BF" unicode="&#x1bf;" horiz-adv-x="1159" 
d="M561 1079q234 0 360 -123.5t126 -349.5q0 -90 -21.5 -169t-58 -140.5t-92.5 -115.5t-116 -94t-138.5 -76.5t-151 -62.5t-160.5 -52v-275h-133v1374q172 84 385 84zM559 958q-135 0 -250 -47v-888q65 20 111.5 36t113.5 45.5t114 59.5t99 76t84 97.5t53 122t21 150.5
t-22 148q-34 97 -117.5 148.5t-206.5 51.5z" />
    <glyph glyph-name="uni01C0" unicode="&#x1c0;" horiz-adv-x="536" 
d="M205 -379v1983h127v-1983h-127z" />
    <glyph glyph-name="uni01C1" unicode="&#x1c1;" horiz-adv-x="913" 
d="M205 -379v1983h127v-1983h-127zM582 -379v1983h127v-1983h-127z" />
    <glyph glyph-name="uni01C2" unicode="&#x1c2;" 
d="M518 870v734h127v-734h418v-116h-418v-271h418v-116h-418v-746h-127v746h-416v116h416v271h-416v116h416z" />
    <glyph glyph-name="uni01C3" unicode="&#x1c3;" horiz-adv-x="561" 
d="M270 1479l-6 -506q-2 -227 -26 -563h-72q-24 299 -27 563l-6 506q32 16 66 16q39 0 71 -16zM301 84q0 -42 -27 -70t-71 -28t-72.5 28t-28.5 70t28.5 71t72.5 29q43 0 70.5 -29t27.5 -71z" />
    <glyph glyph-name="uni01C4" unicode="&#x1c4;" horiz-adv-x="2584" 
d="M1311 711q0 -143 -37 -260.5t-105.5 -203t-165.5 -144t-216 -87t-257 -28.5q-204 0 -346 37v1368q139 39 346 39q174 0 316 -45.5t246.5 -134t161.5 -226.5t57 -315zM324 1296v-1173q112 -14 223 -14q301 0 458.5 159.5t157.5 442.5q0 282 -157.5 441t-458.5 159
q-103 0 -223 -15zM2482 1419v-127q-164 -191 -415 -546t-400 -625h836v-121h-987v104q132 258 387 630t428 564h-777v121h928zM1812 1886l213 -196l213 196l58 -63l-271 -301l-270 301z" />
    <glyph glyph-name="uni01C5" unicode="&#x1c5;" horiz-adv-x="2369" 
d="M1311 711q0 -143 -37 -260.5t-105.5 -203t-165.5 -144t-216 -87t-257 -28.5q-204 0 -346 37v1368q139 39 346 39q174 0 316 -45.5t246.5 -134t161.5 -226.5t57 -315zM324 1296v-1173q112 -14 223 -14q301 0 458.5 159.5t157.5 442.5q0 282 -157.5 441t-458.5 159
q-103 0 -223 -15zM2271 1059v-109l-94 -112q-120 -142 -264.5 -347t-243.5 -378h621v-113h-774v96q96 183 278.5 438t314.5 412h-563v113h725zM1686 1567l212 -197l213 197l58 -64l-271 -301l-270 301z" />
    <glyph glyph-name="uni01C6" unicode="&#x1c6;" horiz-adv-x="2125" 
d="M1018 1589v-1556q-172 -58 -385 -58q-234 0 -377 149t-143 404q0 247 127.5 400t351.5 153q94 0 171.5 -26.5t121.5 -59.5v570q23 4 66.5 12t66.5 12zM885 125v741q-48 36 -122 65.5t-159 29.5q-94 0 -163.5 -34t-109.5 -95t-58.5 -136.5t-18.5 -167.5q0 -206 103 -319
t278 -113q165 0 250 29zM2028 1059v-109q-130 -151 -310.5 -394.5t-292.5 -442.5h621v-113h-774v96q96 182 278.5 437t315.5 413h-563v113h725zM1442 1567l213 -197l213 197l57 -64l-270 -301l-271 301z" />
    <glyph glyph-name="uni01C7" unicode="&#x1c7;" horiz-adv-x="2082" 
d="M324 121h667v-121h-807v1419h140v-1298zM1905 1419v-973q0 -107 -21 -190t-69 -149.5t-134 -102t-208 -35.5q-131 0 -230 39.5t-141 81.5l65 113q124 -109 291 -109q161 0 234 84.5t73 282.5v958h140z" />
    <glyph glyph-name="uni01C8" unicode="&#x1c8;" horiz-adv-x="1513" 
d="M324 121h667v-121h-807v1419h140v-1298zM1006 -383q-59 0 -107 21l19 108q36 -12 86 -12q116 0 158 63.5t42 206.5v1055h133v-1049q0 -204 -77 -298.5t-254 -94.5zM1368 1378q0 -46 -28 -74t-70 -28t-70.5 28t-28.5 74t28.5 74.5t70.5 28.5t70 -28.5t28 -74.5z" />
    <glyph glyph-name="uni01C9" unicode="&#x1c9;" horiz-adv-x="1007" 
d="M463 92l-19 -110q-139 5 -204.5 66.5t-65.5 205.5v186v1125l66 12t67 12v-950v-381q0 -92 33 -122.5t123 -43.5zM500 -383q-59 0 -107 21l19 108q36 -12 86 -12q116 0 158 63.5t42 206.5v1055h133v-1049q0 -204 -77 -298.5t-254 -94.5zM862 1378q0 -46 -28 -74t-70 -28
t-70 28t-28 74t28 74.5t70 28.5t70 -28.5t28 -74.5z" />
    <glyph glyph-name="uni01CA" unicode="&#x1ca;" horiz-adv-x="2449" 
d="M1268 0h-60h-57q-122 220 -387 603.5t-442 592.5v-598v-598h-138v1419h111q164 -184 362.5 -449.5t348.5 -498.5q48 -74 124 -207v578v577h138v-1419zM2271 1419v-973q0 -107 -21 -190t-69 -149.5t-134 -102t-208 -35.5q-131 0 -230 39.5t-141 81.5l66 113
q124 -109 291 -109q161 0 234 84.5t73 282.5v958h139z" />
    <glyph glyph-name="uni01CB" unicode="&#x1cb;" horiz-adv-x="1937" 
d="M1268 0h-60h-57q-122 220 -387 603.5t-442 592.5v-598v-598h-138v1419h111q164 -184 362.5 -449.5t348.5 -498.5q48 -74 124 -207v578v577h138v-1419zM1430 -383q-59 0 -107 21l18 108q36 -12 86 -12q116 0 158.5 63.5t42.5 206.5v1055h133v-1049q0 -204 -77 -298.5
t-254 -94.5zM1792 1378q0 -46 -28 -74t-70 -28t-70.5 28t-28.5 74t28.5 74.5t70.5 28.5t70 -28.5t28 -74.5z" />
    <glyph glyph-name="uni01CC" unicode="&#x1cc;" horiz-adv-x="1650" 
d="M176 0v1022q198 57 406 57q118 0 201 -34.5t130 -101t67.5 -152t20.5 -199.5v-592h-133v549q0 228 -67 318.5t-240 90.5q-84 0 -155.5 -9.5t-96.5 -18.5v-930h-133zM1143 -383q-59 0 -107 21l19 108q36 -12 86 -12q116 0 158 63.5t42 206.5v1055h134v-1049
q0 -204 -77.5 -298.5t-254.5 -94.5zM1505 1378q0 -46 -28 -74t-70 -28t-70 28t-28 74t28 74.5t70 28.5t70 -28.5t28 -74.5z" />
    <glyph glyph-name="uni01CD" unicode="&#x1cd;" horiz-adv-x="485" 
d="M309 1059v-1059h-133v1059h133zM29 1567l213 -197l213 197l57 -64l-270 -301l-271 301z" />
    <glyph glyph-name="uni01CE" unicode="&#x1ce;" horiz-adv-x="1042" 
d="M850 41q-54 -26 -152.5 -43.5t-210.5 -17.5q-186 0 -287.5 82t-101.5 239q0 168 120.5 256.5t328.5 106.5q51 2 67 2t66 -3.5t51 -3.5q0 87 -10 145t-37 106t-80 71t-135 23q-152 0 -256 -58l-25 94q45 25 122.5 44.5t168.5 19.5q176 0 273.5 -93.5t97.5 -271.5v-116
v-582zM731 102v465q-103 8 -192 2q-71 -9 -123.5 -25t-99 -45.5t-71 -79t-24.5 -118.5q0 -229 285 -229q133 0 225 30zM299 1597l213 -196l213 196l57 -63l-270 -301l-270 301z" />
    <glyph glyph-name="uni01CF" unicode="&#x1cf;" horiz-adv-x="507" 
d="M309 0h-129v1413h129v-1413zM29 1915l213 -197l213 197l57 -64l-270 -301l-271 301z" />
    <glyph glyph-name="uni01D0" unicode="&#x1d0;" horiz-adv-x="485" 
d="M309 1059v-1059h-133v1059h133zM29 1567l213 -197l213 197l57 -64l-270 -301l-271 301z" />
    <glyph glyph-name="uni01D1" unicode="&#x1d1;" horiz-adv-x="1400" 
d="M1278 707q0 -335 -156 -533.5t-422 -198.5t-421.5 198t-155.5 534q0 334 155.5 533.5t421.5 199.5t422 -199.5t156 -533.5zM1145 709q0 132 -27 244.5t-80 199t-139.5 135.5t-198.5 49q-90 0 -164 -32t-125.5 -89t-86.5 -136.5t-51.5 -172.5t-16.5 -198t16 -197.5
t51 -172.5t86 -137t125.5 -89.5t165.5 -32.5q114 0 201 49.5t139.5 136.5t78.5 199t26 244zM487 1915l213 -197l213 197l58 -64l-271 -301l-270 301z" />
    <glyph glyph-name="uni01D2" unicode="&#x1d2;" horiz-adv-x="1191" 
d="M999 539q0 -252 -116.5 -407t-325.5 -155q-210 0 -327 154.5t-117 407.5q0 255 116.5 410t325.5 155q211 0 327.5 -155t116.5 -410zM872 539q0 96 -18 178.5t-54 148.5t-98.5 104t-144.5 38q-83 0 -146 -38t-100 -104t-55 -148.5t-18 -178.5q0 -97 18.5 -178t55.5 -145.5
t100 -101t145 -36.5t144.5 36.5t99 101t54 145.5t17.5 178zM344 1567l213 -197l213 197l57 -64l-270 -301l-270 301z" />
    <glyph glyph-name="uni01D3" unicode="&#x1d3;" horiz-adv-x="1392" 
d="M1106 461q0 -103 -28.5 -190t-84 -154.5t-146.5 -105.5t-208 -38q-203 0 -320 110.5t-137 287.5q-8 81 -8 190v852h127v-842q0 -242 80 -365.5t262 -123.5q127 0 217.5 75.5t110.5 211.5q12 89 12 202v842h123v-952zM438 1915l213 -197l213 197l58 -64l-271 -301
l-270 301z" />
    <glyph glyph-name="uni01D4" unicode="&#x1d4;" 
d="M928 51q-169 -71 -379 -71q-97 0 -167.5 25t-113 66t-67 106.5t-33 133.5t-8.5 160v610h123v-585q0 -86 6 -145.5t23.5 -114t48.5 -87t82 -51t122 -18.5q167 0 240 41v960h123v-1030zM352 1567l213 -197l213 197l58 -64l-271 -301l-270 301z" />
    <glyph glyph-name="uni01D5" unicode="&#x1d5;" horiz-adv-x="1392" 
d="M696 -31q-138 0 -240 42.5t-161.5 119.5t-88 175t-28.5 220v893h139v-874q0 -226 101 -338.5t278 -112.5t278 112.5t101 338.5v874h139v-893q0 -121 -28.5 -219t-88 -175.5t-161.5 -120t-240 -42.5zM440 1841v111h514v-111h-514zM588 1634q0 -44 -26 -71t-68 -27
t-68.5 27t-26.5 71q0 43 26.5 71t68.5 28q41 0 67.5 -27.5t26.5 -71.5zM995 1634q0 -44 -26 -71t-68 -27t-68 27t-26 71q0 43 26 71t68 28q41 0 68 -27q26 -26 26 -72z" />
    <glyph glyph-name="uni01D6" unicode="&#x1d6;" 
d="M928 51q-169 -71 -379 -71q-97 0 -167.5 25t-113 66t-67 106.5t-33 133.5t-8.5 160v610h123v-585q0 -86 6 -145.5t23.5 -114t48.5 -87t82 -51t122 -18.5q167 0 240 41v960h123v-1030zM272 1497v111h514v-111h-514zM420 1290q0 -44 -26 -71t-68 -27t-68.5 27t-26.5 71
q0 43 26.5 71t68.5 28q41 0 67.5 -27.5t26.5 -71.5zM827 1290q0 -44 -26 -71t-68 -27t-68 27t-26 71q0 43 26 71t68 28q41 0 68 -27q26 -26 26 -72z" />
    <glyph glyph-name="uni01D7" unicode="&#x1d7;" horiz-adv-x="1392" 
d="M1106 461q0 -103 -28.5 -190t-84 -154.5t-146.5 -105.5t-208 -38q-203 0 -320 110.5t-137 287.5q-8 81 -8 190v852h127v-842q0 -242 80 -365.5t262 -123.5q127 0 217.5 75.5t110.5 211.5q12 89 12 202v842h123v-952zM549 1608l229 354l117 -80l-264 -334zM506 1647
q0 -44 -26.5 -71.5t-67.5 -27.5q-42 0 -68.5 27.5t-26.5 71.5t26.5 71t68.5 27t68 -27t26 -71zM1010 1647q0 -44 -26.5 -71.5t-68.5 -27.5q-41 0 -67.5 27.5t-26.5 71.5t26 71t68 27t68.5 -27t26.5 -71z" />
    <glyph glyph-name="uni01D8" unicode="&#x1d8;" horiz-adv-x="978" 
d="M870 51q-169 -71 -378 -71q-97 0 -168 25t-113 66t-67 106.5t-33.5 133.5t-8.5 160v610h123v-585q0 -85 6 -145t24 -114.5t49 -87t81.5 -51t122.5 -18.5q167 0 240 41v960h122v-1030zM354 1227l230 354l116 -80l-264 -334zM311 1266q0 -44 -26.5 -71.5t-67.5 -27.5
t-67.5 27.5t-26.5 71.5t26 71t68 27t68 -27t26 -71zM815 1266q0 -44 -26.5 -71.5t-67.5 -27.5t-67.5 27.5t-26.5 71.5t26 71t68 27t68 -27t26 -71z" />
    <glyph glyph-name="uni01D9" unicode="&#x1d9;" horiz-adv-x="1136" 
d="M1034 461q0 -103 -28.5 -190t-84 -154.5t-146.5 -105.5t-208 -38q-203 0 -319.5 110.5t-136.5 287.5q-9 91 -9 190v852h127v-842q0 -242 80 -365.5t262 -123.5q127 0 217.5 75.5t110.5 211.5q12 89 12 202v842h123v-952zM352 2001l213 -197l213 197l58 -64l-271 -301
l-270 301zM475 1626q0 -44 -26 -71t-68 -27t-68 27t-26 71t26 71t68 27t68 -27t26 -71zM827 1626q0 -44 -26 -71t-68 -27t-68 27t-26 71t26 71t68 27t68 -27t26 -71z" />
    <glyph glyph-name="uni01DA" unicode="&#x1da;" 
d="M870 51q-169 -71 -378 -71q-97 0 -168 25t-113 66t-67 106.5t-33.5 133.5t-8.5 160v610h123v-585q0 -85 6 -145t24 -114.5t49 -87t81.5 -51t122.5 -18.5q167 0 240 41v960h122v-1030zM270 1753l213 -197l213 197l58 -63l-271 -301l-270 301zM393 1378q0 -44 -26 -71
t-68 -27t-68 27t-26 71t26.5 71.5t67.5 27.5t67.5 -27.5t26.5 -71.5zM745 1378q0 -44 -26 -71t-68 -27t-68 27t-26 71t26.5 71.5t67.5 27.5t67.5 -27.5t26.5 -71.5z" />
    <glyph glyph-name="uni01DB" unicode="&#x1db;" horiz-adv-x="1392" 
d="M1106 461q0 -103 -28.5 -190t-84 -154.5t-146.5 -105.5t-208 -38q-203 0 -320 110.5t-137 287.5q-8 81 -8 190v852h127v-842q0 -242 80 -365.5t262 -123.5q127 0 217.5 75.5t110.5 211.5q12 89 12 202v842h123v-952zM524 1597q0 -42 -27 -70t-71 -28t-72 28t-28 70
t28.5 71.5t71.5 29.5t70.5 -29.5t27.5 -71.5zM952 1597q0 -42 -27 -70t-71 -28t-72 28t-28 70t28.5 71.5t71.5 29.5t70.5 -29.5t27.5 -71.5zM483 2015l230 -354l-82 -59l-264 333z" />
    <glyph glyph-name="uni01DC" unicode="&#x1dc;" horiz-adv-x="972" 
d="M870 51q-169 -71 -378 -71q-97 0 -168 25t-113 66t-67 106.5t-33.5 133.5t-8.5 160v610h123v-585q0 -85 6 -145t24 -114.5t49 -87t81.5 -51t122.5 -18.5q167 0 240 41v960h122v-1030zM362 1315q0 -42 -27 -70t-71 -28t-72 28t-28 70t28 71t72 29q43 0 70.5 -29t27.5 -71z
M791 1315q0 -42 -27.5 -70t-71.5 -28t-72 28t-28 70t28 71t72 29q43 0 71 -29t28 -71zM322 1733l229 -355l-82 -59l-264 334z" />
    <glyph glyph-name="uni01DD" unicode="&#x1dd;" horiz-adv-x="1122" 
d="M1010 530q0 -134 -39.5 -242t-105 -174.5t-147.5 -101.5t-171 -35q-200 0 -313 130.5t-113 388.5q0 43 4 63h743q-9 323 -243 387q-70 17 -140 17q-143 0 -264 -56l-24 115q37 22 117 41.5t175 19.5q136 0 237.5 -40.5t162.5 -115.5t91 -174t30 -223zM864 446h-606
q5 -167 79 -258.5t208 -91.5q136 0 223.5 102t95.5 248z" />
    <glyph glyph-name="uni01DE" unicode="&#x1de;" horiz-adv-x="1312" 
d="M1204 0h-69h-68l-100 293l-49 141h-603q-82 -222 -151 -434h-127q124 345 187.5 520.5t160 430t182.5 462.5h107q64 -156 135.5 -343t121 -321.5t137.5 -376t136 -372.5zM885 532q-84 241 -201 560q-17 45 -37.5 107t-28.5 79q-9 -12 -28 -72q-40 -121 -125.5 -353.5
t-116.5 -320.5h537zM358 1841v111h514v-111h-514zM506 1634q0 -44 -26 -71t-68 -27t-68.5 27t-26.5 71q0 43 26.5 71t68.5 28q41 0 67.5 -27.5t26.5 -71.5zM913 1634q0 -44 -26 -71t-68 -27t-68 27t-26 71q0 43 26 71t68 28q40 0 67 -28t27 -71z" />
    <glyph glyph-name="uni01DF" unicode="&#x1df;" horiz-adv-x="1042" 
d="M850 41q-54 -26 -152.5 -43.5t-210.5 -17.5q-186 0 -287.5 82t-101.5 239q0 168 120.5 256.5t328.5 106.5q51 2 67 2t66 -3.5t51 -3.5q0 87 -10 145t-37 106t-80 71t-135 23q-152 0 -256 -58l-25 94q45 25 122.5 44.5t168.5 19.5q176 0 273.5 -93.5t97.5 -271.5v-116
v-582zM731 102v465q-103 8 -192 2q-71 -9 -123.5 -25t-99 -45.5t-71 -79t-24.5 -118.5q0 -229 285 -229q133 0 225 30zM231 1497v111h514v-111h-514zM379 1290q0 -44 -26 -71t-68 -27t-68.5 27t-26.5 71q0 43 26.5 71t68.5 28q41 0 67.5 -27.5t26.5 -71.5zM786 1290
q0 -44 -26 -71t-68 -27t-68 27t-26 71q0 43 26 71t68 28q40 0 67 -28t27 -71z" />
    <glyph glyph-name="uni01E0" unicode="&#x1e0;" horiz-adv-x="1312" 
d="M1204 0h-69h-68l-100 293l-49 141h-603q-82 -222 -151 -434h-127q124 345 187.5 520.5t160 430t182.5 462.5h107q64 -156 135.5 -343t121 -321.5t137.5 -376t136 -372.5zM885 532q-84 241 -201 560q-17 45 -37.5 107t-28.5 79q-9 -12 -28 -72q-40 -121 -125.5 -353.5
t-116.5 -320.5h537zM365 1839v111h514v-111h-514zM717 1632q0 -44 -26 -71t-68 -27t-68.5 27t-26.5 71t26.5 71.5t68.5 27.5q41 0 67.5 -27.5t26.5 -71.5z" />
    <glyph glyph-name="uni01E1" unicode="&#x1e1;" horiz-adv-x="1042" 
d="M850 41q-54 -26 -152.5 -43.5t-210.5 -17.5q-186 0 -287.5 82t-101.5 239q0 168 120.5 256.5t328.5 106.5q51 2 67 2t66 -3.5t51 -3.5q0 87 -10 145t-37 106t-80 71t-135 23q-152 0 -256 -58l-25 94q45 25 122.5 44.5t168.5 19.5q176 0 273.5 -93.5t97.5 -271.5v-116
v-582zM731 102v465q-103 8 -192 2q-71 -9 -123.5 -25t-99 -45.5t-71 -79t-24.5 -118.5q0 -229 285 -229q133 0 225 30zM209 1522v110h514v-110h-514zM561 1315q0 -44 -26 -71t-68 -27t-68 27t-26 71t26 71t68 27t68 -27t26 -71z" />
    <glyph glyph-name="uni01E2" unicode="&#x1e2;" horiz-adv-x="1873" 
d="M1794 0h-844v389h-588q-120 -219 -206 -389h-144q206 409 416.5 744.5t458.5 674.5h854v-121h-651v-493h577v-119h-577v-565h704v-121zM950 508v797q-265 -368 -397 -590l-123 -207h520zM1421 1649h-542v112h542v-112z" />
    <glyph glyph-name="uni01E3" unicode="&#x1e3;" horiz-adv-x="1748" 
d="M885 614h606q-5 167 -79 259t-208 92q-136 0 -223.5 -102.5t-95.5 -248.5zM516 -23q-92 0 -166.5 19t-132 57.5t-88.5 103.5t-31 152q0 111 58.5 185.5t156 107.5t230.5 33q52 0 118.5 -11t83.5 -20v9q0 36 -0.5 55t-2.5 53.5t-6 54.5t-13 49.5t-21.5 46.5t-31.5 37
t-44 30.5t-59 18t-75 7.5q-158 0 -261 -41l-16 114q92 45 283 45q270 0 346 -200q101 148 258 188q50 12 100 12q201 0 313.5 -130t112.5 -388q0 -27 -4 -63h-743q6 -200 98.5 -302t284.5 -102q143 0 264 56l24 -115q-37 -22 -117 -42t-175 -20q-50 0 -111 7
q-157 21 -254 116q-148 -123 -379 -123zM748 487q-73 33 -209 33q-303 0 -303 -211q0 -213 280 -213q198 0 303 94q-68 114 -71 297zM1126 1329h-542v113h542v-113z" />
    <glyph glyph-name="uni01E4" unicode="&#x1e4;" horiz-adv-x="1413" 
d="M1069 127v295h-238v110h238v191h139v-191h164v-110h-164v-383q-52 -24 -168.5 -46t-263.5 -22q-140 0 -258 49.5t-205.5 142t-136.5 233.5t-49 315q0 173 53 315t144.5 233.5t212 141t258.5 49.5q142 0 245.5 -29.5t163.5 -68.5l-47 -119q-58 42 -156.5 67t-212.5 25
q-109 0 -202 -40t-162.5 -115.5t-109.5 -193.5t-40 -265q0 -288 135 -452.5t390 -164.5q95 0 168 10.5t102 22.5z" />
    <glyph glyph-name="uni01E5" unicode="&#x1e5;" horiz-adv-x="1202" 
d="M866 53v70q-33 -29 -108 -56.5t-174 -27.5q-76 0 -144 17.5t-128.5 57.5t-104 98.5t-69 145.5t-25.5 195q0 230 136 378t365 148q210 0 383 -57v-408h170v-108h-170v-338v-113q0 -234 -120.5 -337t-372.5 -103q-177 0 -328 51l27 121q51 -24 135.5 -39.5t169.5 -15.5
q191 0 274.5 73t83.5 248zM864 248v258h-252v108h252v316q-94 28 -248 28q-168 0 -265 -112t-97 -295q0 -101 28 -179t76 -122.5t105 -67t121 -22.5q86 0 161 25t119 63z" />
    <glyph glyph-name="Gcaron" unicode="&#x1e6;" horiz-adv-x="1347" 
d="M1116 47q-132 -72 -385 -72q-98 0 -187 28.5t-166 88.5t-133.5 146t-89 207.5t-32.5 267.5q0 175 50.5 316t136.5 229.5t196 135t233 46.5q228 0 359 -84l-41 -96q-49 33 -132.5 54t-183.5 21q-222 0 -352.5 -162.5t-130.5 -470.5q0 -292 132 -459t355 -167q166 0 242 37
v499h-137v109h266v-674zM500 1915l213 -197l213 197l57 -64l-270 -301l-271 301z" />
    <glyph glyph-name="gcaron" unicode="&#x1e7;" horiz-adv-x="1173" 
d="M936 12q0 -216 -111.5 -325t-330.5 -109q-187 0 -318 62q3 11 35 98q47 -25 123.5 -42.5t152.5 -17.5q171 0 252 84q78 81 78 240v78q-38 -27 -106 -48.5t-152 -21.5q-199 0 -322.5 138.5t-123.5 394.5q0 249 128.5 404t356.5 155q197 0 338 -66v-1024zM817 178v795
q-78 33 -217 33q-175 0 -268.5 -126t-93.5 -337q0 -213 90 -325t245 -112q146 0 244 72zM385 1567l213 -197l213 197l57 -64l-270 -301l-270 301z" />
    <glyph glyph-name="uni01E8" unicode="&#x1e8;" horiz-adv-x="1226" 
d="M1075 0h-74h-71q-134 198 -298.5 388.5t-324.5 334.5v-723h-127v1413h127v-661q446 486 588 661h145q-178 -207 -600 -663q164 -153 343 -363.5t292 -386.5zM346 1894l213 -196l213 196l57 -63l-270 -301l-270 301z" />
    <glyph glyph-name="uni01E9" unicode="&#x1e9;" horiz-adv-x="1013" 
d="M928 0h-144q-211 302 -491 553v-553h-121v1597h121v-1017q258 274 450 501h142q-82 -92 -268 -293t-197 -213q127 -117 266 -273.5t242 -301.5zM449 1567l213 -197l212 197l58 -64l-270 -301l-271 301z" />
    <glyph glyph-name="uni01EA" unicode="&#x1ea;" horiz-adv-x="1585" 
d="M1311 711q0 286 -140 450t-378 164t-378.5 -164.5t-140.5 -449.5t141 -451t378 -166t377.5 166t140.5 451zM793 -31q-109 0 -207.5 30t-182.5 91.5t-145.5 148.5t-96 208t-34.5 264q0 142 34.5 262.5t96 207.5t145.5 148t182.5 91t207.5 30t207.5 -30t182 -91t145 -148
t96 -207.5t34.5 -262.5q0 -249 -100.5 -423.5t-270.5 -254.5q-88 -42 -161.5 -109.5t-73.5 -130.5q0 -69 86 -69q44 0 78 12l10 -98q-55 -19 -111 -19q-200 0 -200 143q0 104 121 209q-16 -2 -43 -2z" />
    <glyph glyph-name="uni01EB" unicode="&#x1eb;" horiz-adv-x="1191" 
d="M838 39q-46 -28 -76 -49t-71.5 -55t-63 -70t-21.5 -72q0 -69 86 -69q44 0 78 12l10 -98q-55 -19 -110 -19q-201 0 -201 143q0 38 16 78q24 59 111 135q-214 0 -348.5 152t-134.5 401t134.5 402t348.5 153t348.5 -153t134.5 -402q0 -168 -64 -295t-177 -194zM938 528
q0 199 -92 317t-250 118t-250 -118t-92 -317q0 -198 92 -315t250 -117t250 117t92 315z" />
    <glyph glyph-name="uni01EC" unicode="&#x1ec;" horiz-adv-x="1585" 
d="M1311 711q0 286 -140 450t-378 164t-378.5 -164.5t-140.5 -449.5t141 -451t378 -166t377.5 166t140.5 451zM793 -31q-109 0 -207.5 30t-182.5 91.5t-145.5 148.5t-96 208t-34.5 264q0 142 34.5 262.5t96 207.5t145.5 148t182.5 91t207.5 30t207.5 -30t182 -91t145 -148
t96 -207.5t34.5 -262.5q0 -249 -100.5 -423.5t-270.5 -254.5q-88 -42 -161.5 -109.5t-73.5 -130.5q0 -69 86 -69q44 0 78 12l10 -98q-55 -19 -111 -19q-200 0 -200 143q0 104 121 209q-16 -2 -43 -2zM1065 1649h-543v112h543v-112z" />
    <glyph glyph-name="uni01ED" unicode="&#x1ed;" horiz-adv-x="1191" 
d="M838 39q-46 -28 -76 -49t-71.5 -55t-63 -70t-21.5 -72q0 -69 86 -69q44 0 78 12l10 -98q-55 -19 -110 -19q-201 0 -201 143q0 38 16 78q24 59 111 135q-214 0 -348.5 152t-134.5 401t134.5 402t348.5 153t348.5 -153t134.5 -402q0 -168 -64 -295t-177 -194zM938 528
q0 199 -92 317t-250 118t-250 -118t-92 -317q0 -198 92 -315t250 -117t250 117t92 315zM868 1329h-542v113h542v-113z" />
    <glyph glyph-name="uni01EE" unicode="&#x1ee;" horiz-adv-x="1116" 
d="M1016 387q0 -111 -40 -192.5t-115 -130.5t-173.5 -72t-222.5 -23q-135 0 -243 30.5t-165 63.5l45 121q55 -34 151 -64t214 -30q401 0 401 297q0 74 -25 129t-67 89.5t-104 55.5t-129 29t-150 8h-14v43v45q44 44 94 99.5t103.5 118.5t89 107t88 108.5t63.5 78.5h-698v121
h868v-84q-125 -184 -446 -536q71 -5 135.5 -20.5t128 -47t109 -76.5t74 -114t28.5 -154zM336 1886l213 -196l213 196l57 -63l-270 -301l-270 301z" />
    <glyph glyph-name="uni01EF" unicode="&#x1ef;" horiz-adv-x="929" 
d="M256 342v49v51q101 113 213.5 261t173.5 243h-600v113h760v-76q-68 -109 -184 -266t-216 -271q91 -4 167.5 -26.5t142 -67t102.5 -122t37 -181.5q0 -210 -136 -319t-376 -109q-112 0 -202.5 19.5t-137.5 46.5l35 114q111 -59 305 -59q183 0 278 78.5t95 228.5
q0 73 -25 127t-63 85t-94.5 50t-108.5 25t-115 6h-51zM199 1567l213 -197l213 197l57 -64l-270 -301l-271 301z" />
    <glyph glyph-name="uni01F0" unicode="&#x1f0;" horiz-adv-x="485" 
d="M-23 -383q-58 0 -106 21l18 108q36 -12 86 -12q116 0 158.5 63.5t42.5 206.5v1055h133v-1049q0 -204 -77.5 -298.5t-254.5 -94.5zM31 1567l213 -197l213 197l57 -64l-270 -301l-271 301z" />
    <glyph glyph-name="uni01F1" unicode="&#x1f1;" horiz-adv-x="2584" 
d="M1311 711q0 -143 -37 -260.5t-105.5 -203t-165.5 -144t-216 -87t-257 -28.5q-204 0 -346 37v1368q139 39 346 39q174 0 316 -45.5t246.5 -134t161.5 -226.5t57 -315zM324 1296v-1173q112 -14 223 -14q301 0 458.5 159.5t157.5 442.5q0 282 -157.5 441t-458.5 159
q-103 0 -223 -15zM2482 1419v-127q-164 -191 -415 -546t-400 -625h836v-121h-987v104q132 258 387 630t428 564h-777v121h928z" />
    <glyph glyph-name="uni01F2" unicode="&#x1f2;" horiz-adv-x="2369" 
d="M1311 711q0 -143 -37 -260.5t-105.5 -203t-165.5 -144t-216 -87t-257 -28.5q-204 0 -346 37v1368q139 39 346 39q174 0 316 -45.5t246.5 -134t161.5 -226.5t57 -315zM324 1296v-1173q112 -14 223 -14q301 0 458.5 159.5t157.5 442.5q0 282 -157.5 441t-458.5 159
q-103 0 -223 -15zM2271 1059v-109l-94 -112q-120 -142 -264.5 -347t-243.5 -378h621v-113h-774v96q96 183 278.5 438t314.5 412h-563v113h725z" />
    <glyph glyph-name="uni01F3" unicode="&#x1f3;" horiz-adv-x="2125" 
d="M1018 1589v-1556q-172 -58 -385 -58q-234 0 -377 149t-143 404q0 247 127.5 400t351.5 153q94 0 171.5 -26.5t121.5 -59.5v570q23 4 66.5 12t66.5 12zM885 125v741q-48 36 -122 65.5t-159 29.5q-94 0 -163.5 -34t-109.5 -95t-58.5 -136.5t-18.5 -167.5q0 -206 103 -319
t278 -113q165 0 250 29zM2028 1059v-109q-130 -151 -310.5 -394.5t-292.5 -442.5h621v-113h-774v96q96 182 278.5 437t315.5 413h-563v113h725z" />
    <glyph glyph-name="uni01F4" unicode="&#x1f4;" horiz-adv-x="1347" 
d="M1116 47q-132 -72 -385 -72q-98 0 -187 28.5t-166 88.5t-133.5 146t-89 207.5t-32.5 267.5q0 175 50.5 316t136.5 229.5t196 135t233 46.5q228 0 359 -84l-41 -96q-49 33 -132.5 54t-183.5 21q-222 0 -352.5 -162.5t-130.5 -470.5q0 -292 132 -459t355 -167q166 0 242 37
v499h-137v109h266v-674zM748 1571h-64l178 360h174z" />
    <glyph glyph-name="uni01F5" unicode="&#x1f5;" horiz-adv-x="1173" 
d="M936 12q0 -216 -111.5 -325t-330.5 -109q-187 0 -318 62q3 11 35 98q47 -25 123.5 -42.5t152.5 -17.5q171 0 252 84q78 81 78 240v78q-38 -27 -106 -48.5t-152 -21.5q-199 0 -322.5 138.5t-123.5 394.5q0 249 128.5 404t356.5 155q197 0 338 -66v-1024zM817 178v795
q-78 33 -217 33q-175 0 -268.5 -126t-93.5 -337q0 -213 90 -325t245 -112q146 0 244 72zM633 1223h-64l179 360h174z" />
    <glyph glyph-name="uni01F6" unicode="&#x1f6;" horiz-adv-x="2144" 
d="M1841 526v525h139v-557q0 -94 -12.5 -169.5t-44 -143t-81.5 -113t-128.5 -71.5t-181.5 -26t-181.5 26t-129 71.5t-82 113t-44 143t-12.5 169.5v188h-759v-682h-140v1419h140v-616h759v616h140v-893q0 -228 71.5 -329t237.5 -101t237.5 101t71.5 329z" />
    <glyph glyph-name="uni01F7" unicode="&#x1f7;" horiz-adv-x="1290" 
d="M324 2v-381h-140v1712q258 99 428 99q277 0 422.5 -131t145.5 -386q0 -143 -44 -265t-117.5 -213.5t-187 -173.5t-232.5 -141.5t-275 -119.5zM324 1249v-1112q71 30 120.5 52.5t114.5 55.5t110 61.5t98.5 68.5t89 80t71.5 92t57 108t34 124.5t13 144.5q0 194 -107 290.5
t-311 96.5q-158 0 -290 -62z" />
    <glyph glyph-name="uni01F8" unicode="&#x1f8;" horiz-adv-x="1452" 
d="M1208 0h-59h-59q-212 373 -705 1116q-18 26 -40.5 65t-35.5 60t-18 21q0 -33 2 -234t2 -305v-723h-119v1413h131q401 -566 711 -1083q15 -26 33 -60t28 -51t15 -22q0 68 -2 319t-2 371v526h118v-1413zM735 1524h-63l-289 360h174z" />
    <glyph glyph-name="uni01F9" unicode="&#x1f9;" 
d="M944 0h-121v596q0 57 -1.5 93t-7 84t-17 77.5t-32.5 62t-51 50t-74.5 29.5t-102.5 12q-151 0 -248 -37v-967h-123v1034q158 68 389 68q77 0 138 -16.5t101.5 -41.5t69.5 -66t44 -79t23.5 -92.5t10.5 -94t2 -94.5v-618zM555 1176h-63l-289 360h174z" />
    <glyph glyph-name="Aringacute" unicode="&#x1fa;" horiz-adv-x="1312" 
d="M1204 0h-137q-117 340 -149 434h-603q-82 -222 -151 -434h-127q124 345 187.5 520.5t160 430t182.5 462.5h107q64 -156 135.5 -343t121 -321.5t137.5 -376t136 -372.5zM885 532q-84 241 -201 560q-17 45 -37.5 107t-28.5 79q-9 -12 -28 -72q-40 -121 -125.5 -353.5
t-116.5 -320.5h537zM827 1645q0 -87 -56 -142t-138 -55t-139.5 54.5t-57.5 142.5q0 86 57.5 140t139.5 54q81 0 137.5 -54.5t56.5 -139.5zM750 1645q0 56 -33 88t-84 32t-84 -32t-33 -88q0 -58 32.5 -89.5t84.5 -31.5t84.5 31.5t32.5 89.5zM764 2220l94 -104l-350 -285
l-68 78z" />
    <glyph glyph-name="aringacute" unicode="&#x1fb;" horiz-adv-x="1042" 
d="M850 41q-54 -26 -152.5 -43.5t-210.5 -17.5q-186 0 -287.5 82t-101.5 239q0 168 120.5 256.5t328.5 106.5q51 2 67 2t66 -3.5t51 -3.5q0 87 -10 145t-37 106t-80 71t-135 23q-152 0 -256 -58l-25 94q45 25 122.5 44.5t168.5 19.5q176 0 273.5 -93.5t97.5 -271.5v-116
v-582zM731 102v465q-103 8 -192 2q-71 -9 -123.5 -25t-99 -45.5t-71 -79t-24.5 -118.5q0 -229 285 -229q133 0 225 30zM672 1384q0 -87 -56.5 -141.5t-138.5 -54.5t-139 54t-57 142q0 86 57 140.5t139 54.5q81 0 138 -55t57 -140zM594 1384q0 56 -33 88.5t-84 32.5
t-84 -32.5t-33 -88.5q0 -58 32.5 -89t84.5 -31t84.5 31t32.5 89zM608 1960l94 -105l-350 -284l-67 78z" />
    <glyph glyph-name="AEacute" unicode="&#x1fc;" horiz-adv-x="1873" 
d="M1794 0h-844v389h-588q-120 -219 -206 -389h-144q206 409 416.5 744.5t458.5 674.5h854v-121h-651v-493h577v-119h-577v-565h704v-121zM950 508v797q-265 -368 -397 -590l-123 -207h520zM1339 1903l95 -105l-351 -285l-67 78z" />
    <glyph glyph-name="aeacute" unicode="&#x1fd;" horiz-adv-x="1748" 
d="M885 614h606q-5 167 -79 259t-208 92q-136 0 -223.5 -102.5t-95.5 -248.5zM516 -23q-92 0 -166.5 19t-132 57.5t-88.5 103.5t-31 152q0 111 58.5 185.5t156 107.5t230.5 33q52 0 118.5 -11t83.5 -20v9q0 36 -0.5 55t-2.5 53.5t-6 54.5t-13 49.5t-21.5 46.5t-31.5 37
t-44 30.5t-59 18t-75 7.5q-158 0 -261 -41l-16 114q92 45 283 45q270 0 346 -200q101 148 258 188q50 12 100 12q201 0 313.5 -130t112.5 -388q0 -27 -4 -63h-743q6 -200 98.5 -302t284.5 -102q143 0 264 56l24 -115q-37 -22 -117 -42t-175 -20q-50 0 -111 7
q-157 21 -254 116q-148 -123 -379 -123zM748 487q-73 33 -209 33q-303 0 -303 -211q0 -213 280 -213q198 0 303 94q-68 114 -71 297zM1042 1583l95 -104l-351 -285l-67 78z" />
    <glyph glyph-name="Oslashacute" unicode="&#x1fe;" horiz-adv-x="1585" 
d="M1458 711q0 -143 -34.5 -264t-96 -208t-145 -148.5t-182 -91.5t-207.5 -30q-225 0 -396 125l-125 -164l-98 74l133 172q-180 193 -180 535q0 142 34.5 262.5t96 207.5t145.5 148t182.5 91t207.5 30q230 0 399 -129l131 170l98 -74l-139 -180q176 -199 176 -526zM274 711
q0 -261 119 -424q120 155 359.5 465t359.5 465q-132 108 -319 108q-238 0 -378.5 -164.5t-140.5 -449.5zM1311 711q0 253 -115 415l-719 -929q127 -103 316 -103q237 0 377.5 166t140.5 451zM981 1903l94 -105l-350 -285l-68 78z" />
    <glyph glyph-name="oslashacute" unicode="&#x1ff;" horiz-adv-x="1191" 
d="M1079 528q0 -249 -134.5 -401t-348.5 -152q-163 0 -285 93l-104 -138l-88 66l114 147q-120 144 -120 385q0 249 134.5 402t348.5 153q167 0 289 -98q18 22 52 68t52 69l86 -63l-114 -150q118 -149 118 -381zM254 528q0 -166 63 -274l490 631q-88 78 -211 78
q-158 0 -250 -118t-92 -317zM938 528q0 161 -64 271l-485 -631q84 -72 207 -72q158 0 250 117t92 315zM784 1583l95 -104l-351 -285l-67 78z" />
    <glyph glyph-name="uni0200" unicode="&#x200;" horiz-adv-x="1312" 
d="M1292 0h-78h-75q-95 245 -142 389h-690q-50 -131 -141 -389h-146q193 522 314.5 827t259.5 592h123q42 -88 81 -173t84 -194.5t72 -174t83 -209t75.5 -195.5t90 -237t89.5 -236zM651 1260q-148 -339 -301 -752h604q-142 376 -303 752zM547 1817l94 86l244 -332l-80 -60z
M225 1817l94 86l244 -332l-80 -60z" />
    <glyph glyph-name="uni0201" unicode="&#x201;" horiz-adv-x="1042" 
d="M850 41q-54 -26 -152.5 -43.5t-210.5 -17.5q-186 0 -287.5 82t-101.5 239q0 168 120.5 256.5t328.5 106.5q51 2 67 2t66 -3.5t51 -3.5q0 87 -10 145t-37 106t-80 71t-135 23q-152 0 -256 -58l-25 94q45 25 122.5 44.5t168.5 19.5q176 0 273.5 -93.5t97.5 -271.5v-116
v-582zM731 102v465q-103 8 -192 2q-71 -9 -123.5 -25t-99 -45.5t-71 -79t-24.5 -118.5q0 -229 285 -229q133 0 225 30zM377 1501l94 86l244 -332l-80 -59zM55 1501l95 86l243 -332l-80 -59z" />
    <glyph glyph-name="uni0202" unicode="&#x202;" horiz-adv-x="1312" 
d="M1292 0h-78h-75q-95 245 -142 389h-690q-50 -131 -141 -389h-146q193 522 314.5 827t259.5 592h123q42 -88 81 -173t84 -194.5t72 -174t83 -209t75.5 -195.5t90 -237t89.5 -236zM651 1260q-148 -339 -301 -752h604q-142 376 -303 752zM655 1847q110 0 180 -68.5
t70 -203.5h-88q0 20 -5.5 42t-20.5 50.5t-50 47t-86 18.5t-86 -18.5t-49.5 -47t-20 -50.5t-5.5 -42h-88q-8 132 67 202t182 70z" />
    <glyph glyph-name="uni0203" unicode="&#x203;" horiz-adv-x="1042" 
d="M532 1528q110 0 180 -68.5t70 -204.5h-88q0 20 -5.5 42t-20.5 50.5t-50 47t-86 18.5t-86 -18.5t-49.5 -47t-20 -50.5t-5.5 -42h-88q-8 132 67 202.5t182 70.5zM850 41q-54 -26 -152.5 -43.5t-210.5 -17.5q-186 0 -287.5 82t-101.5 239q0 168 120.5 256.5t328.5 106.5
q51 2 67 2t66 -3.5t51 -3.5q0 87 -10 145t-37 106t-80 71t-135 23q-152 0 -256 -58l-25 94q45 25 122.5 44.5t168.5 19.5q176 0 273.5 -93.5t97.5 -271.5v-116v-582zM731 102v465q-103 8 -192 2q-71 -9 -123.5 -25t-99 -45.5t-71 -79t-24.5 -118.5q0 -229 285 -229
q133 0 225 30z" />
    <glyph glyph-name="uni0204" unicode="&#x204;" horiz-adv-x="1136" 
d="M924 0h-748v1413h721v-100h-592v-525h531v-100h-531v-588h619v-100zM547 1817l94 86l244 -332l-80 -60zM225 1817l94 86l244 -332l-80 -60z" />
    <glyph glyph-name="uni0205" unicode="&#x205;" horiz-adv-x="1122" 
d="M961 555l-725 -53q18 -420 376 -420q154 0 265 59l28 -96q-41 -26 -121.5 -45.5t-175.5 -19.5q-239 0 -367 144t-128 419q0 138 35.5 247t97 176.5t140 102.5t167.5 35q174 0 278.5 -104.5t122.5 -315.5q1 -10 3.5 -31.5t3.5 -31.5v-66zM840 639q-1 182 -76 273.5
t-211 91.5q-139 0 -226 -109.5t-91 -302.5zM377 1501l94 86l244 -332l-80 -59zM55 1501l95 86l243 -332l-80 -59z" />
    <glyph glyph-name="uni0206" unicode="&#x206;" horiz-adv-x="1136" 
d="M1057 0h-873v1419h820v-121h-680v-493h606v-119h-606v-565h733v-121zM594 1847q110 0 180 -68.5t70 -203.5h-88q0 20 -5.5 42t-20.5 50.5t-50 47t-86 18.5t-86 -18.5t-50 -47t-20.5 -50.5t-5.5 -42h-88q-8 132 67.5 202t182.5 70z" />
    <glyph glyph-name="uni0207" unicode="&#x207;" horiz-adv-x="1122" 
d="M113 530q0 134 39 242t105 174.5t147.5 101.5t170.5 35q166 0 272.5 -90t139.5 -268q14 -86 14 -160q0 -27 -4 -63h-743q6 -200 98.5 -302t284.5 -102q143 0 264 56l25 -115q-37 -22 -117.5 -42t-175.5 -20q-109 0 -196 27t-147.5 75t-100.5 117.5t-58 152.5t-18 181z
M258 614h606q-5 167 -78.5 259t-207.5 92q-136 0 -224 -102.5t-96 -248.5zM573 1528q110 0 180 -68.5t70 -204.5h-88q0 20 -5.5 42t-20.5 50.5t-50 47t-86 18.5t-86 -18.5t-49.5 -47t-20 -50.5t-5.5 -42h-88q-8 132 67 202.5t182 70.5z" />
    <glyph glyph-name="uni0208" unicode="&#x208;" horiz-adv-x="507" 
d="M309 0h-129v1413h129v-1413zM88 1817l94 86l244 -332l-80 -60zM-233 1817l94 86l243 -332l-79 -60z" />
    <glyph glyph-name="uni0209" unicode="&#x209;" horiz-adv-x="485" 
d="M309 1059v-1059h-133v1059h133zM131 1501l94 86l244 -332l-80 -59zM-190 1501l94 86l243 -332l-79 -59z" />
    <glyph glyph-name="uni020A" unicode="&#x20a;" horiz-adv-x="507" 
d="M184 0v1419h140v-1419h-140zM256 1847q110 0 180 -68.5t70 -203.5h-88q0 20 -5.5 42t-20.5 50.5t-50 47t-86 18.5t-86 -18.5t-50 -47t-20.5 -50.5t-5.5 -42h-88q-8 132 67.5 202t182.5 70z" />
    <glyph glyph-name="uni020B" unicode="&#x20b;" horiz-adv-x="485" 
d="M309 1059v-1059h-133v1059h133zM244 1528q110 0 180 -68.5t70 -204.5h-88q0 20 -5.5 42t-20.5 50.5t-50 47t-86 18.5t-86 -18.5t-50 -47t-20.5 -50.5t-5.5 -42h-88q-8 132 67.5 202.5t182.5 70.5z" />
    <glyph glyph-name="uni020C" unicode="&#x20c;" horiz-adv-x="1585" 
d="M1278 707q0 -335 -156 -533.5t-422 -198.5t-421.5 198t-155.5 534q0 334 155.5 533.5t421.5 199.5t422 -199.5t156 -533.5zM1145 709q0 132 -27 244.5t-80 199t-139.5 135.5t-198.5 49q-90 0 -164 -32t-125.5 -89t-86.5 -136.5t-51.5 -172.5t-16.5 -198t16 -197.5
t51 -172.5t86 -137t125.5 -89.5t165.5 -32.5q114 0 201 49.5t139.5 136.5t78.5 199t26 244zM547 1817l94 86l244 -332l-80 -60zM225 1817l94 86l244 -332l-80 -60z" />
    <glyph glyph-name="uni020D" unicode="&#x20d;" horiz-adv-x="1191" 
d="M999 539q0 -252 -116.5 -407t-325.5 -155q-210 0 -327 154.5t-117 407.5q0 255 116.5 410t325.5 155q211 0 327.5 -155t116.5 -410zM872 539q0 96 -18 178.5t-54 148.5t-98.5 104t-144.5 38q-83 0 -146 -38t-100 -104t-55 -148.5t-18 -178.5q0 -97 18.5 -178t55.5 -145.5
t100 -101t145 -36.5t144.5 36.5t99 101t54 145.5t17.5 178zM397 1501l95 86l243 -332l-80 -59zM76 1501l94 86l244 -332l-80 -59z" />
    <glyph glyph-name="uni020E" unicode="&#x20e;" horiz-adv-x="1585" 
d="M1278 707q0 -335 -156 -533.5t-422 -198.5t-421.5 198t-155.5 534q0 334 155.5 533.5t421.5 199.5t422 -199.5t156 -533.5zM1145 709q0 132 -27 244.5t-80 199t-139.5 135.5t-198.5 49q-90 0 -164 -32t-125.5 -89t-86.5 -136.5t-51.5 -172.5t-16.5 -198t16 -197.5
t51 -172.5t86 -137t125.5 -89.5t165.5 -32.5q114 0 201 49.5t139.5 136.5t78.5 199t26 244zM676 1819q107 0 182.5 -70.5t67.5 -202.5h-88q0 20 -5.5 42t-20.5 50.5t-50 47t-86 18.5t-86 -18.5t-50 -47t-20.5 -50.5t-5.5 -42h-88q-8 132 67.5 202.5t182.5 70.5z" />
    <glyph glyph-name="uni020F" unicode="&#x20f;" horiz-adv-x="1191" 
d="M999 539q0 -252 -116.5 -407t-325.5 -155q-210 0 -327 154.5t-117 407.5q0 255 116.5 410t325.5 155q211 0 327.5 -155t116.5 -410zM872 539q0 96 -18 178.5t-54 148.5t-98.5 104t-144.5 38q-83 0 -146 -38t-100 -104t-55 -148.5t-18 -178.5q0 -97 18.5 -178t55.5 -145.5
t100 -101t145 -36.5t144.5 36.5t99 101t54 145.5t17.5 178zM555 1470q107 0 182.5 -70t67.5 -202h-88q0 20 -5.5 42t-20.5 50.5t-50 47t-86 18.5t-86 -18.5t-50 -47t-20.5 -50.5t-5.5 -42h-88q-8 132 67.5 202t182.5 70z" />
    <glyph glyph-name="uni0210" unicode="&#x210;" horiz-adv-x="1265" 
d="M1087 0h-143q-126 199 -366 514q-11 8 -67.5 48t-86.5 63h-119v-625h-125v1374q141 56 334 56q254 0 386 -108.5t132 -313.5q0 -176 -104 -276t-289 -118v-2q299 -375 448 -612zM901 1008q0 325 -383 325q-70 0 -123 -6q-29 -3 -90 -18v-615q90 -8 170 -8
q207 0 316.5 73.5t109.5 248.5zM547 1817l94 86l244 -332l-80 -60zM225 1817l94 86l244 -332l-80 -60z" />
    <glyph glyph-name="uni0211" unicode="&#x211;" horiz-adv-x="765" 
d="M657 1085l-30 -104q-80 23 -174 18q-108 -3 -164 -36v-963h-123v1028q129 63 293 70q91 3 198 -13zM377 1501l94 86l244 -332l-80 -59zM55 1501l95 86l243 -332l-80 -59z" />
    <glyph glyph-name="uni0212" unicode="&#x212;" horiz-adv-x="1265" 
d="M1130 993q0 -293 -305 -385q97 -122 212.5 -293t179.5 -315h-150q-124 233 -383 580q-75 -7 -131 -7h-229v-573h-140v1393q142 39 357 39q293 0 441 -111t148 -328zM557 1311q-105 0 -233 -15v-604h192q61 0 108 2.5t97.5 10.5t87.5 21.5t72 36t56.5 54t34.5 76.5t13 102
q0 316 -428 316zM592 1847q110 0 180 -68.5t70 -203.5h-88q0 20 -5.5 42t-20.5 50.5t-50 47t-86 18.5t-86 -18.5t-50 -47t-20.5 -50.5t-5.5 -42h-88q-8 132 67.5 202t182.5 70z" />
    <glyph glyph-name="uni0213" unicode="&#x213;" horiz-adv-x="765" 
d="M537 1079q62 0 120.5 -9.5t83.5 -20.5q-4 -20 -13 -58t-13 -57q-62 27 -199 27q-131 0 -207 -33v-928h-133v1010q151 69 361 69zM465 1528q107 0 182.5 -70.5t67.5 -202.5h-88q0 20 -5.5 42t-20.5 50.5t-50 47t-86 18.5t-86 -18.5t-50 -47t-20.5 -50.5t-5.5 -42h-88
q-8 132 67.5 202.5t182.5 70.5z" />
    <glyph glyph-name="uni0214" unicode="&#x214;" horiz-adv-x="1392" 
d="M1106 461q0 -103 -28.5 -190t-84 -154.5t-146.5 -105.5t-208 -38q-203 0 -320 110.5t-137 287.5q-8 81 -8 190v852h127v-842q0 -242 80 -365.5t262 -123.5q127 0 217.5 75.5t110.5 211.5q12 89 12 202v842h123v-952zM547 1817l94 86l244 -332l-80 -60zM225 1817l94 86
l244 -332l-80 -60z" />
    <glyph glyph-name="uni0215" unicode="&#x215;" 
d="M928 51q-169 -71 -379 -71q-97 0 -167.5 25t-113 66t-67 106.5t-33 133.5t-8.5 160v610h123v-585q0 -86 6 -145.5t23.5 -114t48.5 -87t82 -51t122 -18.5q167 0 240 41v960h123v-1030zM377 1501l94 86l244 -332l-80 -59zM55 1501l95 86l243 -332l-80 -59z" />
    <glyph glyph-name="uni0216" unicode="&#x216;" horiz-adv-x="1392" 
d="M696 -31q-138 0 -240 42.5t-161.5 119.5t-88 175t-28.5 220v893h139v-874q0 -226 101 -338.5t278 -112.5t278 112.5t101 338.5v874h139v-893q0 -121 -28.5 -219t-88 -175.5t-161.5 -120t-240 -42.5zM696 1847q110 0 180 -68.5t70 -203.5h-88q0 20 -5.5 42t-20.5 50.5
t-50 47t-86 18.5t-86 -18.5t-49.5 -47t-20 -50.5t-5.5 -42h-89q-8 132 67.5 202t182.5 70z" />
    <glyph glyph-name="uni0217" unicode="&#x217;" 
d="M989 1059v-1022q-198 -57 -405 -57q-116 0 -198.5 34t-130 100t-69.5 152t-22 199v594h133v-551q0 -225 69.5 -316.5t237.5 -91.5q84 0 156 10t96 19v930h133zM575 1528q110 0 180 -68.5t70 -204.5h-88q0 20 -5.5 42t-20.5 50.5t-50 47t-86 18.5t-86 -18.5t-49.5 -47
t-20 -50.5t-5.5 -42h-88q-8 132 67 202.5t182 70.5z" />
    <glyph glyph-name="Scommaaccent" unicode="&#x218;" horiz-adv-x="1058" 
d="M489 90q351 0 351 256q0 56 -19 101.5t-41.5 74t-73 58.5t-81.5 43.5t-100 40.5q-26 11 -40 16q-158 64 -244 126.5t-116 158.5q-16 56 -16 114q0 181 119 276t337 95q109 0 212.5 -27.5t158.5 -66.5l-49 -117q-131 90 -328 90q-142 0 -225.5 -58.5t-83.5 -180.5
q0 -62 20 -106.5t74.5 -82t92 -55.5t129.5 -56q6 -3 9 -4q172 -71 239 -114q135 -89 163 -228q8 -42 8 -90q0 -188 -132 -286.5t-366 -98.5q-143 0 -252 31t-165 66l45 120q160 -96 374 -96zM469 -139v26h131q2 -10 2 -34q0 -20 -4 -48q-10 -77 -56 -124t-118 -58
q-28 -4 -43 -4q-45 0 -64 8v88q85 0 118.5 34t33.5 112z" />
    <glyph glyph-name="scommaaccent" unicode="&#x219;" horiz-adv-x="876" 
d="M393 94q264 0 264 166q0 30 -4.5 52t-20.5 42.5t-30.5 33.5t-52 32t-65.5 31.5t-89 37.5q-44 19 -66.5 29t-60 29t-57 34t-45 38.5t-38 48t-21.5 57t-9 70.5q0 130 98 209t267 79q167 0 278 -51q-5 -20 -15 -59.5t-15 -59.5q-111 54 -254 54q-97 0 -160.5 -40t-63.5 -120
q0 -41 12.5 -70.5t51 -55.5t68 -40.5t102.5 -44.5q9 -4 14 -6q137 -58 186 -90q116 -76 127 -204q1 -14 1 -30q0 -141 -106.5 -216t-295.5 -75q-187 0 -311 60l35 121q12 -9 40 -21t94.5 -26.5t141.5 -14.5zM375 -139v26h131q2 -10 2 -34q0 -20 -4 -48q-10 -77 -56 -124
t-118 -58q-28 -4 -43 -4q-45 0 -64 8v88q85 0 118.5 34t33.5 112z" />
    <glyph glyph-name="uni021A" unicode="&#x21a;" horiz-adv-x="1122" 
d="M37 1419h1048v-121h-454v-1298h-139v1298h-455v121zM489 -139v26h132q2 -10 2 -34q0 -13 -5 -48q-10 -77 -56 -124t-118 -58q-28 -4 -43 -4q-44 0 -63 8v88q85 0 118 34t33 112z" />
    <glyph glyph-name="uni021B" unicode="&#x21b;" horiz-adv-x="792" 
d="M301 1395v-336h422v-113h-422v-563q0 -88 15 -146t45.5 -87.5t67.5 -40.5t91 -11q120 0 215 56q5 -19 16.5 -56t16.5 -55q-37 -23 -108.5 -44.5t-147.5 -21.5q-192 0 -268 99t-76 319v0v488v487zM410 -139v26h131q2 -10 2 -34q0 -20 -4 -48q-10 -77 -56 -124t-118 -58
q-28 -4 -43 -4q-45 0 -64 8v88q85 0 118.5 34t33.5 112z" />
    <glyph glyph-name="uni021C" unicode="&#x21c;" horiz-adv-x="1073" 
d="M428 1331q-98 0 -187 -27t-153 -71l-49 117q59 40 164.5 70t222.5 30q217 0 346 -108.5t129 -317.5q0 -52 -12 -102q-27 -103 -104.5 -183t-192.5 -114q173 -41 271 -158.5t98 -282.5q0 -122 -44 -220t-117 -161t-173 -105t-207 -59.5t-225 -17.5q-111 0 -134 6l9 119
q28 -4 110 -4q76 0 147.5 8.5t144.5 27.5t133 52.5t107.5 80t74 115t26.5 152.5q0 72 -22 133q-26 68 -80.5 118t-122 75t-129.5 36t-121 11h-74v119h55q83 0 158.5 20.5t138.5 61t100.5 110t37.5 158.5q0 148 -84 229.5t-242 81.5z" />
    <glyph glyph-name="uni021D" unicode="&#x21d;" horiz-adv-x="854" 
d="M315 969q-149 -2 -254 -54l-34 109q44 25 125.5 42t169.5 17q85 0 154 -19.5t124 -61.5t85 -113.5t30 -169.5q0 -103 -68.5 -185.5t-165.5 -113.5q287 -59 287 -328q0 -77 -25 -142.5t-67 -112.5t-101 -85t-124 -62t-138.5 -40t-141.5 -22.5t-136 -6.5l-6 113
q51 2 90.5 5t105.5 13t116 24.5t107 42t94 63t62 90t25 120.5q0 258 -371 258h-37v113q51 0 97 6.5t95.5 24.5t85 46.5t58.5 77t23 111.5q0 117 -67.5 178.5t-197.5 61.5z" />
    <glyph glyph-name="uni021E" unicode="&#x21e;" horiz-adv-x="1417" 
d="M1094 803v616h139v-1419h-139v682h-770v-682h-140v1419h140v-616h770zM496 1886l213 -196l213 196l57 -63l-270 -301l-271 301z" />
    <glyph glyph-name="uni021F" unicode="&#x21f;" 
d="M309 0h-133v1565q23 4 66.5 12t66.5 12v-561q136 51 269 51q97 0 170.5 -23t121 -64t77.5 -103t42 -134t12 -163v-592h-133v549q0 228 -67 318.5t-244 90.5q-61 0 -142 -17.5t-106 -29.5v-911zM580 1890l-244 -200l-244 200l45 72l199 -139l199 139z" />
    <glyph glyph-name="uni0220" unicode="&#x220;" horiz-adv-x="1359" 
d="M1182 897v-1276h-140v1229q0 247 -86.5 361t-296.5 114q-200 0 -335 -43v-1282h-140v1374q87 29 221.5 51.5t276.5 22.5q138 0 237 -40.5t155.5 -116.5t82 -172.5t25.5 -221.5z" />
    <glyph glyph-name="uni0221" unicode="&#x221;" horiz-adv-x="1445" 
d="M1186 80q-55 0 -90.5 -24.5t-77.5 -75.5v-54q0 -94 46 -142t124 -48t118 48t40 124q0 73 -41.5 122.5t-118.5 49.5zM1018 1589v-1474q78 78 190 78q119 0 190.5 -80.5t71.5 -204.5q0 -134 -76.5 -210.5t-205.5 -76.5q-234 0 -289 209l-151 -180l-70 61l209 250
q-2 27 -2 62q-105 -41 -252 -41q-235 0 -377.5 145.5t-142.5 400.5q0 247 127.5 400t351.5 153q94 0 171.5 -26.5t121.5 -59.5v570zM885 143v723q-48 36 -122 65.5t-159 29.5q-94 0 -163.5 -34t-109.5 -95t-58.5 -136.5t-18.5 -167.5q0 -203 103.5 -314.5t277.5 -111.5
q136 0 250 41z" />
    <glyph glyph-name="uni0222" unicode="&#x222;" horiz-adv-x="1339" 
d="M670 111q194 0 305.5 74t111.5 227q0 154 -111.5 228.5t-305.5 74.5q-127 0 -218.5 -30.5t-145.5 -99.5t-54 -173q0 -153 112 -227t306 -74zM670 -8q-282 0 -424 111t-142 309q0 80 28.5 147.5t75 111t98 70.5t104.5 39q-209 68 -209 336q0 154 39 303h131
q-35 -180 -35 -289q0 -153 79.5 -226t254.5 -73q174 0 254 73.5t80 225.5q0 109 -35 289h131q39 -149 39 -303q0 -268 -209 -336q53 -12 104 -39t97.5 -70.5t75 -111t28.5 -147.5q0 -198 -142 -309t-423 -111z" />
    <glyph glyph-name="uni0223" unicode="&#x223;" horiz-adv-x="1204" 
d="M602 94q159 0 250.5 103t91.5 282q0 180 -91 282.5t-251 102.5t-251 -102.5t-91 -282.5q0 -179 91.5 -282t250.5 -103zM602 979q140 0 208.5 77.5t68.5 252.5q0 125 -31 280h131q33 -152 33 -315q0 -138 -48 -226t-133 -126q108 -49 181 -163t73 -280
q0 -229 -128.5 -366.5t-354.5 -137.5t-354.5 137.5t-128.5 366.5q0 166 73 280t181 163q-180 81 -180 352q0 168 32 315h131q-30 -150 -30 -280q0 -175 68 -252.5t208 -77.5z" />
    <glyph glyph-name="uni0224" unicode="&#x224;" horiz-adv-x="1146" 
d="M711 -254q28 -12 75 -12q90 0 117 55.5t27 210.5h-852v104q132 258 387 630t428 564h-776v121h927v-127q-36 -41 -65 -78q-172 -212 -393 -530.5t-357 -562.5h836v-127q0 -80 -5 -133t-20 -103.5t-43 -78.5t-75 -45t-115 -17q-38 0 -68 6q-34 7 -47 12z" />
    <glyph glyph-name="uni0225" unicode="&#x225;" horiz-adv-x="931" 
d="M727 0h-649v96q96 182 278.5 437t315.5 413h-563v113h725v-109q-105 -112 -295 -371t-308 -466h621v-119q0 -65 -2.5 -107t-10.5 -90t-24.5 -76.5t-44 -54t-70 -36.5t-100.5 -11q-68 0 -108 16l18 109q27 -10 74 -10q90 0 116.5 57t26.5 209z" />
    <glyph glyph-name="uni0226" unicode="&#x226;" horiz-adv-x="1312" 
d="M1204 0h-137q-117 340 -149 434h-603q-82 -222 -151 -434h-127q124 345 187.5 520.5t160 430t182.5 462.5h107q64 -156 135.5 -343t121 -321.5t137.5 -376t136 -372.5zM885 532q-84 241 -201 560q-17 45 -37.5 107t-28.5 79q-9 -12 -28 -72q-40 -121 -125.5 -353.5
t-116.5 -320.5h537zM612 1563q-42 0 -70 28t-28 74t28 74t70 28t70.5 -28t28.5 -74t-28.5 -74t-70.5 -28z" />
    <glyph glyph-name="uni0227" unicode="&#x227;" horiz-adv-x="1042" 
d="M850 41q-54 -26 -152.5 -43.5t-210.5 -17.5q-186 0 -287.5 82t-101.5 239q0 168 120.5 256.5t328.5 106.5q51 2 67 2t66 -3.5t51 -3.5q0 87 -10 145t-37 106t-80 71t-135 23q-152 0 -256 -58l-25 94q45 25 122.5 44.5t168.5 19.5q176 0 273.5 -93.5t97.5 -271.5v-116
v-582zM731 102v465q-103 8 -192 2q-71 -9 -123.5 -25t-99 -45.5t-71 -79t-24.5 -118.5q0 -229 285 -229q133 0 225 30zM510 1245q-42 0 -70 28.5t-28 74.5t28 74t70 28t70 -28t28 -74t-28 -74.5t-70 -28.5z" />
    <glyph glyph-name="uni0228" unicode="&#x228;" horiz-adv-x="1136" 
d="M649 -74q62 -27 93.5 -62.5t31.5 -92.5q0 -28 -9 -53t-29.5 -49t-62.5 -38t-100 -14q-100 0 -145 25l16 88q42 -19 121 -19q84 0 84 60q0 33 -24.5 50.5t-94.5 45.5q29 80 60 133h-406v1419h820v-121h-680v-493h606v-119h-606v-565h733v-121h-373q-24 -44 -35 -74z" />
    <glyph glyph-name="uni0229" unicode="&#x229;" horiz-adv-x="1122" 
d="M643 -23q-4 -8 -11 -25.5t-11 -25.5q124 -55 124 -155q0 -28 -8.5 -53t-29.5 -49t-62.5 -38t-99.5 -14q-101 0 -146 25l17 88q42 -19 121 -19q84 0 84 60q0 33 -24.5 50.5t-94.5 45.5q18 59 51 115q-226 24 -333 168.5t-107 379.5q0 134 39 242t105 174.5t147.5 101.5
t170.5 35q201 0 313.5 -130t112.5 -388q0 -13 -2 -34t-2 -29h-743q9 -335 264 -391q57 -13 119 -13q143 0 264 56l25 -115q-37 -22 -113 -41.5t-170 -20.5zM258 614h606q-5 167 -78.5 259t-207.5 92q-136 0 -224 -102.5t-96 -248.5z" />
    <glyph glyph-name="uni022A" unicode="&#x22a;" horiz-adv-x="1585" 
d="M1278 707q0 -335 -156 -533.5t-422 -198.5t-421.5 198t-155.5 534q0 334 155.5 533.5t421.5 199.5t422 -199.5t156 -533.5zM1145 709q0 132 -27 244.5t-80 199t-139.5 135.5t-198.5 49q-90 0 -164 -32t-125.5 -89t-86.5 -136.5t-51.5 -172.5t-16.5 -198t16 -197.5
t51 -172.5t86 -137t125.5 -89.5t165.5 -32.5q114 0 201 49.5t139.5 136.5t78.5 199t26 244zM440 1841v111h514v-111h-514zM588 1634q0 -44 -26 -71t-68 -27t-68.5 27t-26.5 71q0 43 26.5 71t68.5 28q41 0 67.5 -27.5t26.5 -71.5zM995 1634q0 -44 -26 -71t-68 -27t-68 27
t-26 71q0 43 26 71t68 28q40 0 67 -28t27 -71z" />
    <glyph glyph-name="uni022B" unicode="&#x22b;" horiz-adv-x="1191" 
d="M999 539q0 -252 -116.5 -407t-325.5 -155q-210 0 -327 154.5t-117 407.5q0 255 116.5 410t325.5 155q211 0 327.5 -155t116.5 -410zM872 539q0 96 -18 178.5t-54 148.5t-98.5 104t-144.5 38q-83 0 -146 -38t-100 -104t-55 -148.5t-18 -178.5q0 -97 18.5 -178t55.5 -145.5
t100 -101t145 -36.5t144.5 36.5t99 101t54 145.5t17.5 178zM295 1497v111h514v-111h-514zM442 1290q0 -44 -26 -71t-68 -27t-68 27t-26 71q0 43 26 71t68 28q41 0 67.5 -27.5t26.5 -71.5zM850 1290q0 -44 -26 -71t-68 -27t-68 27t-26 71q0 43 26 71t68 28q40 0 67 -28
t27 -71z" />
    <glyph glyph-name="uni022C" unicode="&#x22c;" horiz-adv-x="1585" 
d="M1278 707q0 -335 -156 -533.5t-422 -198.5t-421.5 198t-155.5 534q0 334 155.5 533.5t421.5 199.5t422 -199.5t156 -533.5zM1145 709q0 132 -27 244.5t-80 199t-139.5 135.5t-198.5 49q-90 0 -164 -32t-125.5 -89t-86.5 -136.5t-51.5 -172.5t-16.5 -198t16 -197.5
t51 -172.5t86 -137t125.5 -89.5t165.5 -32.5q114 0 201 49.5t139.5 136.5t78.5 199t26 244zM535 1759q69 0 171 -34.5t191 -34.5q67 0 111 21t90 67l35 -68q-69 -178 -240 -178q-53 0 -154 43t-141 43q-17 0 -50.5 -4t-85.5 -21t-77 -43l-68 95q72 65 102 83q53 31 116 31z
M1036 1868h-655v143h655v-143z" />
    <glyph glyph-name="uni022D" unicode="&#x22d;" horiz-adv-x="1191" 
d="M999 539q0 -252 -116.5 -407t-325.5 -155q-210 0 -327 154.5t-117 407.5q0 255 116.5 410t325.5 155q211 0 327.5 -155t116.5 -410zM872 539q0 96 -18 178.5t-54 148.5t-98.5 104t-144.5 38q-83 0 -146 -38t-100 -104t-55 -148.5t-18 -178.5q0 -97 18.5 -178t55.5 -145.5
t100 -101t145 -36.5t144.5 36.5t99 101t54 145.5t17.5 178zM680 1227q-46 0 -101 20t-98.5 40t-62.5 20q-38 0 -62.5 -24t-50.5 -69l-78 37q27 65 75.5 114.5t121.5 49.5q51 0 105.5 -20t96 -40t60.5 -20q38 0 62.5 23.5t50.5 68.5l71 -36q-30 -62 -80.5 -113t-109.5 -51z
M283 1518v110h514v-110h-514z" />
    <glyph glyph-name="uni022E" unicode="&#x22e;" horiz-adv-x="1585" 
d="M1278 707q0 -335 -156 -533.5t-422 -198.5t-421.5 198t-155.5 534q0 334 155.5 533.5t421.5 199.5t422 -199.5t156 -533.5zM1145 709q0 132 -27 244.5t-80 199t-139.5 135.5t-198.5 49q-90 0 -164 -32t-125.5 -89t-86.5 -136.5t-51.5 -172.5t-16.5 -198t16 -197.5
t51 -172.5t86 -137t125.5 -89.5t165.5 -32.5q114 0 201 49.5t139.5 136.5t78.5 199t26 244zM702 1624q-42 0 -70 28t-28 74t28 74.5t70 28.5t70.5 -28.5t28.5 -74.5t-28.5 -74t-70.5 -28z" />
    <glyph glyph-name="uni022F" unicode="&#x22f;" horiz-adv-x="1191" 
d="M999 539q0 -252 -116.5 -407t-325.5 -155q-210 0 -327 154.5t-117 407.5q0 255 116.5 410t325.5 155q211 0 327.5 -155t116.5 -410zM872 539q0 96 -18 178.5t-54 148.5t-98.5 104t-144.5 38q-83 0 -146 -38t-100 -104t-55 -148.5t-18 -178.5q0 -97 18.5 -178t55.5 -145.5
t100 -101t145 -36.5t144.5 36.5t99 101t54 145.5t17.5 178zM596 1276q-42 0 -70 28t-28 74t28 74.5t70 28.5t70 -28.5t28 -74.5t-28 -74t-70 -28z" />
    <glyph glyph-name="uni0230" unicode="&#x230;" horiz-adv-x="1585" 
d="M1278 707q0 -335 -156 -533.5t-422 -198.5t-421.5 198t-155.5 534q0 334 155.5 533.5t421.5 199.5t422 -199.5t156 -533.5zM1145 709q0 132 -27 244.5t-80 199t-139.5 135.5t-198.5 49q-90 0 -164 -32t-125.5 -89t-86.5 -136.5t-51.5 -172.5t-16.5 -198t16 -197.5
t51 -172.5t86 -137t125.5 -89.5t165.5 -32.5q114 0 201 49.5t139.5 136.5t78.5 199t26 244zM444 1839v111h514v-111h-514zM797 1632q0 -44 -26.5 -71t-68.5 -27t-68 27t-26 71t26.5 71.5t67.5 27.5q42 0 68.5 -27.5t26.5 -71.5z" />
    <glyph glyph-name="uni0231" unicode="&#x231;" horiz-adv-x="1191" 
d="M999 539q0 -252 -116.5 -407t-325.5 -155q-210 0 -327 154.5t-117 407.5q0 255 116.5 410t325.5 155q211 0 327.5 -155t116.5 -410zM872 539q0 96 -18 178.5t-54 148.5t-98.5 104t-144.5 38q-83 0 -146 -38t-100 -104t-55 -148.5t-18 -178.5q0 -97 18.5 -178t55.5 -145.5
t100 -101t145 -36.5t144.5 36.5t99 101t54 145.5t17.5 178zM297 1522v110h514v-110h-514zM649 1315q0 -44 -26 -71t-68 -27t-68 27t-26 71t26 71t68 27t68 -27t26 -71z" />
    <glyph glyph-name="uni0232" unicode="&#x232;" 
d="M1044 1413q-278 -524 -440 -799v-614h-127v612q-211 359 -442 801h145q190 -398 365 -704q156 275 368 704h131zM811 1618h-543v113h543v-113z" />
    <glyph glyph-name="uni0233" unicode="&#x233;" horiz-adv-x="970" 
d="M909 1081q-193 -692 -358 -1124q-21 -57 -35 -89.5t-34.5 -72.5t-40 -60.5t-46 -35t-57.5 -14.5q-23 0 -45 3t-37 7t-32.5 11.5t-25 11.5t-22.5 13t-18 11l22 76q5 -3 21 -12.5t21.5 -12.5t18 -10t18.5 -9t16 -6t18 -5t16 -1q28 0 52 21t40.5 55.5t28 68.5t22.5 71
q1 4 1.5 6.5t1.5 5.5q-241 555 -398 1091h131q95 -356 269 -825q12 -30 28.5 -80t22.5 -63q4 0 11 24t17.5 62t16.5 55q101 307 240 827h116zM756 1329h-543v113h543v-113z" />
    <glyph glyph-name="uni0234" unicode="&#x234;" horiz-adv-x="731" 
d="M471 80q-55 0 -90.5 -24.5t-77.5 -75.5v-54q0 -94 46 -142t124 -48t118 48t40 124q0 73 -41.5 122.5t-118.5 49.5zM184 -170l-151 -180l-70 61l209 250q-2 27 -2 64v1540l133 24v-1474q78 78 191 78q119 0 190.5 -80.5t71.5 -204.5q0 -134 -77 -210.5t-206 -76.5
q-234 0 -289 209z" />
    <glyph glyph-name="uni0235" unicode="&#x235;" horiz-adv-x="1429" 
d="M1169 80q-55 0 -90.5 -24.5t-77.5 -75.5v-54q0 -94 46 -142t124 -48t118 48t40 124q0 73 -41.5 122.5t-118.5 49.5zM1001 592v-477q78 78 191 78q89 0 153 -47t91 -126q18 -52 18 -112q0 -134 -77 -210.5t-206 -76.5q-233 0 -288 209l-152 -180l-69 61l208 250
q-2 27 -2 64v524q0 227 -67.5 318t-239.5 91q-84 0 -155.5 -9.5t-96.5 -18.5v-930h-133v1022q198 57 406 57q118 0 201 -34.5t130 -101t67.5 -152t20.5 -199.5z" />
    <glyph glyph-name="uni0236" unicode="&#x236;" horiz-adv-x="794" 
d="M303 946v-831q78 78 191 78q119 0 190.5 -80.5t71.5 -204.5q0 -134 -77 -210.5t-206 -76.5q-234 0 -289 209l-151 -180l-70 61l209 250q-2 27 -2 64v1345l133 25v-336h422v-113h-422zM471 80q-55 0 -90.5 -24.5t-77.5 -75.5v-54q0 -94 46 -142t124 -48t118 48t40 124
q0 73 -41.5 122.5t-118.5 49.5z" />
    <glyph glyph-name="uni0237" unicode="&#x237;" horiz-adv-x="485" 
d="M-23 -383q-58 0 -106 21l18 108q36 -12 86 -12q116 0 158.5 63.5t42.5 206.5v1055h133v-1049q0 -204 -77.5 -298.5t-254.5 -94.5z" />
    <glyph glyph-name="uni0238" unicode="&#x238;" horiz-adv-x="1902" 
d="M1018 866v-741q85 -29 250 -29q175 0 278 113t103 319q0 92 -19 167.5t-58.5 136.5t-109.5 95t-164 34q-85 0 -158.5 -29t-121.5 -66zM1018 1589v-594q44 33 121.5 59.5t171.5 26.5q224 0 351.5 -153t127.5 -400q0 -255 -143 -404t-377 -149q-172 0 -320 50
q-148 -50 -317 -50q-234 0 -377 149t-143 404q0 247 127.5 400t351.5 153q94 0 171.5 -26.5t121.5 -59.5v570zM885 125v741q-48 36 -122 65.5t-159 29.5q-94 0 -163.5 -34t-109.5 -95t-58.5 -136.5t-18.5 -167.5q0 -206 103 -319t278 -113q165 0 250 29z" />
    <glyph glyph-name="uni0239" unicode="&#x239;" horiz-adv-x="1902" 
d="M1018 930v-740q48 -36 121.5 -65t158.5 -29q76 0 136 22t100 60.5t66 93.5t37.5 117.5t11.5 136.5q0 206 -103 319t-278 113q-168 0 -250 -28zM1018 61v-440h-133v440q-44 -33 -121.5 -59.5t-171.5 -26.5q-224 0 -351.5 152t-127.5 399q0 255 143 404t377 149
q172 0 317 -49q145 49 320 49q234 0 377 -149t143 -404q0 -247 -127.5 -399t-351.5 -152q-94 0 -171.5 26.5t-121.5 59.5zM885 190v740q-82 28 -250 28q-175 0 -278 -113t-103 -319q0 -93 18.5 -168t58.5 -135.5t109 -93.5t164 -33q85 0 159 29t122 65z" />
    <glyph glyph-name="uni023A" unicode="&#x23a;" horiz-adv-x="1312" 
d="M979 1583l115 -39l-193 -530q57 -133 115 -283t143 -377.5t133 -353.5h-151q-10 28 -64.5 173.5t-79.5 217.5h-323l-211 -590l-119 39l197 551h-236q-41 -107 -141 -391h-144q193 522 314.5 827t259.5 592h123q57 -120 110 -241zM346 504h238l182 493q-12 28 -52.5 122
t-62.5 145q-161 -365 -305 -760zM719 504h239q-23 58 -61.5 163.5t-60.5 161.5z" />
    <glyph glyph-name="uni023B" unicode="&#x23b;" horiz-adv-x="1284" 
d="M1042 1587l109 -43l-61 -147l77 -33q14 -6 54 -29l-47 -118q-54 34 -134 65l-477 -1143q99 -45 223 -45q225 0 365 78l39 -119q-38 -27 -152 -55.5t-264 -28.5q-140 0 -262 51l-92 -223l-109 43l99 236q-133 94 -208 255t-75 380q0 173 54 315.5t145 233.5t208.5 140.5
t247.5 49.5q112 0 193 -20zM274 709q0 -341 189 -506q78 185 232.5 554.5t232.5 555.5q-58 12 -119 12q-258 0 -396.5 -167.5t-138.5 -448.5z" />
    <glyph glyph-name="uni023C" unicode="&#x23c;" horiz-adv-x="968" 
d="M614 -23q-83 0 -174 25l-55 -174l-106 33l59 186q-111 65 -168 188t-57 291q0 252 131.5 404.5t355.5 152.5q22 0 68 -4l57 176l106 -32l-51 -162q89 -25 119 -41l-35 -113q-71 32 -121 43l-264 -829q77 -23 158 -23q128 0 229 52l29 -113q-41 -23 -121 -41.5t-160 -18.5
zM254 526q0 -243 125 -348l252 785q-187 0 -282 -109.5t-95 -327.5z" />
    <glyph glyph-name="uni023D" unicode="&#x23d;" horiz-adv-x="1056" 
d="M352 121h668v-121h-807v684h-164v111h164v624h139v-624h334v-111h-334v-563z" />
    <glyph glyph-name="uni023E" unicode="&#x23e;" horiz-adv-x="989" 
d="M553 918l141 395h-141v-395zM184 -98l240 669v742h-375v100h684l41 119l121 -16l-37 -103h80v-100h-123l-262 -731v-582h-129v219l-133 -348z" />
    <glyph glyph-name="uni023F" unicode="&#x23f;" horiz-adv-x="876" 
d="M672 -266q42 0 67 6l17 -107q-36 -12 -105 -12q-47 0 -84 6q-71 10 -125 46.5t-135 121.5q-43 48 -92 111t-78 92.5t-69 50.5l45 109q114 -62 278 -62q266 0 266 164q0 30 -4.5 51.5t-20.5 41.5t-30.5 33t-52 32t-65.5 31.5t-89 37.5q-44 19 -66.5 29t-60 29t-57 34
t-45 38.5t-38 48t-21.5 57t-9 70.5q0 130 98 208t267 78q172 0 278 -49l-30 -119q-107 52 -254 52q-45 0 -86 -9q-64 -14 -101 -51.5t-37 -97.5q0 -41 12.5 -70.5t51 -55.5t68 -40.5t102.5 -44.5q9 -4 14 -6q136 -55 184 -86q116 -75 128 -201q2 -17 2 -35
q0 -139 -105.5 -207.5t-296.5 -68.5q-57 0 -110 12q15 -15 127 -143q40 -44 70 -68t78.5 -40.5t113.5 -16.5z" />
    <glyph glyph-name="uni0240" unicode="&#x240;" horiz-adv-x="929" 
d="M918 -256l16 -106q-39 -13 -105 -13t-127 21q-54 19 -105 64t-93.5 92.5t-92.5 93t-122.5 75t-161.5 29.5h-49v96q96 182 278.5 437t315.5 413h-563v113h725v-109q-111 -120 -297 -371t-308 -464q100 -12 177.5 -61t160.5 -134q12 -12 41 -42.5t43 -44t41 -36t48 -32.5
t50 -18.5t60 -8.5q43 0 68 6z" />
    <glyph glyph-name="uni0241" unicode="&#x241;" horiz-adv-x="968" 
d="M422 410v-410h-139v416q0 42 3.5 77t8.5 63t18 54.5t23 45.5t32 40.5t37.5 35.5t47.5 35t54 34.5t64 38.5q50 31 79 53t55.5 52t37.5 66t11 83q0 118 -91 176.5t-233 58.5q-108 0 -196 -30.5t-140 -65.5l-47 115q44 35 158 68.5t229 33.5q228 0 346.5 -91.5t118.5 -264.5
q0 -57 -14.5 -104t-35 -79.5t-59 -66t-70 -55t-83.5 -54.5q-7 -4 -10 -6q-93 -58 -132.5 -95.5t-56 -86t-16.5 -137.5z" />
    <glyph glyph-name="uni0242" unicode="&#x242;" horiz-adv-x="831" 
d="M373 233v-233h-135v248q0 73 20.5 128t53 90t85.5 69q26 17 68.5 43t60.5 38t44 33t36.5 38t18.5 42.5t8 56.5q0 51 -22 87t-60.5 55.5t-82.5 28t-97 8.5q-88 0 -167.5 -24.5t-133.5 -63.5l-45 110q43 34 139.5 65t202.5 31q201 0 302 -77.5t101 -221.5q0 -38 -8 -71.5
t-26.5 -61.5t-36 -49t-49.5 -45t-52.5 -37t-58.5 -37q-97 -61 -131.5 -108t-34.5 -142z" />
    <glyph glyph-name="uni0243" unicode="&#x243;" horiz-adv-x="1318" 
d="M553 -12q-69 0 -174.5 12t-165.5 27v317h-164v109h164v940q139 39 354 39q120 0 218.5 -19t180 -60.5t126.5 -115t45 -174.5q0 -114 -57.5 -195t-157.5 -112q284 -65 284 -357q0 -411 -653 -411zM647 680h-295v-227h266v-109h-266v-223q102 -15 217 -15q67 0 124.5 5.5
t115 17.5t101.5 34.5t78 54t52.5 78.5t18.5 105q0 81 -28 136.5t-84 86t-128 43.5t-172 13zM352 1298v-499h271q82 0 145 12t115 40t80 80.5t28 127.5q0 254 -424 254q-127 0 -215 -15z" />
    <glyph glyph-name="uni0244" unicode="&#x244;" horiz-adv-x="1429" 
d="M715 -31q-138 0 -240 42.5t-161.5 120t-88 175.5t-28.5 219v193h-148v110h148v590h139v-590h758v590h139v-590h147v-110h-147v-193q0 -121 -28.5 -219t-88 -175.5t-161.5 -120t-240 -42.5zM715 94q177 0 278 112.5t101 338.5v86v88h-758v-88v-86q0 -226 101 -338.5
t278 -112.5z" />
    <glyph glyph-name="uni0245" unicode="&#x245;" horiz-adv-x="1277" 
d="M1257 0h-155q-255 758 -467 1255q-204 -474 -467 -1255h-148q181 516 300 818.5t253 600.5h129l82 -186q197 -451 473 -1233z" />
    <glyph glyph-name="uni0246" unicode="&#x246;" horiz-adv-x="1163" 
d="M1075 0h-594l-98 -236l-107 41l80 195h-172v1419h766l60 142l106 -41l-301 -717h133v-117h-182l-236 -565h545v-121zM324 1298v-495h368l207 495h-575zM324 686v-565h84l235 565h-319z" />
    <glyph glyph-name="uni0247" unicode="&#x247;" horiz-adv-x="1122" 
d="M113 530q0 93 24 181.5t71.5 163t113 127t155 73t189.5 0.5l57 180l100 -32l-57 -179q235 -109 235 -479q0 -27 -4 -63h-405l-121 -381q101 -34 213.5 -25t216.5 56l25 -113q-68 -37 -155 -52t-171.5 -9.5t-167.5 26.5l-55 -176l-101 33l60 186q-223 132 -223 483z
M254 608h260l115 357q-102 17 -186 -30.5t-131.5 -133.5t-57.5 -193zM481 502h-231q6 -223 127 -326zM627 608h241q0 233 -139 320z" />
    <glyph glyph-name="uni0248" unicode="&#x248;" horiz-adv-x="1032" 
d="M819 1419v-624h164v-111h-164v-238q0 -107 -21 -190t-69 -149.5t-134 -102t-208 -35.5q-131 0 -230 39.5t-141 81.5l66 113q124 -109 291 -109q161 0 234 84t73 283v223h-305v111h305v624h139z" />
    <glyph glyph-name="uni0249" unicode="&#x249;" horiz-adv-x="546" 
d="M10 -383q-58 0 -106 21l18 108q36 -12 86 -12q55 0 84 10q28 9 48 23.5t32.5 39t20 48.5t11 66t4.5 75.5t1 91.5v420h-195v108h195v443h133v-443h170v-108h-170v-416q0 -103 -8.5 -175t-29.5 -132t-58.5 -95t-95.5 -54t-140 -19zM373 1378q0 -46 -28.5 -74t-70.5 -28
t-70 28t-28 74t28 74.5t70 28.5t70.5 -28.5t28.5 -74.5z" />
    <glyph glyph-name="uni024A" unicode="&#x24a;" horiz-adv-x="1615" 
d="M1311 711q0 286 -140 450t-378 164t-378.5 -164.5t-140.5 -449.5t141 -451t378 -166t377.5 166t140.5 451zM1323 -53v307q-73 -124 -217.5 -204.5t-312.5 -80.5q-109 0 -207.5 30t-182.5 91.5t-145.5 148.5t-96 208t-34.5 264q0 142 34.5 262.5t96 207.5t145.5 148
t182.5 91t207.5 30t207.5 -30t182 -91t145 -148t96 -207.5t34.5 -262.5v-787q0 -100 32 -145t109 -45q48 0 76 12l19 -111q-52 -18 -111 -18q-67 0 -115.5 17t-76 44.5t-43.5 72.5t-20.5 89.5t-4.5 106.5z" />
    <glyph glyph-name="uni024B" unicode="&#x24b;" horiz-adv-x="1193" 
d="M885 -53v114q-44 -33 -121.5 -59.5t-171.5 -26.5q-224 0 -351.5 152t-127.5 399q0 255 143 404t377 149q216 0 385 -57v-1098q0 -100 31.5 -145t107.5 -45q47 0 74 10l18 -109q-46 -16 -108 -16q-82 0 -135 23.5t-78.5 71.5t-34 100.5t-8.5 132.5zM885 190v740
q-82 28 -250 28q-175 0 -278 -113t-103 -319q0 -93 18.5 -168t58.5 -135.5t109 -93.5t164 -33q85 0 159 29t122 65z" />
    <glyph glyph-name="uni024C" unicode="&#x24c;" horiz-adv-x="1294" 
d="M711 584q-27 -4 -129 -4h-230v-580h-139v580h-164v112h164v701q142 39 356 39q293 0 441.5 -111t148.5 -328q0 -293 -305 -385q96 -121 211 -292.5t180 -315.5h-149q-122 233 -385 584zM586 1311q-106 0 -234 -15v-604h97h11q65 0 97.5 0.5t90.5 3t88 7.5t75.5 15.5
t69.5 25.5t54 38t44 52.5t24.5 70t10.5 90.5q0 316 -428 316z" />
    <glyph glyph-name="uni024D" unicode="&#x24d;" horiz-adv-x="782" 
d="M553 1079q62 0 121 -9.5t84 -20.5l-27 -115q-109 48 -299 20q-69 -10 -106 -26v-381h317v-109h-317v-438h-133v438h-158v109h158v463q151 69 360 69z" />
    <glyph glyph-name="uni024E" unicode="&#x24e;" horiz-adv-x="1206" 
d="M674 0h-139v584q-114 169 -242 387h-252v110h186q-128 223 -186 338h162q52 -116 174 -338h459q121 221 178 338h151l-190 -338h188v-110h-252q-73 -127 -237 -383v-588zM438 971l170 -271l164 271h-334z" />
    <glyph glyph-name="uni024F" unicode="&#x24f;" horiz-adv-x="1036" 
d="M1001 522h-174q-95 -327 -194 -555q-71 -167 -148 -247t-202 -99q-43 -6 -95 -6q-45 0 -87 11t-58 20l27 110q10 -8 49 -18t76 -10q118 0 186 54.5t125 194.5q-134 240 -254 545h-195v109h156q-80 215 -131 428h141q47 -195 129 -428h377q41 151 102 428h134
q-52 -233 -107 -428h143v-109zM391 522q103 -256 180 -407q55 159 129 407h-309z" />
    <glyph glyph-name="uni0259" unicode="&#x259;" horiz-adv-x="1122" 
d="M113 528l725 54q-18 419 -377 419q-153 0 -264 -59l-29 96q42 26 122 46t175 20q239 0 367.5 -144t128.5 -419q0 -138 -36 -247t-97.5 -176.5t-140 -102.5t-167.5 -35q-174 0 -278.5 104t-122.5 315q-4 39 -6 129zM233 444q1 -182 76 -273t211 -91q139 0 226.5 109.5
t91.5 302.5z" />
    <glyph glyph-name="uni0292" unicode="&#x292;" horiz-adv-x="929" 
d="M256 342v49v51q101 113 213.5 261t173.5 243h-600v113h760v-76q-68 -109 -184 -266t-216 -271q91 -4 167.5 -26.5t142 -67t102.5 -122t37 -181.5q0 -210 -136 -319t-376 -109q-112 0 -202.5 19.5t-137.5 46.5l35 114q111 -59 305 -59q183 0 278 78.5t95 228.5
q0 73 -25 127t-63 85t-94.5 50t-108.5 25t-115 6h-51z" />
    <glyph glyph-name="uni02BB" unicode="&#x2bb;" horiz-adv-x="440" 
d="M231 1604l84 -41q-31 -47 -42.5 -66.5t-23.5 -52.5t-16 -70q105 -10 105 -100q0 -41 -33 -68.5t-82 -27.5q-66 0 -90 32q-33 42 -29 103q5 66 39 145t88 146z" />
    <glyph glyph-name="apostrophe" unicode="&#x2bc;" horiz-adv-x="770" 
d="M332 1589h149q0 -23 -4 -69q-8 -96 -39.5 -176t-91.5 -179l-92 43q82 167 82 310q0 43 -4 71z" />
    <glyph glyph-name="circumflex" unicode="&#x2c6;" horiz-adv-x="770" 
d="M385 1393l-213 -197l-57 64l270 301l270 -301l-57 -64z" />
    <glyph glyph-name="caron" unicode="&#x2c7;" horiz-adv-x="770" 
d="M172 1567l213 -197l213 197l57 -64l-270 -301l-270 301z" />
    <glyph glyph-name="uni02C8" unicode="&#x2c8;" horiz-adv-x="325" 
d="M102 1223v321h121v-321h-121z" />
    <glyph glyph-name="uni02C9" unicode="&#x2c9;" horiz-adv-x="770" 
d="M657 1329h-542v113h542v-113z" />
    <glyph glyph-name="breve" unicode="&#x2d8;" horiz-adv-x="770" 
d="M385 1255q-107 0 -182.5 70.5t-67.5 202.5h88q0 -20 5.5 -42t20.5 -50.5t50 -47t86 -18.5t86 18.5t50 47t20.5 50.5t5.5 42h88q0 -136 -70 -204.5t-180 -68.5z" />
    <glyph glyph-name="dotaccent" unicode="&#x2d9;" horiz-adv-x="770" 
d="M385 1276q-42 0 -70 28t-28 74t28 74.5t70 28.5t70 -28.5t28 -74.5t-28 -74t-70 -28z" />
    <glyph glyph-name="ring" unicode="&#x2da;" horiz-adv-x="770" 
d="M580 1384q0 -87 -56.5 -141.5t-138.5 -54.5t-139.5 54t-57.5 142q0 86 57.5 140.5t139.5 54.5q81 0 138 -55t57 -140zM502 1384q0 56 -33 88.5t-84 32.5t-84 -32.5t-33 -88.5q0 -58 32.5 -89t84.5 -31t84.5 31t32.5 89z" />
    <glyph glyph-name="ogonek" unicode="&#x2db;" horiz-adv-x="770" 
d="M362 -381q-200 0 -200 143q0 71 52.5 139.5t123.5 114.5h141q-67 -50 -108 -94v0q-72 -79 -72 -129q0 -69 86 -69q43 0 78 12l10 -98q-55 -19 -111 -19z" />
    <glyph glyph-name="tilde" unicode="&#x2dc;" horiz-adv-x="770" 
d="M514 1194q-46 0 -101 20t-98.5 40t-62.5 20q-38 0 -62.5 -23.5t-50.5 -68.5l-78 37q12 28 27.5 53.5t39.5 52t57.5 42t72.5 15.5q51 0 105.5 -20t96 -39.5t60.5 -19.5q38 0 62.5 23.5t50.5 68.5l72 -37q-30 -61 -81 -112.5t-110 -51.5z" />
    <glyph glyph-name="hungarumlaut" unicode="&#x2dd;" horiz-adv-x="778" 
d="M375 1251l241 334l95 -88l-260 -307zM389 1497l-258 -307l-76 61l240 336z" />
    <glyph glyph-name="gravecomb" unicode="&#x300;" horiz-adv-x="0" 
d="M-596 1180h-63l-289 360h174z" />
    <glyph glyph-name="acutecomb" unicode="&#x301;" horiz-adv-x="0" 
d="M-598 1180h-64l179 360h174z" />
    <glyph glyph-name="uni0302" unicode="&#x302;" horiz-adv-x="0" 
d="M-625 1393l-213 -197l-57 64l270 301l271 -301l-58 -64z" />
    <glyph glyph-name="tildecomb" unicode="&#x303;" horiz-adv-x="0" 
d="M-492 1288q-46 0 -101 20t-98.5 40t-62.5 20q-27 0 -49 -15t-34 -31t-29 -46l-78 37q27 65 75 114.5t121 49.5q51 0 106 -20t96.5 -40t60.5 -20q27 0 49 15t34 31t29 46l72 -37q-30 -61 -81 -112.5t-110 -51.5z" />
    <glyph glyph-name="uni0304" unicode="&#x304;" horiz-adv-x="0" 
d="M-375 1329h-543v113h543v-113z" />
    <glyph glyph-name="uni0306" unicode="&#x306;" horiz-adv-x="0" 
d="M-637 1255q-107 0 -182.5 70.5t-67.5 202.5h88q0 -20 5.5 -42t20.5 -50.5t50 -47t86 -18.5t86 18.5t50 47t20.5 50.5t5.5 42h88q0 -136 -70 -204.5t-180 -68.5z" />
    <glyph glyph-name="uni0307" unicode="&#x307;" horiz-adv-x="0" 
d="M-645 1276q-42 0 -70 28t-28 74t28 74.5t70 28.5t70 -28.5t28 -74.5t-28 -74t-70 -28z" />
    <glyph glyph-name="uni0308" unicode="&#x308;" horiz-adv-x="0" 
d="M-723 1303q0 -44 -26.5 -71.5t-67.5 -27.5t-67.5 27.5t-26.5 71.5t26 71t68 27t68 -27t26 -71zM-371 1303q0 -44 -26.5 -71.5t-67.5 -27.5t-67.5 27.5t-26.5 71.5t26 71t68 27t68 -27t26 -71z" />
    <glyph glyph-name="uni030A" unicode="&#x30a;" horiz-adv-x="0" 
d="M-434 1384q0 -87 -56.5 -141.5t-138.5 -54.5t-139 54t-57 142q0 86 57 140.5t139 54.5q81 0 138 -55t57 -140zM-512 1384q0 56 -33 88.5t-84 32.5t-83.5 -32.5t-32.5 -88.5q0 -58 32 -89t84 -31t84.5 31t32.5 89z" />
    <glyph glyph-name="uni030B" unicode="&#x30b;" horiz-adv-x="0" 
d="M-578 1251l242 334l94 -88l-260 -307zM-563 1497l-258 -307l-76 61l240 336z" />
    <glyph glyph-name="uni030C" unicode="&#x30c;" horiz-adv-x="0" 
d="M-836 1567l213 -197l213 197l58 -64l-271 -301l-270 301z" />
    <glyph glyph-name="uni030D" unicode="&#x30d;" horiz-adv-x="0" 
d="M-688 1223v321h121v-321h-121z" />
    <glyph glyph-name="uni030E" unicode="&#x30e;" horiz-adv-x="0" 
d="M-594 1223v321h121v-321h-121zM-836 1223v321h121v-321h-121z" />
    <glyph glyph-name="uni030F" unicode="&#x30f;" horiz-adv-x="0" 
d="M-961 1585l242 -334l-76 -61l-260 307zM-475 1190l-258 307l94 90l240 -336z" />
    <glyph glyph-name="uni0310" unicode="&#x310;" horiz-adv-x="0" 
d="M-618 1329q107 0 182 70.5t67 202.5h-88q0 -20 -5.5 -42t-20 -50.5t-49.5 -47t-86 -18.5t-86 18.5t-50 47t-20.5 50.5t-5.5 42h-88q-8 -132 67.5 -202.5t182.5 -70.5zM-618 1501q-42 0 -70.5 28.5t-28.5 74.5t28.5 74t70.5 28t70 -28t28 -74t-28 -74.5t-70 -28.5z" />
    </font>
</defs>
</svg>
